G04 EAGLE Gerber RS-274X export*
G75*
%MOMM*%
%FSLAX34Y34*%
%LPD*%
%INTop Copper*%
%IPPOS*%
%AMOC8*
5,1,8,0,0,1.08239X$1,22.5*%
G01*
%ADD10C,0.300000*%
%ADD11R,1.500000X1.300000*%
%ADD12R,0.400000X1.000000*%
%ADD13R,2.250000X2.250000*%
%ADD14R,2.300000X1.600000*%
%ADD15R,1.300000X1.500000*%
%ADD16P,1.979475X8X292.500000*%
%ADD17P,1.979475X8X112.500000*%
%ADD18P,1.732040X8X202.500000*%
%ADD19C,1.600200*%
%ADD20R,0.600000X1.150000*%
%ADD21C,1.879600*%
%ADD22R,0.600000X1.250000*%
%ADD23C,0.406400*%
%ADD24C,0.304800*%
%ADD25C,0.858000*%
%ADD26C,0.203200*%

G36*
X350044Y2007D02*
X350044Y2007D01*
X350080Y2004D01*
X354301Y2336D01*
X354459Y2371D01*
X354535Y2383D01*
X362564Y4992D01*
X362820Y5116D01*
X362833Y5129D01*
X362847Y5136D01*
X369677Y10098D01*
X369882Y10296D01*
X369891Y10312D01*
X369902Y10323D01*
X374864Y17153D01*
X374907Y17234D01*
X374958Y17311D01*
X374974Y17359D01*
X374998Y17404D01*
X375001Y17422D01*
X375009Y17436D01*
X377617Y25465D01*
X377645Y25625D01*
X377664Y25699D01*
X377996Y29920D01*
X377993Y29965D01*
X377999Y30000D01*
X377999Y660000D01*
X377993Y660044D01*
X377996Y660080D01*
X377664Y664301D01*
X377629Y664459D01*
X377617Y664535D01*
X375008Y672564D01*
X374884Y672820D01*
X374871Y672833D01*
X374864Y672847D01*
X369902Y679677D01*
X369704Y679882D01*
X369688Y679891D01*
X369677Y679902D01*
X362847Y684864D01*
X362596Y684998D01*
X362578Y685001D01*
X362564Y685008D01*
X354535Y687617D01*
X354375Y687645D01*
X354301Y687664D01*
X350080Y687996D01*
X350035Y687993D01*
X350000Y687999D01*
X30000Y687999D01*
X29956Y687993D01*
X29920Y687996D01*
X25699Y687664D01*
X25541Y687629D01*
X25465Y687617D01*
X17436Y685008D01*
X17180Y684884D01*
X17167Y684871D01*
X17153Y684864D01*
X10323Y679902D01*
X10118Y679704D01*
X10109Y679688D01*
X10098Y679677D01*
X5136Y672847D01*
X5002Y672596D01*
X4999Y672578D01*
X4992Y672564D01*
X2383Y664535D01*
X2355Y664375D01*
X2336Y664301D01*
X2004Y660080D01*
X2007Y660035D01*
X2001Y660000D01*
X2001Y30000D01*
X2007Y29956D01*
X2004Y29920D01*
X2336Y25699D01*
X2371Y25541D01*
X2383Y25465D01*
X4992Y17436D01*
X5116Y17180D01*
X5129Y17167D01*
X5136Y17153D01*
X10098Y10323D01*
X10296Y10118D01*
X10312Y10109D01*
X10323Y10098D01*
X17153Y5136D01*
X17404Y5002D01*
X17422Y4999D01*
X17436Y4992D01*
X25465Y2383D01*
X25625Y2355D01*
X25699Y2336D01*
X29920Y2004D01*
X29965Y2007D01*
X30000Y2001D01*
X350000Y2001D01*
X350044Y2007D01*
G37*
%LPC*%
G36*
X82168Y70625D02*
X82168Y70625D01*
X81275Y71518D01*
X81275Y84282D01*
X82168Y85175D01*
X82498Y85175D01*
X82556Y85183D01*
X82614Y85181D01*
X82696Y85203D01*
X82780Y85215D01*
X82833Y85238D01*
X82889Y85253D01*
X82962Y85296D01*
X83039Y85331D01*
X83084Y85369D01*
X83134Y85398D01*
X83192Y85460D01*
X83256Y85514D01*
X83288Y85563D01*
X83328Y85606D01*
X83367Y85681D01*
X83414Y85751D01*
X83431Y85807D01*
X83458Y85859D01*
X83469Y85927D01*
X83499Y86022D01*
X83502Y86122D01*
X83513Y86190D01*
X83513Y112673D01*
X139497Y168657D01*
X175906Y168657D01*
X175993Y168669D01*
X176080Y168672D01*
X176133Y168689D01*
X176188Y168697D01*
X176268Y168732D01*
X176351Y168759D01*
X176390Y168787D01*
X176447Y168813D01*
X176560Y168909D01*
X176624Y168954D01*
X217428Y209758D01*
X217480Y209828D01*
X217540Y209892D01*
X217566Y209941D01*
X217599Y209985D01*
X217630Y210067D01*
X217670Y210145D01*
X217678Y210192D01*
X217700Y210251D01*
X217712Y210398D01*
X217725Y210476D01*
X217725Y229682D01*
X218736Y230692D01*
X218788Y230762D01*
X218848Y230826D01*
X218874Y230875D01*
X218907Y230919D01*
X218938Y231001D01*
X218978Y231079D01*
X218986Y231127D01*
X219008Y231185D01*
X219015Y231265D01*
X219019Y231279D01*
X219021Y231335D01*
X219033Y231410D01*
X219033Y268252D01*
X219029Y268281D01*
X219032Y268311D01*
X219009Y268422D01*
X218993Y268534D01*
X218981Y268560D01*
X218976Y268589D01*
X218924Y268690D01*
X218877Y268793D01*
X218858Y268816D01*
X218845Y268842D01*
X218767Y268924D01*
X218694Y269010D01*
X218669Y269026D01*
X218649Y269048D01*
X218551Y269105D01*
X218457Y269168D01*
X218429Y269177D01*
X218404Y269191D01*
X218294Y269219D01*
X218186Y269254D01*
X218156Y269254D01*
X218128Y269262D01*
X218015Y269258D01*
X217902Y269261D01*
X217873Y269253D01*
X217844Y269252D01*
X217736Y269218D01*
X217627Y269189D01*
X217601Y269174D01*
X217573Y269165D01*
X217510Y269120D01*
X217382Y269044D01*
X217339Y268998D01*
X217300Y268970D01*
X208322Y259992D01*
X208270Y259922D01*
X208210Y259858D01*
X208184Y259809D01*
X208151Y259765D01*
X208120Y259683D01*
X208080Y259605D01*
X208072Y259558D01*
X208050Y259499D01*
X208038Y259352D01*
X208025Y259274D01*
X208025Y248568D01*
X207132Y247675D01*
X204572Y247675D01*
X204514Y247667D01*
X204456Y247669D01*
X204374Y247647D01*
X204290Y247635D01*
X204237Y247612D01*
X204181Y247597D01*
X204108Y247554D01*
X204031Y247519D01*
X203986Y247481D01*
X203936Y247452D01*
X203878Y247390D01*
X203814Y247336D01*
X203782Y247287D01*
X203742Y247244D01*
X203703Y247169D01*
X203656Y247099D01*
X203639Y247043D01*
X203612Y246991D01*
X203601Y246923D01*
X203571Y246828D01*
X203568Y246728D01*
X203557Y246660D01*
X203557Y241707D01*
X196513Y234663D01*
X169597Y234663D01*
X158733Y245527D01*
X158733Y289373D01*
X158733Y289374D01*
X158733Y289376D01*
X158726Y289424D01*
X158727Y289433D01*
X158723Y289446D01*
X158713Y289516D01*
X158693Y289654D01*
X158693Y289656D01*
X158693Y289657D01*
X158636Y289783D01*
X158577Y289914D01*
X158576Y289915D01*
X158575Y289916D01*
X158484Y290024D01*
X158394Y290131D01*
X158392Y290132D01*
X158391Y290133D01*
X158378Y290141D01*
X158157Y290288D01*
X158128Y290298D01*
X158107Y290311D01*
X156421Y291009D01*
X154499Y292931D01*
X153459Y295441D01*
X153459Y298159D01*
X154499Y300669D01*
X156421Y302591D01*
X158931Y303631D01*
X161649Y303631D01*
X164159Y302591D01*
X166081Y300669D01*
X167121Y298159D01*
X167121Y295441D01*
X166067Y292898D01*
X166032Y292860D01*
X166006Y292811D01*
X165973Y292767D01*
X165942Y292685D01*
X165902Y292607D01*
X165894Y292560D01*
X165872Y292501D01*
X165860Y292353D01*
X165847Y292276D01*
X165847Y248894D01*
X165859Y248807D01*
X165862Y248720D01*
X165879Y248667D01*
X165887Y248612D01*
X165922Y248532D01*
X165949Y248449D01*
X165977Y248410D01*
X166003Y248353D01*
X166099Y248240D01*
X166144Y248176D01*
X172246Y242074D01*
X172316Y242022D01*
X172380Y241962D01*
X172429Y241936D01*
X172473Y241903D01*
X172555Y241872D01*
X172633Y241832D01*
X172680Y241824D01*
X172739Y241802D01*
X172886Y241790D01*
X172964Y241777D01*
X193146Y241777D01*
X193233Y241789D01*
X193320Y241792D01*
X193373Y241809D01*
X193428Y241817D01*
X193508Y241852D01*
X193591Y241879D01*
X193630Y241907D01*
X193687Y241933D01*
X193800Y242029D01*
X193864Y242074D01*
X196146Y244356D01*
X196198Y244426D01*
X196258Y244490D01*
X196284Y244539D01*
X196317Y244583D01*
X196348Y244665D01*
X196388Y244743D01*
X196396Y244790D01*
X196418Y244849D01*
X196430Y244996D01*
X196443Y245074D01*
X196443Y246660D01*
X196435Y246718D01*
X196437Y246776D01*
X196415Y246858D01*
X196403Y246942D01*
X196380Y246995D01*
X196365Y247051D01*
X196322Y247124D01*
X196287Y247201D01*
X196249Y247246D01*
X196220Y247296D01*
X196158Y247354D01*
X196104Y247418D01*
X196055Y247450D01*
X196012Y247490D01*
X195937Y247529D01*
X195867Y247576D01*
X195811Y247593D01*
X195759Y247620D01*
X195691Y247631D01*
X195596Y247661D01*
X195496Y247664D01*
X195428Y247675D01*
X192868Y247675D01*
X191975Y248568D01*
X191975Y264832D01*
X192868Y265725D01*
X203574Y265725D01*
X203661Y265737D01*
X203748Y265740D01*
X203801Y265757D01*
X203856Y265765D01*
X203936Y265800D01*
X204019Y265827D01*
X204058Y265855D01*
X204115Y265881D01*
X204228Y265977D01*
X204292Y266022D01*
X212656Y274386D01*
X212673Y274409D01*
X212695Y274427D01*
X212727Y274476D01*
X212768Y274520D01*
X212794Y274569D01*
X212827Y274613D01*
X212838Y274641D01*
X212853Y274664D01*
X212870Y274718D01*
X212898Y274773D01*
X212906Y274820D01*
X212928Y274879D01*
X212931Y274910D01*
X212938Y274935D01*
X212941Y275030D01*
X212953Y275104D01*
X212953Y285870D01*
X212945Y285928D01*
X212947Y285986D01*
X212925Y286068D01*
X212913Y286152D01*
X212890Y286205D01*
X212875Y286261D01*
X212832Y286334D01*
X212797Y286411D01*
X212759Y286456D01*
X212730Y286506D01*
X212668Y286564D01*
X212614Y286628D01*
X212565Y286660D01*
X212522Y286700D01*
X212447Y286739D01*
X212377Y286786D01*
X212321Y286803D01*
X212269Y286830D01*
X212201Y286841D01*
X212106Y286871D01*
X212006Y286874D01*
X211938Y286885D01*
X211918Y286885D01*
X210993Y287810D01*
X210985Y287865D01*
X210981Y287874D01*
X210980Y287884D01*
X210924Y288003D01*
X210869Y288125D01*
X210863Y288132D01*
X210859Y288141D01*
X210771Y288240D01*
X210686Y288342D01*
X210677Y288347D01*
X210671Y288354D01*
X210559Y288426D01*
X210449Y288499D01*
X210439Y288502D01*
X210431Y288507D01*
X210305Y288545D01*
X210178Y288585D01*
X210168Y288585D01*
X210159Y288588D01*
X210026Y288589D01*
X209894Y288592D01*
X209884Y288590D01*
X209874Y288590D01*
X209746Y288554D01*
X209619Y288520D01*
X209610Y288516D01*
X209601Y288513D01*
X209488Y288443D01*
X209374Y288375D01*
X209367Y288368D01*
X209359Y288363D01*
X209270Y288265D01*
X209180Y288168D01*
X209175Y288159D01*
X209169Y288152D01*
X209145Y288100D01*
X209050Y287915D01*
X209044Y287879D01*
X209029Y287846D01*
X208918Y287429D01*
X208583Y286850D01*
X208110Y286377D01*
X207531Y286042D01*
X206884Y285869D01*
X202081Y285869D01*
X202081Y294894D01*
X202073Y294952D01*
X202074Y295010D01*
X202053Y295092D01*
X202041Y295175D01*
X202017Y295229D01*
X202003Y295285D01*
X201960Y295358D01*
X201925Y295435D01*
X201887Y295479D01*
X201857Y295530D01*
X201796Y295587D01*
X201741Y295652D01*
X201693Y295684D01*
X201650Y295724D01*
X201575Y295763D01*
X201505Y295809D01*
X201449Y295827D01*
X201397Y295854D01*
X201329Y295865D01*
X201234Y295895D01*
X201134Y295898D01*
X201066Y295909D01*
X200049Y295909D01*
X200049Y295911D01*
X201066Y295911D01*
X201124Y295919D01*
X201182Y295918D01*
X201264Y295939D01*
X201347Y295951D01*
X201401Y295975D01*
X201457Y295989D01*
X201530Y296032D01*
X201607Y296067D01*
X201651Y296105D01*
X201702Y296135D01*
X201759Y296196D01*
X201824Y296251D01*
X201856Y296299D01*
X201896Y296342D01*
X201935Y296417D01*
X201981Y296487D01*
X201999Y296543D01*
X202026Y296595D01*
X202037Y296663D01*
X202067Y296758D01*
X202070Y296858D01*
X202081Y296926D01*
X202081Y305951D01*
X206884Y305951D01*
X207531Y305778D01*
X208110Y305443D01*
X208583Y304970D01*
X208918Y304391D01*
X209029Y303973D01*
X209033Y303964D01*
X209035Y303955D01*
X209089Y303834D01*
X209141Y303712D01*
X209147Y303704D01*
X209151Y303695D01*
X209236Y303594D01*
X209320Y303491D01*
X209328Y303486D01*
X209335Y303478D01*
X209445Y303405D01*
X209554Y303329D01*
X209563Y303326D01*
X209571Y303321D01*
X209698Y303281D01*
X209823Y303238D01*
X209833Y303238D01*
X209842Y303235D01*
X209975Y303232D01*
X210107Y303226D01*
X210117Y303228D01*
X210126Y303228D01*
X210255Y303261D01*
X210383Y303292D01*
X210392Y303297D01*
X210401Y303299D01*
X210515Y303367D01*
X210631Y303433D01*
X210637Y303440D01*
X210646Y303445D01*
X210737Y303542D01*
X210829Y303636D01*
X210834Y303645D01*
X210840Y303652D01*
X210901Y303771D01*
X210963Y303887D01*
X210965Y303896D01*
X210970Y303905D01*
X210979Y303961D01*
X210989Y304005D01*
X211926Y304942D01*
X211948Y304941D01*
X212030Y304963D01*
X212114Y304975D01*
X212167Y304998D01*
X212223Y305013D01*
X212296Y305056D01*
X212373Y305091D01*
X212418Y305129D01*
X212468Y305158D01*
X212526Y305220D01*
X212590Y305274D01*
X212622Y305323D01*
X212662Y305366D01*
X212701Y305441D01*
X212748Y305511D01*
X212765Y305567D01*
X212792Y305619D01*
X212803Y305687D01*
X212833Y305782D01*
X212836Y305882D01*
X212847Y305950D01*
X212847Y318630D01*
X212839Y318688D01*
X212841Y318746D01*
X212819Y318828D01*
X212807Y318912D01*
X212784Y318965D01*
X212769Y319021D01*
X212726Y319094D01*
X212691Y319171D01*
X212653Y319216D01*
X212624Y319266D01*
X212562Y319324D01*
X212508Y319388D01*
X212459Y319420D01*
X212416Y319460D01*
X212341Y319499D01*
X212271Y319546D01*
X212215Y319563D01*
X212163Y319590D01*
X212095Y319601D01*
X212000Y319631D01*
X211900Y319634D01*
X211832Y319645D01*
X207625Y319645D01*
X207538Y319633D01*
X207451Y319630D01*
X207398Y319613D01*
X207343Y319605D01*
X207264Y319570D01*
X207180Y319543D01*
X207141Y319515D01*
X207084Y319489D01*
X206971Y319393D01*
X206907Y319348D01*
X206756Y319197D01*
X206177Y318862D01*
X205530Y318689D01*
X204211Y318689D01*
X204211Y326230D01*
X204211Y333771D01*
X205530Y333771D01*
X206177Y333598D01*
X206530Y333393D01*
X206567Y333379D01*
X206599Y333357D01*
X206698Y333326D01*
X206794Y333287D01*
X206833Y333283D01*
X206870Y333271D01*
X206974Y333269D01*
X207077Y333258D01*
X207115Y333265D01*
X207154Y333264D01*
X207255Y333290D01*
X207357Y333309D01*
X207392Y333326D01*
X207429Y333336D01*
X207518Y333389D01*
X207611Y333435D01*
X207640Y333461D01*
X207674Y333481D01*
X207745Y333557D01*
X207821Y333627D01*
X207842Y333660D01*
X207868Y333688D01*
X207916Y333781D01*
X207970Y333869D01*
X207980Y333907D01*
X207998Y333942D01*
X208011Y334018D01*
X208045Y334143D01*
X208044Y334218D01*
X208053Y334273D01*
X208053Y335875D01*
X214455Y342276D01*
X214473Y342300D01*
X214495Y342319D01*
X214558Y342413D01*
X214626Y342503D01*
X214636Y342531D01*
X214652Y342555D01*
X214687Y342663D01*
X214727Y342769D01*
X214729Y342798D01*
X214738Y342826D01*
X214741Y342940D01*
X214751Y343052D01*
X214745Y343081D01*
X214746Y343110D01*
X214717Y343220D01*
X214695Y343331D01*
X214681Y343357D01*
X214674Y343385D01*
X214616Y343483D01*
X214564Y343583D01*
X214543Y343605D01*
X214528Y343630D01*
X214446Y343707D01*
X214368Y343789D01*
X214343Y343804D01*
X214321Y343824D01*
X214220Y343876D01*
X214123Y343933D01*
X214094Y343940D01*
X214068Y343954D01*
X213991Y343967D01*
X213847Y344003D01*
X213785Y344001D01*
X213737Y344009D01*
X199382Y344009D01*
X199295Y343997D01*
X199208Y343994D01*
X199155Y343977D01*
X199100Y343969D01*
X199021Y343934D01*
X198937Y343907D01*
X198898Y343879D01*
X198841Y343853D01*
X198728Y343757D01*
X198664Y343712D01*
X189440Y334488D01*
X189422Y334464D01*
X189400Y334445D01*
X189337Y334351D01*
X189269Y334261D01*
X189259Y334233D01*
X189242Y334209D01*
X189208Y334101D01*
X189168Y333995D01*
X189165Y333966D01*
X189157Y333938D01*
X189154Y333824D01*
X189144Y333712D01*
X189150Y333683D01*
X189149Y333654D01*
X189178Y333544D01*
X189200Y333433D01*
X189214Y333407D01*
X189221Y333379D01*
X189279Y333281D01*
X189331Y333181D01*
X189351Y333159D01*
X189366Y333134D01*
X189449Y333057D01*
X189527Y332975D01*
X189552Y332960D01*
X189574Y332940D01*
X189675Y332888D01*
X189772Y332831D01*
X189801Y332824D01*
X189827Y332810D01*
X189904Y332797D01*
X190048Y332761D01*
X190110Y332763D01*
X190158Y332755D01*
X192631Y332755D01*
X192659Y332725D01*
X192732Y332682D01*
X192799Y332631D01*
X192854Y332610D01*
X192904Y332581D01*
X192986Y332560D01*
X193065Y332530D01*
X193123Y332525D01*
X193180Y332511D01*
X193264Y332513D01*
X193348Y332507D01*
X193406Y332518D01*
X193464Y332520D01*
X193544Y332546D01*
X193627Y332562D01*
X193679Y332589D01*
X193735Y332607D01*
X193791Y332647D01*
X193879Y332693D01*
X193944Y332755D01*
X198707Y332755D01*
X198794Y332767D01*
X198881Y332770D01*
X198934Y332787D01*
X198989Y332795D01*
X199068Y332830D01*
X199152Y332857D01*
X199191Y332885D01*
X199248Y332911D01*
X199361Y333007D01*
X199425Y333052D01*
X199636Y333263D01*
X200215Y333598D01*
X200862Y333771D01*
X202181Y333771D01*
X202181Y326230D01*
X202181Y318689D01*
X200862Y318689D01*
X200215Y318862D01*
X199636Y319197D01*
X199425Y319408D01*
X199355Y319460D01*
X199291Y319520D01*
X199242Y319546D01*
X199198Y319579D01*
X199116Y319610D01*
X199038Y319650D01*
X198991Y319658D01*
X198932Y319680D01*
X198784Y319692D01*
X198707Y319705D01*
X193544Y319705D01*
X193486Y319697D01*
X193428Y319699D01*
X193346Y319677D01*
X193262Y319665D01*
X193209Y319642D01*
X193153Y319627D01*
X193080Y319584D01*
X193003Y319549D01*
X192958Y319511D01*
X192908Y319482D01*
X192850Y319420D01*
X192786Y319366D01*
X192754Y319317D01*
X192714Y319274D01*
X192675Y319199D01*
X192628Y319129D01*
X192611Y319073D01*
X192584Y319021D01*
X192573Y318953D01*
X192543Y318858D01*
X192540Y318758D01*
X192529Y318690D01*
X192529Y316288D01*
X186636Y310395D01*
X186584Y310325D01*
X186524Y310261D01*
X186498Y310212D01*
X186465Y310168D01*
X186434Y310086D01*
X186394Y310008D01*
X186386Y309961D01*
X186364Y309902D01*
X186355Y309797D01*
X186353Y309789D01*
X186352Y309756D01*
X186352Y309754D01*
X186339Y309677D01*
X186339Y284025D01*
X186339Y284024D01*
X186339Y284022D01*
X186359Y283879D01*
X186379Y283744D01*
X186379Y283742D01*
X186379Y283741D01*
X186436Y283615D01*
X186495Y283484D01*
X186496Y283483D01*
X186497Y283482D01*
X186588Y283375D01*
X186678Y283267D01*
X186680Y283267D01*
X186681Y283265D01*
X186694Y283257D01*
X186915Y283110D01*
X186944Y283101D01*
X186965Y283087D01*
X188019Y282651D01*
X189941Y280729D01*
X190981Y278219D01*
X190981Y275501D01*
X189941Y272991D01*
X188019Y271069D01*
X185509Y270029D01*
X182791Y270029D01*
X180281Y271069D01*
X178359Y272991D01*
X177528Y274998D01*
X177484Y275071D01*
X177449Y275150D01*
X177412Y275193D01*
X177383Y275242D01*
X177321Y275301D01*
X177265Y275367D01*
X177218Y275398D01*
X177177Y275438D01*
X177100Y275477D01*
X177029Y275525D01*
X176975Y275542D01*
X176924Y275568D01*
X176840Y275584D01*
X176758Y275610D01*
X176701Y275612D01*
X176645Y275623D01*
X176560Y275615D01*
X176474Y275618D01*
X176419Y275603D01*
X176362Y275598D01*
X176281Y275567D01*
X176199Y275546D01*
X176150Y275517D01*
X176097Y275496D01*
X176028Y275444D01*
X175954Y275401D01*
X175915Y275359D01*
X175870Y275325D01*
X175818Y275256D01*
X175760Y275193D01*
X175734Y275142D01*
X175700Y275097D01*
X175669Y275017D01*
X175630Y274940D01*
X175622Y274891D01*
X175599Y274831D01*
X175588Y274686D01*
X175575Y274609D01*
X175575Y266740D01*
X175583Y266682D01*
X175581Y266624D01*
X175603Y266542D01*
X175615Y266458D01*
X175638Y266405D01*
X175653Y266349D01*
X175696Y266276D01*
X175731Y266199D01*
X175769Y266154D01*
X175798Y266104D01*
X175860Y266046D01*
X175914Y265982D01*
X175963Y265950D01*
X176006Y265910D01*
X176081Y265871D01*
X176151Y265824D01*
X176207Y265807D01*
X176259Y265780D01*
X176327Y265769D01*
X176422Y265739D01*
X176522Y265736D01*
X176590Y265725D01*
X188132Y265725D01*
X189025Y264832D01*
X189025Y248568D01*
X188132Y247675D01*
X173868Y247675D01*
X172975Y248568D01*
X172975Y260711D01*
X172963Y260798D01*
X172960Y260885D01*
X172943Y260938D01*
X172935Y260993D01*
X172900Y261072D01*
X172873Y261156D01*
X172845Y261195D01*
X172819Y261252D01*
X172723Y261365D01*
X172678Y261429D01*
X170493Y263614D01*
X170493Y310582D01*
X177883Y317972D01*
X177901Y317996D01*
X177923Y318015D01*
X177986Y318109D01*
X178054Y318199D01*
X178064Y318227D01*
X178081Y318251D01*
X178115Y318359D01*
X178155Y318465D01*
X178158Y318494D01*
X178166Y318522D01*
X178169Y318636D01*
X178179Y318748D01*
X178173Y318777D01*
X178174Y318806D01*
X178145Y318916D01*
X178123Y319027D01*
X178109Y319053D01*
X178102Y319081D01*
X178044Y319179D01*
X177992Y319279D01*
X177972Y319301D01*
X177957Y319326D01*
X177874Y319403D01*
X177796Y319485D01*
X177771Y319500D01*
X177749Y319520D01*
X177648Y319572D01*
X177551Y319629D01*
X177522Y319636D01*
X177496Y319650D01*
X177419Y319663D01*
X177275Y319699D01*
X177213Y319697D01*
X177165Y319705D01*
X174138Y319705D01*
X174109Y319735D01*
X174036Y319778D01*
X173969Y319829D01*
X173914Y319849D01*
X173864Y319879D01*
X173782Y319900D01*
X173703Y319930D01*
X173645Y319935D01*
X173588Y319949D01*
X173504Y319946D01*
X173420Y319954D01*
X173362Y319942D01*
X173304Y319940D01*
X173224Y319914D01*
X173141Y319898D01*
X173089Y319871D01*
X173033Y319853D01*
X172977Y319813D01*
X172889Y319767D01*
X172824Y319705D01*
X167533Y319705D01*
X167505Y319735D01*
X167432Y319778D01*
X167365Y319829D01*
X167310Y319850D01*
X167260Y319879D01*
X167178Y319900D01*
X167099Y319930D01*
X167041Y319935D01*
X166984Y319949D01*
X166900Y319947D01*
X166816Y319953D01*
X166758Y319942D01*
X166700Y319940D01*
X166620Y319914D01*
X166537Y319898D01*
X166485Y319871D01*
X166429Y319853D01*
X166373Y319813D01*
X166285Y319767D01*
X166220Y319705D01*
X164871Y319705D01*
X164784Y319693D01*
X164697Y319690D01*
X164644Y319673D01*
X164589Y319665D01*
X164510Y319630D01*
X164426Y319603D01*
X164387Y319575D01*
X164330Y319549D01*
X164217Y319453D01*
X164153Y319408D01*
X144418Y299673D01*
X144366Y299603D01*
X144306Y299539D01*
X144280Y299490D01*
X144247Y299446D01*
X144216Y299364D01*
X144176Y299286D01*
X144168Y299239D01*
X144146Y299180D01*
X144134Y299032D01*
X144121Y298955D01*
X144121Y279144D01*
X144128Y279089D01*
X144127Y279048D01*
X144128Y279046D01*
X144127Y279028D01*
X144149Y278946D01*
X144161Y278862D01*
X144184Y278809D01*
X144199Y278753D01*
X144242Y278680D01*
X144277Y278603D01*
X144315Y278558D01*
X144344Y278508D01*
X144406Y278450D01*
X144460Y278386D01*
X144509Y278354D01*
X144552Y278314D01*
X144627Y278275D01*
X144697Y278228D01*
X144753Y278211D01*
X144805Y278184D01*
X144873Y278173D01*
X144968Y278143D01*
X145068Y278140D01*
X145136Y278129D01*
X153420Y278129D01*
X154313Y277236D01*
X154313Y262972D01*
X153420Y262079D01*
X137156Y262079D01*
X136263Y262972D01*
X136263Y277236D01*
X137156Y278129D01*
X138024Y278129D01*
X138082Y278137D01*
X138140Y278135D01*
X138222Y278157D01*
X138306Y278169D01*
X138359Y278192D01*
X138415Y278207D01*
X138488Y278250D01*
X138565Y278285D01*
X138610Y278323D01*
X138660Y278352D01*
X138718Y278414D01*
X138782Y278468D01*
X138814Y278517D01*
X138854Y278560D01*
X138893Y278635D01*
X138940Y278705D01*
X138957Y278761D01*
X138984Y278813D01*
X138995Y278881D01*
X139025Y278976D01*
X139028Y279076D01*
X139039Y279144D01*
X139039Y301480D01*
X159750Y322191D01*
X159802Y322261D01*
X159862Y322325D01*
X159888Y322374D01*
X159921Y322418D01*
X159952Y322500D01*
X159992Y322578D01*
X160000Y322625D01*
X160022Y322684D01*
X160034Y322832D01*
X160047Y322909D01*
X160047Y331020D01*
X160043Y331049D01*
X160046Y331079D01*
X160023Y331190D01*
X160007Y331302D01*
X159995Y331329D01*
X159990Y331357D01*
X159938Y331458D01*
X159891Y331561D01*
X159872Y331584D01*
X159859Y331610D01*
X159781Y331692D01*
X159708Y331778D01*
X159683Y331794D01*
X159663Y331816D01*
X159565Y331873D01*
X159471Y331936D01*
X159443Y331945D01*
X159418Y331959D01*
X159308Y331987D01*
X159200Y332022D01*
X159170Y332022D01*
X159142Y332030D01*
X159029Y332026D01*
X158916Y332029D01*
X158887Y332021D01*
X158858Y332021D01*
X158750Y331986D01*
X158641Y331957D01*
X158615Y331942D01*
X158587Y331933D01*
X158524Y331888D01*
X158396Y331812D01*
X158353Y331766D01*
X158314Y331738D01*
X95098Y268522D01*
X95046Y268452D01*
X94986Y268388D01*
X94960Y268339D01*
X94927Y268295D01*
X94896Y268213D01*
X94856Y268135D01*
X94848Y268088D01*
X94826Y268029D01*
X94814Y267882D01*
X94801Y267804D01*
X94801Y179436D01*
X93015Y177651D01*
X61194Y145830D01*
X61159Y145783D01*
X61116Y145743D01*
X61074Y145670D01*
X61023Y145603D01*
X61002Y145548D01*
X60973Y145497D01*
X60952Y145416D01*
X60922Y145337D01*
X60917Y145278D01*
X60903Y145222D01*
X60905Y145138D01*
X60898Y145054D01*
X60910Y144996D01*
X60912Y144938D01*
X60938Y144857D01*
X60954Y144775D01*
X60981Y144723D01*
X60999Y144667D01*
X61039Y144611D01*
X61085Y144522D01*
X61154Y144450D01*
X61194Y144394D01*
X61469Y144119D01*
X61469Y135281D01*
X55219Y129031D01*
X46381Y129031D01*
X40131Y135281D01*
X40131Y144119D01*
X46381Y150369D01*
X55219Y150369D01*
X56165Y149423D01*
X56212Y149388D01*
X56252Y149345D01*
X56325Y149303D01*
X56392Y149252D01*
X56447Y149231D01*
X56497Y149202D01*
X56579Y149181D01*
X56658Y149151D01*
X56716Y149146D01*
X56773Y149131D01*
X56857Y149134D01*
X56941Y149127D01*
X56998Y149139D01*
X57057Y149140D01*
X57137Y149166D01*
X57220Y149183D01*
X57272Y149210D01*
X57327Y149228D01*
X57384Y149268D01*
X57472Y149314D01*
X57545Y149383D01*
X57601Y149423D01*
X89422Y181244D01*
X89474Y181314D01*
X89534Y181378D01*
X89560Y181427D01*
X89593Y181471D01*
X89624Y181553D01*
X89664Y181631D01*
X89672Y181678D01*
X89694Y181737D01*
X89706Y181884D01*
X89719Y181962D01*
X89719Y197975D01*
X89715Y198004D01*
X89718Y198033D01*
X89713Y198059D01*
X89713Y198060D01*
X89711Y198067D01*
X89695Y198144D01*
X89679Y198257D01*
X89667Y198283D01*
X89662Y198312D01*
X89610Y198413D01*
X89563Y198516D01*
X89544Y198538D01*
X89531Y198564D01*
X89453Y198647D01*
X89380Y198733D01*
X89355Y198749D01*
X89335Y198771D01*
X89237Y198828D01*
X89143Y198891D01*
X89115Y198899D01*
X89090Y198914D01*
X88980Y198942D01*
X88872Y198976D01*
X88842Y198977D01*
X88814Y198984D01*
X88701Y198981D01*
X88588Y198984D01*
X88559Y198976D01*
X88530Y198975D01*
X88422Y198940D01*
X88313Y198912D01*
X88287Y198897D01*
X88259Y198888D01*
X88196Y198842D01*
X88068Y198767D01*
X88025Y198721D01*
X87986Y198693D01*
X60858Y171565D01*
X60823Y171519D01*
X60781Y171478D01*
X60738Y171405D01*
X60687Y171338D01*
X60667Y171283D01*
X60637Y171233D01*
X60616Y171151D01*
X60586Y171072D01*
X60581Y171014D01*
X60567Y170957D01*
X60570Y170873D01*
X60563Y170789D01*
X60574Y170732D01*
X60576Y170673D01*
X60602Y170593D01*
X60619Y170510D01*
X60646Y170458D01*
X60664Y170403D01*
X60704Y170346D01*
X60750Y170258D01*
X60818Y170186D01*
X60858Y170129D01*
X61469Y169519D01*
X61469Y160681D01*
X55219Y154431D01*
X46381Y154431D01*
X40131Y160681D01*
X40131Y169519D01*
X46381Y175769D01*
X55219Y175769D01*
X55829Y175158D01*
X55876Y175123D01*
X55916Y175081D01*
X55989Y175038D01*
X56057Y174987D01*
X56111Y174967D01*
X56162Y174937D01*
X56243Y174916D01*
X56322Y174886D01*
X56381Y174881D01*
X56437Y174867D01*
X56522Y174870D01*
X56606Y174863D01*
X56663Y174874D01*
X56721Y174876D01*
X56802Y174902D01*
X56884Y174919D01*
X56936Y174946D01*
X56992Y174964D01*
X57048Y175004D01*
X57137Y175050D01*
X57209Y175118D01*
X57265Y175158D01*
X84792Y202685D01*
X84844Y202755D01*
X84904Y202819D01*
X84930Y202868D01*
X84963Y202912D01*
X84994Y202994D01*
X85034Y203072D01*
X85042Y203119D01*
X85064Y203178D01*
X85076Y203326D01*
X85089Y203403D01*
X85089Y218745D01*
X85085Y218774D01*
X85088Y218804D01*
X85065Y218915D01*
X85049Y219027D01*
X85037Y219053D01*
X85032Y219082D01*
X84979Y219183D01*
X84933Y219286D01*
X84914Y219308D01*
X84901Y219335D01*
X84823Y219417D01*
X84750Y219503D01*
X84725Y219519D01*
X84705Y219541D01*
X84607Y219598D01*
X84513Y219661D01*
X84485Y219670D01*
X84459Y219684D01*
X84350Y219712D01*
X84242Y219746D01*
X84212Y219747D01*
X84184Y219754D01*
X84071Y219751D01*
X83958Y219754D01*
X83929Y219746D01*
X83900Y219745D01*
X83792Y219710D01*
X83683Y219682D01*
X83657Y219667D01*
X83629Y219658D01*
X83565Y219612D01*
X83438Y219537D01*
X83395Y219491D01*
X83356Y219463D01*
X83305Y219412D01*
X60858Y196965D01*
X60823Y196919D01*
X60781Y196878D01*
X60738Y196805D01*
X60687Y196738D01*
X60667Y196683D01*
X60637Y196633D01*
X60616Y196551D01*
X60586Y196472D01*
X60581Y196414D01*
X60567Y196357D01*
X60570Y196273D01*
X60563Y196189D01*
X60574Y196132D01*
X60576Y196073D01*
X60602Y195993D01*
X60619Y195910D01*
X60646Y195858D01*
X60664Y195803D01*
X60704Y195746D01*
X60750Y195658D01*
X60818Y195586D01*
X60858Y195529D01*
X61469Y194919D01*
X61469Y186081D01*
X55219Y179831D01*
X46381Y179831D01*
X40131Y186081D01*
X40131Y194919D01*
X46381Y201169D01*
X55219Y201169D01*
X55829Y200558D01*
X55876Y200523D01*
X55916Y200481D01*
X55989Y200438D01*
X56057Y200387D01*
X56111Y200367D01*
X56162Y200337D01*
X56243Y200316D01*
X56322Y200286D01*
X56381Y200281D01*
X56437Y200267D01*
X56522Y200270D01*
X56606Y200263D01*
X56663Y200274D01*
X56721Y200276D01*
X56802Y200302D01*
X56884Y200319D01*
X56936Y200346D01*
X56992Y200364D01*
X57048Y200404D01*
X57137Y200450D01*
X57209Y200518D01*
X57265Y200558D01*
X79712Y223005D01*
X79764Y223075D01*
X79824Y223139D01*
X79850Y223188D01*
X79883Y223232D01*
X79914Y223314D01*
X79954Y223392D01*
X79962Y223439D01*
X79984Y223498D01*
X79996Y223646D01*
X80009Y223723D01*
X80009Y239065D01*
X80005Y239094D01*
X80008Y239123D01*
X79985Y239234D01*
X79969Y239347D01*
X79957Y239373D01*
X79952Y239402D01*
X79900Y239503D01*
X79853Y239606D01*
X79834Y239628D01*
X79821Y239654D01*
X79743Y239737D01*
X79670Y239823D01*
X79645Y239839D01*
X79625Y239861D01*
X79527Y239918D01*
X79433Y239981D01*
X79405Y239989D01*
X79380Y240004D01*
X79270Y240032D01*
X79162Y240066D01*
X79132Y240067D01*
X79104Y240074D01*
X78991Y240071D01*
X78878Y240074D01*
X78849Y240066D01*
X78820Y240065D01*
X78712Y240030D01*
X78603Y240002D01*
X78577Y239987D01*
X78549Y239978D01*
X78486Y239932D01*
X78358Y239857D01*
X78315Y239811D01*
X78276Y239783D01*
X60858Y222365D01*
X60823Y222319D01*
X60781Y222278D01*
X60738Y222205D01*
X60687Y222138D01*
X60667Y222083D01*
X60637Y222033D01*
X60616Y221951D01*
X60586Y221872D01*
X60581Y221814D01*
X60567Y221757D01*
X60570Y221673D01*
X60563Y221589D01*
X60574Y221532D01*
X60576Y221473D01*
X60602Y221393D01*
X60619Y221310D01*
X60646Y221258D01*
X60664Y221203D01*
X60704Y221146D01*
X60750Y221058D01*
X60818Y220986D01*
X60858Y220929D01*
X61469Y220319D01*
X61469Y211481D01*
X55219Y205231D01*
X46381Y205231D01*
X40131Y211481D01*
X40131Y220319D01*
X46381Y226569D01*
X55219Y226569D01*
X55829Y225958D01*
X55876Y225923D01*
X55916Y225881D01*
X55989Y225838D01*
X56057Y225787D01*
X56111Y225767D01*
X56162Y225737D01*
X56243Y225716D01*
X56322Y225686D01*
X56381Y225681D01*
X56437Y225667D01*
X56522Y225670D01*
X56606Y225663D01*
X56663Y225674D01*
X56721Y225676D01*
X56802Y225702D01*
X56884Y225719D01*
X56936Y225746D01*
X56992Y225764D01*
X57048Y225804D01*
X57137Y225850D01*
X57209Y225918D01*
X57265Y225958D01*
X74632Y243325D01*
X74684Y243395D01*
X74744Y243459D01*
X74770Y243508D01*
X74803Y243552D01*
X74834Y243634D01*
X74874Y243712D01*
X74882Y243759D01*
X74904Y243818D01*
X74916Y243966D01*
X74929Y244043D01*
X74929Y275800D01*
X175521Y376392D01*
X175539Y376416D01*
X175561Y376435D01*
X175624Y376529D01*
X175692Y376619D01*
X175702Y376647D01*
X175719Y376671D01*
X175753Y376779D01*
X175793Y376885D01*
X175796Y376914D01*
X175805Y376942D01*
X175807Y377056D01*
X175817Y377168D01*
X175811Y377197D01*
X175812Y377226D01*
X175783Y377336D01*
X175761Y377447D01*
X175747Y377473D01*
X175740Y377501D01*
X175682Y377599D01*
X175630Y377699D01*
X175610Y377721D01*
X175595Y377746D01*
X175512Y377823D01*
X175434Y377905D01*
X175409Y377920D01*
X175387Y377940D01*
X175287Y377992D01*
X175189Y378049D01*
X175160Y378056D01*
X175134Y378070D01*
X175057Y378083D01*
X174913Y378119D01*
X174851Y378117D01*
X174803Y378125D01*
X174137Y378125D01*
X174109Y378155D01*
X174036Y378198D01*
X173969Y378249D01*
X173914Y378270D01*
X173864Y378299D01*
X173782Y378320D01*
X173703Y378350D01*
X173645Y378355D01*
X173588Y378369D01*
X173504Y378367D01*
X173420Y378373D01*
X173362Y378362D01*
X173304Y378360D01*
X173224Y378334D01*
X173141Y378318D01*
X173089Y378291D01*
X173033Y378273D01*
X172977Y378233D01*
X172889Y378187D01*
X172824Y378125D01*
X167533Y378125D01*
X167505Y378155D01*
X167432Y378198D01*
X167365Y378249D01*
X167310Y378270D01*
X167260Y378299D01*
X167178Y378320D01*
X167099Y378350D01*
X167041Y378355D01*
X166984Y378369D01*
X166900Y378367D01*
X166816Y378373D01*
X166758Y378362D01*
X166700Y378360D01*
X166620Y378334D01*
X166537Y378318D01*
X166485Y378291D01*
X166429Y378273D01*
X166373Y378233D01*
X166285Y378187D01*
X166220Y378125D01*
X160940Y378125D01*
X160047Y379018D01*
X160047Y382364D01*
X160039Y382422D01*
X160041Y382480D01*
X160019Y382562D01*
X160007Y382646D01*
X159984Y382699D01*
X159969Y382755D01*
X159926Y382828D01*
X159891Y382905D01*
X159853Y382950D01*
X159824Y383000D01*
X159762Y383058D01*
X159708Y383122D01*
X159659Y383154D01*
X159616Y383194D01*
X159541Y383233D01*
X159471Y383280D01*
X159415Y383297D01*
X159363Y383324D01*
X159295Y383335D01*
X159200Y383365D01*
X159100Y383368D01*
X159032Y383379D01*
X82928Y383379D01*
X73659Y392648D01*
X73659Y427127D01*
X73647Y427214D01*
X73644Y427301D01*
X73627Y427354D01*
X73619Y427409D01*
X73584Y427488D01*
X73557Y427572D01*
X73529Y427611D01*
X73503Y427668D01*
X73407Y427781D01*
X73362Y427845D01*
X66029Y435178D01*
X65959Y435230D01*
X65895Y435290D01*
X65846Y435316D01*
X65802Y435349D01*
X65720Y435380D01*
X65642Y435420D01*
X65595Y435428D01*
X65536Y435450D01*
X65388Y435462D01*
X65311Y435475D01*
X53168Y435475D01*
X52275Y436368D01*
X52275Y452632D01*
X53168Y453525D01*
X67432Y453525D01*
X68325Y452632D01*
X68325Y440489D01*
X68337Y440402D01*
X68340Y440315D01*
X68357Y440262D01*
X68365Y440207D01*
X68400Y440128D01*
X68427Y440044D01*
X68455Y440005D01*
X68481Y439948D01*
X68577Y439835D01*
X68622Y439771D01*
X76955Y431438D01*
X78741Y429652D01*
X78741Y395173D01*
X78753Y395086D01*
X78756Y394999D01*
X78773Y394946D01*
X78781Y394891D01*
X78816Y394812D01*
X78843Y394728D01*
X78871Y394689D01*
X78897Y394632D01*
X78993Y394519D01*
X79038Y394455D01*
X84735Y388758D01*
X84805Y388706D01*
X84869Y388646D01*
X84918Y388620D01*
X84962Y388587D01*
X85044Y388556D01*
X85122Y388516D01*
X85169Y388508D01*
X85228Y388486D01*
X85376Y388474D01*
X85453Y388461D01*
X159032Y388461D01*
X159090Y388469D01*
X159148Y388467D01*
X159230Y388489D01*
X159314Y388501D01*
X159367Y388524D01*
X159423Y388539D01*
X159496Y388582D01*
X159573Y388617D01*
X159618Y388655D01*
X159668Y388684D01*
X159726Y388746D01*
X159790Y388800D01*
X159822Y388849D01*
X159862Y388892D01*
X159901Y388967D01*
X159948Y389037D01*
X159965Y389093D01*
X159992Y389145D01*
X160003Y389213D01*
X160033Y389308D01*
X160036Y389408D01*
X160047Y389476D01*
X160047Y390282D01*
X160940Y391175D01*
X165227Y391175D01*
X165256Y391179D01*
X165285Y391176D01*
X165396Y391199D01*
X165509Y391215D01*
X165535Y391227D01*
X165564Y391232D01*
X165665Y391284D01*
X165768Y391331D01*
X165790Y391350D01*
X165816Y391363D01*
X165899Y391441D01*
X165985Y391514D01*
X166001Y391539D01*
X166023Y391559D01*
X166080Y391657D01*
X166143Y391751D01*
X166151Y391779D01*
X166166Y391804D01*
X166194Y391914D01*
X166228Y392022D01*
X166229Y392052D01*
X166236Y392080D01*
X166233Y392193D01*
X166236Y392306D01*
X166228Y392335D01*
X166227Y392364D01*
X166192Y392472D01*
X166164Y392581D01*
X166149Y392607D01*
X166140Y392635D01*
X166094Y392698D01*
X166019Y392826D01*
X165973Y392869D01*
X165945Y392908D01*
X163813Y395040D01*
X163812Y395041D01*
X163811Y395042D01*
X163693Y395130D01*
X163586Y395211D01*
X163585Y395211D01*
X163583Y395212D01*
X163450Y395262D01*
X163320Y395312D01*
X163319Y395312D01*
X163317Y395312D01*
X163173Y395324D01*
X163037Y395335D01*
X163036Y395335D01*
X163034Y395335D01*
X163018Y395332D01*
X162758Y395279D01*
X162731Y395265D01*
X162707Y395260D01*
X160032Y394152D01*
X157315Y394152D01*
X154804Y395192D01*
X152883Y397113D01*
X151843Y399624D01*
X151843Y402341D01*
X152883Y404852D01*
X154804Y406773D01*
X157466Y407876D01*
X157540Y407920D01*
X157619Y407955D01*
X157662Y407992D01*
X157711Y408021D01*
X157770Y408083D01*
X157836Y408139D01*
X157867Y408186D01*
X157906Y408227D01*
X157946Y408304D01*
X157993Y408375D01*
X158010Y408429D01*
X158036Y408480D01*
X158053Y408564D01*
X158079Y408646D01*
X158080Y408703D01*
X158091Y408759D01*
X158084Y408844D01*
X158086Y408930D01*
X158072Y408985D01*
X158067Y409042D01*
X158036Y409122D01*
X158014Y409205D01*
X157985Y409254D01*
X157965Y409307D01*
X157913Y409376D01*
X157869Y409450D01*
X157828Y409489D01*
X157793Y409534D01*
X157725Y409586D01*
X157662Y409644D01*
X157611Y409670D01*
X157566Y409704D01*
X157485Y409735D01*
X157409Y409774D01*
X157360Y409782D01*
X157300Y409805D01*
X157155Y409816D01*
X157078Y409829D01*
X141585Y409829D01*
X86239Y465175D01*
X86239Y477232D01*
X86235Y477261D01*
X86238Y477290D01*
X86215Y477401D01*
X86199Y477513D01*
X86187Y477540D01*
X86182Y477569D01*
X86129Y477670D01*
X86083Y477773D01*
X86064Y477795D01*
X86051Y477821D01*
X85973Y477903D01*
X85900Y477990D01*
X85875Y478006D01*
X85855Y478027D01*
X85757Y478085D01*
X85663Y478147D01*
X85635Y478156D01*
X85610Y478171D01*
X85500Y478199D01*
X85392Y478233D01*
X85362Y478234D01*
X85334Y478241D01*
X85221Y478238D01*
X85108Y478241D01*
X85079Y478233D01*
X85050Y478232D01*
X84942Y478197D01*
X84833Y478169D01*
X84807Y478154D01*
X84779Y478145D01*
X84715Y478099D01*
X84588Y478023D01*
X84545Y477978D01*
X84506Y477950D01*
X84332Y477775D01*
X68068Y477775D01*
X67175Y478668D01*
X67175Y488409D01*
X67163Y488496D01*
X67160Y488583D01*
X67143Y488636D01*
X67135Y488690D01*
X67100Y488770D01*
X67073Y488853D01*
X67045Y488893D01*
X67019Y488950D01*
X66923Y489063D01*
X66878Y489127D01*
X62865Y493140D01*
X61079Y494925D01*
X61079Y544745D01*
X69378Y553043D01*
X69430Y553113D01*
X69490Y553177D01*
X69516Y553226D01*
X69549Y553270D01*
X69580Y553352D01*
X69620Y553430D01*
X69628Y553478D01*
X69650Y553536D01*
X69662Y553684D01*
X69675Y553761D01*
X69675Y560773D01*
X71447Y562545D01*
X80953Y562545D01*
X82725Y560773D01*
X82725Y551267D01*
X80953Y549495D01*
X73437Y549495D01*
X73350Y549483D01*
X73263Y549480D01*
X73210Y549463D01*
X73155Y549455D01*
X73075Y549420D01*
X72992Y549393D01*
X72953Y549365D01*
X72896Y549339D01*
X72783Y549243D01*
X72719Y549198D01*
X66458Y542937D01*
X66406Y542867D01*
X66346Y542803D01*
X66320Y542754D01*
X66287Y542710D01*
X66256Y542628D01*
X66216Y542550D01*
X66208Y542503D01*
X66186Y542444D01*
X66174Y542297D01*
X66161Y542219D01*
X66161Y513368D01*
X66165Y513339D01*
X66162Y513310D01*
X66185Y513199D01*
X66201Y513087D01*
X66213Y513060D01*
X66218Y513031D01*
X66271Y512930D01*
X66317Y512827D01*
X66336Y512805D01*
X66349Y512779D01*
X66427Y512697D01*
X66500Y512610D01*
X66525Y512594D01*
X66545Y512573D01*
X66643Y512515D01*
X66737Y512453D01*
X66765Y512444D01*
X66790Y512429D01*
X66900Y512401D01*
X67008Y512367D01*
X67038Y512366D01*
X67066Y512359D01*
X67179Y512362D01*
X67292Y512359D01*
X67321Y512367D01*
X67350Y512368D01*
X67458Y512403D01*
X67567Y512431D01*
X67593Y512446D01*
X67621Y512455D01*
X67685Y512501D01*
X67812Y512577D01*
X67855Y512622D01*
X67894Y512650D01*
X68068Y512825D01*
X72259Y512825D01*
X72344Y512837D01*
X72430Y512839D01*
X72484Y512857D01*
X72541Y512865D01*
X72619Y512900D01*
X72701Y512926D01*
X72748Y512958D01*
X72800Y512981D01*
X72865Y513036D01*
X72937Y513084D01*
X72974Y513128D01*
X73017Y513164D01*
X73065Y513236D01*
X73120Y513302D01*
X73143Y513354D01*
X73175Y513401D01*
X73200Y513483D01*
X73235Y513562D01*
X73243Y513618D01*
X73260Y513672D01*
X73262Y513758D01*
X73274Y513843D01*
X73266Y513899D01*
X73268Y513956D01*
X73246Y514039D01*
X73234Y514125D01*
X73210Y514176D01*
X73196Y514231D01*
X73152Y514305D01*
X73116Y514384D01*
X73080Y514427D01*
X73051Y514476D01*
X72988Y514535D01*
X72932Y514600D01*
X72890Y514626D01*
X72843Y514670D01*
X72714Y514736D01*
X72648Y514778D01*
X72331Y514909D01*
X70409Y516831D01*
X69369Y519341D01*
X69369Y522059D01*
X70409Y524569D01*
X72331Y526491D01*
X73033Y526782D01*
X73034Y526782D01*
X73035Y526783D01*
X73152Y526852D01*
X73277Y526926D01*
X73279Y526927D01*
X73280Y526928D01*
X73375Y527030D01*
X73473Y527133D01*
X73473Y527134D01*
X73474Y527135D01*
X73538Y527260D01*
X73603Y527385D01*
X73603Y527387D01*
X73604Y527388D01*
X73606Y527403D01*
X73658Y527664D01*
X73655Y527695D01*
X73659Y527719D01*
X73659Y530940D01*
X73651Y530998D01*
X73653Y531056D01*
X73631Y531138D01*
X73619Y531222D01*
X73596Y531275D01*
X73581Y531331D01*
X73538Y531404D01*
X73503Y531481D01*
X73465Y531526D01*
X73436Y531576D01*
X73374Y531634D01*
X73320Y531698D01*
X73271Y531730D01*
X73228Y531770D01*
X73153Y531809D01*
X73083Y531856D01*
X73027Y531873D01*
X72975Y531900D01*
X72907Y531911D01*
X72812Y531941D01*
X72712Y531944D01*
X72644Y531955D01*
X71447Y531955D01*
X69675Y533727D01*
X69675Y543233D01*
X71447Y545005D01*
X80953Y545005D01*
X82725Y543233D01*
X82725Y533727D01*
X80953Y531955D01*
X79756Y531955D01*
X79698Y531947D01*
X79640Y531949D01*
X79558Y531927D01*
X79474Y531915D01*
X79421Y531892D01*
X79365Y531877D01*
X79292Y531834D01*
X79215Y531799D01*
X79170Y531761D01*
X79120Y531732D01*
X79062Y531670D01*
X78998Y531616D01*
X78966Y531567D01*
X78926Y531524D01*
X78887Y531449D01*
X78840Y531379D01*
X78823Y531323D01*
X78796Y531271D01*
X78785Y531203D01*
X78755Y531108D01*
X78752Y531008D01*
X78741Y530940D01*
X78741Y527719D01*
X78741Y527718D01*
X78741Y527716D01*
X78761Y527576D01*
X78781Y527438D01*
X78781Y527437D01*
X78781Y527435D01*
X78840Y527305D01*
X78897Y527179D01*
X78898Y527177D01*
X78899Y527176D01*
X78989Y527069D01*
X79080Y526962D01*
X79082Y526961D01*
X79083Y526959D01*
X79095Y526952D01*
X79317Y526804D01*
X79346Y526795D01*
X79367Y526782D01*
X80069Y526491D01*
X81991Y524569D01*
X83031Y522059D01*
X83031Y519341D01*
X82073Y517028D01*
X82051Y516945D01*
X82020Y516864D01*
X82016Y516808D01*
X82002Y516753D01*
X82004Y516667D01*
X81997Y516581D01*
X82008Y516525D01*
X82010Y516468D01*
X82036Y516387D01*
X82053Y516302D01*
X82079Y516252D01*
X82096Y516198D01*
X82144Y516126D01*
X82184Y516050D01*
X82223Y516009D01*
X82255Y515962D01*
X82320Y515906D01*
X82380Y515844D01*
X82429Y515815D01*
X82472Y515779D01*
X82551Y515744D01*
X82625Y515700D01*
X82680Y515686D01*
X82732Y515663D01*
X82817Y515651D01*
X82900Y515630D01*
X82957Y515632D01*
X83014Y515624D01*
X83099Y515636D01*
X83185Y515639D01*
X83239Y515657D01*
X83295Y515665D01*
X83373Y515700D01*
X83455Y515727D01*
X83495Y515755D01*
X83554Y515782D01*
X83664Y515876D01*
X83728Y515922D01*
X86062Y518255D01*
X86114Y518325D01*
X86174Y518389D01*
X86200Y518438D01*
X86233Y518482D01*
X86264Y518564D01*
X86304Y518642D01*
X86312Y518689D01*
X86334Y518748D01*
X86346Y518896D01*
X86359Y518973D01*
X86359Y629752D01*
X86355Y629781D01*
X86358Y629810D01*
X86335Y629921D01*
X86319Y630033D01*
X86307Y630060D01*
X86302Y630089D01*
X86249Y630190D01*
X86203Y630293D01*
X86184Y630315D01*
X86171Y630341D01*
X86093Y630423D01*
X86020Y630510D01*
X85995Y630526D01*
X85975Y630547D01*
X85877Y630605D01*
X85783Y630667D01*
X85755Y630676D01*
X85730Y630691D01*
X85620Y630719D01*
X85512Y630753D01*
X85482Y630754D01*
X85454Y630761D01*
X85341Y630758D01*
X85228Y630761D01*
X85199Y630753D01*
X85170Y630752D01*
X85062Y630717D01*
X84953Y630689D01*
X84927Y630674D01*
X84899Y630665D01*
X84835Y630619D01*
X84708Y630543D01*
X84665Y630498D01*
X84626Y630470D01*
X84332Y630175D01*
X79756Y630175D01*
X79698Y630167D01*
X79640Y630169D01*
X79558Y630147D01*
X79474Y630135D01*
X79421Y630112D01*
X79365Y630097D01*
X79292Y630054D01*
X79215Y630019D01*
X79170Y629981D01*
X79120Y629952D01*
X79062Y629890D01*
X78998Y629836D01*
X78966Y629787D01*
X78926Y629744D01*
X78887Y629669D01*
X78840Y629599D01*
X78823Y629543D01*
X78796Y629491D01*
X78785Y629423D01*
X78755Y629328D01*
X78752Y629228D01*
X78741Y629160D01*
X78741Y618170D01*
X78749Y618112D01*
X78747Y618054D01*
X78769Y617972D01*
X78781Y617888D01*
X78804Y617835D01*
X78819Y617779D01*
X78862Y617706D01*
X78897Y617629D01*
X78935Y617584D01*
X78964Y617534D01*
X79026Y617476D01*
X79080Y617412D01*
X79129Y617380D01*
X79172Y617340D01*
X79247Y617301D01*
X79317Y617254D01*
X79373Y617237D01*
X79425Y617210D01*
X79493Y617199D01*
X79588Y617169D01*
X79688Y617166D01*
X79756Y617155D01*
X80953Y617155D01*
X82725Y615383D01*
X82725Y605877D01*
X80953Y604105D01*
X71447Y604105D01*
X69675Y605877D01*
X69675Y615383D01*
X71447Y617155D01*
X72644Y617155D01*
X72702Y617163D01*
X72760Y617161D01*
X72842Y617183D01*
X72926Y617195D01*
X72979Y617218D01*
X73035Y617233D01*
X73108Y617276D01*
X73185Y617311D01*
X73230Y617349D01*
X73280Y617378D01*
X73338Y617440D01*
X73402Y617494D01*
X73434Y617543D01*
X73474Y617586D01*
X73513Y617661D01*
X73560Y617731D01*
X73577Y617787D01*
X73604Y617839D01*
X73615Y617907D01*
X73645Y618002D01*
X73648Y618102D01*
X73659Y618170D01*
X73659Y629160D01*
X73651Y629218D01*
X73653Y629276D01*
X73631Y629358D01*
X73619Y629442D01*
X73596Y629495D01*
X73581Y629551D01*
X73538Y629624D01*
X73503Y629701D01*
X73465Y629746D01*
X73436Y629796D01*
X73374Y629854D01*
X73320Y629918D01*
X73271Y629950D01*
X73228Y629990D01*
X73153Y630029D01*
X73083Y630076D01*
X73027Y630093D01*
X72975Y630120D01*
X72907Y630131D01*
X72812Y630161D01*
X72712Y630164D01*
X72644Y630175D01*
X68068Y630175D01*
X67175Y631068D01*
X67175Y645332D01*
X68068Y646225D01*
X81131Y646225D01*
X81160Y646229D01*
X81189Y646226D01*
X81300Y646249D01*
X81413Y646265D01*
X81439Y646277D01*
X81468Y646282D01*
X81569Y646335D01*
X81672Y646381D01*
X81694Y646400D01*
X81720Y646413D01*
X81803Y646491D01*
X81889Y646564D01*
X81905Y646589D01*
X81927Y646609D01*
X81984Y646707D01*
X82047Y646801D01*
X82055Y646829D01*
X82070Y646854D01*
X82098Y646964D01*
X82132Y647072D01*
X82133Y647102D01*
X82140Y647130D01*
X82137Y647243D01*
X82140Y647356D01*
X82132Y647385D01*
X82131Y647414D01*
X82096Y647522D01*
X82068Y647631D01*
X82053Y647657D01*
X82044Y647685D01*
X81998Y647749D01*
X81923Y647876D01*
X81877Y647919D01*
X81849Y647958D01*
X80929Y648878D01*
X80859Y648930D01*
X80795Y648990D01*
X80746Y649016D01*
X80702Y649049D01*
X80620Y649080D01*
X80542Y649120D01*
X80495Y649128D01*
X80436Y649150D01*
X80288Y649162D01*
X80211Y649175D01*
X68068Y649175D01*
X67175Y650068D01*
X67175Y664332D01*
X68068Y665225D01*
X84332Y665225D01*
X85225Y664332D01*
X85225Y652189D01*
X85237Y652102D01*
X85240Y652015D01*
X85257Y651962D01*
X85265Y651907D01*
X85300Y651828D01*
X85327Y651744D01*
X85355Y651705D01*
X85381Y651648D01*
X85477Y651535D01*
X85522Y651471D01*
X91441Y645552D01*
X91441Y516448D01*
X85522Y510529D01*
X85470Y510459D01*
X85410Y510395D01*
X85384Y510346D01*
X85351Y510302D01*
X85320Y510220D01*
X85280Y510142D01*
X85272Y510095D01*
X85250Y510036D01*
X85238Y509888D01*
X85225Y509811D01*
X85225Y498381D01*
X85237Y498294D01*
X85240Y498207D01*
X85257Y498154D01*
X85265Y498100D01*
X85300Y498020D01*
X85327Y497937D01*
X85355Y497897D01*
X85381Y497840D01*
X85477Y497727D01*
X85522Y497663D01*
X91321Y491865D01*
X91321Y467701D01*
X91333Y467614D01*
X91336Y467527D01*
X91353Y467474D01*
X91361Y467419D01*
X91396Y467340D01*
X91423Y467256D01*
X91451Y467217D01*
X91477Y467160D01*
X91573Y467047D01*
X91618Y466983D01*
X143393Y415208D01*
X143463Y415156D01*
X143527Y415096D01*
X143576Y415070D01*
X143620Y415037D01*
X143702Y415006D01*
X143780Y414966D01*
X143827Y414958D01*
X143886Y414936D01*
X144033Y414924D01*
X144111Y414911D01*
X179755Y414911D01*
X181540Y413125D01*
X185714Y408951D01*
X185738Y408933D01*
X185757Y408911D01*
X185851Y408848D01*
X185941Y408780D01*
X185969Y408770D01*
X185993Y408754D01*
X186101Y408719D01*
X186207Y408679D01*
X186236Y408677D01*
X186264Y408668D01*
X186378Y408665D01*
X186490Y408655D01*
X186519Y408661D01*
X186548Y408660D01*
X186658Y408689D01*
X186769Y408711D01*
X186795Y408725D01*
X186823Y408732D01*
X186921Y408790D01*
X187021Y408842D01*
X187043Y408863D01*
X187068Y408878D01*
X187145Y408960D01*
X187227Y409038D01*
X187242Y409063D01*
X187262Y409085D01*
X187314Y409186D01*
X187371Y409283D01*
X187378Y409312D01*
X187392Y409338D01*
X187405Y409415D01*
X187441Y409559D01*
X187439Y409621D01*
X187447Y409669D01*
X187447Y427639D01*
X187435Y427726D01*
X187432Y427813D01*
X187415Y427866D01*
X187407Y427921D01*
X187372Y428000D01*
X187345Y428084D01*
X187317Y428123D01*
X187291Y428180D01*
X187195Y428293D01*
X187150Y428357D01*
X174774Y440733D01*
X174750Y440751D01*
X174731Y440773D01*
X174637Y440836D01*
X174547Y440904D01*
X174519Y440914D01*
X174495Y440931D01*
X174387Y440965D01*
X174281Y441005D01*
X174252Y441008D01*
X174224Y441016D01*
X174110Y441019D01*
X173998Y441029D01*
X173969Y441023D01*
X173940Y441024D01*
X173830Y440995D01*
X173719Y440973D01*
X173693Y440959D01*
X173665Y440952D01*
X173567Y440894D01*
X173467Y440842D01*
X173445Y440822D01*
X173420Y440807D01*
X173343Y440724D01*
X173261Y440646D01*
X173246Y440621D01*
X173226Y440599D01*
X173174Y440498D01*
X173117Y440401D01*
X173110Y440372D01*
X173096Y440346D01*
X173083Y440269D01*
X173047Y440125D01*
X173049Y440063D01*
X173041Y440015D01*
X173041Y433831D01*
X161031Y433831D01*
X161031Y442341D01*
X170715Y442341D01*
X170744Y442345D01*
X170774Y442342D01*
X170885Y442365D01*
X170997Y442381D01*
X171023Y442393D01*
X171052Y442398D01*
X171153Y442451D01*
X171256Y442497D01*
X171278Y442516D01*
X171305Y442529D01*
X171387Y442607D01*
X171473Y442680D01*
X171489Y442705D01*
X171511Y442725D01*
X171568Y442823D01*
X171631Y442917D01*
X171639Y442945D01*
X171654Y442970D01*
X171682Y443080D01*
X171716Y443188D01*
X171717Y443218D01*
X171724Y443246D01*
X171721Y443359D01*
X171724Y443472D01*
X171716Y443501D01*
X171715Y443530D01*
X171680Y443638D01*
X171652Y443747D01*
X171637Y443773D01*
X171628Y443801D01*
X171582Y443865D01*
X171507Y443992D01*
X171461Y444035D01*
X171433Y444074D01*
X171305Y444202D01*
X171235Y444255D01*
X171171Y444314D01*
X171122Y444340D01*
X171078Y444373D01*
X170996Y444404D01*
X170918Y444444D01*
X170871Y444452D01*
X170812Y444474D01*
X170664Y444486D01*
X170587Y444499D01*
X151348Y444499D01*
X125729Y470118D01*
X125729Y489357D01*
X125722Y489409D01*
X125723Y489437D01*
X125716Y489460D01*
X125714Y489531D01*
X125697Y489584D01*
X125689Y489639D01*
X125654Y489718D01*
X125627Y489802D01*
X125599Y489841D01*
X125573Y489898D01*
X125477Y490011D01*
X125432Y490075D01*
X125058Y490449D01*
X125034Y490467D01*
X125015Y490489D01*
X124921Y490552D01*
X124831Y490620D01*
X124803Y490630D01*
X124779Y490647D01*
X124671Y490681D01*
X124565Y490721D01*
X124536Y490724D01*
X124508Y490732D01*
X124395Y490735D01*
X124282Y490745D01*
X124253Y490739D01*
X124224Y490740D01*
X124114Y490711D01*
X124003Y490689D01*
X123977Y490675D01*
X123949Y490668D01*
X123851Y490610D01*
X123751Y490558D01*
X123729Y490538D01*
X123704Y490523D01*
X123627Y490440D01*
X123545Y490362D01*
X123530Y490337D01*
X123510Y490315D01*
X123458Y490215D01*
X123401Y490117D01*
X123394Y490088D01*
X123380Y490062D01*
X123367Y489985D01*
X123331Y489841D01*
X123333Y489779D01*
X123325Y489731D01*
X123325Y478668D01*
X122432Y477775D01*
X106168Y477775D01*
X105275Y478668D01*
X105275Y488271D01*
X105263Y488358D01*
X105260Y488445D01*
X105243Y488498D01*
X105235Y488553D01*
X105200Y488632D01*
X105173Y488716D01*
X105145Y488755D01*
X105119Y488812D01*
X105034Y488912D01*
X105017Y488941D01*
X105001Y488956D01*
X104978Y488989D01*
X100845Y493122D01*
X99059Y494908D01*
X99059Y544952D01*
X107478Y553371D01*
X107530Y553441D01*
X107590Y553505D01*
X107616Y553554D01*
X107649Y553598D01*
X107680Y553680D01*
X107720Y553758D01*
X107728Y553805D01*
X107750Y553864D01*
X107762Y554012D01*
X107775Y554089D01*
X107775Y560773D01*
X109547Y562545D01*
X119053Y562545D01*
X120825Y560773D01*
X120825Y551267D01*
X119053Y549495D01*
X111209Y549495D01*
X111122Y549483D01*
X111035Y549480D01*
X110982Y549463D01*
X110927Y549455D01*
X110848Y549420D01*
X110764Y549393D01*
X110725Y549365D01*
X110668Y549339D01*
X110555Y549243D01*
X110491Y549198D01*
X104438Y543145D01*
X104386Y543075D01*
X104326Y543011D01*
X104300Y542962D01*
X104267Y542918D01*
X104236Y542836D01*
X104196Y542758D01*
X104188Y542711D01*
X104166Y542652D01*
X104154Y542504D01*
X104141Y542427D01*
X104141Y513248D01*
X104145Y513219D01*
X104142Y513190D01*
X104165Y513079D01*
X104181Y512967D01*
X104193Y512940D01*
X104198Y512911D01*
X104251Y512810D01*
X104297Y512707D01*
X104316Y512685D01*
X104329Y512659D01*
X104407Y512577D01*
X104480Y512490D01*
X104505Y512474D01*
X104525Y512453D01*
X104623Y512395D01*
X104717Y512333D01*
X104745Y512324D01*
X104770Y512309D01*
X104880Y512281D01*
X104988Y512247D01*
X105018Y512246D01*
X105046Y512239D01*
X105159Y512242D01*
X105272Y512239D01*
X105301Y512247D01*
X105330Y512248D01*
X105438Y512283D01*
X105547Y512311D01*
X105573Y512326D01*
X105601Y512335D01*
X105665Y512381D01*
X105792Y512457D01*
X105835Y512502D01*
X105874Y512530D01*
X106168Y512825D01*
X118587Y512825D01*
X118674Y512837D01*
X118761Y512840D01*
X118814Y512857D01*
X118868Y512865D01*
X118948Y512900D01*
X119032Y512927D01*
X119071Y512955D01*
X119128Y512981D01*
X119241Y513077D01*
X119305Y513122D01*
X124042Y517859D01*
X124094Y517929D01*
X124154Y517993D01*
X124180Y518042D01*
X124213Y518086D01*
X124244Y518168D01*
X124284Y518246D01*
X124292Y518294D01*
X124314Y518352D01*
X124326Y518500D01*
X124339Y518577D01*
X124339Y629632D01*
X124335Y629661D01*
X124338Y629690D01*
X124315Y629801D01*
X124299Y629913D01*
X124287Y629940D01*
X124282Y629969D01*
X124229Y630070D01*
X124183Y630173D01*
X124164Y630195D01*
X124151Y630221D01*
X124073Y630303D01*
X124000Y630390D01*
X123975Y630406D01*
X123955Y630427D01*
X123857Y630485D01*
X123763Y630547D01*
X123735Y630556D01*
X123710Y630571D01*
X123600Y630599D01*
X123492Y630633D01*
X123462Y630634D01*
X123434Y630641D01*
X123321Y630638D01*
X123208Y630641D01*
X123179Y630633D01*
X123150Y630632D01*
X123042Y630597D01*
X122933Y630569D01*
X122907Y630554D01*
X122879Y630545D01*
X122815Y630499D01*
X122688Y630423D01*
X122645Y630378D01*
X122606Y630350D01*
X122432Y630175D01*
X117856Y630175D01*
X117798Y630167D01*
X117740Y630169D01*
X117658Y630147D01*
X117574Y630135D01*
X117521Y630112D01*
X117465Y630097D01*
X117392Y630054D01*
X117315Y630019D01*
X117270Y629981D01*
X117220Y629952D01*
X117162Y629890D01*
X117098Y629836D01*
X117066Y629787D01*
X117026Y629744D01*
X116987Y629669D01*
X116940Y629599D01*
X116923Y629543D01*
X116896Y629491D01*
X116885Y629423D01*
X116855Y629328D01*
X116852Y629228D01*
X116841Y629160D01*
X116841Y618170D01*
X116849Y618112D01*
X116847Y618054D01*
X116869Y617972D01*
X116881Y617888D01*
X116904Y617835D01*
X116919Y617779D01*
X116962Y617706D01*
X116997Y617629D01*
X117035Y617584D01*
X117064Y617534D01*
X117126Y617476D01*
X117180Y617412D01*
X117229Y617380D01*
X117272Y617340D01*
X117347Y617301D01*
X117417Y617254D01*
X117473Y617237D01*
X117525Y617210D01*
X117593Y617199D01*
X117688Y617169D01*
X117788Y617166D01*
X117856Y617155D01*
X119053Y617155D01*
X120825Y615383D01*
X120825Y605877D01*
X119053Y604105D01*
X109547Y604105D01*
X107775Y605877D01*
X107775Y615383D01*
X109547Y617155D01*
X110744Y617155D01*
X110802Y617163D01*
X110860Y617161D01*
X110942Y617183D01*
X111026Y617195D01*
X111079Y617218D01*
X111135Y617233D01*
X111208Y617276D01*
X111285Y617311D01*
X111330Y617349D01*
X111380Y617378D01*
X111438Y617440D01*
X111502Y617494D01*
X111534Y617543D01*
X111574Y617586D01*
X111613Y617661D01*
X111660Y617731D01*
X111677Y617787D01*
X111704Y617839D01*
X111715Y617907D01*
X111745Y618002D01*
X111748Y618102D01*
X111759Y618170D01*
X111759Y629160D01*
X111751Y629218D01*
X111753Y629276D01*
X111731Y629358D01*
X111719Y629442D01*
X111696Y629495D01*
X111681Y629551D01*
X111638Y629624D01*
X111603Y629701D01*
X111565Y629746D01*
X111536Y629796D01*
X111474Y629854D01*
X111420Y629918D01*
X111371Y629950D01*
X111328Y629990D01*
X111253Y630029D01*
X111183Y630076D01*
X111127Y630093D01*
X111075Y630120D01*
X111007Y630131D01*
X110912Y630161D01*
X110812Y630164D01*
X110744Y630175D01*
X106168Y630175D01*
X105275Y631068D01*
X105275Y645332D01*
X106168Y646225D01*
X120363Y646225D01*
X120392Y646229D01*
X120422Y646226D01*
X120533Y646249D01*
X120645Y646265D01*
X120671Y646277D01*
X120700Y646282D01*
X120801Y646335D01*
X120904Y646381D01*
X120927Y646400D01*
X120953Y646413D01*
X121035Y646491D01*
X121121Y646564D01*
X121137Y646589D01*
X121159Y646609D01*
X121216Y646707D01*
X121279Y646801D01*
X121288Y646829D01*
X121302Y646854D01*
X121330Y646964D01*
X121365Y647072D01*
X121365Y647102D01*
X121372Y647130D01*
X121369Y647243D01*
X121372Y647356D01*
X121364Y647385D01*
X121363Y647414D01*
X121329Y647522D01*
X121300Y647631D01*
X121285Y647657D01*
X121276Y647685D01*
X121230Y647749D01*
X121155Y647876D01*
X121109Y647919D01*
X121081Y647958D01*
X120161Y648878D01*
X120091Y648930D01*
X120027Y648990D01*
X119978Y649016D01*
X119934Y649049D01*
X119852Y649080D01*
X119774Y649120D01*
X119727Y649128D01*
X119668Y649150D01*
X119521Y649162D01*
X119443Y649175D01*
X106168Y649175D01*
X105275Y650068D01*
X105275Y664332D01*
X106168Y665225D01*
X122432Y665225D01*
X123325Y664332D01*
X123325Y653321D01*
X123337Y653234D01*
X123340Y653147D01*
X123357Y653094D01*
X123365Y653040D01*
X123400Y652960D01*
X123427Y652877D01*
X123455Y652837D01*
X123481Y652780D01*
X123577Y652667D01*
X123622Y652603D01*
X129421Y646805D01*
X129421Y516052D01*
X123622Y510253D01*
X123570Y510183D01*
X123510Y510119D01*
X123484Y510070D01*
X123451Y510026D01*
X123420Y509944D01*
X123380Y509866D01*
X123372Y509819D01*
X123350Y509760D01*
X123338Y509612D01*
X123325Y509535D01*
X123325Y499789D01*
X123337Y499702D01*
X123340Y499615D01*
X123357Y499562D01*
X123365Y499507D01*
X123400Y499428D01*
X123427Y499344D01*
X123455Y499305D01*
X123481Y499248D01*
X123577Y499135D01*
X123622Y499071D01*
X130811Y491882D01*
X130811Y472643D01*
X130823Y472556D01*
X130826Y472469D01*
X130843Y472416D01*
X130851Y472361D01*
X130886Y472282D01*
X130913Y472198D01*
X130941Y472159D01*
X130967Y472102D01*
X131063Y471989D01*
X131108Y471925D01*
X153155Y449878D01*
X153225Y449826D01*
X153289Y449766D01*
X153338Y449740D01*
X153382Y449707D01*
X153464Y449676D01*
X153542Y449636D01*
X153589Y449628D01*
X153648Y449606D01*
X153796Y449594D01*
X153873Y449581D01*
X173112Y449581D01*
X174898Y447795D01*
X192318Y430375D01*
X192342Y430357D01*
X192361Y430335D01*
X192455Y430272D01*
X192545Y430204D01*
X192573Y430194D01*
X192597Y430177D01*
X192705Y430143D01*
X192811Y430103D01*
X192840Y430100D01*
X192868Y430092D01*
X192982Y430089D01*
X193094Y430079D01*
X193123Y430085D01*
X193152Y430084D01*
X193262Y430113D01*
X193373Y430135D01*
X193399Y430149D01*
X193427Y430156D01*
X193525Y430214D01*
X193625Y430266D01*
X193647Y430286D01*
X193672Y430301D01*
X193749Y430384D01*
X193831Y430462D01*
X193846Y430487D01*
X193866Y430509D01*
X193918Y430610D01*
X193975Y430707D01*
X193982Y430736D01*
X193996Y430762D01*
X194009Y430839D01*
X194045Y430983D01*
X194043Y431045D01*
X194051Y431093D01*
X194051Y440745D01*
X194039Y440832D01*
X194036Y440919D01*
X194019Y440972D01*
X194011Y441027D01*
X193976Y441106D01*
X193949Y441190D01*
X193921Y441229D01*
X193895Y441286D01*
X193799Y441399D01*
X193754Y441463D01*
X163829Y471388D01*
X163829Y489357D01*
X163822Y489409D01*
X163823Y489437D01*
X163816Y489460D01*
X163814Y489531D01*
X163797Y489584D01*
X163789Y489639D01*
X163754Y489718D01*
X163727Y489802D01*
X163699Y489841D01*
X163673Y489898D01*
X163577Y490011D01*
X163532Y490075D01*
X163158Y490449D01*
X163134Y490467D01*
X163115Y490489D01*
X163021Y490552D01*
X162931Y490620D01*
X162903Y490630D01*
X162879Y490647D01*
X162771Y490681D01*
X162665Y490721D01*
X162636Y490724D01*
X162608Y490732D01*
X162495Y490735D01*
X162382Y490745D01*
X162353Y490739D01*
X162324Y490740D01*
X162214Y490711D01*
X162103Y490689D01*
X162077Y490675D01*
X162049Y490668D01*
X161951Y490610D01*
X161851Y490558D01*
X161829Y490538D01*
X161804Y490523D01*
X161727Y490440D01*
X161645Y490362D01*
X161630Y490337D01*
X161610Y490315D01*
X161558Y490215D01*
X161501Y490117D01*
X161494Y490088D01*
X161480Y490062D01*
X161467Y489985D01*
X161431Y489841D01*
X161433Y489779D01*
X161425Y489731D01*
X161425Y478668D01*
X160532Y477775D01*
X144268Y477775D01*
X143375Y478668D01*
X143375Y488271D01*
X143363Y488358D01*
X143360Y488445D01*
X143343Y488498D01*
X143335Y488553D01*
X143300Y488632D01*
X143273Y488716D01*
X143245Y488755D01*
X143219Y488812D01*
X143135Y488912D01*
X143117Y488941D01*
X143101Y488956D01*
X143078Y488989D01*
X138945Y493122D01*
X137159Y494908D01*
X137159Y544372D01*
X138945Y546158D01*
X145578Y552791D01*
X145630Y552861D01*
X145690Y552925D01*
X145716Y552974D01*
X145749Y553018D01*
X145780Y553100D01*
X145820Y553178D01*
X145828Y553225D01*
X145850Y553284D01*
X145862Y553432D01*
X145875Y553509D01*
X145875Y560773D01*
X147647Y562545D01*
X157153Y562545D01*
X158925Y560773D01*
X158925Y551267D01*
X157153Y549495D01*
X149889Y549495D01*
X149802Y549483D01*
X149715Y549480D01*
X149662Y549463D01*
X149607Y549455D01*
X149528Y549420D01*
X149444Y549393D01*
X149405Y549365D01*
X149348Y549339D01*
X149235Y549243D01*
X149171Y549198D01*
X146711Y546738D01*
X146693Y546714D01*
X146671Y546695D01*
X146608Y546601D01*
X146540Y546511D01*
X146530Y546483D01*
X146513Y546459D01*
X146479Y546351D01*
X146439Y546245D01*
X146436Y546216D01*
X146428Y546188D01*
X146425Y546074D01*
X146415Y545962D01*
X146421Y545933D01*
X146420Y545904D01*
X146449Y545794D01*
X146471Y545683D01*
X146485Y545657D01*
X146492Y545629D01*
X146550Y545531D01*
X146602Y545431D01*
X146622Y545409D01*
X146637Y545384D01*
X146720Y545307D01*
X146798Y545225D01*
X146823Y545210D01*
X146845Y545190D01*
X146946Y545138D01*
X147043Y545081D01*
X147072Y545074D01*
X147098Y545060D01*
X147175Y545047D01*
X147319Y545011D01*
X147381Y545013D01*
X147429Y545005D01*
X157153Y545005D01*
X158925Y543233D01*
X158925Y533727D01*
X157153Y531955D01*
X155956Y531955D01*
X155898Y531947D01*
X155840Y531949D01*
X155758Y531927D01*
X155674Y531915D01*
X155621Y531892D01*
X155565Y531877D01*
X155492Y531834D01*
X155415Y531799D01*
X155370Y531761D01*
X155320Y531732D01*
X155262Y531670D01*
X155198Y531616D01*
X155166Y531567D01*
X155126Y531524D01*
X155087Y531449D01*
X155040Y531379D01*
X155023Y531323D01*
X154996Y531271D01*
X154985Y531203D01*
X154955Y531108D01*
X154952Y531008D01*
X154941Y530940D01*
X154941Y527719D01*
X154941Y527718D01*
X154941Y527716D01*
X154961Y527576D01*
X154981Y527438D01*
X154981Y527437D01*
X154981Y527435D01*
X155040Y527305D01*
X155097Y527179D01*
X155098Y527177D01*
X155099Y527176D01*
X155189Y527069D01*
X155280Y526962D01*
X155282Y526961D01*
X155283Y526959D01*
X155295Y526952D01*
X155517Y526804D01*
X155546Y526795D01*
X155567Y526782D01*
X156269Y526491D01*
X158191Y524569D01*
X159231Y522059D01*
X159231Y519341D01*
X158272Y517028D01*
X158251Y516945D01*
X158220Y516864D01*
X158216Y516808D01*
X158202Y516753D01*
X158204Y516667D01*
X158197Y516581D01*
X158208Y516525D01*
X158210Y516468D01*
X158236Y516387D01*
X158253Y516302D01*
X158279Y516252D01*
X158296Y516198D01*
X158344Y516126D01*
X158384Y516050D01*
X158423Y516009D01*
X158455Y515962D01*
X158520Y515906D01*
X158580Y515844D01*
X158629Y515815D01*
X158672Y515779D01*
X158751Y515744D01*
X158825Y515700D01*
X158880Y515686D01*
X158932Y515663D01*
X159017Y515651D01*
X159100Y515630D01*
X159157Y515632D01*
X159214Y515624D01*
X159299Y515636D01*
X159384Y515639D01*
X159439Y515657D01*
X159495Y515665D01*
X159573Y515700D01*
X159655Y515727D01*
X159695Y515755D01*
X159754Y515782D01*
X159865Y515876D01*
X159928Y515922D01*
X162142Y518135D01*
X162194Y518205D01*
X162254Y518269D01*
X162280Y518318D01*
X162313Y518362D01*
X162344Y518444D01*
X162384Y518522D01*
X162392Y518569D01*
X162414Y518628D01*
X162426Y518776D01*
X162439Y518853D01*
X162439Y629632D01*
X162435Y629661D01*
X162438Y629690D01*
X162415Y629801D01*
X162399Y629913D01*
X162387Y629940D01*
X162382Y629969D01*
X162329Y630070D01*
X162283Y630173D01*
X162264Y630195D01*
X162251Y630221D01*
X162173Y630303D01*
X162100Y630390D01*
X162075Y630406D01*
X162055Y630427D01*
X161957Y630485D01*
X161863Y630547D01*
X161835Y630556D01*
X161810Y630571D01*
X161700Y630599D01*
X161592Y630633D01*
X161562Y630634D01*
X161534Y630641D01*
X161421Y630638D01*
X161308Y630641D01*
X161279Y630633D01*
X161250Y630632D01*
X161142Y630597D01*
X161033Y630569D01*
X161007Y630554D01*
X160979Y630545D01*
X160915Y630499D01*
X160788Y630423D01*
X160745Y630378D01*
X160706Y630350D01*
X160532Y630175D01*
X155956Y630175D01*
X155898Y630167D01*
X155840Y630169D01*
X155758Y630147D01*
X155674Y630135D01*
X155621Y630112D01*
X155565Y630097D01*
X155492Y630054D01*
X155415Y630019D01*
X155370Y629981D01*
X155320Y629952D01*
X155262Y629890D01*
X155198Y629836D01*
X155166Y629787D01*
X155126Y629744D01*
X155087Y629669D01*
X155040Y629599D01*
X155023Y629543D01*
X154996Y629491D01*
X154985Y629423D01*
X154955Y629328D01*
X154952Y629228D01*
X154941Y629160D01*
X154941Y618170D01*
X154949Y618112D01*
X154947Y618054D01*
X154969Y617972D01*
X154981Y617888D01*
X155004Y617835D01*
X155019Y617779D01*
X155062Y617706D01*
X155097Y617629D01*
X155135Y617584D01*
X155164Y617534D01*
X155226Y617476D01*
X155280Y617412D01*
X155329Y617380D01*
X155372Y617340D01*
X155447Y617301D01*
X155517Y617254D01*
X155573Y617237D01*
X155625Y617210D01*
X155693Y617199D01*
X155788Y617169D01*
X155888Y617166D01*
X155956Y617155D01*
X157153Y617155D01*
X158925Y615383D01*
X158925Y605877D01*
X157153Y604105D01*
X147647Y604105D01*
X145875Y605877D01*
X145875Y615383D01*
X147647Y617155D01*
X148844Y617155D01*
X148902Y617163D01*
X148960Y617161D01*
X149042Y617183D01*
X149126Y617195D01*
X149179Y617218D01*
X149235Y617233D01*
X149308Y617276D01*
X149385Y617311D01*
X149430Y617349D01*
X149480Y617378D01*
X149538Y617440D01*
X149602Y617494D01*
X149634Y617543D01*
X149674Y617586D01*
X149713Y617661D01*
X149760Y617731D01*
X149777Y617787D01*
X149804Y617839D01*
X149815Y617907D01*
X149845Y618002D01*
X149848Y618102D01*
X149859Y618170D01*
X149859Y629160D01*
X149851Y629218D01*
X149853Y629276D01*
X149831Y629358D01*
X149819Y629442D01*
X149796Y629495D01*
X149781Y629551D01*
X149738Y629624D01*
X149703Y629701D01*
X149665Y629746D01*
X149636Y629796D01*
X149574Y629854D01*
X149520Y629918D01*
X149471Y629950D01*
X149428Y629990D01*
X149353Y630029D01*
X149283Y630076D01*
X149227Y630093D01*
X149175Y630120D01*
X149107Y630131D01*
X149012Y630161D01*
X148912Y630164D01*
X148844Y630175D01*
X144268Y630175D01*
X143375Y631068D01*
X143375Y645332D01*
X144268Y646225D01*
X157193Y646225D01*
X157222Y646229D01*
X157252Y646226D01*
X157363Y646249D01*
X157475Y646265D01*
X157501Y646277D01*
X157530Y646282D01*
X157631Y646335D01*
X157734Y646381D01*
X157757Y646400D01*
X157783Y646413D01*
X157865Y646491D01*
X157951Y646564D01*
X157967Y646589D01*
X157989Y646609D01*
X158046Y646707D01*
X158109Y646801D01*
X158118Y646829D01*
X158132Y646854D01*
X158160Y646964D01*
X158195Y647072D01*
X158195Y647102D01*
X158202Y647130D01*
X158199Y647243D01*
X158202Y647356D01*
X158194Y647385D01*
X158193Y647414D01*
X158159Y647522D01*
X158130Y647631D01*
X158115Y647657D01*
X158106Y647685D01*
X158060Y647749D01*
X157985Y647876D01*
X157939Y647919D01*
X157911Y647958D01*
X156991Y648878D01*
X156921Y648930D01*
X156857Y648990D01*
X156808Y649016D01*
X156764Y649049D01*
X156682Y649080D01*
X156604Y649120D01*
X156557Y649128D01*
X156498Y649150D01*
X156351Y649162D01*
X156273Y649175D01*
X144268Y649175D01*
X143375Y650068D01*
X143375Y664332D01*
X144268Y665225D01*
X160532Y665225D01*
X161425Y664332D01*
X161425Y652051D01*
X161437Y651964D01*
X161440Y651877D01*
X161457Y651824D01*
X161465Y651770D01*
X161500Y651690D01*
X161527Y651607D01*
X161555Y651567D01*
X161581Y651510D01*
X161677Y651397D01*
X161722Y651333D01*
X165735Y647320D01*
X167521Y645535D01*
X167521Y516328D01*
X161722Y510529D01*
X161670Y510459D01*
X161610Y510395D01*
X161584Y510346D01*
X161551Y510302D01*
X161520Y510220D01*
X161480Y510142D01*
X161472Y510095D01*
X161450Y510036D01*
X161438Y509888D01*
X161425Y509811D01*
X161425Y499789D01*
X161437Y499702D01*
X161440Y499615D01*
X161457Y499562D01*
X161465Y499507D01*
X161500Y499428D01*
X161527Y499344D01*
X161555Y499305D01*
X161581Y499248D01*
X161677Y499135D01*
X161722Y499071D01*
X168911Y491882D01*
X168911Y473913D01*
X168923Y473826D01*
X168926Y473739D01*
X168943Y473686D01*
X168951Y473631D01*
X168986Y473552D01*
X169013Y473468D01*
X169041Y473429D01*
X169067Y473372D01*
X169163Y473259D01*
X169208Y473195D01*
X198922Y443481D01*
X198946Y443463D01*
X198965Y443441D01*
X199059Y443378D01*
X199149Y443310D01*
X199177Y443300D01*
X199201Y443283D01*
X199309Y443249D01*
X199415Y443209D01*
X199444Y443206D01*
X199472Y443198D01*
X199586Y443195D01*
X199698Y443185D01*
X199727Y443191D01*
X199756Y443190D01*
X199866Y443219D01*
X199977Y443241D01*
X200003Y443255D01*
X200031Y443262D01*
X200129Y443320D01*
X200229Y443372D01*
X200251Y443392D01*
X200276Y443407D01*
X200353Y443490D01*
X200435Y443568D01*
X200450Y443593D01*
X200470Y443615D01*
X200522Y443716D01*
X200579Y443813D01*
X200586Y443842D01*
X200600Y443868D01*
X200613Y443945D01*
X200649Y444089D01*
X200647Y444151D01*
X200655Y444199D01*
X200655Y477348D01*
X200651Y477377D01*
X200654Y477406D01*
X200631Y477517D01*
X200615Y477629D01*
X200603Y477656D01*
X200598Y477685D01*
X200545Y477786D01*
X200499Y477889D01*
X200480Y477911D01*
X200467Y477937D01*
X200389Y478019D01*
X200316Y478106D01*
X200291Y478122D01*
X200271Y478143D01*
X200173Y478201D01*
X200079Y478263D01*
X200051Y478272D01*
X200026Y478287D01*
X199916Y478315D01*
X199808Y478349D01*
X199778Y478350D01*
X199750Y478357D01*
X199637Y478354D01*
X199524Y478357D01*
X199495Y478349D01*
X199466Y478348D01*
X199358Y478313D01*
X199249Y478285D01*
X199223Y478270D01*
X199195Y478261D01*
X199131Y478215D01*
X199004Y478139D01*
X198961Y478094D01*
X198922Y478066D01*
X198632Y477775D01*
X182368Y477775D01*
X181475Y478668D01*
X181475Y488881D01*
X181463Y488968D01*
X181460Y489055D01*
X181443Y489108D01*
X181435Y489163D01*
X181400Y489242D01*
X181373Y489326D01*
X181345Y489365D01*
X181319Y489422D01*
X181223Y489535D01*
X181178Y489599D01*
X175259Y495518D01*
X175259Y544952D01*
X183678Y553371D01*
X183730Y553441D01*
X183790Y553505D01*
X183816Y553554D01*
X183849Y553598D01*
X183880Y553680D01*
X183920Y553758D01*
X183928Y553805D01*
X183950Y553864D01*
X183962Y554012D01*
X183975Y554089D01*
X183975Y560773D01*
X185747Y562545D01*
X195253Y562545D01*
X197025Y560773D01*
X197025Y551267D01*
X195253Y549495D01*
X187409Y549495D01*
X187322Y549483D01*
X187235Y549480D01*
X187182Y549463D01*
X187127Y549455D01*
X187048Y549420D01*
X186964Y549393D01*
X186925Y549365D01*
X186868Y549339D01*
X186755Y549243D01*
X186691Y549198D01*
X180638Y543145D01*
X180586Y543075D01*
X180526Y543011D01*
X180500Y542962D01*
X180467Y542918D01*
X180436Y542836D01*
X180396Y542758D01*
X180388Y542711D01*
X180366Y542652D01*
X180354Y542504D01*
X180341Y542427D01*
X180341Y513248D01*
X180345Y513219D01*
X180342Y513190D01*
X180365Y513079D01*
X180381Y512967D01*
X180393Y512940D01*
X180398Y512911D01*
X180451Y512810D01*
X180497Y512707D01*
X180516Y512685D01*
X180529Y512659D01*
X180607Y512577D01*
X180680Y512490D01*
X180705Y512474D01*
X180725Y512453D01*
X180823Y512395D01*
X180917Y512333D01*
X180945Y512324D01*
X180970Y512309D01*
X181080Y512281D01*
X181188Y512247D01*
X181218Y512246D01*
X181246Y512239D01*
X181359Y512242D01*
X181472Y512239D01*
X181501Y512247D01*
X181530Y512248D01*
X181638Y512283D01*
X181747Y512311D01*
X181773Y512326D01*
X181801Y512335D01*
X181865Y512381D01*
X181992Y512457D01*
X182035Y512502D01*
X182074Y512530D01*
X182368Y512825D01*
X186559Y512825D01*
X186644Y512837D01*
X186730Y512839D01*
X186784Y512857D01*
X186841Y512865D01*
X186919Y512900D01*
X187001Y512926D01*
X187048Y512958D01*
X187100Y512981D01*
X187166Y513036D01*
X187237Y513084D01*
X187274Y513128D01*
X187317Y513164D01*
X187365Y513236D01*
X187420Y513302D01*
X187443Y513354D01*
X187475Y513401D01*
X187501Y513483D01*
X187535Y513562D01*
X187543Y513618D01*
X187560Y513672D01*
X187563Y513758D01*
X187574Y513843D01*
X187566Y513899D01*
X187568Y513956D01*
X187546Y514039D01*
X187534Y514125D01*
X187510Y514176D01*
X187496Y514231D01*
X187452Y514305D01*
X187417Y514384D01*
X187380Y514427D01*
X187351Y514476D01*
X187288Y514535D01*
X187232Y514600D01*
X187190Y514626D01*
X187143Y514670D01*
X187014Y514736D01*
X186948Y514778D01*
X186631Y514909D01*
X184709Y516831D01*
X183669Y519341D01*
X183669Y522059D01*
X184709Y524569D01*
X186631Y526491D01*
X187333Y526782D01*
X187334Y526782D01*
X187335Y526783D01*
X187452Y526852D01*
X187577Y526926D01*
X187579Y526927D01*
X187580Y526928D01*
X187675Y527030D01*
X187773Y527133D01*
X187773Y527134D01*
X187774Y527135D01*
X187838Y527260D01*
X187903Y527385D01*
X187903Y527387D01*
X187904Y527388D01*
X187906Y527403D01*
X187958Y527664D01*
X187955Y527695D01*
X187959Y527719D01*
X187959Y530940D01*
X187951Y530998D01*
X187953Y531056D01*
X187931Y531138D01*
X187919Y531222D01*
X187896Y531275D01*
X187881Y531331D01*
X187838Y531404D01*
X187803Y531481D01*
X187765Y531526D01*
X187736Y531576D01*
X187674Y531634D01*
X187620Y531698D01*
X187571Y531730D01*
X187528Y531770D01*
X187453Y531809D01*
X187383Y531856D01*
X187327Y531873D01*
X187275Y531900D01*
X187207Y531911D01*
X187112Y531941D01*
X187012Y531944D01*
X186944Y531955D01*
X185747Y531955D01*
X183975Y533727D01*
X183975Y543233D01*
X185747Y545005D01*
X195253Y545005D01*
X197025Y543233D01*
X197025Y533727D01*
X195253Y531955D01*
X194056Y531955D01*
X193998Y531947D01*
X193940Y531949D01*
X193858Y531927D01*
X193774Y531915D01*
X193721Y531892D01*
X193665Y531877D01*
X193592Y531834D01*
X193515Y531799D01*
X193470Y531761D01*
X193420Y531732D01*
X193362Y531670D01*
X193298Y531616D01*
X193266Y531567D01*
X193226Y531524D01*
X193187Y531449D01*
X193140Y531379D01*
X193123Y531323D01*
X193096Y531271D01*
X193085Y531203D01*
X193055Y531108D01*
X193052Y531008D01*
X193041Y530940D01*
X193041Y527719D01*
X193041Y527718D01*
X193041Y527716D01*
X193061Y527576D01*
X193081Y527438D01*
X193081Y527437D01*
X193081Y527435D01*
X193140Y527305D01*
X193197Y527179D01*
X193198Y527177D01*
X193199Y527176D01*
X193289Y527069D01*
X193380Y526962D01*
X193382Y526961D01*
X193383Y526959D01*
X193395Y526952D01*
X193617Y526804D01*
X193646Y526795D01*
X193667Y526782D01*
X194369Y526491D01*
X196291Y524569D01*
X197331Y522059D01*
X197331Y519341D01*
X196372Y517028D01*
X196351Y516945D01*
X196320Y516864D01*
X196316Y516808D01*
X196302Y516753D01*
X196304Y516667D01*
X196297Y516581D01*
X196308Y516525D01*
X196310Y516468D01*
X196336Y516387D01*
X196353Y516302D01*
X196379Y516252D01*
X196396Y516198D01*
X196444Y516126D01*
X196484Y516050D01*
X196523Y516009D01*
X196555Y515962D01*
X196620Y515906D01*
X196680Y515844D01*
X196729Y515815D01*
X196772Y515779D01*
X196851Y515744D01*
X196925Y515700D01*
X196980Y515686D01*
X197032Y515663D01*
X197117Y515651D01*
X197200Y515630D01*
X197257Y515632D01*
X197314Y515624D01*
X197399Y515636D01*
X197485Y515639D01*
X197539Y515657D01*
X197595Y515665D01*
X197673Y515700D01*
X197755Y515727D01*
X197795Y515755D01*
X197854Y515782D01*
X197964Y515876D01*
X198028Y515921D01*
X200242Y518135D01*
X200294Y518205D01*
X200354Y518269D01*
X200380Y518318D01*
X200413Y518362D01*
X200444Y518444D01*
X200484Y518522D01*
X200492Y518569D01*
X200514Y518628D01*
X200526Y518776D01*
X200539Y518853D01*
X200539Y629632D01*
X200535Y629661D01*
X200538Y629690D01*
X200515Y629801D01*
X200499Y629913D01*
X200487Y629940D01*
X200482Y629969D01*
X200429Y630070D01*
X200383Y630173D01*
X200364Y630195D01*
X200351Y630221D01*
X200273Y630303D01*
X200200Y630390D01*
X200175Y630406D01*
X200155Y630427D01*
X200057Y630485D01*
X199963Y630547D01*
X199935Y630556D01*
X199910Y630571D01*
X199800Y630599D01*
X199692Y630633D01*
X199662Y630634D01*
X199634Y630641D01*
X199521Y630638D01*
X199408Y630641D01*
X199379Y630633D01*
X199350Y630632D01*
X199242Y630597D01*
X199133Y630569D01*
X199107Y630554D01*
X199079Y630545D01*
X199015Y630499D01*
X198888Y630423D01*
X198845Y630378D01*
X198806Y630350D01*
X198632Y630175D01*
X194056Y630175D01*
X193998Y630167D01*
X193940Y630169D01*
X193858Y630147D01*
X193774Y630135D01*
X193721Y630112D01*
X193665Y630097D01*
X193592Y630054D01*
X193515Y630019D01*
X193470Y629981D01*
X193420Y629952D01*
X193362Y629890D01*
X193298Y629836D01*
X193266Y629787D01*
X193226Y629744D01*
X193187Y629669D01*
X193140Y629599D01*
X193123Y629543D01*
X193096Y629491D01*
X193085Y629423D01*
X193055Y629328D01*
X193052Y629228D01*
X193041Y629160D01*
X193041Y618170D01*
X193049Y618112D01*
X193047Y618054D01*
X193069Y617972D01*
X193081Y617888D01*
X193104Y617835D01*
X193119Y617779D01*
X193162Y617706D01*
X193197Y617629D01*
X193235Y617584D01*
X193264Y617534D01*
X193326Y617476D01*
X193380Y617412D01*
X193429Y617380D01*
X193472Y617340D01*
X193547Y617301D01*
X193617Y617254D01*
X193673Y617237D01*
X193725Y617210D01*
X193793Y617199D01*
X193888Y617169D01*
X193988Y617166D01*
X194056Y617155D01*
X195253Y617155D01*
X197025Y615383D01*
X197025Y605877D01*
X195253Y604105D01*
X185747Y604105D01*
X183975Y605877D01*
X183975Y615383D01*
X185747Y617155D01*
X186944Y617155D01*
X187002Y617163D01*
X187060Y617161D01*
X187142Y617183D01*
X187226Y617195D01*
X187279Y617218D01*
X187335Y617233D01*
X187408Y617276D01*
X187485Y617311D01*
X187530Y617349D01*
X187580Y617378D01*
X187638Y617440D01*
X187702Y617494D01*
X187734Y617543D01*
X187774Y617586D01*
X187813Y617661D01*
X187860Y617731D01*
X187877Y617787D01*
X187904Y617839D01*
X187915Y617907D01*
X187945Y618002D01*
X187948Y618102D01*
X187959Y618170D01*
X187959Y629160D01*
X187951Y629218D01*
X187953Y629276D01*
X187931Y629358D01*
X187919Y629442D01*
X187896Y629495D01*
X187881Y629551D01*
X187838Y629624D01*
X187803Y629701D01*
X187765Y629746D01*
X187736Y629796D01*
X187674Y629854D01*
X187620Y629918D01*
X187571Y629950D01*
X187528Y629990D01*
X187453Y630029D01*
X187383Y630076D01*
X187327Y630093D01*
X187275Y630120D01*
X187207Y630131D01*
X187112Y630161D01*
X187012Y630164D01*
X186944Y630175D01*
X182368Y630175D01*
X181475Y631068D01*
X181475Y645332D01*
X182368Y646225D01*
X195293Y646225D01*
X195322Y646229D01*
X195352Y646226D01*
X195463Y646249D01*
X195575Y646265D01*
X195601Y646277D01*
X195630Y646282D01*
X195731Y646335D01*
X195834Y646381D01*
X195857Y646400D01*
X195883Y646413D01*
X195965Y646491D01*
X196051Y646564D01*
X196067Y646589D01*
X196089Y646609D01*
X196146Y646707D01*
X196209Y646801D01*
X196218Y646829D01*
X196232Y646854D01*
X196260Y646964D01*
X196295Y647072D01*
X196295Y647102D01*
X196302Y647130D01*
X196299Y647243D01*
X196302Y647356D01*
X196294Y647385D01*
X196293Y647414D01*
X196259Y647522D01*
X196230Y647631D01*
X196215Y647657D01*
X196206Y647685D01*
X196160Y647749D01*
X196085Y647876D01*
X196039Y647919D01*
X196011Y647958D01*
X195091Y648878D01*
X195021Y648930D01*
X194957Y648990D01*
X194908Y649016D01*
X194864Y649049D01*
X194782Y649080D01*
X194704Y649120D01*
X194657Y649128D01*
X194598Y649150D01*
X194451Y649162D01*
X194373Y649175D01*
X182368Y649175D01*
X181475Y650068D01*
X181475Y664332D01*
X182368Y665225D01*
X198632Y665225D01*
X199525Y664332D01*
X199525Y652051D01*
X199537Y651964D01*
X199540Y651877D01*
X199557Y651824D01*
X199565Y651770D01*
X199600Y651690D01*
X199627Y651607D01*
X199655Y651567D01*
X199681Y651510D01*
X199777Y651397D01*
X199822Y651333D01*
X205621Y645535D01*
X205621Y516328D01*
X199822Y510529D01*
X199770Y510459D01*
X199710Y510395D01*
X199684Y510346D01*
X199651Y510302D01*
X199620Y510220D01*
X199580Y510142D01*
X199572Y510095D01*
X199550Y510036D01*
X199538Y509888D01*
X199525Y509811D01*
X199525Y499789D01*
X199537Y499702D01*
X199540Y499615D01*
X199557Y499562D01*
X199565Y499507D01*
X199600Y499428D01*
X199627Y499344D01*
X199655Y499305D01*
X199681Y499248D01*
X199777Y499135D01*
X199822Y499071D01*
X205737Y493156D01*
X205737Y393159D01*
X205741Y393130D01*
X205738Y393101D01*
X205761Y392990D01*
X205777Y392878D01*
X205789Y392851D01*
X205794Y392822D01*
X205846Y392722D01*
X205893Y392618D01*
X205912Y392596D01*
X205925Y392570D01*
X206003Y392488D01*
X206076Y392401D01*
X206101Y392385D01*
X206121Y392364D01*
X206219Y392306D01*
X206313Y392244D01*
X206341Y392235D01*
X206366Y392220D01*
X206476Y392192D01*
X206584Y392158D01*
X206614Y392157D01*
X206642Y392150D01*
X206755Y392153D01*
X206868Y392150D01*
X206897Y392158D01*
X206926Y392159D01*
X207034Y392194D01*
X207143Y392222D01*
X207169Y392237D01*
X207197Y392246D01*
X207260Y392292D01*
X207388Y392368D01*
X207431Y392413D01*
X207470Y392441D01*
X237192Y422163D01*
X237244Y422233D01*
X237304Y422297D01*
X237330Y422346D01*
X237363Y422390D01*
X237394Y422472D01*
X237434Y422550D01*
X237442Y422598D01*
X237464Y422656D01*
X237476Y422804D01*
X237489Y422881D01*
X237489Y445088D01*
X237485Y445117D01*
X237488Y445146D01*
X237465Y445257D01*
X237449Y445370D01*
X237437Y445396D01*
X237432Y445425D01*
X237379Y445526D01*
X237333Y445629D01*
X237314Y445651D01*
X237301Y445677D01*
X237223Y445760D01*
X237150Y445846D01*
X237125Y445862D01*
X237105Y445884D01*
X237007Y445941D01*
X236913Y446004D01*
X236885Y446013D01*
X236860Y446027D01*
X236750Y446055D01*
X236642Y446089D01*
X236612Y446090D01*
X236584Y446097D01*
X236471Y446094D01*
X236358Y446097D01*
X236329Y446089D01*
X236300Y446088D01*
X236192Y446053D01*
X236083Y446025D01*
X236057Y446010D01*
X236029Y446001D01*
X235966Y445955D01*
X235838Y445880D01*
X235795Y445834D01*
X235756Y445806D01*
X233739Y443789D01*
X233037Y443498D01*
X233036Y443498D01*
X233035Y443497D01*
X232916Y443427D01*
X232793Y443354D01*
X232792Y443353D01*
X232790Y443352D01*
X232691Y443246D01*
X232597Y443147D01*
X232597Y443146D01*
X232596Y443145D01*
X232530Y443017D01*
X232467Y442895D01*
X232467Y442893D01*
X232466Y442892D01*
X232464Y442877D01*
X232412Y442616D01*
X232415Y442585D01*
X232411Y442560D01*
X232411Y442340D01*
X232419Y442282D01*
X232417Y442224D01*
X232439Y442142D01*
X232451Y442058D01*
X232474Y442005D01*
X232489Y441949D01*
X232532Y441876D01*
X232567Y441799D01*
X232605Y441754D01*
X232634Y441704D01*
X232696Y441646D01*
X232750Y441582D01*
X232799Y441550D01*
X232842Y441510D01*
X232917Y441471D01*
X232987Y441424D01*
X233043Y441407D01*
X233095Y441380D01*
X233163Y441369D01*
X233258Y441339D01*
X233358Y441336D01*
X233426Y441325D01*
X234132Y441325D01*
X235025Y440432D01*
X235025Y423168D01*
X234132Y422275D01*
X209868Y422275D01*
X208975Y423168D01*
X208975Y440432D01*
X209868Y441325D01*
X226314Y441325D01*
X226372Y441333D01*
X226430Y441331D01*
X226512Y441353D01*
X226596Y441365D01*
X226649Y441388D01*
X226705Y441403D01*
X226778Y441446D01*
X226855Y441481D01*
X226900Y441519D01*
X226950Y441548D01*
X227008Y441610D01*
X227072Y441664D01*
X227104Y441713D01*
X227144Y441756D01*
X227183Y441831D01*
X227230Y441901D01*
X227247Y441957D01*
X227274Y442009D01*
X227285Y442077D01*
X227315Y442172D01*
X227318Y442272D01*
X227329Y442340D01*
X227329Y442560D01*
X227329Y442562D01*
X227329Y442564D01*
X227309Y442701D01*
X227289Y442842D01*
X227289Y442843D01*
X227289Y442845D01*
X227232Y442970D01*
X227173Y443101D01*
X227172Y443103D01*
X227172Y443104D01*
X227082Y443209D01*
X226990Y443318D01*
X226988Y443319D01*
X226987Y443320D01*
X226974Y443329D01*
X226753Y443476D01*
X226724Y443485D01*
X226703Y443498D01*
X226001Y443789D01*
X224079Y445711D01*
X223039Y448221D01*
X223039Y450939D01*
X224079Y453449D01*
X226001Y455371D01*
X228511Y456411D01*
X231229Y456411D01*
X233739Y455371D01*
X235756Y453354D01*
X235780Y453336D01*
X235799Y453314D01*
X235893Y453251D01*
X235983Y453183D01*
X236011Y453173D01*
X236035Y453156D01*
X236143Y453122D01*
X236249Y453082D01*
X236278Y453079D01*
X236306Y453071D01*
X236420Y453068D01*
X236532Y453058D01*
X236561Y453064D01*
X236590Y453063D01*
X236700Y453092D01*
X236811Y453114D01*
X236837Y453128D01*
X236865Y453135D01*
X236963Y453193D01*
X237063Y453245D01*
X237085Y453265D01*
X237110Y453280D01*
X237187Y453363D01*
X237269Y453441D01*
X237284Y453466D01*
X237304Y453488D01*
X237356Y453589D01*
X237413Y453686D01*
X237420Y453715D01*
X237434Y453741D01*
X237447Y453818D01*
X237483Y453962D01*
X237481Y454024D01*
X237489Y454072D01*
X237489Y476760D01*
X237481Y476818D01*
X237483Y476876D01*
X237461Y476958D01*
X237449Y477042D01*
X237426Y477095D01*
X237411Y477151D01*
X237368Y477224D01*
X237333Y477301D01*
X237295Y477346D01*
X237266Y477396D01*
X237204Y477454D01*
X237150Y477518D01*
X237101Y477550D01*
X237058Y477590D01*
X236983Y477629D01*
X236913Y477676D01*
X236857Y477693D01*
X236805Y477720D01*
X236737Y477731D01*
X236642Y477761D01*
X236542Y477764D01*
X236474Y477775D01*
X220468Y477775D01*
X219575Y478668D01*
X219575Y488881D01*
X219563Y488968D01*
X219560Y489055D01*
X219543Y489108D01*
X219535Y489163D01*
X219500Y489242D01*
X219473Y489326D01*
X219445Y489365D01*
X219419Y489422D01*
X219323Y489535D01*
X219278Y489599D01*
X213359Y495518D01*
X213359Y544952D01*
X221778Y553371D01*
X221830Y553441D01*
X221890Y553505D01*
X221916Y553554D01*
X221949Y553598D01*
X221980Y553680D01*
X222020Y553758D01*
X222028Y553805D01*
X222050Y553864D01*
X222062Y554012D01*
X222075Y554089D01*
X222075Y560773D01*
X223847Y562545D01*
X233353Y562545D01*
X235125Y560773D01*
X235125Y551267D01*
X233353Y549495D01*
X225509Y549495D01*
X225422Y549483D01*
X225335Y549480D01*
X225282Y549463D01*
X225227Y549455D01*
X225148Y549420D01*
X225064Y549393D01*
X225025Y549365D01*
X224968Y549339D01*
X224855Y549243D01*
X224791Y549198D01*
X218738Y543145D01*
X218686Y543075D01*
X218626Y543011D01*
X218600Y542962D01*
X218567Y542918D01*
X218536Y542836D01*
X218496Y542758D01*
X218488Y542711D01*
X218466Y542652D01*
X218454Y542504D01*
X218441Y542427D01*
X218441Y513248D01*
X218445Y513219D01*
X218442Y513190D01*
X218465Y513079D01*
X218481Y512967D01*
X218493Y512940D01*
X218498Y512911D01*
X218551Y512810D01*
X218597Y512707D01*
X218616Y512685D01*
X218629Y512659D01*
X218707Y512577D01*
X218780Y512490D01*
X218805Y512474D01*
X218825Y512453D01*
X218923Y512395D01*
X219017Y512333D01*
X219045Y512324D01*
X219070Y512309D01*
X219180Y512281D01*
X219288Y512247D01*
X219318Y512246D01*
X219346Y512239D01*
X219459Y512242D01*
X219572Y512239D01*
X219601Y512247D01*
X219630Y512248D01*
X219738Y512283D01*
X219847Y512311D01*
X219873Y512326D01*
X219901Y512335D01*
X219965Y512381D01*
X220092Y512457D01*
X220135Y512502D01*
X220174Y512530D01*
X220468Y512825D01*
X224659Y512825D01*
X224744Y512837D01*
X224830Y512839D01*
X224884Y512857D01*
X224941Y512865D01*
X225019Y512900D01*
X225101Y512926D01*
X225148Y512958D01*
X225200Y512981D01*
X225266Y513036D01*
X225337Y513084D01*
X225374Y513128D01*
X225417Y513164D01*
X225465Y513236D01*
X225520Y513302D01*
X225543Y513354D01*
X225575Y513401D01*
X225601Y513483D01*
X225635Y513562D01*
X225643Y513618D01*
X225660Y513672D01*
X225663Y513758D01*
X225674Y513843D01*
X225666Y513899D01*
X225668Y513956D01*
X225646Y514039D01*
X225634Y514125D01*
X225610Y514176D01*
X225596Y514231D01*
X225552Y514305D01*
X225517Y514384D01*
X225480Y514427D01*
X225451Y514476D01*
X225388Y514535D01*
X225332Y514600D01*
X225290Y514626D01*
X225243Y514670D01*
X225114Y514736D01*
X225048Y514778D01*
X224731Y514909D01*
X222809Y516831D01*
X221769Y519341D01*
X221769Y522059D01*
X222809Y524569D01*
X224731Y526491D01*
X225433Y526782D01*
X225434Y526782D01*
X225435Y526783D01*
X225552Y526852D01*
X225677Y526926D01*
X225679Y526927D01*
X225680Y526928D01*
X225775Y527030D01*
X225873Y527133D01*
X225873Y527134D01*
X225874Y527135D01*
X225938Y527260D01*
X226003Y527385D01*
X226003Y527387D01*
X226004Y527388D01*
X226006Y527403D01*
X226058Y527664D01*
X226055Y527695D01*
X226059Y527719D01*
X226059Y530940D01*
X226051Y530998D01*
X226053Y531056D01*
X226031Y531138D01*
X226019Y531222D01*
X225996Y531275D01*
X225981Y531331D01*
X225938Y531404D01*
X225903Y531481D01*
X225865Y531526D01*
X225836Y531576D01*
X225774Y531634D01*
X225720Y531698D01*
X225671Y531730D01*
X225628Y531770D01*
X225553Y531809D01*
X225483Y531856D01*
X225427Y531873D01*
X225375Y531900D01*
X225307Y531911D01*
X225212Y531941D01*
X225112Y531944D01*
X225044Y531955D01*
X223847Y531955D01*
X222075Y533727D01*
X222075Y543233D01*
X223847Y545005D01*
X233353Y545005D01*
X235125Y543233D01*
X235125Y533727D01*
X233353Y531955D01*
X232156Y531955D01*
X232098Y531947D01*
X232040Y531949D01*
X231958Y531927D01*
X231874Y531915D01*
X231821Y531892D01*
X231765Y531877D01*
X231692Y531834D01*
X231615Y531799D01*
X231570Y531761D01*
X231520Y531732D01*
X231462Y531670D01*
X231398Y531616D01*
X231366Y531567D01*
X231326Y531524D01*
X231287Y531449D01*
X231240Y531379D01*
X231223Y531323D01*
X231196Y531271D01*
X231185Y531203D01*
X231155Y531108D01*
X231152Y531008D01*
X231141Y530940D01*
X231141Y527719D01*
X231141Y527718D01*
X231141Y527716D01*
X231161Y527576D01*
X231181Y527438D01*
X231181Y527437D01*
X231181Y527435D01*
X231240Y527305D01*
X231297Y527179D01*
X231298Y527177D01*
X231299Y527176D01*
X231389Y527069D01*
X231480Y526962D01*
X231482Y526961D01*
X231483Y526959D01*
X231495Y526952D01*
X231717Y526804D01*
X231746Y526795D01*
X231767Y526782D01*
X232469Y526491D01*
X234391Y524569D01*
X235431Y522059D01*
X235431Y519341D01*
X234472Y517028D01*
X234451Y516945D01*
X234420Y516864D01*
X234416Y516808D01*
X234402Y516753D01*
X234404Y516667D01*
X234397Y516581D01*
X234408Y516525D01*
X234410Y516468D01*
X234436Y516387D01*
X234453Y516302D01*
X234479Y516252D01*
X234496Y516198D01*
X234544Y516126D01*
X234584Y516050D01*
X234623Y516009D01*
X234655Y515962D01*
X234720Y515906D01*
X234780Y515844D01*
X234829Y515815D01*
X234872Y515779D01*
X234951Y515744D01*
X235025Y515700D01*
X235080Y515686D01*
X235132Y515663D01*
X235217Y515651D01*
X235300Y515630D01*
X235357Y515632D01*
X235414Y515624D01*
X235499Y515636D01*
X235584Y515639D01*
X235639Y515657D01*
X235695Y515665D01*
X235773Y515700D01*
X235855Y515727D01*
X235895Y515755D01*
X235954Y515782D01*
X236065Y515876D01*
X236128Y515922D01*
X238342Y518135D01*
X238394Y518205D01*
X238454Y518269D01*
X238480Y518318D01*
X238513Y518362D01*
X238544Y518444D01*
X238584Y518522D01*
X238592Y518569D01*
X238614Y518628D01*
X238626Y518776D01*
X238639Y518853D01*
X238639Y629632D01*
X238635Y629661D01*
X238638Y629690D01*
X238615Y629801D01*
X238599Y629913D01*
X238587Y629940D01*
X238582Y629969D01*
X238529Y630070D01*
X238483Y630173D01*
X238464Y630195D01*
X238451Y630221D01*
X238373Y630303D01*
X238300Y630390D01*
X238275Y630406D01*
X238255Y630427D01*
X238157Y630485D01*
X238063Y630547D01*
X238035Y630556D01*
X238010Y630571D01*
X237900Y630599D01*
X237792Y630633D01*
X237762Y630634D01*
X237734Y630641D01*
X237621Y630638D01*
X237508Y630641D01*
X237479Y630633D01*
X237450Y630632D01*
X237342Y630597D01*
X237233Y630569D01*
X237207Y630554D01*
X237179Y630545D01*
X237115Y630499D01*
X236988Y630423D01*
X236945Y630378D01*
X236906Y630350D01*
X236732Y630175D01*
X232156Y630175D01*
X232098Y630167D01*
X232040Y630169D01*
X231958Y630147D01*
X231874Y630135D01*
X231821Y630112D01*
X231765Y630097D01*
X231692Y630054D01*
X231615Y630019D01*
X231570Y629981D01*
X231520Y629952D01*
X231462Y629890D01*
X231398Y629836D01*
X231366Y629787D01*
X231326Y629744D01*
X231287Y629669D01*
X231240Y629599D01*
X231223Y629543D01*
X231196Y629491D01*
X231185Y629423D01*
X231155Y629328D01*
X231152Y629228D01*
X231141Y629160D01*
X231141Y618170D01*
X231149Y618112D01*
X231147Y618054D01*
X231169Y617972D01*
X231181Y617888D01*
X231204Y617835D01*
X231219Y617779D01*
X231262Y617706D01*
X231297Y617629D01*
X231335Y617584D01*
X231364Y617534D01*
X231426Y617476D01*
X231480Y617412D01*
X231529Y617380D01*
X231572Y617340D01*
X231647Y617301D01*
X231717Y617254D01*
X231773Y617237D01*
X231825Y617210D01*
X231893Y617199D01*
X231988Y617169D01*
X232088Y617166D01*
X232156Y617155D01*
X233353Y617155D01*
X235125Y615383D01*
X235125Y605877D01*
X233353Y604105D01*
X223847Y604105D01*
X222075Y605877D01*
X222075Y615383D01*
X223847Y617155D01*
X225044Y617155D01*
X225102Y617163D01*
X225160Y617161D01*
X225242Y617183D01*
X225326Y617195D01*
X225379Y617218D01*
X225435Y617233D01*
X225508Y617276D01*
X225585Y617311D01*
X225630Y617349D01*
X225680Y617378D01*
X225738Y617440D01*
X225802Y617494D01*
X225834Y617543D01*
X225874Y617586D01*
X225913Y617661D01*
X225960Y617731D01*
X225977Y617787D01*
X226004Y617839D01*
X226015Y617907D01*
X226045Y618002D01*
X226048Y618102D01*
X226059Y618170D01*
X226059Y629160D01*
X226051Y629218D01*
X226053Y629276D01*
X226031Y629358D01*
X226019Y629442D01*
X225996Y629495D01*
X225981Y629551D01*
X225938Y629624D01*
X225903Y629701D01*
X225865Y629746D01*
X225836Y629796D01*
X225774Y629854D01*
X225720Y629918D01*
X225671Y629950D01*
X225628Y629990D01*
X225553Y630029D01*
X225483Y630076D01*
X225427Y630093D01*
X225375Y630120D01*
X225307Y630131D01*
X225212Y630161D01*
X225112Y630164D01*
X225044Y630175D01*
X220468Y630175D01*
X219575Y631068D01*
X219575Y645332D01*
X220468Y646225D01*
X234663Y646225D01*
X234692Y646229D01*
X234722Y646226D01*
X234833Y646249D01*
X234945Y646265D01*
X234971Y646277D01*
X235000Y646282D01*
X235101Y646334D01*
X235204Y646381D01*
X235227Y646400D01*
X235253Y646413D01*
X235335Y646491D01*
X235421Y646564D01*
X235437Y646589D01*
X235459Y646609D01*
X235516Y646707D01*
X235579Y646801D01*
X235588Y646829D01*
X235602Y646854D01*
X235630Y646964D01*
X235665Y647072D01*
X235665Y647102D01*
X235672Y647130D01*
X235669Y647243D01*
X235672Y647356D01*
X235664Y647385D01*
X235663Y647414D01*
X235629Y647522D01*
X235600Y647631D01*
X235585Y647657D01*
X235576Y647685D01*
X235530Y647748D01*
X235455Y647876D01*
X235409Y647919D01*
X235381Y647958D01*
X234461Y648878D01*
X234391Y648930D01*
X234327Y648990D01*
X234278Y649016D01*
X234234Y649049D01*
X234152Y649080D01*
X234074Y649120D01*
X234027Y649128D01*
X233968Y649150D01*
X233821Y649162D01*
X233743Y649175D01*
X220468Y649175D01*
X219575Y650068D01*
X219575Y664332D01*
X220468Y665225D01*
X236732Y665225D01*
X237625Y664332D01*
X237625Y653321D01*
X237637Y653234D01*
X237640Y653147D01*
X237657Y653094D01*
X237665Y653040D01*
X237700Y652960D01*
X237727Y652877D01*
X237755Y652837D01*
X237781Y652780D01*
X237877Y652667D01*
X237922Y652603D01*
X243721Y646805D01*
X243721Y516328D01*
X237922Y510529D01*
X237870Y510459D01*
X237810Y510395D01*
X237784Y510346D01*
X237751Y510302D01*
X237720Y510220D01*
X237680Y510142D01*
X237672Y510095D01*
X237650Y510036D01*
X237638Y509888D01*
X237625Y509811D01*
X237625Y499789D01*
X237637Y499702D01*
X237640Y499615D01*
X237657Y499562D01*
X237665Y499507D01*
X237700Y499428D01*
X237727Y499344D01*
X237755Y499305D01*
X237781Y499248D01*
X237877Y499135D01*
X237922Y499071D01*
X242571Y494422D01*
X242571Y420849D01*
X242575Y420820D01*
X242572Y420791D01*
X242595Y420680D01*
X242611Y420568D01*
X242623Y420541D01*
X242628Y420512D01*
X242680Y420412D01*
X242727Y420308D01*
X242746Y420286D01*
X242759Y420260D01*
X242837Y420178D01*
X242910Y420091D01*
X242935Y420075D01*
X242955Y420054D01*
X243053Y419996D01*
X243147Y419934D01*
X243175Y419925D01*
X243200Y419910D01*
X243310Y419882D01*
X243418Y419848D01*
X243448Y419847D01*
X243476Y419840D01*
X243589Y419843D01*
X243702Y419840D01*
X243731Y419848D01*
X243760Y419849D01*
X243868Y419884D01*
X243977Y419912D01*
X244003Y419927D01*
X244031Y419936D01*
X244094Y419982D01*
X244222Y420058D01*
X244265Y420103D01*
X244304Y420131D01*
X276562Y452389D01*
X276614Y452459D01*
X276674Y452523D01*
X276700Y452572D01*
X276733Y452616D01*
X276764Y452698D01*
X276804Y452776D01*
X276812Y452824D01*
X276834Y452882D01*
X276846Y453030D01*
X276859Y453107D01*
X276859Y477352D01*
X276855Y477381D01*
X276858Y477410D01*
X276835Y477521D01*
X276819Y477633D01*
X276807Y477660D01*
X276802Y477689D01*
X276749Y477790D01*
X276703Y477893D01*
X276684Y477915D01*
X276671Y477941D01*
X276593Y478023D01*
X276520Y478110D01*
X276495Y478126D01*
X276475Y478147D01*
X276377Y478205D01*
X276283Y478267D01*
X276255Y478276D01*
X276230Y478291D01*
X276120Y478319D01*
X276012Y478353D01*
X275982Y478354D01*
X275954Y478361D01*
X275841Y478358D01*
X275728Y478361D01*
X275699Y478353D01*
X275670Y478352D01*
X275562Y478317D01*
X275453Y478289D01*
X275427Y478274D01*
X275399Y478265D01*
X275335Y478219D01*
X275208Y478143D01*
X275165Y478098D01*
X275126Y478070D01*
X274832Y477775D01*
X258568Y477775D01*
X257675Y478668D01*
X257675Y488881D01*
X257663Y488968D01*
X257660Y489055D01*
X257643Y489108D01*
X257635Y489163D01*
X257600Y489242D01*
X257573Y489326D01*
X257545Y489365D01*
X257519Y489422D01*
X257423Y489535D01*
X257378Y489599D01*
X251459Y495518D01*
X251459Y544952D01*
X259878Y553371D01*
X259930Y553441D01*
X259990Y553505D01*
X260016Y553554D01*
X260049Y553598D01*
X260080Y553680D01*
X260120Y553758D01*
X260128Y553805D01*
X260150Y553864D01*
X260162Y554012D01*
X260175Y554089D01*
X260175Y560773D01*
X261947Y562545D01*
X271453Y562545D01*
X273225Y560773D01*
X273225Y551267D01*
X271453Y549495D01*
X263609Y549495D01*
X263522Y549483D01*
X263435Y549480D01*
X263382Y549463D01*
X263327Y549455D01*
X263248Y549420D01*
X263164Y549393D01*
X263125Y549365D01*
X263068Y549339D01*
X262955Y549243D01*
X262891Y549198D01*
X256838Y543145D01*
X256786Y543075D01*
X256726Y543011D01*
X256700Y542962D01*
X256667Y542918D01*
X256636Y542836D01*
X256596Y542758D01*
X256588Y542711D01*
X256566Y542652D01*
X256554Y542504D01*
X256541Y542427D01*
X256541Y513248D01*
X256545Y513219D01*
X256542Y513190D01*
X256565Y513079D01*
X256581Y512967D01*
X256593Y512940D01*
X256598Y512911D01*
X256651Y512810D01*
X256697Y512707D01*
X256716Y512685D01*
X256729Y512659D01*
X256807Y512577D01*
X256880Y512490D01*
X256905Y512474D01*
X256925Y512453D01*
X257023Y512395D01*
X257117Y512333D01*
X257145Y512324D01*
X257170Y512309D01*
X257280Y512281D01*
X257388Y512247D01*
X257418Y512246D01*
X257446Y512239D01*
X257559Y512242D01*
X257672Y512239D01*
X257701Y512247D01*
X257730Y512248D01*
X257838Y512283D01*
X257947Y512311D01*
X257973Y512326D01*
X258001Y512335D01*
X258065Y512381D01*
X258192Y512457D01*
X258235Y512502D01*
X258274Y512530D01*
X258568Y512825D01*
X262759Y512825D01*
X262844Y512837D01*
X262930Y512839D01*
X262984Y512857D01*
X263041Y512865D01*
X263119Y512900D01*
X263201Y512926D01*
X263248Y512958D01*
X263300Y512981D01*
X263366Y513036D01*
X263437Y513084D01*
X263474Y513128D01*
X263517Y513164D01*
X263565Y513236D01*
X263620Y513302D01*
X263643Y513354D01*
X263675Y513401D01*
X263701Y513483D01*
X263735Y513562D01*
X263743Y513618D01*
X263760Y513672D01*
X263763Y513758D01*
X263774Y513843D01*
X263766Y513899D01*
X263768Y513956D01*
X263746Y514039D01*
X263734Y514125D01*
X263710Y514176D01*
X263696Y514231D01*
X263652Y514305D01*
X263617Y514384D01*
X263580Y514427D01*
X263551Y514476D01*
X263488Y514535D01*
X263432Y514600D01*
X263390Y514626D01*
X263343Y514670D01*
X263214Y514736D01*
X263148Y514778D01*
X262831Y514909D01*
X260909Y516831D01*
X259869Y519341D01*
X259869Y522059D01*
X260909Y524569D01*
X262831Y526491D01*
X263533Y526782D01*
X263534Y526782D01*
X263535Y526783D01*
X263652Y526852D01*
X263777Y526926D01*
X263779Y526927D01*
X263780Y526928D01*
X263875Y527030D01*
X263973Y527133D01*
X263973Y527134D01*
X263974Y527135D01*
X264038Y527260D01*
X264103Y527385D01*
X264103Y527387D01*
X264104Y527388D01*
X264106Y527403D01*
X264158Y527664D01*
X264155Y527695D01*
X264159Y527719D01*
X264159Y530940D01*
X264151Y530998D01*
X264153Y531056D01*
X264131Y531138D01*
X264119Y531222D01*
X264096Y531275D01*
X264081Y531331D01*
X264038Y531404D01*
X264003Y531481D01*
X263965Y531526D01*
X263936Y531576D01*
X263874Y531634D01*
X263820Y531698D01*
X263771Y531730D01*
X263728Y531770D01*
X263653Y531809D01*
X263583Y531856D01*
X263527Y531873D01*
X263475Y531900D01*
X263407Y531911D01*
X263312Y531941D01*
X263212Y531944D01*
X263144Y531955D01*
X261947Y531955D01*
X260175Y533727D01*
X260175Y543233D01*
X261947Y545005D01*
X271453Y545005D01*
X273225Y543233D01*
X273225Y533727D01*
X271453Y531955D01*
X270256Y531955D01*
X270198Y531947D01*
X270140Y531949D01*
X270058Y531927D01*
X269974Y531915D01*
X269921Y531892D01*
X269865Y531877D01*
X269792Y531834D01*
X269715Y531799D01*
X269670Y531761D01*
X269620Y531732D01*
X269562Y531670D01*
X269498Y531616D01*
X269466Y531567D01*
X269426Y531524D01*
X269387Y531449D01*
X269340Y531379D01*
X269323Y531323D01*
X269296Y531271D01*
X269285Y531203D01*
X269255Y531108D01*
X269252Y531008D01*
X269241Y530940D01*
X269241Y527719D01*
X269241Y527718D01*
X269241Y527716D01*
X269261Y527576D01*
X269281Y527438D01*
X269281Y527437D01*
X269281Y527435D01*
X269340Y527305D01*
X269397Y527179D01*
X269398Y527177D01*
X269399Y527176D01*
X269489Y527069D01*
X269580Y526962D01*
X269582Y526961D01*
X269583Y526959D01*
X269595Y526952D01*
X269817Y526804D01*
X269846Y526795D01*
X269867Y526782D01*
X270569Y526491D01*
X272491Y524569D01*
X273531Y522059D01*
X273531Y519341D01*
X272572Y517028D01*
X272551Y516945D01*
X272520Y516864D01*
X272516Y516808D01*
X272502Y516753D01*
X272504Y516667D01*
X272497Y516581D01*
X272508Y516525D01*
X272510Y516468D01*
X272536Y516387D01*
X272553Y516302D01*
X272579Y516252D01*
X272596Y516198D01*
X272644Y516126D01*
X272684Y516050D01*
X272723Y516009D01*
X272755Y515962D01*
X272820Y515906D01*
X272880Y515844D01*
X272929Y515815D01*
X272972Y515779D01*
X273051Y515744D01*
X273125Y515700D01*
X273180Y515686D01*
X273232Y515663D01*
X273317Y515651D01*
X273400Y515630D01*
X273457Y515632D01*
X273514Y515624D01*
X273599Y515636D01*
X273684Y515639D01*
X273739Y515657D01*
X273795Y515665D01*
X273873Y515700D01*
X273955Y515727D01*
X273995Y515755D01*
X274054Y515782D01*
X274165Y515876D01*
X274228Y515922D01*
X276442Y518135D01*
X276494Y518205D01*
X276554Y518269D01*
X276580Y518318D01*
X276613Y518362D01*
X276644Y518444D01*
X276684Y518522D01*
X276692Y518569D01*
X276714Y518628D01*
X276726Y518776D01*
X276739Y518853D01*
X276739Y629632D01*
X276735Y629661D01*
X276738Y629690D01*
X276715Y629801D01*
X276699Y629913D01*
X276687Y629940D01*
X276682Y629969D01*
X276629Y630070D01*
X276583Y630173D01*
X276564Y630195D01*
X276551Y630221D01*
X276473Y630303D01*
X276400Y630390D01*
X276375Y630406D01*
X276355Y630427D01*
X276257Y630485D01*
X276163Y630547D01*
X276135Y630556D01*
X276110Y630571D01*
X276000Y630599D01*
X275892Y630633D01*
X275862Y630634D01*
X275834Y630641D01*
X275721Y630638D01*
X275608Y630641D01*
X275579Y630633D01*
X275550Y630632D01*
X275442Y630597D01*
X275333Y630569D01*
X275307Y630554D01*
X275279Y630545D01*
X275215Y630499D01*
X275088Y630423D01*
X275045Y630378D01*
X275006Y630350D01*
X274832Y630175D01*
X270256Y630175D01*
X270198Y630167D01*
X270140Y630169D01*
X270058Y630147D01*
X269974Y630135D01*
X269921Y630112D01*
X269865Y630097D01*
X269792Y630054D01*
X269715Y630019D01*
X269670Y629981D01*
X269620Y629952D01*
X269562Y629890D01*
X269498Y629836D01*
X269466Y629787D01*
X269426Y629744D01*
X269387Y629669D01*
X269340Y629599D01*
X269323Y629543D01*
X269296Y629491D01*
X269285Y629423D01*
X269255Y629328D01*
X269252Y629228D01*
X269241Y629160D01*
X269241Y618170D01*
X269249Y618112D01*
X269247Y618054D01*
X269269Y617972D01*
X269281Y617888D01*
X269304Y617835D01*
X269319Y617779D01*
X269362Y617706D01*
X269397Y617629D01*
X269435Y617584D01*
X269464Y617534D01*
X269526Y617476D01*
X269580Y617412D01*
X269629Y617380D01*
X269672Y617340D01*
X269747Y617301D01*
X269817Y617254D01*
X269873Y617237D01*
X269925Y617210D01*
X269993Y617199D01*
X270088Y617169D01*
X270188Y617166D01*
X270256Y617155D01*
X271453Y617155D01*
X273225Y615383D01*
X273225Y605877D01*
X271453Y604105D01*
X261947Y604105D01*
X260175Y605877D01*
X260175Y615383D01*
X261947Y617155D01*
X263144Y617155D01*
X263202Y617163D01*
X263260Y617161D01*
X263342Y617183D01*
X263426Y617195D01*
X263479Y617218D01*
X263535Y617233D01*
X263608Y617276D01*
X263685Y617311D01*
X263730Y617349D01*
X263780Y617378D01*
X263838Y617440D01*
X263902Y617494D01*
X263934Y617543D01*
X263974Y617586D01*
X264013Y617661D01*
X264060Y617731D01*
X264077Y617787D01*
X264104Y617839D01*
X264115Y617907D01*
X264145Y618002D01*
X264148Y618102D01*
X264159Y618170D01*
X264159Y629160D01*
X264151Y629218D01*
X264153Y629276D01*
X264131Y629358D01*
X264119Y629442D01*
X264096Y629495D01*
X264081Y629551D01*
X264038Y629624D01*
X264003Y629701D01*
X263965Y629746D01*
X263936Y629796D01*
X263874Y629854D01*
X263820Y629918D01*
X263771Y629950D01*
X263728Y629990D01*
X263653Y630029D01*
X263583Y630076D01*
X263527Y630093D01*
X263475Y630120D01*
X263407Y630131D01*
X263312Y630161D01*
X263212Y630164D01*
X263144Y630175D01*
X258568Y630175D01*
X257675Y631068D01*
X257675Y645332D01*
X258568Y646225D01*
X271493Y646225D01*
X271522Y646229D01*
X271552Y646226D01*
X271663Y646249D01*
X271775Y646265D01*
X271801Y646277D01*
X271830Y646282D01*
X271931Y646335D01*
X272034Y646381D01*
X272057Y646400D01*
X272083Y646413D01*
X272165Y646491D01*
X272251Y646564D01*
X272267Y646589D01*
X272289Y646609D01*
X272346Y646707D01*
X272409Y646801D01*
X272418Y646829D01*
X272432Y646854D01*
X272460Y646964D01*
X272495Y647072D01*
X272495Y647102D01*
X272502Y647130D01*
X272499Y647243D01*
X272502Y647356D01*
X272494Y647385D01*
X272493Y647414D01*
X272459Y647522D01*
X272430Y647631D01*
X272415Y647657D01*
X272406Y647685D01*
X272360Y647749D01*
X272285Y647876D01*
X272239Y647919D01*
X272211Y647958D01*
X271291Y648878D01*
X271221Y648930D01*
X271157Y648990D01*
X271108Y649016D01*
X271064Y649049D01*
X270982Y649080D01*
X270904Y649120D01*
X270857Y649128D01*
X270798Y649150D01*
X270651Y649162D01*
X270573Y649175D01*
X258568Y649175D01*
X257675Y650068D01*
X257675Y664332D01*
X258568Y665225D01*
X274832Y665225D01*
X275725Y664332D01*
X275725Y652051D01*
X275737Y651964D01*
X275740Y651877D01*
X275757Y651824D01*
X275765Y651770D01*
X275800Y651690D01*
X275827Y651607D01*
X275855Y651567D01*
X275881Y651510D01*
X275977Y651397D01*
X276022Y651333D01*
X281821Y645535D01*
X281821Y516328D01*
X276022Y510529D01*
X275970Y510459D01*
X275910Y510395D01*
X275884Y510346D01*
X275851Y510302D01*
X275820Y510220D01*
X275780Y510142D01*
X275772Y510095D01*
X275750Y510036D01*
X275738Y509888D01*
X275725Y509811D01*
X275725Y502989D01*
X275737Y502902D01*
X275740Y502815D01*
X275757Y502762D01*
X275765Y502707D01*
X275800Y502628D01*
X275827Y502544D01*
X275855Y502505D01*
X275881Y502448D01*
X275977Y502335D01*
X276022Y502271D01*
X281941Y496352D01*
X281941Y450582D01*
X224267Y392908D01*
X224249Y392884D01*
X224227Y392865D01*
X224164Y392771D01*
X224096Y392681D01*
X224086Y392653D01*
X224069Y392629D01*
X224035Y392521D01*
X223995Y392415D01*
X223992Y392386D01*
X223983Y392358D01*
X223981Y392244D01*
X223971Y392132D01*
X223977Y392103D01*
X223976Y392074D01*
X224005Y391964D01*
X224027Y391853D01*
X224041Y391827D01*
X224048Y391799D01*
X224106Y391701D01*
X224158Y391601D01*
X224178Y391579D01*
X224193Y391554D01*
X224276Y391477D01*
X224354Y391395D01*
X224379Y391380D01*
X224401Y391360D01*
X224501Y391308D01*
X224599Y391251D01*
X224628Y391244D01*
X224654Y391230D01*
X224731Y391217D01*
X224875Y391181D01*
X224937Y391183D01*
X224985Y391175D01*
X225640Y391175D01*
X226533Y390282D01*
X226533Y388206D01*
X226541Y388148D01*
X226539Y388090D01*
X226561Y388008D01*
X226573Y387924D01*
X226596Y387871D01*
X226611Y387815D01*
X226654Y387742D01*
X226689Y387665D01*
X226727Y387620D01*
X226756Y387570D01*
X226818Y387512D01*
X226872Y387448D01*
X226921Y387416D01*
X226964Y387376D01*
X227039Y387337D01*
X227109Y387290D01*
X227165Y387273D01*
X227217Y387246D01*
X227285Y387235D01*
X227380Y387205D01*
X227480Y387202D01*
X227548Y387191D01*
X227885Y387191D01*
X227972Y387203D01*
X228059Y387206D01*
X228112Y387223D01*
X228167Y387231D01*
X228246Y387266D01*
X228330Y387293D01*
X228369Y387321D01*
X228426Y387347D01*
X228539Y387443D01*
X228603Y387488D01*
X314662Y473547D01*
X314714Y473617D01*
X314774Y473681D01*
X314800Y473730D01*
X314833Y473774D01*
X314864Y473856D01*
X314904Y473934D01*
X314912Y473981D01*
X314934Y474040D01*
X314946Y474188D01*
X314959Y474265D01*
X314959Y477352D01*
X314955Y477381D01*
X314958Y477410D01*
X314935Y477521D01*
X314919Y477633D01*
X314907Y477660D01*
X314902Y477689D01*
X314849Y477790D01*
X314803Y477893D01*
X314784Y477915D01*
X314771Y477941D01*
X314693Y478023D01*
X314620Y478110D01*
X314595Y478126D01*
X314575Y478147D01*
X314477Y478205D01*
X314383Y478267D01*
X314355Y478276D01*
X314330Y478291D01*
X314220Y478319D01*
X314112Y478353D01*
X314082Y478354D01*
X314054Y478361D01*
X313941Y478358D01*
X313828Y478361D01*
X313799Y478353D01*
X313770Y478352D01*
X313662Y478317D01*
X313553Y478289D01*
X313527Y478274D01*
X313499Y478265D01*
X313435Y478219D01*
X313308Y478143D01*
X313265Y478098D01*
X313226Y478070D01*
X312932Y477775D01*
X296668Y477775D01*
X295775Y478668D01*
X295775Y488881D01*
X295763Y488968D01*
X295760Y489055D01*
X295743Y489108D01*
X295735Y489163D01*
X295700Y489242D01*
X295673Y489326D01*
X295645Y489365D01*
X295619Y489422D01*
X295523Y489535D01*
X295478Y489599D01*
X291345Y493732D01*
X289559Y495518D01*
X289559Y544952D01*
X297978Y553371D01*
X298030Y553441D01*
X298090Y553505D01*
X298116Y553554D01*
X298149Y553598D01*
X298180Y553680D01*
X298220Y553758D01*
X298228Y553805D01*
X298250Y553864D01*
X298262Y554012D01*
X298275Y554089D01*
X298275Y560773D01*
X300047Y562545D01*
X309553Y562545D01*
X311325Y560773D01*
X311325Y551267D01*
X309553Y549495D01*
X301709Y549495D01*
X301622Y549483D01*
X301535Y549480D01*
X301482Y549463D01*
X301427Y549455D01*
X301348Y549420D01*
X301264Y549393D01*
X301225Y549365D01*
X301168Y549339D01*
X301055Y549243D01*
X300991Y549198D01*
X294938Y543145D01*
X294886Y543075D01*
X294826Y543011D01*
X294800Y542962D01*
X294767Y542918D01*
X294736Y542836D01*
X294696Y542758D01*
X294688Y542711D01*
X294666Y542652D01*
X294654Y542504D01*
X294641Y542427D01*
X294641Y513248D01*
X294645Y513219D01*
X294642Y513190D01*
X294665Y513079D01*
X294681Y512967D01*
X294693Y512940D01*
X294698Y512911D01*
X294751Y512810D01*
X294797Y512707D01*
X294816Y512685D01*
X294829Y512659D01*
X294907Y512577D01*
X294980Y512490D01*
X295005Y512474D01*
X295025Y512453D01*
X295123Y512395D01*
X295217Y512333D01*
X295245Y512324D01*
X295270Y512309D01*
X295380Y512281D01*
X295488Y512247D01*
X295518Y512246D01*
X295546Y512239D01*
X295659Y512242D01*
X295772Y512239D01*
X295801Y512247D01*
X295830Y512248D01*
X295938Y512283D01*
X296047Y512311D01*
X296073Y512326D01*
X296101Y512335D01*
X296165Y512381D01*
X296292Y512457D01*
X296335Y512502D01*
X296374Y512530D01*
X296668Y512825D01*
X300859Y512825D01*
X300944Y512837D01*
X301030Y512839D01*
X301084Y512857D01*
X301141Y512865D01*
X301219Y512900D01*
X301301Y512926D01*
X301348Y512958D01*
X301400Y512981D01*
X301465Y513036D01*
X301537Y513084D01*
X301574Y513128D01*
X301617Y513164D01*
X301665Y513236D01*
X301720Y513302D01*
X301743Y513354D01*
X301775Y513401D01*
X301800Y513483D01*
X301835Y513562D01*
X301843Y513618D01*
X301860Y513672D01*
X301862Y513758D01*
X301874Y513843D01*
X301866Y513899D01*
X301868Y513956D01*
X301846Y514039D01*
X301834Y514125D01*
X301810Y514176D01*
X301796Y514231D01*
X301752Y514305D01*
X301716Y514384D01*
X301680Y514427D01*
X301651Y514476D01*
X301588Y514535D01*
X301532Y514600D01*
X301490Y514626D01*
X301443Y514670D01*
X301314Y514736D01*
X301248Y514778D01*
X300931Y514909D01*
X299009Y516831D01*
X297969Y519341D01*
X297969Y522059D01*
X299009Y524569D01*
X300931Y526491D01*
X301633Y526782D01*
X301634Y526782D01*
X301635Y526783D01*
X301752Y526852D01*
X301877Y526926D01*
X301879Y526927D01*
X301880Y526928D01*
X301975Y527030D01*
X302073Y527133D01*
X302073Y527134D01*
X302074Y527135D01*
X302138Y527260D01*
X302203Y527385D01*
X302203Y527387D01*
X302204Y527388D01*
X302206Y527403D01*
X302258Y527664D01*
X302255Y527695D01*
X302259Y527719D01*
X302259Y530940D01*
X302251Y530998D01*
X302253Y531056D01*
X302231Y531138D01*
X302219Y531222D01*
X302196Y531275D01*
X302181Y531331D01*
X302138Y531404D01*
X302103Y531481D01*
X302065Y531526D01*
X302036Y531576D01*
X301974Y531634D01*
X301920Y531698D01*
X301871Y531730D01*
X301828Y531770D01*
X301753Y531809D01*
X301683Y531856D01*
X301627Y531873D01*
X301575Y531900D01*
X301507Y531911D01*
X301412Y531941D01*
X301312Y531944D01*
X301244Y531955D01*
X300047Y531955D01*
X298275Y533727D01*
X298275Y543233D01*
X300047Y545005D01*
X309553Y545005D01*
X311325Y543233D01*
X311325Y533727D01*
X309553Y531955D01*
X308356Y531955D01*
X308298Y531947D01*
X308240Y531949D01*
X308158Y531927D01*
X308074Y531915D01*
X308021Y531892D01*
X307965Y531877D01*
X307892Y531834D01*
X307815Y531799D01*
X307770Y531761D01*
X307720Y531732D01*
X307662Y531670D01*
X307598Y531616D01*
X307566Y531567D01*
X307526Y531524D01*
X307487Y531449D01*
X307440Y531379D01*
X307423Y531323D01*
X307396Y531271D01*
X307385Y531203D01*
X307355Y531108D01*
X307352Y531008D01*
X307341Y530940D01*
X307341Y527719D01*
X307341Y527718D01*
X307341Y527716D01*
X307361Y527576D01*
X307381Y527438D01*
X307381Y527437D01*
X307381Y527435D01*
X307440Y527305D01*
X307497Y527179D01*
X307498Y527177D01*
X307499Y527176D01*
X307589Y527069D01*
X307680Y526962D01*
X307682Y526961D01*
X307683Y526959D01*
X307695Y526952D01*
X307917Y526804D01*
X307946Y526795D01*
X307967Y526782D01*
X308669Y526491D01*
X310591Y524569D01*
X311631Y522059D01*
X311631Y519341D01*
X310672Y517028D01*
X310651Y516945D01*
X310620Y516864D01*
X310616Y516808D01*
X310602Y516753D01*
X310604Y516667D01*
X310597Y516581D01*
X310608Y516525D01*
X310610Y516468D01*
X310636Y516387D01*
X310653Y516302D01*
X310679Y516252D01*
X310696Y516198D01*
X310744Y516126D01*
X310784Y516050D01*
X310823Y516009D01*
X310855Y515962D01*
X310920Y515906D01*
X310980Y515844D01*
X311029Y515815D01*
X311072Y515779D01*
X311151Y515744D01*
X311225Y515700D01*
X311280Y515686D01*
X311332Y515663D01*
X311417Y515651D01*
X311500Y515630D01*
X311557Y515632D01*
X311614Y515624D01*
X311699Y515636D01*
X311785Y515639D01*
X311839Y515657D01*
X311895Y515665D01*
X311973Y515700D01*
X312055Y515727D01*
X312095Y515755D01*
X312154Y515782D01*
X312264Y515876D01*
X312328Y515921D01*
X314542Y518135D01*
X314594Y518205D01*
X314654Y518269D01*
X314680Y518318D01*
X314713Y518362D01*
X314744Y518444D01*
X314784Y518522D01*
X314792Y518569D01*
X314814Y518628D01*
X314826Y518776D01*
X314839Y518853D01*
X314839Y629632D01*
X314835Y629661D01*
X314838Y629690D01*
X314815Y629801D01*
X314799Y629913D01*
X314787Y629940D01*
X314782Y629969D01*
X314729Y630070D01*
X314683Y630173D01*
X314664Y630195D01*
X314651Y630221D01*
X314573Y630303D01*
X314500Y630390D01*
X314475Y630406D01*
X314455Y630427D01*
X314357Y630485D01*
X314263Y630547D01*
X314235Y630556D01*
X314210Y630571D01*
X314100Y630599D01*
X313992Y630633D01*
X313962Y630634D01*
X313934Y630641D01*
X313821Y630638D01*
X313708Y630641D01*
X313679Y630633D01*
X313650Y630632D01*
X313542Y630597D01*
X313433Y630569D01*
X313407Y630554D01*
X313379Y630545D01*
X313315Y630499D01*
X313188Y630423D01*
X313145Y630378D01*
X313106Y630350D01*
X312932Y630175D01*
X308356Y630175D01*
X308298Y630167D01*
X308240Y630169D01*
X308158Y630147D01*
X308074Y630135D01*
X308021Y630112D01*
X307965Y630097D01*
X307892Y630054D01*
X307815Y630019D01*
X307770Y629981D01*
X307720Y629952D01*
X307662Y629890D01*
X307598Y629836D01*
X307566Y629787D01*
X307526Y629744D01*
X307487Y629669D01*
X307440Y629599D01*
X307423Y629543D01*
X307396Y629491D01*
X307385Y629423D01*
X307355Y629328D01*
X307352Y629228D01*
X307341Y629160D01*
X307341Y618170D01*
X307349Y618112D01*
X307347Y618054D01*
X307369Y617972D01*
X307381Y617888D01*
X307404Y617835D01*
X307419Y617779D01*
X307462Y617706D01*
X307497Y617629D01*
X307535Y617584D01*
X307564Y617534D01*
X307626Y617476D01*
X307680Y617412D01*
X307729Y617380D01*
X307772Y617340D01*
X307847Y617301D01*
X307917Y617254D01*
X307973Y617237D01*
X308025Y617210D01*
X308093Y617199D01*
X308188Y617169D01*
X308288Y617166D01*
X308356Y617155D01*
X309553Y617155D01*
X311325Y615383D01*
X311325Y605877D01*
X309553Y604105D01*
X300047Y604105D01*
X298275Y605877D01*
X298275Y615383D01*
X300047Y617155D01*
X301244Y617155D01*
X301302Y617163D01*
X301360Y617161D01*
X301442Y617183D01*
X301526Y617195D01*
X301579Y617218D01*
X301635Y617233D01*
X301708Y617276D01*
X301785Y617311D01*
X301830Y617349D01*
X301880Y617378D01*
X301938Y617440D01*
X302002Y617494D01*
X302034Y617543D01*
X302074Y617586D01*
X302113Y617661D01*
X302160Y617731D01*
X302177Y617787D01*
X302204Y617839D01*
X302215Y617907D01*
X302245Y618002D01*
X302248Y618102D01*
X302259Y618170D01*
X302259Y629160D01*
X302251Y629218D01*
X302253Y629276D01*
X302231Y629358D01*
X302219Y629442D01*
X302196Y629495D01*
X302181Y629551D01*
X302138Y629624D01*
X302103Y629701D01*
X302065Y629746D01*
X302036Y629796D01*
X301974Y629854D01*
X301920Y629918D01*
X301871Y629950D01*
X301828Y629990D01*
X301753Y630029D01*
X301683Y630076D01*
X301627Y630093D01*
X301575Y630120D01*
X301507Y630131D01*
X301412Y630161D01*
X301312Y630164D01*
X301244Y630175D01*
X296668Y630175D01*
X295775Y631068D01*
X295775Y645332D01*
X296668Y646225D01*
X310863Y646225D01*
X310892Y646229D01*
X310922Y646226D01*
X311033Y646249D01*
X311145Y646265D01*
X311171Y646277D01*
X311200Y646282D01*
X311301Y646334D01*
X311404Y646381D01*
X311427Y646400D01*
X311453Y646413D01*
X311535Y646491D01*
X311621Y646564D01*
X311637Y646589D01*
X311659Y646609D01*
X311716Y646707D01*
X311779Y646801D01*
X311788Y646829D01*
X311802Y646854D01*
X311830Y646964D01*
X311865Y647072D01*
X311865Y647102D01*
X311872Y647130D01*
X311869Y647243D01*
X311872Y647356D01*
X311864Y647385D01*
X311863Y647414D01*
X311829Y647522D01*
X311800Y647631D01*
X311785Y647657D01*
X311776Y647685D01*
X311730Y647748D01*
X311655Y647876D01*
X311609Y647919D01*
X311581Y647958D01*
X310661Y648878D01*
X310591Y648930D01*
X310527Y648990D01*
X310478Y649016D01*
X310434Y649049D01*
X310352Y649080D01*
X310274Y649120D01*
X310227Y649128D01*
X310168Y649150D01*
X310021Y649162D01*
X309943Y649175D01*
X296668Y649175D01*
X295775Y650068D01*
X295775Y664332D01*
X296668Y665225D01*
X312932Y665225D01*
X313825Y664332D01*
X313825Y653321D01*
X313837Y653234D01*
X313840Y653147D01*
X313857Y653094D01*
X313865Y653040D01*
X313900Y652960D01*
X313927Y652877D01*
X313955Y652837D01*
X313981Y652780D01*
X314077Y652667D01*
X314122Y652603D01*
X319921Y646805D01*
X319921Y516328D01*
X314122Y510529D01*
X314070Y510459D01*
X314010Y510395D01*
X313984Y510346D01*
X313951Y510302D01*
X313920Y510220D01*
X313880Y510142D01*
X313872Y510095D01*
X313850Y510036D01*
X313838Y509888D01*
X313825Y509811D01*
X313825Y499789D01*
X313837Y499702D01*
X313840Y499615D01*
X313857Y499562D01*
X313865Y499507D01*
X313900Y499428D01*
X313927Y499344D01*
X313955Y499305D01*
X313981Y499248D01*
X314077Y499135D01*
X314122Y499071D01*
X318255Y494938D01*
X320041Y493152D01*
X320041Y471740D01*
X318255Y469954D01*
X232196Y383895D01*
X230410Y382109D01*
X228570Y382109D01*
X228541Y382105D01*
X228511Y382108D01*
X228400Y382085D01*
X228288Y382069D01*
X228262Y382057D01*
X228233Y382052D01*
X228132Y382000D01*
X228029Y381953D01*
X228006Y381934D01*
X227980Y381921D01*
X227898Y381843D01*
X227812Y381770D01*
X227796Y381745D01*
X227774Y381725D01*
X227717Y381627D01*
X227654Y381533D01*
X227645Y381505D01*
X227631Y381480D01*
X227603Y381370D01*
X227568Y381262D01*
X227568Y381232D01*
X227561Y381204D01*
X227564Y381091D01*
X227561Y380978D01*
X227569Y380949D01*
X227570Y380920D01*
X227604Y380812D01*
X227633Y380703D01*
X227648Y380677D01*
X227657Y380649D01*
X227703Y380586D01*
X227778Y380458D01*
X227824Y380415D01*
X227852Y380376D01*
X230105Y378123D01*
X230106Y378123D01*
X230107Y378121D01*
X230227Y378032D01*
X230332Y377953D01*
X230333Y377952D01*
X230335Y377951D01*
X230468Y377901D01*
X230597Y377851D01*
X230599Y377851D01*
X230601Y377851D01*
X230738Y377840D01*
X230881Y377828D01*
X230882Y377828D01*
X230884Y377828D01*
X230899Y377831D01*
X231159Y377884D01*
X231187Y377898D01*
X231211Y377903D01*
X231277Y377931D01*
X233995Y377931D01*
X236505Y376891D01*
X238427Y374969D01*
X239467Y372459D01*
X239467Y369741D01*
X238427Y367231D01*
X236505Y365309D01*
X233995Y364269D01*
X231277Y364269D01*
X229215Y365124D01*
X229103Y365152D01*
X228994Y365187D01*
X228966Y365188D01*
X228939Y365195D01*
X228825Y365191D01*
X228710Y365194D01*
X228683Y365187D01*
X228655Y365187D01*
X228546Y365152D01*
X228435Y365123D01*
X228411Y365108D01*
X228384Y365100D01*
X228289Y365036D01*
X228190Y364977D01*
X228171Y364957D01*
X228148Y364942D01*
X228074Y364854D01*
X227996Y364770D01*
X227983Y364745D01*
X227965Y364724D01*
X227919Y364619D01*
X227866Y364517D01*
X227862Y364492D01*
X227850Y364464D01*
X227813Y364201D01*
X227811Y364186D01*
X227811Y363131D01*
X226746Y360561D01*
X226717Y360449D01*
X226683Y360340D01*
X226682Y360312D01*
X226675Y360285D01*
X226678Y360171D01*
X226675Y360056D01*
X226682Y360029D01*
X226683Y360001D01*
X226718Y359892D01*
X226747Y359781D01*
X226761Y359757D01*
X226770Y359730D01*
X226834Y359635D01*
X226892Y359536D01*
X226913Y359517D01*
X226928Y359494D01*
X227016Y359420D01*
X227100Y359342D01*
X227124Y359329D01*
X227146Y359311D01*
X227251Y359264D01*
X227353Y359212D01*
X227377Y359208D01*
X227405Y359196D01*
X227669Y359159D01*
X227684Y359157D01*
X233223Y359157D01*
X233310Y359169D01*
X233397Y359172D01*
X233450Y359189D01*
X233505Y359197D01*
X233584Y359232D01*
X233668Y359259D01*
X233707Y359287D01*
X233764Y359313D01*
X233877Y359409D01*
X233941Y359454D01*
X284182Y409695D01*
X284234Y409765D01*
X284294Y409829D01*
X284320Y409878D01*
X284353Y409922D01*
X284384Y410004D01*
X284424Y410082D01*
X284432Y410129D01*
X284454Y410188D01*
X284466Y410336D01*
X284479Y410413D01*
X284479Y418430D01*
X284479Y418432D01*
X284479Y418434D01*
X284459Y418573D01*
X284439Y418712D01*
X284439Y418713D01*
X284439Y418715D01*
X284380Y418845D01*
X284323Y418971D01*
X284322Y418973D01*
X284322Y418974D01*
X284228Y419084D01*
X284140Y419188D01*
X284138Y419189D01*
X284137Y419190D01*
X284124Y419199D01*
X283903Y419346D01*
X283874Y419355D01*
X283853Y419368D01*
X283151Y419659D01*
X281229Y421581D01*
X280189Y424091D01*
X280189Y426809D01*
X281229Y429319D01*
X283151Y431241D01*
X285661Y432281D01*
X288379Y432281D01*
X290889Y431241D01*
X292811Y429319D01*
X293851Y426809D01*
X293851Y424091D01*
X292811Y421581D01*
X290889Y419659D01*
X290187Y419368D01*
X290186Y419368D01*
X290185Y419367D01*
X290066Y419297D01*
X289943Y419224D01*
X289942Y419223D01*
X289940Y419222D01*
X289843Y419118D01*
X289747Y419017D01*
X289747Y419016D01*
X289746Y419015D01*
X289681Y418889D01*
X289617Y418765D01*
X289617Y418763D01*
X289616Y418762D01*
X289614Y418747D01*
X289562Y418486D01*
X289565Y418455D01*
X289561Y418430D01*
X289561Y407888D01*
X237737Y356064D01*
X237719Y356040D01*
X237697Y356021D01*
X237634Y355927D01*
X237566Y355837D01*
X237556Y355809D01*
X237539Y355785D01*
X237505Y355677D01*
X237465Y355571D01*
X237462Y355542D01*
X237454Y355514D01*
X237451Y355400D01*
X237441Y355288D01*
X237447Y355259D01*
X237446Y355230D01*
X237475Y355120D01*
X237497Y355009D01*
X237511Y354983D01*
X237518Y354955D01*
X237576Y354857D01*
X237628Y354757D01*
X237648Y354735D01*
X237663Y354710D01*
X237746Y354633D01*
X237824Y354551D01*
X237849Y354536D01*
X237871Y354516D01*
X237972Y354464D01*
X238069Y354407D01*
X238098Y354400D01*
X238124Y354386D01*
X238201Y354373D01*
X238345Y354337D01*
X238407Y354339D01*
X238455Y354331D01*
X247447Y354331D01*
X247534Y354343D01*
X247621Y354346D01*
X247674Y354363D01*
X247729Y354371D01*
X247808Y354406D01*
X247892Y354433D01*
X247931Y354461D01*
X247988Y354487D01*
X248101Y354583D01*
X248165Y354628D01*
X320258Y426721D01*
X340142Y426721D01*
X350521Y416342D01*
X350521Y297106D01*
X350521Y297104D01*
X350521Y297102D01*
X350541Y296962D01*
X350561Y296824D01*
X350561Y296823D01*
X350561Y296821D01*
X350618Y296695D01*
X350677Y296565D01*
X350678Y296563D01*
X350679Y296562D01*
X350770Y296455D01*
X350860Y296348D01*
X350862Y296347D01*
X350863Y296346D01*
X350876Y296337D01*
X351097Y296190D01*
X351126Y296181D01*
X351147Y296168D01*
X353119Y295351D01*
X355041Y293429D01*
X356081Y290919D01*
X356081Y288201D01*
X355041Y285691D01*
X353119Y283769D01*
X350609Y282729D01*
X347891Y282729D01*
X345381Y283769D01*
X343459Y285691D01*
X342419Y288201D01*
X342419Y290919D01*
X343459Y293429D01*
X345142Y295112D01*
X345194Y295182D01*
X345254Y295246D01*
X345280Y295295D01*
X345313Y295339D01*
X345344Y295421D01*
X345384Y295499D01*
X345392Y295546D01*
X345414Y295605D01*
X345426Y295753D01*
X345439Y295830D01*
X345439Y413817D01*
X345427Y413904D01*
X345424Y413991D01*
X345407Y414044D01*
X345399Y414099D01*
X345364Y414178D01*
X345337Y414262D01*
X345309Y414301D01*
X345283Y414358D01*
X345187Y414471D01*
X345142Y414535D01*
X338335Y421342D01*
X338265Y421394D01*
X338201Y421454D01*
X338152Y421480D01*
X338108Y421513D01*
X338026Y421544D01*
X337948Y421584D01*
X337901Y421592D01*
X337842Y421614D01*
X337694Y421626D01*
X337617Y421639D01*
X322783Y421639D01*
X322696Y421627D01*
X322609Y421624D01*
X322556Y421607D01*
X322501Y421599D01*
X322422Y421564D01*
X322338Y421537D01*
X322299Y421509D01*
X322242Y421483D01*
X322129Y421387D01*
X322065Y421342D01*
X251547Y350824D01*
X251529Y350800D01*
X251507Y350781D01*
X251444Y350687D01*
X251376Y350597D01*
X251366Y350569D01*
X251349Y350545D01*
X251315Y350437D01*
X251275Y350331D01*
X251272Y350302D01*
X251264Y350274D01*
X251261Y350160D01*
X251251Y350048D01*
X251257Y350019D01*
X251256Y349990D01*
X251285Y349880D01*
X251307Y349769D01*
X251321Y349743D01*
X251328Y349715D01*
X251386Y349617D01*
X251438Y349517D01*
X251458Y349495D01*
X251473Y349470D01*
X251556Y349393D01*
X251634Y349311D01*
X251659Y349296D01*
X251681Y349276D01*
X251782Y349224D01*
X251879Y349167D01*
X251908Y349160D01*
X251934Y349146D01*
X252011Y349133D01*
X252155Y349097D01*
X252217Y349099D01*
X252265Y349091D01*
X261743Y349091D01*
X261830Y349103D01*
X261917Y349106D01*
X261970Y349123D01*
X262024Y349131D01*
X262104Y349166D01*
X262187Y349193D01*
X262227Y349221D01*
X262284Y349247D01*
X262397Y349343D01*
X262461Y349388D01*
X318980Y405907D01*
X319032Y405977D01*
X319092Y406041D01*
X319118Y406090D01*
X319151Y406134D01*
X319182Y406216D01*
X319222Y406294D01*
X319230Y406342D01*
X319252Y406400D01*
X319264Y406548D01*
X319277Y406625D01*
X319277Y408573D01*
X320940Y412587D01*
X324013Y415660D01*
X328027Y417323D01*
X332373Y417323D01*
X336387Y415660D01*
X339460Y412587D01*
X341123Y408573D01*
X341123Y404227D01*
X339460Y400213D01*
X336387Y397140D01*
X332373Y395477D01*
X328027Y395477D01*
X324013Y397140D01*
X321424Y399729D01*
X321377Y399764D01*
X321337Y399807D01*
X321264Y399849D01*
X321197Y399900D01*
X321142Y399921D01*
X321092Y399950D01*
X321010Y399971D01*
X320931Y400001D01*
X320873Y400006D01*
X320816Y400020D01*
X320732Y400018D01*
X320648Y400025D01*
X320590Y400013D01*
X320532Y400011D01*
X320452Y399985D01*
X320369Y399969D01*
X320317Y399942D01*
X320261Y399924D01*
X320205Y399884D01*
X320117Y399838D01*
X320044Y399769D01*
X319988Y399729D01*
X266163Y345904D01*
X266145Y345880D01*
X266123Y345861D01*
X266060Y345767D01*
X265992Y345677D01*
X265982Y345649D01*
X265965Y345625D01*
X265931Y345517D01*
X265891Y345411D01*
X265888Y345382D01*
X265879Y345354D01*
X265877Y345240D01*
X265867Y345128D01*
X265873Y345099D01*
X265872Y345070D01*
X265901Y344960D01*
X265923Y344849D01*
X265937Y344823D01*
X265944Y344795D01*
X266002Y344697D01*
X266054Y344597D01*
X266074Y344575D01*
X266089Y344550D01*
X266172Y344473D01*
X266250Y344391D01*
X266275Y344376D01*
X266297Y344356D01*
X266397Y344304D01*
X266495Y344247D01*
X266524Y344240D01*
X266550Y344226D01*
X266627Y344213D01*
X266771Y344177D01*
X266833Y344179D01*
X266881Y344171D01*
X314757Y344171D01*
X314844Y344183D01*
X314931Y344186D01*
X314984Y344203D01*
X315039Y344211D01*
X315118Y344246D01*
X315202Y344273D01*
X315241Y344301D01*
X315298Y344327D01*
X315411Y344423D01*
X315475Y344468D01*
X320308Y349301D01*
X320309Y349302D01*
X320310Y349303D01*
X320395Y349417D01*
X320479Y349528D01*
X320479Y349530D01*
X320480Y349531D01*
X320530Y349663D01*
X320580Y349794D01*
X320580Y349796D01*
X320581Y349797D01*
X320592Y349938D01*
X320604Y350077D01*
X320603Y350079D01*
X320604Y350080D01*
X320600Y350096D01*
X320548Y350356D01*
X320534Y350383D01*
X320528Y350408D01*
X319277Y353427D01*
X319277Y357773D01*
X320940Y361787D01*
X324013Y364860D01*
X328027Y366523D01*
X332373Y366523D01*
X336387Y364860D01*
X339460Y361787D01*
X341123Y357773D01*
X341123Y353427D01*
X339460Y349413D01*
X336387Y346340D01*
X332373Y344677D01*
X328027Y344677D01*
X325008Y345928D01*
X325006Y345929D01*
X325005Y345929D01*
X324870Y345963D01*
X324732Y345999D01*
X324731Y345999D01*
X324729Y345999D01*
X324589Y345995D01*
X324448Y345991D01*
X324447Y345990D01*
X324445Y345990D01*
X324312Y345947D01*
X324177Y345904D01*
X324176Y345903D01*
X324175Y345903D01*
X324162Y345894D01*
X323941Y345746D01*
X323922Y345723D01*
X323901Y345708D01*
X317282Y339089D01*
X303392Y339089D01*
X303363Y339085D01*
X303333Y339088D01*
X303222Y339065D01*
X303110Y339049D01*
X303084Y339037D01*
X303055Y339032D01*
X302954Y338980D01*
X302851Y338933D01*
X302828Y338914D01*
X302802Y338901D01*
X302720Y338823D01*
X302634Y338750D01*
X302618Y338725D01*
X302596Y338705D01*
X302539Y338607D01*
X302476Y338513D01*
X302467Y338485D01*
X302453Y338460D01*
X302425Y338350D01*
X302390Y338242D01*
X302390Y338212D01*
X302382Y338184D01*
X302386Y338071D01*
X302383Y337958D01*
X302391Y337929D01*
X302392Y337900D01*
X302426Y337792D01*
X302455Y337683D01*
X302470Y337657D01*
X302479Y337629D01*
X302524Y337566D01*
X302600Y337438D01*
X302624Y337416D01*
X302626Y337413D01*
X302649Y337391D01*
X302674Y337356D01*
X324917Y315113D01*
X324918Y315112D01*
X324919Y315111D01*
X325038Y315022D01*
X325144Y314942D01*
X325146Y314941D01*
X325147Y314940D01*
X325281Y314890D01*
X325410Y314841D01*
X325412Y314841D01*
X325413Y314840D01*
X325558Y314828D01*
X325693Y314817D01*
X325695Y314817D01*
X325696Y314817D01*
X325712Y314821D01*
X325972Y314873D01*
X325999Y314887D01*
X326024Y314893D01*
X328027Y315723D01*
X332373Y315723D01*
X336387Y314060D01*
X339460Y310987D01*
X341123Y306973D01*
X341123Y302627D01*
X339460Y298613D01*
X336387Y295540D01*
X332373Y293877D01*
X328027Y293877D01*
X324013Y295540D01*
X320940Y298613D01*
X319277Y302627D01*
X319277Y306973D01*
X320107Y308976D01*
X320108Y308978D01*
X320108Y308979D01*
X320142Y309112D01*
X320178Y309252D01*
X320178Y309253D01*
X320179Y309255D01*
X320174Y309396D01*
X320170Y309536D01*
X320170Y309537D01*
X320170Y309539D01*
X320127Y309672D01*
X320083Y309807D01*
X320083Y309808D01*
X320082Y309809D01*
X320073Y309822D01*
X319925Y310043D01*
X319902Y310062D01*
X319887Y310083D01*
X297514Y332456D01*
X297444Y332508D01*
X297380Y332568D01*
X297331Y332594D01*
X297287Y332627D01*
X297205Y332658D01*
X297127Y332698D01*
X297080Y332706D01*
X297021Y332728D01*
X296874Y332740D01*
X296796Y332753D01*
X227548Y332753D01*
X227490Y332745D01*
X227432Y332747D01*
X227350Y332725D01*
X227266Y332713D01*
X227213Y332690D01*
X227157Y332675D01*
X227084Y332632D01*
X227007Y332597D01*
X226962Y332559D01*
X226912Y332530D01*
X226854Y332468D01*
X226790Y332414D01*
X226758Y332365D01*
X226718Y332322D01*
X226679Y332247D01*
X226632Y332177D01*
X226615Y332121D01*
X226588Y332069D01*
X226577Y332001D01*
X226547Y331906D01*
X226544Y331806D01*
X226533Y331738D01*
X226533Y320231D01*
X226545Y320144D01*
X226548Y320057D01*
X226565Y320004D01*
X226573Y319949D01*
X226608Y319870D01*
X226635Y319786D01*
X226663Y319747D01*
X226689Y319690D01*
X226785Y319577D01*
X226830Y319513D01*
X322060Y224283D01*
X322106Y224248D01*
X322147Y224206D01*
X322220Y224163D01*
X322287Y224112D01*
X322342Y224092D01*
X322392Y224062D01*
X322474Y224041D01*
X322553Y224011D01*
X322611Y224006D01*
X322668Y223992D01*
X322752Y223995D01*
X322836Y223988D01*
X322893Y223999D01*
X322952Y224001D01*
X323032Y224027D01*
X323115Y224044D01*
X323167Y224071D01*
X323222Y224089D01*
X323278Y224129D01*
X323367Y224175D01*
X323439Y224243D01*
X323496Y224283D01*
X325781Y226569D01*
X334619Y226569D01*
X340869Y220319D01*
X340869Y211481D01*
X334619Y205231D01*
X325781Y205231D01*
X319531Y211481D01*
X319531Y219205D01*
X319519Y219292D01*
X319516Y219379D01*
X319499Y219432D01*
X319491Y219487D01*
X319456Y219566D01*
X319429Y219650D01*
X319401Y219689D01*
X319375Y219746D01*
X319279Y219859D01*
X319234Y219923D01*
X221694Y317463D01*
X221670Y317481D01*
X221651Y317503D01*
X221599Y317538D01*
X221577Y317559D01*
X221545Y317575D01*
X221467Y317634D01*
X221439Y317644D01*
X221415Y317661D01*
X221307Y317695D01*
X221201Y317735D01*
X221172Y317738D01*
X221144Y317746D01*
X221030Y317749D01*
X220918Y317759D01*
X220889Y317753D01*
X220860Y317754D01*
X220750Y317725D01*
X220639Y317703D01*
X220613Y317689D01*
X220585Y317682D01*
X220487Y317624D01*
X220387Y317572D01*
X220365Y317552D01*
X220340Y317537D01*
X220263Y317454D01*
X220181Y317376D01*
X220166Y317351D01*
X220146Y317329D01*
X220094Y317228D01*
X220037Y317131D01*
X220030Y317102D01*
X220016Y317076D01*
X220003Y316999D01*
X219987Y316935D01*
X219975Y316896D01*
X219974Y316885D01*
X219967Y316855D01*
X219969Y316793D01*
X219961Y316745D01*
X219961Y305950D01*
X219969Y305892D01*
X219967Y305834D01*
X219989Y305752D01*
X220001Y305668D01*
X220024Y305615D01*
X220039Y305559D01*
X220082Y305486D01*
X220117Y305409D01*
X220155Y305364D01*
X220184Y305314D01*
X220246Y305256D01*
X220300Y305192D01*
X220349Y305160D01*
X220392Y305120D01*
X220467Y305081D01*
X220537Y305034D01*
X220593Y305017D01*
X220645Y304990D01*
X220713Y304979D01*
X220808Y304949D01*
X220908Y304946D01*
X220976Y304935D01*
X226182Y304935D01*
X227075Y304042D01*
X227075Y287778D01*
X226444Y287148D01*
X226392Y287078D01*
X226332Y287014D01*
X226306Y286965D01*
X226273Y286921D01*
X226242Y286839D01*
X226202Y286761D01*
X226194Y286713D01*
X226172Y286655D01*
X226160Y286507D01*
X226147Y286430D01*
X226147Y231590D01*
X226155Y231532D01*
X226153Y231474D01*
X226175Y231392D01*
X226187Y231308D01*
X226210Y231255D01*
X226225Y231199D01*
X226268Y231126D01*
X226303Y231049D01*
X226341Y231004D01*
X226370Y230954D01*
X226432Y230896D01*
X226486Y230832D01*
X226535Y230800D01*
X226578Y230760D01*
X226653Y230721D01*
X226723Y230674D01*
X226779Y230657D01*
X226831Y230630D01*
X226899Y230619D01*
X226994Y230589D01*
X227094Y230586D01*
X227162Y230575D01*
X242382Y230575D01*
X243275Y229682D01*
X243275Y205918D01*
X242382Y205025D01*
X223176Y205025D01*
X223089Y205013D01*
X223002Y205010D01*
X222949Y204993D01*
X222894Y204985D01*
X222814Y204950D01*
X222731Y204923D01*
X222692Y204895D01*
X222635Y204869D01*
X222522Y204773D01*
X222458Y204728D01*
X179273Y161543D01*
X142864Y161543D01*
X142777Y161531D01*
X142690Y161528D01*
X142637Y161511D01*
X142582Y161503D01*
X142502Y161468D01*
X142419Y161441D01*
X142380Y161413D01*
X142323Y161387D01*
X142210Y161291D01*
X142146Y161246D01*
X90924Y110024D01*
X90872Y109954D01*
X90812Y109890D01*
X90786Y109841D01*
X90753Y109797D01*
X90722Y109715D01*
X90682Y109637D01*
X90674Y109590D01*
X90652Y109531D01*
X90640Y109384D01*
X90627Y109306D01*
X90627Y77697D01*
X90622Y77692D01*
X90570Y77622D01*
X90510Y77558D01*
X90484Y77509D01*
X90451Y77465D01*
X90420Y77383D01*
X90380Y77305D01*
X90372Y77258D01*
X90350Y77199D01*
X90338Y77052D01*
X90325Y76974D01*
X90325Y71518D01*
X89432Y70625D01*
X82168Y70625D01*
G37*
%LPD*%
%LPC*%
G36*
X20981Y129031D02*
X20981Y129031D01*
X14731Y135281D01*
X14731Y144119D01*
X20981Y150369D01*
X21844Y150369D01*
X21902Y150377D01*
X21960Y150375D01*
X22042Y150397D01*
X22126Y150409D01*
X22179Y150432D01*
X22235Y150447D01*
X22308Y150490D01*
X22385Y150525D01*
X22430Y150563D01*
X22480Y150592D01*
X22538Y150654D01*
X22602Y150708D01*
X22634Y150757D01*
X22674Y150800D01*
X22713Y150875D01*
X22760Y150945D01*
X22777Y151001D01*
X22804Y151053D01*
X22815Y151121D01*
X22845Y151216D01*
X22848Y151316D01*
X22859Y151384D01*
X22859Y153416D01*
X22851Y153474D01*
X22853Y153532D01*
X22831Y153614D01*
X22819Y153698D01*
X22796Y153751D01*
X22781Y153807D01*
X22738Y153880D01*
X22703Y153957D01*
X22665Y154002D01*
X22636Y154052D01*
X22574Y154110D01*
X22520Y154174D01*
X22471Y154206D01*
X22428Y154246D01*
X22353Y154285D01*
X22283Y154332D01*
X22227Y154349D01*
X22175Y154376D01*
X22107Y154387D01*
X22012Y154417D01*
X21912Y154420D01*
X21844Y154431D01*
X20981Y154431D01*
X14731Y160681D01*
X14731Y169519D01*
X20981Y175769D01*
X21844Y175769D01*
X21902Y175777D01*
X21960Y175775D01*
X22042Y175797D01*
X22126Y175809D01*
X22179Y175832D01*
X22235Y175847D01*
X22308Y175890D01*
X22385Y175925D01*
X22430Y175963D01*
X22480Y175992D01*
X22538Y176054D01*
X22602Y176108D01*
X22634Y176157D01*
X22674Y176200D01*
X22713Y176275D01*
X22760Y176345D01*
X22777Y176401D01*
X22804Y176453D01*
X22815Y176521D01*
X22845Y176616D01*
X22848Y176716D01*
X22859Y176784D01*
X22859Y178816D01*
X22851Y178874D01*
X22853Y178932D01*
X22831Y179014D01*
X22819Y179098D01*
X22796Y179151D01*
X22781Y179207D01*
X22738Y179280D01*
X22703Y179357D01*
X22665Y179402D01*
X22636Y179452D01*
X22574Y179510D01*
X22520Y179574D01*
X22471Y179606D01*
X22428Y179646D01*
X22353Y179685D01*
X22283Y179732D01*
X22227Y179749D01*
X22175Y179776D01*
X22107Y179787D01*
X22012Y179817D01*
X21912Y179820D01*
X21844Y179831D01*
X20981Y179831D01*
X14731Y186081D01*
X14731Y194919D01*
X20981Y201169D01*
X21844Y201169D01*
X21902Y201177D01*
X21960Y201175D01*
X22042Y201197D01*
X22126Y201209D01*
X22179Y201232D01*
X22235Y201247D01*
X22308Y201290D01*
X22385Y201325D01*
X22430Y201363D01*
X22480Y201392D01*
X22538Y201454D01*
X22602Y201508D01*
X22634Y201557D01*
X22674Y201600D01*
X22713Y201675D01*
X22760Y201745D01*
X22777Y201801D01*
X22804Y201853D01*
X22815Y201921D01*
X22845Y202016D01*
X22848Y202116D01*
X22859Y202184D01*
X22859Y204216D01*
X22851Y204274D01*
X22853Y204332D01*
X22831Y204414D01*
X22819Y204498D01*
X22796Y204551D01*
X22781Y204607D01*
X22738Y204680D01*
X22703Y204757D01*
X22665Y204802D01*
X22636Y204852D01*
X22574Y204910D01*
X22520Y204974D01*
X22471Y205006D01*
X22428Y205046D01*
X22353Y205085D01*
X22283Y205132D01*
X22227Y205149D01*
X22175Y205176D01*
X22107Y205187D01*
X22012Y205217D01*
X21912Y205220D01*
X21844Y205231D01*
X20981Y205231D01*
X14731Y211481D01*
X14731Y220319D01*
X20981Y226569D01*
X29819Y226569D01*
X36069Y220319D01*
X36069Y211481D01*
X29819Y205231D01*
X28956Y205231D01*
X28898Y205223D01*
X28840Y205225D01*
X28758Y205203D01*
X28674Y205191D01*
X28621Y205168D01*
X28565Y205153D01*
X28492Y205110D01*
X28415Y205075D01*
X28370Y205037D01*
X28320Y205008D01*
X28262Y204946D01*
X28198Y204892D01*
X28166Y204843D01*
X28126Y204800D01*
X28087Y204725D01*
X28040Y204655D01*
X28023Y204599D01*
X27996Y204547D01*
X27985Y204479D01*
X27955Y204384D01*
X27952Y204284D01*
X27941Y204216D01*
X27941Y202184D01*
X27949Y202126D01*
X27947Y202068D01*
X27969Y201986D01*
X27981Y201902D01*
X28004Y201849D01*
X28019Y201793D01*
X28062Y201720D01*
X28097Y201643D01*
X28135Y201598D01*
X28164Y201548D01*
X28226Y201490D01*
X28280Y201426D01*
X28329Y201394D01*
X28372Y201354D01*
X28447Y201315D01*
X28517Y201268D01*
X28573Y201251D01*
X28625Y201224D01*
X28693Y201213D01*
X28788Y201183D01*
X28888Y201180D01*
X28956Y201169D01*
X29819Y201169D01*
X36069Y194919D01*
X36069Y186081D01*
X29819Y179831D01*
X28956Y179831D01*
X28898Y179823D01*
X28840Y179825D01*
X28758Y179803D01*
X28674Y179791D01*
X28621Y179768D01*
X28565Y179753D01*
X28492Y179710D01*
X28415Y179675D01*
X28370Y179637D01*
X28320Y179608D01*
X28262Y179546D01*
X28198Y179492D01*
X28166Y179443D01*
X28126Y179400D01*
X28087Y179325D01*
X28040Y179255D01*
X28023Y179199D01*
X27996Y179147D01*
X27985Y179079D01*
X27955Y178984D01*
X27952Y178884D01*
X27941Y178816D01*
X27941Y176784D01*
X27949Y176726D01*
X27947Y176668D01*
X27969Y176586D01*
X27981Y176502D01*
X28004Y176449D01*
X28019Y176393D01*
X28062Y176320D01*
X28097Y176243D01*
X28135Y176198D01*
X28164Y176148D01*
X28226Y176090D01*
X28280Y176026D01*
X28329Y175994D01*
X28372Y175954D01*
X28447Y175915D01*
X28517Y175868D01*
X28573Y175851D01*
X28625Y175824D01*
X28693Y175813D01*
X28788Y175783D01*
X28888Y175780D01*
X28956Y175769D01*
X29819Y175769D01*
X36069Y169519D01*
X36069Y160681D01*
X29819Y154431D01*
X28956Y154431D01*
X28898Y154423D01*
X28840Y154425D01*
X28758Y154403D01*
X28674Y154391D01*
X28621Y154368D01*
X28565Y154353D01*
X28492Y154310D01*
X28415Y154275D01*
X28370Y154237D01*
X28320Y154208D01*
X28262Y154146D01*
X28198Y154092D01*
X28166Y154043D01*
X28126Y154000D01*
X28087Y153925D01*
X28040Y153855D01*
X28023Y153799D01*
X27996Y153747D01*
X27985Y153679D01*
X27955Y153584D01*
X27952Y153484D01*
X27941Y153416D01*
X27941Y151384D01*
X27949Y151326D01*
X27947Y151268D01*
X27969Y151186D01*
X27981Y151102D01*
X28004Y151049D01*
X28019Y150993D01*
X28062Y150920D01*
X28097Y150843D01*
X28135Y150798D01*
X28164Y150748D01*
X28226Y150690D01*
X28280Y150626D01*
X28329Y150594D01*
X28372Y150554D01*
X28447Y150515D01*
X28517Y150468D01*
X28573Y150451D01*
X28625Y150424D01*
X28693Y150413D01*
X28788Y150383D01*
X28888Y150380D01*
X28956Y150369D01*
X29819Y150369D01*
X36069Y144119D01*
X36069Y135281D01*
X29819Y129031D01*
X20981Y129031D01*
G37*
%LPD*%
%LPC*%
G36*
X351181Y129031D02*
X351181Y129031D01*
X344931Y135281D01*
X344931Y144119D01*
X351181Y150369D01*
X352044Y150369D01*
X352102Y150377D01*
X352160Y150375D01*
X352242Y150397D01*
X352326Y150409D01*
X352379Y150432D01*
X352435Y150447D01*
X352508Y150490D01*
X352585Y150525D01*
X352630Y150563D01*
X352680Y150592D01*
X352738Y150654D01*
X352802Y150708D01*
X352834Y150757D01*
X352874Y150800D01*
X352913Y150875D01*
X352960Y150945D01*
X352977Y151001D01*
X353004Y151053D01*
X353015Y151121D01*
X353045Y151216D01*
X353048Y151316D01*
X353059Y151384D01*
X353059Y153416D01*
X353051Y153474D01*
X353053Y153532D01*
X353031Y153614D01*
X353019Y153698D01*
X352996Y153751D01*
X352981Y153807D01*
X352938Y153880D01*
X352903Y153957D01*
X352865Y154002D01*
X352836Y154052D01*
X352774Y154110D01*
X352720Y154174D01*
X352671Y154206D01*
X352628Y154246D01*
X352553Y154285D01*
X352483Y154332D01*
X352427Y154349D01*
X352375Y154376D01*
X352307Y154387D01*
X352212Y154417D01*
X352112Y154420D01*
X352044Y154431D01*
X351181Y154431D01*
X344931Y160681D01*
X344931Y169519D01*
X351181Y175769D01*
X352044Y175769D01*
X352102Y175777D01*
X352160Y175775D01*
X352242Y175797D01*
X352326Y175809D01*
X352379Y175832D01*
X352435Y175847D01*
X352508Y175890D01*
X352585Y175925D01*
X352630Y175963D01*
X352680Y175992D01*
X352738Y176054D01*
X352802Y176108D01*
X352834Y176157D01*
X352874Y176200D01*
X352913Y176275D01*
X352960Y176345D01*
X352977Y176401D01*
X353004Y176453D01*
X353015Y176521D01*
X353045Y176616D01*
X353048Y176716D01*
X353059Y176784D01*
X353059Y178816D01*
X353051Y178874D01*
X353053Y178932D01*
X353031Y179014D01*
X353019Y179098D01*
X352996Y179151D01*
X352981Y179207D01*
X352938Y179280D01*
X352903Y179357D01*
X352865Y179402D01*
X352836Y179452D01*
X352774Y179510D01*
X352720Y179574D01*
X352671Y179606D01*
X352628Y179646D01*
X352553Y179685D01*
X352483Y179732D01*
X352427Y179749D01*
X352375Y179776D01*
X352307Y179787D01*
X352212Y179817D01*
X352112Y179820D01*
X352044Y179831D01*
X351181Y179831D01*
X344931Y186081D01*
X344931Y194919D01*
X351181Y201169D01*
X352044Y201169D01*
X352102Y201177D01*
X352160Y201175D01*
X352242Y201197D01*
X352326Y201209D01*
X352379Y201232D01*
X352435Y201247D01*
X352508Y201290D01*
X352585Y201325D01*
X352630Y201363D01*
X352680Y201392D01*
X352738Y201454D01*
X352802Y201508D01*
X352834Y201557D01*
X352874Y201600D01*
X352913Y201675D01*
X352960Y201745D01*
X352977Y201801D01*
X353004Y201853D01*
X353015Y201921D01*
X353045Y202016D01*
X353048Y202116D01*
X353059Y202184D01*
X353059Y204216D01*
X353051Y204274D01*
X353053Y204332D01*
X353031Y204414D01*
X353019Y204498D01*
X352996Y204551D01*
X352981Y204607D01*
X352938Y204680D01*
X352903Y204757D01*
X352865Y204802D01*
X352836Y204852D01*
X352774Y204910D01*
X352720Y204974D01*
X352671Y205006D01*
X352628Y205046D01*
X352553Y205085D01*
X352483Y205132D01*
X352427Y205149D01*
X352375Y205176D01*
X352307Y205187D01*
X352212Y205217D01*
X352112Y205220D01*
X352044Y205231D01*
X351181Y205231D01*
X344931Y211481D01*
X344931Y220319D01*
X351181Y226569D01*
X360019Y226569D01*
X366269Y220319D01*
X366269Y211481D01*
X360019Y205231D01*
X359156Y205231D01*
X359098Y205223D01*
X359040Y205225D01*
X358958Y205203D01*
X358874Y205191D01*
X358821Y205168D01*
X358765Y205153D01*
X358692Y205110D01*
X358615Y205075D01*
X358570Y205037D01*
X358520Y205008D01*
X358462Y204946D01*
X358398Y204892D01*
X358366Y204843D01*
X358326Y204800D01*
X358287Y204725D01*
X358240Y204655D01*
X358223Y204599D01*
X358196Y204547D01*
X358185Y204479D01*
X358155Y204384D01*
X358152Y204284D01*
X358141Y204216D01*
X358141Y202184D01*
X358149Y202126D01*
X358147Y202068D01*
X358169Y201986D01*
X358181Y201902D01*
X358204Y201849D01*
X358219Y201793D01*
X358262Y201720D01*
X358297Y201643D01*
X358335Y201598D01*
X358364Y201548D01*
X358426Y201490D01*
X358480Y201426D01*
X358529Y201394D01*
X358572Y201354D01*
X358647Y201315D01*
X358717Y201268D01*
X358773Y201251D01*
X358825Y201224D01*
X358893Y201213D01*
X358988Y201183D01*
X359088Y201180D01*
X359156Y201169D01*
X360019Y201169D01*
X366269Y194919D01*
X366269Y186081D01*
X360019Y179831D01*
X359156Y179831D01*
X359098Y179823D01*
X359040Y179825D01*
X358958Y179803D01*
X358874Y179791D01*
X358821Y179768D01*
X358765Y179753D01*
X358692Y179710D01*
X358615Y179675D01*
X358570Y179637D01*
X358520Y179608D01*
X358462Y179546D01*
X358398Y179492D01*
X358366Y179443D01*
X358326Y179400D01*
X358287Y179325D01*
X358240Y179255D01*
X358223Y179199D01*
X358196Y179147D01*
X358185Y179079D01*
X358155Y178984D01*
X358152Y178884D01*
X358141Y178816D01*
X358141Y176784D01*
X358149Y176726D01*
X358147Y176668D01*
X358169Y176586D01*
X358181Y176502D01*
X358204Y176449D01*
X358219Y176393D01*
X358262Y176320D01*
X358297Y176243D01*
X358335Y176198D01*
X358364Y176148D01*
X358426Y176090D01*
X358480Y176026D01*
X358529Y175994D01*
X358572Y175954D01*
X358647Y175915D01*
X358717Y175868D01*
X358773Y175851D01*
X358825Y175824D01*
X358893Y175813D01*
X358988Y175783D01*
X359088Y175780D01*
X359156Y175769D01*
X360019Y175769D01*
X366269Y169519D01*
X366269Y160681D01*
X360019Y154431D01*
X359156Y154431D01*
X359098Y154423D01*
X359040Y154425D01*
X358958Y154403D01*
X358874Y154391D01*
X358821Y154368D01*
X358765Y154353D01*
X358692Y154310D01*
X358615Y154275D01*
X358570Y154237D01*
X358520Y154208D01*
X358462Y154146D01*
X358398Y154092D01*
X358366Y154043D01*
X358326Y154000D01*
X358287Y153925D01*
X358240Y153855D01*
X358223Y153799D01*
X358196Y153747D01*
X358185Y153679D01*
X358155Y153584D01*
X358152Y153484D01*
X358141Y153416D01*
X358141Y151384D01*
X358149Y151326D01*
X358147Y151268D01*
X358169Y151186D01*
X358181Y151102D01*
X358204Y151049D01*
X358219Y150993D01*
X358262Y150920D01*
X358297Y150843D01*
X358335Y150798D01*
X358364Y150748D01*
X358426Y150690D01*
X358480Y150626D01*
X358529Y150594D01*
X358572Y150554D01*
X358647Y150515D01*
X358717Y150468D01*
X358773Y150451D01*
X358825Y150424D01*
X358893Y150413D01*
X358988Y150383D01*
X359088Y150380D01*
X359156Y150369D01*
X360019Y150369D01*
X366269Y144119D01*
X366269Y135281D01*
X360019Y129031D01*
X351181Y129031D01*
G37*
%LPD*%
%LPC*%
G36*
X34468Y485325D02*
X34468Y485325D01*
X33575Y486218D01*
X33575Y499982D01*
X34468Y500875D01*
X37079Y500875D01*
X37165Y500887D01*
X37253Y500890D01*
X37305Y500907D01*
X37360Y500915D01*
X37440Y500950D01*
X37523Y500977D01*
X37562Y501005D01*
X37620Y501031D01*
X37733Y501127D01*
X37797Y501172D01*
X52534Y515909D01*
X52586Y515979D01*
X52646Y516043D01*
X52672Y516093D01*
X52705Y516137D01*
X52736Y516218D01*
X52776Y516296D01*
X52784Y516344D01*
X52806Y516402D01*
X52818Y516550D01*
X52831Y516627D01*
X52831Y567683D01*
X59697Y574549D01*
X69391Y574549D01*
X69392Y574549D01*
X69394Y574549D01*
X69535Y574569D01*
X69672Y574589D01*
X69674Y574589D01*
X69675Y574589D01*
X69803Y574647D01*
X69932Y574705D01*
X69933Y574706D01*
X69934Y574707D01*
X70042Y574798D01*
X70149Y574888D01*
X70150Y574890D01*
X70151Y574891D01*
X70159Y574904D01*
X70306Y575125D01*
X70316Y575154D01*
X70329Y575175D01*
X70409Y575369D01*
X72331Y577291D01*
X73033Y577582D01*
X73034Y577582D01*
X73035Y577583D01*
X73152Y577652D01*
X73277Y577726D01*
X73279Y577727D01*
X73280Y577728D01*
X73375Y577830D01*
X73473Y577933D01*
X73473Y577934D01*
X73474Y577935D01*
X73539Y578061D01*
X73603Y578185D01*
X73603Y578187D01*
X73604Y578188D01*
X73606Y578203D01*
X73658Y578464D01*
X73655Y578495D01*
X73659Y578519D01*
X73659Y585550D01*
X73651Y585608D01*
X73653Y585666D01*
X73631Y585748D01*
X73619Y585832D01*
X73596Y585885D01*
X73581Y585941D01*
X73538Y586014D01*
X73503Y586091D01*
X73465Y586136D01*
X73436Y586186D01*
X73374Y586244D01*
X73320Y586308D01*
X73271Y586340D01*
X73228Y586380D01*
X73153Y586419D01*
X73083Y586466D01*
X73027Y586483D01*
X72975Y586510D01*
X72907Y586521D01*
X72812Y586551D01*
X72712Y586554D01*
X72644Y586565D01*
X71447Y586565D01*
X69675Y588337D01*
X69675Y597843D01*
X71447Y599615D01*
X80953Y599615D01*
X82725Y597843D01*
X82725Y588337D01*
X80953Y586565D01*
X79756Y586565D01*
X79698Y586557D01*
X79640Y586559D01*
X79558Y586537D01*
X79474Y586525D01*
X79421Y586502D01*
X79365Y586487D01*
X79292Y586444D01*
X79215Y586409D01*
X79170Y586371D01*
X79120Y586342D01*
X79062Y586280D01*
X78998Y586226D01*
X78966Y586177D01*
X78926Y586134D01*
X78887Y586059D01*
X78840Y585989D01*
X78823Y585933D01*
X78796Y585881D01*
X78785Y585813D01*
X78755Y585718D01*
X78752Y585618D01*
X78741Y585550D01*
X78741Y578519D01*
X78741Y578518D01*
X78741Y578516D01*
X78761Y578376D01*
X78781Y578238D01*
X78781Y578237D01*
X78781Y578235D01*
X78840Y578105D01*
X78897Y577979D01*
X78898Y577977D01*
X78899Y577976D01*
X78989Y577869D01*
X79080Y577762D01*
X79082Y577761D01*
X79083Y577759D01*
X79095Y577752D01*
X79317Y577604D01*
X79346Y577595D01*
X79367Y577582D01*
X80069Y577291D01*
X81991Y575369D01*
X83031Y572859D01*
X83031Y570141D01*
X81991Y567631D01*
X80069Y565709D01*
X77559Y564669D01*
X74841Y564669D01*
X72331Y565709D01*
X70409Y567631D01*
X70329Y567825D01*
X70328Y567826D01*
X70328Y567827D01*
X70258Y567944D01*
X70184Y568069D01*
X70183Y568071D01*
X70182Y568072D01*
X70081Y568167D01*
X69978Y568265D01*
X69976Y568265D01*
X69975Y568266D01*
X69849Y568331D01*
X69725Y568395D01*
X69723Y568395D01*
X69722Y568396D01*
X69707Y568398D01*
X69446Y568450D01*
X69416Y568447D01*
X69391Y568451D01*
X62643Y568451D01*
X62557Y568439D01*
X62469Y568436D01*
X62417Y568419D01*
X62362Y568411D01*
X62282Y568376D01*
X62199Y568349D01*
X62160Y568321D01*
X62102Y568295D01*
X61989Y568199D01*
X61925Y568154D01*
X59226Y565455D01*
X59174Y565385D01*
X59114Y565321D01*
X59088Y565271D01*
X59055Y565227D01*
X59024Y565146D01*
X58984Y565068D01*
X58976Y565020D01*
X58954Y564962D01*
X58942Y564814D01*
X58929Y564737D01*
X58929Y513681D01*
X42922Y497675D01*
X42870Y497605D01*
X42810Y497541D01*
X42784Y497491D01*
X42751Y497447D01*
X42720Y497366D01*
X42680Y497288D01*
X42672Y497240D01*
X42650Y497182D01*
X42638Y497034D01*
X42625Y496957D01*
X42625Y486218D01*
X41732Y485325D01*
X34468Y485325D01*
G37*
%LPD*%
%LPC*%
G36*
X138618Y205025D02*
X138618Y205025D01*
X137725Y205918D01*
X137725Y213228D01*
X137718Y213277D01*
X137719Y213289D01*
X137717Y213294D01*
X137719Y213344D01*
X137697Y213426D01*
X137685Y213510D01*
X137662Y213563D01*
X137647Y213619D01*
X137604Y213692D01*
X137569Y213769D01*
X137531Y213814D01*
X137502Y213864D01*
X137440Y213922D01*
X137386Y213986D01*
X137337Y214018D01*
X137294Y214058D01*
X137219Y214097D01*
X137149Y214144D01*
X137093Y214161D01*
X137041Y214188D01*
X136973Y214199D01*
X136878Y214229D01*
X136778Y214232D01*
X136710Y214243D01*
X123627Y214243D01*
X115142Y222728D01*
X115072Y222780D01*
X115008Y222840D01*
X114959Y222866D01*
X114915Y222899D01*
X114833Y222930D01*
X114755Y222970D01*
X114708Y222978D01*
X114649Y223000D01*
X114502Y223012D01*
X114424Y223025D01*
X110668Y223025D01*
X109775Y223918D01*
X109775Y237682D01*
X110668Y238575D01*
X117932Y238575D01*
X118825Y237682D01*
X118825Y229526D01*
X118837Y229439D01*
X118840Y229352D01*
X118857Y229299D01*
X118865Y229244D01*
X118900Y229164D01*
X118927Y229081D01*
X118955Y229042D01*
X118981Y228985D01*
X119077Y228872D01*
X119122Y228808D01*
X126276Y221654D01*
X126346Y221602D01*
X126410Y221542D01*
X126459Y221516D01*
X126503Y221483D01*
X126585Y221452D01*
X126663Y221412D01*
X126710Y221404D01*
X126769Y221382D01*
X126916Y221370D01*
X126994Y221357D01*
X136710Y221357D01*
X136768Y221365D01*
X136826Y221363D01*
X136908Y221385D01*
X136992Y221397D01*
X137045Y221420D01*
X137101Y221435D01*
X137174Y221478D01*
X137251Y221513D01*
X137296Y221551D01*
X137346Y221580D01*
X137404Y221642D01*
X137468Y221696D01*
X137500Y221745D01*
X137540Y221788D01*
X137579Y221863D01*
X137626Y221933D01*
X137643Y221989D01*
X137670Y222041D01*
X137681Y222109D01*
X137711Y222204D01*
X137714Y222304D01*
X137725Y222372D01*
X137725Y229682D01*
X138618Y230575D01*
X162382Y230575D01*
X163275Y229682D01*
X163275Y205918D01*
X162382Y205025D01*
X138618Y205025D01*
G37*
%LPD*%
%LPC*%
G36*
X346618Y642999D02*
X346618Y642999D01*
X340370Y645588D01*
X335588Y650370D01*
X332999Y656618D01*
X332999Y663382D01*
X335588Y669630D01*
X340370Y674412D01*
X346618Y677001D01*
X353382Y677001D01*
X359630Y674412D01*
X364412Y669630D01*
X367001Y663382D01*
X367001Y656618D01*
X364412Y650370D01*
X359630Y645588D01*
X353382Y642999D01*
X346618Y642999D01*
G37*
%LPD*%
%LPC*%
G36*
X26618Y642999D02*
X26618Y642999D01*
X20370Y645588D01*
X15588Y650370D01*
X12999Y656618D01*
X12999Y663382D01*
X15588Y669630D01*
X20370Y674412D01*
X26618Y677001D01*
X33382Y677001D01*
X39630Y674412D01*
X44412Y669630D01*
X47001Y663382D01*
X47001Y656618D01*
X44412Y650370D01*
X39630Y645588D01*
X33382Y642999D01*
X26618Y642999D01*
G37*
%LPD*%
%LPC*%
G36*
X26618Y12999D02*
X26618Y12999D01*
X20370Y15588D01*
X15588Y20370D01*
X12999Y26618D01*
X12999Y33382D01*
X15588Y39630D01*
X20370Y44412D01*
X26618Y47001D01*
X33382Y47001D01*
X39630Y44412D01*
X44412Y39630D01*
X47001Y33382D01*
X47001Y26618D01*
X44412Y20370D01*
X39630Y15588D01*
X33382Y12999D01*
X26618Y12999D01*
G37*
%LPD*%
%LPC*%
G36*
X346618Y12999D02*
X346618Y12999D01*
X340370Y15588D01*
X335588Y20370D01*
X332999Y26618D01*
X332999Y33382D01*
X335588Y39630D01*
X340370Y44412D01*
X346618Y47001D01*
X353382Y47001D01*
X359630Y44412D01*
X364412Y39630D01*
X367001Y33382D01*
X367001Y26618D01*
X364412Y20370D01*
X359630Y15588D01*
X353382Y12999D01*
X346618Y12999D01*
G37*
%LPD*%
%LPC*%
G36*
X138618Y125025D02*
X138618Y125025D01*
X137725Y125918D01*
X137725Y149682D01*
X138618Y150575D01*
X162382Y150575D01*
X163275Y149682D01*
X163275Y125918D01*
X162382Y125025D01*
X138618Y125025D01*
G37*
%LPD*%
%LPC*%
G36*
X218618Y125025D02*
X218618Y125025D01*
X217725Y125918D01*
X217725Y149682D01*
X218618Y150575D01*
X242382Y150575D01*
X243275Y149682D01*
X243275Y125918D01*
X242382Y125025D01*
X218618Y125025D01*
G37*
%LPD*%
%LPC*%
G36*
X34168Y435475D02*
X34168Y435475D01*
X33275Y436368D01*
X33275Y452632D01*
X34168Y453525D01*
X37744Y453525D01*
X37802Y453533D01*
X37860Y453531D01*
X37942Y453553D01*
X38026Y453565D01*
X38079Y453588D01*
X38135Y453603D01*
X38208Y453646D01*
X38285Y453681D01*
X38330Y453719D01*
X38380Y453748D01*
X38438Y453810D01*
X38502Y453864D01*
X38534Y453913D01*
X38574Y453956D01*
X38613Y454031D01*
X38660Y454101D01*
X38677Y454157D01*
X38704Y454209D01*
X38715Y454277D01*
X38745Y454372D01*
X38748Y454472D01*
X38759Y454540D01*
X38759Y454829D01*
X38752Y454883D01*
X38753Y454919D01*
X38746Y454943D01*
X38744Y455003D01*
X38727Y455056D01*
X38719Y455111D01*
X38684Y455190D01*
X38657Y455274D01*
X38629Y455313D01*
X38603Y455370D01*
X38507Y455483D01*
X38462Y455547D01*
X29981Y464028D01*
X29911Y464080D01*
X29847Y464140D01*
X29798Y464166D01*
X29754Y464199D01*
X29672Y464230D01*
X29594Y464270D01*
X29547Y464278D01*
X29488Y464300D01*
X29340Y464312D01*
X29263Y464325D01*
X24918Y464325D01*
X24025Y465218D01*
X24025Y478982D01*
X24918Y479875D01*
X32182Y479875D01*
X33075Y478982D01*
X33075Y468541D01*
X33087Y468454D01*
X33090Y468367D01*
X33107Y468314D01*
X33115Y468259D01*
X33150Y468180D01*
X33177Y468096D01*
X33205Y468057D01*
X33231Y468000D01*
X33327Y467887D01*
X33372Y467823D01*
X43841Y457354D01*
X43841Y454540D01*
X43849Y454482D01*
X43847Y454424D01*
X43869Y454342D01*
X43881Y454258D01*
X43904Y454205D01*
X43919Y454149D01*
X43962Y454076D01*
X43997Y453999D01*
X44035Y453954D01*
X44064Y453904D01*
X44126Y453846D01*
X44180Y453782D01*
X44229Y453750D01*
X44272Y453710D01*
X44347Y453671D01*
X44417Y453624D01*
X44473Y453607D01*
X44525Y453580D01*
X44593Y453569D01*
X44688Y453539D01*
X44788Y453536D01*
X44856Y453525D01*
X48432Y453525D01*
X49325Y452632D01*
X49325Y436368D01*
X48432Y435475D01*
X34168Y435475D01*
G37*
%LPD*%
%LPC*%
G36*
X335870Y435475D02*
X335870Y435475D01*
X334977Y436368D01*
X334977Y452632D01*
X335870Y453525D01*
X339700Y453525D01*
X339758Y453533D01*
X339816Y453531D01*
X339898Y453553D01*
X339982Y453565D01*
X340035Y453588D01*
X340091Y453603D01*
X340164Y453646D01*
X340241Y453681D01*
X340286Y453719D01*
X340336Y453748D01*
X340394Y453810D01*
X340458Y453864D01*
X340490Y453913D01*
X340530Y453956D01*
X340569Y454031D01*
X340616Y454101D01*
X340633Y454157D01*
X340660Y454209D01*
X340671Y454277D01*
X340701Y454372D01*
X340704Y454472D01*
X340715Y454540D01*
X340715Y457165D01*
X340703Y457252D01*
X340700Y457339D01*
X340683Y457392D01*
X340675Y457447D01*
X340640Y457526D01*
X340613Y457610D01*
X340585Y457649D01*
X340559Y457706D01*
X340463Y457819D01*
X340418Y457883D01*
X334273Y464028D01*
X334203Y464080D01*
X334139Y464140D01*
X334090Y464166D01*
X334046Y464199D01*
X333964Y464230D01*
X333886Y464270D01*
X333839Y464278D01*
X333780Y464300D01*
X333632Y464312D01*
X333555Y464325D01*
X329718Y464325D01*
X328825Y465218D01*
X328825Y478982D01*
X329718Y479875D01*
X336982Y479875D01*
X337875Y478982D01*
X337875Y468033D01*
X337887Y467946D01*
X337890Y467859D01*
X337907Y467806D01*
X337915Y467751D01*
X337950Y467672D01*
X337977Y467588D01*
X338005Y467549D01*
X338031Y467492D01*
X338113Y467395D01*
X338131Y467365D01*
X338148Y467348D01*
X338172Y467315D01*
X345797Y459690D01*
X345797Y454540D01*
X345805Y454482D01*
X345803Y454424D01*
X345825Y454342D01*
X345837Y454258D01*
X345860Y454205D01*
X345875Y454149D01*
X345918Y454076D01*
X345953Y453999D01*
X345991Y453954D01*
X346020Y453904D01*
X346082Y453846D01*
X346136Y453782D01*
X346185Y453750D01*
X346228Y453710D01*
X346303Y453671D01*
X346373Y453624D01*
X346429Y453607D01*
X346481Y453580D01*
X346549Y453569D01*
X346644Y453539D01*
X346744Y453536D01*
X346812Y453525D01*
X350134Y453525D01*
X351027Y452632D01*
X351027Y436368D01*
X350134Y435475D01*
X335870Y435475D01*
G37*
%LPD*%
%LPC*%
G36*
X50429Y287148D02*
X50429Y287148D01*
X46928Y288599D01*
X44249Y291278D01*
X42798Y294779D01*
X42798Y298569D01*
X44249Y302070D01*
X46928Y304749D01*
X50429Y306200D01*
X54219Y306200D01*
X57720Y304749D01*
X60400Y302070D01*
X60850Y300983D01*
X60850Y300982D01*
X60851Y300981D01*
X60922Y300860D01*
X60994Y300739D01*
X60995Y300738D01*
X60996Y300736D01*
X61100Y300639D01*
X61201Y300543D01*
X61202Y300543D01*
X61203Y300542D01*
X61329Y300477D01*
X61453Y300413D01*
X61455Y300413D01*
X61456Y300412D01*
X61471Y300410D01*
X61732Y300358D01*
X61763Y300361D01*
X61787Y300357D01*
X68376Y300357D01*
X68463Y300369D01*
X68550Y300372D01*
X68603Y300389D01*
X68658Y300397D01*
X68737Y300432D01*
X68821Y300459D01*
X68860Y300487D01*
X68917Y300513D01*
X69030Y300609D01*
X69094Y300654D01*
X71031Y302591D01*
X73541Y303631D01*
X76259Y303631D01*
X78769Y302591D01*
X80691Y300669D01*
X81731Y298159D01*
X81731Y295441D01*
X80691Y292931D01*
X78769Y291009D01*
X76259Y289969D01*
X73541Y289969D01*
X71031Y291009D01*
X69094Y292946D01*
X69024Y292998D01*
X68960Y293058D01*
X68911Y293084D01*
X68867Y293117D01*
X68785Y293148D01*
X68707Y293188D01*
X68660Y293196D01*
X68601Y293218D01*
X68453Y293230D01*
X68376Y293243D01*
X61892Y293243D01*
X61890Y293243D01*
X61889Y293243D01*
X61749Y293223D01*
X61610Y293203D01*
X61609Y293203D01*
X61607Y293203D01*
X61481Y293146D01*
X61351Y293087D01*
X61350Y293086D01*
X61348Y293085D01*
X61241Y292994D01*
X61134Y292904D01*
X61133Y292902D01*
X61132Y292901D01*
X61124Y292888D01*
X60976Y292667D01*
X60967Y292638D01*
X60954Y292617D01*
X60400Y291278D01*
X57720Y288599D01*
X54219Y287148D01*
X50429Y287148D01*
G37*
%LPD*%
%LPC*%
G36*
X137156Y243079D02*
X137156Y243079D01*
X136263Y243972D01*
X136263Y247548D01*
X136255Y247606D01*
X136257Y247664D01*
X136235Y247746D01*
X136223Y247830D01*
X136200Y247883D01*
X136185Y247939D01*
X136142Y248012D01*
X136107Y248089D01*
X136069Y248134D01*
X136040Y248184D01*
X135978Y248242D01*
X135924Y248306D01*
X135875Y248338D01*
X135832Y248378D01*
X135757Y248417D01*
X135687Y248464D01*
X135631Y248481D01*
X135579Y248508D01*
X135511Y248519D01*
X135416Y248549D01*
X135316Y248552D01*
X135248Y248563D01*
X129390Y248563D01*
X129332Y248555D01*
X129274Y248557D01*
X129192Y248535D01*
X129108Y248523D01*
X129055Y248500D01*
X128999Y248485D01*
X128926Y248442D01*
X128849Y248407D01*
X128804Y248369D01*
X128754Y248340D01*
X128696Y248278D01*
X128632Y248224D01*
X128600Y248175D01*
X128560Y248132D01*
X128521Y248057D01*
X128474Y247987D01*
X128457Y247931D01*
X128430Y247879D01*
X128419Y247811D01*
X128389Y247716D01*
X128386Y247616D01*
X128375Y247548D01*
X128375Y244918D01*
X127482Y244025D01*
X120218Y244025D01*
X119325Y244918D01*
X119325Y258682D01*
X120218Y259575D01*
X127482Y259575D01*
X128375Y258682D01*
X128375Y254660D01*
X128383Y254602D01*
X128381Y254544D01*
X128403Y254462D01*
X128415Y254378D01*
X128438Y254325D01*
X128453Y254269D01*
X128496Y254196D01*
X128531Y254119D01*
X128569Y254074D01*
X128598Y254024D01*
X128660Y253966D01*
X128714Y253902D01*
X128763Y253870D01*
X128806Y253830D01*
X128881Y253791D01*
X128951Y253744D01*
X129007Y253727D01*
X129059Y253700D01*
X129127Y253689D01*
X129222Y253659D01*
X129322Y253656D01*
X129390Y253645D01*
X135248Y253645D01*
X135306Y253653D01*
X135364Y253651D01*
X135446Y253673D01*
X135530Y253685D01*
X135583Y253708D01*
X135639Y253723D01*
X135712Y253766D01*
X135789Y253801D01*
X135834Y253839D01*
X135884Y253868D01*
X135942Y253930D01*
X136006Y253984D01*
X136038Y254033D01*
X136078Y254076D01*
X136117Y254151D01*
X136164Y254221D01*
X136181Y254277D01*
X136208Y254329D01*
X136219Y254397D01*
X136249Y254492D01*
X136252Y254592D01*
X136263Y254660D01*
X136263Y258236D01*
X137156Y259129D01*
X153420Y259129D01*
X154313Y258236D01*
X154313Y243972D01*
X153420Y243079D01*
X137156Y243079D01*
G37*
%LPD*%
%LPC*%
G36*
X292613Y96399D02*
X292613Y96399D01*
X288202Y98226D01*
X284826Y101602D01*
X282999Y106013D01*
X282999Y110787D01*
X284826Y115198D01*
X288202Y118574D01*
X292613Y120401D01*
X297387Y120401D01*
X301798Y118574D01*
X305174Y115198D01*
X307001Y110787D01*
X307001Y106013D01*
X305174Y101602D01*
X301798Y98226D01*
X297387Y96399D01*
X292613Y96399D01*
G37*
%LPD*%
%LPC*%
G36*
X307759Y424969D02*
X307759Y424969D01*
X305249Y426009D01*
X303327Y427931D01*
X302287Y430441D01*
X302287Y433159D01*
X303327Y435669D01*
X305249Y437591D01*
X307759Y438631D01*
X310477Y438631D01*
X312723Y437700D01*
X312724Y437700D01*
X312726Y437699D01*
X312859Y437665D01*
X312998Y437629D01*
X313000Y437629D01*
X313001Y437629D01*
X313142Y437634D01*
X313282Y437638D01*
X313284Y437638D01*
X313285Y437638D01*
X313420Y437681D01*
X313553Y437724D01*
X313554Y437725D01*
X313556Y437726D01*
X313568Y437734D01*
X313789Y437882D01*
X313809Y437906D01*
X313829Y437920D01*
X315680Y439771D01*
X315732Y439841D01*
X315792Y439905D01*
X315818Y439954D01*
X315851Y439998D01*
X315882Y440080D01*
X315922Y440158D01*
X315930Y440205D01*
X315952Y440264D01*
X315964Y440412D01*
X315977Y440489D01*
X315977Y452632D01*
X316870Y453525D01*
X331134Y453525D01*
X332027Y452632D01*
X332027Y436368D01*
X331134Y435475D01*
X318991Y435475D01*
X318904Y435463D01*
X318817Y435460D01*
X318764Y435443D01*
X318709Y435435D01*
X318630Y435400D01*
X318546Y435373D01*
X318507Y435345D01*
X318450Y435319D01*
X318337Y435223D01*
X318273Y435178D01*
X316246Y433151D01*
X316194Y433081D01*
X316134Y433017D01*
X316108Y432968D01*
X316075Y432924D01*
X316044Y432842D01*
X316004Y432764D01*
X315996Y432717D01*
X315974Y432658D01*
X315962Y432510D01*
X315949Y432433D01*
X315949Y430441D01*
X314909Y427931D01*
X312987Y426009D01*
X310477Y424969D01*
X307759Y424969D01*
G37*
%LPD*%
%LPC*%
G36*
X339268Y485325D02*
X339268Y485325D01*
X338375Y486218D01*
X338375Y499982D01*
X339554Y501160D01*
X339606Y501230D01*
X339666Y501294D01*
X339692Y501343D01*
X339725Y501387D01*
X339756Y501469D01*
X339796Y501547D01*
X339804Y501595D01*
X339826Y501653D01*
X339838Y501801D01*
X339851Y501878D01*
X339851Y505047D01*
X339839Y505133D01*
X339836Y505221D01*
X339819Y505273D01*
X339811Y505328D01*
X339776Y505408D01*
X339749Y505491D01*
X339721Y505530D01*
X339695Y505588D01*
X339599Y505701D01*
X339554Y505765D01*
X332224Y513094D01*
X332223Y513095D01*
X332222Y513097D01*
X332105Y513184D01*
X331997Y513265D01*
X331995Y513266D01*
X331994Y513267D01*
X331868Y513315D01*
X331731Y513367D01*
X331729Y513367D01*
X331728Y513367D01*
X331590Y513378D01*
X331448Y513390D01*
X331446Y513390D01*
X331445Y513390D01*
X331430Y513387D01*
X331169Y513334D01*
X331142Y513320D01*
X331118Y513315D01*
X330924Y513234D01*
X328206Y513234D01*
X325696Y514274D01*
X323774Y516196D01*
X322734Y518706D01*
X322734Y521424D01*
X323774Y523934D01*
X325696Y525856D01*
X328206Y526896D01*
X330924Y526896D01*
X333434Y525856D01*
X335356Y523934D01*
X336396Y521424D01*
X336396Y518706D01*
X336315Y518512D01*
X336315Y518511D01*
X336314Y518510D01*
X336280Y518374D01*
X336244Y518237D01*
X336245Y518236D01*
X336244Y518234D01*
X336249Y518086D01*
X336253Y517953D01*
X336253Y517952D01*
X336253Y517950D01*
X336296Y517817D01*
X336339Y517682D01*
X336340Y517681D01*
X336341Y517679D01*
X336349Y517667D01*
X336498Y517446D01*
X336521Y517426D01*
X336536Y517406D01*
X343865Y510076D01*
X343866Y510076D01*
X345949Y507993D01*
X345949Y501878D01*
X345961Y501791D01*
X345964Y501704D01*
X345981Y501651D01*
X345989Y501597D01*
X346024Y501517D01*
X346051Y501434D01*
X346079Y501394D01*
X346105Y501337D01*
X346201Y501224D01*
X346246Y501160D01*
X347425Y499982D01*
X347425Y486218D01*
X346532Y485325D01*
X339268Y485325D01*
G37*
%LPD*%
%LPC*%
G36*
X328027Y370077D02*
X328027Y370077D01*
X324013Y371740D01*
X320940Y374813D01*
X319277Y378827D01*
X319277Y383173D01*
X320940Y387187D01*
X324013Y390260D01*
X328027Y391923D01*
X332373Y391923D01*
X336387Y390260D01*
X339460Y387187D01*
X341123Y383173D01*
X341123Y378827D01*
X339460Y374813D01*
X336387Y371740D01*
X332373Y370077D01*
X328027Y370077D01*
G37*
%LPD*%
%LPC*%
G36*
X325781Y179831D02*
X325781Y179831D01*
X319531Y186081D01*
X319531Y194919D01*
X325781Y201169D01*
X334619Y201169D01*
X340869Y194919D01*
X340869Y186081D01*
X334619Y179831D01*
X325781Y179831D01*
G37*
%LPD*%
%LPC*%
G36*
X325781Y129031D02*
X325781Y129031D01*
X319531Y135281D01*
X319531Y144119D01*
X325781Y150369D01*
X334619Y150369D01*
X340869Y144119D01*
X340869Y135281D01*
X334619Y129031D01*
X325781Y129031D01*
G37*
%LPD*%
%LPC*%
G36*
X325781Y154431D02*
X325781Y154431D01*
X319531Y160681D01*
X319531Y169519D01*
X325781Y175769D01*
X334619Y175769D01*
X340869Y169519D01*
X340869Y160681D01*
X334619Y154431D01*
X325781Y154431D01*
G37*
%LPD*%
%LPC*%
G36*
X265341Y564669D02*
X265341Y564669D01*
X262831Y565709D01*
X260909Y567631D01*
X259869Y570141D01*
X259869Y572859D01*
X260909Y575369D01*
X262831Y577291D01*
X263533Y577582D01*
X263534Y577582D01*
X263535Y577583D01*
X263652Y577652D01*
X263777Y577726D01*
X263779Y577727D01*
X263780Y577728D01*
X263875Y577830D01*
X263973Y577933D01*
X263973Y577934D01*
X263974Y577935D01*
X264039Y578061D01*
X264103Y578185D01*
X264103Y578187D01*
X264104Y578188D01*
X264106Y578203D01*
X264158Y578464D01*
X264155Y578495D01*
X264159Y578519D01*
X264159Y585550D01*
X264151Y585608D01*
X264153Y585666D01*
X264131Y585748D01*
X264119Y585832D01*
X264096Y585885D01*
X264081Y585941D01*
X264038Y586014D01*
X264003Y586091D01*
X263965Y586136D01*
X263936Y586186D01*
X263874Y586244D01*
X263820Y586308D01*
X263771Y586340D01*
X263728Y586380D01*
X263653Y586419D01*
X263583Y586466D01*
X263527Y586483D01*
X263475Y586510D01*
X263407Y586521D01*
X263312Y586551D01*
X263212Y586554D01*
X263144Y586565D01*
X261947Y586565D01*
X260175Y588337D01*
X260175Y597843D01*
X261947Y599615D01*
X271453Y599615D01*
X273225Y597843D01*
X273225Y588337D01*
X271453Y586565D01*
X270256Y586565D01*
X270198Y586557D01*
X270140Y586559D01*
X270058Y586537D01*
X269974Y586525D01*
X269921Y586502D01*
X269865Y586487D01*
X269792Y586444D01*
X269715Y586409D01*
X269670Y586371D01*
X269620Y586342D01*
X269562Y586280D01*
X269498Y586226D01*
X269466Y586177D01*
X269426Y586134D01*
X269387Y586059D01*
X269340Y585989D01*
X269323Y585933D01*
X269296Y585881D01*
X269285Y585813D01*
X269255Y585718D01*
X269252Y585618D01*
X269241Y585550D01*
X269241Y578519D01*
X269241Y578518D01*
X269241Y578516D01*
X269261Y578376D01*
X269281Y578238D01*
X269281Y578237D01*
X269281Y578235D01*
X269340Y578105D01*
X269397Y577979D01*
X269398Y577977D01*
X269399Y577976D01*
X269489Y577869D01*
X269580Y577762D01*
X269582Y577761D01*
X269583Y577759D01*
X269595Y577752D01*
X269817Y577604D01*
X269846Y577595D01*
X269867Y577582D01*
X270569Y577291D01*
X272491Y575369D01*
X273531Y572859D01*
X273531Y570141D01*
X272491Y567631D01*
X270569Y565709D01*
X268059Y564669D01*
X265341Y564669D01*
G37*
%LPD*%
%LPC*%
G36*
X189141Y564669D02*
X189141Y564669D01*
X186631Y565709D01*
X184709Y567631D01*
X183669Y570141D01*
X183669Y572859D01*
X184709Y575369D01*
X186631Y577291D01*
X187333Y577582D01*
X187334Y577582D01*
X187335Y577583D01*
X187452Y577652D01*
X187577Y577726D01*
X187579Y577727D01*
X187580Y577728D01*
X187675Y577830D01*
X187773Y577933D01*
X187773Y577934D01*
X187774Y577935D01*
X187839Y578061D01*
X187903Y578185D01*
X187903Y578187D01*
X187904Y578188D01*
X187906Y578203D01*
X187958Y578464D01*
X187955Y578495D01*
X187959Y578519D01*
X187959Y585550D01*
X187951Y585608D01*
X187953Y585666D01*
X187931Y585748D01*
X187919Y585832D01*
X187896Y585885D01*
X187881Y585941D01*
X187838Y586014D01*
X187803Y586091D01*
X187765Y586136D01*
X187736Y586186D01*
X187674Y586244D01*
X187620Y586308D01*
X187571Y586340D01*
X187528Y586380D01*
X187453Y586419D01*
X187383Y586466D01*
X187327Y586483D01*
X187275Y586510D01*
X187207Y586521D01*
X187112Y586551D01*
X187012Y586554D01*
X186944Y586565D01*
X185747Y586565D01*
X183975Y588337D01*
X183975Y597843D01*
X185747Y599615D01*
X195253Y599615D01*
X197025Y597843D01*
X197025Y588337D01*
X195253Y586565D01*
X194056Y586565D01*
X193998Y586557D01*
X193940Y586559D01*
X193858Y586537D01*
X193774Y586525D01*
X193721Y586502D01*
X193665Y586487D01*
X193592Y586444D01*
X193515Y586409D01*
X193470Y586371D01*
X193420Y586342D01*
X193362Y586280D01*
X193298Y586226D01*
X193266Y586177D01*
X193226Y586134D01*
X193187Y586059D01*
X193140Y585989D01*
X193123Y585933D01*
X193096Y585881D01*
X193085Y585813D01*
X193055Y585718D01*
X193052Y585618D01*
X193041Y585550D01*
X193041Y578519D01*
X193041Y578518D01*
X193041Y578516D01*
X193061Y578376D01*
X193081Y578238D01*
X193081Y578237D01*
X193081Y578235D01*
X193140Y578105D01*
X193197Y577979D01*
X193198Y577977D01*
X193199Y577976D01*
X193289Y577869D01*
X193380Y577762D01*
X193382Y577761D01*
X193383Y577759D01*
X193395Y577752D01*
X193617Y577604D01*
X193646Y577595D01*
X193667Y577582D01*
X194369Y577291D01*
X196291Y575369D01*
X197331Y572859D01*
X197331Y570141D01*
X196291Y567631D01*
X194369Y565709D01*
X191859Y564669D01*
X189141Y564669D01*
G37*
%LPD*%
%LPC*%
G36*
X227241Y564669D02*
X227241Y564669D01*
X224731Y565709D01*
X222809Y567631D01*
X221769Y570141D01*
X221769Y572859D01*
X222809Y575369D01*
X224731Y577291D01*
X225433Y577582D01*
X225434Y577582D01*
X225435Y577583D01*
X225552Y577652D01*
X225677Y577726D01*
X225679Y577727D01*
X225680Y577728D01*
X225775Y577830D01*
X225873Y577933D01*
X225873Y577934D01*
X225874Y577935D01*
X225939Y578061D01*
X226003Y578185D01*
X226003Y578187D01*
X226004Y578188D01*
X226006Y578203D01*
X226058Y578464D01*
X226055Y578495D01*
X226059Y578519D01*
X226059Y585550D01*
X226051Y585608D01*
X226053Y585666D01*
X226031Y585748D01*
X226019Y585832D01*
X225996Y585885D01*
X225981Y585941D01*
X225938Y586014D01*
X225903Y586091D01*
X225865Y586136D01*
X225836Y586186D01*
X225774Y586244D01*
X225720Y586308D01*
X225671Y586340D01*
X225628Y586380D01*
X225553Y586419D01*
X225483Y586466D01*
X225427Y586483D01*
X225375Y586510D01*
X225307Y586521D01*
X225212Y586551D01*
X225112Y586554D01*
X225044Y586565D01*
X223847Y586565D01*
X222075Y588337D01*
X222075Y597843D01*
X223847Y599615D01*
X233353Y599615D01*
X235125Y597843D01*
X235125Y588337D01*
X233353Y586565D01*
X232156Y586565D01*
X232098Y586557D01*
X232040Y586559D01*
X231958Y586537D01*
X231874Y586525D01*
X231821Y586502D01*
X231765Y586487D01*
X231692Y586444D01*
X231615Y586409D01*
X231570Y586371D01*
X231520Y586342D01*
X231462Y586280D01*
X231398Y586226D01*
X231366Y586177D01*
X231326Y586134D01*
X231287Y586059D01*
X231240Y585989D01*
X231223Y585933D01*
X231196Y585881D01*
X231185Y585813D01*
X231155Y585718D01*
X231152Y585618D01*
X231141Y585550D01*
X231141Y578519D01*
X231141Y578518D01*
X231141Y578516D01*
X231161Y578376D01*
X231181Y578238D01*
X231181Y578237D01*
X231181Y578235D01*
X231240Y578105D01*
X231297Y577979D01*
X231298Y577977D01*
X231299Y577976D01*
X231389Y577869D01*
X231480Y577762D01*
X231482Y577761D01*
X231483Y577759D01*
X231495Y577752D01*
X231717Y577604D01*
X231746Y577595D01*
X231767Y577582D01*
X232469Y577291D01*
X234391Y575369D01*
X235431Y572859D01*
X235431Y570141D01*
X234391Y567631D01*
X232469Y565709D01*
X229959Y564669D01*
X227241Y564669D01*
G37*
%LPD*%
%LPC*%
G36*
X303441Y564669D02*
X303441Y564669D01*
X300931Y565709D01*
X299009Y567631D01*
X297969Y570141D01*
X297969Y572859D01*
X299009Y575369D01*
X300931Y577291D01*
X301633Y577582D01*
X301634Y577582D01*
X301635Y577583D01*
X301752Y577652D01*
X301877Y577726D01*
X301879Y577727D01*
X301880Y577728D01*
X301975Y577830D01*
X302073Y577933D01*
X302073Y577934D01*
X302074Y577935D01*
X302139Y578061D01*
X302203Y578185D01*
X302203Y578187D01*
X302204Y578188D01*
X302206Y578203D01*
X302258Y578464D01*
X302255Y578495D01*
X302259Y578519D01*
X302259Y585550D01*
X302251Y585608D01*
X302253Y585666D01*
X302231Y585748D01*
X302219Y585832D01*
X302196Y585885D01*
X302181Y585941D01*
X302138Y586014D01*
X302103Y586091D01*
X302065Y586136D01*
X302036Y586186D01*
X301974Y586244D01*
X301920Y586308D01*
X301871Y586340D01*
X301828Y586380D01*
X301753Y586419D01*
X301683Y586466D01*
X301627Y586483D01*
X301575Y586510D01*
X301507Y586521D01*
X301412Y586551D01*
X301312Y586554D01*
X301244Y586565D01*
X300047Y586565D01*
X298275Y588337D01*
X298275Y597843D01*
X300047Y599615D01*
X309553Y599615D01*
X311325Y597843D01*
X311325Y588337D01*
X309553Y586565D01*
X308356Y586565D01*
X308298Y586557D01*
X308240Y586559D01*
X308158Y586537D01*
X308074Y586525D01*
X308021Y586502D01*
X307965Y586487D01*
X307892Y586444D01*
X307815Y586409D01*
X307770Y586371D01*
X307720Y586342D01*
X307662Y586280D01*
X307598Y586226D01*
X307566Y586177D01*
X307526Y586134D01*
X307487Y586059D01*
X307440Y585989D01*
X307423Y585933D01*
X307396Y585881D01*
X307385Y585813D01*
X307355Y585718D01*
X307352Y585618D01*
X307341Y585550D01*
X307341Y578519D01*
X307341Y578518D01*
X307341Y578516D01*
X307361Y578376D01*
X307381Y578238D01*
X307381Y578237D01*
X307381Y578235D01*
X307440Y578105D01*
X307497Y577979D01*
X307498Y577977D01*
X307499Y577976D01*
X307589Y577869D01*
X307680Y577762D01*
X307682Y577761D01*
X307683Y577759D01*
X307695Y577752D01*
X307917Y577604D01*
X307946Y577595D01*
X307967Y577582D01*
X308669Y577291D01*
X310591Y575369D01*
X311631Y572859D01*
X311631Y570141D01*
X310591Y567631D01*
X308669Y565709D01*
X306159Y564669D01*
X303441Y564669D01*
G37*
%LPD*%
%LPC*%
G36*
X151041Y564669D02*
X151041Y564669D01*
X148531Y565709D01*
X146609Y567631D01*
X145569Y570141D01*
X145569Y572859D01*
X146609Y575369D01*
X148531Y577291D01*
X149233Y577582D01*
X149234Y577582D01*
X149235Y577583D01*
X149352Y577652D01*
X149477Y577726D01*
X149479Y577727D01*
X149480Y577728D01*
X149575Y577830D01*
X149673Y577933D01*
X149673Y577934D01*
X149674Y577935D01*
X149739Y578061D01*
X149803Y578185D01*
X149803Y578187D01*
X149804Y578188D01*
X149806Y578203D01*
X149858Y578464D01*
X149855Y578495D01*
X149859Y578519D01*
X149859Y585550D01*
X149851Y585608D01*
X149853Y585666D01*
X149831Y585748D01*
X149819Y585832D01*
X149796Y585885D01*
X149781Y585941D01*
X149738Y586014D01*
X149703Y586091D01*
X149665Y586136D01*
X149636Y586186D01*
X149574Y586244D01*
X149520Y586308D01*
X149471Y586340D01*
X149428Y586380D01*
X149353Y586419D01*
X149283Y586466D01*
X149227Y586483D01*
X149175Y586510D01*
X149107Y586521D01*
X149012Y586551D01*
X148912Y586554D01*
X148844Y586565D01*
X147647Y586565D01*
X145875Y588337D01*
X145875Y597843D01*
X147647Y599615D01*
X157153Y599615D01*
X158925Y597843D01*
X158925Y588337D01*
X157153Y586565D01*
X155956Y586565D01*
X155898Y586557D01*
X155840Y586559D01*
X155758Y586537D01*
X155674Y586525D01*
X155621Y586502D01*
X155565Y586487D01*
X155492Y586444D01*
X155415Y586409D01*
X155370Y586371D01*
X155320Y586342D01*
X155262Y586280D01*
X155198Y586226D01*
X155166Y586177D01*
X155126Y586134D01*
X155087Y586059D01*
X155040Y585989D01*
X155023Y585933D01*
X154996Y585881D01*
X154985Y585813D01*
X154955Y585718D01*
X154952Y585618D01*
X154941Y585550D01*
X154941Y578519D01*
X154941Y578518D01*
X154941Y578516D01*
X154961Y578376D01*
X154981Y578238D01*
X154981Y578237D01*
X154981Y578235D01*
X155040Y578105D01*
X155097Y577979D01*
X155098Y577977D01*
X155099Y577976D01*
X155189Y577869D01*
X155280Y577762D01*
X155282Y577761D01*
X155283Y577759D01*
X155295Y577752D01*
X155517Y577604D01*
X155546Y577595D01*
X155567Y577582D01*
X156269Y577291D01*
X158191Y575369D01*
X159231Y572859D01*
X159231Y570141D01*
X158191Y567631D01*
X156269Y565709D01*
X153759Y564669D01*
X151041Y564669D01*
G37*
%LPD*%
%LPC*%
G36*
X112941Y564669D02*
X112941Y564669D01*
X110431Y565709D01*
X108509Y567631D01*
X107469Y570141D01*
X107469Y572859D01*
X108509Y575369D01*
X110431Y577291D01*
X111133Y577582D01*
X111134Y577582D01*
X111135Y577583D01*
X111252Y577652D01*
X111377Y577726D01*
X111379Y577727D01*
X111380Y577728D01*
X111475Y577830D01*
X111573Y577933D01*
X111573Y577934D01*
X111574Y577935D01*
X111639Y578061D01*
X111703Y578185D01*
X111703Y578187D01*
X111704Y578188D01*
X111706Y578203D01*
X111758Y578464D01*
X111755Y578495D01*
X111759Y578519D01*
X111759Y585550D01*
X111751Y585608D01*
X111753Y585666D01*
X111731Y585748D01*
X111719Y585832D01*
X111696Y585885D01*
X111681Y585941D01*
X111638Y586014D01*
X111603Y586091D01*
X111565Y586136D01*
X111536Y586186D01*
X111474Y586244D01*
X111420Y586308D01*
X111371Y586340D01*
X111328Y586380D01*
X111253Y586419D01*
X111183Y586466D01*
X111127Y586483D01*
X111075Y586510D01*
X111007Y586521D01*
X110912Y586551D01*
X110812Y586554D01*
X110744Y586565D01*
X109547Y586565D01*
X107775Y588337D01*
X107775Y597843D01*
X109547Y599615D01*
X119053Y599615D01*
X120825Y597843D01*
X120825Y588337D01*
X119053Y586565D01*
X117856Y586565D01*
X117798Y586557D01*
X117740Y586559D01*
X117658Y586537D01*
X117574Y586525D01*
X117521Y586502D01*
X117465Y586487D01*
X117392Y586444D01*
X117315Y586409D01*
X117270Y586371D01*
X117220Y586342D01*
X117162Y586280D01*
X117098Y586226D01*
X117066Y586177D01*
X117026Y586134D01*
X116987Y586059D01*
X116940Y585989D01*
X116923Y585933D01*
X116896Y585881D01*
X116885Y585813D01*
X116855Y585718D01*
X116852Y585618D01*
X116841Y585550D01*
X116841Y578519D01*
X116841Y578518D01*
X116841Y578516D01*
X116861Y578376D01*
X116881Y578238D01*
X116881Y578237D01*
X116881Y578235D01*
X116940Y578105D01*
X116997Y577979D01*
X116998Y577977D01*
X116999Y577976D01*
X117089Y577869D01*
X117180Y577762D01*
X117182Y577761D01*
X117183Y577759D01*
X117195Y577752D01*
X117417Y577604D01*
X117446Y577595D01*
X117467Y577582D01*
X118169Y577291D01*
X120091Y575369D01*
X121131Y572859D01*
X121131Y570141D01*
X120091Y567631D01*
X118169Y565709D01*
X115659Y564669D01*
X112941Y564669D01*
G37*
%LPD*%
%LPC*%
G36*
X72568Y92625D02*
X72568Y92625D01*
X71675Y93518D01*
X71675Y106282D01*
X72346Y106952D01*
X72398Y107022D01*
X72458Y107086D01*
X72484Y107135D01*
X72517Y107179D01*
X72548Y107261D01*
X72588Y107339D01*
X72596Y107387D01*
X72618Y107445D01*
X72630Y107593D01*
X72643Y107670D01*
X72643Y115396D01*
X72631Y115483D01*
X72628Y115570D01*
X72611Y115623D01*
X72603Y115678D01*
X72568Y115757D01*
X72541Y115841D01*
X72513Y115880D01*
X72487Y115937D01*
X72391Y116050D01*
X72346Y116114D01*
X70409Y118051D01*
X69369Y120561D01*
X69369Y123279D01*
X70409Y125789D01*
X72331Y127711D01*
X74841Y128751D01*
X77559Y128751D01*
X80069Y127711D01*
X81991Y125789D01*
X83031Y123279D01*
X83031Y120561D01*
X81991Y118051D01*
X80054Y116114D01*
X80002Y116044D01*
X79942Y115980D01*
X79916Y115931D01*
X79883Y115887D01*
X79852Y115805D01*
X79812Y115727D01*
X79804Y115680D01*
X79782Y115621D01*
X79770Y115473D01*
X79757Y115396D01*
X79757Y107670D01*
X79769Y107583D01*
X79772Y107496D01*
X79789Y107443D01*
X79797Y107389D01*
X79832Y107309D01*
X79859Y107226D01*
X79887Y107186D01*
X79913Y107129D01*
X80009Y107016D01*
X80054Y106952D01*
X80725Y106282D01*
X80725Y93518D01*
X79832Y92625D01*
X72568Y92625D01*
G37*
%LPD*%
%LPC*%
G36*
X112941Y515139D02*
X112941Y515139D01*
X110431Y516179D01*
X108509Y518101D01*
X107469Y520611D01*
X107469Y523329D01*
X108509Y525839D01*
X110431Y527761D01*
X111133Y528052D01*
X111134Y528052D01*
X111135Y528053D01*
X111252Y528122D01*
X111377Y528196D01*
X111379Y528197D01*
X111380Y528198D01*
X111475Y528300D01*
X111573Y528403D01*
X111573Y528404D01*
X111574Y528405D01*
X111639Y528531D01*
X111703Y528655D01*
X111703Y528657D01*
X111704Y528658D01*
X111706Y528673D01*
X111758Y528934D01*
X111755Y528965D01*
X111759Y528989D01*
X111759Y530940D01*
X111751Y530998D01*
X111753Y531056D01*
X111731Y531138D01*
X111719Y531222D01*
X111696Y531275D01*
X111681Y531331D01*
X111638Y531404D01*
X111603Y531481D01*
X111565Y531526D01*
X111536Y531576D01*
X111474Y531634D01*
X111420Y531698D01*
X111371Y531730D01*
X111328Y531770D01*
X111253Y531809D01*
X111183Y531856D01*
X111127Y531873D01*
X111075Y531900D01*
X111007Y531911D01*
X110912Y531941D01*
X110812Y531944D01*
X110744Y531955D01*
X109547Y531955D01*
X107775Y533727D01*
X107775Y543233D01*
X109547Y545005D01*
X119053Y545005D01*
X120825Y543233D01*
X120825Y533727D01*
X119053Y531955D01*
X117856Y531955D01*
X117798Y531947D01*
X117740Y531949D01*
X117658Y531927D01*
X117574Y531915D01*
X117521Y531892D01*
X117465Y531877D01*
X117392Y531834D01*
X117315Y531799D01*
X117270Y531761D01*
X117220Y531732D01*
X117162Y531670D01*
X117098Y531616D01*
X117066Y531567D01*
X117026Y531524D01*
X116987Y531449D01*
X116940Y531379D01*
X116923Y531323D01*
X116896Y531271D01*
X116885Y531203D01*
X116855Y531108D01*
X116852Y531008D01*
X116841Y530940D01*
X116841Y528989D01*
X116841Y528988D01*
X116841Y528986D01*
X116861Y528846D01*
X116881Y528708D01*
X116881Y528707D01*
X116881Y528705D01*
X116940Y528575D01*
X116997Y528449D01*
X116998Y528447D01*
X116999Y528446D01*
X117090Y528339D01*
X117180Y528232D01*
X117182Y528231D01*
X117183Y528229D01*
X117195Y528222D01*
X117417Y528074D01*
X117446Y528065D01*
X117467Y528052D01*
X118169Y527761D01*
X120091Y525839D01*
X121131Y523329D01*
X121131Y520611D01*
X120091Y518101D01*
X118169Y516179D01*
X115659Y515139D01*
X112941Y515139D01*
G37*
%LPD*%
%LPC*%
G36*
X144959Y433831D02*
X144959Y433831D01*
X144959Y440134D01*
X145132Y440781D01*
X145467Y441360D01*
X145940Y441833D01*
X146519Y442168D01*
X147166Y442341D01*
X156969Y442341D01*
X156969Y433831D01*
X144959Y433831D01*
G37*
%LPD*%
%LPC*%
G36*
X161031Y421259D02*
X161031Y421259D01*
X161031Y429769D01*
X173041Y429769D01*
X173041Y423466D01*
X172868Y422819D01*
X172533Y422240D01*
X172060Y421767D01*
X171481Y421432D01*
X170834Y421259D01*
X161031Y421259D01*
G37*
%LPD*%
%LPC*%
G36*
X147166Y421259D02*
X147166Y421259D01*
X146519Y421432D01*
X145940Y421767D01*
X145467Y422240D01*
X145132Y422819D01*
X144959Y423466D01*
X144959Y429769D01*
X156969Y429769D01*
X156969Y421259D01*
X147166Y421259D01*
G37*
%LPD*%
%LPC*%
G36*
X332231Y332231D02*
X332231Y332231D01*
X332231Y341966D01*
X332996Y341845D01*
X334783Y341264D01*
X336457Y340411D01*
X337978Y339306D01*
X339306Y337978D01*
X340411Y336457D01*
X341264Y334783D01*
X341845Y332996D01*
X341966Y332231D01*
X332231Y332231D01*
G37*
%LPD*%
%LPC*%
G36*
X332231Y328169D02*
X332231Y328169D01*
X341966Y328169D01*
X341845Y327404D01*
X341264Y325617D01*
X340411Y323943D01*
X339306Y322422D01*
X337978Y321094D01*
X336457Y319989D01*
X334783Y319136D01*
X332996Y318555D01*
X332231Y318434D01*
X332231Y328169D01*
G37*
%LPD*%
%LPC*%
G36*
X318434Y332231D02*
X318434Y332231D01*
X318555Y332996D01*
X319136Y334783D01*
X319989Y336457D01*
X321094Y337978D01*
X322422Y339306D01*
X323943Y340411D01*
X325617Y341264D01*
X327404Y341845D01*
X328169Y341966D01*
X328169Y332231D01*
X318434Y332231D01*
G37*
%LPD*%
%LPC*%
G36*
X327404Y318555D02*
X327404Y318555D01*
X325617Y319136D01*
X323943Y319989D01*
X322422Y321094D01*
X321094Y322422D01*
X319989Y323943D01*
X319136Y325617D01*
X318555Y327404D01*
X318434Y328169D01*
X328169Y328169D01*
X328169Y318434D01*
X327404Y318555D01*
G37*
%LPD*%
%LPC*%
G36*
X191009Y297941D02*
X191009Y297941D01*
X191009Y303744D01*
X191182Y304391D01*
X191517Y304970D01*
X191990Y305443D01*
X192569Y305778D01*
X193216Y305951D01*
X198019Y305951D01*
X198019Y297941D01*
X191009Y297941D01*
G37*
%LPD*%
%LPC*%
G36*
X193216Y285869D02*
X193216Y285869D01*
X192569Y286042D01*
X191990Y286377D01*
X191517Y286850D01*
X191182Y287429D01*
X191009Y288076D01*
X191009Y293879D01*
X198019Y293879D01*
X198019Y285869D01*
X193216Y285869D01*
G37*
%LPD*%
%LPC*%
G36*
X28955Y298705D02*
X28955Y298705D01*
X28955Y307216D01*
X31291Y307216D01*
X37466Y301041D01*
X37466Y298705D01*
X28955Y298705D01*
G37*
%LPD*%
%LPC*%
G36*
X16382Y298705D02*
X16382Y298705D01*
X16382Y301041D01*
X22557Y307216D01*
X24893Y307216D01*
X24893Y298705D01*
X16382Y298705D01*
G37*
%LPD*%
%LPC*%
G36*
X28955Y286132D02*
X28955Y286132D01*
X28955Y294643D01*
X37466Y294643D01*
X37466Y292307D01*
X31291Y286132D01*
X28955Y286132D01*
G37*
%LPD*%
%LPC*%
G36*
X22557Y286132D02*
X22557Y286132D01*
X16382Y292307D01*
X16382Y294643D01*
X24893Y294643D01*
X24893Y286132D01*
X22557Y286132D01*
G37*
%LPD*%
%LPC*%
G36*
X353949Y473599D02*
X353949Y473599D01*
X353949Y480891D01*
X355784Y480891D01*
X356431Y480718D01*
X357010Y480383D01*
X357483Y479910D01*
X357818Y479331D01*
X357991Y478684D01*
X357991Y473599D01*
X353949Y473599D01*
G37*
%LPD*%
%LPC*%
G36*
X106249Y253299D02*
X106249Y253299D01*
X106249Y260591D01*
X108084Y260591D01*
X108731Y260418D01*
X109310Y260083D01*
X109783Y259610D01*
X110118Y259031D01*
X110291Y258384D01*
X110291Y253299D01*
X106249Y253299D01*
G37*
%LPD*%
%LPC*%
G36*
X49149Y473599D02*
X49149Y473599D01*
X49149Y480891D01*
X50984Y480891D01*
X51631Y480718D01*
X52210Y480383D01*
X52683Y479910D01*
X53018Y479331D01*
X53191Y478684D01*
X53191Y473599D01*
X49149Y473599D01*
G37*
%LPD*%
%LPC*%
G36*
X106249Y243009D02*
X106249Y243009D01*
X106249Y250301D01*
X110291Y250301D01*
X110291Y245216D01*
X110118Y244569D01*
X109783Y243990D01*
X109310Y243517D01*
X108731Y243182D01*
X108084Y243009D01*
X106249Y243009D01*
G37*
%LPD*%
%LPC*%
G36*
X353949Y463309D02*
X353949Y463309D01*
X353949Y470601D01*
X357991Y470601D01*
X357991Y465516D01*
X357818Y464869D01*
X357483Y464290D01*
X357010Y463817D01*
X356431Y463482D01*
X355784Y463309D01*
X353949Y463309D01*
G37*
%LPD*%
%LPC*%
G36*
X49149Y463309D02*
X49149Y463309D01*
X49149Y470601D01*
X53191Y470601D01*
X53191Y465516D01*
X53018Y464869D01*
X52683Y464290D01*
X52210Y463817D01*
X51631Y463482D01*
X50984Y463309D01*
X49149Y463309D01*
G37*
%LPD*%
%LPC*%
G36*
X346909Y473599D02*
X346909Y473599D01*
X346909Y478684D01*
X347082Y479331D01*
X347417Y479910D01*
X347890Y480383D01*
X348469Y480718D01*
X349116Y480891D01*
X350951Y480891D01*
X350951Y473599D01*
X346909Y473599D01*
G37*
%LPD*%
%LPC*%
G36*
X99209Y253299D02*
X99209Y253299D01*
X99209Y258384D01*
X99382Y259031D01*
X99717Y259610D01*
X100190Y260083D01*
X100769Y260418D01*
X101416Y260591D01*
X103251Y260591D01*
X103251Y253299D01*
X99209Y253299D01*
G37*
%LPD*%
%LPC*%
G36*
X42109Y473599D02*
X42109Y473599D01*
X42109Y478684D01*
X42282Y479331D01*
X42617Y479910D01*
X43090Y480383D01*
X43669Y480718D01*
X44316Y480891D01*
X46151Y480891D01*
X46151Y473599D01*
X42109Y473599D01*
G37*
%LPD*%
%LPC*%
G36*
X349116Y463309D02*
X349116Y463309D01*
X348469Y463482D01*
X347890Y463817D01*
X347417Y464290D01*
X347082Y464869D01*
X346909Y465516D01*
X346909Y470601D01*
X350951Y470601D01*
X350951Y463309D01*
X349116Y463309D01*
G37*
%LPD*%
%LPC*%
G36*
X44316Y463309D02*
X44316Y463309D01*
X43669Y463482D01*
X43090Y463817D01*
X42617Y464290D01*
X42282Y464869D01*
X42109Y465516D01*
X42109Y470601D01*
X46151Y470601D01*
X46151Y463309D01*
X44316Y463309D01*
G37*
%LPD*%
%LPC*%
G36*
X101416Y243009D02*
X101416Y243009D01*
X100769Y243182D01*
X100190Y243517D01*
X99717Y243990D01*
X99382Y244569D01*
X99209Y245216D01*
X99209Y250301D01*
X103251Y250301D01*
X103251Y243009D01*
X101416Y243009D01*
G37*
%LPD*%
%LPC*%
G36*
X68099Y79399D02*
X68099Y79399D01*
X68099Y86191D01*
X69934Y86191D01*
X70581Y86018D01*
X71160Y85683D01*
X71633Y85210D01*
X71968Y84631D01*
X72141Y83984D01*
X72141Y79399D01*
X68099Y79399D01*
G37*
%LPD*%
%LPC*%
G36*
X68099Y69609D02*
X68099Y69609D01*
X68099Y76401D01*
X72141Y76401D01*
X72141Y71816D01*
X71968Y71169D01*
X71633Y70590D01*
X71160Y70117D01*
X70581Y69782D01*
X69934Y69609D01*
X68099Y69609D01*
G37*
%LPD*%
%LPC*%
G36*
X61059Y79399D02*
X61059Y79399D01*
X61059Y83984D01*
X61232Y84631D01*
X61567Y85210D01*
X62040Y85683D01*
X62619Y86018D01*
X63266Y86191D01*
X65101Y86191D01*
X65101Y79399D01*
X61059Y79399D01*
G37*
%LPD*%
%LPC*%
G36*
X63266Y69609D02*
X63266Y69609D01*
X62619Y69782D01*
X62040Y70117D01*
X61567Y70590D01*
X61232Y71169D01*
X61059Y71816D01*
X61059Y76401D01*
X65101Y76401D01*
X65101Y69609D01*
X63266Y69609D01*
G37*
%LPD*%
%LPC*%
G36*
X26923Y296673D02*
X26923Y296673D01*
X26923Y296675D01*
X26925Y296675D01*
X26925Y296673D01*
X26923Y296673D01*
G37*
%LPD*%
%LPC*%
G36*
X330199Y330199D02*
X330199Y330199D01*
X330199Y330201D01*
X330201Y330201D01*
X330201Y330199D01*
X330199Y330199D01*
G37*
%LPD*%
%LPC*%
G36*
X158999Y431799D02*
X158999Y431799D01*
X158999Y431801D01*
X159001Y431801D01*
X159001Y431799D01*
X158999Y431799D01*
G37*
%LPD*%
D10*
X301300Y541980D02*
X308300Y541980D01*
X308300Y534980D01*
X301300Y534980D01*
X301300Y541980D01*
X301300Y537830D02*
X308300Y537830D01*
X308300Y540680D02*
X301300Y540680D01*
X301300Y559520D02*
X308300Y559520D01*
X308300Y552520D01*
X301300Y552520D01*
X301300Y559520D01*
X301300Y555370D02*
X308300Y555370D01*
X308300Y558220D02*
X301300Y558220D01*
X301300Y596590D02*
X308300Y596590D01*
X308300Y589590D01*
X301300Y589590D01*
X301300Y596590D01*
X301300Y592440D02*
X308300Y592440D01*
X308300Y595290D02*
X301300Y595290D01*
X301300Y614130D02*
X308300Y614130D01*
X308300Y607130D01*
X301300Y607130D01*
X301300Y614130D01*
X301300Y609980D02*
X308300Y609980D01*
X308300Y612830D02*
X301300Y612830D01*
X194000Y596590D02*
X187000Y596590D01*
X194000Y596590D02*
X194000Y589590D01*
X187000Y589590D01*
X187000Y596590D01*
X187000Y592440D02*
X194000Y592440D01*
X194000Y595290D02*
X187000Y595290D01*
X187000Y614130D02*
X194000Y614130D01*
X194000Y607130D01*
X187000Y607130D01*
X187000Y614130D01*
X187000Y609980D02*
X194000Y609980D01*
X194000Y612830D02*
X187000Y612830D01*
X155900Y596590D02*
X148900Y596590D01*
X155900Y596590D02*
X155900Y589590D01*
X148900Y589590D01*
X148900Y596590D01*
X148900Y592440D02*
X155900Y592440D01*
X155900Y595290D02*
X148900Y595290D01*
X148900Y614130D02*
X155900Y614130D01*
X155900Y607130D01*
X148900Y607130D01*
X148900Y614130D01*
X148900Y609980D02*
X155900Y609980D01*
X155900Y612830D02*
X148900Y612830D01*
X117800Y596590D02*
X110800Y596590D01*
X117800Y596590D02*
X117800Y589590D01*
X110800Y589590D01*
X110800Y596590D01*
X110800Y592440D02*
X117800Y592440D01*
X117800Y595290D02*
X110800Y595290D01*
X110800Y614130D02*
X117800Y614130D01*
X117800Y607130D01*
X110800Y607130D01*
X110800Y614130D01*
X110800Y609980D02*
X117800Y609980D01*
X117800Y612830D02*
X110800Y612830D01*
X79700Y596590D02*
X72700Y596590D01*
X79700Y596590D02*
X79700Y589590D01*
X72700Y589590D01*
X72700Y596590D01*
X72700Y592440D02*
X79700Y592440D01*
X79700Y595290D02*
X72700Y595290D01*
X72700Y614130D02*
X79700Y614130D01*
X79700Y607130D01*
X72700Y607130D01*
X72700Y614130D01*
X72700Y609980D02*
X79700Y609980D01*
X79700Y612830D02*
X72700Y612830D01*
X263200Y541980D02*
X270200Y541980D01*
X270200Y534980D01*
X263200Y534980D01*
X263200Y541980D01*
X263200Y537830D02*
X270200Y537830D01*
X270200Y540680D02*
X263200Y540680D01*
X263200Y559520D02*
X270200Y559520D01*
X270200Y552520D01*
X263200Y552520D01*
X263200Y559520D01*
X263200Y555370D02*
X270200Y555370D01*
X270200Y558220D02*
X263200Y558220D01*
X232100Y541980D02*
X225100Y541980D01*
X232100Y541980D02*
X232100Y534980D01*
X225100Y534980D01*
X225100Y541980D01*
X225100Y537830D02*
X232100Y537830D01*
X232100Y540680D02*
X225100Y540680D01*
X225100Y559520D02*
X232100Y559520D01*
X232100Y552520D01*
X225100Y552520D01*
X225100Y559520D01*
X225100Y555370D02*
X232100Y555370D01*
X232100Y558220D02*
X225100Y558220D01*
X194000Y541980D02*
X187000Y541980D01*
X194000Y541980D02*
X194000Y534980D01*
X187000Y534980D01*
X187000Y541980D01*
X187000Y537830D02*
X194000Y537830D01*
X194000Y540680D02*
X187000Y540680D01*
X187000Y559520D02*
X194000Y559520D01*
X194000Y552520D01*
X187000Y552520D01*
X187000Y559520D01*
X187000Y555370D02*
X194000Y555370D01*
X194000Y558220D02*
X187000Y558220D01*
X155900Y541980D02*
X148900Y541980D01*
X155900Y541980D02*
X155900Y534980D01*
X148900Y534980D01*
X148900Y541980D01*
X148900Y537830D02*
X155900Y537830D01*
X155900Y540680D02*
X148900Y540680D01*
X148900Y559520D02*
X155900Y559520D01*
X155900Y552520D01*
X148900Y552520D01*
X148900Y559520D01*
X148900Y555370D02*
X155900Y555370D01*
X155900Y558220D02*
X148900Y558220D01*
X117800Y541980D02*
X110800Y541980D01*
X117800Y541980D02*
X117800Y534980D01*
X110800Y534980D01*
X110800Y541980D01*
X110800Y537830D02*
X117800Y537830D01*
X117800Y540680D02*
X110800Y540680D01*
X110800Y559520D02*
X117800Y559520D01*
X117800Y552520D01*
X110800Y552520D01*
X110800Y559520D01*
X110800Y555370D02*
X117800Y555370D01*
X117800Y558220D02*
X110800Y558220D01*
X79700Y541980D02*
X72700Y541980D01*
X79700Y541980D02*
X79700Y534980D01*
X72700Y534980D01*
X72700Y541980D01*
X72700Y537830D02*
X79700Y537830D01*
X79700Y540680D02*
X72700Y540680D01*
X72700Y559520D02*
X79700Y559520D01*
X79700Y552520D01*
X72700Y552520D01*
X72700Y559520D01*
X72700Y555370D02*
X79700Y555370D01*
X79700Y558220D02*
X72700Y558220D01*
X263200Y596590D02*
X270200Y596590D01*
X270200Y589590D01*
X263200Y589590D01*
X263200Y596590D01*
X263200Y592440D02*
X270200Y592440D01*
X270200Y595290D02*
X263200Y595290D01*
X263200Y614130D02*
X270200Y614130D01*
X270200Y607130D01*
X263200Y607130D01*
X263200Y614130D01*
X263200Y609980D02*
X270200Y609980D01*
X270200Y612830D02*
X263200Y612830D01*
X232100Y596590D02*
X225100Y596590D01*
X232100Y596590D02*
X232100Y589590D01*
X225100Y589590D01*
X225100Y596590D01*
X225100Y592440D02*
X232100Y592440D01*
X232100Y595290D02*
X225100Y595290D01*
X225100Y614130D02*
X232100Y614130D01*
X232100Y607130D01*
X225100Y607130D01*
X225100Y614130D01*
X225100Y609980D02*
X232100Y609980D01*
X232100Y612830D02*
X225100Y612830D01*
D11*
X304800Y504800D03*
X304800Y485800D03*
X266700Y657200D03*
X266700Y638200D03*
X228600Y657200D03*
X228600Y638200D03*
X190500Y657200D03*
X190500Y638200D03*
X152400Y657200D03*
X152400Y638200D03*
X114300Y657200D03*
X114300Y638200D03*
X76200Y657200D03*
X76200Y638200D03*
X266700Y504800D03*
X266700Y485800D03*
X228600Y504800D03*
X228600Y485800D03*
X190500Y504800D03*
X190500Y485800D03*
X152400Y504800D03*
X152400Y485800D03*
X114300Y504800D03*
X114300Y485800D03*
X76200Y504800D03*
X76200Y485800D03*
X304800Y657200D03*
X304800Y638200D03*
D12*
X223008Y326230D03*
X216404Y326230D03*
X209800Y326170D03*
X203196Y326230D03*
X196592Y326230D03*
X189988Y326230D03*
X183384Y326230D03*
X176780Y326230D03*
X170176Y326230D03*
X163572Y326230D03*
X163572Y384650D03*
X170176Y384650D03*
X176780Y384650D03*
X183384Y384650D03*
X189988Y384650D03*
X196592Y384650D03*
X203196Y384650D03*
X209800Y384710D03*
X216404Y384650D03*
X223008Y384650D03*
D13*
X230500Y217800D03*
X150500Y217800D03*
X150500Y137800D03*
X230500Y137800D03*
D14*
X159000Y431800D03*
X222000Y431800D03*
D15*
X200000Y256700D03*
X181000Y256700D03*
X219050Y295910D03*
X200050Y295910D03*
D16*
X25400Y215900D03*
X50800Y215900D03*
X25400Y190500D03*
X50800Y190500D03*
X25400Y165100D03*
X50800Y165100D03*
X25400Y139700D03*
X50800Y139700D03*
D17*
X355600Y139700D03*
X330200Y139700D03*
X355600Y165100D03*
X330200Y165100D03*
X355600Y190500D03*
X330200Y190500D03*
X355600Y215900D03*
X330200Y215900D03*
D18*
X26924Y296674D03*
D19*
X52324Y296674D03*
D20*
X66600Y77900D03*
X85800Y77900D03*
X76200Y99900D03*
D21*
X330200Y406400D03*
X330200Y381000D03*
X330200Y355600D03*
X330200Y330200D03*
X330200Y304800D03*
D22*
X123850Y251800D03*
X104750Y251800D03*
X114300Y230800D03*
X333350Y472100D03*
X352450Y472100D03*
X342900Y493100D03*
X28550Y472100D03*
X47650Y472100D03*
X38100Y493100D03*
D15*
X324002Y444500D03*
X343002Y444500D03*
X60300Y444500D03*
X41300Y444500D03*
D11*
X145288Y270104D03*
X145288Y251104D03*
D23*
X216404Y298556D02*
X216404Y326230D01*
X216404Y298556D02*
X219050Y295910D01*
D24*
X222590Y292370D01*
D23*
X222590Y225710D01*
D24*
X230500Y217800D01*
D23*
X177800Y165100D01*
X140970Y165100D01*
X87070Y111200D01*
X87070Y79170D01*
X85800Y77900D01*
X216436Y332790D02*
X219956Y336310D01*
X216436Y332790D02*
X216436Y326262D01*
X216404Y326230D01*
X219956Y336310D02*
X298690Y336310D01*
X330200Y304800D01*
X200000Y256700D02*
X200000Y243180D01*
X195040Y238220D01*
X171070Y238220D01*
D25*
X160290Y296800D03*
D23*
X74900Y296800D02*
X52450Y296800D01*
X52324Y296674D01*
X162290Y247000D02*
X171070Y238220D01*
X162290Y247000D02*
X162290Y294800D01*
X160290Y296800D01*
X216510Y293370D02*
X219050Y295910D01*
X216510Y293370D02*
X216510Y273210D01*
X200000Y256700D01*
D25*
X74900Y296800D03*
D23*
X203196Y299056D02*
X203196Y326230D01*
D24*
X203196Y299056D02*
X200050Y295910D01*
D23*
X201320Y294640D01*
X201320Y277270D01*
D26*
X201270Y277220D01*
D25*
X201270Y277220D03*
X114000Y276000D03*
D23*
X66600Y77900D02*
X66600Y69900D01*
X77300Y59200D01*
D25*
X77300Y59200D03*
D24*
X358750Y452542D02*
X353162Y458130D01*
X358750Y452542D02*
X358750Y244780D01*
X343490Y229520D01*
D25*
X343490Y229520D03*
X199390Y91440D03*
D23*
X167150Y59200D01*
X77300Y59200D01*
X64760Y275540D02*
X48760Y275540D01*
X27626Y296674D01*
D24*
X159000Y431800D02*
X156460Y434340D01*
X152400Y434340D01*
X142240Y444500D01*
X139700Y444500D01*
D25*
X139700Y444500D03*
D23*
X199390Y91440D02*
X231140Y91440D01*
X299260Y159560D02*
X299260Y229250D01*
D25*
X299260Y229250D03*
D23*
X299260Y159560D02*
X231140Y91440D01*
D25*
X86614Y454406D03*
X64760Y275540D03*
D24*
X27626Y296674D02*
X26924Y296674D01*
D23*
X104750Y266750D02*
X104750Y251800D01*
X104750Y266750D02*
X114000Y276000D01*
D24*
X86614Y454406D02*
X70866Y470154D01*
X49596Y470154D01*
X47650Y472100D01*
X352450Y472100D02*
X353162Y471388D01*
X353162Y458130D01*
D26*
X304800Y485800D02*
X302870Y485800D01*
X292100Y496570D01*
X292100Y543900D01*
X304220Y556020D01*
X304800Y556020D01*
X266700Y485800D02*
X264770Y485800D01*
X254000Y496570D01*
X254000Y543900D01*
X266120Y556020D01*
X266700Y556020D01*
X228600Y485800D02*
X226670Y485800D01*
X215900Y496570D01*
X215900Y543900D01*
X228020Y556020D01*
X228600Y556020D01*
X190500Y485800D02*
X188570Y485800D01*
X177800Y496570D01*
X177800Y543900D01*
X189920Y556020D01*
X190500Y556020D01*
X152400Y485800D02*
X149860Y485800D01*
X139700Y495960D01*
X139700Y543320D02*
X152400Y556020D01*
X139700Y543320D02*
X139700Y495960D01*
X114300Y485800D02*
X111760Y485800D01*
X101600Y495960D01*
X101600Y543900D01*
X113720Y556020D01*
X114300Y556020D01*
X76200Y485800D02*
X73798Y485800D01*
X63620Y495978D01*
X63620Y543692D01*
X75948Y556020D01*
X76200Y556020D01*
D25*
X158674Y400983D03*
D26*
X170176Y392270D02*
X170176Y384650D01*
X170176Y392270D02*
X161463Y400983D01*
D25*
X309118Y431800D03*
D26*
X311302Y431800D02*
X324002Y444500D01*
X311302Y431800D02*
X309118Y431800D01*
X161463Y400983D02*
X158674Y400983D01*
D24*
X329565Y520065D02*
X342900Y506730D01*
D25*
X329565Y520065D03*
X304800Y520700D03*
X266700Y520700D03*
X228600Y520700D03*
X190500Y520700D03*
X152400Y520700D03*
X114300Y521970D03*
X76200Y520700D03*
D24*
X342900Y506730D02*
X342900Y493100D01*
D26*
X76200Y520700D02*
X76200Y538480D01*
X114300Y538480D02*
X114300Y521970D01*
X152400Y520700D02*
X152400Y538480D01*
X190500Y538480D02*
X190500Y520700D01*
X228600Y520700D02*
X228600Y538480D01*
X266700Y538480D02*
X266700Y520700D01*
X304800Y520700D02*
X304800Y538480D01*
X304800Y610630D02*
X304800Y638200D01*
X266700Y638200D02*
X266700Y610630D01*
X317500Y472792D02*
X229358Y384650D01*
X223008Y384650D01*
X317500Y492100D02*
X304800Y504800D01*
X317500Y492100D02*
X317500Y472792D01*
X317380Y517380D02*
X317380Y645752D01*
X317380Y517380D02*
X304800Y504800D01*
X304800Y657200D02*
X305932Y657200D01*
X317380Y645752D01*
D25*
X232636Y371100D03*
D26*
X224278Y383380D02*
X223008Y384650D01*
X224278Y383380D02*
X224278Y380357D01*
X232636Y371999D01*
X232636Y371100D01*
X228600Y610630D02*
X228600Y638200D01*
X190500Y638200D02*
X190500Y610630D01*
X152400Y610630D02*
X152400Y638200D01*
X114300Y638200D02*
X114300Y610630D01*
X76200Y610630D02*
X76200Y638200D01*
X189988Y429112D02*
X189988Y384650D01*
X126880Y645752D02*
X115432Y657200D01*
X114300Y657200D01*
X189988Y384650D02*
X189988Y380213D01*
X82550Y222250D02*
X50800Y190500D01*
X82550Y222250D02*
X82550Y272775D01*
X189988Y380213D01*
X126880Y517104D02*
X126880Y645752D01*
X114576Y504800D02*
X114300Y504800D01*
X114576Y504800D02*
X126880Y517104D01*
X114300Y504800D02*
X128270Y490830D01*
X128270Y471170D01*
X152400Y447040D01*
X172060Y447040D02*
X189988Y429112D01*
X172060Y447040D02*
X152400Y447040D01*
X203196Y492104D02*
X203196Y384650D01*
X203196Y492104D02*
X190500Y504800D01*
X190500Y657062D02*
X190500Y657200D01*
X203080Y644482D02*
X203080Y517380D01*
X190500Y504800D01*
X203080Y644482D02*
X190500Y657062D01*
X203196Y384650D02*
X203196Y380213D01*
X92260Y269277D01*
X51471Y139700D02*
X50800Y139700D01*
X51471Y139700D02*
X92260Y180489D01*
X92260Y269277D01*
X209324Y385186D02*
X209324Y390702D01*
X209324Y385186D02*
X209800Y384710D01*
X209324Y390702D02*
X240030Y421408D01*
X240030Y493370D02*
X228600Y504800D01*
X240030Y493370D02*
X240030Y421408D01*
X241180Y517380D02*
X241180Y645752D01*
X241180Y517380D02*
X228600Y504800D01*
X241180Y645752D02*
X229732Y657200D01*
X228600Y657200D01*
X209800Y384710D02*
X209800Y372360D01*
X208280Y370840D01*
D25*
X208280Y370840D03*
D26*
X215928Y385126D02*
X215928Y388162D01*
X215928Y385126D02*
X216404Y384650D01*
X279400Y451634D02*
X279400Y495300D01*
X279400Y451634D02*
X215928Y388162D01*
X279400Y495300D02*
X269900Y504800D01*
X266700Y504800D01*
X266700Y657062D02*
X266700Y657200D01*
X279280Y644482D02*
X279280Y517380D01*
X266700Y504800D01*
X279280Y644482D02*
X266700Y657062D01*
D25*
X220980Y364490D03*
D26*
X217198Y383856D02*
X216404Y384650D01*
X217198Y383856D02*
X217198Y368272D01*
X220980Y364490D01*
X163572Y384650D02*
X162302Y385920D01*
X83980Y385920D01*
X76200Y428600D02*
X60300Y444500D01*
X76200Y428600D02*
X76200Y393700D01*
X83980Y385920D01*
D24*
X55880Y514944D02*
X55880Y566420D01*
D25*
X76200Y571500D03*
X114300Y571500D03*
X152400Y571500D03*
X190500Y571500D03*
X228600Y571500D03*
X266700Y571500D03*
X304800Y571500D03*
D24*
X55880Y514944D02*
X38100Y497164D01*
X38100Y493100D01*
X60960Y571500D02*
X76200Y571500D01*
D26*
X76200Y593090D01*
X114300Y593090D02*
X114300Y571500D01*
X152400Y571500D02*
X152400Y593090D01*
X190500Y593090D02*
X190500Y571500D01*
X228600Y571500D02*
X228600Y593090D01*
X266700Y593090D02*
X266700Y571500D01*
X304800Y571500D02*
X304800Y593090D01*
D24*
X60960Y571500D02*
X55880Y566420D01*
D26*
X163572Y326230D02*
X163572Y322420D01*
X141580Y300428D01*
X141580Y273812D02*
X145288Y270104D01*
X141580Y273812D02*
X141580Y300428D01*
D23*
X150500Y217800D02*
X125100Y217800D01*
X114300Y228600D01*
X114300Y230800D01*
D26*
X169700Y326706D02*
X169700Y333552D01*
X169700Y326706D02*
X170176Y326230D01*
D25*
X287020Y425450D03*
X229870Y449580D03*
D26*
X229870Y439670D01*
X222000Y431800D01*
X287020Y425450D02*
X287020Y408940D01*
X234696Y356616D01*
X192764Y356616D02*
X169700Y333552D01*
X192764Y356616D02*
X234696Y356616D01*
X263216Y346550D02*
X323066Y406400D01*
X330200Y406400D01*
X173034Y309530D02*
X173034Y264666D01*
X181000Y256700D01*
X183384Y319880D02*
X183384Y326230D01*
X183384Y319880D02*
X173034Y309530D01*
X183384Y326230D02*
X183384Y332025D01*
X197909Y346550D01*
X263216Y346550D01*
X210594Y326964D02*
X209800Y326170D01*
X210594Y326964D02*
X210594Y334822D01*
X217402Y341630D01*
X316230Y341630D01*
X330200Y355600D01*
X176780Y384650D02*
X176780Y399800D01*
X175260Y401320D01*
D25*
X175260Y401320D03*
D26*
X355600Y165100D02*
X355600Y139700D01*
X355600Y165100D02*
X355600Y190500D01*
X355600Y215900D01*
X176780Y326230D02*
X176780Y332990D01*
X195580Y351790D02*
X248920Y351790D01*
X321310Y424180D01*
X339090Y424180D01*
X347980Y415290D01*
X347980Y290830D01*
X349250Y289560D01*
D25*
X349250Y289560D03*
D26*
X195580Y351790D02*
X176780Y332990D01*
X25400Y165100D02*
X25400Y139700D01*
X25400Y165100D02*
X25400Y190500D01*
X25400Y215900D01*
X189988Y317340D02*
X189988Y326230D01*
X189988Y317340D02*
X183798Y311150D01*
X183798Y277212D01*
X184150Y276860D01*
D25*
X184150Y276860D03*
X76200Y121920D03*
D23*
X76200Y99900D01*
D26*
X196592Y384650D02*
X196592Y442218D01*
X152400Y657062D02*
X152400Y657200D01*
X152400Y657062D02*
X164980Y644482D01*
X196592Y384650D02*
X196592Y380213D01*
X87630Y201930D02*
X50800Y165100D01*
X87630Y201930D02*
X87630Y271251D01*
X196592Y380213D01*
X164980Y517380D02*
X164980Y644482D01*
X164980Y517380D02*
X152400Y504800D01*
X166370Y490830D01*
X166370Y472440D01*
X196592Y442218D01*
X223008Y326230D02*
X223008Y319742D01*
X326850Y215900D01*
X330200Y215900D01*
X183860Y385126D02*
X183860Y407212D01*
X183860Y385126D02*
X183384Y384650D01*
X76200Y503392D02*
X76200Y504800D01*
X76200Y503392D02*
X88780Y490812D01*
X178702Y412370D02*
X183860Y407212D01*
X178702Y412370D02*
X142638Y412370D01*
X88780Y466228D01*
X88780Y490812D01*
X76200Y504800D02*
X88900Y517500D01*
X88900Y644500D02*
X76200Y657200D01*
X88900Y644500D02*
X88900Y517500D01*
X77470Y242570D02*
X50800Y215900D01*
X183860Y384174D02*
X183384Y384650D01*
X183860Y384174D02*
X183860Y381138D01*
X77470Y274748D02*
X77470Y242570D01*
X77470Y274748D02*
X183860Y381138D01*
X41300Y444500D02*
X41300Y456302D01*
X28550Y469052D01*
X28550Y472100D01*
X333350Y468544D02*
X343256Y458638D01*
X333350Y468544D02*
X333350Y472100D01*
X343256Y458638D02*
X343256Y444754D01*
X343002Y444500D01*
X145288Y251104D02*
X124546Y251104D01*
X123850Y251800D01*
M02*
