G04 EAGLE Gerber RS-274X export*
G75*
%MOMM*%
%FSLAX34Y34*%
%LPD*%
%INSilkscreen Bottom*%
%IPPOS*%
%AMOC8*
5,1,8,0,0,1.08239X$1,22.5*%
G01*
%ADD10C,0.076200*%
%ADD11C,0.127000*%
%ADD12C,0.152400*%


D10*
X25781Y482981D02*
X33147Y482981D01*
X33147Y485027D01*
X33145Y485116D01*
X33139Y485205D01*
X33129Y485294D01*
X33116Y485382D01*
X33099Y485470D01*
X33077Y485557D01*
X33052Y485642D01*
X33024Y485727D01*
X32991Y485810D01*
X32955Y485892D01*
X32916Y485972D01*
X32873Y486050D01*
X32827Y486126D01*
X32777Y486201D01*
X32724Y486273D01*
X32668Y486342D01*
X32609Y486409D01*
X32548Y486474D01*
X32483Y486535D01*
X32416Y486594D01*
X32347Y486650D01*
X32275Y486703D01*
X32200Y486753D01*
X32124Y486799D01*
X32046Y486842D01*
X31966Y486881D01*
X31884Y486917D01*
X31801Y486950D01*
X31716Y486978D01*
X31631Y487003D01*
X31544Y487025D01*
X31456Y487042D01*
X31368Y487055D01*
X31279Y487065D01*
X31190Y487071D01*
X31101Y487073D01*
X31012Y487071D01*
X30923Y487065D01*
X30834Y487055D01*
X30746Y487042D01*
X30658Y487025D01*
X30571Y487003D01*
X30486Y486978D01*
X30401Y486950D01*
X30318Y486917D01*
X30236Y486881D01*
X30156Y486842D01*
X30078Y486799D01*
X30002Y486753D01*
X29927Y486703D01*
X29855Y486650D01*
X29786Y486594D01*
X29719Y486535D01*
X29654Y486474D01*
X29593Y486409D01*
X29534Y486342D01*
X29478Y486273D01*
X29425Y486201D01*
X29375Y486126D01*
X29329Y486050D01*
X29286Y485972D01*
X29247Y485892D01*
X29211Y485810D01*
X29178Y485727D01*
X29150Y485642D01*
X29125Y485557D01*
X29103Y485470D01*
X29086Y485382D01*
X29073Y485294D01*
X29063Y485205D01*
X29057Y485116D01*
X29055Y485027D01*
X29055Y482981D01*
X29055Y489856D02*
X27418Y489856D01*
X29055Y489856D02*
X29134Y489858D01*
X29213Y489864D01*
X29292Y489873D01*
X29370Y489886D01*
X29447Y489904D01*
X29523Y489924D01*
X29598Y489949D01*
X29672Y489977D01*
X29745Y490008D01*
X29816Y490044D01*
X29885Y490082D01*
X29952Y490124D01*
X30017Y490169D01*
X30080Y490217D01*
X30141Y490268D01*
X30198Y490322D01*
X30254Y490378D01*
X30306Y490437D01*
X30356Y490499D01*
X30402Y490563D01*
X30446Y490629D01*
X30486Y490697D01*
X30522Y490767D01*
X30556Y490839D01*
X30586Y490913D01*
X30612Y490987D01*
X30635Y491063D01*
X30653Y491140D01*
X30669Y491217D01*
X30680Y491296D01*
X30688Y491374D01*
X30692Y491453D01*
X30692Y491533D01*
X30688Y491612D01*
X30680Y491690D01*
X30669Y491769D01*
X30653Y491846D01*
X30635Y491923D01*
X30612Y491999D01*
X30586Y492073D01*
X30556Y492147D01*
X30522Y492219D01*
X30486Y492289D01*
X30446Y492357D01*
X30402Y492423D01*
X30356Y492487D01*
X30306Y492549D01*
X30254Y492608D01*
X30198Y492664D01*
X30141Y492718D01*
X30080Y492769D01*
X30017Y492817D01*
X29952Y492862D01*
X29885Y492904D01*
X29816Y492942D01*
X29745Y492978D01*
X29672Y493009D01*
X29598Y493037D01*
X29523Y493062D01*
X29447Y493082D01*
X29370Y493100D01*
X29292Y493113D01*
X29213Y493122D01*
X29134Y493128D01*
X29055Y493130D01*
X27418Y493130D01*
X27339Y493128D01*
X27260Y493122D01*
X27181Y493113D01*
X27103Y493100D01*
X27026Y493082D01*
X26950Y493062D01*
X26875Y493037D01*
X26801Y493009D01*
X26728Y492978D01*
X26657Y492942D01*
X26588Y492904D01*
X26521Y492862D01*
X26456Y492817D01*
X26393Y492769D01*
X26332Y492718D01*
X26275Y492664D01*
X26219Y492608D01*
X26167Y492549D01*
X26117Y492487D01*
X26071Y492423D01*
X26027Y492357D01*
X25987Y492289D01*
X25951Y492219D01*
X25917Y492147D01*
X25887Y492073D01*
X25861Y491999D01*
X25838Y491923D01*
X25820Y491846D01*
X25804Y491769D01*
X25793Y491690D01*
X25785Y491612D01*
X25781Y491533D01*
X25781Y491453D01*
X25785Y491374D01*
X25793Y491296D01*
X25804Y491217D01*
X25820Y491140D01*
X25838Y491063D01*
X25861Y490987D01*
X25887Y490913D01*
X25917Y490839D01*
X25951Y490767D01*
X25987Y490697D01*
X26027Y490629D01*
X26071Y490563D01*
X26117Y490499D01*
X26167Y490437D01*
X26219Y490378D01*
X26275Y490322D01*
X26332Y490268D01*
X26393Y490217D01*
X26456Y490169D01*
X26521Y490124D01*
X26588Y490082D01*
X26657Y490044D01*
X26728Y490008D01*
X26801Y489977D01*
X26875Y489949D01*
X26950Y489924D01*
X27026Y489904D01*
X27103Y489886D01*
X27181Y489873D01*
X27260Y489864D01*
X27339Y489858D01*
X27418Y489856D01*
X25781Y496597D02*
X30692Y496597D01*
X30692Y500280D01*
X30690Y500349D01*
X30684Y500417D01*
X30675Y500486D01*
X30661Y500553D01*
X30644Y500620D01*
X30623Y500686D01*
X30599Y500750D01*
X30570Y500813D01*
X30539Y500874D01*
X30504Y500933D01*
X30466Y500991D01*
X30424Y501046D01*
X30380Y501098D01*
X30332Y501148D01*
X30282Y501196D01*
X30230Y501240D01*
X30175Y501282D01*
X30117Y501320D01*
X30058Y501355D01*
X29997Y501386D01*
X29934Y501415D01*
X29870Y501439D01*
X29804Y501460D01*
X29737Y501477D01*
X29670Y501491D01*
X29601Y501500D01*
X29533Y501506D01*
X29464Y501508D01*
X29464Y501507D02*
X25781Y501507D01*
X25781Y499052D02*
X30692Y499052D01*
X29055Y504974D02*
X27418Y504974D01*
X29055Y504974D02*
X29134Y504976D01*
X29213Y504982D01*
X29292Y504991D01*
X29370Y505004D01*
X29447Y505022D01*
X29523Y505042D01*
X29598Y505067D01*
X29672Y505095D01*
X29745Y505126D01*
X29816Y505162D01*
X29885Y505200D01*
X29952Y505242D01*
X30017Y505287D01*
X30080Y505335D01*
X30141Y505386D01*
X30198Y505440D01*
X30254Y505496D01*
X30306Y505555D01*
X30356Y505617D01*
X30402Y505681D01*
X30446Y505747D01*
X30486Y505815D01*
X30522Y505885D01*
X30556Y505957D01*
X30586Y506031D01*
X30612Y506105D01*
X30635Y506181D01*
X30653Y506258D01*
X30669Y506335D01*
X30680Y506414D01*
X30688Y506492D01*
X30692Y506571D01*
X30692Y506651D01*
X30688Y506730D01*
X30680Y506808D01*
X30669Y506887D01*
X30653Y506964D01*
X30635Y507041D01*
X30612Y507117D01*
X30586Y507191D01*
X30556Y507265D01*
X30522Y507337D01*
X30486Y507407D01*
X30446Y507475D01*
X30402Y507541D01*
X30356Y507605D01*
X30306Y507667D01*
X30254Y507726D01*
X30198Y507782D01*
X30141Y507836D01*
X30080Y507887D01*
X30017Y507935D01*
X29952Y507980D01*
X29885Y508022D01*
X29816Y508060D01*
X29745Y508096D01*
X29672Y508127D01*
X29598Y508155D01*
X29523Y508180D01*
X29447Y508200D01*
X29370Y508218D01*
X29292Y508231D01*
X29213Y508240D01*
X29134Y508246D01*
X29055Y508248D01*
X27418Y508248D01*
X27339Y508246D01*
X27260Y508240D01*
X27181Y508231D01*
X27103Y508218D01*
X27026Y508200D01*
X26950Y508180D01*
X26875Y508155D01*
X26801Y508127D01*
X26728Y508096D01*
X26657Y508060D01*
X26588Y508022D01*
X26521Y507980D01*
X26456Y507935D01*
X26393Y507887D01*
X26332Y507836D01*
X26275Y507782D01*
X26219Y507726D01*
X26167Y507667D01*
X26117Y507605D01*
X26071Y507541D01*
X26027Y507475D01*
X25987Y507407D01*
X25951Y507337D01*
X25917Y507265D01*
X25887Y507191D01*
X25861Y507117D01*
X25838Y507041D01*
X25820Y506964D01*
X25804Y506887D01*
X25793Y506808D01*
X25785Y506730D01*
X25781Y506651D01*
X25781Y506571D01*
X25785Y506492D01*
X25793Y506414D01*
X25804Y506335D01*
X25820Y506258D01*
X25838Y506181D01*
X25861Y506105D01*
X25887Y506031D01*
X25917Y505957D01*
X25951Y505885D01*
X25987Y505815D01*
X26027Y505747D01*
X26071Y505681D01*
X26117Y505617D01*
X26167Y505555D01*
X26219Y505496D01*
X26275Y505440D01*
X26332Y505386D01*
X26393Y505335D01*
X26456Y505287D01*
X26521Y505242D01*
X26588Y505200D01*
X26657Y505162D01*
X26728Y505126D01*
X26801Y505095D01*
X26875Y505067D01*
X26950Y505042D01*
X27026Y505022D01*
X27103Y505004D01*
X27181Y504991D01*
X27260Y504982D01*
X27339Y504976D01*
X27418Y504974D01*
X25781Y514547D02*
X33147Y514547D01*
X25781Y514547D02*
X25781Y512501D01*
X25783Y512432D01*
X25789Y512364D01*
X25798Y512295D01*
X25812Y512228D01*
X25829Y512161D01*
X25850Y512095D01*
X25874Y512031D01*
X25903Y511968D01*
X25934Y511907D01*
X25969Y511848D01*
X26007Y511790D01*
X26049Y511735D01*
X26093Y511683D01*
X26141Y511633D01*
X26191Y511585D01*
X26243Y511541D01*
X26298Y511499D01*
X26356Y511461D01*
X26415Y511426D01*
X26476Y511395D01*
X26539Y511366D01*
X26603Y511342D01*
X26669Y511321D01*
X26736Y511304D01*
X26803Y511290D01*
X26872Y511281D01*
X26940Y511275D01*
X27009Y511273D01*
X29464Y511273D01*
X29533Y511275D01*
X29601Y511281D01*
X29670Y511290D01*
X29737Y511304D01*
X29804Y511321D01*
X29870Y511342D01*
X29934Y511366D01*
X29997Y511395D01*
X30058Y511426D01*
X30117Y511461D01*
X30175Y511499D01*
X30230Y511541D01*
X30282Y511585D01*
X30332Y511633D01*
X30380Y511683D01*
X30424Y511735D01*
X30466Y511790D01*
X30504Y511848D01*
X30539Y511907D01*
X30570Y511968D01*
X30599Y512031D01*
X30623Y512095D01*
X30644Y512161D01*
X30661Y512228D01*
X30675Y512295D01*
X30684Y512364D01*
X30690Y512432D01*
X30692Y512501D01*
X30692Y514547D01*
X29055Y517898D02*
X27418Y517898D01*
X29055Y517898D02*
X29134Y517900D01*
X29213Y517906D01*
X29292Y517915D01*
X29370Y517928D01*
X29447Y517946D01*
X29523Y517966D01*
X29598Y517991D01*
X29672Y518019D01*
X29745Y518050D01*
X29816Y518086D01*
X29885Y518124D01*
X29952Y518166D01*
X30017Y518211D01*
X30080Y518259D01*
X30141Y518310D01*
X30198Y518364D01*
X30254Y518420D01*
X30306Y518479D01*
X30356Y518541D01*
X30402Y518605D01*
X30446Y518671D01*
X30486Y518739D01*
X30522Y518809D01*
X30556Y518881D01*
X30586Y518955D01*
X30612Y519029D01*
X30635Y519105D01*
X30653Y519182D01*
X30669Y519259D01*
X30680Y519338D01*
X30688Y519416D01*
X30692Y519495D01*
X30692Y519575D01*
X30688Y519654D01*
X30680Y519732D01*
X30669Y519811D01*
X30653Y519888D01*
X30635Y519965D01*
X30612Y520041D01*
X30586Y520115D01*
X30556Y520189D01*
X30522Y520261D01*
X30486Y520331D01*
X30446Y520399D01*
X30402Y520465D01*
X30356Y520529D01*
X30306Y520591D01*
X30254Y520650D01*
X30198Y520706D01*
X30141Y520760D01*
X30080Y520811D01*
X30017Y520859D01*
X29952Y520904D01*
X29885Y520946D01*
X29816Y520984D01*
X29745Y521020D01*
X29672Y521051D01*
X29598Y521079D01*
X29523Y521104D01*
X29447Y521124D01*
X29370Y521142D01*
X29292Y521155D01*
X29213Y521164D01*
X29134Y521170D01*
X29055Y521172D01*
X29055Y521171D02*
X27418Y521171D01*
X27418Y521172D02*
X27339Y521170D01*
X27260Y521164D01*
X27181Y521155D01*
X27103Y521142D01*
X27026Y521124D01*
X26950Y521104D01*
X26875Y521079D01*
X26801Y521051D01*
X26728Y521020D01*
X26657Y520984D01*
X26588Y520946D01*
X26521Y520904D01*
X26456Y520859D01*
X26393Y520811D01*
X26332Y520760D01*
X26275Y520706D01*
X26219Y520650D01*
X26167Y520591D01*
X26117Y520529D01*
X26071Y520465D01*
X26027Y520399D01*
X25987Y520331D01*
X25951Y520261D01*
X25917Y520189D01*
X25887Y520115D01*
X25861Y520041D01*
X25838Y519965D01*
X25820Y519888D01*
X25804Y519811D01*
X25793Y519732D01*
X25785Y519654D01*
X25781Y519575D01*
X25781Y519495D01*
X25785Y519416D01*
X25793Y519338D01*
X25804Y519259D01*
X25820Y519182D01*
X25838Y519105D01*
X25861Y519029D01*
X25887Y518955D01*
X25917Y518881D01*
X25951Y518809D01*
X25987Y518739D01*
X26027Y518671D01*
X26071Y518605D01*
X26117Y518541D01*
X26167Y518479D01*
X26219Y518420D01*
X26275Y518364D01*
X26332Y518310D01*
X26393Y518259D01*
X26456Y518211D01*
X26521Y518166D01*
X26588Y518124D01*
X26657Y518086D01*
X26728Y518050D01*
X26801Y518019D01*
X26875Y517991D01*
X26950Y517966D01*
X27026Y517946D01*
X27103Y517928D01*
X27181Y517915D01*
X27260Y517906D01*
X27339Y517900D01*
X27418Y517898D01*
X25781Y524528D02*
X30692Y524528D01*
X30692Y526983D01*
X29873Y526983D01*
X29055Y529358D02*
X27418Y529358D01*
X29055Y529358D02*
X29134Y529360D01*
X29213Y529366D01*
X29292Y529375D01*
X29370Y529388D01*
X29447Y529406D01*
X29523Y529426D01*
X29598Y529451D01*
X29672Y529479D01*
X29745Y529510D01*
X29816Y529546D01*
X29885Y529584D01*
X29952Y529626D01*
X30017Y529671D01*
X30080Y529719D01*
X30141Y529770D01*
X30198Y529824D01*
X30254Y529880D01*
X30306Y529939D01*
X30356Y530001D01*
X30402Y530065D01*
X30446Y530131D01*
X30486Y530199D01*
X30522Y530269D01*
X30556Y530341D01*
X30586Y530415D01*
X30612Y530489D01*
X30635Y530565D01*
X30653Y530642D01*
X30669Y530719D01*
X30680Y530798D01*
X30688Y530876D01*
X30692Y530955D01*
X30692Y531035D01*
X30688Y531114D01*
X30680Y531192D01*
X30669Y531271D01*
X30653Y531348D01*
X30635Y531425D01*
X30612Y531501D01*
X30586Y531575D01*
X30556Y531649D01*
X30522Y531721D01*
X30486Y531791D01*
X30446Y531859D01*
X30402Y531925D01*
X30356Y531989D01*
X30306Y532051D01*
X30254Y532110D01*
X30198Y532166D01*
X30141Y532220D01*
X30080Y532271D01*
X30017Y532319D01*
X29952Y532364D01*
X29885Y532406D01*
X29816Y532444D01*
X29745Y532480D01*
X29672Y532511D01*
X29598Y532539D01*
X29523Y532564D01*
X29447Y532584D01*
X29370Y532602D01*
X29292Y532615D01*
X29213Y532624D01*
X29134Y532630D01*
X29055Y532632D01*
X27418Y532632D01*
X27339Y532630D01*
X27260Y532624D01*
X27181Y532615D01*
X27103Y532602D01*
X27026Y532584D01*
X26950Y532564D01*
X26875Y532539D01*
X26801Y532511D01*
X26728Y532480D01*
X26657Y532444D01*
X26588Y532406D01*
X26521Y532364D01*
X26456Y532319D01*
X26393Y532271D01*
X26332Y532220D01*
X26275Y532166D01*
X26219Y532110D01*
X26167Y532051D01*
X26117Y531989D01*
X26071Y531925D01*
X26027Y531859D01*
X25987Y531791D01*
X25951Y531721D01*
X25917Y531649D01*
X25887Y531575D01*
X25861Y531501D01*
X25838Y531425D01*
X25820Y531348D01*
X25804Y531271D01*
X25793Y531192D01*
X25785Y531114D01*
X25781Y531035D01*
X25781Y530955D01*
X25785Y530876D01*
X25793Y530798D01*
X25804Y530719D01*
X25820Y530642D01*
X25838Y530565D01*
X25861Y530489D01*
X25887Y530415D01*
X25917Y530341D01*
X25951Y530269D01*
X25987Y530199D01*
X26027Y530131D01*
X26071Y530065D01*
X26117Y530001D01*
X26167Y529939D01*
X26219Y529880D01*
X26275Y529824D01*
X26332Y529770D01*
X26393Y529719D01*
X26456Y529671D01*
X26521Y529626D01*
X26588Y529584D01*
X26657Y529546D01*
X26728Y529510D01*
X26801Y529479D01*
X26875Y529451D01*
X26950Y529426D01*
X27026Y529406D01*
X27103Y529388D01*
X27181Y529375D01*
X27260Y529366D01*
X27339Y529360D01*
X27418Y529358D01*
X25781Y541236D02*
X33147Y541236D01*
X33147Y539190D02*
X33147Y543282D01*
X30692Y545869D02*
X25781Y545869D01*
X32738Y545665D02*
X33147Y545665D01*
X33147Y546074D01*
X32738Y546074D01*
X32738Y545665D01*
X30692Y549266D02*
X25781Y549266D01*
X30692Y549266D02*
X30692Y552949D01*
X30690Y553018D01*
X30684Y553086D01*
X30675Y553155D01*
X30661Y553222D01*
X30644Y553289D01*
X30623Y553355D01*
X30599Y553419D01*
X30570Y553482D01*
X30539Y553543D01*
X30504Y553602D01*
X30466Y553660D01*
X30424Y553715D01*
X30380Y553767D01*
X30332Y553817D01*
X30282Y553865D01*
X30230Y553909D01*
X30175Y553951D01*
X30117Y553989D01*
X30058Y554024D01*
X29997Y554055D01*
X29934Y554084D01*
X29870Y554108D01*
X29804Y554129D01*
X29737Y554146D01*
X29670Y554160D01*
X29601Y554169D01*
X29533Y554175D01*
X29464Y554177D01*
X25781Y554177D01*
X25781Y551721D02*
X30692Y551721D01*
X25781Y558871D02*
X25781Y560917D01*
X25781Y558871D02*
X25783Y558802D01*
X25789Y558734D01*
X25798Y558665D01*
X25812Y558598D01*
X25829Y558531D01*
X25850Y558465D01*
X25874Y558401D01*
X25903Y558338D01*
X25934Y558277D01*
X25969Y558218D01*
X26007Y558160D01*
X26049Y558105D01*
X26093Y558053D01*
X26141Y558003D01*
X26191Y557955D01*
X26243Y557911D01*
X26298Y557869D01*
X26356Y557831D01*
X26415Y557796D01*
X26476Y557765D01*
X26539Y557736D01*
X26603Y557712D01*
X26669Y557691D01*
X26736Y557674D01*
X26803Y557660D01*
X26872Y557651D01*
X26940Y557645D01*
X27009Y557643D01*
X29055Y557643D01*
X29134Y557645D01*
X29213Y557651D01*
X29292Y557660D01*
X29370Y557673D01*
X29447Y557691D01*
X29523Y557711D01*
X29598Y557736D01*
X29672Y557764D01*
X29745Y557795D01*
X29816Y557831D01*
X29885Y557869D01*
X29952Y557911D01*
X30017Y557956D01*
X30080Y558004D01*
X30141Y558055D01*
X30198Y558109D01*
X30254Y558165D01*
X30306Y558224D01*
X30356Y558286D01*
X30402Y558350D01*
X30446Y558416D01*
X30486Y558484D01*
X30522Y558554D01*
X30556Y558626D01*
X30586Y558700D01*
X30612Y558774D01*
X30635Y558850D01*
X30653Y558927D01*
X30669Y559004D01*
X30680Y559083D01*
X30688Y559161D01*
X30692Y559240D01*
X30692Y559320D01*
X30688Y559399D01*
X30680Y559477D01*
X30669Y559556D01*
X30653Y559633D01*
X30635Y559710D01*
X30612Y559786D01*
X30586Y559860D01*
X30556Y559934D01*
X30522Y560006D01*
X30486Y560076D01*
X30446Y560144D01*
X30402Y560210D01*
X30356Y560274D01*
X30306Y560336D01*
X30254Y560395D01*
X30198Y560451D01*
X30141Y560505D01*
X30080Y560556D01*
X30017Y560604D01*
X29952Y560649D01*
X29885Y560691D01*
X29816Y560729D01*
X29745Y560765D01*
X29672Y560796D01*
X29598Y560824D01*
X29523Y560849D01*
X29447Y560869D01*
X29370Y560887D01*
X29292Y560900D01*
X29213Y560909D01*
X29134Y560915D01*
X29055Y560917D01*
X28236Y560917D01*
X28236Y557643D01*
X25781Y564273D02*
X30692Y564273D01*
X30692Y566729D01*
X29873Y566729D01*
X30692Y572761D02*
X25781Y574398D01*
X30692Y576035D01*
X31510Y578936D02*
X33147Y580982D01*
X25781Y580982D01*
X25781Y578936D02*
X25781Y583028D01*
X25781Y585898D02*
X26190Y585898D01*
X26190Y586307D01*
X25781Y586307D01*
X25781Y585898D01*
X29464Y589177D02*
X29617Y589179D01*
X29770Y589185D01*
X29922Y589194D01*
X30075Y589208D01*
X30227Y589225D01*
X30378Y589246D01*
X30529Y589271D01*
X30679Y589300D01*
X30829Y589332D01*
X30977Y589369D01*
X31125Y589409D01*
X31272Y589452D01*
X31417Y589500D01*
X31561Y589551D01*
X31704Y589605D01*
X31846Y589664D01*
X31985Y589725D01*
X32124Y589791D01*
X32194Y589817D01*
X32264Y589847D01*
X32331Y589880D01*
X32397Y589916D01*
X32461Y589955D01*
X32523Y589998D01*
X32582Y590044D01*
X32640Y590092D01*
X32694Y590143D01*
X32747Y590197D01*
X32796Y590254D01*
X32843Y590313D01*
X32886Y590374D01*
X32927Y590437D01*
X32964Y590502D01*
X32999Y590569D01*
X33029Y590638D01*
X33057Y590708D01*
X33080Y590779D01*
X33101Y590851D01*
X33117Y590924D01*
X33130Y590998D01*
X33140Y591073D01*
X33145Y591148D01*
X33147Y591223D01*
X33145Y591298D01*
X33140Y591373D01*
X33130Y591448D01*
X33117Y591522D01*
X33101Y591595D01*
X33080Y591667D01*
X33057Y591738D01*
X33029Y591808D01*
X32999Y591877D01*
X32964Y591944D01*
X32927Y592009D01*
X32886Y592072D01*
X32843Y592133D01*
X32796Y592192D01*
X32747Y592249D01*
X32694Y592303D01*
X32640Y592354D01*
X32582Y592403D01*
X32523Y592448D01*
X32461Y592491D01*
X32397Y592530D01*
X32331Y592567D01*
X32263Y592599D01*
X32194Y592629D01*
X32124Y592655D01*
X31986Y592720D01*
X31846Y592782D01*
X31704Y592840D01*
X31561Y592895D01*
X31417Y592946D01*
X31272Y592994D01*
X31125Y593037D01*
X30978Y593077D01*
X30829Y593114D01*
X30679Y593146D01*
X30529Y593175D01*
X30378Y593200D01*
X30227Y593221D01*
X30075Y593238D01*
X29922Y593252D01*
X29770Y593261D01*
X29617Y593267D01*
X29464Y593269D01*
X29464Y589177D02*
X29311Y589179D01*
X29158Y589185D01*
X29005Y589194D01*
X28853Y589208D01*
X28701Y589225D01*
X28550Y589246D01*
X28399Y589271D01*
X28248Y589300D01*
X28099Y589332D01*
X27950Y589369D01*
X27803Y589409D01*
X27656Y589452D01*
X27511Y589500D01*
X27366Y589551D01*
X27224Y589606D01*
X27082Y589664D01*
X26942Y589726D01*
X26804Y589791D01*
X26733Y589817D01*
X26664Y589847D01*
X26597Y589880D01*
X26531Y589916D01*
X26467Y589955D01*
X26405Y589998D01*
X26346Y590044D01*
X26288Y590092D01*
X26234Y590143D01*
X26181Y590197D01*
X26132Y590254D01*
X26085Y590313D01*
X26042Y590374D01*
X26001Y590437D01*
X25964Y590502D01*
X25929Y590569D01*
X25899Y590638D01*
X25871Y590708D01*
X25848Y590779D01*
X25827Y590851D01*
X25811Y590924D01*
X25798Y590998D01*
X25788Y591073D01*
X25783Y591148D01*
X25781Y591223D01*
X26804Y592655D02*
X26942Y592720D01*
X27082Y592782D01*
X27224Y592840D01*
X27367Y592895D01*
X27511Y592946D01*
X27656Y592994D01*
X27803Y593037D01*
X27951Y593077D01*
X28099Y593114D01*
X28249Y593146D01*
X28399Y593175D01*
X28550Y593200D01*
X28701Y593221D01*
X28853Y593238D01*
X29006Y593252D01*
X29158Y593261D01*
X29311Y593267D01*
X29464Y593269D01*
X26804Y592655D02*
X26734Y592629D01*
X26664Y592599D01*
X26597Y592567D01*
X26531Y592530D01*
X26467Y592491D01*
X26405Y592448D01*
X26346Y592402D01*
X26288Y592354D01*
X26234Y592303D01*
X26181Y592249D01*
X26132Y592192D01*
X26085Y592133D01*
X26042Y592072D01*
X26001Y592009D01*
X25964Y591944D01*
X25929Y591877D01*
X25899Y591808D01*
X25871Y591738D01*
X25848Y591667D01*
X25827Y591595D01*
X25811Y591522D01*
X25798Y591448D01*
X25788Y591373D01*
X25783Y591298D01*
X25781Y591223D01*
X27418Y589586D02*
X31510Y592860D01*
X33147Y600689D02*
X25781Y600689D01*
X33147Y600689D02*
X33147Y602735D01*
X33145Y602824D01*
X33139Y602913D01*
X33129Y603002D01*
X33116Y603090D01*
X33099Y603178D01*
X33077Y603265D01*
X33052Y603350D01*
X33024Y603435D01*
X32991Y603518D01*
X32955Y603600D01*
X32916Y603680D01*
X32873Y603758D01*
X32827Y603834D01*
X32777Y603909D01*
X32724Y603981D01*
X32668Y604050D01*
X32609Y604117D01*
X32548Y604182D01*
X32483Y604243D01*
X32416Y604302D01*
X32347Y604358D01*
X32275Y604411D01*
X32200Y604461D01*
X32124Y604507D01*
X32046Y604550D01*
X31966Y604589D01*
X31884Y604625D01*
X31801Y604658D01*
X31716Y604686D01*
X31631Y604711D01*
X31544Y604733D01*
X31456Y604750D01*
X31368Y604763D01*
X31279Y604773D01*
X31190Y604779D01*
X31101Y604781D01*
X31012Y604779D01*
X30923Y604773D01*
X30834Y604763D01*
X30746Y604750D01*
X30658Y604733D01*
X30571Y604711D01*
X30486Y604686D01*
X30401Y604658D01*
X30318Y604625D01*
X30236Y604589D01*
X30156Y604550D01*
X30078Y604507D01*
X30002Y604461D01*
X29927Y604411D01*
X29855Y604358D01*
X29786Y604302D01*
X29719Y604243D01*
X29654Y604182D01*
X29593Y604117D01*
X29534Y604050D01*
X29478Y603981D01*
X29425Y603909D01*
X29375Y603834D01*
X29329Y603758D01*
X29286Y603680D01*
X29247Y603600D01*
X29211Y603518D01*
X29178Y603435D01*
X29150Y603350D01*
X29125Y603265D01*
X29103Y603178D01*
X29086Y603090D01*
X29073Y603002D01*
X29063Y602913D01*
X29057Y602824D01*
X29055Y602735D01*
X29055Y600689D01*
X29055Y603144D02*
X25781Y604781D01*
X25781Y609102D02*
X25781Y611148D01*
X25781Y609102D02*
X25783Y609033D01*
X25789Y608965D01*
X25798Y608896D01*
X25812Y608829D01*
X25829Y608762D01*
X25850Y608696D01*
X25874Y608632D01*
X25903Y608569D01*
X25934Y608508D01*
X25969Y608449D01*
X26007Y608391D01*
X26049Y608336D01*
X26093Y608284D01*
X26141Y608234D01*
X26191Y608186D01*
X26243Y608142D01*
X26298Y608100D01*
X26356Y608062D01*
X26415Y608027D01*
X26476Y607996D01*
X26539Y607967D01*
X26603Y607943D01*
X26669Y607922D01*
X26736Y607905D01*
X26803Y607891D01*
X26872Y607882D01*
X26940Y607876D01*
X27009Y607874D01*
X29055Y607874D01*
X29134Y607876D01*
X29213Y607882D01*
X29292Y607891D01*
X29370Y607904D01*
X29447Y607922D01*
X29523Y607942D01*
X29598Y607967D01*
X29672Y607995D01*
X29745Y608026D01*
X29816Y608062D01*
X29885Y608100D01*
X29952Y608142D01*
X30017Y608187D01*
X30080Y608235D01*
X30141Y608286D01*
X30198Y608340D01*
X30254Y608396D01*
X30306Y608455D01*
X30356Y608517D01*
X30402Y608581D01*
X30446Y608647D01*
X30486Y608715D01*
X30522Y608785D01*
X30556Y608857D01*
X30586Y608931D01*
X30612Y609005D01*
X30635Y609081D01*
X30653Y609158D01*
X30669Y609235D01*
X30680Y609314D01*
X30688Y609392D01*
X30692Y609471D01*
X30692Y609551D01*
X30688Y609630D01*
X30680Y609708D01*
X30669Y609787D01*
X30653Y609864D01*
X30635Y609941D01*
X30612Y610017D01*
X30586Y610091D01*
X30556Y610165D01*
X30522Y610237D01*
X30486Y610307D01*
X30446Y610375D01*
X30402Y610441D01*
X30356Y610505D01*
X30306Y610567D01*
X30254Y610626D01*
X30198Y610682D01*
X30141Y610736D01*
X30080Y610787D01*
X30017Y610835D01*
X29952Y610880D01*
X29885Y610922D01*
X29816Y610960D01*
X29745Y610996D01*
X29672Y611027D01*
X29598Y611055D01*
X29523Y611080D01*
X29447Y611100D01*
X29370Y611118D01*
X29292Y611131D01*
X29213Y611140D01*
X29134Y611146D01*
X29055Y611148D01*
X28236Y611148D01*
X28236Y607874D01*
X30692Y613970D02*
X25781Y615607D01*
X30692Y617244D01*
X29873Y620506D02*
X29873Y622552D01*
X29871Y622641D01*
X29865Y622730D01*
X29855Y622819D01*
X29842Y622907D01*
X29825Y622995D01*
X29803Y623082D01*
X29778Y623167D01*
X29750Y623252D01*
X29717Y623335D01*
X29681Y623417D01*
X29642Y623497D01*
X29599Y623575D01*
X29553Y623651D01*
X29503Y623726D01*
X29450Y623798D01*
X29394Y623867D01*
X29335Y623934D01*
X29274Y623999D01*
X29209Y624060D01*
X29142Y624119D01*
X29073Y624175D01*
X29001Y624228D01*
X28926Y624278D01*
X28850Y624324D01*
X28772Y624367D01*
X28692Y624406D01*
X28610Y624442D01*
X28527Y624475D01*
X28442Y624503D01*
X28357Y624528D01*
X28270Y624550D01*
X28182Y624567D01*
X28094Y624580D01*
X28005Y624590D01*
X27916Y624596D01*
X27827Y624598D01*
X27738Y624596D01*
X27649Y624590D01*
X27560Y624580D01*
X27472Y624567D01*
X27384Y624550D01*
X27297Y624528D01*
X27212Y624503D01*
X27127Y624475D01*
X27044Y624442D01*
X26962Y624406D01*
X26882Y624367D01*
X26804Y624324D01*
X26728Y624278D01*
X26653Y624228D01*
X26581Y624175D01*
X26512Y624119D01*
X26445Y624060D01*
X26380Y623999D01*
X26319Y623934D01*
X26260Y623867D01*
X26204Y623798D01*
X26151Y623726D01*
X26101Y623651D01*
X26055Y623575D01*
X26012Y623497D01*
X25973Y623417D01*
X25937Y623335D01*
X25904Y623252D01*
X25876Y623167D01*
X25851Y623082D01*
X25829Y622995D01*
X25812Y622907D01*
X25799Y622819D01*
X25789Y622730D01*
X25783Y622641D01*
X25781Y622552D01*
X25781Y620506D01*
X33147Y620506D01*
X33147Y622552D01*
X33145Y622631D01*
X33139Y622710D01*
X33130Y622789D01*
X33117Y622867D01*
X33099Y622944D01*
X33079Y623020D01*
X33054Y623095D01*
X33026Y623169D01*
X32995Y623242D01*
X32959Y623313D01*
X32921Y623382D01*
X32879Y623449D01*
X32834Y623514D01*
X32786Y623577D01*
X32735Y623638D01*
X32681Y623695D01*
X32625Y623751D01*
X32566Y623803D01*
X32504Y623853D01*
X32440Y623899D01*
X32374Y623943D01*
X32306Y623983D01*
X32236Y624019D01*
X32164Y624053D01*
X32090Y624083D01*
X32016Y624109D01*
X31940Y624132D01*
X31863Y624150D01*
X31786Y624166D01*
X31707Y624177D01*
X31629Y624185D01*
X31550Y624189D01*
X31470Y624189D01*
X31391Y624185D01*
X31313Y624177D01*
X31234Y624166D01*
X31157Y624150D01*
X31080Y624132D01*
X31004Y624109D01*
X30930Y624083D01*
X30856Y624053D01*
X30784Y624019D01*
X30714Y623983D01*
X30646Y623943D01*
X30580Y623899D01*
X30516Y623853D01*
X30454Y623803D01*
X30395Y623751D01*
X30339Y623695D01*
X30285Y623638D01*
X30234Y623577D01*
X30186Y623514D01*
X30141Y623449D01*
X30099Y623382D01*
X30061Y623313D01*
X30025Y623242D01*
X29994Y623169D01*
X29966Y623095D01*
X29941Y623020D01*
X29921Y622944D01*
X29903Y622867D01*
X29890Y622789D01*
X29881Y622710D01*
X29875Y622631D01*
X29873Y622552D01*
D11*
X302500Y621650D02*
X302500Y64150D01*
X302500Y621650D02*
X78500Y621650D01*
X78500Y64150D01*
X302500Y64150D01*
D12*
X251738Y520662D02*
X233262Y520662D01*
X251738Y520662D02*
X251738Y525794D01*
X251736Y525935D01*
X251730Y526077D01*
X251720Y526218D01*
X251707Y526359D01*
X251689Y526499D01*
X251668Y526639D01*
X251643Y526778D01*
X251614Y526916D01*
X251581Y527054D01*
X251544Y527190D01*
X251504Y527326D01*
X251460Y527460D01*
X251412Y527593D01*
X251361Y527725D01*
X251306Y527856D01*
X251247Y527984D01*
X251185Y528111D01*
X251119Y528237D01*
X251050Y528360D01*
X250978Y528481D01*
X250902Y528601D01*
X250823Y528718D01*
X250741Y528833D01*
X250656Y528946D01*
X250567Y529057D01*
X250476Y529164D01*
X250382Y529270D01*
X250285Y529373D01*
X250185Y529473D01*
X250082Y529570D01*
X249976Y529664D01*
X249869Y529755D01*
X249758Y529844D01*
X249645Y529929D01*
X249530Y530011D01*
X249413Y530090D01*
X249293Y530166D01*
X249172Y530238D01*
X249049Y530307D01*
X248923Y530373D01*
X248796Y530435D01*
X248668Y530494D01*
X248537Y530549D01*
X248405Y530600D01*
X248272Y530648D01*
X248138Y530692D01*
X248002Y530732D01*
X247866Y530769D01*
X247728Y530802D01*
X247590Y530831D01*
X247451Y530856D01*
X247311Y530877D01*
X247171Y530895D01*
X247030Y530908D01*
X246889Y530918D01*
X246747Y530924D01*
X246606Y530926D01*
X246465Y530924D01*
X246323Y530918D01*
X246182Y530908D01*
X246041Y530895D01*
X245901Y530877D01*
X245761Y530856D01*
X245622Y530831D01*
X245484Y530802D01*
X245346Y530769D01*
X245210Y530732D01*
X245074Y530692D01*
X244940Y530648D01*
X244807Y530600D01*
X244675Y530549D01*
X244544Y530494D01*
X244416Y530435D01*
X244289Y530373D01*
X244163Y530307D01*
X244040Y530238D01*
X243919Y530166D01*
X243799Y530090D01*
X243682Y530011D01*
X243567Y529929D01*
X243454Y529844D01*
X243343Y529755D01*
X243236Y529664D01*
X243130Y529570D01*
X243027Y529473D01*
X242927Y529373D01*
X242830Y529270D01*
X242736Y529164D01*
X242645Y529057D01*
X242556Y528946D01*
X242471Y528833D01*
X242389Y528718D01*
X242310Y528601D01*
X242234Y528481D01*
X242162Y528360D01*
X242093Y528237D01*
X242027Y528111D01*
X241965Y527984D01*
X241906Y527856D01*
X241851Y527725D01*
X241800Y527593D01*
X241752Y527460D01*
X241708Y527326D01*
X241668Y527190D01*
X241631Y527054D01*
X241598Y526916D01*
X241569Y526778D01*
X241544Y526639D01*
X241523Y526499D01*
X241505Y526359D01*
X241492Y526218D01*
X241482Y526077D01*
X241476Y525935D01*
X241474Y525794D01*
X241474Y520662D01*
X238394Y537148D02*
X246606Y537148D01*
X246747Y537150D01*
X246889Y537156D01*
X247030Y537166D01*
X247171Y537179D01*
X247311Y537197D01*
X247451Y537218D01*
X247590Y537243D01*
X247728Y537272D01*
X247866Y537305D01*
X248002Y537342D01*
X248138Y537382D01*
X248272Y537426D01*
X248405Y537474D01*
X248537Y537525D01*
X248668Y537580D01*
X248796Y537639D01*
X248923Y537701D01*
X249049Y537767D01*
X249172Y537836D01*
X249293Y537908D01*
X249413Y537984D01*
X249530Y538063D01*
X249645Y538145D01*
X249758Y538230D01*
X249869Y538319D01*
X249976Y538410D01*
X250082Y538504D01*
X250185Y538601D01*
X250285Y538701D01*
X250382Y538804D01*
X250476Y538910D01*
X250567Y539017D01*
X250656Y539128D01*
X250741Y539241D01*
X250823Y539356D01*
X250902Y539473D01*
X250978Y539593D01*
X251050Y539714D01*
X251119Y539837D01*
X251185Y539963D01*
X251247Y540090D01*
X251306Y540218D01*
X251361Y540349D01*
X251412Y540481D01*
X251460Y540614D01*
X251504Y540748D01*
X251544Y540884D01*
X251581Y541020D01*
X251614Y541158D01*
X251643Y541296D01*
X251668Y541435D01*
X251689Y541575D01*
X251707Y541715D01*
X251720Y541856D01*
X251730Y541997D01*
X251736Y542139D01*
X251738Y542280D01*
X251736Y542421D01*
X251730Y542563D01*
X251720Y542704D01*
X251707Y542845D01*
X251689Y542985D01*
X251668Y543125D01*
X251643Y543264D01*
X251614Y543402D01*
X251581Y543540D01*
X251544Y543676D01*
X251504Y543812D01*
X251460Y543946D01*
X251412Y544079D01*
X251361Y544211D01*
X251306Y544342D01*
X251247Y544470D01*
X251185Y544597D01*
X251119Y544723D01*
X251050Y544846D01*
X250978Y544967D01*
X250902Y545087D01*
X250823Y545204D01*
X250741Y545319D01*
X250656Y545432D01*
X250567Y545543D01*
X250476Y545650D01*
X250382Y545756D01*
X250285Y545859D01*
X250185Y545959D01*
X250082Y546056D01*
X249976Y546150D01*
X249869Y546241D01*
X249758Y546330D01*
X249645Y546415D01*
X249530Y546497D01*
X249413Y546576D01*
X249293Y546652D01*
X249172Y546724D01*
X249049Y546793D01*
X248923Y546859D01*
X248796Y546921D01*
X248668Y546980D01*
X248537Y547035D01*
X248405Y547086D01*
X248272Y547134D01*
X248138Y547178D01*
X248002Y547218D01*
X247866Y547255D01*
X247728Y547288D01*
X247590Y547317D01*
X247451Y547342D01*
X247311Y547363D01*
X247171Y547381D01*
X247030Y547394D01*
X246889Y547404D01*
X246747Y547410D01*
X246606Y547412D01*
X238394Y547412D01*
X238253Y547410D01*
X238111Y547404D01*
X237970Y547394D01*
X237829Y547381D01*
X237689Y547363D01*
X237549Y547342D01*
X237410Y547317D01*
X237272Y547288D01*
X237134Y547255D01*
X236998Y547218D01*
X236862Y547178D01*
X236728Y547134D01*
X236595Y547086D01*
X236463Y547035D01*
X236332Y546980D01*
X236204Y546921D01*
X236077Y546859D01*
X235951Y546793D01*
X235828Y546724D01*
X235707Y546652D01*
X235587Y546576D01*
X235470Y546497D01*
X235355Y546415D01*
X235242Y546330D01*
X235131Y546241D01*
X235024Y546150D01*
X234918Y546056D01*
X234815Y545959D01*
X234715Y545859D01*
X234618Y545756D01*
X234524Y545650D01*
X234433Y545543D01*
X234344Y545432D01*
X234259Y545319D01*
X234177Y545204D01*
X234098Y545087D01*
X234022Y544967D01*
X233950Y544846D01*
X233881Y544723D01*
X233815Y544597D01*
X233753Y544470D01*
X233694Y544342D01*
X233639Y544211D01*
X233588Y544079D01*
X233540Y543946D01*
X233496Y543812D01*
X233456Y543676D01*
X233419Y543540D01*
X233386Y543402D01*
X233357Y543264D01*
X233332Y543125D01*
X233311Y542985D01*
X233293Y542845D01*
X233280Y542704D01*
X233270Y542563D01*
X233264Y542421D01*
X233262Y542280D01*
X233264Y542139D01*
X233270Y541997D01*
X233280Y541856D01*
X233293Y541715D01*
X233311Y541575D01*
X233332Y541435D01*
X233357Y541296D01*
X233386Y541158D01*
X233419Y541020D01*
X233456Y540884D01*
X233496Y540748D01*
X233540Y540614D01*
X233588Y540481D01*
X233639Y540349D01*
X233694Y540218D01*
X233753Y540090D01*
X233815Y539963D01*
X233881Y539837D01*
X233950Y539714D01*
X234022Y539593D01*
X234098Y539473D01*
X234177Y539356D01*
X234259Y539241D01*
X234344Y539128D01*
X234433Y539017D01*
X234524Y538910D01*
X234618Y538804D01*
X234715Y538701D01*
X234815Y538601D01*
X234918Y538504D01*
X235024Y538410D01*
X235131Y538319D01*
X235242Y538230D01*
X235355Y538145D01*
X235470Y538063D01*
X235587Y537984D01*
X235707Y537908D01*
X235828Y537836D01*
X235951Y537767D01*
X236077Y537701D01*
X236204Y537639D01*
X236332Y537580D01*
X236463Y537525D01*
X236595Y537474D01*
X236728Y537426D01*
X236862Y537382D01*
X236998Y537342D01*
X237134Y537305D01*
X237272Y537272D01*
X237410Y537243D01*
X237549Y537218D01*
X237689Y537197D01*
X237829Y537179D01*
X237970Y537166D01*
X238111Y537156D01*
X238253Y537150D01*
X238394Y537148D01*
X233262Y559981D02*
X233264Y560107D01*
X233270Y560234D01*
X233280Y560360D01*
X233293Y560486D01*
X233311Y560611D01*
X233332Y560735D01*
X233357Y560859D01*
X233386Y560983D01*
X233419Y561105D01*
X233455Y561226D01*
X233495Y561346D01*
X233539Y561464D01*
X233587Y561581D01*
X233638Y561697D01*
X233692Y561811D01*
X233751Y561924D01*
X233812Y562034D01*
X233877Y562143D01*
X233945Y562249D01*
X234017Y562353D01*
X234091Y562455D01*
X234169Y562555D01*
X234250Y562652D01*
X234334Y562747D01*
X234420Y562839D01*
X234510Y562929D01*
X234602Y563015D01*
X234697Y563099D01*
X234794Y563180D01*
X234894Y563258D01*
X234996Y563332D01*
X235100Y563404D01*
X235206Y563472D01*
X235315Y563537D01*
X235425Y563598D01*
X235538Y563657D01*
X235652Y563711D01*
X235768Y563762D01*
X235885Y563810D01*
X236003Y563854D01*
X236123Y563894D01*
X236244Y563930D01*
X236366Y563963D01*
X236490Y563992D01*
X236614Y564017D01*
X236738Y564038D01*
X236863Y564056D01*
X236989Y564069D01*
X237115Y564079D01*
X237242Y564085D01*
X237368Y564087D01*
X233262Y559981D02*
X233264Y559773D01*
X233272Y559566D01*
X233284Y559359D01*
X233302Y559152D01*
X233324Y558946D01*
X233351Y558740D01*
X233383Y558535D01*
X233420Y558331D01*
X233462Y558128D01*
X233509Y557925D01*
X233561Y557724D01*
X233617Y557525D01*
X233678Y557326D01*
X233744Y557129D01*
X233815Y556934D01*
X233890Y556741D01*
X233970Y556549D01*
X234054Y556360D01*
X234143Y556172D01*
X234236Y555987D01*
X234334Y555804D01*
X234436Y555623D01*
X234543Y555445D01*
X234653Y555269D01*
X234768Y555096D01*
X234887Y554926D01*
X235010Y554759D01*
X235137Y554595D01*
X235268Y554434D01*
X235402Y554276D01*
X235541Y554121D01*
X235683Y553970D01*
X235828Y553822D01*
X247632Y554336D02*
X247758Y554338D01*
X247885Y554344D01*
X248011Y554354D01*
X248137Y554367D01*
X248262Y554385D01*
X248386Y554406D01*
X248510Y554431D01*
X248634Y554460D01*
X248756Y554493D01*
X248877Y554529D01*
X248997Y554569D01*
X249115Y554613D01*
X249232Y554661D01*
X249348Y554712D01*
X249462Y554766D01*
X249575Y554825D01*
X249685Y554886D01*
X249794Y554951D01*
X249900Y555019D01*
X250004Y555091D01*
X250106Y555165D01*
X250206Y555243D01*
X250303Y555324D01*
X250398Y555408D01*
X250490Y555494D01*
X250580Y555584D01*
X250666Y555676D01*
X250750Y555771D01*
X250831Y555868D01*
X250909Y555968D01*
X250983Y556070D01*
X251055Y556174D01*
X251123Y556280D01*
X251188Y556389D01*
X251249Y556499D01*
X251308Y556612D01*
X251362Y556726D01*
X251413Y556842D01*
X251461Y556959D01*
X251505Y557077D01*
X251545Y557197D01*
X251581Y557318D01*
X251614Y557441D01*
X251643Y557564D01*
X251668Y557688D01*
X251689Y557812D01*
X251707Y557937D01*
X251720Y558063D01*
X251730Y558189D01*
X251736Y558316D01*
X251738Y558442D01*
X251738Y558441D02*
X251736Y558625D01*
X251729Y558808D01*
X251718Y558991D01*
X251703Y559174D01*
X251683Y559356D01*
X251659Y559538D01*
X251631Y559719D01*
X251598Y559900D01*
X251562Y560080D01*
X251520Y560258D01*
X251475Y560436D01*
X251425Y560613D01*
X251371Y560788D01*
X251313Y560962D01*
X251251Y561135D01*
X251185Y561306D01*
X251115Y561475D01*
X251040Y561643D01*
X250962Y561809D01*
X250880Y561973D01*
X250794Y562135D01*
X250704Y562295D01*
X250610Y562453D01*
X250513Y562608D01*
X250411Y562761D01*
X250307Y562912D01*
X250198Y563060D01*
X244039Y556389D02*
X244106Y556280D01*
X244175Y556174D01*
X244248Y556069D01*
X244324Y555967D01*
X244403Y555867D01*
X244485Y555770D01*
X244570Y555675D01*
X244658Y555583D01*
X244749Y555493D01*
X244842Y555407D01*
X244938Y555323D01*
X245037Y555242D01*
X245137Y555164D01*
X245241Y555090D01*
X245346Y555018D01*
X245454Y554950D01*
X245563Y554885D01*
X245675Y554824D01*
X245788Y554766D01*
X245903Y554711D01*
X246020Y554660D01*
X246138Y554613D01*
X246257Y554569D01*
X246378Y554529D01*
X246500Y554493D01*
X246623Y554460D01*
X246747Y554431D01*
X246872Y554406D01*
X246998Y554385D01*
X247124Y554367D01*
X247251Y554353D01*
X247377Y554344D01*
X247505Y554338D01*
X247632Y554336D01*
X240961Y562034D02*
X240894Y562143D01*
X240825Y562249D01*
X240752Y562354D01*
X240676Y562456D01*
X240597Y562556D01*
X240515Y562653D01*
X240430Y562748D01*
X240342Y562840D01*
X240251Y562930D01*
X240158Y563016D01*
X240062Y563100D01*
X239964Y563181D01*
X239863Y563258D01*
X239759Y563333D01*
X239654Y563405D01*
X239546Y563473D01*
X239437Y563538D01*
X239325Y563599D01*
X239212Y563657D01*
X239097Y563712D01*
X238980Y563763D01*
X238862Y563810D01*
X238743Y563854D01*
X238622Y563894D01*
X238500Y563930D01*
X238377Y563963D01*
X238253Y563992D01*
X238128Y564017D01*
X238002Y564038D01*
X237876Y564056D01*
X237749Y564070D01*
X237623Y564079D01*
X237495Y564085D01*
X237368Y564087D01*
X240960Y562034D02*
X244040Y556389D01*
X147738Y124662D02*
X129262Y124662D01*
X147738Y124662D02*
X147738Y129794D01*
X147736Y129935D01*
X147730Y130077D01*
X147720Y130218D01*
X147707Y130359D01*
X147689Y130499D01*
X147668Y130639D01*
X147643Y130778D01*
X147614Y130916D01*
X147581Y131054D01*
X147544Y131190D01*
X147504Y131326D01*
X147460Y131460D01*
X147412Y131593D01*
X147361Y131725D01*
X147306Y131856D01*
X147247Y131984D01*
X147185Y132111D01*
X147119Y132237D01*
X147050Y132360D01*
X146978Y132481D01*
X146902Y132601D01*
X146823Y132718D01*
X146741Y132833D01*
X146656Y132946D01*
X146567Y133057D01*
X146476Y133164D01*
X146382Y133270D01*
X146285Y133373D01*
X146185Y133473D01*
X146082Y133570D01*
X145976Y133664D01*
X145869Y133755D01*
X145758Y133844D01*
X145645Y133929D01*
X145530Y134011D01*
X145413Y134090D01*
X145293Y134166D01*
X145172Y134238D01*
X145049Y134307D01*
X144923Y134373D01*
X144796Y134435D01*
X144668Y134494D01*
X144537Y134549D01*
X144405Y134600D01*
X144272Y134648D01*
X144138Y134692D01*
X144002Y134732D01*
X143866Y134769D01*
X143728Y134802D01*
X143590Y134831D01*
X143451Y134856D01*
X143311Y134877D01*
X143171Y134895D01*
X143030Y134908D01*
X142889Y134918D01*
X142747Y134924D01*
X142606Y134926D01*
X142465Y134924D01*
X142323Y134918D01*
X142182Y134908D01*
X142041Y134895D01*
X141901Y134877D01*
X141761Y134856D01*
X141622Y134831D01*
X141484Y134802D01*
X141346Y134769D01*
X141210Y134732D01*
X141074Y134692D01*
X140940Y134648D01*
X140807Y134600D01*
X140675Y134549D01*
X140544Y134494D01*
X140416Y134435D01*
X140289Y134373D01*
X140163Y134307D01*
X140040Y134238D01*
X139919Y134166D01*
X139799Y134090D01*
X139682Y134011D01*
X139567Y133929D01*
X139454Y133844D01*
X139343Y133755D01*
X139236Y133664D01*
X139130Y133570D01*
X139027Y133473D01*
X138927Y133373D01*
X138830Y133270D01*
X138736Y133164D01*
X138645Y133057D01*
X138556Y132946D01*
X138471Y132833D01*
X138389Y132718D01*
X138310Y132601D01*
X138234Y132481D01*
X138162Y132360D01*
X138093Y132237D01*
X138027Y132111D01*
X137965Y131984D01*
X137906Y131856D01*
X137851Y131725D01*
X137800Y131593D01*
X137752Y131460D01*
X137708Y131326D01*
X137668Y131190D01*
X137631Y131054D01*
X137598Y130916D01*
X137569Y130778D01*
X137544Y130639D01*
X137523Y130499D01*
X137505Y130359D01*
X137492Y130218D01*
X137482Y130077D01*
X137476Y129935D01*
X137474Y129794D01*
X137474Y124662D01*
X134394Y141148D02*
X142606Y141148D01*
X142747Y141150D01*
X142889Y141156D01*
X143030Y141166D01*
X143171Y141179D01*
X143311Y141197D01*
X143451Y141218D01*
X143590Y141243D01*
X143728Y141272D01*
X143866Y141305D01*
X144002Y141342D01*
X144138Y141382D01*
X144272Y141426D01*
X144405Y141474D01*
X144537Y141525D01*
X144668Y141580D01*
X144796Y141639D01*
X144923Y141701D01*
X145049Y141767D01*
X145172Y141836D01*
X145293Y141908D01*
X145413Y141984D01*
X145530Y142063D01*
X145645Y142145D01*
X145758Y142230D01*
X145869Y142319D01*
X145976Y142410D01*
X146082Y142504D01*
X146185Y142601D01*
X146285Y142701D01*
X146382Y142804D01*
X146476Y142910D01*
X146567Y143017D01*
X146656Y143128D01*
X146741Y143241D01*
X146823Y143356D01*
X146902Y143473D01*
X146978Y143593D01*
X147050Y143714D01*
X147119Y143837D01*
X147185Y143963D01*
X147247Y144090D01*
X147306Y144218D01*
X147361Y144349D01*
X147412Y144481D01*
X147460Y144614D01*
X147504Y144748D01*
X147544Y144884D01*
X147581Y145020D01*
X147614Y145158D01*
X147643Y145296D01*
X147668Y145435D01*
X147689Y145575D01*
X147707Y145715D01*
X147720Y145856D01*
X147730Y145997D01*
X147736Y146139D01*
X147738Y146280D01*
X147736Y146421D01*
X147730Y146563D01*
X147720Y146704D01*
X147707Y146845D01*
X147689Y146985D01*
X147668Y147125D01*
X147643Y147264D01*
X147614Y147402D01*
X147581Y147540D01*
X147544Y147676D01*
X147504Y147812D01*
X147460Y147946D01*
X147412Y148079D01*
X147361Y148211D01*
X147306Y148342D01*
X147247Y148470D01*
X147185Y148597D01*
X147119Y148723D01*
X147050Y148846D01*
X146978Y148967D01*
X146902Y149087D01*
X146823Y149204D01*
X146741Y149319D01*
X146656Y149432D01*
X146567Y149543D01*
X146476Y149650D01*
X146382Y149756D01*
X146285Y149859D01*
X146185Y149959D01*
X146082Y150056D01*
X145976Y150150D01*
X145869Y150241D01*
X145758Y150330D01*
X145645Y150415D01*
X145530Y150497D01*
X145413Y150576D01*
X145293Y150652D01*
X145172Y150724D01*
X145049Y150793D01*
X144923Y150859D01*
X144796Y150921D01*
X144668Y150980D01*
X144537Y151035D01*
X144405Y151086D01*
X144272Y151134D01*
X144138Y151178D01*
X144002Y151218D01*
X143866Y151255D01*
X143728Y151288D01*
X143590Y151317D01*
X143451Y151342D01*
X143311Y151363D01*
X143171Y151381D01*
X143030Y151394D01*
X142889Y151404D01*
X142747Y151410D01*
X142606Y151412D01*
X134394Y151412D01*
X134253Y151410D01*
X134111Y151404D01*
X133970Y151394D01*
X133829Y151381D01*
X133689Y151363D01*
X133549Y151342D01*
X133410Y151317D01*
X133272Y151288D01*
X133134Y151255D01*
X132998Y151218D01*
X132862Y151178D01*
X132728Y151134D01*
X132595Y151086D01*
X132463Y151035D01*
X132332Y150980D01*
X132204Y150921D01*
X132077Y150859D01*
X131951Y150793D01*
X131828Y150724D01*
X131707Y150652D01*
X131587Y150576D01*
X131470Y150497D01*
X131355Y150415D01*
X131242Y150330D01*
X131131Y150241D01*
X131024Y150150D01*
X130918Y150056D01*
X130815Y149959D01*
X130715Y149859D01*
X130618Y149756D01*
X130524Y149650D01*
X130433Y149543D01*
X130344Y149432D01*
X130259Y149319D01*
X130177Y149204D01*
X130098Y149087D01*
X130022Y148967D01*
X129950Y148846D01*
X129881Y148723D01*
X129815Y148597D01*
X129753Y148470D01*
X129694Y148342D01*
X129639Y148211D01*
X129588Y148079D01*
X129540Y147946D01*
X129496Y147812D01*
X129456Y147676D01*
X129419Y147540D01*
X129386Y147402D01*
X129357Y147264D01*
X129332Y147125D01*
X129311Y146985D01*
X129293Y146845D01*
X129280Y146704D01*
X129270Y146563D01*
X129264Y146421D01*
X129262Y146280D01*
X129264Y146139D01*
X129270Y145997D01*
X129280Y145856D01*
X129293Y145715D01*
X129311Y145575D01*
X129332Y145435D01*
X129357Y145296D01*
X129386Y145158D01*
X129419Y145020D01*
X129456Y144884D01*
X129496Y144748D01*
X129540Y144614D01*
X129588Y144481D01*
X129639Y144349D01*
X129694Y144218D01*
X129753Y144090D01*
X129815Y143963D01*
X129881Y143837D01*
X129950Y143714D01*
X130022Y143593D01*
X130098Y143473D01*
X130177Y143356D01*
X130259Y143241D01*
X130344Y143128D01*
X130433Y143017D01*
X130524Y142910D01*
X130618Y142804D01*
X130715Y142701D01*
X130815Y142601D01*
X130918Y142504D01*
X131024Y142410D01*
X131131Y142319D01*
X131242Y142230D01*
X131355Y142145D01*
X131470Y142063D01*
X131587Y141984D01*
X131707Y141908D01*
X131828Y141836D01*
X131951Y141767D01*
X132077Y141701D01*
X132204Y141639D01*
X132332Y141580D01*
X132463Y141525D01*
X132595Y141474D01*
X132728Y141426D01*
X132862Y141382D01*
X132998Y141342D01*
X133134Y141305D01*
X133272Y141272D01*
X133410Y141243D01*
X133549Y141218D01*
X133689Y141197D01*
X133829Y141179D01*
X133970Y141166D01*
X134111Y141156D01*
X134253Y141150D01*
X134394Y141148D01*
X129262Y163981D02*
X129264Y164107D01*
X129270Y164234D01*
X129280Y164360D01*
X129293Y164486D01*
X129311Y164611D01*
X129332Y164735D01*
X129357Y164859D01*
X129386Y164983D01*
X129419Y165105D01*
X129455Y165226D01*
X129495Y165346D01*
X129539Y165464D01*
X129587Y165581D01*
X129638Y165697D01*
X129692Y165811D01*
X129751Y165924D01*
X129812Y166034D01*
X129877Y166143D01*
X129945Y166249D01*
X130017Y166353D01*
X130091Y166455D01*
X130169Y166555D01*
X130250Y166652D01*
X130334Y166747D01*
X130420Y166839D01*
X130510Y166929D01*
X130602Y167015D01*
X130697Y167099D01*
X130794Y167180D01*
X130894Y167258D01*
X130996Y167332D01*
X131100Y167404D01*
X131206Y167472D01*
X131315Y167537D01*
X131425Y167598D01*
X131538Y167657D01*
X131652Y167711D01*
X131768Y167762D01*
X131885Y167810D01*
X132003Y167854D01*
X132123Y167894D01*
X132244Y167930D01*
X132366Y167963D01*
X132490Y167992D01*
X132614Y168017D01*
X132738Y168038D01*
X132863Y168056D01*
X132989Y168069D01*
X133115Y168079D01*
X133242Y168085D01*
X133368Y168087D01*
X129262Y163981D02*
X129264Y163773D01*
X129272Y163566D01*
X129284Y163359D01*
X129302Y163152D01*
X129324Y162946D01*
X129351Y162740D01*
X129383Y162535D01*
X129420Y162331D01*
X129462Y162128D01*
X129509Y161925D01*
X129561Y161724D01*
X129617Y161525D01*
X129678Y161326D01*
X129744Y161129D01*
X129815Y160934D01*
X129890Y160741D01*
X129970Y160549D01*
X130054Y160360D01*
X130143Y160172D01*
X130236Y159987D01*
X130334Y159804D01*
X130436Y159623D01*
X130543Y159445D01*
X130653Y159269D01*
X130768Y159096D01*
X130887Y158926D01*
X131010Y158759D01*
X131137Y158595D01*
X131268Y158434D01*
X131402Y158276D01*
X131541Y158121D01*
X131683Y157970D01*
X131828Y157822D01*
X143632Y158336D02*
X143758Y158338D01*
X143885Y158344D01*
X144011Y158354D01*
X144137Y158367D01*
X144262Y158385D01*
X144386Y158406D01*
X144510Y158431D01*
X144634Y158460D01*
X144756Y158493D01*
X144877Y158529D01*
X144997Y158569D01*
X145115Y158613D01*
X145232Y158661D01*
X145348Y158712D01*
X145462Y158766D01*
X145575Y158825D01*
X145685Y158886D01*
X145794Y158951D01*
X145900Y159019D01*
X146004Y159091D01*
X146106Y159165D01*
X146206Y159243D01*
X146303Y159324D01*
X146398Y159408D01*
X146490Y159494D01*
X146580Y159584D01*
X146666Y159676D01*
X146750Y159771D01*
X146831Y159868D01*
X146909Y159968D01*
X146983Y160070D01*
X147055Y160174D01*
X147123Y160280D01*
X147188Y160389D01*
X147249Y160499D01*
X147308Y160612D01*
X147362Y160726D01*
X147413Y160842D01*
X147461Y160959D01*
X147505Y161077D01*
X147545Y161197D01*
X147581Y161318D01*
X147614Y161441D01*
X147643Y161564D01*
X147668Y161688D01*
X147689Y161812D01*
X147707Y161937D01*
X147720Y162063D01*
X147730Y162189D01*
X147736Y162316D01*
X147738Y162442D01*
X147738Y162441D02*
X147736Y162625D01*
X147729Y162808D01*
X147718Y162991D01*
X147703Y163174D01*
X147683Y163356D01*
X147659Y163538D01*
X147631Y163719D01*
X147598Y163900D01*
X147562Y164080D01*
X147520Y164258D01*
X147475Y164436D01*
X147425Y164613D01*
X147371Y164788D01*
X147313Y164962D01*
X147251Y165135D01*
X147185Y165306D01*
X147115Y165475D01*
X147040Y165643D01*
X146962Y165809D01*
X146880Y165973D01*
X146794Y166135D01*
X146704Y166295D01*
X146610Y166453D01*
X146513Y166608D01*
X146411Y166761D01*
X146307Y166912D01*
X146198Y167060D01*
X140039Y160389D02*
X140106Y160280D01*
X140175Y160174D01*
X140248Y160069D01*
X140324Y159967D01*
X140403Y159867D01*
X140485Y159770D01*
X140570Y159675D01*
X140658Y159583D01*
X140749Y159493D01*
X140842Y159407D01*
X140938Y159323D01*
X141037Y159242D01*
X141137Y159164D01*
X141241Y159090D01*
X141346Y159018D01*
X141454Y158950D01*
X141563Y158885D01*
X141675Y158824D01*
X141788Y158766D01*
X141903Y158711D01*
X142020Y158660D01*
X142138Y158613D01*
X142257Y158569D01*
X142378Y158529D01*
X142500Y158493D01*
X142623Y158460D01*
X142747Y158431D01*
X142872Y158406D01*
X142998Y158385D01*
X143124Y158367D01*
X143251Y158353D01*
X143377Y158344D01*
X143505Y158338D01*
X143632Y158336D01*
X136961Y166034D02*
X136894Y166143D01*
X136825Y166249D01*
X136752Y166354D01*
X136676Y166456D01*
X136597Y166556D01*
X136515Y166653D01*
X136430Y166748D01*
X136342Y166840D01*
X136251Y166930D01*
X136158Y167016D01*
X136062Y167100D01*
X135964Y167181D01*
X135863Y167258D01*
X135759Y167333D01*
X135654Y167405D01*
X135546Y167473D01*
X135437Y167538D01*
X135325Y167599D01*
X135212Y167657D01*
X135097Y167712D01*
X134980Y167763D01*
X134862Y167810D01*
X134743Y167854D01*
X134622Y167894D01*
X134500Y167930D01*
X134377Y167963D01*
X134253Y167992D01*
X134128Y168017D01*
X134002Y168038D01*
X133876Y168056D01*
X133749Y168070D01*
X133623Y168079D01*
X133495Y168085D01*
X133368Y168087D01*
X136960Y166034D02*
X140040Y160389D01*
X233262Y124662D02*
X251738Y124662D01*
X233262Y134926D01*
X251738Y134926D01*
X233262Y143090D02*
X233262Y151302D01*
X233262Y143090D02*
X251738Y143090D01*
X251738Y151302D01*
X243526Y149249D02*
X243526Y143090D01*
X243526Y165197D02*
X243526Y168276D01*
X233262Y168276D01*
X233262Y162118D01*
X233264Y161992D01*
X233270Y161865D01*
X233280Y161739D01*
X233293Y161613D01*
X233311Y161488D01*
X233332Y161364D01*
X233357Y161240D01*
X233386Y161116D01*
X233419Y160994D01*
X233455Y160873D01*
X233495Y160753D01*
X233539Y160635D01*
X233587Y160518D01*
X233638Y160402D01*
X233692Y160288D01*
X233751Y160175D01*
X233812Y160065D01*
X233877Y159956D01*
X233945Y159850D01*
X234017Y159746D01*
X234091Y159644D01*
X234169Y159544D01*
X234250Y159447D01*
X234334Y159352D01*
X234420Y159260D01*
X234510Y159170D01*
X234602Y159084D01*
X234697Y159000D01*
X234794Y158919D01*
X234894Y158841D01*
X234996Y158767D01*
X235100Y158695D01*
X235206Y158627D01*
X235315Y158562D01*
X235425Y158501D01*
X235538Y158442D01*
X235652Y158388D01*
X235768Y158337D01*
X235885Y158289D01*
X236003Y158245D01*
X236123Y158205D01*
X236244Y158169D01*
X236366Y158136D01*
X236490Y158107D01*
X236614Y158082D01*
X236738Y158061D01*
X236863Y158043D01*
X236989Y158030D01*
X237115Y158020D01*
X237242Y158014D01*
X237368Y158012D01*
X247632Y158012D01*
X247758Y158014D01*
X247885Y158020D01*
X248011Y158030D01*
X248137Y158043D01*
X248262Y158061D01*
X248386Y158082D01*
X248510Y158107D01*
X248634Y158136D01*
X248756Y158169D01*
X248877Y158205D01*
X248997Y158245D01*
X249115Y158289D01*
X249232Y158337D01*
X249348Y158388D01*
X249462Y158442D01*
X249575Y158501D01*
X249685Y158562D01*
X249794Y158627D01*
X249900Y158695D01*
X250004Y158767D01*
X250106Y158841D01*
X250206Y158919D01*
X250303Y159000D01*
X250398Y159084D01*
X250490Y159170D01*
X250580Y159260D01*
X250666Y159352D01*
X250750Y159447D01*
X250831Y159544D01*
X250909Y159644D01*
X250983Y159746D01*
X251055Y159850D01*
X251123Y159956D01*
X251188Y160065D01*
X251249Y160175D01*
X251308Y160288D01*
X251362Y160402D01*
X251413Y160518D01*
X251461Y160635D01*
X251505Y160753D01*
X251545Y160873D01*
X251581Y160994D01*
X251614Y161116D01*
X251643Y161240D01*
X251668Y161363D01*
X251689Y161488D01*
X251707Y161613D01*
X251720Y161739D01*
X251730Y161865D01*
X251736Y161992D01*
X251738Y162118D01*
X251738Y168276D01*
X147738Y520662D02*
X129262Y520662D01*
X129262Y530926D02*
X147738Y520662D01*
X147738Y530926D02*
X129262Y530926D01*
X129262Y539090D02*
X129262Y547302D01*
X129262Y539090D02*
X147738Y539090D01*
X147738Y547302D01*
X139526Y545249D02*
X139526Y539090D01*
X139526Y561197D02*
X139526Y564276D01*
X129262Y564276D01*
X129262Y558118D01*
X129264Y557992D01*
X129270Y557865D01*
X129280Y557739D01*
X129293Y557613D01*
X129311Y557488D01*
X129332Y557364D01*
X129357Y557240D01*
X129386Y557116D01*
X129419Y556994D01*
X129455Y556873D01*
X129495Y556753D01*
X129539Y556635D01*
X129587Y556518D01*
X129638Y556402D01*
X129692Y556288D01*
X129751Y556175D01*
X129812Y556065D01*
X129877Y555956D01*
X129945Y555850D01*
X130017Y555746D01*
X130091Y555644D01*
X130169Y555544D01*
X130250Y555447D01*
X130334Y555352D01*
X130420Y555260D01*
X130510Y555170D01*
X130602Y555084D01*
X130697Y555000D01*
X130794Y554919D01*
X130894Y554841D01*
X130996Y554767D01*
X131100Y554695D01*
X131206Y554627D01*
X131315Y554562D01*
X131425Y554501D01*
X131538Y554442D01*
X131652Y554388D01*
X131768Y554337D01*
X131885Y554289D01*
X132003Y554245D01*
X132123Y554205D01*
X132244Y554169D01*
X132366Y554136D01*
X132490Y554107D01*
X132614Y554082D01*
X132738Y554061D01*
X132863Y554043D01*
X132989Y554030D01*
X133115Y554020D01*
X133242Y554014D01*
X133368Y554012D01*
X143632Y554012D01*
X143758Y554014D01*
X143885Y554020D01*
X144011Y554030D01*
X144137Y554043D01*
X144262Y554061D01*
X144386Y554082D01*
X144510Y554107D01*
X144634Y554136D01*
X144756Y554169D01*
X144877Y554205D01*
X144997Y554245D01*
X145115Y554289D01*
X145232Y554337D01*
X145348Y554388D01*
X145462Y554442D01*
X145575Y554501D01*
X145685Y554562D01*
X145794Y554627D01*
X145900Y554695D01*
X146004Y554767D01*
X146106Y554841D01*
X146206Y554919D01*
X146303Y555000D01*
X146398Y555084D01*
X146490Y555170D01*
X146580Y555260D01*
X146666Y555352D01*
X146750Y555447D01*
X146831Y555544D01*
X146909Y555644D01*
X146983Y555746D01*
X147055Y555850D01*
X147123Y555956D01*
X147188Y556065D01*
X147249Y556175D01*
X147308Y556288D01*
X147362Y556402D01*
X147413Y556518D01*
X147461Y556635D01*
X147505Y556753D01*
X147545Y556873D01*
X147581Y556994D01*
X147614Y557116D01*
X147643Y557240D01*
X147668Y557363D01*
X147689Y557488D01*
X147707Y557613D01*
X147720Y557739D01*
X147730Y557865D01*
X147736Y557992D01*
X147738Y558118D01*
X147738Y564276D01*
X56134Y339374D02*
X53594Y339374D01*
X53594Y336834D01*
X53594Y339374D02*
X51054Y339374D01*
X53594Y339374D02*
X53594Y341914D01*
X14224Y326674D02*
X14232Y327297D01*
X14255Y327920D01*
X14293Y328543D01*
X14346Y329164D01*
X14415Y329783D01*
X14499Y330401D01*
X14598Y331016D01*
X14712Y331629D01*
X14841Y332239D01*
X14985Y332846D01*
X15144Y333449D01*
X15318Y334047D01*
X15506Y334642D01*
X15709Y335231D01*
X15926Y335815D01*
X16157Y336394D01*
X16403Y336967D01*
X16663Y337534D01*
X16936Y338094D01*
X17223Y338647D01*
X17524Y339194D01*
X17838Y339732D01*
X18165Y340263D01*
X18505Y340785D01*
X18857Y341300D01*
X19223Y341805D01*
X19600Y342301D01*
X19990Y342788D01*
X20391Y343265D01*
X20804Y343732D01*
X21228Y344188D01*
X21663Y344635D01*
X22110Y345070D01*
X22566Y345494D01*
X23033Y345907D01*
X23510Y346308D01*
X23997Y346698D01*
X24493Y347075D01*
X24998Y347441D01*
X25513Y347793D01*
X26035Y348133D01*
X26566Y348460D01*
X27104Y348774D01*
X27651Y349075D01*
X28204Y349362D01*
X28764Y349635D01*
X29331Y349895D01*
X29904Y350141D01*
X30483Y350372D01*
X31067Y350589D01*
X31656Y350792D01*
X32251Y350980D01*
X32849Y351154D01*
X33452Y351313D01*
X34059Y351457D01*
X34669Y351586D01*
X35282Y351700D01*
X35897Y351799D01*
X36515Y351883D01*
X37134Y351952D01*
X37755Y352005D01*
X38378Y352043D01*
X39001Y352066D01*
X39624Y352074D01*
X40247Y352066D01*
X40870Y352043D01*
X41493Y352005D01*
X42114Y351952D01*
X42733Y351883D01*
X43351Y351799D01*
X43966Y351700D01*
X44579Y351586D01*
X45189Y351457D01*
X45796Y351313D01*
X46399Y351154D01*
X46997Y350980D01*
X47592Y350792D01*
X48181Y350589D01*
X48765Y350372D01*
X49344Y350141D01*
X49917Y349895D01*
X50484Y349635D01*
X51044Y349362D01*
X51597Y349075D01*
X52144Y348774D01*
X52682Y348460D01*
X53213Y348133D01*
X53735Y347793D01*
X54250Y347441D01*
X54755Y347075D01*
X55251Y346698D01*
X55738Y346308D01*
X56215Y345907D01*
X56682Y345494D01*
X57138Y345070D01*
X57585Y344635D01*
X58020Y344188D01*
X58444Y343732D01*
X58857Y343265D01*
X59258Y342788D01*
X59648Y342301D01*
X60025Y341805D01*
X60391Y341300D01*
X60743Y340785D01*
X61083Y340263D01*
X61410Y339732D01*
X61724Y339194D01*
X62025Y338647D01*
X62312Y338094D01*
X62585Y337534D01*
X62845Y336967D01*
X63091Y336394D01*
X63322Y335815D01*
X63539Y335231D01*
X63742Y334642D01*
X63930Y334047D01*
X64104Y333449D01*
X64263Y332846D01*
X64407Y332239D01*
X64536Y331629D01*
X64650Y331016D01*
X64749Y330401D01*
X64833Y329783D01*
X64902Y329164D01*
X64955Y328543D01*
X64993Y327920D01*
X65016Y327297D01*
X65024Y326674D01*
X65016Y326051D01*
X64993Y325428D01*
X64955Y324805D01*
X64902Y324184D01*
X64833Y323565D01*
X64749Y322947D01*
X64650Y322332D01*
X64536Y321719D01*
X64407Y321109D01*
X64263Y320502D01*
X64104Y319899D01*
X63930Y319301D01*
X63742Y318706D01*
X63539Y318117D01*
X63322Y317533D01*
X63091Y316954D01*
X62845Y316381D01*
X62585Y315814D01*
X62312Y315254D01*
X62025Y314701D01*
X61724Y314154D01*
X61410Y313616D01*
X61083Y313085D01*
X60743Y312563D01*
X60391Y312048D01*
X60025Y311543D01*
X59648Y311047D01*
X59258Y310560D01*
X58857Y310083D01*
X58444Y309616D01*
X58020Y309160D01*
X57585Y308713D01*
X57138Y308278D01*
X56682Y307854D01*
X56215Y307441D01*
X55738Y307040D01*
X55251Y306650D01*
X54755Y306273D01*
X54250Y305907D01*
X53735Y305555D01*
X53213Y305215D01*
X52682Y304888D01*
X52144Y304574D01*
X51597Y304273D01*
X51044Y303986D01*
X50484Y303713D01*
X49917Y303453D01*
X49344Y303207D01*
X48765Y302976D01*
X48181Y302759D01*
X47592Y302556D01*
X46997Y302368D01*
X46399Y302194D01*
X45796Y302035D01*
X45189Y301891D01*
X44579Y301762D01*
X43966Y301648D01*
X43351Y301549D01*
X42733Y301465D01*
X42114Y301396D01*
X41493Y301343D01*
X40870Y301305D01*
X40247Y301282D01*
X39624Y301274D01*
X39001Y301282D01*
X38378Y301305D01*
X37755Y301343D01*
X37134Y301396D01*
X36515Y301465D01*
X35897Y301549D01*
X35282Y301648D01*
X34669Y301762D01*
X34059Y301891D01*
X33452Y302035D01*
X32849Y302194D01*
X32251Y302368D01*
X31656Y302556D01*
X31067Y302759D01*
X30483Y302976D01*
X29904Y303207D01*
X29331Y303453D01*
X28764Y303713D01*
X28204Y303986D01*
X27651Y304273D01*
X27104Y304574D01*
X26566Y304888D01*
X26035Y305215D01*
X25513Y305555D01*
X24998Y305907D01*
X24493Y306273D01*
X23997Y306650D01*
X23510Y307040D01*
X23033Y307441D01*
X22566Y307854D01*
X22110Y308278D01*
X21663Y308713D01*
X21228Y309160D01*
X20804Y309616D01*
X20391Y310083D01*
X19990Y310560D01*
X19600Y311047D01*
X19223Y311543D01*
X18857Y312048D01*
X18505Y312563D01*
X18165Y313085D01*
X17838Y313616D01*
X17524Y314154D01*
X17223Y314701D01*
X16936Y315254D01*
X16663Y315814D01*
X16403Y316381D01*
X16157Y316954D01*
X15926Y317533D01*
X15709Y318117D01*
X15506Y318706D01*
X15318Y319301D01*
X15144Y319899D01*
X14985Y320502D01*
X14841Y321109D01*
X14712Y321719D01*
X14598Y322332D01*
X14499Y322947D01*
X14415Y323565D01*
X14346Y324184D01*
X14293Y324805D01*
X14255Y325428D01*
X14232Y326051D01*
X14224Y326674D01*
D10*
X41839Y359755D02*
X43476Y359755D01*
X43554Y359757D01*
X43632Y359762D01*
X43709Y359772D01*
X43786Y359785D01*
X43862Y359801D01*
X43937Y359821D01*
X44011Y359845D01*
X44084Y359872D01*
X44156Y359903D01*
X44226Y359937D01*
X44295Y359974D01*
X44361Y360015D01*
X44426Y360059D01*
X44488Y360105D01*
X44548Y360155D01*
X44606Y360207D01*
X44661Y360262D01*
X44713Y360320D01*
X44763Y360380D01*
X44809Y360442D01*
X44853Y360507D01*
X44894Y360574D01*
X44931Y360642D01*
X44965Y360712D01*
X44996Y360784D01*
X45023Y360857D01*
X45047Y360931D01*
X45067Y361006D01*
X45083Y361082D01*
X45096Y361159D01*
X45106Y361236D01*
X45111Y361314D01*
X45113Y361392D01*
X45113Y365484D01*
X45111Y365562D01*
X45106Y365640D01*
X45096Y365717D01*
X45083Y365794D01*
X45067Y365870D01*
X45047Y365945D01*
X45023Y366019D01*
X44996Y366092D01*
X44965Y366164D01*
X44931Y366234D01*
X44894Y366303D01*
X44853Y366369D01*
X44809Y366434D01*
X44763Y366496D01*
X44713Y366556D01*
X44661Y366614D01*
X44606Y366669D01*
X44548Y366721D01*
X44488Y366771D01*
X44426Y366817D01*
X44361Y366861D01*
X44295Y366902D01*
X44226Y366939D01*
X44156Y366973D01*
X44084Y367004D01*
X44011Y367031D01*
X43937Y367055D01*
X43862Y367075D01*
X43786Y367091D01*
X43709Y367104D01*
X43632Y367114D01*
X43554Y367119D01*
X43476Y367121D01*
X41839Y367121D01*
X36743Y367122D02*
X36658Y367120D01*
X36573Y367114D01*
X36489Y367104D01*
X36405Y367091D01*
X36321Y367073D01*
X36239Y367052D01*
X36158Y367027D01*
X36078Y366998D01*
X35999Y366965D01*
X35922Y366929D01*
X35847Y366889D01*
X35773Y366846D01*
X35702Y366800D01*
X35633Y366750D01*
X35566Y366697D01*
X35502Y366641D01*
X35441Y366582D01*
X35382Y366521D01*
X35326Y366457D01*
X35273Y366390D01*
X35223Y366321D01*
X35177Y366250D01*
X35134Y366176D01*
X35094Y366101D01*
X35058Y366024D01*
X35025Y365945D01*
X34996Y365865D01*
X34971Y365784D01*
X34950Y365702D01*
X34932Y365618D01*
X34919Y365534D01*
X34909Y365450D01*
X34903Y365365D01*
X34901Y365280D01*
X36743Y367121D02*
X36839Y367119D01*
X36935Y367113D01*
X37030Y367103D01*
X37125Y367090D01*
X37220Y367072D01*
X37313Y367051D01*
X37406Y367026D01*
X37497Y366997D01*
X37588Y366965D01*
X37677Y366929D01*
X37764Y366889D01*
X37850Y366846D01*
X37934Y366800D01*
X38016Y366750D01*
X38096Y366696D01*
X38173Y366640D01*
X38248Y366580D01*
X38321Y366518D01*
X38391Y366452D01*
X38459Y366384D01*
X38524Y366313D01*
X38585Y366240D01*
X38644Y366164D01*
X38700Y366085D01*
X38752Y366005D01*
X38801Y365922D01*
X38847Y365838D01*
X38889Y365752D01*
X38927Y365664D01*
X38962Y365575D01*
X38994Y365484D01*
X35516Y363848D02*
X35456Y363907D01*
X35399Y363969D01*
X35344Y364033D01*
X35293Y364100D01*
X35244Y364169D01*
X35198Y364239D01*
X35155Y364312D01*
X35115Y364386D01*
X35079Y364462D01*
X35046Y364540D01*
X35016Y364619D01*
X34989Y364699D01*
X34966Y364780D01*
X34947Y364862D01*
X34931Y364944D01*
X34918Y365028D01*
X34909Y365112D01*
X34904Y365196D01*
X34902Y365280D01*
X35516Y363847D02*
X38994Y359755D01*
X34902Y359755D01*
M02*
