G04 EAGLE Gerber RS-274X export*
G75*
%MOMM*%
%FSLAX34Y34*%
%LPD*%
%INSolderpaste Top*%
%IPPOS*%
%AMOC8*
5,1,8,0,0,1.08239X$1,22.5*%
G01*
%ADD10C,0.300000*%
%ADD11R,1.500000X1.300000*%
%ADD12R,0.400000X1.000000*%
%ADD13R,2.250000X2.250000*%
%ADD14R,2.300000X1.600000*%
%ADD15R,1.300000X1.500000*%
%ADD16R,0.600000X1.150000*%
%ADD17R,0.600000X1.250000*%


D10*
X301300Y541980D02*
X308300Y541980D01*
X308300Y534980D01*
X301300Y534980D01*
X301300Y541980D01*
X301300Y537830D02*
X308300Y537830D01*
X308300Y540680D02*
X301300Y540680D01*
X301300Y559520D02*
X308300Y559520D01*
X308300Y552520D01*
X301300Y552520D01*
X301300Y559520D01*
X301300Y555370D02*
X308300Y555370D01*
X308300Y558220D02*
X301300Y558220D01*
X301300Y596590D02*
X308300Y596590D01*
X308300Y589590D01*
X301300Y589590D01*
X301300Y596590D01*
X301300Y592440D02*
X308300Y592440D01*
X308300Y595290D02*
X301300Y595290D01*
X301300Y614130D02*
X308300Y614130D01*
X308300Y607130D01*
X301300Y607130D01*
X301300Y614130D01*
X301300Y609980D02*
X308300Y609980D01*
X308300Y612830D02*
X301300Y612830D01*
X194000Y596590D02*
X187000Y596590D01*
X194000Y596590D02*
X194000Y589590D01*
X187000Y589590D01*
X187000Y596590D01*
X187000Y592440D02*
X194000Y592440D01*
X194000Y595290D02*
X187000Y595290D01*
X187000Y614130D02*
X194000Y614130D01*
X194000Y607130D01*
X187000Y607130D01*
X187000Y614130D01*
X187000Y609980D02*
X194000Y609980D01*
X194000Y612830D02*
X187000Y612830D01*
X155900Y596590D02*
X148900Y596590D01*
X155900Y596590D02*
X155900Y589590D01*
X148900Y589590D01*
X148900Y596590D01*
X148900Y592440D02*
X155900Y592440D01*
X155900Y595290D02*
X148900Y595290D01*
X148900Y614130D02*
X155900Y614130D01*
X155900Y607130D01*
X148900Y607130D01*
X148900Y614130D01*
X148900Y609980D02*
X155900Y609980D01*
X155900Y612830D02*
X148900Y612830D01*
X117800Y596590D02*
X110800Y596590D01*
X117800Y596590D02*
X117800Y589590D01*
X110800Y589590D01*
X110800Y596590D01*
X110800Y592440D02*
X117800Y592440D01*
X117800Y595290D02*
X110800Y595290D01*
X110800Y614130D02*
X117800Y614130D01*
X117800Y607130D01*
X110800Y607130D01*
X110800Y614130D01*
X110800Y609980D02*
X117800Y609980D01*
X117800Y612830D02*
X110800Y612830D01*
X79700Y596590D02*
X72700Y596590D01*
X79700Y596590D02*
X79700Y589590D01*
X72700Y589590D01*
X72700Y596590D01*
X72700Y592440D02*
X79700Y592440D01*
X79700Y595290D02*
X72700Y595290D01*
X72700Y614130D02*
X79700Y614130D01*
X79700Y607130D01*
X72700Y607130D01*
X72700Y614130D01*
X72700Y609980D02*
X79700Y609980D01*
X79700Y612830D02*
X72700Y612830D01*
X263200Y541980D02*
X270200Y541980D01*
X270200Y534980D01*
X263200Y534980D01*
X263200Y541980D01*
X263200Y537830D02*
X270200Y537830D01*
X270200Y540680D02*
X263200Y540680D01*
X263200Y559520D02*
X270200Y559520D01*
X270200Y552520D01*
X263200Y552520D01*
X263200Y559520D01*
X263200Y555370D02*
X270200Y555370D01*
X270200Y558220D02*
X263200Y558220D01*
X232100Y541980D02*
X225100Y541980D01*
X232100Y541980D02*
X232100Y534980D01*
X225100Y534980D01*
X225100Y541980D01*
X225100Y537830D02*
X232100Y537830D01*
X232100Y540680D02*
X225100Y540680D01*
X225100Y559520D02*
X232100Y559520D01*
X232100Y552520D01*
X225100Y552520D01*
X225100Y559520D01*
X225100Y555370D02*
X232100Y555370D01*
X232100Y558220D02*
X225100Y558220D01*
X194000Y541980D02*
X187000Y541980D01*
X194000Y541980D02*
X194000Y534980D01*
X187000Y534980D01*
X187000Y541980D01*
X187000Y537830D02*
X194000Y537830D01*
X194000Y540680D02*
X187000Y540680D01*
X187000Y559520D02*
X194000Y559520D01*
X194000Y552520D01*
X187000Y552520D01*
X187000Y559520D01*
X187000Y555370D02*
X194000Y555370D01*
X194000Y558220D02*
X187000Y558220D01*
X155900Y541980D02*
X148900Y541980D01*
X155900Y541980D02*
X155900Y534980D01*
X148900Y534980D01*
X148900Y541980D01*
X148900Y537830D02*
X155900Y537830D01*
X155900Y540680D02*
X148900Y540680D01*
X148900Y559520D02*
X155900Y559520D01*
X155900Y552520D01*
X148900Y552520D01*
X148900Y559520D01*
X148900Y555370D02*
X155900Y555370D01*
X155900Y558220D02*
X148900Y558220D01*
X117800Y541980D02*
X110800Y541980D01*
X117800Y541980D02*
X117800Y534980D01*
X110800Y534980D01*
X110800Y541980D01*
X110800Y537830D02*
X117800Y537830D01*
X117800Y540680D02*
X110800Y540680D01*
X110800Y559520D02*
X117800Y559520D01*
X117800Y552520D01*
X110800Y552520D01*
X110800Y559520D01*
X110800Y555370D02*
X117800Y555370D01*
X117800Y558220D02*
X110800Y558220D01*
X79700Y541980D02*
X72700Y541980D01*
X79700Y541980D02*
X79700Y534980D01*
X72700Y534980D01*
X72700Y541980D01*
X72700Y537830D02*
X79700Y537830D01*
X79700Y540680D02*
X72700Y540680D01*
X72700Y559520D02*
X79700Y559520D01*
X79700Y552520D01*
X72700Y552520D01*
X72700Y559520D01*
X72700Y555370D02*
X79700Y555370D01*
X79700Y558220D02*
X72700Y558220D01*
X263200Y596590D02*
X270200Y596590D01*
X270200Y589590D01*
X263200Y589590D01*
X263200Y596590D01*
X263200Y592440D02*
X270200Y592440D01*
X270200Y595290D02*
X263200Y595290D01*
X263200Y614130D02*
X270200Y614130D01*
X270200Y607130D01*
X263200Y607130D01*
X263200Y614130D01*
X263200Y609980D02*
X270200Y609980D01*
X270200Y612830D02*
X263200Y612830D01*
X232100Y596590D02*
X225100Y596590D01*
X232100Y596590D02*
X232100Y589590D01*
X225100Y589590D01*
X225100Y596590D01*
X225100Y592440D02*
X232100Y592440D01*
X232100Y595290D02*
X225100Y595290D01*
X225100Y614130D02*
X232100Y614130D01*
X232100Y607130D01*
X225100Y607130D01*
X225100Y614130D01*
X225100Y609980D02*
X232100Y609980D01*
X232100Y612830D02*
X225100Y612830D01*
D11*
X304800Y504800D03*
X304800Y485800D03*
X266700Y657200D03*
X266700Y638200D03*
X228600Y657200D03*
X228600Y638200D03*
X190500Y657200D03*
X190500Y638200D03*
X152400Y657200D03*
X152400Y638200D03*
X114300Y657200D03*
X114300Y638200D03*
X76200Y657200D03*
X76200Y638200D03*
X266700Y504800D03*
X266700Y485800D03*
X228600Y504800D03*
X228600Y485800D03*
X190500Y504800D03*
X190500Y485800D03*
X152400Y504800D03*
X152400Y485800D03*
X114300Y504800D03*
X114300Y485800D03*
X76200Y504800D03*
X76200Y485800D03*
X304800Y657200D03*
X304800Y638200D03*
D12*
X223008Y326230D03*
X216404Y326230D03*
X209800Y326170D03*
X203196Y326230D03*
X196592Y326230D03*
X189988Y326230D03*
X183384Y326230D03*
X176780Y326230D03*
X170176Y326230D03*
X163572Y326230D03*
X163572Y384650D03*
X170176Y384650D03*
X176780Y384650D03*
X183384Y384650D03*
X189988Y384650D03*
X196592Y384650D03*
X203196Y384650D03*
X209800Y384710D03*
X216404Y384650D03*
X223008Y384650D03*
D13*
X230500Y217800D03*
X150500Y217800D03*
X230500Y137800D03*
X150500Y137800D03*
D14*
X159000Y431800D03*
X222000Y431800D03*
D15*
X200000Y256700D03*
X181000Y256700D03*
X219050Y295910D03*
X200050Y295910D03*
D16*
X66600Y77900D03*
X85800Y77900D03*
X76200Y99900D03*
D17*
X123850Y251800D03*
X104750Y251800D03*
X114300Y230800D03*
X333350Y472100D03*
X352450Y472100D03*
X342900Y493100D03*
X28550Y472100D03*
X47650Y472100D03*
X38100Y493100D03*
D15*
X324002Y444500D03*
X343002Y444500D03*
X60300Y444500D03*
X41300Y444500D03*
D11*
X145288Y270104D03*
X145288Y251104D03*
M02*
