G04 EAGLE Gerber RS-274X export*
G75*
%MOMM*%
%FSLAX34Y34*%
%LPD*%
%INSolderpaste Top*%
%IPPOS*%
%AMOC8*
5,1,8,0,0,1.08239X$1,22.5*%
G01*
%ADD10R,1.200000X1.200000*%
%ADD11R,0.600000X1.300000*%
%ADD12R,1.500000X1.300000*%
%ADD13R,0.400000X1.000000*%
%ADD14R,2.250000X2.250000*%
%ADD15R,2.300000X1.600000*%
%ADD16R,1.300000X1.500000*%
%ADD17R,0.600000X1.150000*%


D10*
X304800Y535600D03*
X304800Y556600D03*
X304800Y586400D03*
X304800Y607400D03*
X190500Y586400D03*
X190500Y607400D03*
X152400Y586400D03*
X152400Y607400D03*
X114300Y586400D03*
X114300Y607400D03*
X76200Y586400D03*
X76200Y607400D03*
X266700Y535600D03*
X266700Y556600D03*
X228600Y535600D03*
X228600Y556600D03*
X190500Y535600D03*
X190500Y556600D03*
X152400Y535600D03*
X152400Y556600D03*
X114300Y535600D03*
X114300Y556600D03*
X76200Y535600D03*
X76200Y556600D03*
X266700Y586400D03*
X266700Y607400D03*
X228600Y586400D03*
X228600Y607400D03*
D11*
X333400Y446700D03*
X352400Y446700D03*
X342900Y467700D03*
X28600Y446700D03*
X47600Y446700D03*
X38100Y467700D03*
D12*
X304800Y504800D03*
X304800Y485800D03*
X266700Y657200D03*
X266700Y638200D03*
X228600Y657200D03*
X228600Y638200D03*
X190500Y657200D03*
X190500Y638200D03*
X152400Y657200D03*
X152400Y638200D03*
X114300Y657200D03*
X114300Y638200D03*
X76200Y657200D03*
X76200Y638200D03*
X266700Y504800D03*
X266700Y485800D03*
X228600Y504800D03*
X228600Y485800D03*
X190500Y504800D03*
X190500Y485800D03*
X152400Y504800D03*
X152400Y485800D03*
X114300Y504800D03*
X114300Y485800D03*
X76200Y504800D03*
X76200Y485800D03*
X304800Y657200D03*
X304800Y638200D03*
D13*
X223008Y326230D03*
X216404Y326230D03*
X209800Y326170D03*
X203196Y326230D03*
X196592Y326230D03*
X189988Y326230D03*
X183384Y326230D03*
X176780Y326230D03*
X170176Y326230D03*
X163572Y326230D03*
X163572Y384650D03*
X170176Y384650D03*
X176780Y384650D03*
X183384Y384650D03*
X189988Y384650D03*
X196592Y384650D03*
X203196Y384650D03*
X209800Y384710D03*
X216404Y384650D03*
X223008Y384650D03*
D14*
X230500Y217800D03*
X150500Y217800D03*
X230500Y137800D03*
X150500Y137800D03*
D11*
X141580Y275930D03*
X122580Y275930D03*
X132080Y254930D03*
D15*
X159000Y431800D03*
X222000Y431800D03*
D16*
X200000Y256700D03*
X181000Y256700D03*
X219050Y295910D03*
X200050Y295910D03*
D17*
X66600Y77900D03*
X85800Y77900D03*
X76200Y99900D03*
M02*
