M48
;GenerationSoftware,Autodesk,EAGLE,9.6.1*%
;CreationDate,2024-06-01T11:30:25Z*%
FMAT,2
ICI,OFF
METRIC,TZ,000.000
T5C0.350
T4C0.813
T3C1.016
T2C2.000
T1C3.200
%
G90
M71
T1
X36000Y63000
X4000Y63000
X4000Y4000
X36000Y4000
T2
X30450Y10050
T3
X5080Y36830
X4410Y16170
X5080Y39370
X32990Y16170
X35530Y16170
X32990Y13630
X35530Y13630
X32990Y11090
X35530Y11090
X32990Y8550
X35530Y8550
X6950Y8550
X4410Y8550
X6950Y11090
X4410Y11090
X6950Y13630
X4410Y13630
X6950Y16170
X34130Y29320
X34130Y31860
X34130Y34400
X34130Y36940
X34130Y39480
T4
X3810Y21082
X6350Y21082
T5
X10160Y48260
X30752Y29431
X28860Y37291
X13139Y21281
X17811Y31240
X32336Y48975
X27178Y17229
X24130Y21971
X23495Y36830
X5080Y48260
X9620Y6650
X32840Y63147
X32924Y58436
X30592Y62639
X31765Y60387
X19579Y6396
X28829Y47625
X4699Y57150
X18415Y48410
X11938Y52959
X21239Y47655
X12700Y54610
X23749Y47625
X25400Y49022
X17780Y54610
X22860Y54610
X26670Y49530
X27940Y54610
X8890Y57150
X6350Y57150
X16510Y26670
M30