G04 EAGLE Gerber RS-274X export*
G75*
%MOMM*%
%FSLAX34Y34*%
%LPD*%
%IN*%
%IPPOS*%
%AMOC8*
5,1,8,0,0,1.08239X$1,22.5*%
G01*
%ADD10C,0.254000*%


D10*
X0Y30000D02*
X114Y27385D01*
X456Y24791D01*
X1022Y22235D01*
X1809Y19739D01*
X2811Y17321D01*
X4019Y15000D01*
X5425Y12793D01*
X7019Y10716D01*
X8787Y8787D01*
X10716Y7019D01*
X12793Y5425D01*
X15000Y4019D01*
X17321Y2811D01*
X19739Y1809D01*
X22235Y1022D01*
X24791Y456D01*
X27385Y114D01*
X30000Y0D01*
X370000Y0D01*
X372615Y114D01*
X375209Y456D01*
X377765Y1022D01*
X380261Y1809D01*
X382679Y2811D01*
X385000Y4019D01*
X387207Y5425D01*
X389284Y7019D01*
X391213Y8787D01*
X392981Y10716D01*
X394575Y12793D01*
X395981Y15000D01*
X397189Y17321D01*
X398191Y19739D01*
X398978Y22235D01*
X399544Y24791D01*
X399886Y27385D01*
X400000Y30000D01*
X400000Y640000D01*
X399886Y642615D01*
X399544Y645209D01*
X398978Y647765D01*
X398191Y650261D01*
X397189Y652679D01*
X395981Y655000D01*
X394575Y657207D01*
X392981Y659284D01*
X391213Y661213D01*
X389284Y662981D01*
X387207Y664575D01*
X385000Y665981D01*
X382679Y667189D01*
X380261Y668191D01*
X377765Y668978D01*
X375209Y669544D01*
X372615Y669886D01*
X370000Y670000D01*
X30000Y670000D01*
X27385Y669886D01*
X24791Y669544D01*
X22235Y668978D01*
X19739Y668191D01*
X17321Y667189D01*
X15000Y665981D01*
X12793Y664575D01*
X10716Y662981D01*
X8787Y661213D01*
X7019Y659284D01*
X5425Y657207D01*
X4019Y655000D01*
X2811Y652679D01*
X1809Y650261D01*
X1022Y647765D01*
X456Y645209D01*
X114Y642615D01*
X0Y640000D01*
X0Y30000D01*
X376000Y629476D02*
X375932Y628431D01*
X375795Y627392D01*
X375590Y626365D01*
X375319Y625353D01*
X374983Y624361D01*
X374582Y623393D01*
X374118Y622454D01*
X373595Y621546D01*
X373013Y620675D01*
X372375Y619844D01*
X371684Y619057D01*
X370943Y618316D01*
X370156Y617625D01*
X369325Y616988D01*
X368454Y616406D01*
X367546Y615882D01*
X366607Y615418D01*
X365639Y615017D01*
X364647Y614681D01*
X363635Y614410D01*
X362608Y614205D01*
X361569Y614069D01*
X360524Y614000D01*
X359476Y614000D01*
X358431Y614069D01*
X357392Y614205D01*
X356365Y614410D01*
X355353Y614681D01*
X354361Y615017D01*
X353393Y615418D01*
X352454Y615882D01*
X351546Y616406D01*
X350675Y616988D01*
X349844Y617625D01*
X349057Y618316D01*
X348316Y619057D01*
X347625Y619844D01*
X346988Y620675D01*
X346406Y621546D01*
X345882Y622454D01*
X345418Y623393D01*
X345017Y624361D01*
X344681Y625353D01*
X344410Y626365D01*
X344205Y627392D01*
X344069Y628431D01*
X344000Y629476D01*
X344000Y630524D01*
X344069Y631569D01*
X344205Y632608D01*
X344410Y633635D01*
X344681Y634647D01*
X345017Y635639D01*
X345418Y636607D01*
X345882Y637546D01*
X346406Y638454D01*
X346988Y639325D01*
X347625Y640156D01*
X348316Y640943D01*
X349057Y641684D01*
X349844Y642375D01*
X350675Y643013D01*
X351546Y643595D01*
X352454Y644118D01*
X353393Y644582D01*
X354361Y644983D01*
X355353Y645319D01*
X356365Y645590D01*
X357392Y645795D01*
X358431Y645932D01*
X359476Y646000D01*
X360524Y646000D01*
X361569Y645932D01*
X362608Y645795D01*
X363635Y645590D01*
X364647Y645319D01*
X365639Y644983D01*
X366607Y644582D01*
X367546Y644118D01*
X368454Y643595D01*
X369325Y643013D01*
X370156Y642375D01*
X370943Y641684D01*
X371684Y640943D01*
X372375Y640156D01*
X373013Y639325D01*
X373595Y638454D01*
X374118Y637546D01*
X374582Y636607D01*
X374983Y635639D01*
X375319Y634647D01*
X375590Y633635D01*
X375795Y632608D01*
X375932Y631569D01*
X376000Y630524D01*
X376000Y629476D01*
X56000Y629476D02*
X55932Y628431D01*
X55795Y627392D01*
X55590Y626365D01*
X55319Y625353D01*
X54983Y624361D01*
X54582Y623393D01*
X54118Y622454D01*
X53595Y621546D01*
X53013Y620675D01*
X52375Y619844D01*
X51684Y619057D01*
X50943Y618316D01*
X50156Y617625D01*
X49325Y616988D01*
X48454Y616406D01*
X47546Y615882D01*
X46607Y615418D01*
X45639Y615017D01*
X44647Y614681D01*
X43635Y614410D01*
X42608Y614205D01*
X41569Y614069D01*
X40524Y614000D01*
X39476Y614000D01*
X38431Y614069D01*
X37392Y614205D01*
X36365Y614410D01*
X35353Y614681D01*
X34361Y615017D01*
X33393Y615418D01*
X32454Y615882D01*
X31546Y616406D01*
X30675Y616988D01*
X29844Y617625D01*
X29057Y618316D01*
X28316Y619057D01*
X27625Y619844D01*
X26988Y620675D01*
X26406Y621546D01*
X25882Y622454D01*
X25418Y623393D01*
X25017Y624361D01*
X24681Y625353D01*
X24410Y626365D01*
X24205Y627392D01*
X24069Y628431D01*
X24000Y629476D01*
X24000Y630524D01*
X24069Y631569D01*
X24205Y632608D01*
X24410Y633635D01*
X24681Y634647D01*
X25017Y635639D01*
X25418Y636607D01*
X25882Y637546D01*
X26406Y638454D01*
X26988Y639325D01*
X27625Y640156D01*
X28316Y640943D01*
X29057Y641684D01*
X29844Y642375D01*
X30675Y643013D01*
X31546Y643595D01*
X32454Y644118D01*
X33393Y644582D01*
X34361Y644983D01*
X35353Y645319D01*
X36365Y645590D01*
X37392Y645795D01*
X38431Y645932D01*
X39476Y646000D01*
X40524Y646000D01*
X41569Y645932D01*
X42608Y645795D01*
X43635Y645590D01*
X44647Y645319D01*
X45639Y644983D01*
X46607Y644582D01*
X47546Y644118D01*
X48454Y643595D01*
X49325Y643013D01*
X50156Y642375D01*
X50943Y641684D01*
X51684Y640943D01*
X52375Y640156D01*
X53013Y639325D01*
X53595Y638454D01*
X54118Y637546D01*
X54582Y636607D01*
X54983Y635639D01*
X55319Y634647D01*
X55590Y633635D01*
X55795Y632608D01*
X55932Y631569D01*
X56000Y630524D01*
X56000Y629476D01*
X56000Y39476D02*
X55932Y38431D01*
X55795Y37392D01*
X55590Y36365D01*
X55319Y35353D01*
X54983Y34361D01*
X54582Y33393D01*
X54118Y32454D01*
X53595Y31546D01*
X53013Y30675D01*
X52375Y29844D01*
X51684Y29057D01*
X50943Y28316D01*
X50156Y27625D01*
X49325Y26988D01*
X48454Y26406D01*
X47546Y25882D01*
X46607Y25418D01*
X45639Y25017D01*
X44647Y24681D01*
X43635Y24410D01*
X42608Y24205D01*
X41569Y24069D01*
X40524Y24000D01*
X39476Y24000D01*
X38431Y24069D01*
X37392Y24205D01*
X36365Y24410D01*
X35353Y24681D01*
X34361Y25017D01*
X33393Y25418D01*
X32454Y25882D01*
X31546Y26406D01*
X30675Y26988D01*
X29844Y27625D01*
X29057Y28316D01*
X28316Y29057D01*
X27625Y29844D01*
X26988Y30675D01*
X26406Y31546D01*
X25882Y32454D01*
X25418Y33393D01*
X25017Y34361D01*
X24681Y35353D01*
X24410Y36365D01*
X24205Y37392D01*
X24069Y38431D01*
X24000Y39476D01*
X24000Y40524D01*
X24069Y41569D01*
X24205Y42608D01*
X24410Y43635D01*
X24681Y44647D01*
X25017Y45639D01*
X25418Y46607D01*
X25882Y47546D01*
X26406Y48454D01*
X26988Y49325D01*
X27625Y50156D01*
X28316Y50943D01*
X29057Y51684D01*
X29844Y52375D01*
X30675Y53013D01*
X31546Y53595D01*
X32454Y54118D01*
X33393Y54582D01*
X34361Y54983D01*
X35353Y55319D01*
X36365Y55590D01*
X37392Y55795D01*
X38431Y55932D01*
X39476Y56000D01*
X40524Y56000D01*
X41569Y55932D01*
X42608Y55795D01*
X43635Y55590D01*
X44647Y55319D01*
X45639Y54983D01*
X46607Y54582D01*
X47546Y54118D01*
X48454Y53595D01*
X49325Y53013D01*
X50156Y52375D01*
X50943Y51684D01*
X51684Y50943D01*
X52375Y50156D01*
X53013Y49325D01*
X53595Y48454D01*
X54118Y47546D01*
X54582Y46607D01*
X54983Y45639D01*
X55319Y44647D01*
X55590Y43635D01*
X55795Y42608D01*
X55932Y41569D01*
X56000Y40524D01*
X56000Y39476D01*
X376000Y39476D02*
X375932Y38431D01*
X375795Y37392D01*
X375590Y36365D01*
X375319Y35353D01*
X374983Y34361D01*
X374582Y33393D01*
X374118Y32454D01*
X373595Y31546D01*
X373013Y30675D01*
X372375Y29844D01*
X371684Y29057D01*
X370943Y28316D01*
X370156Y27625D01*
X369325Y26988D01*
X368454Y26406D01*
X367546Y25882D01*
X366607Y25418D01*
X365639Y25017D01*
X364647Y24681D01*
X363635Y24410D01*
X362608Y24205D01*
X361569Y24069D01*
X360524Y24000D01*
X359476Y24000D01*
X358431Y24069D01*
X357392Y24205D01*
X356365Y24410D01*
X355353Y24681D01*
X354361Y25017D01*
X353393Y25418D01*
X352454Y25882D01*
X351546Y26406D01*
X350675Y26988D01*
X349844Y27625D01*
X349057Y28316D01*
X348316Y29057D01*
X347625Y29844D01*
X346988Y30675D01*
X346406Y31546D01*
X345882Y32454D01*
X345418Y33393D01*
X345017Y34361D01*
X344681Y35353D01*
X344410Y36365D01*
X344205Y37392D01*
X344069Y38431D01*
X344000Y39476D01*
X344000Y40524D01*
X344069Y41569D01*
X344205Y42608D01*
X344410Y43635D01*
X344681Y44647D01*
X345017Y45639D01*
X345418Y46607D01*
X345882Y47546D01*
X346406Y48454D01*
X346988Y49325D01*
X347625Y50156D01*
X348316Y50943D01*
X349057Y51684D01*
X349844Y52375D01*
X350675Y53013D01*
X351546Y53595D01*
X352454Y54118D01*
X353393Y54582D01*
X354361Y54983D01*
X355353Y55319D01*
X356365Y55590D01*
X357392Y55795D01*
X358431Y55932D01*
X359476Y56000D01*
X360524Y56000D01*
X361569Y55932D01*
X362608Y55795D01*
X363635Y55590D01*
X364647Y55319D01*
X365639Y54983D01*
X366607Y54582D01*
X367546Y54118D01*
X368454Y53595D01*
X369325Y53013D01*
X370156Y52375D01*
X370943Y51684D01*
X371684Y50943D01*
X372375Y50156D01*
X373013Y49325D01*
X373595Y48454D01*
X374118Y47546D01*
X374582Y46607D01*
X374983Y45639D01*
X375319Y44647D01*
X375590Y43635D01*
X375795Y42608D01*
X375932Y41569D01*
X376000Y40524D01*
X376000Y39476D01*
X304063Y110500D02*
X303194Y110424D01*
X302334Y110272D01*
X301490Y110046D01*
X300670Y109748D01*
X299878Y109379D01*
X299122Y108942D01*
X298407Y108441D01*
X297738Y107880D01*
X297120Y107262D01*
X296559Y106593D01*
X296058Y105878D01*
X295621Y105122D01*
X295252Y104330D01*
X294954Y103510D01*
X294728Y102666D01*
X294576Y101807D01*
X294500Y100937D01*
X294500Y100063D01*
X294576Y99194D01*
X294728Y98334D01*
X294954Y97490D01*
X295252Y96670D01*
X295621Y95878D01*
X296058Y95122D01*
X296559Y94407D01*
X297120Y93738D01*
X297738Y93120D01*
X298407Y92559D01*
X299122Y92058D01*
X299878Y91621D01*
X300670Y91252D01*
X301490Y90954D01*
X302334Y90728D01*
X303194Y90576D01*
X304063Y90500D01*
X304937Y90500D01*
X305807Y90576D01*
X306666Y90728D01*
X307510Y90954D01*
X308330Y91252D01*
X309122Y91621D01*
X309878Y92058D01*
X310593Y92559D01*
X311262Y93120D01*
X311880Y93738D01*
X312441Y94407D01*
X312942Y95122D01*
X313379Y95878D01*
X313748Y96670D01*
X314046Y97490D01*
X314272Y98334D01*
X314424Y99194D01*
X314500Y100063D01*
X314500Y100937D01*
X314424Y101807D01*
X314272Y102666D01*
X314046Y103510D01*
X313748Y104330D01*
X313379Y105122D01*
X312942Y105878D01*
X312441Y106593D01*
X311880Y107262D01*
X311262Y107880D01*
X310593Y108441D01*
X309878Y108942D01*
X309122Y109379D01*
X308330Y109748D01*
X307510Y110046D01*
X306666Y110272D01*
X305807Y110424D01*
X304937Y110500D01*
X304063Y110500D01*
M02*
