G04 EAGLE Gerber RS-274X export*
G75*
%MOMM*%
%FSLAX34Y34*%
%LPD*%
%INSilkscreen Top*%
%IPPOS*%
%AMOC8*
5,1,8,0,0,1.08239X$1,22.5*%
G01*
%ADD10C,0.076200*%
%ADD11C,0.254000*%
%ADD12C,0.203200*%
%ADD13C,0.200000*%
%ADD14C,0.101600*%
%ADD15C,0.152400*%
%ADD16C,0.127000*%
%ADD17C,0.100000*%
%ADD18C,0.100000*%


D10*
X89845Y162582D02*
X91891Y164219D01*
X91891Y156853D01*
X89845Y156853D02*
X93937Y156853D01*
X97160Y156853D02*
X99616Y156853D01*
X99694Y156855D01*
X99772Y156860D01*
X99849Y156870D01*
X99926Y156883D01*
X100002Y156899D01*
X100077Y156919D01*
X100151Y156943D01*
X100224Y156970D01*
X100296Y157001D01*
X100366Y157035D01*
X100435Y157072D01*
X100501Y157113D01*
X100566Y157157D01*
X100628Y157203D01*
X100688Y157253D01*
X100746Y157305D01*
X100801Y157360D01*
X100853Y157418D01*
X100903Y157478D01*
X100949Y157540D01*
X100993Y157605D01*
X101034Y157672D01*
X101071Y157740D01*
X101105Y157810D01*
X101136Y157882D01*
X101163Y157955D01*
X101187Y158029D01*
X101207Y158104D01*
X101223Y158180D01*
X101236Y158257D01*
X101246Y158334D01*
X101251Y158412D01*
X101253Y158490D01*
X101253Y159308D01*
X101251Y159386D01*
X101246Y159464D01*
X101236Y159541D01*
X101223Y159618D01*
X101207Y159694D01*
X101187Y159769D01*
X101163Y159843D01*
X101136Y159916D01*
X101105Y159988D01*
X101071Y160058D01*
X101034Y160127D01*
X100993Y160193D01*
X100949Y160258D01*
X100903Y160320D01*
X100853Y160380D01*
X100801Y160438D01*
X100746Y160493D01*
X100688Y160545D01*
X100628Y160595D01*
X100566Y160641D01*
X100501Y160685D01*
X100435Y160726D01*
X100366Y160763D01*
X100296Y160797D01*
X100224Y160828D01*
X100151Y160855D01*
X100077Y160879D01*
X100002Y160899D01*
X99926Y160915D01*
X99849Y160928D01*
X99772Y160938D01*
X99694Y160943D01*
X99616Y160945D01*
X97160Y160945D01*
X97160Y164219D01*
X101253Y164219D01*
X104798Y161764D02*
X104798Y156853D01*
X104798Y161764D02*
X108481Y161764D01*
X108550Y161762D01*
X108618Y161756D01*
X108687Y161747D01*
X108754Y161733D01*
X108821Y161716D01*
X108887Y161695D01*
X108951Y161671D01*
X109014Y161642D01*
X109075Y161611D01*
X109134Y161576D01*
X109192Y161538D01*
X109247Y161496D01*
X109299Y161452D01*
X109349Y161404D01*
X109397Y161354D01*
X109441Y161302D01*
X109483Y161247D01*
X109521Y161189D01*
X109556Y161130D01*
X109587Y161069D01*
X109616Y161006D01*
X109640Y160942D01*
X109661Y160876D01*
X109678Y160809D01*
X109692Y160742D01*
X109701Y160673D01*
X109707Y160605D01*
X109709Y160536D01*
X109709Y156853D01*
X107253Y156853D02*
X107253Y161764D01*
X113105Y161764D02*
X113105Y156853D01*
X112901Y163810D02*
X112901Y164219D01*
X113310Y164219D01*
X113310Y163810D01*
X112901Y163810D01*
X116345Y161764D02*
X116345Y156853D01*
X116345Y161764D02*
X118391Y161764D01*
X118460Y161762D01*
X118528Y161756D01*
X118597Y161747D01*
X118664Y161733D01*
X118731Y161716D01*
X118797Y161695D01*
X118861Y161671D01*
X118924Y161642D01*
X118985Y161611D01*
X119044Y161576D01*
X119102Y161538D01*
X119157Y161496D01*
X119209Y161452D01*
X119259Y161404D01*
X119307Y161354D01*
X119351Y161302D01*
X119393Y161247D01*
X119431Y161189D01*
X119466Y161130D01*
X119497Y161069D01*
X119526Y161006D01*
X119550Y160942D01*
X119571Y160876D01*
X119588Y160809D01*
X119602Y160742D01*
X119611Y160673D01*
X119617Y160605D01*
X119619Y160536D01*
X119619Y156853D01*
X92391Y132313D02*
X90345Y132313D01*
X92391Y132313D02*
X92480Y132315D01*
X92569Y132321D01*
X92658Y132331D01*
X92746Y132344D01*
X92834Y132361D01*
X92921Y132383D01*
X93006Y132408D01*
X93091Y132436D01*
X93174Y132469D01*
X93256Y132505D01*
X93336Y132544D01*
X93414Y132587D01*
X93490Y132633D01*
X93565Y132683D01*
X93637Y132736D01*
X93706Y132792D01*
X93773Y132851D01*
X93838Y132912D01*
X93899Y132977D01*
X93958Y133044D01*
X94014Y133113D01*
X94067Y133185D01*
X94117Y133260D01*
X94163Y133336D01*
X94206Y133414D01*
X94245Y133494D01*
X94281Y133576D01*
X94314Y133659D01*
X94342Y133744D01*
X94367Y133829D01*
X94389Y133916D01*
X94406Y134004D01*
X94419Y134092D01*
X94429Y134181D01*
X94435Y134270D01*
X94437Y134359D01*
X94435Y134448D01*
X94429Y134537D01*
X94419Y134626D01*
X94406Y134714D01*
X94389Y134802D01*
X94367Y134889D01*
X94342Y134974D01*
X94314Y135059D01*
X94281Y135142D01*
X94245Y135224D01*
X94206Y135304D01*
X94163Y135382D01*
X94117Y135458D01*
X94067Y135533D01*
X94014Y135605D01*
X93958Y135674D01*
X93899Y135741D01*
X93838Y135806D01*
X93773Y135867D01*
X93706Y135926D01*
X93637Y135982D01*
X93565Y136035D01*
X93490Y136085D01*
X93414Y136131D01*
X93336Y136174D01*
X93256Y136213D01*
X93174Y136249D01*
X93091Y136282D01*
X93006Y136310D01*
X92921Y136335D01*
X92834Y136357D01*
X92746Y136374D01*
X92658Y136387D01*
X92569Y136397D01*
X92480Y136403D01*
X92391Y136405D01*
X92801Y139679D02*
X90345Y139679D01*
X92801Y139679D02*
X92880Y139677D01*
X92959Y139671D01*
X93038Y139662D01*
X93116Y139649D01*
X93193Y139631D01*
X93269Y139611D01*
X93344Y139586D01*
X93418Y139558D01*
X93491Y139527D01*
X93562Y139491D01*
X93631Y139453D01*
X93698Y139411D01*
X93763Y139366D01*
X93826Y139318D01*
X93887Y139267D01*
X93944Y139213D01*
X94000Y139157D01*
X94052Y139098D01*
X94102Y139036D01*
X94148Y138972D01*
X94192Y138906D01*
X94232Y138838D01*
X94268Y138768D01*
X94302Y138696D01*
X94332Y138622D01*
X94358Y138548D01*
X94381Y138472D01*
X94399Y138395D01*
X94415Y138318D01*
X94426Y138239D01*
X94434Y138161D01*
X94438Y138082D01*
X94438Y138002D01*
X94434Y137923D01*
X94426Y137845D01*
X94415Y137766D01*
X94399Y137689D01*
X94381Y137612D01*
X94358Y137536D01*
X94332Y137462D01*
X94302Y137388D01*
X94268Y137316D01*
X94232Y137246D01*
X94192Y137178D01*
X94148Y137112D01*
X94102Y137048D01*
X94052Y136986D01*
X94000Y136927D01*
X93944Y136871D01*
X93887Y136817D01*
X93826Y136766D01*
X93763Y136718D01*
X93698Y136673D01*
X93631Y136631D01*
X93562Y136593D01*
X93491Y136557D01*
X93418Y136526D01*
X93344Y136498D01*
X93269Y136473D01*
X93193Y136453D01*
X93116Y136435D01*
X93038Y136422D01*
X92959Y136413D01*
X92880Y136407D01*
X92801Y136405D01*
X91164Y136405D01*
X97661Y135996D02*
X97663Y136149D01*
X97669Y136302D01*
X97678Y136454D01*
X97692Y136607D01*
X97709Y136759D01*
X97730Y136910D01*
X97755Y137061D01*
X97784Y137211D01*
X97816Y137361D01*
X97853Y137509D01*
X97893Y137657D01*
X97936Y137804D01*
X97984Y137949D01*
X98035Y138093D01*
X98089Y138236D01*
X98148Y138378D01*
X98209Y138517D01*
X98275Y138656D01*
X98301Y138726D01*
X98331Y138796D01*
X98364Y138863D01*
X98400Y138929D01*
X98439Y138993D01*
X98482Y139055D01*
X98528Y139114D01*
X98576Y139172D01*
X98627Y139226D01*
X98681Y139279D01*
X98738Y139328D01*
X98797Y139375D01*
X98858Y139418D01*
X98921Y139459D01*
X98986Y139496D01*
X99053Y139531D01*
X99122Y139561D01*
X99192Y139589D01*
X99263Y139612D01*
X99335Y139633D01*
X99408Y139649D01*
X99482Y139662D01*
X99557Y139672D01*
X99632Y139677D01*
X99707Y139679D01*
X99782Y139677D01*
X99857Y139672D01*
X99932Y139662D01*
X100006Y139649D01*
X100079Y139633D01*
X100151Y139612D01*
X100222Y139589D01*
X100292Y139561D01*
X100361Y139531D01*
X100428Y139496D01*
X100493Y139459D01*
X100556Y139418D01*
X100617Y139375D01*
X100676Y139328D01*
X100733Y139279D01*
X100787Y139226D01*
X100838Y139172D01*
X100887Y139114D01*
X100932Y139055D01*
X100975Y138993D01*
X101014Y138929D01*
X101051Y138863D01*
X101083Y138795D01*
X101113Y138726D01*
X101139Y138656D01*
X101204Y138518D01*
X101266Y138378D01*
X101324Y138236D01*
X101379Y138093D01*
X101430Y137949D01*
X101478Y137804D01*
X101521Y137657D01*
X101561Y137510D01*
X101598Y137361D01*
X101630Y137211D01*
X101659Y137061D01*
X101684Y136910D01*
X101705Y136759D01*
X101722Y136607D01*
X101736Y136454D01*
X101745Y136302D01*
X101751Y136149D01*
X101753Y135996D01*
X97660Y135996D02*
X97662Y135843D01*
X97668Y135690D01*
X97677Y135537D01*
X97691Y135385D01*
X97708Y135233D01*
X97729Y135082D01*
X97754Y134931D01*
X97783Y134780D01*
X97815Y134631D01*
X97852Y134482D01*
X97892Y134335D01*
X97935Y134188D01*
X97983Y134043D01*
X98034Y133898D01*
X98089Y133756D01*
X98147Y133614D01*
X98209Y133474D01*
X98274Y133336D01*
X98275Y133336D02*
X98301Y133265D01*
X98331Y133196D01*
X98364Y133129D01*
X98400Y133063D01*
X98439Y132999D01*
X98482Y132937D01*
X98528Y132878D01*
X98576Y132820D01*
X98627Y132766D01*
X98681Y132713D01*
X98738Y132664D01*
X98797Y132617D01*
X98858Y132574D01*
X98921Y132533D01*
X98986Y132496D01*
X99053Y132461D01*
X99122Y132431D01*
X99192Y132403D01*
X99263Y132380D01*
X99335Y132359D01*
X99408Y132343D01*
X99482Y132330D01*
X99557Y132320D01*
X99632Y132315D01*
X99707Y132313D01*
X101138Y133336D02*
X101203Y133474D01*
X101265Y133614D01*
X101323Y133756D01*
X101378Y133899D01*
X101429Y134043D01*
X101477Y134188D01*
X101520Y134335D01*
X101560Y134483D01*
X101597Y134631D01*
X101629Y134781D01*
X101658Y134931D01*
X101683Y135082D01*
X101704Y135233D01*
X101721Y135385D01*
X101735Y135538D01*
X101744Y135690D01*
X101750Y135843D01*
X101752Y135996D01*
X101139Y133336D02*
X101113Y133266D01*
X101083Y133196D01*
X101051Y133129D01*
X101014Y133063D01*
X100975Y132999D01*
X100932Y132937D01*
X100886Y132878D01*
X100838Y132820D01*
X100787Y132766D01*
X100733Y132713D01*
X100676Y132664D01*
X100617Y132617D01*
X100556Y132574D01*
X100493Y132533D01*
X100428Y132496D01*
X100361Y132461D01*
X100292Y132431D01*
X100222Y132403D01*
X100151Y132380D01*
X100079Y132359D01*
X100006Y132343D01*
X99932Y132330D01*
X99857Y132320D01*
X99782Y132315D01*
X99707Y132313D01*
X98070Y133950D02*
X101343Y138042D01*
X105298Y137224D02*
X105298Y132313D01*
X105298Y137224D02*
X108981Y137224D01*
X109050Y137222D01*
X109118Y137216D01*
X109187Y137207D01*
X109254Y137193D01*
X109321Y137176D01*
X109387Y137155D01*
X109451Y137131D01*
X109514Y137102D01*
X109575Y137071D01*
X109634Y137036D01*
X109692Y136998D01*
X109747Y136956D01*
X109799Y136912D01*
X109849Y136864D01*
X109897Y136814D01*
X109941Y136762D01*
X109983Y136707D01*
X110021Y136649D01*
X110056Y136590D01*
X110087Y136529D01*
X110116Y136466D01*
X110140Y136402D01*
X110161Y136336D01*
X110178Y136269D01*
X110192Y136202D01*
X110201Y136133D01*
X110207Y136065D01*
X110209Y135996D01*
X110209Y132313D01*
X107753Y132313D02*
X107753Y137224D01*
X113605Y137224D02*
X113605Y132313D01*
X113401Y139270D02*
X113401Y139679D01*
X113810Y139679D01*
X113810Y139270D01*
X113401Y139270D01*
X116845Y137224D02*
X116845Y132313D01*
X116845Y137224D02*
X118891Y137224D01*
X118960Y137222D01*
X119028Y137216D01*
X119097Y137207D01*
X119164Y137193D01*
X119231Y137176D01*
X119297Y137155D01*
X119361Y137131D01*
X119424Y137102D01*
X119485Y137071D01*
X119544Y137036D01*
X119602Y136998D01*
X119657Y136956D01*
X119709Y136912D01*
X119759Y136864D01*
X119807Y136814D01*
X119851Y136762D01*
X119893Y136707D01*
X119931Y136649D01*
X119966Y136590D01*
X119997Y136529D01*
X120026Y136466D01*
X120050Y136402D01*
X120071Y136336D01*
X120088Y136269D01*
X120102Y136202D01*
X120111Y136133D01*
X120117Y136065D01*
X120119Y135996D01*
X120119Y132313D01*
X92801Y110535D02*
X90345Y110535D01*
X92801Y110535D02*
X92879Y110533D01*
X92957Y110528D01*
X93034Y110518D01*
X93111Y110505D01*
X93187Y110489D01*
X93262Y110469D01*
X93336Y110445D01*
X93409Y110418D01*
X93481Y110387D01*
X93551Y110353D01*
X93620Y110316D01*
X93686Y110275D01*
X93751Y110231D01*
X93813Y110185D01*
X93873Y110135D01*
X93931Y110083D01*
X93986Y110028D01*
X94038Y109970D01*
X94088Y109910D01*
X94134Y109848D01*
X94178Y109783D01*
X94219Y109717D01*
X94256Y109648D01*
X94290Y109578D01*
X94321Y109506D01*
X94348Y109433D01*
X94372Y109359D01*
X94392Y109284D01*
X94408Y109208D01*
X94421Y109131D01*
X94431Y109054D01*
X94436Y108976D01*
X94438Y108898D01*
X94437Y108898D02*
X94437Y108489D01*
X94435Y108400D01*
X94429Y108311D01*
X94419Y108222D01*
X94406Y108134D01*
X94389Y108046D01*
X94367Y107959D01*
X94342Y107874D01*
X94314Y107789D01*
X94281Y107706D01*
X94245Y107624D01*
X94206Y107544D01*
X94163Y107466D01*
X94117Y107390D01*
X94067Y107315D01*
X94014Y107243D01*
X93958Y107174D01*
X93899Y107107D01*
X93838Y107042D01*
X93773Y106981D01*
X93706Y106922D01*
X93637Y106866D01*
X93565Y106813D01*
X93490Y106763D01*
X93414Y106717D01*
X93336Y106674D01*
X93256Y106635D01*
X93174Y106599D01*
X93091Y106566D01*
X93006Y106538D01*
X92921Y106513D01*
X92834Y106491D01*
X92746Y106474D01*
X92658Y106461D01*
X92569Y106451D01*
X92480Y106445D01*
X92391Y106443D01*
X92302Y106445D01*
X92213Y106451D01*
X92124Y106461D01*
X92036Y106474D01*
X91948Y106491D01*
X91861Y106513D01*
X91776Y106538D01*
X91691Y106566D01*
X91608Y106599D01*
X91526Y106635D01*
X91446Y106674D01*
X91368Y106717D01*
X91292Y106763D01*
X91217Y106813D01*
X91145Y106866D01*
X91076Y106922D01*
X91009Y106981D01*
X90944Y107042D01*
X90883Y107107D01*
X90824Y107174D01*
X90768Y107243D01*
X90715Y107315D01*
X90665Y107390D01*
X90619Y107466D01*
X90576Y107544D01*
X90537Y107624D01*
X90501Y107706D01*
X90468Y107789D01*
X90440Y107874D01*
X90415Y107959D01*
X90393Y108046D01*
X90376Y108134D01*
X90363Y108222D01*
X90353Y108311D01*
X90347Y108400D01*
X90345Y108489D01*
X90345Y110535D01*
X90347Y110649D01*
X90353Y110763D01*
X90363Y110877D01*
X90377Y110991D01*
X90395Y111104D01*
X90417Y111216D01*
X90442Y111327D01*
X90472Y111437D01*
X90505Y111547D01*
X90542Y111655D01*
X90583Y111761D01*
X90628Y111867D01*
X90676Y111970D01*
X90728Y112072D01*
X90784Y112172D01*
X90842Y112270D01*
X90905Y112366D01*
X90970Y112459D01*
X91039Y112551D01*
X91111Y112639D01*
X91186Y112726D01*
X91264Y112809D01*
X91345Y112890D01*
X91428Y112968D01*
X91515Y113043D01*
X91603Y113115D01*
X91695Y113184D01*
X91788Y113249D01*
X91884Y113311D01*
X91982Y113370D01*
X92082Y113426D01*
X92184Y113478D01*
X92287Y113526D01*
X92393Y113571D01*
X92499Y113612D01*
X92607Y113649D01*
X92717Y113682D01*
X92827Y113712D01*
X92938Y113737D01*
X93050Y113759D01*
X93163Y113777D01*
X93277Y113791D01*
X93391Y113801D01*
X93505Y113807D01*
X93619Y113809D01*
X98275Y112786D02*
X98209Y112647D01*
X98148Y112508D01*
X98089Y112366D01*
X98035Y112223D01*
X97984Y112079D01*
X97936Y111934D01*
X97893Y111787D01*
X97853Y111639D01*
X97816Y111491D01*
X97784Y111341D01*
X97755Y111191D01*
X97730Y111040D01*
X97709Y110889D01*
X97692Y110737D01*
X97678Y110584D01*
X97669Y110432D01*
X97663Y110279D01*
X97661Y110126D01*
X98275Y112786D02*
X98301Y112856D01*
X98331Y112926D01*
X98364Y112993D01*
X98400Y113059D01*
X98439Y113123D01*
X98482Y113185D01*
X98528Y113244D01*
X98576Y113302D01*
X98627Y113356D01*
X98681Y113409D01*
X98738Y113458D01*
X98797Y113505D01*
X98858Y113548D01*
X98921Y113589D01*
X98986Y113626D01*
X99053Y113661D01*
X99122Y113691D01*
X99192Y113719D01*
X99263Y113742D01*
X99335Y113763D01*
X99408Y113779D01*
X99482Y113792D01*
X99557Y113802D01*
X99632Y113807D01*
X99707Y113809D01*
X99782Y113807D01*
X99857Y113802D01*
X99932Y113792D01*
X100006Y113779D01*
X100079Y113763D01*
X100151Y113742D01*
X100222Y113719D01*
X100292Y113691D01*
X100361Y113661D01*
X100428Y113626D01*
X100493Y113589D01*
X100556Y113548D01*
X100617Y113505D01*
X100676Y113458D01*
X100733Y113409D01*
X100787Y113356D01*
X100838Y113302D01*
X100887Y113244D01*
X100932Y113185D01*
X100975Y113123D01*
X101014Y113059D01*
X101051Y112993D01*
X101083Y112925D01*
X101113Y112856D01*
X101139Y112786D01*
X101204Y112648D01*
X101266Y112508D01*
X101324Y112366D01*
X101379Y112223D01*
X101430Y112079D01*
X101478Y111934D01*
X101521Y111787D01*
X101561Y111640D01*
X101598Y111491D01*
X101630Y111341D01*
X101659Y111191D01*
X101684Y111040D01*
X101705Y110889D01*
X101722Y110737D01*
X101736Y110584D01*
X101745Y110432D01*
X101751Y110279D01*
X101753Y110126D01*
X97660Y110126D02*
X97662Y109973D01*
X97668Y109820D01*
X97677Y109667D01*
X97691Y109515D01*
X97708Y109363D01*
X97729Y109212D01*
X97754Y109061D01*
X97783Y108910D01*
X97815Y108761D01*
X97852Y108612D01*
X97892Y108465D01*
X97935Y108318D01*
X97983Y108173D01*
X98034Y108028D01*
X98089Y107886D01*
X98147Y107744D01*
X98209Y107604D01*
X98274Y107466D01*
X98275Y107466D02*
X98301Y107395D01*
X98331Y107326D01*
X98364Y107259D01*
X98400Y107193D01*
X98439Y107129D01*
X98482Y107067D01*
X98528Y107008D01*
X98576Y106950D01*
X98627Y106896D01*
X98681Y106843D01*
X98738Y106794D01*
X98797Y106747D01*
X98858Y106704D01*
X98921Y106663D01*
X98986Y106626D01*
X99053Y106591D01*
X99122Y106561D01*
X99192Y106533D01*
X99263Y106510D01*
X99335Y106489D01*
X99408Y106473D01*
X99482Y106460D01*
X99557Y106450D01*
X99632Y106445D01*
X99707Y106443D01*
X101138Y107466D02*
X101203Y107604D01*
X101265Y107744D01*
X101323Y107886D01*
X101378Y108029D01*
X101429Y108173D01*
X101477Y108318D01*
X101520Y108465D01*
X101560Y108613D01*
X101597Y108761D01*
X101629Y108911D01*
X101658Y109061D01*
X101683Y109212D01*
X101704Y109363D01*
X101721Y109515D01*
X101735Y109668D01*
X101744Y109820D01*
X101750Y109973D01*
X101752Y110126D01*
X101139Y107466D02*
X101113Y107396D01*
X101083Y107326D01*
X101051Y107259D01*
X101014Y107193D01*
X100975Y107129D01*
X100932Y107067D01*
X100886Y107008D01*
X100838Y106950D01*
X100787Y106896D01*
X100733Y106843D01*
X100676Y106794D01*
X100617Y106747D01*
X100556Y106704D01*
X100493Y106663D01*
X100428Y106626D01*
X100361Y106591D01*
X100292Y106561D01*
X100222Y106533D01*
X100151Y106510D01*
X100079Y106489D01*
X100006Y106473D01*
X99932Y106460D01*
X99857Y106450D01*
X99782Y106445D01*
X99707Y106443D01*
X98070Y108080D02*
X101343Y112172D01*
X105298Y111354D02*
X105298Y106443D01*
X105298Y111354D02*
X108981Y111354D01*
X109050Y111352D01*
X109118Y111346D01*
X109187Y111337D01*
X109254Y111323D01*
X109321Y111306D01*
X109387Y111285D01*
X109451Y111261D01*
X109514Y111232D01*
X109575Y111201D01*
X109634Y111166D01*
X109692Y111128D01*
X109747Y111086D01*
X109799Y111042D01*
X109849Y110994D01*
X109897Y110944D01*
X109941Y110892D01*
X109983Y110837D01*
X110021Y110779D01*
X110056Y110720D01*
X110087Y110659D01*
X110116Y110596D01*
X110140Y110532D01*
X110161Y110466D01*
X110178Y110399D01*
X110192Y110332D01*
X110201Y110263D01*
X110207Y110195D01*
X110209Y110126D01*
X110209Y106443D01*
X107753Y106443D02*
X107753Y111354D01*
X113605Y111354D02*
X113605Y106443D01*
X113401Y113400D02*
X113401Y113809D01*
X113810Y113809D01*
X113810Y113400D01*
X113401Y113400D01*
X116845Y111354D02*
X116845Y106443D01*
X116845Y111354D02*
X118891Y111354D01*
X118960Y111352D01*
X119028Y111346D01*
X119097Y111337D01*
X119164Y111323D01*
X119231Y111306D01*
X119297Y111285D01*
X119361Y111261D01*
X119424Y111232D01*
X119485Y111201D01*
X119544Y111166D01*
X119602Y111128D01*
X119657Y111086D01*
X119709Y111042D01*
X119759Y110994D01*
X119807Y110944D01*
X119851Y110892D01*
X119893Y110837D01*
X119931Y110779D01*
X119966Y110720D01*
X119997Y110659D01*
X120026Y110596D01*
X120050Y110532D01*
X120071Y110466D01*
X120088Y110399D01*
X120102Y110332D01*
X120111Y110263D01*
X120117Y110195D01*
X120119Y110126D01*
X120119Y106443D01*
X94437Y85387D02*
X91982Y85387D01*
X91904Y85389D01*
X91826Y85394D01*
X91749Y85404D01*
X91672Y85417D01*
X91596Y85433D01*
X91521Y85453D01*
X91447Y85477D01*
X91374Y85504D01*
X91302Y85535D01*
X91232Y85569D01*
X91163Y85606D01*
X91097Y85647D01*
X91032Y85691D01*
X90970Y85737D01*
X90910Y85787D01*
X90852Y85839D01*
X90797Y85894D01*
X90745Y85952D01*
X90695Y86012D01*
X90649Y86074D01*
X90605Y86139D01*
X90564Y86206D01*
X90527Y86274D01*
X90493Y86344D01*
X90462Y86416D01*
X90435Y86489D01*
X90411Y86563D01*
X90391Y86638D01*
X90375Y86714D01*
X90362Y86791D01*
X90352Y86868D01*
X90347Y86946D01*
X90345Y87024D01*
X90345Y87433D01*
X90347Y87522D01*
X90353Y87611D01*
X90363Y87700D01*
X90376Y87788D01*
X90393Y87876D01*
X90415Y87963D01*
X90440Y88048D01*
X90468Y88133D01*
X90501Y88216D01*
X90537Y88298D01*
X90576Y88378D01*
X90619Y88456D01*
X90665Y88532D01*
X90715Y88607D01*
X90768Y88679D01*
X90824Y88748D01*
X90883Y88815D01*
X90944Y88880D01*
X91009Y88941D01*
X91076Y89000D01*
X91145Y89056D01*
X91217Y89109D01*
X91292Y89159D01*
X91368Y89205D01*
X91446Y89248D01*
X91526Y89287D01*
X91608Y89323D01*
X91691Y89356D01*
X91776Y89384D01*
X91861Y89409D01*
X91948Y89431D01*
X92036Y89448D01*
X92124Y89461D01*
X92213Y89471D01*
X92302Y89477D01*
X92391Y89479D01*
X92480Y89477D01*
X92569Y89471D01*
X92658Y89461D01*
X92746Y89448D01*
X92834Y89431D01*
X92921Y89409D01*
X93006Y89384D01*
X93091Y89356D01*
X93174Y89323D01*
X93256Y89287D01*
X93336Y89248D01*
X93414Y89205D01*
X93490Y89159D01*
X93565Y89109D01*
X93637Y89056D01*
X93706Y89000D01*
X93773Y88941D01*
X93838Y88880D01*
X93899Y88815D01*
X93958Y88748D01*
X94014Y88679D01*
X94067Y88607D01*
X94117Y88532D01*
X94163Y88456D01*
X94206Y88378D01*
X94245Y88298D01*
X94281Y88216D01*
X94314Y88133D01*
X94342Y88048D01*
X94367Y87963D01*
X94389Y87876D01*
X94406Y87788D01*
X94419Y87700D01*
X94429Y87611D01*
X94435Y87522D01*
X94437Y87433D01*
X94437Y85387D01*
X94438Y85387D02*
X94436Y85275D01*
X94430Y85164D01*
X94421Y85052D01*
X94408Y84941D01*
X94390Y84831D01*
X94370Y84721D01*
X94345Y84612D01*
X94317Y84504D01*
X94285Y84397D01*
X94249Y84291D01*
X94210Y84186D01*
X94167Y84083D01*
X94121Y83981D01*
X94071Y83881D01*
X94018Y83782D01*
X93961Y83686D01*
X93902Y83591D01*
X93839Y83499D01*
X93773Y83409D01*
X93704Y83321D01*
X93632Y83235D01*
X93557Y83152D01*
X93479Y83072D01*
X93399Y82994D01*
X93316Y82919D01*
X93230Y82847D01*
X93142Y82778D01*
X93052Y82712D01*
X92960Y82649D01*
X92865Y82590D01*
X92769Y82533D01*
X92670Y82480D01*
X92570Y82430D01*
X92468Y82384D01*
X92365Y82341D01*
X92260Y82302D01*
X92154Y82266D01*
X92047Y82234D01*
X91939Y82206D01*
X91830Y82181D01*
X91720Y82161D01*
X91610Y82143D01*
X91499Y82130D01*
X91387Y82121D01*
X91276Y82115D01*
X91164Y82113D01*
X97661Y85796D02*
X97663Y85949D01*
X97669Y86102D01*
X97678Y86254D01*
X97692Y86407D01*
X97709Y86559D01*
X97730Y86710D01*
X97755Y86861D01*
X97784Y87011D01*
X97816Y87161D01*
X97853Y87309D01*
X97893Y87457D01*
X97936Y87604D01*
X97984Y87749D01*
X98035Y87893D01*
X98089Y88036D01*
X98148Y88178D01*
X98209Y88317D01*
X98275Y88456D01*
X98301Y88526D01*
X98331Y88596D01*
X98364Y88663D01*
X98400Y88729D01*
X98439Y88793D01*
X98482Y88855D01*
X98528Y88914D01*
X98576Y88972D01*
X98627Y89026D01*
X98681Y89079D01*
X98738Y89128D01*
X98797Y89175D01*
X98858Y89218D01*
X98921Y89259D01*
X98986Y89296D01*
X99053Y89331D01*
X99122Y89361D01*
X99192Y89389D01*
X99263Y89412D01*
X99335Y89433D01*
X99408Y89449D01*
X99482Y89462D01*
X99557Y89472D01*
X99632Y89477D01*
X99707Y89479D01*
X99782Y89477D01*
X99857Y89472D01*
X99932Y89462D01*
X100006Y89449D01*
X100079Y89433D01*
X100151Y89412D01*
X100222Y89389D01*
X100292Y89361D01*
X100361Y89331D01*
X100428Y89296D01*
X100493Y89259D01*
X100556Y89218D01*
X100617Y89175D01*
X100676Y89128D01*
X100733Y89079D01*
X100787Y89026D01*
X100838Y88972D01*
X100887Y88914D01*
X100932Y88855D01*
X100975Y88793D01*
X101014Y88729D01*
X101051Y88663D01*
X101083Y88595D01*
X101113Y88526D01*
X101139Y88456D01*
X101204Y88318D01*
X101266Y88178D01*
X101324Y88036D01*
X101379Y87893D01*
X101430Y87749D01*
X101478Y87604D01*
X101521Y87457D01*
X101561Y87310D01*
X101598Y87161D01*
X101630Y87011D01*
X101659Y86861D01*
X101684Y86710D01*
X101705Y86559D01*
X101722Y86407D01*
X101736Y86254D01*
X101745Y86102D01*
X101751Y85949D01*
X101753Y85796D01*
X97660Y85796D02*
X97662Y85643D01*
X97668Y85490D01*
X97677Y85337D01*
X97691Y85185D01*
X97708Y85033D01*
X97729Y84882D01*
X97754Y84731D01*
X97783Y84580D01*
X97815Y84431D01*
X97852Y84282D01*
X97892Y84135D01*
X97935Y83988D01*
X97983Y83843D01*
X98034Y83698D01*
X98089Y83556D01*
X98147Y83414D01*
X98209Y83274D01*
X98274Y83136D01*
X98275Y83136D02*
X98301Y83065D01*
X98331Y82996D01*
X98364Y82929D01*
X98400Y82863D01*
X98439Y82799D01*
X98482Y82737D01*
X98528Y82678D01*
X98576Y82620D01*
X98627Y82566D01*
X98681Y82513D01*
X98738Y82464D01*
X98797Y82417D01*
X98858Y82374D01*
X98921Y82333D01*
X98986Y82296D01*
X99053Y82261D01*
X99122Y82231D01*
X99192Y82203D01*
X99263Y82180D01*
X99335Y82159D01*
X99408Y82143D01*
X99482Y82130D01*
X99557Y82120D01*
X99632Y82115D01*
X99707Y82113D01*
X101138Y83136D02*
X101203Y83274D01*
X101265Y83414D01*
X101323Y83556D01*
X101378Y83699D01*
X101429Y83843D01*
X101477Y83988D01*
X101520Y84135D01*
X101560Y84283D01*
X101597Y84431D01*
X101629Y84581D01*
X101658Y84731D01*
X101683Y84882D01*
X101704Y85033D01*
X101721Y85185D01*
X101735Y85338D01*
X101744Y85490D01*
X101750Y85643D01*
X101752Y85796D01*
X101139Y83136D02*
X101113Y83066D01*
X101083Y82996D01*
X101051Y82929D01*
X101014Y82863D01*
X100975Y82799D01*
X100932Y82737D01*
X100886Y82678D01*
X100838Y82620D01*
X100787Y82566D01*
X100733Y82513D01*
X100676Y82464D01*
X100617Y82417D01*
X100556Y82374D01*
X100493Y82333D01*
X100428Y82296D01*
X100361Y82261D01*
X100292Y82231D01*
X100222Y82203D01*
X100151Y82180D01*
X100079Y82159D01*
X100006Y82143D01*
X99932Y82130D01*
X99857Y82120D01*
X99782Y82115D01*
X99707Y82113D01*
X98070Y83750D02*
X101343Y87842D01*
X105298Y87024D02*
X105298Y82113D01*
X105298Y87024D02*
X108981Y87024D01*
X109050Y87022D01*
X109118Y87016D01*
X109187Y87007D01*
X109254Y86993D01*
X109321Y86976D01*
X109387Y86955D01*
X109451Y86931D01*
X109514Y86902D01*
X109575Y86871D01*
X109634Y86836D01*
X109692Y86798D01*
X109747Y86756D01*
X109799Y86712D01*
X109849Y86664D01*
X109897Y86614D01*
X109941Y86562D01*
X109983Y86507D01*
X110021Y86449D01*
X110056Y86390D01*
X110087Y86329D01*
X110116Y86266D01*
X110140Y86202D01*
X110161Y86136D01*
X110178Y86069D01*
X110192Y86002D01*
X110201Y85933D01*
X110207Y85865D01*
X110209Y85796D01*
X110209Y82113D01*
X107753Y82113D02*
X107753Y87024D01*
X113605Y87024D02*
X113605Y82113D01*
X113401Y89070D02*
X113401Y89479D01*
X113810Y89479D01*
X113810Y89070D01*
X113401Y89070D01*
X116845Y87024D02*
X116845Y82113D01*
X116845Y87024D02*
X118891Y87024D01*
X118960Y87022D01*
X119028Y87016D01*
X119097Y87007D01*
X119164Y86993D01*
X119231Y86976D01*
X119297Y86955D01*
X119361Y86931D01*
X119424Y86902D01*
X119485Y86871D01*
X119544Y86836D01*
X119602Y86798D01*
X119657Y86756D01*
X119709Y86712D01*
X119759Y86664D01*
X119807Y86614D01*
X119851Y86562D01*
X119893Y86507D01*
X119931Y86449D01*
X119966Y86390D01*
X119997Y86329D01*
X120026Y86266D01*
X120050Y86202D01*
X120071Y86136D01*
X120088Y86069D01*
X120102Y86002D01*
X120111Y85933D01*
X120117Y85865D01*
X120119Y85796D01*
X120119Y82113D01*
X285661Y161626D02*
X285663Y161779D01*
X285669Y161932D01*
X285678Y162084D01*
X285692Y162237D01*
X285709Y162389D01*
X285730Y162540D01*
X285755Y162691D01*
X285784Y162841D01*
X285816Y162991D01*
X285853Y163139D01*
X285893Y163287D01*
X285936Y163434D01*
X285984Y163579D01*
X286035Y163723D01*
X286089Y163866D01*
X286148Y164008D01*
X286209Y164147D01*
X286275Y164286D01*
X286301Y164356D01*
X286331Y164426D01*
X286364Y164493D01*
X286400Y164559D01*
X286439Y164623D01*
X286482Y164685D01*
X286528Y164744D01*
X286576Y164802D01*
X286627Y164856D01*
X286681Y164909D01*
X286738Y164958D01*
X286797Y165005D01*
X286858Y165048D01*
X286921Y165089D01*
X286986Y165126D01*
X287053Y165161D01*
X287122Y165191D01*
X287192Y165219D01*
X287263Y165242D01*
X287335Y165263D01*
X287408Y165279D01*
X287482Y165292D01*
X287557Y165302D01*
X287632Y165307D01*
X287707Y165309D01*
X287782Y165307D01*
X287857Y165302D01*
X287932Y165292D01*
X288006Y165279D01*
X288079Y165263D01*
X288151Y165242D01*
X288222Y165219D01*
X288292Y165191D01*
X288361Y165161D01*
X288428Y165126D01*
X288493Y165089D01*
X288556Y165048D01*
X288617Y165005D01*
X288676Y164958D01*
X288733Y164909D01*
X288787Y164856D01*
X288838Y164802D01*
X288887Y164744D01*
X288932Y164685D01*
X288975Y164623D01*
X289014Y164559D01*
X289051Y164493D01*
X289083Y164425D01*
X289113Y164356D01*
X289139Y164286D01*
X289204Y164148D01*
X289266Y164008D01*
X289324Y163866D01*
X289379Y163723D01*
X289430Y163579D01*
X289478Y163434D01*
X289521Y163287D01*
X289561Y163140D01*
X289598Y162991D01*
X289630Y162841D01*
X289659Y162691D01*
X289684Y162540D01*
X289705Y162389D01*
X289722Y162237D01*
X289736Y162084D01*
X289745Y161932D01*
X289751Y161779D01*
X289753Y161626D01*
X285660Y161626D02*
X285662Y161473D01*
X285668Y161320D01*
X285677Y161167D01*
X285691Y161015D01*
X285708Y160863D01*
X285729Y160712D01*
X285754Y160561D01*
X285783Y160410D01*
X285815Y160261D01*
X285852Y160112D01*
X285892Y159965D01*
X285935Y159818D01*
X285983Y159673D01*
X286034Y159528D01*
X286089Y159386D01*
X286147Y159244D01*
X286209Y159104D01*
X286274Y158966D01*
X286275Y158966D02*
X286301Y158895D01*
X286331Y158826D01*
X286364Y158759D01*
X286400Y158693D01*
X286439Y158629D01*
X286482Y158567D01*
X286528Y158508D01*
X286576Y158450D01*
X286627Y158396D01*
X286681Y158343D01*
X286738Y158294D01*
X286797Y158247D01*
X286858Y158204D01*
X286921Y158163D01*
X286986Y158126D01*
X287053Y158091D01*
X287122Y158061D01*
X287192Y158033D01*
X287263Y158010D01*
X287335Y157989D01*
X287408Y157973D01*
X287482Y157960D01*
X287557Y157950D01*
X287632Y157945D01*
X287707Y157943D01*
X289138Y158966D02*
X289203Y159104D01*
X289265Y159244D01*
X289323Y159386D01*
X289378Y159529D01*
X289429Y159673D01*
X289477Y159818D01*
X289520Y159965D01*
X289560Y160113D01*
X289597Y160261D01*
X289629Y160411D01*
X289658Y160561D01*
X289683Y160712D01*
X289704Y160863D01*
X289721Y161015D01*
X289735Y161168D01*
X289744Y161320D01*
X289750Y161473D01*
X289752Y161626D01*
X289139Y158966D02*
X289113Y158896D01*
X289083Y158826D01*
X289051Y158759D01*
X289014Y158693D01*
X288975Y158629D01*
X288932Y158567D01*
X288886Y158508D01*
X288838Y158450D01*
X288787Y158396D01*
X288733Y158343D01*
X288676Y158294D01*
X288617Y158247D01*
X288556Y158204D01*
X288493Y158163D01*
X288428Y158126D01*
X288361Y158091D01*
X288292Y158061D01*
X288222Y158033D01*
X288151Y158010D01*
X288079Y157989D01*
X288006Y157973D01*
X287932Y157960D01*
X287857Y157950D01*
X287782Y157945D01*
X287707Y157943D01*
X286070Y159580D02*
X289343Y163672D01*
X293298Y162854D02*
X293298Y157943D01*
X293298Y162854D02*
X296981Y162854D01*
X297050Y162852D01*
X297118Y162846D01*
X297187Y162837D01*
X297254Y162823D01*
X297321Y162806D01*
X297387Y162785D01*
X297451Y162761D01*
X297514Y162732D01*
X297575Y162701D01*
X297634Y162666D01*
X297692Y162628D01*
X297747Y162586D01*
X297799Y162542D01*
X297849Y162494D01*
X297897Y162444D01*
X297941Y162392D01*
X297983Y162337D01*
X298021Y162279D01*
X298056Y162220D01*
X298087Y162159D01*
X298116Y162096D01*
X298140Y162032D01*
X298161Y161966D01*
X298178Y161899D01*
X298192Y161832D01*
X298201Y161763D01*
X298207Y161695D01*
X298209Y161626D01*
X298209Y157943D01*
X295753Y157943D02*
X295753Y162854D01*
X301605Y162854D02*
X301605Y157943D01*
X301401Y164900D02*
X301401Y165309D01*
X301810Y165309D01*
X301810Y164900D01*
X301401Y164900D01*
X304845Y162854D02*
X304845Y157943D01*
X304845Y162854D02*
X306891Y162854D01*
X306960Y162852D01*
X307028Y162846D01*
X307097Y162837D01*
X307164Y162823D01*
X307231Y162806D01*
X307297Y162785D01*
X307361Y162761D01*
X307424Y162732D01*
X307485Y162701D01*
X307544Y162666D01*
X307602Y162628D01*
X307657Y162586D01*
X307709Y162542D01*
X307759Y162494D01*
X307807Y162444D01*
X307851Y162392D01*
X307893Y162337D01*
X307931Y162279D01*
X307966Y162220D01*
X307997Y162159D01*
X308026Y162096D01*
X308050Y162032D01*
X308071Y161966D01*
X308088Y161899D01*
X308102Y161832D01*
X308111Y161763D01*
X308117Y161695D01*
X308119Y161626D01*
X308119Y157943D01*
X288116Y131343D02*
X285660Y131343D01*
X288116Y131343D02*
X288194Y131345D01*
X288272Y131350D01*
X288349Y131360D01*
X288426Y131373D01*
X288502Y131389D01*
X288577Y131409D01*
X288651Y131433D01*
X288724Y131460D01*
X288796Y131491D01*
X288866Y131525D01*
X288935Y131562D01*
X289001Y131603D01*
X289066Y131647D01*
X289128Y131693D01*
X289188Y131743D01*
X289246Y131795D01*
X289301Y131850D01*
X289353Y131908D01*
X289403Y131968D01*
X289449Y132030D01*
X289493Y132095D01*
X289534Y132162D01*
X289571Y132230D01*
X289605Y132300D01*
X289636Y132372D01*
X289663Y132445D01*
X289687Y132519D01*
X289707Y132594D01*
X289723Y132670D01*
X289736Y132747D01*
X289746Y132824D01*
X289751Y132902D01*
X289753Y132980D01*
X289753Y133798D01*
X289751Y133876D01*
X289746Y133954D01*
X289736Y134031D01*
X289723Y134108D01*
X289707Y134184D01*
X289687Y134259D01*
X289663Y134333D01*
X289636Y134406D01*
X289605Y134478D01*
X289571Y134548D01*
X289534Y134617D01*
X289493Y134683D01*
X289449Y134748D01*
X289403Y134810D01*
X289353Y134870D01*
X289301Y134928D01*
X289246Y134983D01*
X289188Y135035D01*
X289128Y135085D01*
X289066Y135131D01*
X289001Y135175D01*
X288935Y135216D01*
X288866Y135253D01*
X288796Y135287D01*
X288724Y135318D01*
X288651Y135345D01*
X288577Y135369D01*
X288502Y135389D01*
X288426Y135405D01*
X288349Y135418D01*
X288272Y135428D01*
X288194Y135433D01*
X288116Y135435D01*
X285660Y135435D01*
X285660Y138709D01*
X289753Y138709D01*
X293298Y136254D02*
X293298Y131343D01*
X293298Y136254D02*
X296981Y136254D01*
X297050Y136252D01*
X297118Y136246D01*
X297187Y136237D01*
X297254Y136223D01*
X297321Y136206D01*
X297387Y136185D01*
X297451Y136161D01*
X297514Y136132D01*
X297575Y136101D01*
X297634Y136066D01*
X297692Y136028D01*
X297747Y135986D01*
X297799Y135942D01*
X297849Y135894D01*
X297897Y135844D01*
X297941Y135792D01*
X297983Y135737D01*
X298021Y135679D01*
X298056Y135620D01*
X298087Y135559D01*
X298116Y135496D01*
X298140Y135432D01*
X298161Y135366D01*
X298178Y135299D01*
X298192Y135232D01*
X298201Y135163D01*
X298207Y135095D01*
X298209Y135026D01*
X298209Y131343D01*
X295753Y131343D02*
X295753Y136254D01*
X301605Y136254D02*
X301605Y131343D01*
X301401Y138300D02*
X301401Y138709D01*
X301810Y138709D01*
X301810Y138300D01*
X301401Y138300D01*
X304845Y136254D02*
X304845Y131343D01*
X304845Y136254D02*
X306891Y136254D01*
X306960Y136252D01*
X307028Y136246D01*
X307097Y136237D01*
X307164Y136223D01*
X307231Y136206D01*
X307297Y136185D01*
X307361Y136161D01*
X307424Y136132D01*
X307485Y136101D01*
X307544Y136066D01*
X307602Y136028D01*
X307657Y135986D01*
X307709Y135942D01*
X307759Y135894D01*
X307807Y135844D01*
X307851Y135792D01*
X307893Y135737D01*
X307931Y135679D01*
X307966Y135620D01*
X307997Y135559D01*
X308026Y135496D01*
X308050Y135432D01*
X308071Y135366D01*
X308088Y135299D01*
X308102Y135232D01*
X308111Y135163D01*
X308117Y135095D01*
X308119Y135026D01*
X308119Y131343D01*
X280391Y114109D02*
X278345Y112472D01*
X280391Y114109D02*
X280391Y106743D01*
X278345Y106743D02*
X282437Y106743D01*
X285661Y110426D02*
X285663Y110579D01*
X285669Y110732D01*
X285678Y110884D01*
X285692Y111037D01*
X285709Y111189D01*
X285730Y111340D01*
X285755Y111491D01*
X285784Y111641D01*
X285816Y111791D01*
X285853Y111939D01*
X285893Y112087D01*
X285936Y112234D01*
X285984Y112379D01*
X286035Y112523D01*
X286089Y112666D01*
X286148Y112808D01*
X286209Y112947D01*
X286275Y113086D01*
X286301Y113156D01*
X286331Y113226D01*
X286364Y113293D01*
X286400Y113359D01*
X286439Y113423D01*
X286482Y113485D01*
X286528Y113544D01*
X286576Y113602D01*
X286627Y113656D01*
X286681Y113709D01*
X286738Y113758D01*
X286797Y113805D01*
X286858Y113848D01*
X286921Y113889D01*
X286986Y113926D01*
X287053Y113961D01*
X287122Y113991D01*
X287192Y114019D01*
X287263Y114042D01*
X287335Y114063D01*
X287408Y114079D01*
X287482Y114092D01*
X287557Y114102D01*
X287632Y114107D01*
X287707Y114109D01*
X287782Y114107D01*
X287857Y114102D01*
X287932Y114092D01*
X288006Y114079D01*
X288079Y114063D01*
X288151Y114042D01*
X288222Y114019D01*
X288292Y113991D01*
X288361Y113961D01*
X288428Y113926D01*
X288493Y113889D01*
X288556Y113848D01*
X288617Y113805D01*
X288676Y113758D01*
X288733Y113709D01*
X288787Y113656D01*
X288838Y113602D01*
X288887Y113544D01*
X288932Y113485D01*
X288975Y113423D01*
X289014Y113359D01*
X289051Y113293D01*
X289083Y113225D01*
X289113Y113156D01*
X289139Y113086D01*
X289204Y112948D01*
X289266Y112808D01*
X289324Y112666D01*
X289379Y112523D01*
X289430Y112379D01*
X289478Y112234D01*
X289521Y112087D01*
X289561Y111940D01*
X289598Y111791D01*
X289630Y111641D01*
X289659Y111491D01*
X289684Y111340D01*
X289705Y111189D01*
X289722Y111037D01*
X289736Y110884D01*
X289745Y110732D01*
X289751Y110579D01*
X289753Y110426D01*
X285660Y110426D02*
X285662Y110273D01*
X285668Y110120D01*
X285677Y109967D01*
X285691Y109815D01*
X285708Y109663D01*
X285729Y109512D01*
X285754Y109361D01*
X285783Y109210D01*
X285815Y109061D01*
X285852Y108912D01*
X285892Y108765D01*
X285935Y108618D01*
X285983Y108473D01*
X286034Y108328D01*
X286089Y108186D01*
X286147Y108044D01*
X286209Y107904D01*
X286274Y107766D01*
X286275Y107766D02*
X286301Y107695D01*
X286331Y107626D01*
X286364Y107559D01*
X286400Y107493D01*
X286439Y107429D01*
X286482Y107367D01*
X286528Y107308D01*
X286576Y107250D01*
X286627Y107196D01*
X286681Y107143D01*
X286738Y107094D01*
X286797Y107047D01*
X286858Y107004D01*
X286921Y106963D01*
X286986Y106926D01*
X287053Y106891D01*
X287122Y106861D01*
X287192Y106833D01*
X287263Y106810D01*
X287335Y106789D01*
X287408Y106773D01*
X287482Y106760D01*
X287557Y106750D01*
X287632Y106745D01*
X287707Y106743D01*
X289138Y107766D02*
X289203Y107904D01*
X289265Y108044D01*
X289323Y108186D01*
X289378Y108329D01*
X289429Y108473D01*
X289477Y108618D01*
X289520Y108765D01*
X289560Y108913D01*
X289597Y109061D01*
X289629Y109211D01*
X289658Y109361D01*
X289683Y109512D01*
X289704Y109663D01*
X289721Y109815D01*
X289735Y109968D01*
X289744Y110120D01*
X289750Y110273D01*
X289752Y110426D01*
X289139Y107766D02*
X289113Y107696D01*
X289083Y107626D01*
X289051Y107559D01*
X289014Y107493D01*
X288975Y107429D01*
X288932Y107367D01*
X288886Y107308D01*
X288838Y107250D01*
X288787Y107196D01*
X288733Y107143D01*
X288676Y107094D01*
X288617Y107047D01*
X288556Y107004D01*
X288493Y106963D01*
X288428Y106926D01*
X288361Y106891D01*
X288292Y106861D01*
X288222Y106833D01*
X288151Y106810D01*
X288079Y106789D01*
X288006Y106773D01*
X287932Y106760D01*
X287857Y106750D01*
X287782Y106745D01*
X287707Y106743D01*
X286070Y108380D02*
X289343Y112472D01*
X293298Y111654D02*
X293298Y106743D01*
X293298Y111654D02*
X296981Y111654D01*
X297050Y111652D01*
X297118Y111646D01*
X297187Y111637D01*
X297254Y111623D01*
X297321Y111606D01*
X297387Y111585D01*
X297451Y111561D01*
X297514Y111532D01*
X297575Y111501D01*
X297634Y111466D01*
X297692Y111428D01*
X297747Y111386D01*
X297799Y111342D01*
X297849Y111294D01*
X297897Y111244D01*
X297941Y111192D01*
X297983Y111137D01*
X298021Y111079D01*
X298056Y111020D01*
X298087Y110959D01*
X298116Y110896D01*
X298140Y110832D01*
X298161Y110766D01*
X298178Y110699D01*
X298192Y110632D01*
X298201Y110563D01*
X298207Y110495D01*
X298209Y110426D01*
X298209Y106743D01*
X295753Y106743D02*
X295753Y111654D01*
X301605Y111654D02*
X301605Y106743D01*
X301401Y113700D02*
X301401Y114109D01*
X301810Y114109D01*
X301810Y113700D01*
X301401Y113700D01*
X304845Y111654D02*
X304845Y106743D01*
X304845Y111654D02*
X306891Y111654D01*
X306960Y111652D01*
X307028Y111646D01*
X307097Y111637D01*
X307164Y111623D01*
X307231Y111606D01*
X307297Y111585D01*
X307361Y111561D01*
X307424Y111532D01*
X307485Y111501D01*
X307544Y111466D01*
X307602Y111428D01*
X307657Y111386D01*
X307709Y111342D01*
X307759Y111294D01*
X307807Y111244D01*
X307851Y111192D01*
X307893Y111137D01*
X307931Y111079D01*
X307966Y111020D01*
X307997Y110959D01*
X308026Y110896D01*
X308050Y110832D01*
X308071Y110766D01*
X308088Y110699D01*
X308102Y110632D01*
X308111Y110563D01*
X308117Y110495D01*
X308119Y110426D01*
X308119Y106743D01*
X280391Y89509D02*
X278345Y87872D01*
X280391Y89509D02*
X280391Y82143D01*
X278345Y82143D02*
X282437Y82143D01*
X285660Y82143D02*
X288116Y82143D01*
X288194Y82145D01*
X288272Y82150D01*
X288349Y82160D01*
X288426Y82173D01*
X288502Y82189D01*
X288577Y82209D01*
X288651Y82233D01*
X288724Y82260D01*
X288796Y82291D01*
X288866Y82325D01*
X288935Y82362D01*
X289001Y82403D01*
X289066Y82447D01*
X289128Y82493D01*
X289188Y82543D01*
X289246Y82595D01*
X289301Y82650D01*
X289353Y82708D01*
X289403Y82768D01*
X289449Y82830D01*
X289493Y82895D01*
X289534Y82962D01*
X289571Y83030D01*
X289605Y83100D01*
X289636Y83172D01*
X289663Y83245D01*
X289687Y83319D01*
X289707Y83394D01*
X289723Y83470D01*
X289736Y83547D01*
X289746Y83624D01*
X289751Y83702D01*
X289753Y83780D01*
X289753Y84598D01*
X289751Y84676D01*
X289746Y84754D01*
X289736Y84831D01*
X289723Y84908D01*
X289707Y84984D01*
X289687Y85059D01*
X289663Y85133D01*
X289636Y85206D01*
X289605Y85278D01*
X289571Y85348D01*
X289534Y85417D01*
X289493Y85483D01*
X289449Y85548D01*
X289403Y85610D01*
X289353Y85670D01*
X289301Y85728D01*
X289246Y85783D01*
X289188Y85835D01*
X289128Y85885D01*
X289066Y85931D01*
X289001Y85975D01*
X288935Y86016D01*
X288866Y86053D01*
X288796Y86087D01*
X288724Y86118D01*
X288651Y86145D01*
X288577Y86169D01*
X288502Y86189D01*
X288426Y86205D01*
X288349Y86218D01*
X288272Y86228D01*
X288194Y86233D01*
X288116Y86235D01*
X285660Y86235D01*
X285660Y89509D01*
X289753Y89509D01*
X293298Y87054D02*
X293298Y82143D01*
X293298Y87054D02*
X296981Y87054D01*
X297050Y87052D01*
X297118Y87046D01*
X297187Y87037D01*
X297254Y87023D01*
X297321Y87006D01*
X297387Y86985D01*
X297451Y86961D01*
X297514Y86932D01*
X297575Y86901D01*
X297634Y86866D01*
X297692Y86828D01*
X297747Y86786D01*
X297799Y86742D01*
X297849Y86694D01*
X297897Y86644D01*
X297941Y86592D01*
X297983Y86537D01*
X298021Y86479D01*
X298056Y86420D01*
X298087Y86359D01*
X298116Y86296D01*
X298140Y86232D01*
X298161Y86166D01*
X298178Y86099D01*
X298192Y86032D01*
X298201Y85963D01*
X298207Y85895D01*
X298209Y85826D01*
X298209Y82143D01*
X295753Y82143D02*
X295753Y87054D01*
X301605Y87054D02*
X301605Y82143D01*
X301401Y89100D02*
X301401Y89509D01*
X301810Y89509D01*
X301810Y89100D01*
X301401Y89100D01*
X304845Y87054D02*
X304845Y82143D01*
X304845Y87054D02*
X306891Y87054D01*
X306960Y87052D01*
X307028Y87046D01*
X307097Y87037D01*
X307164Y87023D01*
X307231Y87006D01*
X307297Y86985D01*
X307361Y86961D01*
X307424Y86932D01*
X307485Y86901D01*
X307544Y86866D01*
X307602Y86828D01*
X307657Y86786D01*
X307709Y86742D01*
X307759Y86694D01*
X307807Y86644D01*
X307851Y86592D01*
X307893Y86537D01*
X307931Y86479D01*
X307966Y86420D01*
X307997Y86359D01*
X308026Y86296D01*
X308050Y86232D01*
X308071Y86166D01*
X308088Y86099D01*
X308102Y86032D01*
X308111Y85963D01*
X308117Y85895D01*
X308119Y85826D01*
X308119Y82143D01*
D11*
X364640Y390690D02*
X364640Y398310D01*
X360830Y394500D01*
X363370Y391960D01*
X364640Y390690D01*
X363370Y391960D02*
X363370Y394500D01*
X362100Y394500D02*
X358290Y394500D01*
D10*
X69087Y390511D02*
X67041Y390511D01*
X69087Y390511D02*
X69176Y390513D01*
X69265Y390519D01*
X69354Y390529D01*
X69442Y390542D01*
X69530Y390559D01*
X69617Y390581D01*
X69702Y390606D01*
X69787Y390634D01*
X69870Y390667D01*
X69952Y390703D01*
X70032Y390742D01*
X70110Y390785D01*
X70186Y390831D01*
X70261Y390881D01*
X70333Y390934D01*
X70402Y390990D01*
X70469Y391049D01*
X70534Y391110D01*
X70595Y391175D01*
X70654Y391242D01*
X70710Y391311D01*
X70763Y391383D01*
X70813Y391458D01*
X70859Y391534D01*
X70902Y391612D01*
X70941Y391692D01*
X70977Y391774D01*
X71010Y391857D01*
X71038Y391942D01*
X71063Y392027D01*
X71085Y392114D01*
X71102Y392202D01*
X71115Y392290D01*
X71125Y392379D01*
X71131Y392468D01*
X71133Y392557D01*
X71131Y392646D01*
X71125Y392735D01*
X71115Y392824D01*
X71102Y392912D01*
X71085Y393000D01*
X71063Y393087D01*
X71038Y393172D01*
X71010Y393257D01*
X70977Y393340D01*
X70941Y393422D01*
X70902Y393502D01*
X70859Y393580D01*
X70813Y393656D01*
X70763Y393731D01*
X70710Y393803D01*
X70654Y393872D01*
X70595Y393939D01*
X70534Y394004D01*
X70469Y394065D01*
X70402Y394124D01*
X70333Y394180D01*
X70261Y394233D01*
X70186Y394283D01*
X70110Y394329D01*
X70032Y394372D01*
X69952Y394411D01*
X69870Y394447D01*
X69787Y394480D01*
X69702Y394508D01*
X69617Y394533D01*
X69530Y394555D01*
X69442Y394572D01*
X69354Y394585D01*
X69265Y394595D01*
X69176Y394601D01*
X69087Y394603D01*
X69496Y397877D02*
X67041Y397877D01*
X69496Y397877D02*
X69575Y397875D01*
X69654Y397869D01*
X69733Y397860D01*
X69811Y397847D01*
X69888Y397829D01*
X69964Y397809D01*
X70039Y397784D01*
X70113Y397756D01*
X70186Y397725D01*
X70257Y397689D01*
X70326Y397651D01*
X70393Y397609D01*
X70458Y397564D01*
X70521Y397516D01*
X70582Y397465D01*
X70639Y397411D01*
X70695Y397355D01*
X70747Y397296D01*
X70797Y397234D01*
X70843Y397170D01*
X70887Y397104D01*
X70927Y397036D01*
X70963Y396966D01*
X70997Y396894D01*
X71027Y396820D01*
X71053Y396746D01*
X71076Y396670D01*
X71094Y396593D01*
X71110Y396516D01*
X71121Y396437D01*
X71129Y396359D01*
X71133Y396280D01*
X71133Y396200D01*
X71129Y396121D01*
X71121Y396043D01*
X71110Y395964D01*
X71094Y395887D01*
X71076Y395810D01*
X71053Y395734D01*
X71027Y395660D01*
X70997Y395586D01*
X70963Y395514D01*
X70927Y395444D01*
X70887Y395376D01*
X70843Y395310D01*
X70797Y395246D01*
X70747Y395184D01*
X70695Y395125D01*
X70639Y395069D01*
X70582Y395015D01*
X70521Y394964D01*
X70458Y394916D01*
X70393Y394871D01*
X70326Y394829D01*
X70257Y394791D01*
X70186Y394755D01*
X70113Y394724D01*
X70039Y394696D01*
X69964Y394671D01*
X69888Y394651D01*
X69811Y394633D01*
X69733Y394620D01*
X69654Y394611D01*
X69575Y394605D01*
X69496Y394603D01*
X67859Y394603D01*
X73947Y397877D02*
X76402Y390511D01*
X78858Y397877D01*
X71133Y368463D02*
X69906Y368463D01*
X71133Y368463D02*
X71133Y364371D01*
X68678Y364371D01*
X68600Y364373D01*
X68522Y364378D01*
X68445Y364388D01*
X68368Y364401D01*
X68292Y364417D01*
X68217Y364437D01*
X68143Y364461D01*
X68070Y364488D01*
X67998Y364519D01*
X67928Y364553D01*
X67860Y364590D01*
X67793Y364631D01*
X67728Y364675D01*
X67666Y364721D01*
X67606Y364771D01*
X67548Y364823D01*
X67493Y364878D01*
X67441Y364936D01*
X67391Y364996D01*
X67345Y365058D01*
X67301Y365123D01*
X67260Y365190D01*
X67223Y365258D01*
X67189Y365328D01*
X67158Y365400D01*
X67131Y365473D01*
X67107Y365547D01*
X67087Y365622D01*
X67071Y365698D01*
X67058Y365775D01*
X67048Y365852D01*
X67043Y365930D01*
X67041Y366008D01*
X67041Y370100D01*
X67043Y370180D01*
X67049Y370260D01*
X67059Y370340D01*
X67072Y370419D01*
X67090Y370498D01*
X67111Y370575D01*
X67137Y370651D01*
X67166Y370726D01*
X67198Y370800D01*
X67234Y370872D01*
X67274Y370942D01*
X67317Y371009D01*
X67363Y371075D01*
X67413Y371138D01*
X67465Y371199D01*
X67520Y371258D01*
X67579Y371313D01*
X67639Y371365D01*
X67703Y371415D01*
X67769Y371461D01*
X67836Y371504D01*
X67906Y371544D01*
X67978Y371580D01*
X68052Y371612D01*
X68126Y371641D01*
X68203Y371667D01*
X68280Y371688D01*
X68359Y371706D01*
X68438Y371719D01*
X68518Y371729D01*
X68598Y371735D01*
X68678Y371737D01*
X71133Y371737D01*
X74844Y371737D02*
X74844Y364371D01*
X78936Y364371D02*
X74844Y371737D01*
X78936Y371737D02*
X78936Y364371D01*
X82647Y364371D02*
X82647Y371737D01*
X84693Y371737D01*
X84782Y371735D01*
X84871Y371729D01*
X84960Y371719D01*
X85048Y371706D01*
X85136Y371689D01*
X85223Y371667D01*
X85308Y371642D01*
X85393Y371614D01*
X85476Y371581D01*
X85558Y371545D01*
X85638Y371506D01*
X85716Y371463D01*
X85792Y371417D01*
X85867Y371367D01*
X85939Y371314D01*
X86008Y371258D01*
X86075Y371199D01*
X86140Y371138D01*
X86201Y371073D01*
X86260Y371006D01*
X86316Y370937D01*
X86369Y370865D01*
X86419Y370790D01*
X86465Y370714D01*
X86508Y370636D01*
X86547Y370556D01*
X86583Y370474D01*
X86616Y370391D01*
X86644Y370306D01*
X86669Y370221D01*
X86691Y370134D01*
X86708Y370046D01*
X86721Y369958D01*
X86731Y369869D01*
X86737Y369780D01*
X86739Y369691D01*
X86739Y366417D01*
X86737Y366328D01*
X86731Y366239D01*
X86721Y366150D01*
X86708Y366062D01*
X86691Y365974D01*
X86669Y365887D01*
X86644Y365802D01*
X86616Y365717D01*
X86583Y365634D01*
X86547Y365552D01*
X86508Y365472D01*
X86465Y365394D01*
X86419Y365318D01*
X86369Y365243D01*
X86316Y365171D01*
X86260Y365102D01*
X86201Y365035D01*
X86140Y364970D01*
X86075Y364909D01*
X86008Y364850D01*
X85939Y364794D01*
X85867Y364741D01*
X85792Y364691D01*
X85716Y364645D01*
X85638Y364602D01*
X85558Y364563D01*
X85476Y364527D01*
X85393Y364494D01*
X85308Y364466D01*
X85223Y364441D01*
X85136Y364419D01*
X85048Y364402D01*
X84960Y364389D01*
X84871Y364379D01*
X84782Y364373D01*
X84693Y364371D01*
X82647Y364371D01*
D12*
X63500Y387350D02*
X63500Y400050D01*
X63500Y387350D02*
X57150Y381000D01*
X44450Y381000D02*
X38100Y387350D01*
X57150Y381000D02*
X63500Y374650D01*
X63500Y361950D01*
X57150Y355600D01*
X44450Y355600D02*
X38100Y361950D01*
X38100Y374650D01*
X44450Y381000D01*
X44450Y406400D02*
X57150Y406400D01*
X63500Y400050D01*
X44450Y406400D02*
X38100Y400050D01*
X38100Y387350D01*
X44450Y355600D02*
X57150Y355600D01*
D10*
X39869Y413149D02*
X39869Y420515D01*
X41915Y420515D01*
X42004Y420513D01*
X42093Y420507D01*
X42182Y420497D01*
X42270Y420484D01*
X42358Y420467D01*
X42445Y420445D01*
X42530Y420420D01*
X42615Y420392D01*
X42698Y420359D01*
X42780Y420323D01*
X42860Y420284D01*
X42938Y420241D01*
X43014Y420195D01*
X43089Y420145D01*
X43161Y420092D01*
X43230Y420036D01*
X43297Y419977D01*
X43362Y419916D01*
X43423Y419851D01*
X43482Y419784D01*
X43538Y419715D01*
X43591Y419643D01*
X43641Y419568D01*
X43687Y419492D01*
X43730Y419414D01*
X43769Y419334D01*
X43805Y419252D01*
X43838Y419169D01*
X43866Y419084D01*
X43891Y418999D01*
X43913Y418912D01*
X43930Y418824D01*
X43943Y418736D01*
X43953Y418647D01*
X43959Y418558D01*
X43961Y418469D01*
X43959Y418380D01*
X43953Y418291D01*
X43943Y418202D01*
X43930Y418114D01*
X43913Y418026D01*
X43891Y417939D01*
X43866Y417854D01*
X43838Y417769D01*
X43805Y417686D01*
X43769Y417604D01*
X43730Y417524D01*
X43687Y417446D01*
X43641Y417370D01*
X43591Y417295D01*
X43538Y417223D01*
X43482Y417154D01*
X43423Y417087D01*
X43362Y417022D01*
X43297Y416961D01*
X43230Y416902D01*
X43161Y416846D01*
X43089Y416793D01*
X43014Y416743D01*
X42938Y416697D01*
X42860Y416654D01*
X42780Y416615D01*
X42698Y416579D01*
X42615Y416546D01*
X42530Y416518D01*
X42445Y416493D01*
X42358Y416471D01*
X42270Y416454D01*
X42182Y416441D01*
X42093Y416431D01*
X42004Y416425D01*
X41915Y416423D01*
X39869Y416423D01*
X46570Y420515D02*
X48207Y413149D01*
X49844Y418060D01*
X51481Y413149D01*
X53118Y420515D01*
X56384Y420515D02*
X56384Y413149D01*
X56384Y420515D02*
X58430Y420515D01*
X58519Y420513D01*
X58608Y420507D01*
X58697Y420497D01*
X58785Y420484D01*
X58873Y420467D01*
X58960Y420445D01*
X59045Y420420D01*
X59130Y420392D01*
X59213Y420359D01*
X59295Y420323D01*
X59375Y420284D01*
X59453Y420241D01*
X59529Y420195D01*
X59604Y420145D01*
X59676Y420092D01*
X59745Y420036D01*
X59812Y419977D01*
X59877Y419916D01*
X59938Y419851D01*
X59997Y419784D01*
X60053Y419715D01*
X60106Y419643D01*
X60156Y419568D01*
X60202Y419492D01*
X60245Y419414D01*
X60284Y419334D01*
X60320Y419252D01*
X60353Y419169D01*
X60381Y419084D01*
X60406Y418999D01*
X60428Y418912D01*
X60445Y418824D01*
X60458Y418736D01*
X60468Y418647D01*
X60474Y418558D01*
X60476Y418469D01*
X60474Y418380D01*
X60468Y418291D01*
X60458Y418202D01*
X60445Y418114D01*
X60428Y418026D01*
X60406Y417939D01*
X60381Y417854D01*
X60353Y417769D01*
X60320Y417686D01*
X60284Y417604D01*
X60245Y417524D01*
X60202Y417446D01*
X60156Y417370D01*
X60106Y417295D01*
X60053Y417223D01*
X59997Y417154D01*
X59938Y417087D01*
X59877Y417022D01*
X59812Y416961D01*
X59745Y416902D01*
X59676Y416846D01*
X59604Y416793D01*
X59529Y416743D01*
X59453Y416697D01*
X59375Y416654D01*
X59295Y416615D01*
X59213Y416579D01*
X59130Y416546D01*
X59045Y416518D01*
X58960Y416493D01*
X58873Y416471D01*
X58785Y416454D01*
X58697Y416441D01*
X58608Y416431D01*
X58519Y416425D01*
X58430Y416423D01*
X56384Y416423D01*
X58839Y416423D02*
X60476Y413149D01*
X195505Y203553D02*
X197141Y203553D01*
X195505Y203553D02*
X195427Y203555D01*
X195349Y203560D01*
X195272Y203570D01*
X195195Y203583D01*
X195119Y203599D01*
X195044Y203619D01*
X194970Y203643D01*
X194897Y203670D01*
X194825Y203701D01*
X194755Y203735D01*
X194687Y203772D01*
X194620Y203813D01*
X194555Y203857D01*
X194493Y203903D01*
X194433Y203953D01*
X194375Y204005D01*
X194320Y204060D01*
X194268Y204118D01*
X194218Y204178D01*
X194172Y204240D01*
X194128Y204305D01*
X194087Y204372D01*
X194050Y204440D01*
X194016Y204510D01*
X193985Y204582D01*
X193958Y204655D01*
X193934Y204729D01*
X193914Y204804D01*
X193898Y204880D01*
X193885Y204957D01*
X193875Y205034D01*
X193870Y205112D01*
X193868Y205190D01*
X193868Y209282D01*
X193870Y209362D01*
X193876Y209442D01*
X193886Y209522D01*
X193899Y209601D01*
X193917Y209680D01*
X193938Y209757D01*
X193964Y209833D01*
X193993Y209908D01*
X194025Y209982D01*
X194061Y210054D01*
X194101Y210124D01*
X194144Y210191D01*
X194190Y210257D01*
X194240Y210320D01*
X194292Y210381D01*
X194347Y210440D01*
X194406Y210495D01*
X194466Y210547D01*
X194530Y210597D01*
X194596Y210643D01*
X194663Y210686D01*
X194733Y210726D01*
X194805Y210762D01*
X194879Y210794D01*
X194953Y210823D01*
X195030Y210849D01*
X195107Y210870D01*
X195186Y210888D01*
X195265Y210901D01*
X195345Y210911D01*
X195425Y210917D01*
X195505Y210919D01*
X197141Y210919D01*
X199987Y209282D02*
X202033Y210919D01*
X202033Y203553D01*
X199987Y203553D02*
X204079Y203553D01*
D13*
X289200Y255090D02*
X289200Y323090D01*
X289200Y255090D02*
X110200Y255090D01*
X110200Y323090D01*
X289200Y323090D01*
X289250Y326590D02*
X289250Y347090D01*
D14*
X269042Y278782D02*
X257358Y278782D01*
X269042Y277484D02*
X269042Y280080D01*
X257358Y280080D02*
X257358Y277484D01*
X269042Y287244D02*
X269042Y289840D01*
X269042Y287244D02*
X269040Y287145D01*
X269034Y287045D01*
X269025Y286946D01*
X269012Y286848D01*
X268995Y286750D01*
X268974Y286652D01*
X268949Y286556D01*
X268921Y286461D01*
X268889Y286367D01*
X268854Y286274D01*
X268815Y286182D01*
X268772Y286092D01*
X268727Y286004D01*
X268677Y285917D01*
X268625Y285833D01*
X268569Y285750D01*
X268511Y285670D01*
X268449Y285592D01*
X268384Y285517D01*
X268316Y285444D01*
X268246Y285374D01*
X268173Y285306D01*
X268098Y285241D01*
X268020Y285179D01*
X267940Y285121D01*
X267857Y285065D01*
X267773Y285013D01*
X267686Y284963D01*
X267598Y284918D01*
X267508Y284875D01*
X267416Y284836D01*
X267323Y284801D01*
X267229Y284769D01*
X267134Y284741D01*
X267038Y284716D01*
X266940Y284695D01*
X266842Y284678D01*
X266744Y284665D01*
X266645Y284656D01*
X266545Y284650D01*
X266446Y284648D01*
X266446Y284647D02*
X259954Y284647D01*
X259855Y284649D01*
X259755Y284655D01*
X259656Y284664D01*
X259558Y284677D01*
X259460Y284695D01*
X259362Y284715D01*
X259266Y284740D01*
X259170Y284768D01*
X259076Y284800D01*
X258983Y284835D01*
X258892Y284874D01*
X258802Y284917D01*
X258713Y284962D01*
X258627Y285012D01*
X258542Y285064D01*
X258460Y285120D01*
X258380Y285179D01*
X258302Y285240D01*
X258226Y285305D01*
X258153Y285373D01*
X258083Y285443D01*
X258015Y285516D01*
X257950Y285592D01*
X257889Y285670D01*
X257830Y285750D01*
X257774Y285832D01*
X257722Y285917D01*
X257673Y286003D01*
X257627Y286092D01*
X257584Y286182D01*
X257545Y286273D01*
X257510Y286366D01*
X257478Y286460D01*
X257450Y286556D01*
X257425Y286652D01*
X257405Y286750D01*
X257387Y286848D01*
X257374Y286946D01*
X257365Y287045D01*
X257359Y287144D01*
X257357Y287244D01*
X257358Y287244D02*
X257358Y289840D01*
X259954Y294205D02*
X257358Y297451D01*
X269042Y297451D01*
X269042Y300696D02*
X269042Y294205D01*
D10*
X92639Y268981D02*
X85273Y268981D01*
X85273Y271027D01*
X85275Y271116D01*
X85281Y271205D01*
X85291Y271294D01*
X85304Y271382D01*
X85321Y271470D01*
X85343Y271557D01*
X85368Y271642D01*
X85396Y271727D01*
X85429Y271810D01*
X85465Y271892D01*
X85504Y271972D01*
X85547Y272050D01*
X85593Y272126D01*
X85643Y272201D01*
X85696Y272273D01*
X85752Y272342D01*
X85811Y272409D01*
X85872Y272474D01*
X85937Y272535D01*
X86004Y272594D01*
X86073Y272650D01*
X86145Y272703D01*
X86220Y272753D01*
X86296Y272799D01*
X86374Y272842D01*
X86454Y272881D01*
X86536Y272917D01*
X86619Y272950D01*
X86704Y272978D01*
X86789Y273003D01*
X86876Y273025D01*
X86964Y273042D01*
X87052Y273055D01*
X87141Y273065D01*
X87230Y273071D01*
X87319Y273073D01*
X87408Y273071D01*
X87497Y273065D01*
X87586Y273055D01*
X87674Y273042D01*
X87762Y273025D01*
X87849Y273003D01*
X87934Y272978D01*
X88019Y272950D01*
X88102Y272917D01*
X88184Y272881D01*
X88264Y272842D01*
X88342Y272799D01*
X88418Y272753D01*
X88493Y272703D01*
X88565Y272650D01*
X88634Y272594D01*
X88701Y272535D01*
X88766Y272474D01*
X88827Y272409D01*
X88886Y272342D01*
X88942Y272273D01*
X88995Y272201D01*
X89045Y272126D01*
X89091Y272050D01*
X89134Y271972D01*
X89173Y271892D01*
X89209Y271810D01*
X89242Y271727D01*
X89270Y271642D01*
X89295Y271557D01*
X89317Y271470D01*
X89334Y271382D01*
X89347Y271294D01*
X89357Y271205D01*
X89363Y271116D01*
X89365Y271027D01*
X89365Y268981D01*
X89365Y271436D02*
X92639Y273073D01*
X86910Y276245D02*
X85273Y278291D01*
X92639Y278291D01*
X92639Y276245D02*
X92639Y280337D01*
X247993Y412501D02*
X255359Y412501D01*
X247993Y412501D02*
X247993Y414547D01*
X247995Y414636D01*
X248001Y414725D01*
X248011Y414814D01*
X248024Y414902D01*
X248041Y414990D01*
X248063Y415077D01*
X248088Y415162D01*
X248116Y415247D01*
X248149Y415330D01*
X248185Y415412D01*
X248224Y415492D01*
X248267Y415570D01*
X248313Y415646D01*
X248363Y415721D01*
X248416Y415793D01*
X248472Y415862D01*
X248531Y415929D01*
X248592Y415994D01*
X248657Y416055D01*
X248724Y416114D01*
X248793Y416170D01*
X248865Y416223D01*
X248940Y416273D01*
X249016Y416319D01*
X249094Y416362D01*
X249174Y416401D01*
X249256Y416437D01*
X249339Y416470D01*
X249424Y416498D01*
X249509Y416523D01*
X249596Y416545D01*
X249684Y416562D01*
X249772Y416575D01*
X249861Y416585D01*
X249950Y416591D01*
X250039Y416593D01*
X250128Y416591D01*
X250217Y416585D01*
X250306Y416575D01*
X250394Y416562D01*
X250482Y416545D01*
X250569Y416523D01*
X250654Y416498D01*
X250739Y416470D01*
X250822Y416437D01*
X250904Y416401D01*
X250984Y416362D01*
X251062Y416319D01*
X251138Y416273D01*
X251213Y416223D01*
X251285Y416170D01*
X251354Y416114D01*
X251421Y416055D01*
X251486Y415994D01*
X251547Y415929D01*
X251606Y415862D01*
X251662Y415793D01*
X251715Y415721D01*
X251765Y415646D01*
X251811Y415570D01*
X251854Y415492D01*
X251893Y415412D01*
X251929Y415330D01*
X251962Y415247D01*
X251990Y415162D01*
X252015Y415077D01*
X252037Y414990D01*
X252054Y414902D01*
X252067Y414814D01*
X252077Y414725D01*
X252083Y414636D01*
X252085Y414547D01*
X252085Y412501D01*
X252085Y414956D02*
X255359Y416593D01*
X249630Y419765D02*
X247993Y421811D01*
X255359Y421811D01*
X255359Y419765D02*
X255359Y423857D01*
X251676Y427081D02*
X251523Y427083D01*
X251370Y427089D01*
X251218Y427098D01*
X251065Y427112D01*
X250913Y427129D01*
X250762Y427150D01*
X250611Y427175D01*
X250461Y427204D01*
X250311Y427236D01*
X250163Y427273D01*
X250015Y427313D01*
X249868Y427356D01*
X249723Y427404D01*
X249579Y427455D01*
X249436Y427509D01*
X249294Y427568D01*
X249155Y427629D01*
X249016Y427695D01*
X249016Y427694D02*
X248946Y427720D01*
X248876Y427750D01*
X248809Y427783D01*
X248743Y427819D01*
X248679Y427858D01*
X248617Y427901D01*
X248558Y427947D01*
X248500Y427995D01*
X248446Y428046D01*
X248393Y428100D01*
X248344Y428157D01*
X248297Y428216D01*
X248254Y428277D01*
X248213Y428340D01*
X248176Y428405D01*
X248141Y428472D01*
X248111Y428541D01*
X248083Y428611D01*
X248060Y428682D01*
X248039Y428754D01*
X248023Y428827D01*
X248010Y428901D01*
X248000Y428976D01*
X247995Y429051D01*
X247993Y429126D01*
X247995Y429201D01*
X248000Y429276D01*
X248010Y429351D01*
X248023Y429425D01*
X248039Y429498D01*
X248060Y429570D01*
X248083Y429641D01*
X248111Y429711D01*
X248141Y429780D01*
X248176Y429847D01*
X248213Y429912D01*
X248254Y429975D01*
X248297Y430036D01*
X248344Y430095D01*
X248393Y430152D01*
X248446Y430206D01*
X248500Y430257D01*
X248558Y430306D01*
X248617Y430351D01*
X248679Y430394D01*
X248743Y430433D01*
X248809Y430470D01*
X248877Y430502D01*
X248946Y430532D01*
X249016Y430558D01*
X249154Y430623D01*
X249294Y430685D01*
X249436Y430743D01*
X249579Y430798D01*
X249723Y430849D01*
X249868Y430897D01*
X250015Y430940D01*
X250162Y430980D01*
X250311Y431017D01*
X250461Y431049D01*
X250611Y431078D01*
X250762Y431103D01*
X250913Y431124D01*
X251065Y431141D01*
X251218Y431155D01*
X251370Y431164D01*
X251523Y431170D01*
X251676Y431172D01*
X251676Y427081D02*
X251829Y427083D01*
X251982Y427089D01*
X252134Y427098D01*
X252287Y427112D01*
X252439Y427129D01*
X252590Y427150D01*
X252741Y427175D01*
X252891Y427204D01*
X253041Y427236D01*
X253189Y427273D01*
X253337Y427313D01*
X253484Y427356D01*
X253629Y427404D01*
X253773Y427455D01*
X253916Y427509D01*
X254058Y427568D01*
X254197Y427629D01*
X254336Y427695D01*
X254336Y427694D02*
X254407Y427720D01*
X254476Y427750D01*
X254543Y427783D01*
X254609Y427819D01*
X254673Y427858D01*
X254735Y427901D01*
X254794Y427947D01*
X254852Y427995D01*
X254906Y428046D01*
X254959Y428100D01*
X255008Y428157D01*
X255055Y428216D01*
X255098Y428277D01*
X255139Y428340D01*
X255176Y428405D01*
X255211Y428472D01*
X255241Y428541D01*
X255269Y428611D01*
X255292Y428682D01*
X255313Y428754D01*
X255329Y428827D01*
X255342Y428901D01*
X255352Y428976D01*
X255357Y429051D01*
X255359Y429126D01*
X254336Y430558D02*
X254198Y430623D01*
X254058Y430685D01*
X253916Y430743D01*
X253773Y430798D01*
X253629Y430849D01*
X253484Y430897D01*
X253337Y430940D01*
X253190Y430980D01*
X253041Y431017D01*
X252891Y431049D01*
X252741Y431078D01*
X252590Y431103D01*
X252439Y431124D01*
X252287Y431141D01*
X252134Y431155D01*
X251982Y431164D01*
X251829Y431170D01*
X251676Y431172D01*
X254336Y430558D02*
X254406Y430532D01*
X254476Y430502D01*
X254543Y430469D01*
X254609Y430433D01*
X254673Y430394D01*
X254735Y430351D01*
X254794Y430305D01*
X254852Y430257D01*
X254906Y430206D01*
X254959Y430152D01*
X255008Y430095D01*
X255055Y430036D01*
X255098Y429975D01*
X255139Y429912D01*
X255176Y429847D01*
X255211Y429780D01*
X255241Y429711D01*
X255269Y429641D01*
X255292Y429570D01*
X255313Y429498D01*
X255329Y429425D01*
X255342Y429351D01*
X255352Y429276D01*
X255357Y429201D01*
X255359Y429126D01*
X253722Y427489D02*
X249630Y430763D01*
X227419Y412501D02*
X220053Y412501D01*
X220053Y414547D01*
X220055Y414636D01*
X220061Y414725D01*
X220071Y414814D01*
X220084Y414902D01*
X220101Y414990D01*
X220123Y415077D01*
X220148Y415162D01*
X220176Y415247D01*
X220209Y415330D01*
X220245Y415412D01*
X220284Y415492D01*
X220327Y415570D01*
X220373Y415646D01*
X220423Y415721D01*
X220476Y415793D01*
X220532Y415862D01*
X220591Y415929D01*
X220652Y415994D01*
X220717Y416055D01*
X220784Y416114D01*
X220853Y416170D01*
X220925Y416223D01*
X221000Y416273D01*
X221076Y416319D01*
X221154Y416362D01*
X221234Y416401D01*
X221316Y416437D01*
X221399Y416470D01*
X221484Y416498D01*
X221569Y416523D01*
X221656Y416545D01*
X221744Y416562D01*
X221832Y416575D01*
X221921Y416585D01*
X222010Y416591D01*
X222099Y416593D01*
X222188Y416591D01*
X222277Y416585D01*
X222366Y416575D01*
X222454Y416562D01*
X222542Y416545D01*
X222629Y416523D01*
X222714Y416498D01*
X222799Y416470D01*
X222882Y416437D01*
X222964Y416401D01*
X223044Y416362D01*
X223122Y416319D01*
X223198Y416273D01*
X223273Y416223D01*
X223345Y416170D01*
X223414Y416114D01*
X223481Y416055D01*
X223546Y415994D01*
X223607Y415929D01*
X223666Y415862D01*
X223722Y415793D01*
X223775Y415721D01*
X223825Y415646D01*
X223871Y415570D01*
X223914Y415492D01*
X223953Y415412D01*
X223989Y415330D01*
X224022Y415247D01*
X224050Y415162D01*
X224075Y415077D01*
X224097Y414990D01*
X224114Y414902D01*
X224127Y414814D01*
X224137Y414725D01*
X224143Y414636D01*
X224145Y414547D01*
X224145Y412501D01*
X224145Y414956D02*
X227419Y416593D01*
X221690Y419765D02*
X220053Y421811D01*
X227419Y421811D01*
X227419Y419765D02*
X227419Y423857D01*
X221690Y427080D02*
X220053Y429126D01*
X227419Y429126D01*
X227419Y427080D02*
X227419Y431172D01*
X203289Y412501D02*
X195923Y412501D01*
X195923Y414547D01*
X195925Y414636D01*
X195931Y414725D01*
X195941Y414814D01*
X195954Y414902D01*
X195971Y414990D01*
X195993Y415077D01*
X196018Y415162D01*
X196046Y415247D01*
X196079Y415330D01*
X196115Y415412D01*
X196154Y415492D01*
X196197Y415570D01*
X196243Y415646D01*
X196293Y415721D01*
X196346Y415793D01*
X196402Y415862D01*
X196461Y415929D01*
X196522Y415994D01*
X196587Y416055D01*
X196654Y416114D01*
X196723Y416170D01*
X196795Y416223D01*
X196870Y416273D01*
X196946Y416319D01*
X197024Y416362D01*
X197104Y416401D01*
X197186Y416437D01*
X197269Y416470D01*
X197354Y416498D01*
X197439Y416523D01*
X197526Y416545D01*
X197614Y416562D01*
X197702Y416575D01*
X197791Y416585D01*
X197880Y416591D01*
X197969Y416593D01*
X198058Y416591D01*
X198147Y416585D01*
X198236Y416575D01*
X198324Y416562D01*
X198412Y416545D01*
X198499Y416523D01*
X198584Y416498D01*
X198669Y416470D01*
X198752Y416437D01*
X198834Y416401D01*
X198914Y416362D01*
X198992Y416319D01*
X199068Y416273D01*
X199143Y416223D01*
X199215Y416170D01*
X199284Y416114D01*
X199351Y416055D01*
X199416Y415994D01*
X199477Y415929D01*
X199536Y415862D01*
X199592Y415793D01*
X199645Y415721D01*
X199695Y415646D01*
X199741Y415570D01*
X199784Y415492D01*
X199823Y415412D01*
X199859Y415330D01*
X199892Y415247D01*
X199920Y415162D01*
X199945Y415077D01*
X199967Y414990D01*
X199984Y414902D01*
X199997Y414814D01*
X200007Y414725D01*
X200013Y414636D01*
X200015Y414547D01*
X200015Y412501D01*
X200015Y414956D02*
X203289Y416593D01*
X197560Y419765D02*
X195923Y421811D01*
X203289Y421811D01*
X203289Y419765D02*
X203289Y423857D01*
X197765Y431173D02*
X197680Y431171D01*
X197595Y431165D01*
X197511Y431155D01*
X197427Y431142D01*
X197343Y431124D01*
X197261Y431103D01*
X197180Y431078D01*
X197100Y431049D01*
X197021Y431016D01*
X196944Y430980D01*
X196869Y430940D01*
X196795Y430897D01*
X196724Y430851D01*
X196655Y430801D01*
X196588Y430748D01*
X196524Y430692D01*
X196463Y430633D01*
X196404Y430572D01*
X196348Y430508D01*
X196295Y430441D01*
X196245Y430372D01*
X196199Y430301D01*
X196156Y430227D01*
X196116Y430152D01*
X196080Y430075D01*
X196047Y429996D01*
X196018Y429916D01*
X195993Y429835D01*
X195972Y429753D01*
X195954Y429669D01*
X195941Y429585D01*
X195931Y429501D01*
X195925Y429416D01*
X195923Y429331D01*
X195925Y429235D01*
X195931Y429139D01*
X195941Y429044D01*
X195954Y428949D01*
X195972Y428854D01*
X195993Y428761D01*
X196018Y428668D01*
X196047Y428577D01*
X196079Y428486D01*
X196115Y428397D01*
X196155Y428310D01*
X196198Y428224D01*
X196244Y428140D01*
X196294Y428058D01*
X196348Y427978D01*
X196404Y427901D01*
X196464Y427826D01*
X196526Y427753D01*
X196592Y427683D01*
X196660Y427615D01*
X196731Y427550D01*
X196804Y427489D01*
X196880Y427430D01*
X196959Y427374D01*
X197039Y427322D01*
X197122Y427273D01*
X197206Y427227D01*
X197292Y427185D01*
X197380Y427147D01*
X197469Y427112D01*
X197560Y427080D01*
X199197Y430559D02*
X199138Y430619D01*
X199076Y430676D01*
X199012Y430731D01*
X198945Y430782D01*
X198876Y430831D01*
X198806Y430877D01*
X198733Y430920D01*
X198659Y430960D01*
X198583Y430996D01*
X198505Y431029D01*
X198426Y431059D01*
X198346Y431086D01*
X198265Y431109D01*
X198183Y431128D01*
X198101Y431144D01*
X198017Y431157D01*
X197933Y431166D01*
X197849Y431171D01*
X197765Y431173D01*
X199197Y430559D02*
X203289Y427080D01*
X203289Y431172D01*
X177889Y412501D02*
X170523Y412501D01*
X170523Y414547D01*
X170525Y414636D01*
X170531Y414725D01*
X170541Y414814D01*
X170554Y414902D01*
X170571Y414990D01*
X170593Y415077D01*
X170618Y415162D01*
X170646Y415247D01*
X170679Y415330D01*
X170715Y415412D01*
X170754Y415492D01*
X170797Y415570D01*
X170843Y415646D01*
X170893Y415721D01*
X170946Y415793D01*
X171002Y415862D01*
X171061Y415929D01*
X171122Y415994D01*
X171187Y416055D01*
X171254Y416114D01*
X171323Y416170D01*
X171395Y416223D01*
X171470Y416273D01*
X171546Y416319D01*
X171624Y416362D01*
X171704Y416401D01*
X171786Y416437D01*
X171869Y416470D01*
X171954Y416498D01*
X172039Y416523D01*
X172126Y416545D01*
X172214Y416562D01*
X172302Y416575D01*
X172391Y416585D01*
X172480Y416591D01*
X172569Y416593D01*
X172658Y416591D01*
X172747Y416585D01*
X172836Y416575D01*
X172924Y416562D01*
X173012Y416545D01*
X173099Y416523D01*
X173184Y416498D01*
X173269Y416470D01*
X173352Y416437D01*
X173434Y416401D01*
X173514Y416362D01*
X173592Y416319D01*
X173668Y416273D01*
X173743Y416223D01*
X173815Y416170D01*
X173884Y416114D01*
X173951Y416055D01*
X174016Y415994D01*
X174077Y415929D01*
X174136Y415862D01*
X174192Y415793D01*
X174245Y415721D01*
X174295Y415646D01*
X174341Y415570D01*
X174384Y415492D01*
X174423Y415412D01*
X174459Y415330D01*
X174492Y415247D01*
X174520Y415162D01*
X174545Y415077D01*
X174567Y414990D01*
X174584Y414902D01*
X174597Y414814D01*
X174607Y414725D01*
X174613Y414636D01*
X174615Y414547D01*
X174615Y412501D01*
X174615Y414956D02*
X177889Y416593D01*
X172160Y419765D02*
X170523Y421811D01*
X177889Y421811D01*
X177889Y419765D02*
X177889Y423857D01*
X177889Y427080D02*
X177889Y429126D01*
X177887Y429215D01*
X177881Y429304D01*
X177871Y429393D01*
X177858Y429481D01*
X177841Y429569D01*
X177819Y429656D01*
X177794Y429741D01*
X177766Y429826D01*
X177733Y429909D01*
X177697Y429991D01*
X177658Y430071D01*
X177615Y430149D01*
X177569Y430225D01*
X177519Y430300D01*
X177466Y430372D01*
X177410Y430441D01*
X177351Y430508D01*
X177290Y430573D01*
X177225Y430634D01*
X177158Y430693D01*
X177089Y430749D01*
X177017Y430802D01*
X176942Y430852D01*
X176866Y430898D01*
X176788Y430941D01*
X176708Y430980D01*
X176626Y431016D01*
X176543Y431049D01*
X176458Y431077D01*
X176373Y431102D01*
X176286Y431124D01*
X176198Y431141D01*
X176110Y431154D01*
X176021Y431164D01*
X175932Y431170D01*
X175843Y431172D01*
X175754Y431170D01*
X175665Y431164D01*
X175576Y431154D01*
X175488Y431141D01*
X175400Y431124D01*
X175313Y431102D01*
X175228Y431077D01*
X175143Y431049D01*
X175060Y431016D01*
X174978Y430980D01*
X174898Y430941D01*
X174820Y430898D01*
X174744Y430852D01*
X174669Y430802D01*
X174597Y430749D01*
X174528Y430693D01*
X174461Y430634D01*
X174396Y430573D01*
X174335Y430508D01*
X174276Y430441D01*
X174220Y430372D01*
X174167Y430300D01*
X174117Y430225D01*
X174071Y430149D01*
X174028Y430071D01*
X173989Y429991D01*
X173953Y429909D01*
X173920Y429826D01*
X173892Y429741D01*
X173867Y429656D01*
X173845Y429569D01*
X173828Y429481D01*
X173815Y429393D01*
X173805Y429304D01*
X173799Y429215D01*
X173797Y429126D01*
X170523Y429536D02*
X170523Y427080D01*
X170523Y429536D02*
X170525Y429615D01*
X170531Y429694D01*
X170540Y429773D01*
X170553Y429851D01*
X170571Y429928D01*
X170591Y430004D01*
X170616Y430079D01*
X170644Y430153D01*
X170675Y430226D01*
X170711Y430297D01*
X170749Y430366D01*
X170791Y430433D01*
X170836Y430498D01*
X170884Y430561D01*
X170935Y430622D01*
X170989Y430679D01*
X171045Y430735D01*
X171104Y430787D01*
X171166Y430837D01*
X171230Y430883D01*
X171296Y430927D01*
X171364Y430967D01*
X171434Y431003D01*
X171506Y431037D01*
X171580Y431067D01*
X171654Y431093D01*
X171730Y431116D01*
X171807Y431134D01*
X171884Y431150D01*
X171963Y431161D01*
X172041Y431169D01*
X172120Y431173D01*
X172200Y431173D01*
X172279Y431169D01*
X172357Y431161D01*
X172436Y431150D01*
X172513Y431134D01*
X172590Y431116D01*
X172666Y431093D01*
X172740Y431067D01*
X172814Y431037D01*
X172886Y431003D01*
X172956Y430967D01*
X173024Y430927D01*
X173090Y430883D01*
X173154Y430837D01*
X173216Y430787D01*
X173275Y430735D01*
X173331Y430679D01*
X173385Y430622D01*
X173436Y430561D01*
X173484Y430498D01*
X173529Y430433D01*
X173571Y430366D01*
X173609Y430297D01*
X173645Y430226D01*
X173676Y430153D01*
X173704Y430079D01*
X173729Y430004D01*
X173749Y429928D01*
X173767Y429851D01*
X173780Y429773D01*
X173789Y429694D01*
X173795Y429615D01*
X173797Y429536D01*
X173797Y427899D01*
X151219Y412501D02*
X143853Y412501D01*
X143853Y414547D01*
X143855Y414636D01*
X143861Y414725D01*
X143871Y414814D01*
X143884Y414902D01*
X143901Y414990D01*
X143923Y415077D01*
X143948Y415162D01*
X143976Y415247D01*
X144009Y415330D01*
X144045Y415412D01*
X144084Y415492D01*
X144127Y415570D01*
X144173Y415646D01*
X144223Y415721D01*
X144276Y415793D01*
X144332Y415862D01*
X144391Y415929D01*
X144452Y415994D01*
X144517Y416055D01*
X144584Y416114D01*
X144653Y416170D01*
X144725Y416223D01*
X144800Y416273D01*
X144876Y416319D01*
X144954Y416362D01*
X145034Y416401D01*
X145116Y416437D01*
X145199Y416470D01*
X145284Y416498D01*
X145369Y416523D01*
X145456Y416545D01*
X145544Y416562D01*
X145632Y416575D01*
X145721Y416585D01*
X145810Y416591D01*
X145899Y416593D01*
X145988Y416591D01*
X146077Y416585D01*
X146166Y416575D01*
X146254Y416562D01*
X146342Y416545D01*
X146429Y416523D01*
X146514Y416498D01*
X146599Y416470D01*
X146682Y416437D01*
X146764Y416401D01*
X146844Y416362D01*
X146922Y416319D01*
X146998Y416273D01*
X147073Y416223D01*
X147145Y416170D01*
X147214Y416114D01*
X147281Y416055D01*
X147346Y415994D01*
X147407Y415929D01*
X147466Y415862D01*
X147522Y415793D01*
X147575Y415721D01*
X147625Y415646D01*
X147671Y415570D01*
X147714Y415492D01*
X147753Y415412D01*
X147789Y415330D01*
X147822Y415247D01*
X147850Y415162D01*
X147875Y415077D01*
X147897Y414990D01*
X147914Y414902D01*
X147927Y414814D01*
X147937Y414725D01*
X147943Y414636D01*
X147945Y414547D01*
X147945Y412501D01*
X147945Y414956D02*
X151219Y416593D01*
X145490Y419765D02*
X143853Y421811D01*
X151219Y421811D01*
X151219Y419765D02*
X151219Y423857D01*
X149582Y427080D02*
X143853Y428717D01*
X149582Y427080D02*
X149582Y431172D01*
X147945Y429945D02*
X151219Y429945D01*
X127089Y411993D02*
X119723Y411993D01*
X119723Y414039D01*
X119725Y414128D01*
X119731Y414217D01*
X119741Y414306D01*
X119754Y414394D01*
X119771Y414482D01*
X119793Y414569D01*
X119818Y414654D01*
X119846Y414739D01*
X119879Y414822D01*
X119915Y414904D01*
X119954Y414984D01*
X119997Y415062D01*
X120043Y415138D01*
X120093Y415213D01*
X120146Y415285D01*
X120202Y415354D01*
X120261Y415421D01*
X120322Y415486D01*
X120387Y415547D01*
X120454Y415606D01*
X120523Y415662D01*
X120595Y415715D01*
X120670Y415765D01*
X120746Y415811D01*
X120824Y415854D01*
X120904Y415893D01*
X120986Y415929D01*
X121069Y415962D01*
X121154Y415990D01*
X121239Y416015D01*
X121326Y416037D01*
X121414Y416054D01*
X121502Y416067D01*
X121591Y416077D01*
X121680Y416083D01*
X121769Y416085D01*
X121858Y416083D01*
X121947Y416077D01*
X122036Y416067D01*
X122124Y416054D01*
X122212Y416037D01*
X122299Y416015D01*
X122384Y415990D01*
X122469Y415962D01*
X122552Y415929D01*
X122634Y415893D01*
X122714Y415854D01*
X122792Y415811D01*
X122868Y415765D01*
X122943Y415715D01*
X123015Y415662D01*
X123084Y415606D01*
X123151Y415547D01*
X123216Y415486D01*
X123277Y415421D01*
X123336Y415354D01*
X123392Y415285D01*
X123445Y415213D01*
X123495Y415138D01*
X123541Y415062D01*
X123584Y414984D01*
X123623Y414904D01*
X123659Y414822D01*
X123692Y414739D01*
X123720Y414654D01*
X123745Y414569D01*
X123767Y414482D01*
X123784Y414394D01*
X123797Y414306D01*
X123807Y414217D01*
X123813Y414128D01*
X123815Y414039D01*
X123815Y411993D01*
X123815Y414448D02*
X127089Y416085D01*
X121360Y419257D02*
X119723Y421303D01*
X127089Y421303D01*
X127089Y419257D02*
X127089Y423349D01*
X127089Y426572D02*
X127089Y429028D01*
X127087Y429106D01*
X127082Y429184D01*
X127072Y429261D01*
X127059Y429338D01*
X127043Y429414D01*
X127023Y429489D01*
X126999Y429563D01*
X126972Y429636D01*
X126941Y429708D01*
X126907Y429778D01*
X126870Y429847D01*
X126829Y429913D01*
X126785Y429978D01*
X126739Y430040D01*
X126689Y430100D01*
X126637Y430158D01*
X126582Y430213D01*
X126524Y430265D01*
X126464Y430315D01*
X126402Y430361D01*
X126337Y430405D01*
X126271Y430446D01*
X126202Y430483D01*
X126132Y430517D01*
X126060Y430548D01*
X125987Y430575D01*
X125913Y430599D01*
X125838Y430619D01*
X125762Y430635D01*
X125685Y430648D01*
X125608Y430658D01*
X125530Y430663D01*
X125452Y430665D01*
X125452Y430664D02*
X124634Y430664D01*
X124634Y430665D02*
X124554Y430663D01*
X124474Y430657D01*
X124394Y430647D01*
X124315Y430634D01*
X124236Y430616D01*
X124159Y430595D01*
X124083Y430569D01*
X124008Y430540D01*
X123934Y430508D01*
X123862Y430472D01*
X123792Y430432D01*
X123725Y430389D01*
X123659Y430343D01*
X123596Y430293D01*
X123535Y430241D01*
X123476Y430186D01*
X123421Y430127D01*
X123369Y430067D01*
X123319Y430003D01*
X123273Y429937D01*
X123230Y429870D01*
X123190Y429800D01*
X123154Y429728D01*
X123122Y429654D01*
X123093Y429580D01*
X123067Y429503D01*
X123046Y429426D01*
X123028Y429347D01*
X123015Y429268D01*
X123005Y429188D01*
X122999Y429108D01*
X122997Y429028D01*
X122997Y426572D01*
X119723Y426572D01*
X119723Y430664D01*
X118961Y625803D02*
X126327Y625803D01*
X118961Y625803D02*
X118961Y627849D01*
X118963Y627938D01*
X118969Y628027D01*
X118979Y628116D01*
X118992Y628204D01*
X119009Y628292D01*
X119031Y628379D01*
X119056Y628464D01*
X119084Y628549D01*
X119117Y628632D01*
X119153Y628714D01*
X119192Y628794D01*
X119235Y628872D01*
X119281Y628948D01*
X119331Y629023D01*
X119384Y629095D01*
X119440Y629164D01*
X119499Y629231D01*
X119560Y629296D01*
X119625Y629357D01*
X119692Y629416D01*
X119761Y629472D01*
X119833Y629525D01*
X119908Y629575D01*
X119984Y629621D01*
X120062Y629664D01*
X120142Y629703D01*
X120224Y629739D01*
X120307Y629772D01*
X120392Y629800D01*
X120477Y629825D01*
X120564Y629847D01*
X120652Y629864D01*
X120740Y629877D01*
X120829Y629887D01*
X120918Y629893D01*
X121007Y629895D01*
X121096Y629893D01*
X121185Y629887D01*
X121274Y629877D01*
X121362Y629864D01*
X121450Y629847D01*
X121537Y629825D01*
X121622Y629800D01*
X121707Y629772D01*
X121790Y629739D01*
X121872Y629703D01*
X121952Y629664D01*
X122030Y629621D01*
X122106Y629575D01*
X122181Y629525D01*
X122253Y629472D01*
X122322Y629416D01*
X122389Y629357D01*
X122454Y629296D01*
X122515Y629231D01*
X122574Y629164D01*
X122630Y629095D01*
X122683Y629023D01*
X122733Y628948D01*
X122779Y628872D01*
X122822Y628794D01*
X122861Y628714D01*
X122897Y628632D01*
X122930Y628549D01*
X122958Y628464D01*
X122983Y628379D01*
X123005Y628292D01*
X123022Y628204D01*
X123035Y628116D01*
X123045Y628027D01*
X123051Y627938D01*
X123053Y627849D01*
X123053Y625803D01*
X123053Y628258D02*
X126327Y629895D01*
X120803Y637160D02*
X120718Y637158D01*
X120633Y637152D01*
X120549Y637142D01*
X120465Y637129D01*
X120381Y637111D01*
X120299Y637090D01*
X120218Y637065D01*
X120138Y637036D01*
X120059Y637003D01*
X119982Y636967D01*
X119907Y636927D01*
X119833Y636884D01*
X119762Y636838D01*
X119693Y636788D01*
X119626Y636735D01*
X119562Y636679D01*
X119501Y636620D01*
X119442Y636559D01*
X119386Y636495D01*
X119333Y636428D01*
X119283Y636359D01*
X119237Y636288D01*
X119194Y636214D01*
X119154Y636139D01*
X119118Y636062D01*
X119085Y635983D01*
X119056Y635903D01*
X119031Y635822D01*
X119010Y635740D01*
X118992Y635656D01*
X118979Y635572D01*
X118969Y635488D01*
X118963Y635403D01*
X118961Y635318D01*
X118963Y635222D01*
X118969Y635126D01*
X118979Y635031D01*
X118992Y634936D01*
X119010Y634841D01*
X119031Y634748D01*
X119056Y634655D01*
X119085Y634564D01*
X119117Y634473D01*
X119153Y634384D01*
X119193Y634297D01*
X119236Y634211D01*
X119282Y634127D01*
X119332Y634045D01*
X119386Y633965D01*
X119442Y633888D01*
X119502Y633813D01*
X119564Y633740D01*
X119630Y633670D01*
X119698Y633602D01*
X119769Y633537D01*
X119842Y633476D01*
X119918Y633417D01*
X119997Y633361D01*
X120077Y633309D01*
X120160Y633260D01*
X120244Y633214D01*
X120330Y633172D01*
X120418Y633134D01*
X120507Y633099D01*
X120598Y633067D01*
X122235Y636545D02*
X122176Y636605D01*
X122114Y636662D01*
X122050Y636717D01*
X121983Y636768D01*
X121914Y636817D01*
X121844Y636863D01*
X121771Y636906D01*
X121697Y636946D01*
X121621Y636982D01*
X121543Y637015D01*
X121464Y637045D01*
X121384Y637072D01*
X121303Y637095D01*
X121221Y637114D01*
X121139Y637130D01*
X121055Y637143D01*
X120971Y637152D01*
X120887Y637157D01*
X120803Y637159D01*
X122235Y636545D02*
X126327Y633067D01*
X126327Y637159D01*
X144361Y625803D02*
X151727Y625803D01*
X144361Y625803D02*
X144361Y627849D01*
X144363Y627938D01*
X144369Y628027D01*
X144379Y628116D01*
X144392Y628204D01*
X144409Y628292D01*
X144431Y628379D01*
X144456Y628464D01*
X144484Y628549D01*
X144517Y628632D01*
X144553Y628714D01*
X144592Y628794D01*
X144635Y628872D01*
X144681Y628948D01*
X144731Y629023D01*
X144784Y629095D01*
X144840Y629164D01*
X144899Y629231D01*
X144960Y629296D01*
X145025Y629357D01*
X145092Y629416D01*
X145161Y629472D01*
X145233Y629525D01*
X145308Y629575D01*
X145384Y629621D01*
X145462Y629664D01*
X145542Y629703D01*
X145624Y629739D01*
X145707Y629772D01*
X145792Y629800D01*
X145877Y629825D01*
X145964Y629847D01*
X146052Y629864D01*
X146140Y629877D01*
X146229Y629887D01*
X146318Y629893D01*
X146407Y629895D01*
X146496Y629893D01*
X146585Y629887D01*
X146674Y629877D01*
X146762Y629864D01*
X146850Y629847D01*
X146937Y629825D01*
X147022Y629800D01*
X147107Y629772D01*
X147190Y629739D01*
X147272Y629703D01*
X147352Y629664D01*
X147430Y629621D01*
X147506Y629575D01*
X147581Y629525D01*
X147653Y629472D01*
X147722Y629416D01*
X147789Y629357D01*
X147854Y629296D01*
X147915Y629231D01*
X147974Y629164D01*
X148030Y629095D01*
X148083Y629023D01*
X148133Y628948D01*
X148179Y628872D01*
X148222Y628794D01*
X148261Y628714D01*
X148297Y628632D01*
X148330Y628549D01*
X148358Y628464D01*
X148383Y628379D01*
X148405Y628292D01*
X148422Y628204D01*
X148435Y628116D01*
X148445Y628027D01*
X148451Y627938D01*
X148453Y627849D01*
X148453Y625803D01*
X148453Y628258D02*
X151727Y629895D01*
X151727Y633067D02*
X151727Y635113D01*
X151725Y635202D01*
X151719Y635291D01*
X151709Y635380D01*
X151696Y635468D01*
X151679Y635556D01*
X151657Y635643D01*
X151632Y635728D01*
X151604Y635813D01*
X151571Y635896D01*
X151535Y635978D01*
X151496Y636058D01*
X151453Y636136D01*
X151407Y636212D01*
X151357Y636287D01*
X151304Y636359D01*
X151248Y636428D01*
X151189Y636495D01*
X151128Y636560D01*
X151063Y636621D01*
X150996Y636680D01*
X150927Y636736D01*
X150855Y636789D01*
X150780Y636839D01*
X150704Y636885D01*
X150626Y636928D01*
X150546Y636967D01*
X150464Y637003D01*
X150381Y637036D01*
X150296Y637064D01*
X150211Y637089D01*
X150124Y637111D01*
X150036Y637128D01*
X149948Y637141D01*
X149859Y637151D01*
X149770Y637157D01*
X149681Y637159D01*
X149592Y637157D01*
X149503Y637151D01*
X149414Y637141D01*
X149326Y637128D01*
X149238Y637111D01*
X149151Y637089D01*
X149066Y637064D01*
X148981Y637036D01*
X148898Y637003D01*
X148816Y636967D01*
X148736Y636928D01*
X148658Y636885D01*
X148582Y636839D01*
X148507Y636789D01*
X148435Y636736D01*
X148366Y636680D01*
X148299Y636621D01*
X148234Y636560D01*
X148173Y636495D01*
X148114Y636428D01*
X148058Y636359D01*
X148005Y636287D01*
X147955Y636212D01*
X147909Y636136D01*
X147866Y636058D01*
X147827Y635978D01*
X147791Y635896D01*
X147758Y635813D01*
X147730Y635728D01*
X147705Y635643D01*
X147683Y635556D01*
X147666Y635468D01*
X147653Y635380D01*
X147643Y635291D01*
X147637Y635202D01*
X147635Y635113D01*
X144361Y635522D02*
X144361Y633067D01*
X144361Y635522D02*
X144363Y635601D01*
X144369Y635680D01*
X144378Y635759D01*
X144391Y635837D01*
X144409Y635914D01*
X144429Y635990D01*
X144454Y636065D01*
X144482Y636139D01*
X144513Y636212D01*
X144549Y636283D01*
X144587Y636352D01*
X144629Y636419D01*
X144674Y636484D01*
X144722Y636547D01*
X144773Y636608D01*
X144827Y636665D01*
X144883Y636721D01*
X144942Y636773D01*
X145004Y636823D01*
X145068Y636869D01*
X145134Y636913D01*
X145202Y636953D01*
X145272Y636989D01*
X145344Y637023D01*
X145418Y637053D01*
X145492Y637079D01*
X145568Y637102D01*
X145645Y637120D01*
X145722Y637136D01*
X145801Y637147D01*
X145879Y637155D01*
X145958Y637159D01*
X146038Y637159D01*
X146117Y637155D01*
X146195Y637147D01*
X146274Y637136D01*
X146351Y637120D01*
X146428Y637102D01*
X146504Y637079D01*
X146578Y637053D01*
X146652Y637023D01*
X146724Y636989D01*
X146794Y636953D01*
X146862Y636913D01*
X146928Y636869D01*
X146992Y636823D01*
X147054Y636773D01*
X147113Y636721D01*
X147169Y636665D01*
X147223Y636608D01*
X147274Y636547D01*
X147322Y636484D01*
X147367Y636419D01*
X147409Y636352D01*
X147447Y636283D01*
X147483Y636212D01*
X147514Y636139D01*
X147542Y636065D01*
X147567Y635990D01*
X147587Y635914D01*
X147605Y635837D01*
X147618Y635759D01*
X147627Y635680D01*
X147633Y635601D01*
X147635Y635522D01*
X147635Y633885D01*
X169761Y625803D02*
X177127Y625803D01*
X169761Y625803D02*
X169761Y627849D01*
X169763Y627938D01*
X169769Y628027D01*
X169779Y628116D01*
X169792Y628204D01*
X169809Y628292D01*
X169831Y628379D01*
X169856Y628464D01*
X169884Y628549D01*
X169917Y628632D01*
X169953Y628714D01*
X169992Y628794D01*
X170035Y628872D01*
X170081Y628948D01*
X170131Y629023D01*
X170184Y629095D01*
X170240Y629164D01*
X170299Y629231D01*
X170360Y629296D01*
X170425Y629357D01*
X170492Y629416D01*
X170561Y629472D01*
X170633Y629525D01*
X170708Y629575D01*
X170784Y629621D01*
X170862Y629664D01*
X170942Y629703D01*
X171024Y629739D01*
X171107Y629772D01*
X171192Y629800D01*
X171277Y629825D01*
X171364Y629847D01*
X171452Y629864D01*
X171540Y629877D01*
X171629Y629887D01*
X171718Y629893D01*
X171807Y629895D01*
X171896Y629893D01*
X171985Y629887D01*
X172074Y629877D01*
X172162Y629864D01*
X172250Y629847D01*
X172337Y629825D01*
X172422Y629800D01*
X172507Y629772D01*
X172590Y629739D01*
X172672Y629703D01*
X172752Y629664D01*
X172830Y629621D01*
X172906Y629575D01*
X172981Y629525D01*
X173053Y629472D01*
X173122Y629416D01*
X173189Y629357D01*
X173254Y629296D01*
X173315Y629231D01*
X173374Y629164D01*
X173430Y629095D01*
X173483Y629023D01*
X173533Y628948D01*
X173579Y628872D01*
X173622Y628794D01*
X173661Y628714D01*
X173697Y628632D01*
X173730Y628549D01*
X173758Y628464D01*
X173783Y628379D01*
X173805Y628292D01*
X173822Y628204D01*
X173835Y628116D01*
X173845Y628027D01*
X173851Y627938D01*
X173853Y627849D01*
X173853Y625803D01*
X173853Y628258D02*
X177127Y629895D01*
X175490Y633067D02*
X169761Y634704D01*
X175490Y633067D02*
X175490Y637159D01*
X173853Y635931D02*
X177127Y635931D01*
X194841Y625963D02*
X202207Y625963D01*
X194841Y625963D02*
X194841Y628009D01*
X194843Y628098D01*
X194849Y628187D01*
X194859Y628276D01*
X194872Y628364D01*
X194889Y628452D01*
X194911Y628539D01*
X194936Y628624D01*
X194964Y628709D01*
X194997Y628792D01*
X195033Y628874D01*
X195072Y628954D01*
X195115Y629032D01*
X195161Y629108D01*
X195211Y629183D01*
X195264Y629255D01*
X195320Y629324D01*
X195379Y629391D01*
X195440Y629456D01*
X195505Y629517D01*
X195572Y629576D01*
X195641Y629632D01*
X195713Y629685D01*
X195788Y629735D01*
X195864Y629781D01*
X195942Y629824D01*
X196022Y629863D01*
X196104Y629899D01*
X196187Y629932D01*
X196272Y629960D01*
X196357Y629985D01*
X196444Y630007D01*
X196532Y630024D01*
X196620Y630037D01*
X196709Y630047D01*
X196798Y630053D01*
X196887Y630055D01*
X196976Y630053D01*
X197065Y630047D01*
X197154Y630037D01*
X197242Y630024D01*
X197330Y630007D01*
X197417Y629985D01*
X197502Y629960D01*
X197587Y629932D01*
X197670Y629899D01*
X197752Y629863D01*
X197832Y629824D01*
X197910Y629781D01*
X197986Y629735D01*
X198061Y629685D01*
X198133Y629632D01*
X198202Y629576D01*
X198269Y629517D01*
X198334Y629456D01*
X198395Y629391D01*
X198454Y629324D01*
X198510Y629255D01*
X198563Y629183D01*
X198613Y629108D01*
X198659Y629032D01*
X198702Y628954D01*
X198741Y628874D01*
X198777Y628792D01*
X198810Y628709D01*
X198838Y628624D01*
X198863Y628539D01*
X198885Y628452D01*
X198902Y628364D01*
X198915Y628276D01*
X198925Y628187D01*
X198931Y628098D01*
X198933Y628009D01*
X198933Y625963D01*
X198933Y628418D02*
X202207Y630055D01*
X202207Y633227D02*
X202207Y635682D01*
X202205Y635760D01*
X202200Y635838D01*
X202190Y635915D01*
X202177Y635992D01*
X202161Y636068D01*
X202141Y636143D01*
X202117Y636217D01*
X202090Y636290D01*
X202059Y636362D01*
X202025Y636432D01*
X201988Y636501D01*
X201947Y636567D01*
X201903Y636632D01*
X201857Y636694D01*
X201807Y636754D01*
X201755Y636812D01*
X201700Y636867D01*
X201642Y636919D01*
X201582Y636969D01*
X201520Y637015D01*
X201455Y637059D01*
X201389Y637100D01*
X201320Y637137D01*
X201250Y637171D01*
X201178Y637202D01*
X201105Y637229D01*
X201031Y637253D01*
X200956Y637273D01*
X200880Y637289D01*
X200803Y637302D01*
X200726Y637312D01*
X200648Y637317D01*
X200570Y637319D01*
X199752Y637319D01*
X199672Y637317D01*
X199592Y637311D01*
X199512Y637301D01*
X199433Y637288D01*
X199354Y637270D01*
X199277Y637249D01*
X199201Y637223D01*
X199126Y637194D01*
X199052Y637162D01*
X198980Y637126D01*
X198910Y637086D01*
X198843Y637043D01*
X198777Y636997D01*
X198714Y636947D01*
X198653Y636895D01*
X198594Y636840D01*
X198539Y636781D01*
X198487Y636721D01*
X198437Y636657D01*
X198391Y636591D01*
X198348Y636524D01*
X198308Y636454D01*
X198272Y636382D01*
X198240Y636308D01*
X198211Y636234D01*
X198185Y636157D01*
X198164Y636080D01*
X198146Y636001D01*
X198133Y635922D01*
X198123Y635842D01*
X198117Y635762D01*
X198115Y635682D01*
X198115Y633227D01*
X194841Y633227D01*
X194841Y637319D01*
X220241Y625963D02*
X227607Y625963D01*
X220241Y625963D02*
X220241Y628009D01*
X220243Y628098D01*
X220249Y628187D01*
X220259Y628276D01*
X220272Y628364D01*
X220289Y628452D01*
X220311Y628539D01*
X220336Y628624D01*
X220364Y628709D01*
X220397Y628792D01*
X220433Y628874D01*
X220472Y628954D01*
X220515Y629032D01*
X220561Y629108D01*
X220611Y629183D01*
X220664Y629255D01*
X220720Y629324D01*
X220779Y629391D01*
X220840Y629456D01*
X220905Y629517D01*
X220972Y629576D01*
X221041Y629632D01*
X221113Y629685D01*
X221188Y629735D01*
X221264Y629781D01*
X221342Y629824D01*
X221422Y629863D01*
X221504Y629899D01*
X221587Y629932D01*
X221672Y629960D01*
X221757Y629985D01*
X221844Y630007D01*
X221932Y630024D01*
X222020Y630037D01*
X222109Y630047D01*
X222198Y630053D01*
X222287Y630055D01*
X222376Y630053D01*
X222465Y630047D01*
X222554Y630037D01*
X222642Y630024D01*
X222730Y630007D01*
X222817Y629985D01*
X222902Y629960D01*
X222987Y629932D01*
X223070Y629899D01*
X223152Y629863D01*
X223232Y629824D01*
X223310Y629781D01*
X223386Y629735D01*
X223461Y629685D01*
X223533Y629632D01*
X223602Y629576D01*
X223669Y629517D01*
X223734Y629456D01*
X223795Y629391D01*
X223854Y629324D01*
X223910Y629255D01*
X223963Y629183D01*
X224013Y629108D01*
X224059Y629032D01*
X224102Y628954D01*
X224141Y628874D01*
X224177Y628792D01*
X224210Y628709D01*
X224238Y628624D01*
X224263Y628539D01*
X224285Y628452D01*
X224302Y628364D01*
X224315Y628276D01*
X224325Y628187D01*
X224331Y628098D01*
X224333Y628009D01*
X224333Y625963D01*
X224333Y628418D02*
X227607Y630055D01*
X223515Y633227D02*
X223515Y635682D01*
X223517Y635760D01*
X223522Y635838D01*
X223532Y635915D01*
X223545Y635992D01*
X223561Y636068D01*
X223581Y636143D01*
X223605Y636217D01*
X223632Y636290D01*
X223663Y636362D01*
X223697Y636432D01*
X223734Y636501D01*
X223775Y636567D01*
X223819Y636632D01*
X223865Y636694D01*
X223915Y636754D01*
X223967Y636812D01*
X224022Y636867D01*
X224080Y636919D01*
X224140Y636969D01*
X224202Y637015D01*
X224267Y637059D01*
X224334Y637100D01*
X224402Y637137D01*
X224472Y637171D01*
X224544Y637202D01*
X224617Y637229D01*
X224691Y637253D01*
X224766Y637273D01*
X224842Y637289D01*
X224919Y637302D01*
X224996Y637312D01*
X225074Y637317D01*
X225152Y637319D01*
X225561Y637319D01*
X225650Y637317D01*
X225739Y637311D01*
X225828Y637301D01*
X225916Y637288D01*
X226004Y637271D01*
X226091Y637249D01*
X226176Y637224D01*
X226261Y637196D01*
X226344Y637163D01*
X226426Y637127D01*
X226506Y637088D01*
X226584Y637045D01*
X226660Y636999D01*
X226735Y636949D01*
X226807Y636896D01*
X226876Y636840D01*
X226943Y636781D01*
X227008Y636720D01*
X227069Y636655D01*
X227128Y636588D01*
X227184Y636519D01*
X227237Y636447D01*
X227287Y636372D01*
X227333Y636296D01*
X227376Y636218D01*
X227415Y636138D01*
X227451Y636056D01*
X227484Y635973D01*
X227512Y635888D01*
X227537Y635803D01*
X227559Y635716D01*
X227576Y635628D01*
X227589Y635540D01*
X227599Y635451D01*
X227605Y635362D01*
X227607Y635273D01*
X227605Y635184D01*
X227599Y635095D01*
X227589Y635006D01*
X227576Y634918D01*
X227559Y634830D01*
X227537Y634743D01*
X227512Y634658D01*
X227484Y634573D01*
X227451Y634490D01*
X227415Y634408D01*
X227376Y634328D01*
X227333Y634250D01*
X227287Y634174D01*
X227237Y634099D01*
X227184Y634027D01*
X227128Y633958D01*
X227069Y633891D01*
X227008Y633826D01*
X226943Y633765D01*
X226876Y633706D01*
X226807Y633650D01*
X226735Y633597D01*
X226660Y633547D01*
X226584Y633501D01*
X226506Y633458D01*
X226426Y633419D01*
X226344Y633383D01*
X226261Y633350D01*
X226176Y633322D01*
X226091Y633297D01*
X226004Y633275D01*
X225916Y633258D01*
X225828Y633245D01*
X225739Y633235D01*
X225650Y633229D01*
X225561Y633227D01*
X223515Y633227D01*
X223401Y633229D01*
X223287Y633235D01*
X223173Y633245D01*
X223059Y633259D01*
X222946Y633277D01*
X222834Y633299D01*
X222723Y633324D01*
X222613Y633354D01*
X222503Y633387D01*
X222395Y633424D01*
X222289Y633465D01*
X222183Y633510D01*
X222080Y633558D01*
X221978Y633610D01*
X221878Y633666D01*
X221780Y633724D01*
X221684Y633787D01*
X221591Y633852D01*
X221499Y633921D01*
X221411Y633993D01*
X221324Y634068D01*
X221241Y634146D01*
X221160Y634227D01*
X221082Y634310D01*
X221007Y634396D01*
X220935Y634485D01*
X220866Y634577D01*
X220801Y634670D01*
X220739Y634766D01*
X220680Y634864D01*
X220624Y634964D01*
X220572Y635066D01*
X220524Y635169D01*
X220479Y635274D01*
X220438Y635381D01*
X220401Y635489D01*
X220368Y635599D01*
X220338Y635709D01*
X220313Y635820D01*
X220291Y635932D01*
X220273Y636045D01*
X220259Y636159D01*
X220249Y636273D01*
X220243Y636387D01*
X220241Y636501D01*
X245641Y625963D02*
X253007Y625963D01*
X245641Y625963D02*
X245641Y628009D01*
X245643Y628098D01*
X245649Y628187D01*
X245659Y628276D01*
X245672Y628364D01*
X245689Y628452D01*
X245711Y628539D01*
X245736Y628624D01*
X245764Y628709D01*
X245797Y628792D01*
X245833Y628874D01*
X245872Y628954D01*
X245915Y629032D01*
X245961Y629108D01*
X246011Y629183D01*
X246064Y629255D01*
X246120Y629324D01*
X246179Y629391D01*
X246240Y629456D01*
X246305Y629517D01*
X246372Y629576D01*
X246441Y629632D01*
X246513Y629685D01*
X246588Y629735D01*
X246664Y629781D01*
X246742Y629824D01*
X246822Y629863D01*
X246904Y629899D01*
X246987Y629932D01*
X247072Y629960D01*
X247157Y629985D01*
X247244Y630007D01*
X247332Y630024D01*
X247420Y630037D01*
X247509Y630047D01*
X247598Y630053D01*
X247687Y630055D01*
X247776Y630053D01*
X247865Y630047D01*
X247954Y630037D01*
X248042Y630024D01*
X248130Y630007D01*
X248217Y629985D01*
X248302Y629960D01*
X248387Y629932D01*
X248470Y629899D01*
X248552Y629863D01*
X248632Y629824D01*
X248710Y629781D01*
X248786Y629735D01*
X248861Y629685D01*
X248933Y629632D01*
X249002Y629576D01*
X249069Y629517D01*
X249134Y629456D01*
X249195Y629391D01*
X249254Y629324D01*
X249310Y629255D01*
X249363Y629183D01*
X249413Y629108D01*
X249459Y629032D01*
X249502Y628954D01*
X249541Y628874D01*
X249577Y628792D01*
X249610Y628709D01*
X249638Y628624D01*
X249663Y628539D01*
X249685Y628452D01*
X249702Y628364D01*
X249715Y628276D01*
X249725Y628187D01*
X249731Y628098D01*
X249733Y628009D01*
X249733Y625963D01*
X249733Y628418D02*
X253007Y630055D01*
X246459Y633227D02*
X245641Y633227D01*
X245641Y637319D01*
X253007Y635273D01*
X271041Y625963D02*
X278407Y625963D01*
X271041Y625963D02*
X271041Y628009D01*
X271043Y628098D01*
X271049Y628187D01*
X271059Y628276D01*
X271072Y628364D01*
X271089Y628452D01*
X271111Y628539D01*
X271136Y628624D01*
X271164Y628709D01*
X271197Y628792D01*
X271233Y628874D01*
X271272Y628954D01*
X271315Y629032D01*
X271361Y629108D01*
X271411Y629183D01*
X271464Y629255D01*
X271520Y629324D01*
X271579Y629391D01*
X271640Y629456D01*
X271705Y629517D01*
X271772Y629576D01*
X271841Y629632D01*
X271913Y629685D01*
X271988Y629735D01*
X272064Y629781D01*
X272142Y629824D01*
X272222Y629863D01*
X272304Y629899D01*
X272387Y629932D01*
X272472Y629960D01*
X272557Y629985D01*
X272644Y630007D01*
X272732Y630024D01*
X272820Y630037D01*
X272909Y630047D01*
X272998Y630053D01*
X273087Y630055D01*
X273176Y630053D01*
X273265Y630047D01*
X273354Y630037D01*
X273442Y630024D01*
X273530Y630007D01*
X273617Y629985D01*
X273702Y629960D01*
X273787Y629932D01*
X273870Y629899D01*
X273952Y629863D01*
X274032Y629824D01*
X274110Y629781D01*
X274186Y629735D01*
X274261Y629685D01*
X274333Y629632D01*
X274402Y629576D01*
X274469Y629517D01*
X274534Y629456D01*
X274595Y629391D01*
X274654Y629324D01*
X274710Y629255D01*
X274763Y629183D01*
X274813Y629108D01*
X274859Y629032D01*
X274902Y628954D01*
X274941Y628874D01*
X274977Y628792D01*
X275010Y628709D01*
X275038Y628624D01*
X275063Y628539D01*
X275085Y628452D01*
X275102Y628364D01*
X275115Y628276D01*
X275125Y628187D01*
X275131Y628098D01*
X275133Y628009D01*
X275133Y625963D01*
X275133Y628418D02*
X278407Y630055D01*
X276361Y633227D02*
X276272Y633229D01*
X276183Y633235D01*
X276094Y633245D01*
X276006Y633258D01*
X275918Y633275D01*
X275831Y633297D01*
X275746Y633322D01*
X275661Y633350D01*
X275578Y633383D01*
X275496Y633419D01*
X275416Y633458D01*
X275338Y633501D01*
X275262Y633547D01*
X275187Y633597D01*
X275115Y633650D01*
X275046Y633706D01*
X274979Y633765D01*
X274914Y633826D01*
X274853Y633891D01*
X274794Y633958D01*
X274738Y634027D01*
X274685Y634099D01*
X274635Y634174D01*
X274589Y634250D01*
X274546Y634328D01*
X274507Y634408D01*
X274471Y634490D01*
X274438Y634573D01*
X274410Y634658D01*
X274385Y634743D01*
X274363Y634830D01*
X274346Y634918D01*
X274333Y635006D01*
X274323Y635095D01*
X274317Y635184D01*
X274315Y635273D01*
X274317Y635362D01*
X274323Y635451D01*
X274333Y635540D01*
X274346Y635628D01*
X274363Y635716D01*
X274385Y635803D01*
X274410Y635888D01*
X274438Y635973D01*
X274471Y636056D01*
X274507Y636138D01*
X274546Y636218D01*
X274589Y636296D01*
X274635Y636372D01*
X274685Y636447D01*
X274738Y636519D01*
X274794Y636588D01*
X274853Y636655D01*
X274914Y636720D01*
X274979Y636781D01*
X275046Y636840D01*
X275115Y636896D01*
X275187Y636949D01*
X275262Y636999D01*
X275338Y637045D01*
X275416Y637088D01*
X275496Y637127D01*
X275578Y637163D01*
X275661Y637196D01*
X275746Y637224D01*
X275831Y637249D01*
X275918Y637271D01*
X276006Y637288D01*
X276094Y637301D01*
X276183Y637311D01*
X276272Y637317D01*
X276361Y637319D01*
X276450Y637317D01*
X276539Y637311D01*
X276628Y637301D01*
X276716Y637288D01*
X276804Y637271D01*
X276891Y637249D01*
X276976Y637224D01*
X277061Y637196D01*
X277144Y637163D01*
X277226Y637127D01*
X277306Y637088D01*
X277384Y637045D01*
X277460Y636999D01*
X277535Y636949D01*
X277607Y636896D01*
X277676Y636840D01*
X277743Y636781D01*
X277808Y636720D01*
X277869Y636655D01*
X277928Y636588D01*
X277984Y636519D01*
X278037Y636447D01*
X278087Y636372D01*
X278133Y636296D01*
X278176Y636218D01*
X278215Y636138D01*
X278251Y636056D01*
X278284Y635973D01*
X278312Y635888D01*
X278337Y635803D01*
X278359Y635716D01*
X278376Y635628D01*
X278389Y635540D01*
X278399Y635451D01*
X278405Y635362D01*
X278407Y635273D01*
X278405Y635184D01*
X278399Y635095D01*
X278389Y635006D01*
X278376Y634918D01*
X278359Y634830D01*
X278337Y634743D01*
X278312Y634658D01*
X278284Y634573D01*
X278251Y634490D01*
X278215Y634408D01*
X278176Y634328D01*
X278133Y634250D01*
X278087Y634174D01*
X278037Y634099D01*
X277984Y634027D01*
X277928Y633958D01*
X277869Y633891D01*
X277808Y633826D01*
X277743Y633765D01*
X277676Y633706D01*
X277607Y633650D01*
X277535Y633597D01*
X277460Y633547D01*
X277384Y633501D01*
X277306Y633458D01*
X277226Y633419D01*
X277144Y633383D01*
X277061Y633350D01*
X276976Y633322D01*
X276891Y633297D01*
X276804Y633275D01*
X276716Y633258D01*
X276628Y633245D01*
X276539Y633235D01*
X276450Y633229D01*
X276361Y633227D01*
X272678Y633636D02*
X272599Y633638D01*
X272520Y633644D01*
X272441Y633653D01*
X272363Y633666D01*
X272286Y633684D01*
X272210Y633704D01*
X272135Y633729D01*
X272061Y633757D01*
X271988Y633788D01*
X271917Y633824D01*
X271848Y633862D01*
X271781Y633904D01*
X271716Y633949D01*
X271653Y633997D01*
X271592Y634048D01*
X271535Y634102D01*
X271479Y634158D01*
X271427Y634217D01*
X271377Y634279D01*
X271331Y634343D01*
X271287Y634409D01*
X271247Y634477D01*
X271211Y634547D01*
X271177Y634619D01*
X271147Y634693D01*
X271121Y634767D01*
X271098Y634843D01*
X271080Y634920D01*
X271064Y634997D01*
X271053Y635076D01*
X271045Y635154D01*
X271041Y635233D01*
X271041Y635313D01*
X271045Y635392D01*
X271053Y635470D01*
X271064Y635549D01*
X271080Y635626D01*
X271098Y635703D01*
X271121Y635779D01*
X271147Y635853D01*
X271177Y635927D01*
X271211Y635999D01*
X271247Y636069D01*
X271287Y636137D01*
X271331Y636203D01*
X271377Y636267D01*
X271427Y636329D01*
X271479Y636388D01*
X271535Y636444D01*
X271592Y636498D01*
X271653Y636549D01*
X271716Y636597D01*
X271781Y636642D01*
X271848Y636684D01*
X271917Y636722D01*
X271988Y636758D01*
X272061Y636789D01*
X272135Y636817D01*
X272210Y636842D01*
X272286Y636862D01*
X272363Y636880D01*
X272441Y636893D01*
X272520Y636902D01*
X272599Y636908D01*
X272678Y636910D01*
X272757Y636908D01*
X272836Y636902D01*
X272915Y636893D01*
X272993Y636880D01*
X273070Y636862D01*
X273146Y636842D01*
X273221Y636817D01*
X273295Y636789D01*
X273368Y636758D01*
X273439Y636722D01*
X273508Y636684D01*
X273575Y636642D01*
X273640Y636597D01*
X273703Y636549D01*
X273764Y636498D01*
X273821Y636444D01*
X273877Y636388D01*
X273929Y636329D01*
X273979Y636267D01*
X274025Y636203D01*
X274069Y636137D01*
X274109Y636069D01*
X274145Y635999D01*
X274179Y635927D01*
X274209Y635853D01*
X274235Y635779D01*
X274258Y635703D01*
X274276Y635626D01*
X274292Y635549D01*
X274303Y635470D01*
X274311Y635392D01*
X274315Y635313D01*
X274315Y635233D01*
X274311Y635154D01*
X274303Y635076D01*
X274292Y634997D01*
X274276Y634920D01*
X274258Y634843D01*
X274235Y634767D01*
X274209Y634693D01*
X274179Y634619D01*
X274145Y634547D01*
X274109Y634477D01*
X274069Y634409D01*
X274025Y634343D01*
X273979Y634279D01*
X273929Y634217D01*
X273877Y634158D01*
X273821Y634102D01*
X273764Y634048D01*
X273703Y633997D01*
X273640Y633949D01*
X273575Y633904D01*
X273508Y633862D01*
X273439Y633824D01*
X273368Y633788D01*
X273295Y633757D01*
X273221Y633729D01*
X273146Y633704D01*
X273070Y633684D01*
X272993Y633666D01*
X272915Y633653D01*
X272836Y633644D01*
X272757Y633638D01*
X272678Y633636D01*
X272123Y412501D02*
X279489Y412501D01*
X272123Y412501D02*
X272123Y414547D01*
X272125Y414636D01*
X272131Y414725D01*
X272141Y414814D01*
X272154Y414902D01*
X272171Y414990D01*
X272193Y415077D01*
X272218Y415162D01*
X272246Y415247D01*
X272279Y415330D01*
X272315Y415412D01*
X272354Y415492D01*
X272397Y415570D01*
X272443Y415646D01*
X272493Y415721D01*
X272546Y415793D01*
X272602Y415862D01*
X272661Y415929D01*
X272722Y415994D01*
X272787Y416055D01*
X272854Y416114D01*
X272923Y416170D01*
X272995Y416223D01*
X273070Y416273D01*
X273146Y416319D01*
X273224Y416362D01*
X273304Y416401D01*
X273386Y416437D01*
X273469Y416470D01*
X273554Y416498D01*
X273639Y416523D01*
X273726Y416545D01*
X273814Y416562D01*
X273902Y416575D01*
X273991Y416585D01*
X274080Y416591D01*
X274169Y416593D01*
X274258Y416591D01*
X274347Y416585D01*
X274436Y416575D01*
X274524Y416562D01*
X274612Y416545D01*
X274699Y416523D01*
X274784Y416498D01*
X274869Y416470D01*
X274952Y416437D01*
X275034Y416401D01*
X275114Y416362D01*
X275192Y416319D01*
X275268Y416273D01*
X275343Y416223D01*
X275415Y416170D01*
X275484Y416114D01*
X275551Y416055D01*
X275616Y415994D01*
X275677Y415929D01*
X275736Y415862D01*
X275792Y415793D01*
X275845Y415721D01*
X275895Y415646D01*
X275941Y415570D01*
X275984Y415492D01*
X276023Y415412D01*
X276059Y415330D01*
X276092Y415247D01*
X276120Y415162D01*
X276145Y415077D01*
X276167Y414990D01*
X276184Y414902D01*
X276197Y414814D01*
X276207Y414725D01*
X276213Y414636D01*
X276215Y414547D01*
X276215Y412501D01*
X276215Y414956D02*
X279489Y416593D01*
X276215Y421402D02*
X276215Y423857D01*
X276215Y421402D02*
X276213Y421324D01*
X276208Y421246D01*
X276198Y421169D01*
X276185Y421092D01*
X276169Y421016D01*
X276149Y420941D01*
X276125Y420867D01*
X276098Y420794D01*
X276067Y420722D01*
X276033Y420652D01*
X275996Y420584D01*
X275955Y420517D01*
X275911Y420452D01*
X275865Y420390D01*
X275815Y420330D01*
X275763Y420272D01*
X275708Y420217D01*
X275650Y420165D01*
X275590Y420115D01*
X275528Y420069D01*
X275463Y420025D01*
X275397Y419984D01*
X275328Y419947D01*
X275258Y419913D01*
X275186Y419882D01*
X275113Y419855D01*
X275039Y419831D01*
X274964Y419811D01*
X274888Y419795D01*
X274811Y419782D01*
X274734Y419772D01*
X274656Y419767D01*
X274578Y419765D01*
X274169Y419765D01*
X274080Y419767D01*
X273991Y419773D01*
X273902Y419783D01*
X273814Y419796D01*
X273726Y419813D01*
X273639Y419835D01*
X273554Y419860D01*
X273469Y419888D01*
X273386Y419921D01*
X273304Y419957D01*
X273224Y419996D01*
X273146Y420039D01*
X273070Y420085D01*
X272995Y420135D01*
X272923Y420188D01*
X272854Y420244D01*
X272787Y420303D01*
X272722Y420364D01*
X272661Y420429D01*
X272602Y420496D01*
X272546Y420565D01*
X272493Y420637D01*
X272443Y420712D01*
X272397Y420788D01*
X272354Y420866D01*
X272315Y420946D01*
X272279Y421028D01*
X272246Y421111D01*
X272218Y421196D01*
X272193Y421281D01*
X272171Y421368D01*
X272154Y421456D01*
X272141Y421544D01*
X272131Y421633D01*
X272125Y421722D01*
X272123Y421811D01*
X272125Y421900D01*
X272131Y421989D01*
X272141Y422078D01*
X272154Y422166D01*
X272171Y422254D01*
X272193Y422341D01*
X272218Y422426D01*
X272246Y422511D01*
X272279Y422594D01*
X272315Y422676D01*
X272354Y422756D01*
X272397Y422834D01*
X272443Y422910D01*
X272493Y422985D01*
X272546Y423057D01*
X272602Y423126D01*
X272661Y423193D01*
X272722Y423258D01*
X272787Y423319D01*
X272854Y423378D01*
X272923Y423434D01*
X272995Y423487D01*
X273070Y423537D01*
X273146Y423583D01*
X273224Y423626D01*
X273304Y423665D01*
X273386Y423701D01*
X273469Y423734D01*
X273554Y423762D01*
X273639Y423787D01*
X273726Y423809D01*
X273814Y423826D01*
X273902Y423839D01*
X273991Y423849D01*
X274080Y423855D01*
X274169Y423857D01*
X276215Y423857D01*
X276327Y423855D01*
X276438Y423849D01*
X276550Y423840D01*
X276661Y423827D01*
X276771Y423809D01*
X276881Y423789D01*
X276990Y423764D01*
X277098Y423736D01*
X277205Y423704D01*
X277311Y423668D01*
X277416Y423629D01*
X277519Y423586D01*
X277621Y423540D01*
X277721Y423490D01*
X277820Y423437D01*
X277916Y423380D01*
X278011Y423321D01*
X278103Y423258D01*
X278193Y423192D01*
X278281Y423123D01*
X278367Y423051D01*
X278450Y422976D01*
X278530Y422898D01*
X278608Y422818D01*
X278683Y422735D01*
X278755Y422649D01*
X278824Y422561D01*
X278890Y422471D01*
X278953Y422379D01*
X279012Y422284D01*
X279069Y422188D01*
X279122Y422089D01*
X279172Y421989D01*
X279218Y421887D01*
X279261Y421784D01*
X279300Y421679D01*
X279336Y421573D01*
X279368Y421466D01*
X279396Y421358D01*
X279421Y421249D01*
X279441Y421139D01*
X279459Y421029D01*
X279472Y420918D01*
X279481Y420806D01*
X279487Y420695D01*
X279489Y420583D01*
D15*
X323550Y174400D02*
X317200Y168050D01*
X317200Y155350D02*
X323550Y149000D01*
X317200Y142650D01*
X317200Y129950D02*
X323550Y123600D01*
X317200Y117250D01*
X317200Y104550D02*
X323550Y98200D01*
X323550Y174400D02*
X361650Y174400D01*
X368000Y168050D01*
X368000Y155350D01*
X361650Y149000D01*
X368000Y142650D01*
X368000Y129950D01*
X361650Y123600D01*
X368000Y117250D01*
X368000Y104550D01*
X361650Y98200D01*
X361650Y149000D02*
X323550Y149000D01*
X323550Y123600D02*
X361650Y123600D01*
X361650Y98200D02*
X323550Y98200D01*
X317200Y104550D02*
X317200Y117250D01*
X317200Y129950D02*
X317200Y142650D01*
X317200Y155350D02*
X317200Y168050D01*
X323550Y98200D02*
X317200Y91850D01*
X317200Y79150D02*
X323550Y72800D01*
X361650Y98200D02*
X368000Y91850D01*
X368000Y79150D01*
X361650Y72800D01*
X323550Y72800D01*
X317200Y79150D02*
X317200Y91850D01*
D16*
X319735Y181385D02*
X319735Y192815D01*
X322910Y192815D01*
X323021Y192813D01*
X323131Y192807D01*
X323242Y192798D01*
X323352Y192784D01*
X323461Y192767D01*
X323570Y192746D01*
X323678Y192721D01*
X323785Y192692D01*
X323891Y192660D01*
X323996Y192624D01*
X324099Y192584D01*
X324201Y192541D01*
X324302Y192494D01*
X324401Y192443D01*
X324498Y192390D01*
X324592Y192333D01*
X324685Y192272D01*
X324776Y192209D01*
X324865Y192142D01*
X324951Y192072D01*
X325034Y191999D01*
X325116Y191924D01*
X325194Y191846D01*
X325269Y191764D01*
X325342Y191681D01*
X325412Y191595D01*
X325479Y191506D01*
X325542Y191415D01*
X325603Y191322D01*
X325660Y191227D01*
X325713Y191131D01*
X325764Y191032D01*
X325811Y190931D01*
X325854Y190829D01*
X325894Y190726D01*
X325930Y190621D01*
X325962Y190515D01*
X325991Y190408D01*
X326016Y190300D01*
X326037Y190191D01*
X326054Y190082D01*
X326068Y189972D01*
X326077Y189861D01*
X326083Y189751D01*
X326085Y189640D01*
X326083Y189529D01*
X326077Y189419D01*
X326068Y189308D01*
X326054Y189198D01*
X326037Y189089D01*
X326016Y188980D01*
X325991Y188872D01*
X325962Y188765D01*
X325930Y188659D01*
X325894Y188554D01*
X325854Y188451D01*
X325811Y188349D01*
X325764Y188248D01*
X325713Y188149D01*
X325660Y188052D01*
X325603Y187958D01*
X325542Y187865D01*
X325479Y187774D01*
X325412Y187685D01*
X325342Y187599D01*
X325269Y187516D01*
X325194Y187434D01*
X325116Y187356D01*
X325034Y187281D01*
X324951Y187208D01*
X324865Y187138D01*
X324776Y187071D01*
X324685Y187008D01*
X324592Y186947D01*
X324498Y186890D01*
X324401Y186837D01*
X324302Y186786D01*
X324201Y186739D01*
X324099Y186696D01*
X323996Y186656D01*
X323891Y186620D01*
X323785Y186588D01*
X323678Y186559D01*
X323570Y186534D01*
X323461Y186513D01*
X323352Y186496D01*
X323242Y186482D01*
X323131Y186473D01*
X323021Y186467D01*
X322910Y186465D01*
X319735Y186465D01*
X323545Y186465D02*
X326085Y181385D01*
X331489Y181385D02*
X336569Y181385D01*
X331489Y181385D02*
X331489Y192815D01*
X336569Y192815D01*
X335299Y187735D02*
X331489Y187735D01*
X341395Y192815D02*
X341395Y181385D01*
X346475Y181385D01*
X350259Y181385D02*
X354069Y192815D01*
X357879Y181385D01*
X356927Y184243D02*
X351212Y184243D01*
X361689Y181385D02*
X369309Y192815D01*
X361689Y192815D02*
X369309Y181385D01*
D15*
X82200Y79150D02*
X75850Y72800D01*
X82200Y91850D02*
X75850Y98200D01*
X82200Y104550D01*
X82200Y117250D02*
X75850Y123600D01*
X82200Y129950D01*
X82200Y142650D02*
X75850Y149000D01*
X75850Y72800D02*
X37750Y72800D01*
X31400Y79150D01*
X31400Y91850D01*
X37750Y98200D01*
X31400Y104550D01*
X31400Y117250D01*
X37750Y123600D01*
X31400Y129950D01*
X31400Y142650D01*
X37750Y149000D01*
X37750Y98200D02*
X75850Y98200D01*
X75850Y123600D02*
X37750Y123600D01*
X37750Y149000D02*
X75850Y149000D01*
X82200Y142650D02*
X82200Y129950D01*
X82200Y117250D02*
X82200Y104550D01*
X82200Y91850D02*
X82200Y79150D01*
X75850Y149000D02*
X82200Y155350D01*
X82200Y168050D02*
X75850Y174400D01*
X37750Y149000D02*
X31400Y155350D01*
X31400Y168050D01*
X37750Y174400D01*
X75850Y174400D01*
X82200Y168050D02*
X82200Y155350D01*
D16*
X37184Y181385D02*
X34644Y192815D01*
X39724Y189005D02*
X37184Y181385D01*
X42264Y181385D02*
X39724Y189005D01*
X44804Y192815D02*
X42264Y181385D01*
X49503Y184560D02*
X49503Y189640D01*
X49505Y189751D01*
X49511Y189861D01*
X49520Y189972D01*
X49534Y190082D01*
X49551Y190191D01*
X49572Y190300D01*
X49597Y190408D01*
X49626Y190515D01*
X49658Y190621D01*
X49694Y190726D01*
X49734Y190829D01*
X49777Y190931D01*
X49824Y191032D01*
X49875Y191131D01*
X49928Y191228D01*
X49985Y191322D01*
X50046Y191415D01*
X50109Y191506D01*
X50176Y191595D01*
X50246Y191681D01*
X50319Y191764D01*
X50394Y191846D01*
X50472Y191924D01*
X50554Y191999D01*
X50637Y192072D01*
X50723Y192142D01*
X50812Y192209D01*
X50903Y192272D01*
X50996Y192333D01*
X51090Y192390D01*
X51187Y192443D01*
X51286Y192494D01*
X51387Y192541D01*
X51489Y192584D01*
X51592Y192624D01*
X51697Y192660D01*
X51803Y192692D01*
X51910Y192721D01*
X52018Y192746D01*
X52127Y192767D01*
X52236Y192784D01*
X52346Y192798D01*
X52457Y192807D01*
X52567Y192813D01*
X52678Y192815D01*
X52789Y192813D01*
X52899Y192807D01*
X53010Y192798D01*
X53120Y192784D01*
X53229Y192767D01*
X53338Y192746D01*
X53446Y192721D01*
X53553Y192692D01*
X53659Y192660D01*
X53764Y192624D01*
X53867Y192584D01*
X53969Y192541D01*
X54070Y192494D01*
X54169Y192443D01*
X54266Y192390D01*
X54360Y192333D01*
X54453Y192272D01*
X54544Y192209D01*
X54633Y192142D01*
X54719Y192072D01*
X54802Y191999D01*
X54884Y191924D01*
X54962Y191846D01*
X55037Y191764D01*
X55110Y191681D01*
X55180Y191595D01*
X55247Y191506D01*
X55310Y191415D01*
X55371Y191322D01*
X55428Y191228D01*
X55481Y191131D01*
X55532Y191032D01*
X55579Y190931D01*
X55622Y190829D01*
X55662Y190726D01*
X55698Y190621D01*
X55730Y190515D01*
X55759Y190408D01*
X55784Y190300D01*
X55805Y190191D01*
X55822Y190082D01*
X55836Y189972D01*
X55845Y189861D01*
X55851Y189751D01*
X55853Y189640D01*
X55853Y184560D01*
X55851Y184449D01*
X55845Y184339D01*
X55836Y184228D01*
X55822Y184118D01*
X55805Y184009D01*
X55784Y183900D01*
X55759Y183792D01*
X55730Y183685D01*
X55698Y183579D01*
X55662Y183474D01*
X55622Y183371D01*
X55579Y183269D01*
X55532Y183168D01*
X55481Y183069D01*
X55428Y182972D01*
X55371Y182878D01*
X55310Y182785D01*
X55247Y182694D01*
X55180Y182605D01*
X55110Y182519D01*
X55037Y182436D01*
X54962Y182354D01*
X54884Y182276D01*
X54802Y182201D01*
X54719Y182128D01*
X54633Y182058D01*
X54544Y181991D01*
X54453Y181928D01*
X54360Y181867D01*
X54265Y181810D01*
X54169Y181757D01*
X54070Y181706D01*
X53969Y181659D01*
X53867Y181616D01*
X53764Y181576D01*
X53659Y181540D01*
X53553Y181508D01*
X53446Y181479D01*
X53338Y181454D01*
X53229Y181433D01*
X53120Y181416D01*
X53010Y181402D01*
X52899Y181393D01*
X52789Y181387D01*
X52678Y181385D01*
X52567Y181387D01*
X52457Y181393D01*
X52346Y181402D01*
X52236Y181416D01*
X52127Y181433D01*
X52018Y181454D01*
X51910Y181479D01*
X51803Y181508D01*
X51697Y181540D01*
X51592Y181576D01*
X51489Y181616D01*
X51387Y181659D01*
X51286Y181706D01*
X51187Y181757D01*
X51091Y181810D01*
X50996Y181867D01*
X50903Y181928D01*
X50812Y181991D01*
X50723Y182058D01*
X50637Y182128D01*
X50554Y182201D01*
X50472Y182276D01*
X50394Y182354D01*
X50319Y182436D01*
X50246Y182519D01*
X50176Y182605D01*
X50109Y182694D01*
X50046Y182785D01*
X49985Y182878D01*
X49928Y182973D01*
X49875Y183069D01*
X49824Y183168D01*
X49777Y183269D01*
X49734Y183371D01*
X49694Y183474D01*
X49658Y183579D01*
X49626Y183685D01*
X49597Y183792D01*
X49572Y183900D01*
X49551Y184009D01*
X49534Y184118D01*
X49520Y184228D01*
X49511Y184339D01*
X49505Y184449D01*
X49503Y184560D01*
X61396Y181385D02*
X61396Y192815D01*
X64571Y192815D01*
X64682Y192813D01*
X64792Y192807D01*
X64903Y192798D01*
X65013Y192784D01*
X65122Y192767D01*
X65231Y192746D01*
X65339Y192721D01*
X65446Y192692D01*
X65552Y192660D01*
X65657Y192624D01*
X65760Y192584D01*
X65862Y192541D01*
X65963Y192494D01*
X66062Y192443D01*
X66159Y192390D01*
X66253Y192333D01*
X66346Y192272D01*
X66437Y192209D01*
X66526Y192142D01*
X66612Y192072D01*
X66695Y191999D01*
X66777Y191924D01*
X66855Y191846D01*
X66930Y191764D01*
X67003Y191681D01*
X67073Y191595D01*
X67140Y191506D01*
X67203Y191415D01*
X67264Y191322D01*
X67321Y191227D01*
X67374Y191131D01*
X67425Y191032D01*
X67472Y190931D01*
X67515Y190829D01*
X67555Y190726D01*
X67591Y190621D01*
X67623Y190515D01*
X67652Y190408D01*
X67677Y190300D01*
X67698Y190191D01*
X67715Y190082D01*
X67729Y189972D01*
X67738Y189861D01*
X67744Y189751D01*
X67746Y189640D01*
X67744Y189529D01*
X67738Y189419D01*
X67729Y189308D01*
X67715Y189198D01*
X67698Y189089D01*
X67677Y188980D01*
X67652Y188872D01*
X67623Y188765D01*
X67591Y188659D01*
X67555Y188554D01*
X67515Y188451D01*
X67472Y188349D01*
X67425Y188248D01*
X67374Y188149D01*
X67321Y188052D01*
X67264Y187958D01*
X67203Y187865D01*
X67140Y187774D01*
X67073Y187685D01*
X67003Y187599D01*
X66930Y187516D01*
X66855Y187434D01*
X66777Y187356D01*
X66695Y187281D01*
X66612Y187208D01*
X66526Y187138D01*
X66437Y187071D01*
X66346Y187008D01*
X66253Y186947D01*
X66158Y186890D01*
X66062Y186837D01*
X65963Y186786D01*
X65862Y186739D01*
X65760Y186696D01*
X65657Y186656D01*
X65552Y186620D01*
X65446Y186588D01*
X65339Y186559D01*
X65231Y186534D01*
X65122Y186513D01*
X65013Y186496D01*
X64903Y186482D01*
X64792Y186473D01*
X64682Y186467D01*
X64571Y186465D01*
X61396Y186465D01*
X65206Y186465D02*
X67746Y181385D01*
X73315Y181385D02*
X73315Y192815D01*
X79665Y192815D02*
X73315Y185830D01*
X75855Y188370D02*
X79665Y181385D01*
D12*
X226690Y368180D02*
X226788Y368182D01*
X226886Y368188D01*
X226984Y368197D01*
X227081Y368211D01*
X227178Y368228D01*
X227274Y368249D01*
X227369Y368274D01*
X227463Y368302D01*
X227555Y368335D01*
X227647Y368370D01*
X227737Y368410D01*
X227825Y368452D01*
X227912Y368499D01*
X227996Y368548D01*
X228079Y368601D01*
X228159Y368657D01*
X228238Y368717D01*
X228314Y368779D01*
X228387Y368844D01*
X228458Y368912D01*
X228526Y368983D01*
X228591Y369056D01*
X228653Y369132D01*
X228713Y369211D01*
X228769Y369291D01*
X228822Y369374D01*
X228871Y369458D01*
X228918Y369545D01*
X228960Y369633D01*
X229000Y369723D01*
X229035Y369815D01*
X229068Y369907D01*
X229096Y370001D01*
X229121Y370096D01*
X229142Y370192D01*
X229159Y370289D01*
X229173Y370386D01*
X229182Y370484D01*
X229188Y370582D01*
X229190Y370680D01*
X226690Y368180D02*
X171690Y368180D01*
X171592Y368182D01*
X171494Y368188D01*
X171396Y368197D01*
X171299Y368211D01*
X171202Y368228D01*
X171106Y368249D01*
X171011Y368274D01*
X170917Y368302D01*
X170825Y368335D01*
X170733Y368370D01*
X170643Y368410D01*
X170555Y368452D01*
X170468Y368499D01*
X170384Y368548D01*
X170301Y368601D01*
X170221Y368657D01*
X170142Y368717D01*
X170066Y368779D01*
X169993Y368844D01*
X169922Y368912D01*
X169854Y368983D01*
X169789Y369056D01*
X169727Y369132D01*
X169667Y369211D01*
X169611Y369291D01*
X169558Y369374D01*
X169509Y369458D01*
X169462Y369545D01*
X169420Y369633D01*
X169380Y369723D01*
X169345Y369815D01*
X169312Y369907D01*
X169284Y370001D01*
X169259Y370096D01*
X169238Y370192D01*
X169221Y370289D01*
X169207Y370386D01*
X169198Y370484D01*
X169192Y370582D01*
X169190Y370680D01*
X169190Y400680D02*
X169192Y400778D01*
X169198Y400876D01*
X169207Y400974D01*
X169221Y401071D01*
X169238Y401168D01*
X169259Y401264D01*
X169284Y401359D01*
X169312Y401453D01*
X169345Y401545D01*
X169380Y401637D01*
X169420Y401727D01*
X169462Y401815D01*
X169509Y401902D01*
X169558Y401986D01*
X169611Y402069D01*
X169667Y402149D01*
X169727Y402228D01*
X169789Y402304D01*
X169854Y402377D01*
X169922Y402448D01*
X169993Y402516D01*
X170066Y402581D01*
X170142Y402643D01*
X170221Y402703D01*
X170301Y402759D01*
X170384Y402812D01*
X170468Y402861D01*
X170555Y402908D01*
X170643Y402950D01*
X170733Y402990D01*
X170825Y403025D01*
X170917Y403058D01*
X171011Y403086D01*
X171106Y403111D01*
X171202Y403132D01*
X171299Y403149D01*
X171396Y403163D01*
X171494Y403172D01*
X171592Y403178D01*
X171690Y403180D01*
X226690Y403180D01*
X226788Y403178D01*
X226886Y403172D01*
X226984Y403163D01*
X227081Y403149D01*
X227178Y403132D01*
X227274Y403111D01*
X227369Y403086D01*
X227463Y403058D01*
X227555Y403025D01*
X227647Y402990D01*
X227737Y402950D01*
X227825Y402908D01*
X227912Y402861D01*
X227996Y402812D01*
X228079Y402759D01*
X228159Y402703D01*
X228238Y402643D01*
X228314Y402581D01*
X228387Y402516D01*
X228458Y402448D01*
X228526Y402377D01*
X228591Y402304D01*
X228653Y402228D01*
X228713Y402149D01*
X228769Y402069D01*
X228822Y401986D01*
X228871Y401902D01*
X228918Y401815D01*
X228960Y401727D01*
X229000Y401637D01*
X229035Y401545D01*
X229068Y401453D01*
X229096Y401359D01*
X229121Y401264D01*
X229142Y401168D01*
X229159Y401071D01*
X229173Y400974D01*
X229182Y400876D01*
X229188Y400778D01*
X229190Y400680D01*
X229190Y396680D01*
X229190Y374680D02*
X229190Y370680D01*
X169190Y370680D02*
X169190Y374680D01*
X169190Y396680D02*
X169190Y400680D01*
X184190Y378180D02*
X214190Y378180D01*
X214190Y393180D02*
X184190Y393180D01*
X214190Y393180D02*
X214190Y378180D01*
X184190Y378180D02*
X184190Y393180D01*
D10*
X182275Y362439D02*
X179820Y355073D01*
X184730Y355073D02*
X182275Y362439D01*
X180434Y356915D02*
X184117Y356915D01*
X189158Y355073D02*
X190795Y355073D01*
X189158Y355073D02*
X189080Y355075D01*
X189002Y355080D01*
X188925Y355090D01*
X188848Y355103D01*
X188772Y355119D01*
X188697Y355139D01*
X188623Y355163D01*
X188550Y355190D01*
X188478Y355221D01*
X188408Y355255D01*
X188340Y355292D01*
X188273Y355333D01*
X188208Y355377D01*
X188146Y355423D01*
X188086Y355473D01*
X188028Y355525D01*
X187973Y355580D01*
X187921Y355638D01*
X187871Y355698D01*
X187825Y355760D01*
X187781Y355825D01*
X187740Y355892D01*
X187703Y355960D01*
X187669Y356030D01*
X187638Y356102D01*
X187611Y356175D01*
X187587Y356249D01*
X187567Y356324D01*
X187551Y356400D01*
X187538Y356477D01*
X187528Y356554D01*
X187523Y356632D01*
X187521Y356710D01*
X187521Y360802D01*
X187523Y360882D01*
X187529Y360962D01*
X187539Y361042D01*
X187552Y361121D01*
X187570Y361200D01*
X187591Y361277D01*
X187617Y361353D01*
X187646Y361428D01*
X187678Y361502D01*
X187714Y361574D01*
X187754Y361644D01*
X187797Y361711D01*
X187843Y361777D01*
X187893Y361840D01*
X187945Y361901D01*
X188000Y361960D01*
X188059Y362015D01*
X188119Y362067D01*
X188183Y362117D01*
X188249Y362163D01*
X188316Y362206D01*
X188386Y362246D01*
X188458Y362282D01*
X188532Y362314D01*
X188606Y362343D01*
X188683Y362369D01*
X188760Y362390D01*
X188839Y362408D01*
X188918Y362421D01*
X188998Y362431D01*
X189078Y362437D01*
X189158Y362439D01*
X190795Y362439D01*
X195198Y362439D02*
X195198Y355073D01*
X193152Y362439D02*
X197245Y362439D01*
X200563Y362439D02*
X200563Y355073D01*
X199745Y355073D02*
X201381Y355073D01*
X201381Y362439D02*
X199745Y362439D01*
X204369Y360393D02*
X204369Y357119D01*
X204369Y360393D02*
X204371Y360482D01*
X204377Y360571D01*
X204387Y360660D01*
X204400Y360748D01*
X204417Y360836D01*
X204439Y360923D01*
X204464Y361008D01*
X204492Y361093D01*
X204525Y361176D01*
X204561Y361258D01*
X204600Y361338D01*
X204643Y361416D01*
X204689Y361492D01*
X204739Y361567D01*
X204792Y361639D01*
X204848Y361708D01*
X204907Y361775D01*
X204968Y361840D01*
X205033Y361901D01*
X205100Y361960D01*
X205169Y362016D01*
X205241Y362069D01*
X205316Y362119D01*
X205392Y362165D01*
X205470Y362208D01*
X205550Y362247D01*
X205632Y362283D01*
X205715Y362316D01*
X205800Y362344D01*
X205885Y362369D01*
X205972Y362391D01*
X206060Y362408D01*
X206148Y362421D01*
X206237Y362431D01*
X206326Y362437D01*
X206415Y362439D01*
X206504Y362437D01*
X206593Y362431D01*
X206682Y362421D01*
X206770Y362408D01*
X206858Y362391D01*
X206945Y362369D01*
X207030Y362344D01*
X207115Y362316D01*
X207198Y362283D01*
X207280Y362247D01*
X207360Y362208D01*
X207438Y362165D01*
X207514Y362119D01*
X207589Y362069D01*
X207661Y362016D01*
X207730Y361960D01*
X207797Y361901D01*
X207862Y361840D01*
X207923Y361775D01*
X207982Y361708D01*
X208038Y361639D01*
X208091Y361567D01*
X208141Y361492D01*
X208187Y361416D01*
X208230Y361338D01*
X208269Y361258D01*
X208305Y361176D01*
X208338Y361093D01*
X208366Y361008D01*
X208391Y360923D01*
X208413Y360836D01*
X208430Y360748D01*
X208443Y360660D01*
X208453Y360571D01*
X208459Y360482D01*
X208461Y360393D01*
X208461Y357119D01*
X208459Y357030D01*
X208453Y356941D01*
X208443Y356852D01*
X208430Y356764D01*
X208413Y356676D01*
X208391Y356589D01*
X208366Y356504D01*
X208338Y356419D01*
X208305Y356336D01*
X208269Y356254D01*
X208230Y356174D01*
X208187Y356096D01*
X208141Y356020D01*
X208091Y355945D01*
X208038Y355873D01*
X207982Y355804D01*
X207923Y355737D01*
X207862Y355672D01*
X207797Y355611D01*
X207730Y355552D01*
X207661Y355496D01*
X207589Y355443D01*
X207514Y355393D01*
X207438Y355347D01*
X207360Y355304D01*
X207280Y355265D01*
X207198Y355229D01*
X207115Y355196D01*
X207030Y355168D01*
X206945Y355143D01*
X206858Y355121D01*
X206770Y355104D01*
X206682Y355091D01*
X206593Y355081D01*
X206504Y355075D01*
X206415Y355073D01*
X206326Y355075D01*
X206237Y355081D01*
X206148Y355091D01*
X206060Y355104D01*
X205972Y355121D01*
X205885Y355143D01*
X205800Y355168D01*
X205715Y355196D01*
X205632Y355229D01*
X205550Y355265D01*
X205470Y355304D01*
X205392Y355347D01*
X205316Y355393D01*
X205241Y355443D01*
X205169Y355496D01*
X205100Y355552D01*
X205033Y355611D01*
X204968Y355672D01*
X204907Y355737D01*
X204848Y355804D01*
X204792Y355873D01*
X204739Y355945D01*
X204689Y356020D01*
X204643Y356096D01*
X204600Y356174D01*
X204561Y356254D01*
X204525Y356336D01*
X204492Y356419D01*
X204464Y356504D01*
X204439Y356589D01*
X204417Y356676D01*
X204400Y356764D01*
X204387Y356852D01*
X204377Y356941D01*
X204371Y357030D01*
X204369Y357119D01*
X211928Y355073D02*
X211928Y362439D01*
X216020Y355073D01*
X216020Y362439D01*
D12*
X328600Y363050D02*
X328600Y375750D01*
X334950Y382100D01*
X347650Y382100D02*
X354000Y375750D01*
X334950Y382100D02*
X328600Y388450D01*
X328600Y401150D01*
X334950Y407500D01*
X347650Y407500D02*
X354000Y401150D01*
X354000Y388450D01*
X347650Y382100D01*
X328600Y337650D02*
X334950Y331300D01*
X328600Y337650D02*
X328600Y350350D01*
X334950Y356700D01*
X347650Y356700D02*
X354000Y350350D01*
X354000Y337650D01*
X347650Y331300D01*
X334950Y356700D02*
X328600Y363050D01*
X347650Y356700D02*
X354000Y363050D01*
X354000Y375750D01*
X328600Y299550D02*
X328600Y286850D01*
X328600Y299550D02*
X334950Y305900D01*
X347650Y305900D02*
X354000Y299550D01*
X334950Y305900D02*
X328600Y312250D01*
X328600Y324950D01*
X334950Y331300D01*
X347650Y331300D02*
X354000Y324950D01*
X354000Y312250D01*
X347650Y305900D01*
X347650Y280500D02*
X334950Y280500D01*
X328600Y286850D01*
X347650Y280500D02*
X354000Y286850D01*
X354000Y299550D01*
X347650Y407500D02*
X334950Y407500D01*
D10*
X358883Y364399D02*
X366249Y364399D01*
X366249Y363581D02*
X366249Y365218D01*
X358883Y365218D02*
X358883Y363581D01*
X366249Y369819D02*
X366249Y371456D01*
X366249Y369819D02*
X366247Y369741D01*
X366242Y369663D01*
X366232Y369586D01*
X366219Y369509D01*
X366203Y369433D01*
X366183Y369358D01*
X366159Y369284D01*
X366132Y369211D01*
X366101Y369139D01*
X366067Y369069D01*
X366030Y369001D01*
X365989Y368934D01*
X365945Y368869D01*
X365899Y368807D01*
X365849Y368747D01*
X365797Y368689D01*
X365742Y368634D01*
X365684Y368582D01*
X365624Y368532D01*
X365562Y368486D01*
X365497Y368442D01*
X365431Y368401D01*
X365362Y368364D01*
X365292Y368330D01*
X365220Y368299D01*
X365147Y368272D01*
X365073Y368248D01*
X364998Y368228D01*
X364922Y368212D01*
X364845Y368199D01*
X364768Y368189D01*
X364690Y368184D01*
X364612Y368182D01*
X360520Y368182D01*
X360440Y368184D01*
X360360Y368190D01*
X360280Y368200D01*
X360201Y368213D01*
X360122Y368231D01*
X360045Y368252D01*
X359969Y368278D01*
X359894Y368307D01*
X359820Y368339D01*
X359748Y368375D01*
X359678Y368415D01*
X359611Y368458D01*
X359545Y368504D01*
X359482Y368554D01*
X359421Y368606D01*
X359362Y368661D01*
X359307Y368720D01*
X359255Y368780D01*
X359205Y368844D01*
X359159Y368909D01*
X359116Y368977D01*
X359076Y369047D01*
X359040Y369119D01*
X359008Y369193D01*
X358979Y369267D01*
X358954Y369344D01*
X358932Y369421D01*
X358914Y369500D01*
X358901Y369579D01*
X358891Y369658D01*
X358885Y369739D01*
X358883Y369819D01*
X358883Y371456D01*
X364612Y378150D02*
X364690Y378148D01*
X364768Y378143D01*
X364845Y378133D01*
X364922Y378120D01*
X364998Y378104D01*
X365073Y378084D01*
X365147Y378060D01*
X365220Y378033D01*
X365292Y378002D01*
X365362Y377968D01*
X365431Y377931D01*
X365497Y377890D01*
X365562Y377846D01*
X365624Y377800D01*
X365684Y377750D01*
X365742Y377698D01*
X365797Y377643D01*
X365849Y377585D01*
X365899Y377525D01*
X365945Y377463D01*
X365989Y377398D01*
X366030Y377332D01*
X366067Y377263D01*
X366101Y377193D01*
X366132Y377121D01*
X366159Y377048D01*
X366183Y376974D01*
X366203Y376899D01*
X366219Y376823D01*
X366232Y376746D01*
X366242Y376669D01*
X366247Y376591D01*
X366249Y376513D01*
X366247Y376399D01*
X366242Y376286D01*
X366232Y376172D01*
X366219Y376059D01*
X366202Y375947D01*
X366182Y375835D01*
X366158Y375724D01*
X366130Y375613D01*
X366099Y375504D01*
X366064Y375396D01*
X366025Y375289D01*
X365983Y375183D01*
X365938Y375079D01*
X365889Y374976D01*
X365836Y374875D01*
X365781Y374776D01*
X365722Y374678D01*
X365660Y374583D01*
X365595Y374490D01*
X365527Y374398D01*
X365456Y374310D01*
X365382Y374223D01*
X365305Y374139D01*
X365226Y374058D01*
X360520Y374262D02*
X360442Y374264D01*
X360364Y374269D01*
X360287Y374279D01*
X360210Y374292D01*
X360134Y374308D01*
X360059Y374328D01*
X359985Y374352D01*
X359912Y374379D01*
X359840Y374410D01*
X359770Y374444D01*
X359702Y374481D01*
X359635Y374522D01*
X359570Y374566D01*
X359508Y374612D01*
X359448Y374662D01*
X359390Y374714D01*
X359335Y374769D01*
X359283Y374827D01*
X359233Y374887D01*
X359187Y374949D01*
X359143Y375014D01*
X359102Y375081D01*
X359065Y375149D01*
X359031Y375219D01*
X359000Y375291D01*
X358973Y375364D01*
X358949Y375438D01*
X358929Y375513D01*
X358913Y375589D01*
X358900Y375666D01*
X358890Y375743D01*
X358885Y375821D01*
X358883Y375899D01*
X358885Y376009D01*
X358891Y376118D01*
X358901Y376228D01*
X358914Y376336D01*
X358932Y376445D01*
X358953Y376552D01*
X358979Y376659D01*
X359008Y376765D01*
X359040Y376870D01*
X359077Y376973D01*
X359117Y377075D01*
X359161Y377176D01*
X359209Y377275D01*
X359259Y377372D01*
X359314Y377467D01*
X359372Y377560D01*
X359433Y377651D01*
X359497Y377740D01*
X361952Y375081D02*
X361910Y375015D01*
X361866Y374950D01*
X361818Y374888D01*
X361768Y374828D01*
X361715Y374770D01*
X361659Y374715D01*
X361601Y374662D01*
X361540Y374613D01*
X361477Y374566D01*
X361412Y374522D01*
X361345Y374482D01*
X361276Y374445D01*
X361205Y374411D01*
X361133Y374380D01*
X361059Y374353D01*
X360984Y374329D01*
X360909Y374309D01*
X360832Y374293D01*
X360755Y374280D01*
X360677Y374270D01*
X360598Y374265D01*
X360520Y374263D01*
X363179Y377331D02*
X363221Y377398D01*
X363265Y377463D01*
X363313Y377525D01*
X363363Y377585D01*
X363416Y377643D01*
X363472Y377698D01*
X363531Y377750D01*
X363591Y377800D01*
X363655Y377847D01*
X363720Y377890D01*
X363787Y377931D01*
X363856Y377968D01*
X363927Y378002D01*
X363999Y378033D01*
X364073Y378060D01*
X364147Y378084D01*
X364223Y378104D01*
X364300Y378120D01*
X364377Y378133D01*
X364455Y378143D01*
X364534Y378148D01*
X364612Y378150D01*
X363180Y377331D02*
X361952Y375081D01*
X358883Y381491D02*
X366249Y381491D01*
X358883Y381491D02*
X358883Y383537D01*
X358885Y383626D01*
X358891Y383715D01*
X358901Y383804D01*
X358914Y383892D01*
X358931Y383980D01*
X358953Y384067D01*
X358978Y384152D01*
X359006Y384237D01*
X359039Y384320D01*
X359075Y384402D01*
X359114Y384482D01*
X359157Y384560D01*
X359203Y384636D01*
X359253Y384711D01*
X359306Y384783D01*
X359362Y384852D01*
X359421Y384919D01*
X359482Y384984D01*
X359547Y385045D01*
X359614Y385104D01*
X359683Y385160D01*
X359755Y385213D01*
X359830Y385263D01*
X359906Y385309D01*
X359984Y385352D01*
X360064Y385391D01*
X360146Y385427D01*
X360229Y385460D01*
X360314Y385488D01*
X360399Y385513D01*
X360486Y385535D01*
X360574Y385552D01*
X360662Y385565D01*
X360751Y385575D01*
X360840Y385581D01*
X360929Y385583D01*
X361018Y385581D01*
X361107Y385575D01*
X361196Y385565D01*
X361284Y385552D01*
X361372Y385535D01*
X361459Y385513D01*
X361544Y385488D01*
X361629Y385460D01*
X361712Y385427D01*
X361794Y385391D01*
X361874Y385352D01*
X361952Y385309D01*
X362028Y385263D01*
X362103Y385213D01*
X362175Y385160D01*
X362244Y385104D01*
X362311Y385045D01*
X362376Y384984D01*
X362437Y384919D01*
X362496Y384852D01*
X362552Y384783D01*
X362605Y384711D01*
X362655Y384636D01*
X362701Y384560D01*
X362744Y384482D01*
X362783Y384402D01*
X362819Y384320D01*
X362852Y384237D01*
X362880Y384152D01*
X362905Y384067D01*
X362927Y383980D01*
X362944Y383892D01*
X362957Y383804D01*
X362967Y383715D01*
X362973Y383626D01*
X362975Y383537D01*
X362975Y381491D01*
D16*
X242500Y151860D02*
X157500Y151860D01*
X242500Y151860D02*
X242500Y99360D01*
X242500Y66860D01*
X210000Y66860D01*
X157500Y66860D01*
X157500Y151860D01*
X210000Y99360D02*
X210000Y66860D01*
X210000Y99360D02*
X242500Y99360D01*
D13*
X38000Y526000D02*
X38000Y534000D01*
X62000Y534000D02*
X62000Y526000D01*
D17*
X43000Y559000D03*
D18*
X43044Y559002D01*
X43087Y559008D01*
X43129Y559017D01*
X43171Y559030D01*
X43211Y559047D01*
X43250Y559067D01*
X43287Y559090D01*
X43321Y559117D01*
X43354Y559146D01*
X43383Y559179D01*
X43410Y559213D01*
X43433Y559250D01*
X43453Y559289D01*
X43470Y559329D01*
X43483Y559371D01*
X43492Y559413D01*
X43498Y559456D01*
X43500Y559500D01*
X43498Y559544D01*
X43492Y559587D01*
X43483Y559629D01*
X43470Y559671D01*
X43453Y559711D01*
X43433Y559750D01*
X43410Y559787D01*
X43383Y559821D01*
X43354Y559854D01*
X43321Y559883D01*
X43287Y559910D01*
X43250Y559933D01*
X43211Y559953D01*
X43171Y559970D01*
X43129Y559983D01*
X43087Y559992D01*
X43044Y559998D01*
X43000Y560000D01*
D17*
X43000Y560000D03*
D18*
X42956Y559998D01*
X42913Y559992D01*
X42871Y559983D01*
X42829Y559970D01*
X42789Y559953D01*
X42750Y559933D01*
X42713Y559910D01*
X42679Y559883D01*
X42646Y559854D01*
X42617Y559821D01*
X42590Y559787D01*
X42567Y559750D01*
X42547Y559711D01*
X42530Y559671D01*
X42517Y559629D01*
X42508Y559587D01*
X42502Y559544D01*
X42500Y559500D01*
X42502Y559456D01*
X42508Y559413D01*
X42517Y559371D01*
X42530Y559329D01*
X42547Y559289D01*
X42567Y559250D01*
X42590Y559213D01*
X42617Y559179D01*
X42646Y559146D01*
X42679Y559117D01*
X42713Y559090D01*
X42750Y559067D01*
X42789Y559047D01*
X42829Y559030D01*
X42871Y559017D01*
X42913Y559008D01*
X42956Y559002D01*
X43000Y559000D01*
D10*
X39502Y499613D02*
X39502Y492247D01*
X42776Y492247D01*
X45842Y492247D02*
X49116Y492247D01*
X45842Y492247D02*
X45842Y499613D01*
X49116Y499613D01*
X48298Y496339D02*
X45842Y496339D01*
X52166Y499613D02*
X52166Y492247D01*
X52166Y499613D02*
X54212Y499613D01*
X54301Y499611D01*
X54390Y499605D01*
X54479Y499595D01*
X54567Y499582D01*
X54655Y499565D01*
X54742Y499543D01*
X54827Y499518D01*
X54912Y499490D01*
X54995Y499457D01*
X55077Y499421D01*
X55157Y499382D01*
X55235Y499339D01*
X55311Y499293D01*
X55386Y499243D01*
X55458Y499190D01*
X55527Y499134D01*
X55594Y499075D01*
X55659Y499014D01*
X55720Y498949D01*
X55779Y498882D01*
X55835Y498813D01*
X55888Y498741D01*
X55938Y498666D01*
X55984Y498590D01*
X56027Y498512D01*
X56066Y498432D01*
X56102Y498350D01*
X56135Y498267D01*
X56163Y498182D01*
X56188Y498097D01*
X56210Y498010D01*
X56227Y497922D01*
X56240Y497834D01*
X56250Y497745D01*
X56256Y497656D01*
X56258Y497567D01*
X56259Y497567D02*
X56259Y494293D01*
X56258Y494293D02*
X56256Y494204D01*
X56250Y494115D01*
X56240Y494026D01*
X56227Y493938D01*
X56210Y493850D01*
X56188Y493763D01*
X56163Y493678D01*
X56135Y493593D01*
X56102Y493510D01*
X56066Y493428D01*
X56027Y493348D01*
X55984Y493270D01*
X55938Y493194D01*
X55888Y493119D01*
X55835Y493047D01*
X55779Y492978D01*
X55720Y492911D01*
X55659Y492846D01*
X55594Y492785D01*
X55527Y492726D01*
X55458Y492670D01*
X55386Y492617D01*
X55311Y492567D01*
X55235Y492521D01*
X55157Y492478D01*
X55077Y492439D01*
X54995Y492403D01*
X54912Y492370D01*
X54827Y492342D01*
X54742Y492317D01*
X54655Y492295D01*
X54567Y492278D01*
X54479Y492265D01*
X54390Y492255D01*
X54301Y492249D01*
X54212Y492247D01*
X52166Y492247D01*
X59725Y497976D02*
X61771Y499613D01*
X61771Y492247D01*
X59725Y492247D02*
X63818Y492247D01*
D13*
X88000Y526000D02*
X88000Y534000D01*
X112000Y534000D02*
X112000Y526000D01*
D17*
X93000Y559000D03*
D18*
X93044Y559002D01*
X93087Y559008D01*
X93129Y559017D01*
X93171Y559030D01*
X93211Y559047D01*
X93250Y559067D01*
X93287Y559090D01*
X93321Y559117D01*
X93354Y559146D01*
X93383Y559179D01*
X93410Y559213D01*
X93433Y559250D01*
X93453Y559289D01*
X93470Y559329D01*
X93483Y559371D01*
X93492Y559413D01*
X93498Y559456D01*
X93500Y559500D01*
X93498Y559544D01*
X93492Y559587D01*
X93483Y559629D01*
X93470Y559671D01*
X93453Y559711D01*
X93433Y559750D01*
X93410Y559787D01*
X93383Y559821D01*
X93354Y559854D01*
X93321Y559883D01*
X93287Y559910D01*
X93250Y559933D01*
X93211Y559953D01*
X93171Y559970D01*
X93129Y559983D01*
X93087Y559992D01*
X93044Y559998D01*
X93000Y560000D01*
D17*
X93000Y560000D03*
D18*
X92956Y559998D01*
X92913Y559992D01*
X92871Y559983D01*
X92829Y559970D01*
X92789Y559953D01*
X92750Y559933D01*
X92713Y559910D01*
X92679Y559883D01*
X92646Y559854D01*
X92617Y559821D01*
X92590Y559787D01*
X92567Y559750D01*
X92547Y559711D01*
X92530Y559671D01*
X92517Y559629D01*
X92508Y559587D01*
X92502Y559544D01*
X92500Y559500D01*
X92502Y559456D01*
X92508Y559413D01*
X92517Y559371D01*
X92530Y559329D01*
X92547Y559289D01*
X92567Y559250D01*
X92590Y559213D01*
X92617Y559179D01*
X92646Y559146D01*
X92679Y559117D01*
X92713Y559090D01*
X92750Y559067D01*
X92789Y559047D01*
X92829Y559030D01*
X92871Y559017D01*
X92913Y559008D01*
X92956Y559002D01*
X93000Y559000D01*
D10*
X89032Y500083D02*
X89032Y492717D01*
X92306Y492717D01*
X95372Y492717D02*
X98646Y492717D01*
X95372Y492717D02*
X95372Y500083D01*
X98646Y500083D01*
X97828Y496809D02*
X95372Y496809D01*
X101696Y500083D02*
X101696Y492717D01*
X101696Y500083D02*
X103742Y500083D01*
X103831Y500081D01*
X103920Y500075D01*
X104009Y500065D01*
X104097Y500052D01*
X104185Y500035D01*
X104272Y500013D01*
X104357Y499988D01*
X104442Y499960D01*
X104525Y499927D01*
X104607Y499891D01*
X104687Y499852D01*
X104765Y499809D01*
X104841Y499763D01*
X104916Y499713D01*
X104988Y499660D01*
X105057Y499604D01*
X105124Y499545D01*
X105189Y499484D01*
X105250Y499419D01*
X105309Y499352D01*
X105365Y499283D01*
X105418Y499211D01*
X105468Y499136D01*
X105514Y499060D01*
X105557Y498982D01*
X105596Y498902D01*
X105632Y498820D01*
X105665Y498737D01*
X105693Y498652D01*
X105718Y498567D01*
X105740Y498480D01*
X105757Y498392D01*
X105770Y498304D01*
X105780Y498215D01*
X105786Y498126D01*
X105788Y498037D01*
X105789Y498037D02*
X105789Y494763D01*
X105788Y494763D02*
X105786Y494674D01*
X105780Y494585D01*
X105770Y494496D01*
X105757Y494408D01*
X105740Y494320D01*
X105718Y494233D01*
X105693Y494148D01*
X105665Y494063D01*
X105632Y493980D01*
X105596Y493898D01*
X105557Y493818D01*
X105514Y493740D01*
X105468Y493664D01*
X105418Y493589D01*
X105365Y493517D01*
X105309Y493448D01*
X105250Y493381D01*
X105189Y493316D01*
X105124Y493255D01*
X105057Y493196D01*
X104988Y493140D01*
X104916Y493087D01*
X104841Y493037D01*
X104765Y492991D01*
X104687Y492948D01*
X104607Y492909D01*
X104525Y492873D01*
X104442Y492840D01*
X104357Y492812D01*
X104272Y492787D01*
X104185Y492765D01*
X104097Y492748D01*
X104009Y492735D01*
X103920Y492725D01*
X103831Y492719D01*
X103742Y492717D01*
X101696Y492717D01*
X111506Y500084D02*
X111591Y500082D01*
X111676Y500076D01*
X111760Y500066D01*
X111844Y500053D01*
X111928Y500035D01*
X112010Y500014D01*
X112091Y499989D01*
X112171Y499960D01*
X112250Y499927D01*
X112327Y499891D01*
X112402Y499851D01*
X112476Y499808D01*
X112547Y499762D01*
X112616Y499712D01*
X112683Y499659D01*
X112747Y499603D01*
X112808Y499544D01*
X112867Y499483D01*
X112923Y499419D01*
X112976Y499352D01*
X113026Y499283D01*
X113072Y499212D01*
X113115Y499138D01*
X113155Y499063D01*
X113191Y498986D01*
X113224Y498907D01*
X113253Y498827D01*
X113278Y498746D01*
X113299Y498664D01*
X113317Y498580D01*
X113330Y498496D01*
X113340Y498412D01*
X113346Y498327D01*
X113348Y498242D01*
X111506Y500083D02*
X111410Y500081D01*
X111314Y500075D01*
X111219Y500065D01*
X111124Y500052D01*
X111029Y500034D01*
X110936Y500013D01*
X110843Y499988D01*
X110752Y499959D01*
X110661Y499927D01*
X110572Y499891D01*
X110485Y499851D01*
X110399Y499808D01*
X110315Y499762D01*
X110233Y499712D01*
X110153Y499658D01*
X110076Y499602D01*
X110001Y499542D01*
X109928Y499480D01*
X109858Y499414D01*
X109790Y499346D01*
X109725Y499275D01*
X109664Y499202D01*
X109605Y499126D01*
X109549Y499047D01*
X109497Y498967D01*
X109448Y498884D01*
X109402Y498800D01*
X109360Y498714D01*
X109322Y498626D01*
X109287Y498537D01*
X109255Y498446D01*
X112734Y496810D02*
X112794Y496869D01*
X112851Y496931D01*
X112906Y496995D01*
X112957Y497062D01*
X113006Y497131D01*
X113052Y497201D01*
X113095Y497274D01*
X113135Y497348D01*
X113171Y497424D01*
X113204Y497502D01*
X113234Y497581D01*
X113261Y497661D01*
X113284Y497742D01*
X113303Y497824D01*
X113319Y497906D01*
X113332Y497990D01*
X113341Y498074D01*
X113346Y498158D01*
X113348Y498242D01*
X112734Y496809D02*
X109255Y492717D01*
X113348Y492717D01*
D13*
X138000Y526000D02*
X138000Y534000D01*
X162000Y534000D02*
X162000Y526000D01*
D17*
X143000Y559000D03*
D18*
X143044Y559002D01*
X143087Y559008D01*
X143129Y559017D01*
X143171Y559030D01*
X143211Y559047D01*
X143250Y559067D01*
X143287Y559090D01*
X143321Y559117D01*
X143354Y559146D01*
X143383Y559179D01*
X143410Y559213D01*
X143433Y559250D01*
X143453Y559289D01*
X143470Y559329D01*
X143483Y559371D01*
X143492Y559413D01*
X143498Y559456D01*
X143500Y559500D01*
X143498Y559544D01*
X143492Y559587D01*
X143483Y559629D01*
X143470Y559671D01*
X143453Y559711D01*
X143433Y559750D01*
X143410Y559787D01*
X143383Y559821D01*
X143354Y559854D01*
X143321Y559883D01*
X143287Y559910D01*
X143250Y559933D01*
X143211Y559953D01*
X143171Y559970D01*
X143129Y559983D01*
X143087Y559992D01*
X143044Y559998D01*
X143000Y560000D01*
D17*
X143000Y560000D03*
D18*
X142956Y559998D01*
X142913Y559992D01*
X142871Y559983D01*
X142829Y559970D01*
X142789Y559953D01*
X142750Y559933D01*
X142713Y559910D01*
X142679Y559883D01*
X142646Y559854D01*
X142617Y559821D01*
X142590Y559787D01*
X142567Y559750D01*
X142547Y559711D01*
X142530Y559671D01*
X142517Y559629D01*
X142508Y559587D01*
X142502Y559544D01*
X142500Y559500D01*
X142502Y559456D01*
X142508Y559413D01*
X142517Y559371D01*
X142530Y559329D01*
X142547Y559289D01*
X142567Y559250D01*
X142590Y559213D01*
X142617Y559179D01*
X142646Y559146D01*
X142679Y559117D01*
X142713Y559090D01*
X142750Y559067D01*
X142789Y559047D01*
X142829Y559030D01*
X142871Y559017D01*
X142913Y559008D01*
X142956Y559002D01*
X143000Y559000D01*
D10*
X138562Y499283D02*
X138562Y491917D01*
X141836Y491917D01*
X144902Y491917D02*
X148176Y491917D01*
X144902Y491917D02*
X144902Y499283D01*
X148176Y499283D01*
X147358Y496009D02*
X144902Y496009D01*
X151226Y499283D02*
X151226Y491917D01*
X151226Y499283D02*
X153272Y499283D01*
X153361Y499281D01*
X153450Y499275D01*
X153539Y499265D01*
X153627Y499252D01*
X153715Y499235D01*
X153802Y499213D01*
X153887Y499188D01*
X153972Y499160D01*
X154055Y499127D01*
X154137Y499091D01*
X154217Y499052D01*
X154295Y499009D01*
X154371Y498963D01*
X154446Y498913D01*
X154518Y498860D01*
X154587Y498804D01*
X154654Y498745D01*
X154719Y498684D01*
X154780Y498619D01*
X154839Y498552D01*
X154895Y498483D01*
X154948Y498411D01*
X154998Y498336D01*
X155044Y498260D01*
X155087Y498182D01*
X155126Y498102D01*
X155162Y498020D01*
X155195Y497937D01*
X155223Y497852D01*
X155248Y497767D01*
X155270Y497680D01*
X155287Y497592D01*
X155300Y497504D01*
X155310Y497415D01*
X155316Y497326D01*
X155318Y497237D01*
X155319Y497237D02*
X155319Y493963D01*
X155318Y493963D02*
X155316Y493874D01*
X155310Y493785D01*
X155300Y493696D01*
X155287Y493608D01*
X155270Y493520D01*
X155248Y493433D01*
X155223Y493348D01*
X155195Y493263D01*
X155162Y493180D01*
X155126Y493098D01*
X155087Y493018D01*
X155044Y492940D01*
X154998Y492864D01*
X154948Y492789D01*
X154895Y492717D01*
X154839Y492648D01*
X154780Y492581D01*
X154719Y492516D01*
X154654Y492455D01*
X154587Y492396D01*
X154518Y492340D01*
X154446Y492287D01*
X154371Y492237D01*
X154295Y492191D01*
X154217Y492148D01*
X154137Y492109D01*
X154055Y492073D01*
X153972Y492040D01*
X153887Y492012D01*
X153802Y491987D01*
X153715Y491965D01*
X153627Y491948D01*
X153539Y491935D01*
X153450Y491925D01*
X153361Y491919D01*
X153272Y491917D01*
X151226Y491917D01*
X158785Y491917D02*
X160831Y491917D01*
X160920Y491919D01*
X161009Y491925D01*
X161098Y491935D01*
X161186Y491948D01*
X161274Y491965D01*
X161361Y491987D01*
X161446Y492012D01*
X161531Y492040D01*
X161614Y492073D01*
X161696Y492109D01*
X161776Y492148D01*
X161854Y492191D01*
X161930Y492237D01*
X162005Y492287D01*
X162077Y492340D01*
X162146Y492396D01*
X162213Y492455D01*
X162278Y492516D01*
X162339Y492581D01*
X162398Y492648D01*
X162454Y492717D01*
X162507Y492789D01*
X162557Y492864D01*
X162603Y492940D01*
X162646Y493018D01*
X162685Y493098D01*
X162721Y493180D01*
X162754Y493263D01*
X162782Y493348D01*
X162807Y493433D01*
X162829Y493520D01*
X162846Y493608D01*
X162859Y493696D01*
X162869Y493785D01*
X162875Y493874D01*
X162877Y493963D01*
X162875Y494052D01*
X162869Y494141D01*
X162859Y494230D01*
X162846Y494318D01*
X162829Y494406D01*
X162807Y494493D01*
X162782Y494578D01*
X162754Y494663D01*
X162721Y494746D01*
X162685Y494828D01*
X162646Y494908D01*
X162603Y494986D01*
X162557Y495062D01*
X162507Y495137D01*
X162454Y495209D01*
X162398Y495278D01*
X162339Y495345D01*
X162278Y495410D01*
X162213Y495471D01*
X162146Y495530D01*
X162077Y495586D01*
X162005Y495639D01*
X161930Y495689D01*
X161854Y495735D01*
X161776Y495778D01*
X161696Y495817D01*
X161614Y495853D01*
X161531Y495886D01*
X161446Y495914D01*
X161361Y495939D01*
X161274Y495961D01*
X161186Y495978D01*
X161098Y495991D01*
X161009Y496001D01*
X160920Y496007D01*
X160831Y496009D01*
X161241Y499283D02*
X158785Y499283D01*
X161241Y499283D02*
X161320Y499281D01*
X161399Y499275D01*
X161478Y499266D01*
X161556Y499253D01*
X161633Y499235D01*
X161709Y499215D01*
X161784Y499190D01*
X161858Y499162D01*
X161931Y499131D01*
X162002Y499095D01*
X162071Y499057D01*
X162138Y499015D01*
X162203Y498970D01*
X162266Y498922D01*
X162327Y498871D01*
X162384Y498817D01*
X162440Y498761D01*
X162492Y498702D01*
X162542Y498640D01*
X162588Y498576D01*
X162632Y498510D01*
X162672Y498442D01*
X162708Y498372D01*
X162742Y498300D01*
X162772Y498226D01*
X162798Y498152D01*
X162821Y498076D01*
X162839Y497999D01*
X162855Y497922D01*
X162866Y497843D01*
X162874Y497765D01*
X162878Y497686D01*
X162878Y497606D01*
X162874Y497527D01*
X162866Y497449D01*
X162855Y497370D01*
X162839Y497293D01*
X162821Y497216D01*
X162798Y497140D01*
X162772Y497066D01*
X162742Y496992D01*
X162708Y496920D01*
X162672Y496850D01*
X162632Y496782D01*
X162588Y496716D01*
X162542Y496652D01*
X162492Y496590D01*
X162440Y496531D01*
X162384Y496475D01*
X162327Y496421D01*
X162266Y496370D01*
X162203Y496322D01*
X162138Y496277D01*
X162071Y496235D01*
X162002Y496197D01*
X161931Y496161D01*
X161858Y496130D01*
X161784Y496102D01*
X161709Y496077D01*
X161633Y496057D01*
X161556Y496039D01*
X161478Y496026D01*
X161399Y496017D01*
X161320Y496011D01*
X161241Y496009D01*
X159604Y496009D01*
D13*
X188000Y526000D02*
X188000Y534000D01*
X212000Y534000D02*
X212000Y526000D01*
D17*
X193000Y559000D03*
D18*
X193044Y559002D01*
X193087Y559008D01*
X193129Y559017D01*
X193171Y559030D01*
X193211Y559047D01*
X193250Y559067D01*
X193287Y559090D01*
X193321Y559117D01*
X193354Y559146D01*
X193383Y559179D01*
X193410Y559213D01*
X193433Y559250D01*
X193453Y559289D01*
X193470Y559329D01*
X193483Y559371D01*
X193492Y559413D01*
X193498Y559456D01*
X193500Y559500D01*
X193498Y559544D01*
X193492Y559587D01*
X193483Y559629D01*
X193470Y559671D01*
X193453Y559711D01*
X193433Y559750D01*
X193410Y559787D01*
X193383Y559821D01*
X193354Y559854D01*
X193321Y559883D01*
X193287Y559910D01*
X193250Y559933D01*
X193211Y559953D01*
X193171Y559970D01*
X193129Y559983D01*
X193087Y559992D01*
X193044Y559998D01*
X193000Y560000D01*
D17*
X193000Y560000D03*
D18*
X192956Y559998D01*
X192913Y559992D01*
X192871Y559983D01*
X192829Y559970D01*
X192789Y559953D01*
X192750Y559933D01*
X192713Y559910D01*
X192679Y559883D01*
X192646Y559854D01*
X192617Y559821D01*
X192590Y559787D01*
X192567Y559750D01*
X192547Y559711D01*
X192530Y559671D01*
X192517Y559629D01*
X192508Y559587D01*
X192502Y559544D01*
X192500Y559500D01*
X192502Y559456D01*
X192508Y559413D01*
X192517Y559371D01*
X192530Y559329D01*
X192547Y559289D01*
X192567Y559250D01*
X192590Y559213D01*
X192617Y559179D01*
X192646Y559146D01*
X192679Y559117D01*
X192713Y559090D01*
X192750Y559067D01*
X192789Y559047D01*
X192829Y559030D01*
X192871Y559017D01*
X192913Y559008D01*
X192956Y559002D01*
X193000Y559000D01*
D10*
X189362Y499753D02*
X189362Y492387D01*
X192636Y492387D01*
X195702Y492387D02*
X198976Y492387D01*
X195702Y492387D02*
X195702Y499753D01*
X198976Y499753D01*
X198158Y496479D02*
X195702Y496479D01*
X202026Y499753D02*
X202026Y492387D01*
X202026Y499753D02*
X204072Y499753D01*
X204161Y499751D01*
X204250Y499745D01*
X204339Y499735D01*
X204427Y499722D01*
X204515Y499705D01*
X204602Y499683D01*
X204687Y499658D01*
X204772Y499630D01*
X204855Y499597D01*
X204937Y499561D01*
X205017Y499522D01*
X205095Y499479D01*
X205171Y499433D01*
X205246Y499383D01*
X205318Y499330D01*
X205387Y499274D01*
X205454Y499215D01*
X205519Y499154D01*
X205580Y499089D01*
X205639Y499022D01*
X205695Y498953D01*
X205748Y498881D01*
X205798Y498806D01*
X205844Y498730D01*
X205887Y498652D01*
X205926Y498572D01*
X205962Y498490D01*
X205995Y498407D01*
X206023Y498322D01*
X206048Y498237D01*
X206070Y498150D01*
X206087Y498062D01*
X206100Y497974D01*
X206110Y497885D01*
X206116Y497796D01*
X206118Y497707D01*
X206119Y497707D02*
X206119Y494433D01*
X206118Y494433D02*
X206116Y494344D01*
X206110Y494255D01*
X206100Y494166D01*
X206087Y494078D01*
X206070Y493990D01*
X206048Y493903D01*
X206023Y493818D01*
X205995Y493733D01*
X205962Y493650D01*
X205926Y493568D01*
X205887Y493488D01*
X205844Y493410D01*
X205798Y493334D01*
X205748Y493259D01*
X205695Y493187D01*
X205639Y493118D01*
X205580Y493051D01*
X205519Y492986D01*
X205454Y492925D01*
X205387Y492866D01*
X205318Y492810D01*
X205246Y492757D01*
X205171Y492707D01*
X205095Y492661D01*
X205017Y492618D01*
X204937Y492579D01*
X204855Y492543D01*
X204772Y492510D01*
X204687Y492482D01*
X204602Y492457D01*
X204515Y492435D01*
X204427Y492418D01*
X204339Y492405D01*
X204250Y492395D01*
X204161Y492389D01*
X204072Y492387D01*
X202026Y492387D01*
X209585Y494024D02*
X211222Y499753D01*
X209585Y494024D02*
X213678Y494024D01*
X212450Y495661D02*
X212450Y492387D01*
D13*
X238000Y526000D02*
X238000Y534000D01*
X262000Y534000D02*
X262000Y526000D01*
D17*
X243000Y559000D03*
D18*
X243044Y559002D01*
X243087Y559008D01*
X243129Y559017D01*
X243171Y559030D01*
X243211Y559047D01*
X243250Y559067D01*
X243287Y559090D01*
X243321Y559117D01*
X243354Y559146D01*
X243383Y559179D01*
X243410Y559213D01*
X243433Y559250D01*
X243453Y559289D01*
X243470Y559329D01*
X243483Y559371D01*
X243492Y559413D01*
X243498Y559456D01*
X243500Y559500D01*
X243498Y559544D01*
X243492Y559587D01*
X243483Y559629D01*
X243470Y559671D01*
X243453Y559711D01*
X243433Y559750D01*
X243410Y559787D01*
X243383Y559821D01*
X243354Y559854D01*
X243321Y559883D01*
X243287Y559910D01*
X243250Y559933D01*
X243211Y559953D01*
X243171Y559970D01*
X243129Y559983D01*
X243087Y559992D01*
X243044Y559998D01*
X243000Y560000D01*
D17*
X243000Y560000D03*
D18*
X242956Y559998D01*
X242913Y559992D01*
X242871Y559983D01*
X242829Y559970D01*
X242789Y559953D01*
X242750Y559933D01*
X242713Y559910D01*
X242679Y559883D01*
X242646Y559854D01*
X242617Y559821D01*
X242590Y559787D01*
X242567Y559750D01*
X242547Y559711D01*
X242530Y559671D01*
X242517Y559629D01*
X242508Y559587D01*
X242502Y559544D01*
X242500Y559500D01*
X242502Y559456D01*
X242508Y559413D01*
X242517Y559371D01*
X242530Y559329D01*
X242547Y559289D01*
X242567Y559250D01*
X242590Y559213D01*
X242617Y559179D01*
X242646Y559146D01*
X242679Y559117D01*
X242713Y559090D01*
X242750Y559067D01*
X242789Y559047D01*
X242829Y559030D01*
X242871Y559017D01*
X242913Y559008D01*
X242956Y559002D01*
X243000Y559000D01*
D10*
X238892Y500223D02*
X238892Y492857D01*
X242166Y492857D01*
X245232Y492857D02*
X248506Y492857D01*
X245232Y492857D02*
X245232Y500223D01*
X248506Y500223D01*
X247688Y496949D02*
X245232Y496949D01*
X251556Y500223D02*
X251556Y492857D01*
X251556Y500223D02*
X253602Y500223D01*
X253691Y500221D01*
X253780Y500215D01*
X253869Y500205D01*
X253957Y500192D01*
X254045Y500175D01*
X254132Y500153D01*
X254217Y500128D01*
X254302Y500100D01*
X254385Y500067D01*
X254467Y500031D01*
X254547Y499992D01*
X254625Y499949D01*
X254701Y499903D01*
X254776Y499853D01*
X254848Y499800D01*
X254917Y499744D01*
X254984Y499685D01*
X255049Y499624D01*
X255110Y499559D01*
X255169Y499492D01*
X255225Y499423D01*
X255278Y499351D01*
X255328Y499276D01*
X255374Y499200D01*
X255417Y499122D01*
X255456Y499042D01*
X255492Y498960D01*
X255525Y498877D01*
X255553Y498792D01*
X255578Y498707D01*
X255600Y498620D01*
X255617Y498532D01*
X255630Y498444D01*
X255640Y498355D01*
X255646Y498266D01*
X255648Y498177D01*
X255649Y498177D02*
X255649Y494903D01*
X255648Y494903D02*
X255646Y494814D01*
X255640Y494725D01*
X255630Y494636D01*
X255617Y494548D01*
X255600Y494460D01*
X255578Y494373D01*
X255553Y494288D01*
X255525Y494203D01*
X255492Y494120D01*
X255456Y494038D01*
X255417Y493958D01*
X255374Y493880D01*
X255328Y493804D01*
X255278Y493729D01*
X255225Y493657D01*
X255169Y493588D01*
X255110Y493521D01*
X255049Y493456D01*
X254984Y493395D01*
X254917Y493336D01*
X254848Y493280D01*
X254776Y493227D01*
X254701Y493177D01*
X254625Y493131D01*
X254547Y493088D01*
X254467Y493049D01*
X254385Y493013D01*
X254302Y492980D01*
X254217Y492952D01*
X254132Y492927D01*
X254045Y492905D01*
X253957Y492888D01*
X253869Y492875D01*
X253780Y492865D01*
X253691Y492859D01*
X253602Y492857D01*
X251556Y492857D01*
X259115Y492857D02*
X261571Y492857D01*
X261649Y492859D01*
X261727Y492864D01*
X261804Y492874D01*
X261881Y492887D01*
X261957Y492903D01*
X262032Y492923D01*
X262106Y492947D01*
X262179Y492974D01*
X262251Y493005D01*
X262321Y493039D01*
X262390Y493076D01*
X262456Y493117D01*
X262521Y493161D01*
X262583Y493207D01*
X262643Y493257D01*
X262701Y493309D01*
X262756Y493364D01*
X262808Y493422D01*
X262858Y493482D01*
X262904Y493544D01*
X262948Y493609D01*
X262989Y493676D01*
X263026Y493744D01*
X263060Y493814D01*
X263091Y493886D01*
X263118Y493959D01*
X263142Y494033D01*
X263162Y494108D01*
X263178Y494184D01*
X263191Y494261D01*
X263201Y494338D01*
X263206Y494416D01*
X263208Y494494D01*
X263208Y495312D01*
X263206Y495390D01*
X263201Y495468D01*
X263191Y495545D01*
X263178Y495622D01*
X263162Y495698D01*
X263142Y495773D01*
X263118Y495847D01*
X263091Y495920D01*
X263060Y495992D01*
X263026Y496062D01*
X262989Y496131D01*
X262948Y496197D01*
X262904Y496262D01*
X262858Y496324D01*
X262808Y496384D01*
X262756Y496442D01*
X262701Y496497D01*
X262643Y496549D01*
X262583Y496599D01*
X262521Y496645D01*
X262456Y496689D01*
X262390Y496730D01*
X262321Y496767D01*
X262251Y496801D01*
X262179Y496832D01*
X262106Y496859D01*
X262032Y496883D01*
X261957Y496903D01*
X261881Y496919D01*
X261804Y496932D01*
X261727Y496942D01*
X261649Y496947D01*
X261571Y496949D01*
X259115Y496949D01*
X259115Y500223D01*
X263208Y500223D01*
D13*
X288000Y526000D02*
X288000Y534000D01*
X312000Y534000D02*
X312000Y526000D01*
D17*
X293000Y559000D03*
D18*
X293044Y559002D01*
X293087Y559008D01*
X293129Y559017D01*
X293171Y559030D01*
X293211Y559047D01*
X293250Y559067D01*
X293287Y559090D01*
X293321Y559117D01*
X293354Y559146D01*
X293383Y559179D01*
X293410Y559213D01*
X293433Y559250D01*
X293453Y559289D01*
X293470Y559329D01*
X293483Y559371D01*
X293492Y559413D01*
X293498Y559456D01*
X293500Y559500D01*
X293498Y559544D01*
X293492Y559587D01*
X293483Y559629D01*
X293470Y559671D01*
X293453Y559711D01*
X293433Y559750D01*
X293410Y559787D01*
X293383Y559821D01*
X293354Y559854D01*
X293321Y559883D01*
X293287Y559910D01*
X293250Y559933D01*
X293211Y559953D01*
X293171Y559970D01*
X293129Y559983D01*
X293087Y559992D01*
X293044Y559998D01*
X293000Y560000D01*
D17*
X293000Y560000D03*
D18*
X292956Y559998D01*
X292913Y559992D01*
X292871Y559983D01*
X292829Y559970D01*
X292789Y559953D01*
X292750Y559933D01*
X292713Y559910D01*
X292679Y559883D01*
X292646Y559854D01*
X292617Y559821D01*
X292590Y559787D01*
X292567Y559750D01*
X292547Y559711D01*
X292530Y559671D01*
X292517Y559629D01*
X292508Y559587D01*
X292502Y559544D01*
X292500Y559500D01*
X292502Y559456D01*
X292508Y559413D01*
X292517Y559371D01*
X292530Y559329D01*
X292547Y559289D01*
X292567Y559250D01*
X292590Y559213D01*
X292617Y559179D01*
X292646Y559146D01*
X292679Y559117D01*
X292713Y559090D01*
X292750Y559067D01*
X292789Y559047D01*
X292829Y559030D01*
X292871Y559017D01*
X292913Y559008D01*
X292956Y559002D01*
X293000Y559000D01*
D10*
X288422Y500693D02*
X288422Y493327D01*
X291696Y493327D01*
X294762Y493327D02*
X298036Y493327D01*
X294762Y493327D02*
X294762Y500693D01*
X298036Y500693D01*
X297218Y497419D02*
X294762Y497419D01*
X301086Y500693D02*
X301086Y493327D01*
X301086Y500693D02*
X303132Y500693D01*
X303221Y500691D01*
X303310Y500685D01*
X303399Y500675D01*
X303487Y500662D01*
X303575Y500645D01*
X303662Y500623D01*
X303747Y500598D01*
X303832Y500570D01*
X303915Y500537D01*
X303997Y500501D01*
X304077Y500462D01*
X304155Y500419D01*
X304231Y500373D01*
X304306Y500323D01*
X304378Y500270D01*
X304447Y500214D01*
X304514Y500155D01*
X304579Y500094D01*
X304640Y500029D01*
X304699Y499962D01*
X304755Y499893D01*
X304808Y499821D01*
X304858Y499746D01*
X304904Y499670D01*
X304947Y499592D01*
X304986Y499512D01*
X305022Y499430D01*
X305055Y499347D01*
X305083Y499262D01*
X305108Y499177D01*
X305130Y499090D01*
X305147Y499002D01*
X305160Y498914D01*
X305170Y498825D01*
X305176Y498736D01*
X305178Y498647D01*
X305179Y498647D02*
X305179Y495373D01*
X305178Y495373D02*
X305176Y495284D01*
X305170Y495195D01*
X305160Y495106D01*
X305147Y495018D01*
X305130Y494930D01*
X305108Y494843D01*
X305083Y494758D01*
X305055Y494673D01*
X305022Y494590D01*
X304986Y494508D01*
X304947Y494428D01*
X304904Y494350D01*
X304858Y494274D01*
X304808Y494199D01*
X304755Y494127D01*
X304699Y494058D01*
X304640Y493991D01*
X304579Y493926D01*
X304514Y493865D01*
X304447Y493806D01*
X304378Y493750D01*
X304306Y493697D01*
X304231Y493647D01*
X304155Y493601D01*
X304077Y493558D01*
X303997Y493519D01*
X303915Y493483D01*
X303832Y493450D01*
X303747Y493422D01*
X303662Y493397D01*
X303575Y493375D01*
X303487Y493358D01*
X303399Y493345D01*
X303310Y493335D01*
X303221Y493329D01*
X303132Y493327D01*
X301086Y493327D01*
X308645Y497419D02*
X311101Y497419D01*
X311179Y497417D01*
X311257Y497412D01*
X311334Y497402D01*
X311411Y497389D01*
X311487Y497373D01*
X311562Y497353D01*
X311636Y497329D01*
X311709Y497302D01*
X311781Y497271D01*
X311851Y497237D01*
X311920Y497200D01*
X311986Y497159D01*
X312051Y497115D01*
X312113Y497069D01*
X312173Y497019D01*
X312231Y496967D01*
X312286Y496912D01*
X312338Y496854D01*
X312388Y496794D01*
X312434Y496732D01*
X312478Y496667D01*
X312519Y496601D01*
X312556Y496532D01*
X312590Y496462D01*
X312621Y496390D01*
X312648Y496317D01*
X312672Y496243D01*
X312692Y496168D01*
X312708Y496092D01*
X312721Y496015D01*
X312731Y495938D01*
X312736Y495860D01*
X312738Y495782D01*
X312738Y495373D01*
X312737Y495373D02*
X312735Y495284D01*
X312729Y495195D01*
X312719Y495106D01*
X312706Y495018D01*
X312689Y494930D01*
X312667Y494843D01*
X312642Y494758D01*
X312614Y494673D01*
X312581Y494590D01*
X312545Y494508D01*
X312506Y494428D01*
X312463Y494350D01*
X312417Y494274D01*
X312367Y494199D01*
X312314Y494127D01*
X312258Y494058D01*
X312199Y493991D01*
X312138Y493926D01*
X312073Y493865D01*
X312006Y493806D01*
X311937Y493750D01*
X311865Y493697D01*
X311790Y493647D01*
X311714Y493601D01*
X311636Y493558D01*
X311556Y493519D01*
X311474Y493483D01*
X311391Y493450D01*
X311306Y493422D01*
X311221Y493397D01*
X311134Y493375D01*
X311046Y493358D01*
X310958Y493345D01*
X310869Y493335D01*
X310780Y493329D01*
X310691Y493327D01*
X310602Y493329D01*
X310513Y493335D01*
X310424Y493345D01*
X310336Y493358D01*
X310248Y493375D01*
X310161Y493397D01*
X310076Y493422D01*
X309991Y493450D01*
X309908Y493483D01*
X309826Y493519D01*
X309746Y493558D01*
X309668Y493601D01*
X309592Y493647D01*
X309517Y493697D01*
X309445Y493750D01*
X309376Y493806D01*
X309309Y493865D01*
X309244Y493926D01*
X309183Y493991D01*
X309124Y494058D01*
X309068Y494127D01*
X309015Y494199D01*
X308965Y494274D01*
X308919Y494350D01*
X308876Y494428D01*
X308837Y494508D01*
X308801Y494590D01*
X308768Y494673D01*
X308740Y494758D01*
X308715Y494843D01*
X308693Y494930D01*
X308676Y495018D01*
X308663Y495106D01*
X308653Y495195D01*
X308647Y495284D01*
X308645Y495373D01*
X308645Y497419D01*
X308647Y497533D01*
X308653Y497647D01*
X308663Y497761D01*
X308677Y497875D01*
X308695Y497988D01*
X308717Y498100D01*
X308742Y498211D01*
X308772Y498321D01*
X308805Y498431D01*
X308842Y498539D01*
X308883Y498645D01*
X308928Y498751D01*
X308976Y498854D01*
X309028Y498956D01*
X309084Y499056D01*
X309142Y499154D01*
X309205Y499250D01*
X309270Y499343D01*
X309339Y499435D01*
X309411Y499523D01*
X309486Y499610D01*
X309564Y499693D01*
X309645Y499774D01*
X309728Y499852D01*
X309815Y499927D01*
X309903Y499999D01*
X309995Y500068D01*
X310088Y500133D01*
X310184Y500195D01*
X310282Y500254D01*
X310382Y500310D01*
X310484Y500362D01*
X310587Y500410D01*
X310693Y500455D01*
X310799Y500496D01*
X310907Y500533D01*
X311017Y500566D01*
X311127Y500596D01*
X311238Y500621D01*
X311350Y500643D01*
X311463Y500661D01*
X311577Y500675D01*
X311691Y500685D01*
X311805Y500691D01*
X311919Y500693D01*
D13*
X338000Y526000D02*
X338000Y534000D01*
X362000Y534000D02*
X362000Y526000D01*
D17*
X343000Y559000D03*
D18*
X343044Y559002D01*
X343087Y559008D01*
X343129Y559017D01*
X343171Y559030D01*
X343211Y559047D01*
X343250Y559067D01*
X343287Y559090D01*
X343321Y559117D01*
X343354Y559146D01*
X343383Y559179D01*
X343410Y559213D01*
X343433Y559250D01*
X343453Y559289D01*
X343470Y559329D01*
X343483Y559371D01*
X343492Y559413D01*
X343498Y559456D01*
X343500Y559500D01*
X343498Y559544D01*
X343492Y559587D01*
X343483Y559629D01*
X343470Y559671D01*
X343453Y559711D01*
X343433Y559750D01*
X343410Y559787D01*
X343383Y559821D01*
X343354Y559854D01*
X343321Y559883D01*
X343287Y559910D01*
X343250Y559933D01*
X343211Y559953D01*
X343171Y559970D01*
X343129Y559983D01*
X343087Y559992D01*
X343044Y559998D01*
X343000Y560000D01*
D17*
X343000Y560000D03*
D18*
X342956Y559998D01*
X342913Y559992D01*
X342871Y559983D01*
X342829Y559970D01*
X342789Y559953D01*
X342750Y559933D01*
X342713Y559910D01*
X342679Y559883D01*
X342646Y559854D01*
X342617Y559821D01*
X342590Y559787D01*
X342567Y559750D01*
X342547Y559711D01*
X342530Y559671D01*
X342517Y559629D01*
X342508Y559587D01*
X342502Y559544D01*
X342500Y559500D01*
X342502Y559456D01*
X342508Y559413D01*
X342517Y559371D01*
X342530Y559329D01*
X342547Y559289D01*
X342567Y559250D01*
X342590Y559213D01*
X342617Y559179D01*
X342646Y559146D01*
X342679Y559117D01*
X342713Y559090D01*
X342750Y559067D01*
X342789Y559047D01*
X342829Y559030D01*
X342871Y559017D01*
X342913Y559008D01*
X342956Y559002D01*
X343000Y559000D01*
D10*
X339222Y499893D02*
X339222Y492527D01*
X342496Y492527D01*
X345562Y492527D02*
X348836Y492527D01*
X345562Y492527D02*
X345562Y499893D01*
X348836Y499893D01*
X348018Y496619D02*
X345562Y496619D01*
X351886Y499893D02*
X351886Y492527D01*
X351886Y499893D02*
X353932Y499893D01*
X354021Y499891D01*
X354110Y499885D01*
X354199Y499875D01*
X354287Y499862D01*
X354375Y499845D01*
X354462Y499823D01*
X354547Y499798D01*
X354632Y499770D01*
X354715Y499737D01*
X354797Y499701D01*
X354877Y499662D01*
X354955Y499619D01*
X355031Y499573D01*
X355106Y499523D01*
X355178Y499470D01*
X355247Y499414D01*
X355314Y499355D01*
X355379Y499294D01*
X355440Y499229D01*
X355499Y499162D01*
X355555Y499093D01*
X355608Y499021D01*
X355658Y498946D01*
X355704Y498870D01*
X355747Y498792D01*
X355786Y498712D01*
X355822Y498630D01*
X355855Y498547D01*
X355883Y498462D01*
X355908Y498377D01*
X355930Y498290D01*
X355947Y498202D01*
X355960Y498114D01*
X355970Y498025D01*
X355976Y497936D01*
X355978Y497847D01*
X355979Y497847D02*
X355979Y494573D01*
X355978Y494573D02*
X355976Y494484D01*
X355970Y494395D01*
X355960Y494306D01*
X355947Y494218D01*
X355930Y494130D01*
X355908Y494043D01*
X355883Y493958D01*
X355855Y493873D01*
X355822Y493790D01*
X355786Y493708D01*
X355747Y493628D01*
X355704Y493550D01*
X355658Y493474D01*
X355608Y493399D01*
X355555Y493327D01*
X355499Y493258D01*
X355440Y493191D01*
X355379Y493126D01*
X355314Y493065D01*
X355247Y493006D01*
X355178Y492950D01*
X355106Y492897D01*
X355031Y492847D01*
X354955Y492801D01*
X354877Y492758D01*
X354797Y492719D01*
X354715Y492683D01*
X354632Y492650D01*
X354547Y492622D01*
X354462Y492597D01*
X354375Y492575D01*
X354287Y492558D01*
X354199Y492545D01*
X354110Y492535D01*
X354021Y492529D01*
X353932Y492527D01*
X351886Y492527D01*
X359445Y499075D02*
X359445Y499893D01*
X363538Y499893D01*
X361491Y492527D01*
D13*
X239400Y191000D02*
X239400Y190000D01*
X239400Y191000D02*
X268600Y191000D01*
X268600Y190000D01*
X239400Y190000D01*
X239000Y186500D02*
X239000Y173500D01*
D14*
X251404Y219783D02*
X256596Y219783D01*
X251404Y219782D02*
X251291Y219784D01*
X251178Y219790D01*
X251065Y219800D01*
X250952Y219814D01*
X250840Y219831D01*
X250729Y219853D01*
X250619Y219878D01*
X250509Y219908D01*
X250401Y219941D01*
X250294Y219978D01*
X250188Y220018D01*
X250084Y220063D01*
X249981Y220111D01*
X249880Y220162D01*
X249781Y220217D01*
X249684Y220275D01*
X249589Y220337D01*
X249496Y220402D01*
X249406Y220470D01*
X249318Y220541D01*
X249232Y220616D01*
X249149Y220693D01*
X249069Y220773D01*
X248992Y220856D01*
X248917Y220942D01*
X248846Y221030D01*
X248778Y221120D01*
X248713Y221213D01*
X248651Y221308D01*
X248593Y221405D01*
X248538Y221504D01*
X248487Y221605D01*
X248439Y221708D01*
X248394Y221812D01*
X248354Y221918D01*
X248317Y222025D01*
X248284Y222133D01*
X248254Y222243D01*
X248229Y222353D01*
X248207Y222464D01*
X248190Y222576D01*
X248176Y222689D01*
X248166Y222802D01*
X248160Y222915D01*
X248158Y223028D01*
X248160Y223141D01*
X248166Y223254D01*
X248176Y223367D01*
X248190Y223480D01*
X248207Y223592D01*
X248229Y223703D01*
X248254Y223813D01*
X248284Y223923D01*
X248317Y224031D01*
X248354Y224138D01*
X248394Y224244D01*
X248439Y224348D01*
X248487Y224451D01*
X248538Y224552D01*
X248593Y224651D01*
X248651Y224748D01*
X248713Y224843D01*
X248778Y224936D01*
X248846Y225026D01*
X248917Y225114D01*
X248992Y225200D01*
X249069Y225283D01*
X249149Y225363D01*
X249232Y225440D01*
X249318Y225515D01*
X249406Y225586D01*
X249496Y225654D01*
X249589Y225719D01*
X249684Y225781D01*
X249781Y225839D01*
X249880Y225894D01*
X249981Y225945D01*
X250084Y225993D01*
X250188Y226038D01*
X250294Y226078D01*
X250401Y226115D01*
X250509Y226148D01*
X250619Y226178D01*
X250729Y226203D01*
X250840Y226225D01*
X250952Y226242D01*
X251065Y226256D01*
X251178Y226266D01*
X251291Y226272D01*
X251404Y226274D01*
X256596Y226274D01*
X256709Y226272D01*
X256822Y226266D01*
X256935Y226256D01*
X257048Y226242D01*
X257160Y226225D01*
X257271Y226203D01*
X257381Y226178D01*
X257491Y226148D01*
X257599Y226115D01*
X257706Y226078D01*
X257812Y226038D01*
X257916Y225993D01*
X258019Y225945D01*
X258120Y225894D01*
X258219Y225839D01*
X258316Y225781D01*
X258411Y225719D01*
X258504Y225654D01*
X258594Y225586D01*
X258682Y225515D01*
X258768Y225440D01*
X258851Y225363D01*
X258931Y225283D01*
X259008Y225200D01*
X259083Y225114D01*
X259154Y225026D01*
X259222Y224936D01*
X259287Y224843D01*
X259349Y224748D01*
X259407Y224651D01*
X259462Y224552D01*
X259513Y224451D01*
X259561Y224348D01*
X259606Y224244D01*
X259646Y224138D01*
X259683Y224031D01*
X259716Y223923D01*
X259746Y223813D01*
X259771Y223703D01*
X259793Y223592D01*
X259810Y223480D01*
X259824Y223367D01*
X259834Y223254D01*
X259840Y223141D01*
X259842Y223028D01*
X259840Y222915D01*
X259834Y222802D01*
X259824Y222689D01*
X259810Y222576D01*
X259793Y222464D01*
X259771Y222353D01*
X259746Y222243D01*
X259716Y222133D01*
X259683Y222025D01*
X259646Y221918D01*
X259606Y221812D01*
X259561Y221708D01*
X259513Y221605D01*
X259462Y221504D01*
X259407Y221405D01*
X259349Y221308D01*
X259287Y221213D01*
X259222Y221120D01*
X259154Y221030D01*
X259083Y220942D01*
X259008Y220856D01*
X258931Y220773D01*
X258851Y220693D01*
X258768Y220616D01*
X258682Y220541D01*
X258594Y220470D01*
X258504Y220402D01*
X258411Y220337D01*
X258316Y220275D01*
X258219Y220217D01*
X258120Y220162D01*
X258019Y220111D01*
X257916Y220063D01*
X257812Y220018D01*
X257706Y219978D01*
X257599Y219941D01*
X257491Y219908D01*
X257381Y219878D01*
X257271Y219853D01*
X257160Y219831D01*
X257048Y219814D01*
X256935Y219800D01*
X256822Y219790D01*
X256709Y219784D01*
X256596Y219782D01*
X257246Y224975D02*
X259842Y227572D01*
X250754Y230926D02*
X248158Y234172D01*
X259842Y234172D01*
X259842Y230926D02*
X259842Y237418D01*
D13*
X86840Y52600D02*
X83340Y52600D01*
X86840Y52600D02*
X86840Y23600D01*
X83340Y23600D01*
X83340Y52600D01*
X79840Y53200D02*
X68340Y53200D01*
D14*
X43253Y50856D02*
X43253Y45664D01*
X43252Y50856D02*
X43254Y50969D01*
X43260Y51082D01*
X43270Y51195D01*
X43284Y51308D01*
X43301Y51420D01*
X43323Y51531D01*
X43348Y51641D01*
X43378Y51751D01*
X43411Y51859D01*
X43448Y51966D01*
X43488Y52072D01*
X43533Y52176D01*
X43581Y52279D01*
X43632Y52380D01*
X43687Y52479D01*
X43745Y52576D01*
X43807Y52671D01*
X43872Y52764D01*
X43940Y52854D01*
X44011Y52942D01*
X44086Y53028D01*
X44163Y53111D01*
X44243Y53191D01*
X44326Y53268D01*
X44412Y53343D01*
X44500Y53414D01*
X44590Y53482D01*
X44683Y53547D01*
X44778Y53609D01*
X44875Y53667D01*
X44974Y53722D01*
X45075Y53773D01*
X45178Y53821D01*
X45282Y53866D01*
X45388Y53906D01*
X45495Y53943D01*
X45603Y53976D01*
X45713Y54006D01*
X45823Y54031D01*
X45934Y54053D01*
X46046Y54070D01*
X46159Y54084D01*
X46272Y54094D01*
X46385Y54100D01*
X46498Y54102D01*
X46611Y54100D01*
X46724Y54094D01*
X46837Y54084D01*
X46950Y54070D01*
X47062Y54053D01*
X47173Y54031D01*
X47283Y54006D01*
X47393Y53976D01*
X47501Y53943D01*
X47608Y53906D01*
X47714Y53866D01*
X47818Y53821D01*
X47921Y53773D01*
X48022Y53722D01*
X48121Y53667D01*
X48218Y53609D01*
X48313Y53547D01*
X48406Y53482D01*
X48496Y53414D01*
X48584Y53343D01*
X48670Y53268D01*
X48753Y53191D01*
X48833Y53111D01*
X48910Y53028D01*
X48985Y52942D01*
X49056Y52854D01*
X49124Y52764D01*
X49189Y52671D01*
X49251Y52576D01*
X49309Y52479D01*
X49364Y52380D01*
X49415Y52279D01*
X49463Y52176D01*
X49508Y52072D01*
X49548Y51966D01*
X49585Y51859D01*
X49618Y51751D01*
X49648Y51641D01*
X49673Y51531D01*
X49695Y51420D01*
X49712Y51308D01*
X49726Y51195D01*
X49736Y51082D01*
X49742Y50969D01*
X49744Y50856D01*
X49744Y45664D01*
X49742Y45551D01*
X49736Y45438D01*
X49726Y45325D01*
X49712Y45212D01*
X49695Y45100D01*
X49673Y44989D01*
X49648Y44879D01*
X49618Y44769D01*
X49585Y44661D01*
X49548Y44554D01*
X49508Y44448D01*
X49463Y44344D01*
X49415Y44241D01*
X49364Y44140D01*
X49309Y44041D01*
X49251Y43944D01*
X49189Y43849D01*
X49124Y43756D01*
X49056Y43666D01*
X48985Y43578D01*
X48910Y43492D01*
X48833Y43409D01*
X48753Y43329D01*
X48670Y43252D01*
X48584Y43177D01*
X48496Y43106D01*
X48406Y43038D01*
X48313Y42973D01*
X48218Y42911D01*
X48121Y42853D01*
X48022Y42798D01*
X47921Y42747D01*
X47818Y42699D01*
X47714Y42654D01*
X47608Y42614D01*
X47501Y42577D01*
X47393Y42544D01*
X47283Y42514D01*
X47173Y42489D01*
X47062Y42467D01*
X46950Y42450D01*
X46837Y42436D01*
X46724Y42426D01*
X46611Y42420D01*
X46498Y42418D01*
X46385Y42420D01*
X46272Y42426D01*
X46159Y42436D01*
X46046Y42450D01*
X45934Y42467D01*
X45823Y42489D01*
X45713Y42514D01*
X45603Y42544D01*
X45495Y42577D01*
X45388Y42614D01*
X45282Y42654D01*
X45178Y42699D01*
X45075Y42747D01*
X44974Y42798D01*
X44875Y42853D01*
X44778Y42911D01*
X44683Y42973D01*
X44590Y43038D01*
X44500Y43106D01*
X44412Y43177D01*
X44326Y43252D01*
X44243Y43329D01*
X44163Y43409D01*
X44086Y43492D01*
X44011Y43578D01*
X43940Y43666D01*
X43872Y43756D01*
X43807Y43849D01*
X43745Y43944D01*
X43687Y44041D01*
X43632Y44140D01*
X43581Y44241D01*
X43533Y44344D01*
X43488Y44448D01*
X43448Y44554D01*
X43411Y44661D01*
X43378Y44769D01*
X43348Y44879D01*
X43323Y44989D01*
X43301Y45100D01*
X43284Y45212D01*
X43270Y45325D01*
X43260Y45438D01*
X43254Y45551D01*
X43252Y45664D01*
X48445Y45014D02*
X51042Y42418D01*
X60888Y51181D02*
X60886Y51288D01*
X60880Y51394D01*
X60870Y51500D01*
X60857Y51606D01*
X60839Y51712D01*
X60818Y51816D01*
X60793Y51920D01*
X60764Y52023D01*
X60732Y52124D01*
X60695Y52224D01*
X60655Y52323D01*
X60612Y52421D01*
X60565Y52517D01*
X60514Y52611D01*
X60460Y52703D01*
X60403Y52793D01*
X60343Y52881D01*
X60279Y52966D01*
X60212Y53049D01*
X60142Y53130D01*
X60070Y53208D01*
X59994Y53284D01*
X59916Y53356D01*
X59835Y53426D01*
X59752Y53493D01*
X59667Y53557D01*
X59579Y53617D01*
X59489Y53674D01*
X59397Y53728D01*
X59303Y53779D01*
X59207Y53826D01*
X59109Y53869D01*
X59010Y53909D01*
X58910Y53946D01*
X58809Y53978D01*
X58706Y54007D01*
X58602Y54032D01*
X58498Y54053D01*
X58392Y54071D01*
X58286Y54084D01*
X58180Y54094D01*
X58074Y54100D01*
X57967Y54102D01*
X57846Y54100D01*
X57725Y54094D01*
X57605Y54084D01*
X57484Y54071D01*
X57365Y54053D01*
X57245Y54032D01*
X57127Y54007D01*
X57010Y53978D01*
X56893Y53945D01*
X56778Y53909D01*
X56664Y53868D01*
X56551Y53825D01*
X56439Y53777D01*
X56330Y53726D01*
X56222Y53671D01*
X56115Y53613D01*
X56011Y53552D01*
X55909Y53487D01*
X55809Y53419D01*
X55711Y53348D01*
X55615Y53274D01*
X55522Y53197D01*
X55432Y53116D01*
X55344Y53033D01*
X55259Y52947D01*
X55176Y52858D01*
X55097Y52767D01*
X55020Y52673D01*
X54947Y52577D01*
X54877Y52479D01*
X54810Y52378D01*
X54746Y52275D01*
X54686Y52170D01*
X54629Y52063D01*
X54575Y51955D01*
X54525Y51845D01*
X54479Y51733D01*
X54436Y51620D01*
X54397Y51505D01*
X59914Y48909D02*
X59993Y48986D01*
X60069Y49067D01*
X60142Y49150D01*
X60212Y49235D01*
X60279Y49323D01*
X60343Y49413D01*
X60403Y49505D01*
X60460Y49600D01*
X60514Y49696D01*
X60565Y49794D01*
X60612Y49894D01*
X60656Y49996D01*
X60696Y50099D01*
X60732Y50203D01*
X60764Y50309D01*
X60793Y50415D01*
X60818Y50523D01*
X60840Y50631D01*
X60857Y50741D01*
X60871Y50850D01*
X60880Y50960D01*
X60886Y51071D01*
X60888Y51181D01*
X59914Y48909D02*
X54396Y42418D01*
X60888Y42418D01*
M02*
