G04 EAGLE Gerber RS-274X export*
G75*
%MOMM*%
%FSLAX34Y34*%
%LPD*%
%INSoldermask Bottom*%
%IPPOS*%
%AMOC8*
5,1,8,0,0,1.08239X$1,22.5*%
G01*
%ADD10C,2.203200*%
%ADD11C,2.082800*%
%ADD12P,2.199416X8X292.500000*%
%ADD13P,2.199416X8X112.500000*%
%ADD14R,7.303200X8.653200*%
%ADD15R,7.239000X8.255000*%
%ADD16P,1.951982X8X202.500000*%
%ADD17C,1.803400*%
%ADD18C,1.061200*%


D10*
X370000Y640000D03*
X30000Y640000D03*
X30000Y30000D03*
X370000Y30000D03*
D11*
X50800Y393700D03*
X50800Y368300D03*
D12*
X329900Y161700D03*
X355300Y161700D03*
X329900Y136300D03*
X355300Y136300D03*
X329900Y110900D03*
X355300Y110900D03*
X329900Y85500D03*
X355300Y85500D03*
D13*
X69500Y85500D03*
X44100Y85500D03*
X69500Y110900D03*
X44100Y110900D03*
X69500Y136300D03*
X44100Y136300D03*
X69500Y161700D03*
X44100Y161700D03*
D14*
X255000Y56250D03*
X145000Y56250D03*
D10*
X304500Y100500D03*
D15*
X255245Y615035D03*
X144755Y615035D03*
D11*
X341300Y293200D03*
X341300Y318600D03*
X341300Y344000D03*
X341300Y369400D03*
X341300Y394800D03*
D16*
X38100Y210820D03*
D17*
X63500Y210820D03*
D18*
X307518Y294310D03*
X288600Y372910D03*
X131390Y212810D03*
X178110Y312400D03*
X323360Y489750D03*
X271780Y161290D03*
X234950Y368300D03*
X101600Y482600D03*
X50800Y482600D03*
X76200Y63500D03*
X328400Y631468D03*
X329240Y584360D03*
X305920Y626388D03*
X317650Y603870D03*
X97790Y60960D03*
X288290Y476250D03*
X46990Y571500D03*
X184150Y484096D03*
X119380Y529590D03*
X212395Y476555D03*
X127000Y546100D03*
X237490Y476250D03*
X177800Y546100D03*
X254000Y490220D03*
X228600Y546100D03*
X266700Y495300D03*
X279400Y546100D03*
X88900Y571500D03*
X63500Y571500D03*
X165100Y266700D03*
X241300Y219710D03*
M02*
