G04 EAGLE Gerber RS-274X export*
G75*
%MOMM*%
%FSLAX34Y34*%
%LPD*%
%INSoldermask Top*%
%IPPOS*%
%AMOC8*
5,1,8,0,0,1.08239X$1,22.5*%
G01*
%ADD10C,2.203200*%
%ADD11C,2.082800*%
%ADD12R,1.503200X1.703200*%
%ADD13R,0.903200X2.253200*%
%ADD14R,1.703200X1.503200*%
%ADD15P,2.199416X8X292.500000*%
%ADD16P,2.199416X8X112.500000*%
%ADD17R,2.503200X1.803200*%
%ADD18R,2.453200X2.453200*%
%ADD19R,2.250000X2.250000*%
%ADD20R,1.103200X1.003200*%
%ADD21P,1.951982X8X202.500000*%
%ADD22C,1.803400*%
%ADD23R,1.003200X1.803200*%
%ADD24C,1.061200*%


D10*
X370000Y640000D03*
X30000Y640000D03*
X30000Y30000D03*
X370000Y30000D03*
D11*
X50800Y393700D03*
X50800Y368300D03*
D12*
X178400Y207490D03*
X159400Y207490D03*
D13*
X282250Y336840D03*
X269550Y336840D03*
X256850Y336840D03*
X244150Y336840D03*
X231450Y336840D03*
X218750Y336840D03*
X206050Y336840D03*
X193350Y336840D03*
X180650Y336840D03*
X167950Y336840D03*
X155250Y336840D03*
X142550Y336840D03*
X129850Y336840D03*
X117150Y336840D03*
X117150Y241340D03*
X129850Y241340D03*
X142550Y241340D03*
X155250Y241340D03*
X167950Y241340D03*
X180650Y241340D03*
X193350Y241340D03*
X206050Y241340D03*
X218750Y241340D03*
X231450Y241340D03*
X244150Y241340D03*
X256850Y241340D03*
X269550Y241340D03*
X282250Y241340D03*
D14*
X87940Y234970D03*
X87940Y253970D03*
X250660Y445160D03*
X250660Y464160D03*
X225260Y445160D03*
X225260Y464160D03*
X201130Y445160D03*
X201130Y464160D03*
X174460Y445160D03*
X174460Y464160D03*
X149060Y445160D03*
X149060Y464160D03*
X123660Y444652D03*
X123660Y463652D03*
X123660Y614020D03*
X123660Y595020D03*
X149060Y614020D03*
X149060Y595020D03*
X174460Y614020D03*
X174460Y595020D03*
X199540Y614180D03*
X199540Y595180D03*
X224940Y614180D03*
X224940Y595180D03*
X250340Y614180D03*
X250340Y595180D03*
X275740Y614180D03*
X275740Y595180D03*
X276060Y445160D03*
X276060Y464160D03*
D15*
X329900Y161700D03*
X355300Y161700D03*
X329900Y136300D03*
X355300Y136300D03*
X329900Y110900D03*
X355300Y110900D03*
X329900Y85500D03*
X355300Y85500D03*
D16*
X69500Y85500D03*
X44100Y85500D03*
X69500Y110900D03*
X44100Y110900D03*
X69500Y136300D03*
X44100Y136300D03*
X69500Y161700D03*
X44100Y161700D03*
D17*
X230690Y385680D03*
X167690Y385680D03*
D10*
X304500Y100500D03*
D11*
X341300Y293200D03*
X341300Y318600D03*
X341300Y344000D03*
X341300Y369400D03*
X341300Y394800D03*
D18*
X240000Y69360D03*
X240000Y149360D03*
D19*
X160000Y149360D03*
X160000Y69360D03*
D20*
X80640Y27080D03*
X80640Y50080D03*
D21*
X38100Y210820D03*
D22*
X63500Y210820D03*
D23*
X43000Y546000D03*
X43000Y514000D03*
X57000Y546000D03*
X57000Y514000D03*
X93000Y546000D03*
X93000Y514000D03*
X107000Y546000D03*
X107000Y514000D03*
X143000Y546000D03*
X143000Y514000D03*
X157000Y546000D03*
X157000Y514000D03*
X193000Y546000D03*
X193000Y514000D03*
X207000Y546000D03*
X207000Y514000D03*
X243000Y546000D03*
X243000Y514000D03*
X257000Y546000D03*
X257000Y514000D03*
X293000Y546000D03*
X293000Y514000D03*
X307000Y546000D03*
X307000Y514000D03*
X343000Y546000D03*
X343000Y514000D03*
X357000Y546000D03*
X357000Y514000D03*
D24*
X307518Y294310D03*
X288600Y372910D03*
X131390Y212810D03*
X178110Y312400D03*
X323360Y489750D03*
X266700Y165100D03*
X234950Y368300D03*
X101600Y482600D03*
X50800Y482600D03*
X328400Y631468D03*
X329240Y584360D03*
X305920Y626388D03*
X317650Y603870D03*
X160020Y264160D03*
X246380Y213360D03*
X97790Y60960D03*
X288290Y476250D03*
X46990Y571500D03*
X184150Y484096D03*
X119380Y529590D03*
X212395Y476555D03*
X127000Y546100D03*
X237490Y476250D03*
X177800Y546100D03*
X254000Y490220D03*
X228600Y546100D03*
X266700Y495300D03*
X279400Y546100D03*
X88900Y571500D03*
X63500Y571500D03*
M02*
