G04 EAGLE Gerber RS-274X export*
G75*
%MOMM*%
%FSLAX34Y34*%
%LPD*%
%INSolderpaste Top*%
%IPPOS*%
%AMOC8*
5,1,8,0,0,1.08239X$1,22.5*%
G01*
%ADD10R,1.300000X1.500000*%
%ADD11R,0.700000X2.050000*%
%ADD12R,1.500000X1.300000*%
%ADD13R,2.300000X1.600000*%
%ADD14R,2.250000X2.250000*%
%ADD15R,0.800000X1.600000*%
%ADD16R,0.600000X1.300000*%
%ADD17R,1.150000X0.600000*%


D10*
X178400Y207490D03*
X159400Y207490D03*
D11*
X282250Y336840D03*
X269550Y336840D03*
X256850Y336840D03*
X244150Y336840D03*
X231450Y336840D03*
X218750Y336840D03*
X206050Y336840D03*
X193350Y336840D03*
X180650Y336840D03*
X167950Y336840D03*
X155250Y336840D03*
X142550Y336840D03*
X129850Y336840D03*
X117150Y336840D03*
X117150Y241340D03*
X129850Y241340D03*
X142550Y241340D03*
X155250Y241340D03*
X167950Y241340D03*
X180650Y241340D03*
X193350Y241340D03*
X206050Y241340D03*
X218750Y241340D03*
X231450Y241340D03*
X244150Y241340D03*
X256850Y241340D03*
X269550Y241340D03*
X282250Y241340D03*
D12*
X87940Y234970D03*
X87940Y253970D03*
X250660Y445160D03*
X250660Y464160D03*
X225260Y445160D03*
X225260Y464160D03*
X201130Y445160D03*
X201130Y464160D03*
X174460Y445160D03*
X174460Y464160D03*
X149060Y445160D03*
X149060Y464160D03*
X123660Y444652D03*
X123660Y463652D03*
X123660Y614020D03*
X123660Y595020D03*
X149060Y614020D03*
X149060Y595020D03*
X174460Y614020D03*
X174460Y595020D03*
X199540Y614180D03*
X199540Y595180D03*
X224940Y614180D03*
X224940Y595180D03*
X250340Y614180D03*
X250340Y595180D03*
X275740Y614180D03*
X275740Y595180D03*
X276060Y445160D03*
X276060Y464160D03*
D13*
X230690Y385680D03*
X167690Y385680D03*
D14*
X240000Y83360D03*
X240000Y163360D03*
X160000Y83360D03*
X160000Y163360D03*
D15*
X43000Y546000D03*
X43000Y514000D03*
X57000Y546000D03*
X57000Y514000D03*
X93000Y546000D03*
X93000Y514000D03*
X107000Y546000D03*
X107000Y514000D03*
X143000Y546000D03*
X143000Y514000D03*
X157000Y546000D03*
X157000Y514000D03*
X193000Y546000D03*
X193000Y514000D03*
X207000Y546000D03*
X207000Y514000D03*
X243000Y546000D03*
X243000Y514000D03*
X257000Y546000D03*
X257000Y514000D03*
X293000Y546000D03*
X293000Y514000D03*
X307000Y546000D03*
X307000Y514000D03*
X343000Y546000D03*
X343000Y514000D03*
X357000Y546000D03*
X357000Y514000D03*
D16*
X242500Y189000D03*
X261500Y189000D03*
X252000Y210000D03*
D17*
X114090Y47700D03*
X114090Y28500D03*
X136090Y38100D03*
M02*
