G04 EAGLE Gerber RS-274X export*
G75*
%MOMM*%
%FSLAX34Y34*%
%LPD*%
%INBottom Copper*%
%IPPOS*%
%AMOC8*
5,1,8,0,0,1.08239X$1,22.5*%
G01*
%ADD10P,1.979475X8X292.500000*%
%ADD11P,1.979475X8X112.500000*%
%ADD12R,7.100000X8.450000*%
%ADD13P,1.732040X8X202.500000*%
%ADD14C,1.600200*%
%ADD15C,1.879600*%
%ADD16C,0.858000*%
%ADD17C,0.406400*%
%ADD18C,0.304800*%
%ADD19C,0.203200*%

G36*
X350044Y2007D02*
X350044Y2007D01*
X350080Y2004D01*
X354301Y2336D01*
X354459Y2371D01*
X354535Y2383D01*
X362564Y4992D01*
X362820Y5116D01*
X362833Y5129D01*
X362847Y5136D01*
X369677Y10098D01*
X369882Y10296D01*
X369891Y10312D01*
X369902Y10323D01*
X374864Y17153D01*
X374907Y17234D01*
X374958Y17311D01*
X374974Y17359D01*
X374998Y17404D01*
X375001Y17422D01*
X375009Y17436D01*
X377617Y25465D01*
X377645Y25625D01*
X377664Y25699D01*
X377996Y29920D01*
X377993Y29965D01*
X377999Y30000D01*
X377999Y660000D01*
X377993Y660044D01*
X377996Y660080D01*
X377664Y664301D01*
X377629Y664459D01*
X377617Y664535D01*
X375008Y672564D01*
X374884Y672820D01*
X374871Y672833D01*
X374864Y672847D01*
X369902Y679677D01*
X369704Y679882D01*
X369688Y679891D01*
X369677Y679902D01*
X362847Y684864D01*
X362596Y684998D01*
X362578Y685001D01*
X362564Y685008D01*
X354535Y687617D01*
X354375Y687645D01*
X354301Y687664D01*
X350080Y687996D01*
X350035Y687993D01*
X350000Y687999D01*
X30000Y687999D01*
X29956Y687993D01*
X29920Y687996D01*
X25699Y687664D01*
X25541Y687629D01*
X25465Y687617D01*
X17436Y685008D01*
X17180Y684884D01*
X17167Y684871D01*
X17153Y684864D01*
X10323Y679902D01*
X10118Y679704D01*
X10109Y679688D01*
X10098Y679677D01*
X5136Y672847D01*
X5002Y672596D01*
X4999Y672578D01*
X4992Y672564D01*
X2383Y664535D01*
X2355Y664375D01*
X2336Y664301D01*
X2004Y660080D01*
X2007Y660035D01*
X2001Y660000D01*
X2001Y30000D01*
X2007Y29956D01*
X2004Y29920D01*
X2336Y25699D01*
X2371Y25541D01*
X2383Y25465D01*
X4992Y17436D01*
X5116Y17180D01*
X5129Y17167D01*
X5136Y17153D01*
X10098Y10323D01*
X10296Y10118D01*
X10312Y10109D01*
X10323Y10098D01*
X17153Y5136D01*
X17404Y5002D01*
X17422Y4999D01*
X17436Y4992D01*
X25465Y2383D01*
X25625Y2355D01*
X25699Y2336D01*
X29920Y2004D01*
X29965Y2007D01*
X30000Y2001D01*
X350000Y2001D01*
X350044Y2007D01*
G37*
%LPC*%
G36*
X99605Y580740D02*
X99605Y580740D01*
X98340Y582005D01*
X98340Y663795D01*
X99605Y665060D01*
X171395Y665060D01*
X172660Y663795D01*
X172660Y636075D01*
X172668Y636017D01*
X172666Y635959D01*
X172688Y635877D01*
X172700Y635793D01*
X172723Y635740D01*
X172738Y635684D01*
X172781Y635611D01*
X172816Y635534D01*
X172854Y635489D01*
X172883Y635439D01*
X172945Y635381D01*
X172999Y635317D01*
X173048Y635285D01*
X173091Y635245D01*
X173166Y635206D01*
X173236Y635159D01*
X173292Y635142D01*
X173344Y635115D01*
X173412Y635104D01*
X173507Y635074D01*
X173607Y635071D01*
X173675Y635060D01*
X207325Y635060D01*
X207383Y635068D01*
X207441Y635066D01*
X207523Y635088D01*
X207607Y635100D01*
X207660Y635123D01*
X207716Y635138D01*
X207789Y635181D01*
X207866Y635216D01*
X207911Y635254D01*
X207961Y635283D01*
X208019Y635345D01*
X208083Y635399D01*
X208115Y635448D01*
X208155Y635491D01*
X208194Y635566D01*
X208241Y635636D01*
X208258Y635692D01*
X208285Y635744D01*
X208296Y635812D01*
X208326Y635907D01*
X208329Y636007D01*
X208340Y636075D01*
X208340Y663795D01*
X209605Y665060D01*
X281395Y665060D01*
X282660Y663795D01*
X282660Y582005D01*
X281395Y580740D01*
X209605Y580740D01*
X208340Y582005D01*
X208340Y609725D01*
X208332Y609783D01*
X208334Y609841D01*
X208312Y609923D01*
X208300Y610007D01*
X208277Y610060D01*
X208262Y610116D01*
X208219Y610189D01*
X208184Y610266D01*
X208146Y610311D01*
X208117Y610361D01*
X208055Y610419D01*
X208001Y610483D01*
X207952Y610515D01*
X207909Y610555D01*
X207834Y610594D01*
X207764Y610641D01*
X207708Y610658D01*
X207656Y610685D01*
X207588Y610696D01*
X207493Y610726D01*
X207393Y610729D01*
X207325Y610740D01*
X173675Y610740D01*
X173617Y610732D01*
X173559Y610734D01*
X173477Y610712D01*
X173393Y610700D01*
X173340Y610677D01*
X173284Y610662D01*
X173211Y610619D01*
X173134Y610584D01*
X173089Y610546D01*
X173039Y610517D01*
X172981Y610455D01*
X172917Y610401D01*
X172885Y610352D01*
X172845Y610309D01*
X172806Y610234D01*
X172759Y610164D01*
X172742Y610108D01*
X172715Y610056D01*
X172704Y609988D01*
X172674Y609893D01*
X172671Y609793D01*
X172660Y609725D01*
X172660Y582005D01*
X171395Y580740D01*
X99605Y580740D01*
G37*
%LPD*%
G36*
X170565Y582277D02*
X170565Y582277D01*
X170631Y582279D01*
X170674Y582297D01*
X170721Y582305D01*
X170778Y582339D01*
X170838Y582364D01*
X170873Y582395D01*
X170914Y582420D01*
X170956Y582471D01*
X171004Y582515D01*
X171026Y582557D01*
X171055Y582594D01*
X171076Y582656D01*
X171107Y582715D01*
X171115Y582769D01*
X171127Y582806D01*
X171126Y582846D01*
X171134Y582900D01*
X171134Y612266D01*
X209866Y612266D01*
X209866Y582900D01*
X209877Y582835D01*
X209879Y582769D01*
X209897Y582726D01*
X209905Y582679D01*
X209939Y582622D01*
X209964Y582562D01*
X209995Y582527D01*
X210020Y582486D01*
X210071Y582445D01*
X210115Y582396D01*
X210157Y582374D01*
X210194Y582345D01*
X210256Y582324D01*
X210315Y582293D01*
X210369Y582285D01*
X210406Y582273D01*
X210446Y582274D01*
X210500Y582266D01*
X280500Y582266D01*
X280565Y582277D01*
X280631Y582279D01*
X280674Y582297D01*
X280721Y582305D01*
X280778Y582339D01*
X280838Y582364D01*
X280873Y582395D01*
X280914Y582420D01*
X280956Y582471D01*
X281004Y582515D01*
X281026Y582557D01*
X281055Y582594D01*
X281076Y582656D01*
X281107Y582715D01*
X281115Y582769D01*
X281127Y582806D01*
X281126Y582846D01*
X281134Y582900D01*
X281134Y662900D01*
X281123Y662965D01*
X281121Y663031D01*
X281103Y663074D01*
X281095Y663121D01*
X281061Y663178D01*
X281036Y663238D01*
X281005Y663273D01*
X280980Y663314D01*
X280929Y663356D01*
X280885Y663404D01*
X280843Y663426D01*
X280806Y663455D01*
X280744Y663476D01*
X280685Y663507D01*
X280631Y663515D01*
X280594Y663527D01*
X280554Y663526D01*
X280500Y663534D01*
X210500Y663534D01*
X210435Y663523D01*
X210369Y663521D01*
X210326Y663503D01*
X210279Y663495D01*
X210222Y663461D01*
X210162Y663436D01*
X210127Y663405D01*
X210086Y663380D01*
X210045Y663329D01*
X209996Y663285D01*
X209974Y663243D01*
X209945Y663206D01*
X209924Y663144D01*
X209893Y663085D01*
X209885Y663031D01*
X209873Y662994D01*
X209874Y662954D01*
X209866Y662900D01*
X209866Y633534D01*
X171134Y633534D01*
X171134Y662900D01*
X171123Y662965D01*
X171121Y663031D01*
X171103Y663074D01*
X171095Y663121D01*
X171061Y663178D01*
X171036Y663238D01*
X171005Y663273D01*
X170980Y663314D01*
X170929Y663356D01*
X170885Y663404D01*
X170843Y663426D01*
X170806Y663455D01*
X170744Y663476D01*
X170685Y663507D01*
X170631Y663515D01*
X170594Y663527D01*
X170554Y663526D01*
X170500Y663534D01*
X100500Y663534D01*
X100435Y663523D01*
X100369Y663521D01*
X100326Y663503D01*
X100279Y663495D01*
X100222Y663461D01*
X100162Y663436D01*
X100127Y663405D01*
X100086Y663380D01*
X100045Y663329D01*
X99996Y663285D01*
X99974Y663243D01*
X99945Y663206D01*
X99924Y663144D01*
X99893Y663085D01*
X99885Y663031D01*
X99873Y662994D01*
X99874Y662954D01*
X99866Y662900D01*
X99866Y582900D01*
X99877Y582835D01*
X99879Y582769D01*
X99897Y582726D01*
X99905Y582679D01*
X99939Y582622D01*
X99964Y582562D01*
X99995Y582527D01*
X100020Y582486D01*
X100071Y582445D01*
X100115Y582396D01*
X100157Y582374D01*
X100194Y582345D01*
X100256Y582324D01*
X100315Y582293D01*
X100369Y582285D01*
X100406Y582273D01*
X100446Y582274D01*
X100500Y582266D01*
X170500Y582266D01*
X170565Y582277D01*
G37*
%LPC*%
G36*
X99368Y20375D02*
X99368Y20375D01*
X98475Y21268D01*
X98475Y107032D01*
X98534Y107090D01*
X98569Y107137D01*
X98612Y107177D01*
X98654Y107250D01*
X98705Y107317D01*
X98726Y107372D01*
X98755Y107423D01*
X98776Y107504D01*
X98806Y107583D01*
X98811Y107641D01*
X98825Y107698D01*
X98823Y107782D01*
X98830Y107866D01*
X98818Y107924D01*
X98816Y107982D01*
X98790Y108062D01*
X98774Y108145D01*
X98747Y108197D01*
X98729Y108253D01*
X98689Y108309D01*
X98643Y108397D01*
X98574Y108470D01*
X98534Y108526D01*
X88994Y118066D01*
X88924Y118118D01*
X88860Y118178D01*
X88811Y118204D01*
X88767Y118237D01*
X88685Y118268D01*
X88607Y118308D01*
X88560Y118316D01*
X88501Y118338D01*
X88354Y118350D01*
X88276Y118363D01*
X82724Y118363D01*
X82637Y118351D01*
X82550Y118348D01*
X82497Y118331D01*
X82442Y118323D01*
X82363Y118288D01*
X82279Y118261D01*
X82240Y118233D01*
X82183Y118207D01*
X82070Y118111D01*
X82006Y118066D01*
X80069Y116129D01*
X77559Y115089D01*
X74841Y115089D01*
X72331Y116129D01*
X70409Y118051D01*
X69369Y120561D01*
X69369Y123279D01*
X70409Y125789D01*
X72331Y127711D01*
X74841Y128751D01*
X77559Y128751D01*
X80069Y127711D01*
X82006Y125774D01*
X82076Y125722D01*
X82140Y125662D01*
X82189Y125636D01*
X82233Y125603D01*
X82315Y125572D01*
X82393Y125532D01*
X82440Y125524D01*
X82499Y125502D01*
X82647Y125490D01*
X82724Y125477D01*
X91643Y125477D01*
X108898Y108222D01*
X108968Y108170D01*
X109032Y108110D01*
X109081Y108084D01*
X109125Y108051D01*
X109207Y108020D01*
X109285Y107980D01*
X109332Y107972D01*
X109391Y107950D01*
X109538Y107938D01*
X109616Y107925D01*
X171632Y107925D01*
X172525Y107032D01*
X172525Y21268D01*
X171632Y20375D01*
X99368Y20375D01*
G37*
%LPD*%
%LPC*%
G36*
X325781Y129031D02*
X325781Y129031D01*
X319531Y135281D01*
X319531Y144119D01*
X321412Y145999D01*
X321447Y146046D01*
X321489Y146086D01*
X321532Y146159D01*
X321583Y146227D01*
X321603Y146281D01*
X321633Y146332D01*
X321654Y146413D01*
X321684Y146492D01*
X321689Y146551D01*
X321703Y146607D01*
X321700Y146692D01*
X321707Y146776D01*
X321696Y146833D01*
X321694Y146891D01*
X321668Y146972D01*
X321651Y147054D01*
X321624Y147106D01*
X321606Y147162D01*
X321566Y147218D01*
X321520Y147307D01*
X321452Y147379D01*
X321412Y147435D01*
X275589Y193258D01*
X275589Y291897D01*
X275577Y291984D01*
X275574Y292071D01*
X275557Y292124D01*
X275549Y292179D01*
X275514Y292258D01*
X275487Y292342D01*
X275459Y292381D01*
X275433Y292438D01*
X275337Y292551D01*
X275292Y292615D01*
X205739Y362168D01*
X205739Y363821D01*
X205739Y363822D01*
X205739Y363824D01*
X205719Y363964D01*
X205699Y364102D01*
X205699Y364103D01*
X205699Y364105D01*
X205640Y364235D01*
X205583Y364361D01*
X205582Y364363D01*
X205581Y364364D01*
X205494Y364467D01*
X205400Y364578D01*
X205398Y364579D01*
X205397Y364581D01*
X205385Y364588D01*
X205163Y364736D01*
X205134Y364745D01*
X205113Y364758D01*
X204411Y365049D01*
X202489Y366971D01*
X201449Y369481D01*
X201449Y372199D01*
X202489Y374709D01*
X204411Y376631D01*
X206921Y377671D01*
X209639Y377671D01*
X212149Y376631D01*
X214071Y374709D01*
X215111Y372199D01*
X215111Y370732D01*
X215115Y370703D01*
X215112Y370674D01*
X215135Y370563D01*
X215151Y370450D01*
X215163Y370424D01*
X215168Y370395D01*
X215220Y370294D01*
X215267Y370191D01*
X215286Y370169D01*
X215299Y370143D01*
X215377Y370060D01*
X215450Y369974D01*
X215475Y369958D01*
X215495Y369936D01*
X215593Y369879D01*
X215687Y369816D01*
X215715Y369808D01*
X215740Y369793D01*
X215850Y369765D01*
X215958Y369731D01*
X215987Y369730D01*
X216016Y369723D01*
X216129Y369726D01*
X216242Y369723D01*
X216271Y369731D01*
X216300Y369732D01*
X216408Y369767D01*
X216517Y369795D01*
X216543Y369810D01*
X216571Y369819D01*
X216635Y369865D01*
X216762Y369940D01*
X216805Y369986D01*
X216844Y370014D01*
X217111Y370281D01*
X219621Y371321D01*
X222339Y371321D01*
X224401Y370466D01*
X224513Y370438D01*
X224622Y370403D01*
X224650Y370402D01*
X224677Y370395D01*
X224791Y370399D01*
X224906Y370396D01*
X224933Y370403D01*
X224961Y370404D01*
X225070Y370439D01*
X225181Y370468D01*
X225205Y370482D01*
X225232Y370490D01*
X225327Y370554D01*
X225426Y370613D01*
X225445Y370633D01*
X225468Y370648D01*
X225542Y370736D01*
X225620Y370820D01*
X225633Y370845D01*
X225651Y370866D01*
X225697Y370971D01*
X225750Y371073D01*
X225754Y371098D01*
X225766Y371126D01*
X225803Y371390D01*
X225805Y371404D01*
X225805Y372459D01*
X226845Y374969D01*
X228767Y376891D01*
X231277Y377931D01*
X233995Y377931D01*
X236505Y376891D01*
X238427Y374969D01*
X239467Y372459D01*
X239467Y369741D01*
X238427Y367231D01*
X236505Y365309D01*
X235803Y365019D01*
X235802Y365018D01*
X235801Y365017D01*
X235684Y364948D01*
X235559Y364874D01*
X235557Y364873D01*
X235556Y364872D01*
X235461Y364771D01*
X235363Y364667D01*
X235363Y364666D01*
X235362Y364665D01*
X235297Y364539D01*
X235233Y364415D01*
X235233Y364413D01*
X235232Y364412D01*
X235230Y364397D01*
X235178Y364136D01*
X235181Y364105D01*
X235177Y364081D01*
X235177Y357333D01*
X235185Y357276D01*
X235183Y357222D01*
X235191Y357194D01*
X235192Y357159D01*
X235209Y357106D01*
X235217Y357052D01*
X235244Y356991D01*
X235255Y356947D01*
X235267Y356928D01*
X235279Y356888D01*
X235307Y356849D01*
X235333Y356792D01*
X235381Y356735D01*
X235400Y356702D01*
X235435Y356670D01*
X235474Y356615D01*
X293145Y298945D01*
X293145Y219203D01*
X293152Y219155D01*
X293151Y219148D01*
X293154Y219139D01*
X293157Y219116D01*
X293160Y219029D01*
X293177Y218976D01*
X293185Y218922D01*
X293220Y218842D01*
X293247Y218758D01*
X293275Y218719D01*
X293301Y218662D01*
X293397Y218549D01*
X293442Y218485D01*
X317798Y194129D01*
X317822Y194111D01*
X317841Y194089D01*
X317935Y194026D01*
X318025Y193958D01*
X318053Y193948D01*
X318077Y193931D01*
X318185Y193897D01*
X318291Y193857D01*
X318320Y193855D01*
X318348Y193846D01*
X318462Y193843D01*
X318574Y193833D01*
X318603Y193839D01*
X318632Y193838D01*
X318742Y193867D01*
X318853Y193889D01*
X318879Y193903D01*
X318907Y193910D01*
X319005Y193968D01*
X319105Y194020D01*
X319127Y194040D01*
X319152Y194055D01*
X319229Y194138D01*
X319311Y194216D01*
X319326Y194241D01*
X319346Y194263D01*
X319398Y194364D01*
X319455Y194461D01*
X319462Y194490D01*
X319476Y194516D01*
X319489Y194593D01*
X319525Y194737D01*
X319523Y194799D01*
X319531Y194847D01*
X319531Y194919D01*
X325781Y201169D01*
X334619Y201169D01*
X340869Y194919D01*
X340869Y186081D01*
X334619Y179831D01*
X325781Y179831D01*
X319531Y186081D01*
X319531Y186944D01*
X319523Y187002D01*
X319525Y187060D01*
X319503Y187142D01*
X319491Y187226D01*
X319468Y187279D01*
X319453Y187335D01*
X319410Y187408D01*
X319375Y187485D01*
X319337Y187530D01*
X319308Y187580D01*
X319246Y187638D01*
X319192Y187702D01*
X319143Y187734D01*
X319100Y187774D01*
X319025Y187813D01*
X318955Y187860D01*
X318899Y187877D01*
X318847Y187904D01*
X318779Y187915D01*
X318684Y187945D01*
X318584Y187948D01*
X318516Y187959D01*
X316782Y187959D01*
X289849Y214892D01*
X288754Y215987D01*
X288730Y216005D01*
X288711Y216027D01*
X288617Y216090D01*
X288527Y216158D01*
X288499Y216168D01*
X288475Y216185D01*
X288367Y216219D01*
X288261Y216259D01*
X288232Y216262D01*
X288204Y216270D01*
X288090Y216273D01*
X287978Y216283D01*
X287949Y216277D01*
X287920Y216278D01*
X287810Y216249D01*
X287699Y216227D01*
X287673Y216213D01*
X287645Y216206D01*
X287547Y216148D01*
X287447Y216096D01*
X287425Y216076D01*
X287400Y216061D01*
X287323Y215978D01*
X287241Y215900D01*
X287226Y215875D01*
X287206Y215853D01*
X287154Y215752D01*
X287097Y215655D01*
X287090Y215626D01*
X287076Y215600D01*
X287063Y215523D01*
X287027Y215379D01*
X287029Y215317D01*
X287021Y215269D01*
X287021Y207213D01*
X287033Y207126D01*
X287036Y207039D01*
X287053Y206986D01*
X287061Y206931D01*
X287096Y206852D01*
X287123Y206768D01*
X287151Y206729D01*
X287177Y206672D01*
X287273Y206559D01*
X287318Y206495D01*
X321195Y172618D01*
X321241Y172583D01*
X321282Y172541D01*
X321355Y172498D01*
X321422Y172447D01*
X321477Y172427D01*
X321527Y172397D01*
X321609Y172376D01*
X321688Y172346D01*
X321746Y172341D01*
X321803Y172327D01*
X321887Y172330D01*
X321971Y172323D01*
X322028Y172334D01*
X322087Y172336D01*
X322167Y172362D01*
X322250Y172379D01*
X322302Y172406D01*
X322357Y172424D01*
X322413Y172464D01*
X322502Y172510D01*
X322574Y172578D01*
X322631Y172618D01*
X325781Y175769D01*
X334619Y175769D01*
X340869Y169519D01*
X340869Y160681D01*
X334619Y154431D01*
X325781Y154431D01*
X319531Y160681D01*
X319531Y166675D01*
X319519Y166762D01*
X319516Y166849D01*
X319499Y166902D01*
X319491Y166957D01*
X319456Y167036D01*
X319429Y167120D01*
X319401Y167159D01*
X319375Y167216D01*
X319279Y167329D01*
X319234Y167393D01*
X282404Y204223D01*
X282380Y204241D01*
X282361Y204263D01*
X282267Y204326D01*
X282177Y204394D01*
X282149Y204404D01*
X282125Y204421D01*
X282017Y204455D01*
X281911Y204495D01*
X281882Y204498D01*
X281854Y204506D01*
X281740Y204509D01*
X281628Y204519D01*
X281599Y204513D01*
X281570Y204514D01*
X281460Y204485D01*
X281349Y204463D01*
X281323Y204449D01*
X281295Y204442D01*
X281197Y204384D01*
X281097Y204332D01*
X281075Y204312D01*
X281050Y204297D01*
X280973Y204214D01*
X280891Y204136D01*
X280876Y204111D01*
X280856Y204089D01*
X280804Y203988D01*
X280747Y203891D01*
X280740Y203862D01*
X280726Y203836D01*
X280713Y203759D01*
X280677Y203615D01*
X280679Y203553D01*
X280671Y203505D01*
X280671Y195783D01*
X280683Y195696D01*
X280686Y195609D01*
X280703Y195556D01*
X280711Y195501D01*
X280746Y195422D01*
X280773Y195338D01*
X280801Y195299D01*
X280827Y195242D01*
X280923Y195129D01*
X280968Y195065D01*
X325367Y150666D01*
X325437Y150614D01*
X325501Y150554D01*
X325550Y150528D01*
X325594Y150495D01*
X325676Y150464D01*
X325754Y150424D01*
X325801Y150416D01*
X325860Y150394D01*
X326008Y150382D01*
X326085Y150369D01*
X334619Y150369D01*
X340869Y144119D01*
X340869Y135281D01*
X334619Y129031D01*
X325781Y129031D01*
G37*
%LPD*%
%LPC*%
G36*
X328206Y513234D02*
X328206Y513234D01*
X325696Y514274D01*
X323774Y516196D01*
X323431Y517025D01*
X323430Y517026D01*
X323430Y517027D01*
X323359Y517146D01*
X323286Y517269D01*
X323285Y517270D01*
X323284Y517272D01*
X323182Y517368D01*
X323080Y517465D01*
X323078Y517465D01*
X323077Y517466D01*
X322951Y517531D01*
X322827Y517595D01*
X322825Y517595D01*
X322824Y517596D01*
X322809Y517598D01*
X322548Y517650D01*
X322518Y517647D01*
X322493Y517651D01*
X311609Y517651D01*
X311608Y517651D01*
X311606Y517651D01*
X311465Y517631D01*
X311328Y517611D01*
X311326Y517611D01*
X311325Y517611D01*
X311197Y517553D01*
X311068Y517495D01*
X311067Y517494D01*
X311066Y517493D01*
X310958Y517402D01*
X310851Y517312D01*
X310850Y517310D01*
X310849Y517309D01*
X310841Y517296D01*
X310694Y517075D01*
X310684Y517046D01*
X310671Y517025D01*
X310591Y516831D01*
X308669Y514909D01*
X306159Y513869D01*
X303441Y513869D01*
X300931Y514909D01*
X299009Y516831D01*
X298929Y517025D01*
X298928Y517026D01*
X298928Y517027D01*
X298858Y517144D01*
X298784Y517269D01*
X298783Y517271D01*
X298782Y517272D01*
X298681Y517367D01*
X298578Y517465D01*
X298576Y517465D01*
X298575Y517466D01*
X298449Y517531D01*
X298325Y517595D01*
X298323Y517595D01*
X298322Y517596D01*
X298307Y517598D01*
X298046Y517650D01*
X298016Y517647D01*
X297991Y517651D01*
X273509Y517651D01*
X273508Y517651D01*
X273506Y517651D01*
X273365Y517631D01*
X273228Y517611D01*
X273226Y517611D01*
X273225Y517611D01*
X273097Y517553D01*
X272968Y517495D01*
X272967Y517494D01*
X272966Y517493D01*
X272858Y517402D01*
X272751Y517312D01*
X272750Y517310D01*
X272749Y517309D01*
X272741Y517296D01*
X272594Y517075D01*
X272584Y517046D01*
X272571Y517025D01*
X272491Y516831D01*
X270569Y514909D01*
X268059Y513869D01*
X265341Y513869D01*
X262831Y514909D01*
X260909Y516831D01*
X260829Y517025D01*
X260828Y517026D01*
X260828Y517027D01*
X260758Y517144D01*
X260684Y517269D01*
X260683Y517271D01*
X260682Y517272D01*
X260581Y517367D01*
X260478Y517465D01*
X260476Y517465D01*
X260475Y517466D01*
X260349Y517531D01*
X260225Y517595D01*
X260223Y517595D01*
X260222Y517596D01*
X260207Y517598D01*
X259946Y517650D01*
X259916Y517647D01*
X259891Y517651D01*
X235409Y517651D01*
X235408Y517651D01*
X235406Y517651D01*
X235265Y517631D01*
X235128Y517611D01*
X235126Y517611D01*
X235125Y517611D01*
X234997Y517553D01*
X234868Y517495D01*
X234867Y517494D01*
X234866Y517493D01*
X234758Y517402D01*
X234651Y517312D01*
X234650Y517310D01*
X234649Y517309D01*
X234641Y517296D01*
X234494Y517075D01*
X234484Y517046D01*
X234471Y517025D01*
X234391Y516831D01*
X232469Y514909D01*
X229959Y513869D01*
X227241Y513869D01*
X224731Y514909D01*
X222809Y516831D01*
X222729Y517025D01*
X222728Y517026D01*
X222728Y517027D01*
X222658Y517144D01*
X222584Y517269D01*
X222583Y517271D01*
X222582Y517272D01*
X222481Y517367D01*
X222378Y517465D01*
X222376Y517465D01*
X222375Y517466D01*
X222249Y517531D01*
X222125Y517595D01*
X222123Y517595D01*
X222122Y517596D01*
X222107Y517598D01*
X221846Y517650D01*
X221816Y517647D01*
X221791Y517651D01*
X197309Y517651D01*
X197308Y517651D01*
X197306Y517651D01*
X197165Y517631D01*
X197028Y517611D01*
X197026Y517611D01*
X197025Y517611D01*
X196897Y517553D01*
X196768Y517495D01*
X196767Y517494D01*
X196766Y517493D01*
X196658Y517402D01*
X196551Y517312D01*
X196550Y517310D01*
X196549Y517309D01*
X196541Y517296D01*
X196394Y517075D01*
X196384Y517046D01*
X196371Y517025D01*
X196291Y516831D01*
X194369Y514909D01*
X191859Y513869D01*
X189141Y513869D01*
X186631Y514909D01*
X184709Y516831D01*
X184629Y517025D01*
X184628Y517026D01*
X184628Y517027D01*
X184558Y517144D01*
X184484Y517269D01*
X184483Y517271D01*
X184482Y517272D01*
X184381Y517367D01*
X184278Y517465D01*
X184276Y517465D01*
X184275Y517466D01*
X184149Y517531D01*
X184025Y517595D01*
X184023Y517595D01*
X184022Y517596D01*
X184007Y517598D01*
X183746Y517650D01*
X183716Y517647D01*
X183691Y517651D01*
X159209Y517651D01*
X159208Y517651D01*
X159206Y517651D01*
X159065Y517631D01*
X158928Y517611D01*
X158926Y517611D01*
X158925Y517611D01*
X158797Y517553D01*
X158668Y517495D01*
X158667Y517494D01*
X158666Y517493D01*
X158558Y517402D01*
X158451Y517312D01*
X158450Y517310D01*
X158449Y517309D01*
X158441Y517296D01*
X158294Y517075D01*
X158284Y517046D01*
X158271Y517025D01*
X158191Y516831D01*
X156269Y514909D01*
X153759Y513869D01*
X151041Y513869D01*
X148531Y514909D01*
X146609Y516831D01*
X146529Y517025D01*
X146528Y517026D01*
X146528Y517027D01*
X146458Y517144D01*
X146384Y517269D01*
X146383Y517271D01*
X146382Y517272D01*
X146281Y517367D01*
X146178Y517465D01*
X146176Y517465D01*
X146175Y517466D01*
X146049Y517531D01*
X145925Y517595D01*
X145923Y517595D01*
X145922Y517596D01*
X145907Y517598D01*
X145646Y517650D01*
X145616Y517647D01*
X145591Y517651D01*
X120062Y517651D01*
X119975Y517639D01*
X119888Y517636D01*
X119835Y517619D01*
X119780Y517611D01*
X119701Y517576D01*
X119617Y517549D01*
X119578Y517521D01*
X119521Y517495D01*
X119408Y517399D01*
X119344Y517354D01*
X118169Y516179D01*
X115659Y515139D01*
X112941Y515139D01*
X110431Y516179D01*
X109256Y517354D01*
X109186Y517406D01*
X109122Y517466D01*
X109073Y517492D01*
X109029Y517525D01*
X108947Y517556D01*
X108869Y517596D01*
X108822Y517604D01*
X108763Y517626D01*
X108615Y517638D01*
X108538Y517651D01*
X83009Y517651D01*
X83008Y517651D01*
X83006Y517651D01*
X82865Y517631D01*
X82728Y517611D01*
X82726Y517611D01*
X82725Y517611D01*
X82597Y517553D01*
X82468Y517495D01*
X82467Y517494D01*
X82466Y517493D01*
X82358Y517402D01*
X82251Y517312D01*
X82250Y517310D01*
X82249Y517309D01*
X82241Y517296D01*
X82094Y517075D01*
X82084Y517046D01*
X82071Y517025D01*
X81991Y516831D01*
X80069Y514909D01*
X77559Y513869D01*
X74841Y513869D01*
X72331Y514909D01*
X70409Y516831D01*
X69369Y519341D01*
X69369Y522059D01*
X70409Y524569D01*
X72331Y526491D01*
X74841Y527531D01*
X77559Y527531D01*
X80069Y526491D01*
X81991Y524569D01*
X82071Y524375D01*
X82072Y524374D01*
X82072Y524373D01*
X82142Y524256D01*
X82216Y524131D01*
X82217Y524129D01*
X82218Y524128D01*
X82319Y524033D01*
X82422Y523935D01*
X82424Y523935D01*
X82425Y523934D01*
X82551Y523869D01*
X82675Y523805D01*
X82677Y523805D01*
X82678Y523804D01*
X82693Y523802D01*
X82954Y523750D01*
X82984Y523753D01*
X83009Y523749D01*
X106965Y523749D01*
X106966Y523749D01*
X106968Y523749D01*
X107109Y523769D01*
X107246Y523789D01*
X107248Y523789D01*
X107249Y523789D01*
X107377Y523847D01*
X107506Y523905D01*
X107507Y523906D01*
X107508Y523907D01*
X107613Y523995D01*
X107723Y524088D01*
X107724Y524090D01*
X107725Y524091D01*
X107733Y524104D01*
X107880Y524325D01*
X107890Y524354D01*
X107903Y524375D01*
X108509Y525839D01*
X110431Y527761D01*
X112941Y528801D01*
X115659Y528801D01*
X118169Y527761D01*
X120091Y525839D01*
X120697Y524375D01*
X120698Y524374D01*
X120698Y524373D01*
X120770Y524252D01*
X120842Y524131D01*
X120843Y524130D01*
X120844Y524128D01*
X120948Y524031D01*
X121048Y523935D01*
X121050Y523935D01*
X121051Y523934D01*
X121177Y523869D01*
X121301Y523805D01*
X121303Y523805D01*
X121304Y523804D01*
X121319Y523802D01*
X121580Y523750D01*
X121610Y523753D01*
X121635Y523749D01*
X145591Y523749D01*
X145592Y523749D01*
X145594Y523749D01*
X145735Y523769D01*
X145872Y523789D01*
X145874Y523789D01*
X145875Y523789D01*
X146003Y523847D01*
X146132Y523905D01*
X146133Y523906D01*
X146134Y523907D01*
X146239Y523995D01*
X146349Y524088D01*
X146350Y524090D01*
X146351Y524091D01*
X146359Y524104D01*
X146506Y524325D01*
X146516Y524354D01*
X146529Y524375D01*
X146609Y524569D01*
X148531Y526491D01*
X151041Y527531D01*
X153759Y527531D01*
X156269Y526491D01*
X158191Y524569D01*
X158271Y524375D01*
X158272Y524374D01*
X158272Y524373D01*
X158342Y524256D01*
X158416Y524131D01*
X158417Y524129D01*
X158418Y524128D01*
X158519Y524033D01*
X158622Y523935D01*
X158624Y523935D01*
X158625Y523934D01*
X158751Y523869D01*
X158875Y523805D01*
X158877Y523805D01*
X158878Y523804D01*
X158893Y523802D01*
X159154Y523750D01*
X159184Y523753D01*
X159209Y523749D01*
X183691Y523749D01*
X183692Y523749D01*
X183694Y523749D01*
X183835Y523769D01*
X183972Y523789D01*
X183974Y523789D01*
X183975Y523789D01*
X184103Y523847D01*
X184232Y523905D01*
X184233Y523906D01*
X184234Y523907D01*
X184339Y523995D01*
X184449Y524088D01*
X184450Y524090D01*
X184451Y524091D01*
X184459Y524104D01*
X184606Y524325D01*
X184616Y524354D01*
X184629Y524375D01*
X184709Y524569D01*
X186631Y526491D01*
X189141Y527531D01*
X191859Y527531D01*
X194369Y526491D01*
X196291Y524569D01*
X196371Y524375D01*
X196372Y524374D01*
X196372Y524373D01*
X196442Y524256D01*
X196516Y524131D01*
X196517Y524129D01*
X196518Y524128D01*
X196619Y524033D01*
X196722Y523935D01*
X196724Y523935D01*
X196725Y523934D01*
X196851Y523869D01*
X196975Y523805D01*
X196977Y523805D01*
X196978Y523804D01*
X196993Y523802D01*
X197254Y523750D01*
X197284Y523753D01*
X197309Y523749D01*
X221791Y523749D01*
X221792Y523749D01*
X221794Y523749D01*
X221935Y523769D01*
X222072Y523789D01*
X222074Y523789D01*
X222075Y523789D01*
X222203Y523847D01*
X222332Y523905D01*
X222333Y523906D01*
X222334Y523907D01*
X222439Y523995D01*
X222549Y524088D01*
X222550Y524090D01*
X222551Y524091D01*
X222559Y524104D01*
X222706Y524325D01*
X222716Y524354D01*
X222729Y524375D01*
X222809Y524569D01*
X224731Y526491D01*
X227241Y527531D01*
X229959Y527531D01*
X232469Y526491D01*
X234391Y524569D01*
X234471Y524375D01*
X234472Y524374D01*
X234472Y524373D01*
X234542Y524256D01*
X234616Y524131D01*
X234617Y524129D01*
X234618Y524128D01*
X234719Y524033D01*
X234822Y523935D01*
X234824Y523935D01*
X234825Y523934D01*
X234951Y523869D01*
X235075Y523805D01*
X235077Y523805D01*
X235078Y523804D01*
X235093Y523802D01*
X235354Y523750D01*
X235384Y523753D01*
X235409Y523749D01*
X259891Y523749D01*
X259892Y523749D01*
X259894Y523749D01*
X260035Y523769D01*
X260172Y523789D01*
X260174Y523789D01*
X260175Y523789D01*
X260303Y523847D01*
X260432Y523905D01*
X260433Y523906D01*
X260434Y523907D01*
X260539Y523995D01*
X260649Y524088D01*
X260650Y524090D01*
X260651Y524091D01*
X260659Y524104D01*
X260806Y524325D01*
X260816Y524354D01*
X260829Y524375D01*
X260909Y524569D01*
X262831Y526491D01*
X265341Y527531D01*
X268059Y527531D01*
X270569Y526491D01*
X272491Y524569D01*
X272571Y524375D01*
X272572Y524374D01*
X272572Y524373D01*
X272642Y524256D01*
X272716Y524131D01*
X272717Y524129D01*
X272718Y524128D01*
X272819Y524033D01*
X272922Y523935D01*
X272924Y523935D01*
X272925Y523934D01*
X273051Y523869D01*
X273175Y523805D01*
X273177Y523805D01*
X273178Y523804D01*
X273193Y523802D01*
X273454Y523750D01*
X273484Y523753D01*
X273509Y523749D01*
X297991Y523749D01*
X297992Y523749D01*
X297994Y523749D01*
X298135Y523769D01*
X298272Y523789D01*
X298274Y523789D01*
X298275Y523789D01*
X298403Y523847D01*
X298532Y523905D01*
X298533Y523906D01*
X298534Y523907D01*
X298639Y523995D01*
X298749Y524088D01*
X298750Y524090D01*
X298751Y524091D01*
X298759Y524104D01*
X298906Y524325D01*
X298916Y524354D01*
X298929Y524375D01*
X299009Y524569D01*
X300931Y526491D01*
X303441Y527531D01*
X306159Y527531D01*
X308669Y526491D01*
X310591Y524569D01*
X310671Y524375D01*
X310672Y524374D01*
X310672Y524373D01*
X310742Y524256D01*
X310816Y524131D01*
X310817Y524129D01*
X310818Y524128D01*
X310919Y524033D01*
X311022Y523935D01*
X311024Y523935D01*
X311025Y523934D01*
X311151Y523869D01*
X311275Y523805D01*
X311277Y523805D01*
X311278Y523804D01*
X311293Y523802D01*
X311554Y523750D01*
X311584Y523753D01*
X311609Y523749D01*
X323168Y523749D01*
X323255Y523761D01*
X323342Y523764D01*
X323395Y523781D01*
X323450Y523789D01*
X323529Y523824D01*
X323613Y523851D01*
X323652Y523879D01*
X323709Y523905D01*
X323822Y524001D01*
X323886Y524046D01*
X325696Y525856D01*
X328206Y526896D01*
X330924Y526896D01*
X333434Y525856D01*
X335356Y523934D01*
X336396Y521424D01*
X336396Y518706D01*
X335356Y516196D01*
X333434Y514274D01*
X330924Y513234D01*
X328206Y513234D01*
G37*
%LPD*%
%LPC*%
G36*
X247531Y66181D02*
X247531Y66181D01*
X247531Y108941D01*
X281334Y108941D01*
X281721Y108837D01*
X281770Y108831D01*
X281816Y108816D01*
X281910Y108814D01*
X282003Y108803D01*
X282052Y108810D01*
X282100Y108809D01*
X282191Y108833D01*
X282284Y108848D01*
X282328Y108869D01*
X282375Y108881D01*
X282456Y108929D01*
X282541Y108969D01*
X282578Y109001D01*
X282620Y109026D01*
X282684Y109095D01*
X282755Y109157D01*
X282781Y109198D01*
X282814Y109234D01*
X282857Y109317D01*
X282908Y109396D01*
X282922Y109443D01*
X282944Y109487D01*
X282956Y109560D01*
X282988Y109669D01*
X282989Y109756D01*
X282999Y109818D01*
X282999Y110787D01*
X284826Y115198D01*
X288202Y118574D01*
X292613Y120401D01*
X297387Y120401D01*
X301798Y118574D01*
X305174Y115198D01*
X307001Y110787D01*
X307001Y106013D01*
X305174Y101602D01*
X301798Y98226D01*
X297387Y96399D01*
X292613Y96399D01*
X288202Y98226D01*
X285274Y101155D01*
X285250Y101172D01*
X285231Y101195D01*
X285137Y101257D01*
X285047Y101325D01*
X285019Y101336D01*
X284995Y101352D01*
X284887Y101386D01*
X284781Y101427D01*
X284752Y101429D01*
X284724Y101438D01*
X284610Y101441D01*
X284498Y101450D01*
X284469Y101444D01*
X284440Y101445D01*
X284330Y101417D01*
X284219Y101394D01*
X284193Y101381D01*
X284165Y101373D01*
X284067Y101316D01*
X283967Y101263D01*
X283945Y101243D01*
X283920Y101228D01*
X283843Y101146D01*
X283761Y101068D01*
X283746Y101042D01*
X283726Y101021D01*
X283674Y100920D01*
X283617Y100822D01*
X283610Y100794D01*
X283596Y100768D01*
X283583Y100690D01*
X283547Y100547D01*
X283549Y100484D01*
X283541Y100437D01*
X283541Y66181D01*
X247531Y66181D01*
G37*
%LPD*%
%LPC*%
G36*
X74841Y564669D02*
X74841Y564669D01*
X72331Y565709D01*
X70409Y567631D01*
X69369Y570141D01*
X69369Y572859D01*
X70409Y575369D01*
X72331Y577291D01*
X74841Y578331D01*
X77559Y578331D01*
X80069Y577291D01*
X81991Y575369D01*
X82071Y575175D01*
X82072Y575174D01*
X82072Y575173D01*
X82142Y575056D01*
X82216Y574931D01*
X82217Y574929D01*
X82218Y574928D01*
X82319Y574833D01*
X82422Y574735D01*
X82424Y574735D01*
X82425Y574734D01*
X82551Y574669D01*
X82675Y574605D01*
X82677Y574605D01*
X82678Y574604D01*
X82693Y574602D01*
X82954Y574550D01*
X82984Y574553D01*
X83009Y574549D01*
X107491Y574549D01*
X107492Y574549D01*
X107494Y574549D01*
X107635Y574569D01*
X107772Y574589D01*
X107774Y574589D01*
X107775Y574589D01*
X107903Y574647D01*
X108032Y574705D01*
X108033Y574706D01*
X108034Y574707D01*
X108142Y574798D01*
X108249Y574888D01*
X108250Y574890D01*
X108251Y574891D01*
X108259Y574904D01*
X108406Y575125D01*
X108416Y575154D01*
X108429Y575175D01*
X108509Y575369D01*
X110431Y577291D01*
X112941Y578331D01*
X115659Y578331D01*
X118169Y577291D01*
X120091Y575369D01*
X120171Y575175D01*
X120172Y575174D01*
X120172Y575173D01*
X120242Y575056D01*
X120316Y574931D01*
X120317Y574929D01*
X120318Y574928D01*
X120419Y574833D01*
X120522Y574735D01*
X120524Y574735D01*
X120525Y574734D01*
X120651Y574669D01*
X120775Y574605D01*
X120777Y574605D01*
X120778Y574604D01*
X120793Y574602D01*
X121054Y574550D01*
X121084Y574553D01*
X121109Y574549D01*
X145591Y574549D01*
X145592Y574549D01*
X145594Y574549D01*
X145735Y574569D01*
X145872Y574589D01*
X145874Y574589D01*
X145875Y574589D01*
X146003Y574647D01*
X146132Y574705D01*
X146133Y574706D01*
X146134Y574707D01*
X146242Y574798D01*
X146349Y574888D01*
X146350Y574890D01*
X146351Y574891D01*
X146359Y574904D01*
X146506Y575125D01*
X146516Y575154D01*
X146529Y575175D01*
X146609Y575369D01*
X148531Y577291D01*
X151041Y578331D01*
X153759Y578331D01*
X156269Y577291D01*
X158191Y575369D01*
X158271Y575175D01*
X158272Y575174D01*
X158272Y575173D01*
X158342Y575056D01*
X158416Y574931D01*
X158417Y574929D01*
X158418Y574928D01*
X158519Y574833D01*
X158622Y574735D01*
X158624Y574735D01*
X158625Y574734D01*
X158751Y574669D01*
X158875Y574605D01*
X158877Y574605D01*
X158878Y574604D01*
X158893Y574602D01*
X159154Y574550D01*
X159184Y574553D01*
X159209Y574549D01*
X183691Y574549D01*
X183692Y574549D01*
X183694Y574549D01*
X183835Y574569D01*
X183972Y574589D01*
X183974Y574589D01*
X183975Y574589D01*
X184103Y574647D01*
X184232Y574705D01*
X184233Y574706D01*
X184234Y574707D01*
X184342Y574798D01*
X184449Y574888D01*
X184450Y574890D01*
X184451Y574891D01*
X184459Y574904D01*
X184606Y575125D01*
X184616Y575154D01*
X184629Y575175D01*
X184709Y575369D01*
X186631Y577291D01*
X189141Y578331D01*
X191859Y578331D01*
X194369Y577291D01*
X196291Y575369D01*
X196371Y575175D01*
X196372Y575174D01*
X196372Y575173D01*
X196442Y575056D01*
X196516Y574931D01*
X196517Y574929D01*
X196518Y574928D01*
X196619Y574833D01*
X196722Y574735D01*
X196724Y574735D01*
X196725Y574734D01*
X196851Y574669D01*
X196975Y574605D01*
X196977Y574605D01*
X196978Y574604D01*
X196993Y574602D01*
X197254Y574550D01*
X197284Y574553D01*
X197309Y574549D01*
X221791Y574549D01*
X221792Y574549D01*
X221794Y574549D01*
X221935Y574569D01*
X222072Y574589D01*
X222074Y574589D01*
X222075Y574589D01*
X222203Y574647D01*
X222332Y574705D01*
X222333Y574706D01*
X222334Y574707D01*
X222442Y574798D01*
X222549Y574888D01*
X222550Y574890D01*
X222551Y574891D01*
X222559Y574904D01*
X222706Y575125D01*
X222716Y575154D01*
X222729Y575175D01*
X222809Y575369D01*
X224731Y577291D01*
X227241Y578331D01*
X229959Y578331D01*
X232469Y577291D01*
X234391Y575369D01*
X234471Y575175D01*
X234472Y575174D01*
X234472Y575173D01*
X234542Y575056D01*
X234616Y574931D01*
X234617Y574929D01*
X234618Y574928D01*
X234719Y574833D01*
X234822Y574735D01*
X234824Y574735D01*
X234825Y574734D01*
X234951Y574669D01*
X235075Y574605D01*
X235077Y574605D01*
X235078Y574604D01*
X235093Y574602D01*
X235354Y574550D01*
X235384Y574553D01*
X235409Y574549D01*
X259891Y574549D01*
X259892Y574549D01*
X259894Y574549D01*
X260035Y574569D01*
X260172Y574589D01*
X260174Y574589D01*
X260175Y574589D01*
X260303Y574647D01*
X260432Y574705D01*
X260433Y574706D01*
X260434Y574707D01*
X260542Y574798D01*
X260649Y574888D01*
X260650Y574890D01*
X260651Y574891D01*
X260659Y574904D01*
X260806Y575125D01*
X260816Y575154D01*
X260829Y575175D01*
X260909Y575369D01*
X262831Y577291D01*
X265341Y578331D01*
X268059Y578331D01*
X270569Y577291D01*
X272491Y575369D01*
X272571Y575175D01*
X272572Y575174D01*
X272572Y575173D01*
X272642Y575056D01*
X272716Y574931D01*
X272717Y574929D01*
X272718Y574928D01*
X272819Y574833D01*
X272922Y574735D01*
X272924Y574735D01*
X272925Y574734D01*
X273051Y574669D01*
X273175Y574605D01*
X273177Y574605D01*
X273178Y574604D01*
X273193Y574602D01*
X273454Y574550D01*
X273484Y574553D01*
X273509Y574549D01*
X297991Y574549D01*
X297992Y574549D01*
X297994Y574549D01*
X298135Y574569D01*
X298272Y574589D01*
X298274Y574589D01*
X298275Y574589D01*
X298403Y574647D01*
X298532Y574705D01*
X298533Y574706D01*
X298534Y574707D01*
X298642Y574798D01*
X298749Y574888D01*
X298750Y574890D01*
X298751Y574891D01*
X298759Y574904D01*
X298906Y575125D01*
X298916Y575154D01*
X298929Y575175D01*
X299009Y575369D01*
X300931Y577291D01*
X303441Y578331D01*
X306159Y578331D01*
X308669Y577291D01*
X310591Y575369D01*
X311631Y572859D01*
X311631Y570141D01*
X310591Y567631D01*
X308669Y565709D01*
X306159Y564669D01*
X303441Y564669D01*
X300931Y565709D01*
X299009Y567631D01*
X298929Y567825D01*
X298928Y567826D01*
X298928Y567827D01*
X298858Y567944D01*
X298784Y568069D01*
X298783Y568071D01*
X298782Y568072D01*
X298681Y568167D01*
X298578Y568265D01*
X298576Y568265D01*
X298575Y568266D01*
X298449Y568331D01*
X298325Y568395D01*
X298323Y568395D01*
X298322Y568396D01*
X298307Y568398D01*
X298046Y568450D01*
X298016Y568447D01*
X297991Y568451D01*
X273509Y568451D01*
X273508Y568451D01*
X273506Y568451D01*
X273365Y568431D01*
X273228Y568411D01*
X273226Y568411D01*
X273225Y568411D01*
X273097Y568353D01*
X272968Y568295D01*
X272967Y568294D01*
X272966Y568293D01*
X272858Y568202D01*
X272751Y568112D01*
X272750Y568110D01*
X272749Y568109D01*
X272741Y568096D01*
X272594Y567875D01*
X272584Y567846D01*
X272571Y567825D01*
X272491Y567631D01*
X270569Y565709D01*
X268059Y564669D01*
X265341Y564669D01*
X262831Y565709D01*
X260909Y567631D01*
X260829Y567825D01*
X260828Y567826D01*
X260828Y567827D01*
X260758Y567944D01*
X260684Y568069D01*
X260683Y568071D01*
X260682Y568072D01*
X260581Y568167D01*
X260478Y568265D01*
X260476Y568265D01*
X260475Y568266D01*
X260349Y568331D01*
X260225Y568395D01*
X260223Y568395D01*
X260222Y568396D01*
X260207Y568398D01*
X259946Y568450D01*
X259916Y568447D01*
X259891Y568451D01*
X235409Y568451D01*
X235408Y568451D01*
X235406Y568451D01*
X235265Y568431D01*
X235128Y568411D01*
X235126Y568411D01*
X235125Y568411D01*
X234997Y568353D01*
X234868Y568295D01*
X234867Y568294D01*
X234866Y568293D01*
X234758Y568202D01*
X234651Y568112D01*
X234650Y568110D01*
X234649Y568109D01*
X234641Y568096D01*
X234494Y567875D01*
X234484Y567846D01*
X234471Y567825D01*
X234391Y567631D01*
X232469Y565709D01*
X229959Y564669D01*
X227241Y564669D01*
X224731Y565709D01*
X222809Y567631D01*
X222729Y567825D01*
X222728Y567826D01*
X222728Y567827D01*
X222658Y567944D01*
X222584Y568069D01*
X222583Y568071D01*
X222582Y568072D01*
X222481Y568167D01*
X222378Y568265D01*
X222376Y568265D01*
X222375Y568266D01*
X222249Y568331D01*
X222125Y568395D01*
X222123Y568395D01*
X222122Y568396D01*
X222107Y568398D01*
X221846Y568450D01*
X221816Y568447D01*
X221791Y568451D01*
X197309Y568451D01*
X197308Y568451D01*
X197306Y568451D01*
X197165Y568431D01*
X197028Y568411D01*
X197026Y568411D01*
X197025Y568411D01*
X196897Y568353D01*
X196768Y568295D01*
X196767Y568294D01*
X196766Y568293D01*
X196658Y568202D01*
X196551Y568112D01*
X196550Y568110D01*
X196549Y568109D01*
X196541Y568096D01*
X196394Y567875D01*
X196384Y567846D01*
X196371Y567825D01*
X196291Y567631D01*
X194369Y565709D01*
X191859Y564669D01*
X189141Y564669D01*
X186631Y565709D01*
X184709Y567631D01*
X184629Y567825D01*
X184628Y567826D01*
X184628Y567827D01*
X184558Y567944D01*
X184484Y568069D01*
X184483Y568071D01*
X184482Y568072D01*
X184381Y568167D01*
X184278Y568265D01*
X184276Y568265D01*
X184275Y568266D01*
X184149Y568331D01*
X184025Y568395D01*
X184023Y568395D01*
X184022Y568396D01*
X184007Y568398D01*
X183746Y568450D01*
X183716Y568447D01*
X183691Y568451D01*
X159209Y568451D01*
X159208Y568451D01*
X159206Y568451D01*
X159065Y568431D01*
X158928Y568411D01*
X158926Y568411D01*
X158925Y568411D01*
X158797Y568353D01*
X158668Y568295D01*
X158667Y568294D01*
X158666Y568293D01*
X158558Y568202D01*
X158451Y568112D01*
X158450Y568110D01*
X158449Y568109D01*
X158441Y568096D01*
X158294Y567875D01*
X158284Y567846D01*
X158271Y567825D01*
X158191Y567631D01*
X156269Y565709D01*
X153759Y564669D01*
X151041Y564669D01*
X148531Y565709D01*
X146609Y567631D01*
X146529Y567825D01*
X146528Y567826D01*
X146528Y567827D01*
X146458Y567944D01*
X146384Y568069D01*
X146383Y568071D01*
X146382Y568072D01*
X146281Y568167D01*
X146178Y568265D01*
X146176Y568265D01*
X146175Y568266D01*
X146049Y568331D01*
X145925Y568395D01*
X145923Y568395D01*
X145922Y568396D01*
X145907Y568398D01*
X145646Y568450D01*
X145616Y568447D01*
X145591Y568451D01*
X121109Y568451D01*
X121108Y568451D01*
X121106Y568451D01*
X120965Y568431D01*
X120828Y568411D01*
X120826Y568411D01*
X120825Y568411D01*
X120697Y568353D01*
X120568Y568295D01*
X120567Y568294D01*
X120566Y568293D01*
X120458Y568202D01*
X120351Y568112D01*
X120350Y568110D01*
X120349Y568109D01*
X120341Y568096D01*
X120194Y567875D01*
X120184Y567846D01*
X120171Y567825D01*
X120091Y567631D01*
X118169Y565709D01*
X115659Y564669D01*
X112941Y564669D01*
X110431Y565709D01*
X108509Y567631D01*
X108429Y567825D01*
X108428Y567826D01*
X108428Y567827D01*
X108358Y567944D01*
X108284Y568069D01*
X108283Y568071D01*
X108282Y568072D01*
X108181Y568167D01*
X108078Y568265D01*
X108076Y568265D01*
X108075Y568266D01*
X107949Y568331D01*
X107825Y568395D01*
X107823Y568395D01*
X107822Y568396D01*
X107807Y568398D01*
X107546Y568450D01*
X107516Y568447D01*
X107491Y568451D01*
X83009Y568451D01*
X83008Y568451D01*
X83006Y568451D01*
X82865Y568431D01*
X82728Y568411D01*
X82726Y568411D01*
X82725Y568411D01*
X82597Y568353D01*
X82468Y568295D01*
X82467Y568294D01*
X82466Y568293D01*
X82358Y568202D01*
X82251Y568112D01*
X82250Y568110D01*
X82249Y568109D01*
X82241Y568096D01*
X82094Y567875D01*
X82084Y567846D01*
X82071Y567825D01*
X81991Y567631D01*
X80069Y565709D01*
X77559Y564669D01*
X74841Y564669D01*
G37*
%LPD*%
%LPC*%
G36*
X157315Y394152D02*
X157315Y394152D01*
X154804Y395192D01*
X152883Y397113D01*
X151843Y399624D01*
X151843Y402341D01*
X152883Y404852D01*
X154804Y406773D01*
X157315Y407813D01*
X160032Y407813D01*
X160734Y407523D01*
X160736Y407522D01*
X160737Y407521D01*
X160870Y407488D01*
X161009Y407452D01*
X161011Y407452D01*
X161013Y407451D01*
X161153Y407456D01*
X161294Y407460D01*
X161295Y407460D01*
X161297Y407460D01*
X161429Y407503D01*
X161564Y407546D01*
X161566Y407547D01*
X161567Y407548D01*
X161579Y407556D01*
X161800Y407705D01*
X161820Y407728D01*
X161841Y407743D01*
X168873Y414775D01*
X170658Y416561D01*
X289865Y416561D01*
X289952Y416573D01*
X290039Y416576D01*
X290092Y416593D01*
X290147Y416601D01*
X290226Y416636D01*
X290310Y416663D01*
X290349Y416691D01*
X290406Y416717D01*
X290519Y416813D01*
X290583Y416858D01*
X291539Y417814D01*
X291591Y417883D01*
X291650Y417945D01*
X291676Y417996D01*
X291710Y418041D01*
X291740Y418122D01*
X291780Y418198D01*
X291791Y418254D01*
X291811Y418307D01*
X291818Y418393D01*
X291835Y418477D01*
X291830Y418534D01*
X291835Y418590D01*
X291818Y418675D01*
X291810Y418760D01*
X291790Y418813D01*
X291779Y418869D01*
X291739Y418945D01*
X291708Y419026D01*
X291674Y419071D01*
X291648Y419121D01*
X291589Y419184D01*
X291537Y419252D01*
X291491Y419286D01*
X291452Y419328D01*
X291378Y419371D01*
X291309Y419422D01*
X291256Y419442D01*
X291207Y419471D01*
X291124Y419492D01*
X291043Y419523D01*
X290986Y419527D01*
X290931Y419541D01*
X290846Y419539D01*
X290760Y419545D01*
X290711Y419534D01*
X290647Y419532D01*
X290509Y419488D01*
X290433Y419470D01*
X288379Y418619D01*
X285661Y418619D01*
X283151Y419659D01*
X281229Y421581D01*
X280938Y422283D01*
X280938Y422284D01*
X280937Y422285D01*
X280868Y422402D01*
X280794Y422527D01*
X280793Y422529D01*
X280792Y422530D01*
X280690Y422625D01*
X280587Y422723D01*
X280586Y422723D01*
X280585Y422724D01*
X280459Y422789D01*
X280335Y422853D01*
X280333Y422853D01*
X280332Y422854D01*
X280317Y422856D01*
X280056Y422908D01*
X280025Y422905D01*
X280001Y422909D01*
X252948Y422909D01*
X233037Y442820D01*
X233036Y442821D01*
X233035Y442822D01*
X232921Y442907D01*
X232810Y442991D01*
X232808Y442991D01*
X232807Y442992D01*
X232675Y443042D01*
X232544Y443092D01*
X232543Y443092D01*
X232541Y443093D01*
X232397Y443104D01*
X232261Y443116D01*
X232259Y443115D01*
X232258Y443115D01*
X232242Y443112D01*
X231982Y443060D01*
X231955Y443046D01*
X231931Y443040D01*
X231229Y442749D01*
X228511Y442749D01*
X226001Y443789D01*
X224079Y445711D01*
X223039Y448221D01*
X223039Y450939D01*
X224079Y453449D01*
X226001Y455371D01*
X228511Y456411D01*
X231229Y456411D01*
X233739Y455371D01*
X235661Y453449D01*
X236701Y450939D01*
X236701Y448221D01*
X236410Y447519D01*
X236410Y447518D01*
X236409Y447517D01*
X236375Y447383D01*
X236339Y447244D01*
X236339Y447243D01*
X236339Y447241D01*
X236343Y447100D01*
X236347Y446960D01*
X236348Y446958D01*
X236348Y446957D01*
X236391Y446824D01*
X236434Y446689D01*
X236435Y446688D01*
X236435Y446686D01*
X236444Y446674D01*
X236592Y446453D01*
X236616Y446433D01*
X236630Y446413D01*
X254755Y428288D01*
X254825Y428236D01*
X254889Y428176D01*
X254938Y428150D01*
X254982Y428117D01*
X255064Y428086D01*
X255142Y428046D01*
X255189Y428038D01*
X255248Y428016D01*
X255396Y428004D01*
X255473Y427991D01*
X280001Y427991D01*
X280002Y427991D01*
X280004Y427991D01*
X280144Y428011D01*
X280282Y428031D01*
X280283Y428031D01*
X280285Y428031D01*
X280415Y428090D01*
X280541Y428147D01*
X280543Y428148D01*
X280544Y428149D01*
X280649Y428238D01*
X280758Y428330D01*
X280759Y428332D01*
X280761Y428333D01*
X280768Y428345D01*
X280916Y428567D01*
X280925Y428596D01*
X280938Y428617D01*
X281229Y429319D01*
X283151Y431241D01*
X285661Y432281D01*
X288379Y432281D01*
X290889Y431241D01*
X292811Y429319D01*
X293851Y426809D01*
X293851Y424091D01*
X293000Y422037D01*
X292979Y421954D01*
X292948Y421874D01*
X292943Y421817D01*
X292929Y421762D01*
X292931Y421676D01*
X292924Y421591D01*
X292936Y421535D01*
X292937Y421478D01*
X292963Y421396D01*
X292980Y421312D01*
X293006Y421261D01*
X293024Y421207D01*
X293072Y421136D01*
X293111Y421060D01*
X293150Y421018D01*
X293182Y420971D01*
X293248Y420916D01*
X293307Y420853D01*
X293356Y420825D01*
X293400Y420788D01*
X293478Y420753D01*
X293552Y420710D01*
X293607Y420696D01*
X293659Y420673D01*
X293745Y420661D01*
X293828Y420640D01*
X293885Y420641D01*
X293941Y420634D01*
X294026Y420646D01*
X294112Y420649D01*
X294166Y420666D01*
X294222Y420674D01*
X294301Y420710D01*
X294382Y420736D01*
X294423Y420765D01*
X294481Y420791D01*
X294592Y420885D01*
X294656Y420931D01*
X302358Y428633D01*
X302359Y428634D01*
X302360Y428635D01*
X302442Y428745D01*
X302529Y428860D01*
X302529Y428862D01*
X302530Y428863D01*
X302580Y428995D01*
X302630Y429126D01*
X302630Y429127D01*
X302631Y429129D01*
X302642Y429273D01*
X302654Y429409D01*
X302653Y429411D01*
X302653Y429412D01*
X302650Y429428D01*
X302598Y429688D01*
X302584Y429715D01*
X302578Y429739D01*
X302287Y430441D01*
X302287Y433159D01*
X303327Y435669D01*
X305249Y437591D01*
X307759Y438631D01*
X310477Y438631D01*
X312987Y437591D01*
X314909Y435669D01*
X315949Y433159D01*
X315949Y430441D01*
X314909Y427931D01*
X312987Y426009D01*
X310477Y424969D01*
X307759Y424969D01*
X307057Y425260D01*
X307056Y425260D01*
X307055Y425261D01*
X306921Y425295D01*
X306782Y425331D01*
X306781Y425331D01*
X306779Y425331D01*
X306638Y425327D01*
X306498Y425323D01*
X306496Y425322D01*
X306495Y425322D01*
X306362Y425279D01*
X306227Y425236D01*
X306226Y425235D01*
X306224Y425235D01*
X306212Y425226D01*
X305991Y425078D01*
X305971Y425054D01*
X305951Y425040D01*
X292390Y411479D01*
X173184Y411479D01*
X173097Y411467D01*
X173010Y411464D01*
X172957Y411447D01*
X172902Y411439D01*
X172823Y411404D01*
X172739Y411377D01*
X172700Y411349D01*
X172643Y411323D01*
X172530Y411227D01*
X172466Y411182D01*
X165434Y404150D01*
X165433Y404148D01*
X165431Y404147D01*
X165347Y404034D01*
X165263Y403922D01*
X165262Y403921D01*
X165261Y403920D01*
X165211Y403788D01*
X165162Y403657D01*
X165161Y403655D01*
X165161Y403654D01*
X165149Y403509D01*
X165138Y403373D01*
X165138Y403372D01*
X165138Y403370D01*
X165142Y403355D01*
X165194Y403095D01*
X165208Y403068D01*
X165214Y403043D01*
X165504Y402341D01*
X165504Y399624D01*
X164464Y397113D01*
X162543Y395192D01*
X160032Y394152D01*
X157315Y394152D01*
G37*
%LPD*%
%LPC*%
G36*
X247531Y19359D02*
X247531Y19359D01*
X247531Y62119D01*
X283541Y62119D01*
X283541Y21566D01*
X283368Y20919D01*
X283033Y20340D01*
X282560Y19867D01*
X281981Y19532D01*
X281334Y19359D01*
X247531Y19359D01*
G37*
%LPD*%
%LPC*%
G36*
X207459Y66181D02*
X207459Y66181D01*
X207459Y106734D01*
X207632Y107381D01*
X207967Y107960D01*
X208440Y108433D01*
X209019Y108768D01*
X209666Y108941D01*
X243469Y108941D01*
X243469Y66181D01*
X207459Y66181D01*
G37*
%LPD*%
%LPC*%
G36*
X209666Y19359D02*
X209666Y19359D01*
X209019Y19532D01*
X208440Y19867D01*
X207967Y20340D01*
X207632Y20919D01*
X207459Y21566D01*
X207459Y62119D01*
X243469Y62119D01*
X243469Y19359D01*
X209666Y19359D01*
G37*
%LPD*%
%LPC*%
G36*
X20981Y205231D02*
X20981Y205231D01*
X14731Y211481D01*
X14731Y220319D01*
X20981Y226569D01*
X29819Y226569D01*
X30429Y225958D01*
X30476Y225923D01*
X30516Y225881D01*
X30589Y225838D01*
X30657Y225787D01*
X30711Y225767D01*
X30762Y225737D01*
X30843Y225716D01*
X30922Y225686D01*
X30981Y225681D01*
X31037Y225667D01*
X31122Y225670D01*
X31206Y225663D01*
X31263Y225674D01*
X31321Y225676D01*
X31402Y225702D01*
X31484Y225719D01*
X31536Y225746D01*
X31592Y225764D01*
X31648Y225804D01*
X31737Y225850D01*
X31809Y225918D01*
X31865Y225958D01*
X37802Y231895D01*
X39588Y233681D01*
X109017Y233681D01*
X109104Y233693D01*
X109191Y233696D01*
X109244Y233713D01*
X109299Y233721D01*
X109378Y233756D01*
X109462Y233783D01*
X109501Y233811D01*
X109558Y233837D01*
X109671Y233933D01*
X109735Y233978D01*
X155158Y279401D01*
X177131Y279401D01*
X177132Y279401D01*
X177134Y279401D01*
X177274Y279421D01*
X177412Y279441D01*
X177413Y279441D01*
X177415Y279441D01*
X177545Y279500D01*
X177671Y279557D01*
X177673Y279558D01*
X177674Y279559D01*
X177781Y279649D01*
X177888Y279740D01*
X177889Y279742D01*
X177891Y279743D01*
X177898Y279755D01*
X178046Y279977D01*
X178055Y280006D01*
X178068Y280027D01*
X178359Y280729D01*
X180281Y282651D01*
X182791Y283691D01*
X185509Y283691D01*
X188019Y282651D01*
X189941Y280729D01*
X190981Y278219D01*
X190981Y275501D01*
X189941Y272991D01*
X188019Y271069D01*
X185509Y270029D01*
X182791Y270029D01*
X180281Y271069D01*
X178359Y272991D01*
X178068Y273693D01*
X178068Y273694D01*
X178067Y273695D01*
X177998Y273812D01*
X177924Y273937D01*
X177923Y273939D01*
X177922Y273940D01*
X177820Y274035D01*
X177717Y274133D01*
X177716Y274133D01*
X177715Y274134D01*
X177589Y274199D01*
X177465Y274263D01*
X177463Y274263D01*
X177462Y274264D01*
X177447Y274266D01*
X177186Y274318D01*
X177155Y274315D01*
X177131Y274319D01*
X157683Y274319D01*
X157596Y274307D01*
X157509Y274304D01*
X157456Y274287D01*
X157401Y274279D01*
X157322Y274244D01*
X157238Y274217D01*
X157199Y274189D01*
X157142Y274163D01*
X157029Y274067D01*
X156965Y274022D01*
X111542Y228599D01*
X42113Y228599D01*
X42026Y228587D01*
X41939Y228584D01*
X41886Y228567D01*
X41831Y228559D01*
X41752Y228524D01*
X41668Y228497D01*
X41629Y228469D01*
X41572Y228443D01*
X41459Y228347D01*
X41395Y228302D01*
X35458Y222365D01*
X35423Y222319D01*
X35381Y222278D01*
X35338Y222205D01*
X35287Y222138D01*
X35267Y222083D01*
X35237Y222033D01*
X35216Y221951D01*
X35186Y221872D01*
X35181Y221814D01*
X35167Y221757D01*
X35170Y221673D01*
X35163Y221589D01*
X35174Y221532D01*
X35176Y221473D01*
X35202Y221393D01*
X35219Y221310D01*
X35246Y221258D01*
X35264Y221203D01*
X35304Y221146D01*
X35350Y221058D01*
X35418Y220986D01*
X35458Y220929D01*
X36069Y220319D01*
X36069Y211481D01*
X29819Y205231D01*
X20981Y205231D01*
G37*
%LPD*%
%LPC*%
G36*
X328027Y370077D02*
X328027Y370077D01*
X324013Y371740D01*
X320940Y374813D01*
X319277Y378827D01*
X319277Y383173D01*
X320528Y386192D01*
X320529Y386194D01*
X320529Y386195D01*
X320563Y386330D01*
X320599Y386468D01*
X320599Y386469D01*
X320599Y386471D01*
X320595Y386611D01*
X320591Y386752D01*
X320590Y386753D01*
X320590Y386755D01*
X320547Y386888D01*
X320504Y387023D01*
X320503Y387024D01*
X320503Y387025D01*
X320494Y387038D01*
X320346Y387259D01*
X320323Y387278D01*
X320308Y387299D01*
X312935Y394672D01*
X312865Y394724D01*
X312801Y394784D01*
X312752Y394810D01*
X312708Y394843D01*
X312626Y394874D01*
X312548Y394914D01*
X312501Y394922D01*
X312442Y394944D01*
X312294Y394956D01*
X312217Y394969D01*
X177979Y394969D01*
X177949Y394965D01*
X177918Y394967D01*
X177841Y394950D01*
X177698Y394929D01*
X177639Y394903D01*
X177591Y394892D01*
X176619Y394489D01*
X173901Y394489D01*
X171391Y395529D01*
X169469Y397451D01*
X168429Y399961D01*
X168429Y402679D01*
X169469Y405189D01*
X171391Y407111D01*
X173901Y408151D01*
X176619Y408151D01*
X179129Y407111D01*
X181051Y405189D01*
X182091Y402679D01*
X182091Y401066D01*
X182099Y401008D01*
X182097Y400950D01*
X182119Y400868D01*
X182131Y400784D01*
X182154Y400731D01*
X182169Y400675D01*
X182212Y400602D01*
X182247Y400525D01*
X182285Y400480D01*
X182314Y400430D01*
X182376Y400372D01*
X182430Y400308D01*
X182479Y400276D01*
X182522Y400236D01*
X182597Y400197D01*
X182667Y400150D01*
X182723Y400133D01*
X182775Y400106D01*
X182843Y400095D01*
X182938Y400065D01*
X183038Y400062D01*
X183106Y400051D01*
X314742Y400051D01*
X323901Y390892D01*
X323902Y390891D01*
X323903Y390890D01*
X324017Y390805D01*
X324128Y390721D01*
X324130Y390721D01*
X324131Y390720D01*
X324263Y390670D01*
X324394Y390620D01*
X324396Y390620D01*
X324397Y390619D01*
X324542Y390608D01*
X324677Y390596D01*
X324679Y390597D01*
X324680Y390596D01*
X324696Y390600D01*
X324956Y390652D01*
X324983Y390666D01*
X325008Y390672D01*
X328027Y391923D01*
X332373Y391923D01*
X336387Y390260D01*
X339460Y387187D01*
X341123Y383173D01*
X341123Y378827D01*
X339460Y374813D01*
X336387Y371740D01*
X332373Y370077D01*
X328027Y370077D01*
G37*
%LPD*%
%LPC*%
G36*
X346618Y642999D02*
X346618Y642999D01*
X340370Y645588D01*
X335588Y650370D01*
X332999Y656618D01*
X332999Y663382D01*
X335588Y669630D01*
X340370Y674412D01*
X346618Y677001D01*
X353382Y677001D01*
X359630Y674412D01*
X364412Y669630D01*
X367001Y663382D01*
X367001Y656618D01*
X364412Y650370D01*
X359630Y645588D01*
X353382Y642999D01*
X346618Y642999D01*
G37*
%LPD*%
%LPC*%
G36*
X26618Y642999D02*
X26618Y642999D01*
X20370Y645588D01*
X15588Y650370D01*
X12999Y656618D01*
X12999Y663382D01*
X15588Y669630D01*
X20370Y674412D01*
X26618Y677001D01*
X33382Y677001D01*
X39630Y674412D01*
X44412Y669630D01*
X47001Y663382D01*
X47001Y656618D01*
X44412Y650370D01*
X39630Y645588D01*
X33382Y642999D01*
X26618Y642999D01*
G37*
%LPD*%
%LPC*%
G36*
X346618Y12999D02*
X346618Y12999D01*
X340370Y15588D01*
X335588Y20370D01*
X332999Y26618D01*
X332999Y33382D01*
X335588Y39630D01*
X340370Y44412D01*
X346618Y47001D01*
X353382Y47001D01*
X359630Y44412D01*
X364412Y39630D01*
X367001Y33382D01*
X367001Y26618D01*
X364412Y20370D01*
X359630Y15588D01*
X353382Y12999D01*
X346618Y12999D01*
G37*
%LPD*%
%LPC*%
G36*
X26618Y12999D02*
X26618Y12999D01*
X20370Y15588D01*
X15588Y20370D01*
X12999Y26618D01*
X12999Y33382D01*
X15588Y39630D01*
X20370Y44412D01*
X26618Y47001D01*
X33382Y47001D01*
X39630Y44412D01*
X44412Y39630D01*
X47001Y33382D01*
X47001Y26618D01*
X44412Y20370D01*
X39630Y15588D01*
X33382Y12999D01*
X26618Y12999D01*
G37*
%LPD*%
%LPC*%
G36*
X351181Y205231D02*
X351181Y205231D01*
X344931Y211481D01*
X344931Y220319D01*
X351397Y226785D01*
X351410Y226792D01*
X351468Y226854D01*
X351532Y226908D01*
X351564Y226957D01*
X351604Y227000D01*
X351643Y227075D01*
X351690Y227145D01*
X351707Y227201D01*
X351734Y227253D01*
X351745Y227321D01*
X351775Y227416D01*
X351778Y227516D01*
X351789Y227584D01*
X351789Y281714D01*
X351781Y281772D01*
X351783Y281830D01*
X351761Y281912D01*
X351749Y281996D01*
X351726Y282049D01*
X351711Y282105D01*
X351668Y282178D01*
X351633Y282255D01*
X351595Y282300D01*
X351566Y282350D01*
X351504Y282408D01*
X351450Y282472D01*
X351401Y282504D01*
X351358Y282544D01*
X351283Y282583D01*
X351213Y282630D01*
X351157Y282647D01*
X351105Y282674D01*
X351037Y282685D01*
X350942Y282715D01*
X350842Y282718D01*
X350774Y282729D01*
X347891Y282729D01*
X345381Y283769D01*
X343459Y285691D01*
X342419Y288201D01*
X342419Y290919D01*
X343459Y293429D01*
X345381Y295351D01*
X347891Y296391D01*
X350609Y296391D01*
X353119Y295351D01*
X355041Y293429D01*
X356081Y290919D01*
X356081Y288201D01*
X355790Y287499D01*
X355790Y287498D01*
X355789Y287497D01*
X355755Y287365D01*
X355719Y287224D01*
X355719Y287223D01*
X355719Y287221D01*
X355723Y287080D01*
X355727Y286940D01*
X355728Y286938D01*
X355728Y286937D01*
X355772Y286799D01*
X355814Y286669D01*
X355815Y286668D01*
X355815Y286666D01*
X355824Y286654D01*
X355972Y286433D01*
X355996Y286413D01*
X356010Y286393D01*
X356871Y285532D01*
X356871Y227584D01*
X356879Y227526D01*
X356877Y227468D01*
X356899Y227386D01*
X356911Y227302D01*
X356934Y227249D01*
X356949Y227193D01*
X356992Y227120D01*
X357027Y227043D01*
X357065Y226998D01*
X357094Y226948D01*
X357156Y226890D01*
X357210Y226826D01*
X357259Y226794D01*
X357302Y226754D01*
X357377Y226715D01*
X357447Y226668D01*
X357503Y226651D01*
X357555Y226624D01*
X357623Y226613D01*
X357718Y226583D01*
X357818Y226580D01*
X357886Y226569D01*
X360019Y226569D01*
X366269Y220319D01*
X366269Y211481D01*
X360019Y205231D01*
X351181Y205231D01*
G37*
%LPD*%
%LPC*%
G36*
X73541Y289969D02*
X73541Y289969D01*
X71031Y291009D01*
X69109Y292931D01*
X68069Y295441D01*
X68069Y298159D01*
X69109Y300669D01*
X71031Y302591D01*
X73541Y303631D01*
X76259Y303631D01*
X78769Y302591D01*
X80706Y300654D01*
X80776Y300602D01*
X80840Y300542D01*
X80889Y300516D01*
X80933Y300483D01*
X81015Y300452D01*
X81093Y300412D01*
X81140Y300404D01*
X81199Y300382D01*
X81347Y300370D01*
X81424Y300357D01*
X153766Y300357D01*
X153853Y300369D01*
X153940Y300372D01*
X153993Y300389D01*
X154048Y300397D01*
X154127Y300432D01*
X154211Y300459D01*
X154250Y300487D01*
X154307Y300513D01*
X154420Y300609D01*
X154484Y300654D01*
X156421Y302591D01*
X158931Y303631D01*
X161649Y303631D01*
X164159Y302591D01*
X166081Y300669D01*
X167121Y298159D01*
X167121Y295441D01*
X166081Y292931D01*
X164159Y291009D01*
X161649Y289969D01*
X158931Y289969D01*
X156421Y291009D01*
X154484Y292946D01*
X154414Y292998D01*
X154350Y293058D01*
X154301Y293084D01*
X154257Y293117D01*
X154175Y293148D01*
X154097Y293188D01*
X154050Y293196D01*
X153991Y293218D01*
X153843Y293230D01*
X153766Y293243D01*
X81424Y293243D01*
X81337Y293231D01*
X81250Y293228D01*
X81197Y293211D01*
X81142Y293203D01*
X81063Y293168D01*
X80979Y293141D01*
X80940Y293113D01*
X80883Y293087D01*
X80770Y292991D01*
X80706Y292946D01*
X78769Y291009D01*
X76259Y289969D01*
X73541Y289969D01*
G37*
%LPD*%
%LPC*%
G36*
X328027Y395477D02*
X328027Y395477D01*
X324013Y397140D01*
X320940Y400213D01*
X319277Y404227D01*
X319277Y408573D01*
X320940Y412587D01*
X324013Y415660D01*
X328027Y417323D01*
X332373Y417323D01*
X336387Y415660D01*
X339460Y412587D01*
X341123Y408573D01*
X341123Y404227D01*
X339460Y400213D01*
X336387Y397140D01*
X332373Y395477D01*
X328027Y395477D01*
G37*
%LPD*%
%LPC*%
G36*
X328027Y344677D02*
X328027Y344677D01*
X324013Y346340D01*
X320940Y349413D01*
X319277Y353427D01*
X319277Y357773D01*
X320940Y361787D01*
X324013Y364860D01*
X328027Y366523D01*
X332373Y366523D01*
X336387Y364860D01*
X339460Y361787D01*
X341123Y357773D01*
X341123Y353427D01*
X339460Y349413D01*
X336387Y346340D01*
X332373Y344677D01*
X328027Y344677D01*
G37*
%LPD*%
%LPC*%
G36*
X328027Y293877D02*
X328027Y293877D01*
X324013Y295540D01*
X320940Y298613D01*
X319277Y302627D01*
X319277Y306973D01*
X320940Y310987D01*
X324013Y314060D01*
X328027Y315723D01*
X332373Y315723D01*
X336387Y314060D01*
X339460Y310987D01*
X341123Y306973D01*
X341123Y302627D01*
X339460Y298613D01*
X336387Y295540D01*
X332373Y293877D01*
X328027Y293877D01*
G37*
%LPD*%
%LPC*%
G36*
X325781Y205231D02*
X325781Y205231D01*
X319531Y211481D01*
X319531Y220319D01*
X325781Y226569D01*
X334619Y226569D01*
X340869Y220319D01*
X340869Y211481D01*
X334619Y205231D01*
X325781Y205231D01*
G37*
%LPD*%
%LPC*%
G36*
X20981Y179831D02*
X20981Y179831D01*
X14731Y186081D01*
X14731Y194919D01*
X20981Y201169D01*
X29819Y201169D01*
X36069Y194919D01*
X36069Y186081D01*
X29819Y179831D01*
X20981Y179831D01*
G37*
%LPD*%
%LPC*%
G36*
X351181Y179831D02*
X351181Y179831D01*
X344931Y186081D01*
X344931Y194919D01*
X351181Y201169D01*
X360019Y201169D01*
X366269Y194919D01*
X366269Y186081D01*
X360019Y179831D01*
X351181Y179831D01*
G37*
%LPD*%
%LPC*%
G36*
X46381Y179831D02*
X46381Y179831D01*
X40131Y186081D01*
X40131Y194919D01*
X46381Y201169D01*
X55219Y201169D01*
X61469Y194919D01*
X61469Y186081D01*
X55219Y179831D01*
X46381Y179831D01*
G37*
%LPD*%
%LPC*%
G36*
X351181Y154431D02*
X351181Y154431D01*
X344931Y160681D01*
X344931Y169519D01*
X351181Y175769D01*
X360019Y175769D01*
X366269Y169519D01*
X366269Y160681D01*
X360019Y154431D01*
X351181Y154431D01*
G37*
%LPD*%
%LPC*%
G36*
X46381Y154431D02*
X46381Y154431D01*
X40131Y160681D01*
X40131Y169519D01*
X46381Y175769D01*
X55219Y175769D01*
X61469Y169519D01*
X61469Y160681D01*
X55219Y154431D01*
X46381Y154431D01*
G37*
%LPD*%
%LPC*%
G36*
X20981Y154431D02*
X20981Y154431D01*
X14731Y160681D01*
X14731Y169519D01*
X20981Y175769D01*
X29819Y175769D01*
X36069Y169519D01*
X36069Y160681D01*
X29819Y154431D01*
X20981Y154431D01*
G37*
%LPD*%
%LPC*%
G36*
X46381Y129031D02*
X46381Y129031D01*
X40131Y135281D01*
X40131Y144119D01*
X46381Y150369D01*
X55219Y150369D01*
X61469Y144119D01*
X61469Y135281D01*
X55219Y129031D01*
X46381Y129031D01*
G37*
%LPD*%
%LPC*%
G36*
X20981Y129031D02*
X20981Y129031D01*
X14731Y135281D01*
X14731Y144119D01*
X20981Y150369D01*
X29819Y150369D01*
X36069Y144119D01*
X36069Y135281D01*
X29819Y129031D01*
X20981Y129031D01*
G37*
%LPD*%
%LPC*%
G36*
X46381Y205231D02*
X46381Y205231D01*
X40131Y211481D01*
X40131Y220319D01*
X46381Y226569D01*
X55219Y226569D01*
X61469Y220319D01*
X61469Y211481D01*
X55219Y205231D01*
X46381Y205231D01*
G37*
%LPD*%
%LPC*%
G36*
X351181Y129031D02*
X351181Y129031D01*
X344931Y135281D01*
X344931Y144119D01*
X351181Y150369D01*
X360019Y150369D01*
X366269Y144119D01*
X366269Y135281D01*
X360019Y129031D01*
X351181Y129031D01*
G37*
%LPD*%
%LPC*%
G36*
X50429Y287148D02*
X50429Y287148D01*
X46928Y288599D01*
X44249Y291278D01*
X42798Y294779D01*
X42798Y298569D01*
X44249Y302070D01*
X46928Y304749D01*
X50429Y306200D01*
X54219Y306200D01*
X57720Y304749D01*
X60399Y302070D01*
X61850Y298569D01*
X61850Y294779D01*
X60399Y291278D01*
X57720Y288599D01*
X54219Y287148D01*
X50429Y287148D01*
G37*
%LPD*%
%LPC*%
G36*
X332231Y332231D02*
X332231Y332231D01*
X332231Y341966D01*
X332996Y341845D01*
X334783Y341264D01*
X336457Y340411D01*
X337978Y339306D01*
X339306Y337978D01*
X340411Y336457D01*
X341264Y334783D01*
X341845Y332996D01*
X341966Y332231D01*
X332231Y332231D01*
G37*
%LPD*%
%LPC*%
G36*
X318434Y332231D02*
X318434Y332231D01*
X318555Y332996D01*
X319136Y334783D01*
X319989Y336457D01*
X321094Y337978D01*
X322422Y339306D01*
X323943Y340411D01*
X325617Y341264D01*
X327404Y341845D01*
X328169Y341966D01*
X328169Y332231D01*
X318434Y332231D01*
G37*
%LPD*%
%LPC*%
G36*
X332231Y328169D02*
X332231Y328169D01*
X341966Y328169D01*
X341845Y327404D01*
X341264Y325617D01*
X340411Y323943D01*
X339306Y322422D01*
X337978Y321094D01*
X336457Y319989D01*
X334783Y319136D01*
X332996Y318555D01*
X332231Y318434D01*
X332231Y328169D01*
G37*
%LPD*%
%LPC*%
G36*
X327404Y318555D02*
X327404Y318555D01*
X325617Y319136D01*
X323943Y319989D01*
X322422Y321094D01*
X321094Y322422D01*
X319989Y323943D01*
X319136Y325617D01*
X318555Y327404D01*
X318434Y328169D01*
X328169Y328169D01*
X328169Y318434D01*
X327404Y318555D01*
G37*
%LPD*%
%LPC*%
G36*
X28955Y298705D02*
X28955Y298705D01*
X28955Y307216D01*
X31291Y307216D01*
X37466Y301041D01*
X37466Y298705D01*
X28955Y298705D01*
G37*
%LPD*%
%LPC*%
G36*
X16382Y298705D02*
X16382Y298705D01*
X16382Y301041D01*
X22557Y307216D01*
X24893Y307216D01*
X24893Y298705D01*
X16382Y298705D01*
G37*
%LPD*%
%LPC*%
G36*
X28955Y286132D02*
X28955Y286132D01*
X28955Y294643D01*
X37466Y294643D01*
X37466Y292307D01*
X31291Y286132D01*
X28955Y286132D01*
G37*
%LPD*%
%LPC*%
G36*
X22557Y286132D02*
X22557Y286132D01*
X16382Y292307D01*
X16382Y294643D01*
X24893Y294643D01*
X24893Y286132D01*
X22557Y286132D01*
G37*
%LPD*%
%LPC*%
G36*
X330199Y330199D02*
X330199Y330199D01*
X330199Y330201D01*
X330201Y330201D01*
X330201Y330199D01*
X330199Y330199D01*
G37*
%LPD*%
%LPC*%
G36*
X26923Y296673D02*
X26923Y296673D01*
X26923Y296675D01*
X26925Y296675D01*
X26925Y296673D01*
X26923Y296673D01*
G37*
%LPD*%
%LPC*%
G36*
X245499Y64149D02*
X245499Y64149D01*
X245499Y64151D01*
X245501Y64151D01*
X245501Y64149D01*
X245499Y64149D01*
G37*
%LPD*%
D10*
X25400Y215900D03*
X50800Y215900D03*
X25400Y190500D03*
X50800Y190500D03*
X25400Y165100D03*
X50800Y165100D03*
X25400Y139700D03*
X50800Y139700D03*
D11*
X355600Y139700D03*
X330200Y139700D03*
X355600Y165100D03*
X330200Y165100D03*
X355600Y190500D03*
X330200Y190500D03*
X355600Y215900D03*
X330200Y215900D03*
D12*
X245500Y64150D03*
X135500Y64150D03*
D13*
X26924Y296674D03*
D14*
X52324Y296674D03*
D15*
X330200Y406400D03*
X330200Y381000D03*
X330200Y355600D03*
X330200Y330200D03*
X330200Y304800D03*
D16*
X160290Y296800D03*
D17*
X74900Y296800D01*
D16*
X74900Y296800D03*
X201270Y277220D03*
X114000Y276000D03*
X77300Y59200D03*
X343490Y229520D03*
D17*
X218210Y91440D02*
X245500Y64150D01*
D16*
X199390Y91440D03*
D17*
X218210Y91440D01*
D18*
X343490Y229520D02*
X343490Y233330D01*
D17*
X312420Y264400D01*
X312420Y312420D02*
X330200Y330200D01*
X312420Y312420D02*
X312420Y264400D01*
X202664Y278614D02*
X202664Y333276D01*
D18*
X202664Y278614D02*
X201270Y277220D01*
D17*
X202664Y333276D02*
X193040Y342900D01*
X114000Y276000D02*
X113540Y275540D01*
X64760Y275540D01*
X201270Y277220D02*
X201270Y93320D01*
X199390Y91440D01*
D16*
X139700Y444500D03*
D18*
X128270Y444500D01*
X26924Y343154D01*
D16*
X299260Y229250D03*
D18*
X299372Y229362D01*
D17*
X343332Y229362D01*
D18*
X343490Y229520D01*
D16*
X86614Y454406D03*
D18*
X86614Y415544D01*
X19050Y347980D01*
X19050Y305250D01*
D16*
X64760Y275540D03*
D17*
X26924Y296674D02*
X26924Y297376D01*
D18*
X19050Y305250D01*
D17*
X26924Y296674D02*
X73150Y342900D01*
X193040Y342900D01*
D18*
X26924Y343154D02*
X26924Y296674D01*
D16*
X158674Y400983D03*
D19*
X171711Y414020D01*
X291338Y414020D01*
D16*
X309118Y431800D03*
D19*
X291338Y414020D01*
D16*
X329565Y520065D03*
D19*
X329565Y520700D01*
D18*
X304800Y520700D01*
D16*
X304800Y520700D03*
D18*
X266700Y520700D01*
D16*
X266700Y520700D03*
D18*
X228600Y520700D01*
D16*
X228600Y520700D03*
D18*
X190500Y520700D01*
D16*
X190500Y520700D03*
D18*
X152400Y520700D01*
D16*
X152400Y520700D03*
D18*
X115570Y520700D01*
D19*
X114300Y521970D01*
D16*
X114300Y521970D03*
D19*
X113030Y520700D01*
D18*
X76200Y520700D01*
D16*
X76200Y520700D03*
X232636Y371100D03*
D19*
X232636Y355860D01*
X290604Y297892D01*
X290604Y217730D02*
X317834Y190500D01*
X330200Y190500D01*
X290604Y217730D02*
X290604Y297892D01*
D16*
X208280Y370840D03*
D19*
X208280Y363220D01*
X278130Y293370D01*
X278130Y194310D01*
X330200Y142240D02*
X330200Y139700D01*
X330200Y142240D02*
X278130Y194310D01*
D16*
X220980Y364490D03*
D19*
X220980Y359410D02*
X284480Y295910D01*
X220980Y359410D02*
X220980Y364490D01*
X284480Y295910D02*
X284480Y205740D01*
X325120Y165100D01*
X330200Y165100D01*
D16*
X76200Y571500D03*
D18*
X114300Y571500D01*
D16*
X114300Y571500D03*
X152400Y571500D03*
D18*
X114300Y571500D01*
D16*
X190500Y571500D03*
D18*
X152400Y571500D01*
D16*
X228600Y571500D03*
D18*
X190500Y571500D01*
D16*
X266700Y571500D03*
D18*
X228600Y571500D01*
D16*
X304800Y571500D03*
D18*
X266700Y571500D01*
D16*
X287020Y425450D03*
D19*
X254000Y425450D01*
X229870Y449580D01*
D16*
X229870Y449580D03*
X175260Y401320D03*
D19*
X179070Y397510D02*
X313690Y397510D01*
X179070Y397510D02*
X175260Y401320D01*
X313690Y397510D02*
X330200Y381000D01*
D16*
X349250Y289560D03*
D19*
X354330Y284480D01*
X354330Y217170D01*
X355600Y215900D01*
D16*
X184150Y276860D03*
D19*
X156210Y276860D01*
X110490Y231140D01*
X40640Y231140D02*
X25400Y215900D01*
X40640Y231140D02*
X110490Y231140D01*
D17*
X135500Y76590D02*
X135500Y64150D01*
X135500Y76590D02*
X90170Y121920D01*
X76200Y121920D01*
D16*
X76200Y121920D03*
M02*
