M48
;GenerationSoftware,Autodesk,EAGLE,9.6.1*%
;CreationDate,2024-09-01T11:12:01Z*%
FMAT,2
ICI,OFF
METRIC,TZ,000.000
T5C0.350
T4C0.813
T3C1.016
T2C2.000
T1C3.000
%
G90
M71
T1
X3000Y3000
X3000Y66000
X35000Y66000
X35000Y3000
T2
X29500Y10840
T3
X35560Y21590
X2540Y21590
X5080Y21590
X2540Y19050
X5080Y19050
X2540Y16510
X5080Y16510
X2540Y13970
X5080Y13970
X35560Y13970
X33020Y13970
X35560Y16510
X33020Y16510
X35560Y19050
X33020Y19050
X33020Y21590
X33020Y40640
X33020Y38100
X33020Y35560
X33020Y33020
X33020Y30480
T4
X2692Y29667
X5232Y29667
T5
X22860Y57150
X26670Y57150
X30480Y57150
X28702Y42545
X29926Y22925
X17526Y40132
X34925Y28956
X18415Y27686
X7620Y12192
X16029Y29680
X7490Y29680
X20127Y27722
X22987Y44958
X11400Y27600
X7730Y5920
X34349Y22952
X19939Y9144
X13970Y44450
X8661Y45441
X6476Y27554
X15867Y40098
X30912Y43180
X32957Y52006
X30480Y52070
X26670Y52070
X22860Y52070
X19050Y52070
X15240Y52070
X7620Y57150
X11430Y52197
X7620Y52070
X23264Y37110
X20828Y37084
X22098Y36449
X11430Y57150
X15240Y57150
X19050Y57150
M30