G04 EAGLE Gerber RS-274X export*
G75*
%MOMM*%
%FSLAX34Y34*%
%LPD*%
%INSilkscreen Bottom*%
%IPPOS*%
%AMOC8*
5,1,8,0,0,1.08239X$1,22.5*%
G01*
%ADD10C,0.076200*%
%ADD11C,0.127000*%
%ADD12C,0.152400*%


D10*
X37973Y482981D02*
X45339Y482981D01*
X45339Y485027D01*
X45337Y485116D01*
X45331Y485205D01*
X45321Y485294D01*
X45308Y485382D01*
X45291Y485470D01*
X45269Y485557D01*
X45244Y485642D01*
X45216Y485727D01*
X45183Y485810D01*
X45147Y485892D01*
X45108Y485972D01*
X45065Y486050D01*
X45019Y486126D01*
X44969Y486201D01*
X44916Y486273D01*
X44860Y486342D01*
X44801Y486409D01*
X44740Y486474D01*
X44675Y486535D01*
X44608Y486594D01*
X44539Y486650D01*
X44467Y486703D01*
X44392Y486753D01*
X44316Y486799D01*
X44238Y486842D01*
X44158Y486881D01*
X44076Y486917D01*
X43993Y486950D01*
X43908Y486978D01*
X43823Y487003D01*
X43736Y487025D01*
X43648Y487042D01*
X43560Y487055D01*
X43471Y487065D01*
X43382Y487071D01*
X43293Y487073D01*
X43204Y487071D01*
X43115Y487065D01*
X43026Y487055D01*
X42938Y487042D01*
X42850Y487025D01*
X42763Y487003D01*
X42678Y486978D01*
X42593Y486950D01*
X42510Y486917D01*
X42428Y486881D01*
X42348Y486842D01*
X42270Y486799D01*
X42194Y486753D01*
X42119Y486703D01*
X42047Y486650D01*
X41978Y486594D01*
X41911Y486535D01*
X41846Y486474D01*
X41785Y486409D01*
X41726Y486342D01*
X41670Y486273D01*
X41617Y486201D01*
X41567Y486126D01*
X41521Y486050D01*
X41478Y485972D01*
X41439Y485892D01*
X41403Y485810D01*
X41370Y485727D01*
X41342Y485642D01*
X41317Y485557D01*
X41295Y485470D01*
X41278Y485382D01*
X41265Y485294D01*
X41255Y485205D01*
X41249Y485116D01*
X41247Y485027D01*
X41247Y482981D01*
X41247Y489856D02*
X39610Y489856D01*
X41247Y489856D02*
X41326Y489858D01*
X41405Y489864D01*
X41484Y489873D01*
X41562Y489886D01*
X41639Y489904D01*
X41715Y489924D01*
X41790Y489949D01*
X41864Y489977D01*
X41937Y490008D01*
X42008Y490044D01*
X42077Y490082D01*
X42144Y490124D01*
X42209Y490169D01*
X42272Y490217D01*
X42333Y490268D01*
X42390Y490322D01*
X42446Y490378D01*
X42498Y490437D01*
X42548Y490499D01*
X42594Y490563D01*
X42638Y490629D01*
X42678Y490697D01*
X42714Y490767D01*
X42748Y490839D01*
X42778Y490913D01*
X42804Y490987D01*
X42827Y491063D01*
X42845Y491140D01*
X42861Y491217D01*
X42872Y491296D01*
X42880Y491374D01*
X42884Y491453D01*
X42884Y491533D01*
X42880Y491612D01*
X42872Y491690D01*
X42861Y491769D01*
X42845Y491846D01*
X42827Y491923D01*
X42804Y491999D01*
X42778Y492073D01*
X42748Y492147D01*
X42714Y492219D01*
X42678Y492289D01*
X42638Y492357D01*
X42594Y492423D01*
X42548Y492487D01*
X42498Y492549D01*
X42446Y492608D01*
X42390Y492664D01*
X42333Y492718D01*
X42272Y492769D01*
X42209Y492817D01*
X42144Y492862D01*
X42077Y492904D01*
X42008Y492942D01*
X41937Y492978D01*
X41864Y493009D01*
X41790Y493037D01*
X41715Y493062D01*
X41639Y493082D01*
X41562Y493100D01*
X41484Y493113D01*
X41405Y493122D01*
X41326Y493128D01*
X41247Y493130D01*
X39610Y493130D01*
X39531Y493128D01*
X39452Y493122D01*
X39373Y493113D01*
X39295Y493100D01*
X39218Y493082D01*
X39142Y493062D01*
X39067Y493037D01*
X38993Y493009D01*
X38920Y492978D01*
X38849Y492942D01*
X38780Y492904D01*
X38713Y492862D01*
X38648Y492817D01*
X38585Y492769D01*
X38524Y492718D01*
X38467Y492664D01*
X38411Y492608D01*
X38359Y492549D01*
X38309Y492487D01*
X38263Y492423D01*
X38219Y492357D01*
X38179Y492289D01*
X38143Y492219D01*
X38109Y492147D01*
X38079Y492073D01*
X38053Y491999D01*
X38030Y491923D01*
X38012Y491846D01*
X37996Y491769D01*
X37985Y491690D01*
X37977Y491612D01*
X37973Y491533D01*
X37973Y491453D01*
X37977Y491374D01*
X37985Y491296D01*
X37996Y491217D01*
X38012Y491140D01*
X38030Y491063D01*
X38053Y490987D01*
X38079Y490913D01*
X38109Y490839D01*
X38143Y490767D01*
X38179Y490697D01*
X38219Y490629D01*
X38263Y490563D01*
X38309Y490499D01*
X38359Y490437D01*
X38411Y490378D01*
X38467Y490322D01*
X38524Y490268D01*
X38585Y490217D01*
X38648Y490169D01*
X38713Y490124D01*
X38780Y490082D01*
X38849Y490044D01*
X38920Y490008D01*
X38993Y489977D01*
X39067Y489949D01*
X39142Y489924D01*
X39218Y489904D01*
X39295Y489886D01*
X39373Y489873D01*
X39452Y489864D01*
X39531Y489858D01*
X39610Y489856D01*
X37973Y496597D02*
X42884Y496597D01*
X42884Y500280D01*
X42882Y500349D01*
X42876Y500417D01*
X42867Y500486D01*
X42853Y500553D01*
X42836Y500620D01*
X42815Y500686D01*
X42791Y500750D01*
X42762Y500813D01*
X42731Y500874D01*
X42696Y500933D01*
X42658Y500991D01*
X42616Y501046D01*
X42572Y501098D01*
X42524Y501148D01*
X42474Y501196D01*
X42422Y501240D01*
X42367Y501282D01*
X42309Y501320D01*
X42250Y501355D01*
X42189Y501386D01*
X42126Y501415D01*
X42062Y501439D01*
X41996Y501460D01*
X41929Y501477D01*
X41862Y501491D01*
X41793Y501500D01*
X41725Y501506D01*
X41656Y501508D01*
X41656Y501507D02*
X37973Y501507D01*
X37973Y499052D02*
X42884Y499052D01*
X41247Y504974D02*
X39610Y504974D01*
X41247Y504974D02*
X41326Y504976D01*
X41405Y504982D01*
X41484Y504991D01*
X41562Y505004D01*
X41639Y505022D01*
X41715Y505042D01*
X41790Y505067D01*
X41864Y505095D01*
X41937Y505126D01*
X42008Y505162D01*
X42077Y505200D01*
X42144Y505242D01*
X42209Y505287D01*
X42272Y505335D01*
X42333Y505386D01*
X42390Y505440D01*
X42446Y505496D01*
X42498Y505555D01*
X42548Y505617D01*
X42594Y505681D01*
X42638Y505747D01*
X42678Y505815D01*
X42714Y505885D01*
X42748Y505957D01*
X42778Y506031D01*
X42804Y506105D01*
X42827Y506181D01*
X42845Y506258D01*
X42861Y506335D01*
X42872Y506414D01*
X42880Y506492D01*
X42884Y506571D01*
X42884Y506651D01*
X42880Y506730D01*
X42872Y506808D01*
X42861Y506887D01*
X42845Y506964D01*
X42827Y507041D01*
X42804Y507117D01*
X42778Y507191D01*
X42748Y507265D01*
X42714Y507337D01*
X42678Y507407D01*
X42638Y507475D01*
X42594Y507541D01*
X42548Y507605D01*
X42498Y507667D01*
X42446Y507726D01*
X42390Y507782D01*
X42333Y507836D01*
X42272Y507887D01*
X42209Y507935D01*
X42144Y507980D01*
X42077Y508022D01*
X42008Y508060D01*
X41937Y508096D01*
X41864Y508127D01*
X41790Y508155D01*
X41715Y508180D01*
X41639Y508200D01*
X41562Y508218D01*
X41484Y508231D01*
X41405Y508240D01*
X41326Y508246D01*
X41247Y508248D01*
X39610Y508248D01*
X39531Y508246D01*
X39452Y508240D01*
X39373Y508231D01*
X39295Y508218D01*
X39218Y508200D01*
X39142Y508180D01*
X39067Y508155D01*
X38993Y508127D01*
X38920Y508096D01*
X38849Y508060D01*
X38780Y508022D01*
X38713Y507980D01*
X38648Y507935D01*
X38585Y507887D01*
X38524Y507836D01*
X38467Y507782D01*
X38411Y507726D01*
X38359Y507667D01*
X38309Y507605D01*
X38263Y507541D01*
X38219Y507475D01*
X38179Y507407D01*
X38143Y507337D01*
X38109Y507265D01*
X38079Y507191D01*
X38053Y507117D01*
X38030Y507041D01*
X38012Y506964D01*
X37996Y506887D01*
X37985Y506808D01*
X37977Y506730D01*
X37973Y506651D01*
X37973Y506571D01*
X37977Y506492D01*
X37985Y506414D01*
X37996Y506335D01*
X38012Y506258D01*
X38030Y506181D01*
X38053Y506105D01*
X38079Y506031D01*
X38109Y505957D01*
X38143Y505885D01*
X38179Y505815D01*
X38219Y505747D01*
X38263Y505681D01*
X38309Y505617D01*
X38359Y505555D01*
X38411Y505496D01*
X38467Y505440D01*
X38524Y505386D01*
X38585Y505335D01*
X38648Y505287D01*
X38713Y505242D01*
X38780Y505200D01*
X38849Y505162D01*
X38920Y505126D01*
X38993Y505095D01*
X39067Y505067D01*
X39142Y505042D01*
X39218Y505022D01*
X39295Y505004D01*
X39373Y504991D01*
X39452Y504982D01*
X39531Y504976D01*
X39610Y504974D01*
X37973Y514547D02*
X45339Y514547D01*
X37973Y514547D02*
X37973Y512501D01*
X37975Y512432D01*
X37981Y512364D01*
X37990Y512295D01*
X38004Y512228D01*
X38021Y512161D01*
X38042Y512095D01*
X38066Y512031D01*
X38095Y511968D01*
X38126Y511907D01*
X38161Y511848D01*
X38199Y511790D01*
X38241Y511735D01*
X38285Y511683D01*
X38333Y511633D01*
X38383Y511585D01*
X38435Y511541D01*
X38490Y511499D01*
X38548Y511461D01*
X38607Y511426D01*
X38668Y511395D01*
X38731Y511366D01*
X38795Y511342D01*
X38861Y511321D01*
X38928Y511304D01*
X38995Y511290D01*
X39064Y511281D01*
X39132Y511275D01*
X39201Y511273D01*
X41656Y511273D01*
X41725Y511275D01*
X41793Y511281D01*
X41862Y511290D01*
X41929Y511304D01*
X41996Y511321D01*
X42062Y511342D01*
X42126Y511366D01*
X42189Y511395D01*
X42250Y511426D01*
X42309Y511461D01*
X42367Y511499D01*
X42422Y511541D01*
X42474Y511585D01*
X42524Y511633D01*
X42572Y511683D01*
X42616Y511735D01*
X42658Y511790D01*
X42696Y511848D01*
X42731Y511907D01*
X42762Y511968D01*
X42791Y512031D01*
X42815Y512095D01*
X42836Y512161D01*
X42853Y512228D01*
X42867Y512295D01*
X42876Y512364D01*
X42882Y512432D01*
X42884Y512501D01*
X42884Y514547D01*
X41247Y517898D02*
X39610Y517898D01*
X41247Y517898D02*
X41326Y517900D01*
X41405Y517906D01*
X41484Y517915D01*
X41562Y517928D01*
X41639Y517946D01*
X41715Y517966D01*
X41790Y517991D01*
X41864Y518019D01*
X41937Y518050D01*
X42008Y518086D01*
X42077Y518124D01*
X42144Y518166D01*
X42209Y518211D01*
X42272Y518259D01*
X42333Y518310D01*
X42390Y518364D01*
X42446Y518420D01*
X42498Y518479D01*
X42548Y518541D01*
X42594Y518605D01*
X42638Y518671D01*
X42678Y518739D01*
X42714Y518809D01*
X42748Y518881D01*
X42778Y518955D01*
X42804Y519029D01*
X42827Y519105D01*
X42845Y519182D01*
X42861Y519259D01*
X42872Y519338D01*
X42880Y519416D01*
X42884Y519495D01*
X42884Y519575D01*
X42880Y519654D01*
X42872Y519732D01*
X42861Y519811D01*
X42845Y519888D01*
X42827Y519965D01*
X42804Y520041D01*
X42778Y520115D01*
X42748Y520189D01*
X42714Y520261D01*
X42678Y520331D01*
X42638Y520399D01*
X42594Y520465D01*
X42548Y520529D01*
X42498Y520591D01*
X42446Y520650D01*
X42390Y520706D01*
X42333Y520760D01*
X42272Y520811D01*
X42209Y520859D01*
X42144Y520904D01*
X42077Y520946D01*
X42008Y520984D01*
X41937Y521020D01*
X41864Y521051D01*
X41790Y521079D01*
X41715Y521104D01*
X41639Y521124D01*
X41562Y521142D01*
X41484Y521155D01*
X41405Y521164D01*
X41326Y521170D01*
X41247Y521172D01*
X41247Y521171D02*
X39610Y521171D01*
X39610Y521172D02*
X39531Y521170D01*
X39452Y521164D01*
X39373Y521155D01*
X39295Y521142D01*
X39218Y521124D01*
X39142Y521104D01*
X39067Y521079D01*
X38993Y521051D01*
X38920Y521020D01*
X38849Y520984D01*
X38780Y520946D01*
X38713Y520904D01*
X38648Y520859D01*
X38585Y520811D01*
X38524Y520760D01*
X38467Y520706D01*
X38411Y520650D01*
X38359Y520591D01*
X38309Y520529D01*
X38263Y520465D01*
X38219Y520399D01*
X38179Y520331D01*
X38143Y520261D01*
X38109Y520189D01*
X38079Y520115D01*
X38053Y520041D01*
X38030Y519965D01*
X38012Y519888D01*
X37996Y519811D01*
X37985Y519732D01*
X37977Y519654D01*
X37973Y519575D01*
X37973Y519495D01*
X37977Y519416D01*
X37985Y519338D01*
X37996Y519259D01*
X38012Y519182D01*
X38030Y519105D01*
X38053Y519029D01*
X38079Y518955D01*
X38109Y518881D01*
X38143Y518809D01*
X38179Y518739D01*
X38219Y518671D01*
X38263Y518605D01*
X38309Y518541D01*
X38359Y518479D01*
X38411Y518420D01*
X38467Y518364D01*
X38524Y518310D01*
X38585Y518259D01*
X38648Y518211D01*
X38713Y518166D01*
X38780Y518124D01*
X38849Y518086D01*
X38920Y518050D01*
X38993Y518019D01*
X39067Y517991D01*
X39142Y517966D01*
X39218Y517946D01*
X39295Y517928D01*
X39373Y517915D01*
X39452Y517906D01*
X39531Y517900D01*
X39610Y517898D01*
X37973Y524528D02*
X42884Y524528D01*
X42884Y526983D01*
X42065Y526983D01*
X41247Y529358D02*
X39610Y529358D01*
X41247Y529358D02*
X41326Y529360D01*
X41405Y529366D01*
X41484Y529375D01*
X41562Y529388D01*
X41639Y529406D01*
X41715Y529426D01*
X41790Y529451D01*
X41864Y529479D01*
X41937Y529510D01*
X42008Y529546D01*
X42077Y529584D01*
X42144Y529626D01*
X42209Y529671D01*
X42272Y529719D01*
X42333Y529770D01*
X42390Y529824D01*
X42446Y529880D01*
X42498Y529939D01*
X42548Y530001D01*
X42594Y530065D01*
X42638Y530131D01*
X42678Y530199D01*
X42714Y530269D01*
X42748Y530341D01*
X42778Y530415D01*
X42804Y530489D01*
X42827Y530565D01*
X42845Y530642D01*
X42861Y530719D01*
X42872Y530798D01*
X42880Y530876D01*
X42884Y530955D01*
X42884Y531035D01*
X42880Y531114D01*
X42872Y531192D01*
X42861Y531271D01*
X42845Y531348D01*
X42827Y531425D01*
X42804Y531501D01*
X42778Y531575D01*
X42748Y531649D01*
X42714Y531721D01*
X42678Y531791D01*
X42638Y531859D01*
X42594Y531925D01*
X42548Y531989D01*
X42498Y532051D01*
X42446Y532110D01*
X42390Y532166D01*
X42333Y532220D01*
X42272Y532271D01*
X42209Y532319D01*
X42144Y532364D01*
X42077Y532406D01*
X42008Y532444D01*
X41937Y532480D01*
X41864Y532511D01*
X41790Y532539D01*
X41715Y532564D01*
X41639Y532584D01*
X41562Y532602D01*
X41484Y532615D01*
X41405Y532624D01*
X41326Y532630D01*
X41247Y532632D01*
X39610Y532632D01*
X39531Y532630D01*
X39452Y532624D01*
X39373Y532615D01*
X39295Y532602D01*
X39218Y532584D01*
X39142Y532564D01*
X39067Y532539D01*
X38993Y532511D01*
X38920Y532480D01*
X38849Y532444D01*
X38780Y532406D01*
X38713Y532364D01*
X38648Y532319D01*
X38585Y532271D01*
X38524Y532220D01*
X38467Y532166D01*
X38411Y532110D01*
X38359Y532051D01*
X38309Y531989D01*
X38263Y531925D01*
X38219Y531859D01*
X38179Y531791D01*
X38143Y531721D01*
X38109Y531649D01*
X38079Y531575D01*
X38053Y531501D01*
X38030Y531425D01*
X38012Y531348D01*
X37996Y531271D01*
X37985Y531192D01*
X37977Y531114D01*
X37973Y531035D01*
X37973Y530955D01*
X37977Y530876D01*
X37985Y530798D01*
X37996Y530719D01*
X38012Y530642D01*
X38030Y530565D01*
X38053Y530489D01*
X38079Y530415D01*
X38109Y530341D01*
X38143Y530269D01*
X38179Y530199D01*
X38219Y530131D01*
X38263Y530065D01*
X38309Y530001D01*
X38359Y529939D01*
X38411Y529880D01*
X38467Y529824D01*
X38524Y529770D01*
X38585Y529719D01*
X38648Y529671D01*
X38713Y529626D01*
X38780Y529584D01*
X38849Y529546D01*
X38920Y529510D01*
X38993Y529479D01*
X39067Y529451D01*
X39142Y529426D01*
X39218Y529406D01*
X39295Y529388D01*
X39373Y529375D01*
X39452Y529366D01*
X39531Y529360D01*
X39610Y529358D01*
X37973Y541236D02*
X45339Y541236D01*
X45339Y539190D02*
X45339Y543282D01*
X42884Y545869D02*
X37973Y545869D01*
X44930Y545665D02*
X45339Y545665D01*
X45339Y546074D01*
X44930Y546074D01*
X44930Y545665D01*
X42884Y549266D02*
X37973Y549266D01*
X42884Y549266D02*
X42884Y552949D01*
X42882Y553018D01*
X42876Y553086D01*
X42867Y553155D01*
X42853Y553222D01*
X42836Y553289D01*
X42815Y553355D01*
X42791Y553419D01*
X42762Y553482D01*
X42731Y553543D01*
X42696Y553602D01*
X42658Y553660D01*
X42616Y553715D01*
X42572Y553767D01*
X42524Y553817D01*
X42474Y553865D01*
X42422Y553909D01*
X42367Y553951D01*
X42309Y553989D01*
X42250Y554024D01*
X42189Y554055D01*
X42126Y554084D01*
X42062Y554108D01*
X41996Y554129D01*
X41929Y554146D01*
X41862Y554160D01*
X41793Y554169D01*
X41725Y554175D01*
X41656Y554177D01*
X37973Y554177D01*
X37973Y551721D02*
X42884Y551721D01*
X37973Y558871D02*
X37973Y560917D01*
X37973Y558871D02*
X37975Y558802D01*
X37981Y558734D01*
X37990Y558665D01*
X38004Y558598D01*
X38021Y558531D01*
X38042Y558465D01*
X38066Y558401D01*
X38095Y558338D01*
X38126Y558277D01*
X38161Y558218D01*
X38199Y558160D01*
X38241Y558105D01*
X38285Y558053D01*
X38333Y558003D01*
X38383Y557955D01*
X38435Y557911D01*
X38490Y557869D01*
X38548Y557831D01*
X38607Y557796D01*
X38668Y557765D01*
X38731Y557736D01*
X38795Y557712D01*
X38861Y557691D01*
X38928Y557674D01*
X38995Y557660D01*
X39064Y557651D01*
X39132Y557645D01*
X39201Y557643D01*
X41247Y557643D01*
X41326Y557645D01*
X41405Y557651D01*
X41484Y557660D01*
X41562Y557673D01*
X41639Y557691D01*
X41715Y557711D01*
X41790Y557736D01*
X41864Y557764D01*
X41937Y557795D01*
X42008Y557831D01*
X42077Y557869D01*
X42144Y557911D01*
X42209Y557956D01*
X42272Y558004D01*
X42333Y558055D01*
X42390Y558109D01*
X42446Y558165D01*
X42498Y558224D01*
X42548Y558286D01*
X42594Y558350D01*
X42638Y558416D01*
X42678Y558484D01*
X42714Y558554D01*
X42748Y558626D01*
X42778Y558700D01*
X42804Y558774D01*
X42827Y558850D01*
X42845Y558927D01*
X42861Y559004D01*
X42872Y559083D01*
X42880Y559161D01*
X42884Y559240D01*
X42884Y559320D01*
X42880Y559399D01*
X42872Y559477D01*
X42861Y559556D01*
X42845Y559633D01*
X42827Y559710D01*
X42804Y559786D01*
X42778Y559860D01*
X42748Y559934D01*
X42714Y560006D01*
X42678Y560076D01*
X42638Y560144D01*
X42594Y560210D01*
X42548Y560274D01*
X42498Y560336D01*
X42446Y560395D01*
X42390Y560451D01*
X42333Y560505D01*
X42272Y560556D01*
X42209Y560604D01*
X42144Y560649D01*
X42077Y560691D01*
X42008Y560729D01*
X41937Y560765D01*
X41864Y560796D01*
X41790Y560824D01*
X41715Y560849D01*
X41639Y560869D01*
X41562Y560887D01*
X41484Y560900D01*
X41405Y560909D01*
X41326Y560915D01*
X41247Y560917D01*
X40428Y560917D01*
X40428Y557643D01*
X37973Y564273D02*
X42884Y564273D01*
X42884Y566729D01*
X42065Y566729D01*
X42884Y572761D02*
X37973Y574398D01*
X42884Y576035D01*
X43702Y578936D02*
X45339Y580982D01*
X37973Y580982D01*
X37973Y578936D02*
X37973Y583028D01*
X37973Y585898D02*
X38382Y585898D01*
X38382Y586307D01*
X37973Y586307D01*
X37973Y585898D01*
X41656Y589177D02*
X41809Y589179D01*
X41962Y589185D01*
X42114Y589194D01*
X42267Y589208D01*
X42419Y589225D01*
X42570Y589246D01*
X42721Y589271D01*
X42871Y589300D01*
X43021Y589332D01*
X43169Y589369D01*
X43317Y589409D01*
X43464Y589452D01*
X43609Y589500D01*
X43753Y589551D01*
X43896Y589605D01*
X44038Y589664D01*
X44177Y589725D01*
X44316Y589791D01*
X44386Y589817D01*
X44456Y589847D01*
X44523Y589880D01*
X44589Y589916D01*
X44653Y589955D01*
X44715Y589998D01*
X44774Y590044D01*
X44832Y590092D01*
X44886Y590143D01*
X44939Y590197D01*
X44988Y590254D01*
X45035Y590313D01*
X45078Y590374D01*
X45119Y590437D01*
X45156Y590502D01*
X45191Y590569D01*
X45221Y590638D01*
X45249Y590708D01*
X45272Y590779D01*
X45293Y590851D01*
X45309Y590924D01*
X45322Y590998D01*
X45332Y591073D01*
X45337Y591148D01*
X45339Y591223D01*
X45337Y591298D01*
X45332Y591373D01*
X45322Y591448D01*
X45309Y591522D01*
X45293Y591595D01*
X45272Y591667D01*
X45249Y591738D01*
X45221Y591808D01*
X45191Y591877D01*
X45156Y591944D01*
X45119Y592009D01*
X45078Y592072D01*
X45035Y592133D01*
X44988Y592192D01*
X44939Y592249D01*
X44886Y592303D01*
X44832Y592354D01*
X44774Y592403D01*
X44715Y592448D01*
X44653Y592491D01*
X44589Y592530D01*
X44523Y592567D01*
X44455Y592599D01*
X44386Y592629D01*
X44316Y592655D01*
X44178Y592720D01*
X44038Y592782D01*
X43896Y592840D01*
X43753Y592895D01*
X43609Y592946D01*
X43464Y592994D01*
X43317Y593037D01*
X43170Y593077D01*
X43021Y593114D01*
X42871Y593146D01*
X42721Y593175D01*
X42570Y593200D01*
X42419Y593221D01*
X42267Y593238D01*
X42114Y593252D01*
X41962Y593261D01*
X41809Y593267D01*
X41656Y593269D01*
X41656Y589177D02*
X41503Y589179D01*
X41350Y589185D01*
X41197Y589194D01*
X41045Y589208D01*
X40893Y589225D01*
X40742Y589246D01*
X40591Y589271D01*
X40440Y589300D01*
X40291Y589332D01*
X40142Y589369D01*
X39995Y589409D01*
X39848Y589452D01*
X39703Y589500D01*
X39558Y589551D01*
X39416Y589606D01*
X39274Y589664D01*
X39134Y589726D01*
X38996Y589791D01*
X38925Y589817D01*
X38856Y589847D01*
X38789Y589880D01*
X38723Y589916D01*
X38659Y589955D01*
X38597Y589998D01*
X38538Y590044D01*
X38480Y590092D01*
X38426Y590143D01*
X38373Y590197D01*
X38324Y590254D01*
X38277Y590313D01*
X38234Y590374D01*
X38193Y590437D01*
X38156Y590502D01*
X38121Y590569D01*
X38091Y590638D01*
X38063Y590708D01*
X38040Y590779D01*
X38019Y590851D01*
X38003Y590924D01*
X37990Y590998D01*
X37980Y591073D01*
X37975Y591148D01*
X37973Y591223D01*
X38996Y592655D02*
X39134Y592720D01*
X39274Y592782D01*
X39416Y592840D01*
X39559Y592895D01*
X39703Y592946D01*
X39848Y592994D01*
X39995Y593037D01*
X40143Y593077D01*
X40291Y593114D01*
X40441Y593146D01*
X40591Y593175D01*
X40742Y593200D01*
X40893Y593221D01*
X41045Y593238D01*
X41198Y593252D01*
X41350Y593261D01*
X41503Y593267D01*
X41656Y593269D01*
X38996Y592655D02*
X38926Y592629D01*
X38856Y592599D01*
X38789Y592567D01*
X38723Y592530D01*
X38659Y592491D01*
X38597Y592448D01*
X38538Y592402D01*
X38480Y592354D01*
X38426Y592303D01*
X38373Y592249D01*
X38324Y592192D01*
X38277Y592133D01*
X38234Y592072D01*
X38193Y592009D01*
X38156Y591944D01*
X38121Y591877D01*
X38091Y591808D01*
X38063Y591738D01*
X38040Y591667D01*
X38019Y591595D01*
X38003Y591522D01*
X37990Y591448D01*
X37980Y591373D01*
X37975Y591298D01*
X37973Y591223D01*
X39610Y589586D02*
X43702Y592860D01*
X45339Y600689D02*
X37973Y600689D01*
X45339Y600689D02*
X45339Y602735D01*
X45337Y602824D01*
X45331Y602913D01*
X45321Y603002D01*
X45308Y603090D01*
X45291Y603178D01*
X45269Y603265D01*
X45244Y603350D01*
X45216Y603435D01*
X45183Y603518D01*
X45147Y603600D01*
X45108Y603680D01*
X45065Y603758D01*
X45019Y603834D01*
X44969Y603909D01*
X44916Y603981D01*
X44860Y604050D01*
X44801Y604117D01*
X44740Y604182D01*
X44675Y604243D01*
X44608Y604302D01*
X44539Y604358D01*
X44467Y604411D01*
X44392Y604461D01*
X44316Y604507D01*
X44238Y604550D01*
X44158Y604589D01*
X44076Y604625D01*
X43993Y604658D01*
X43908Y604686D01*
X43823Y604711D01*
X43736Y604733D01*
X43648Y604750D01*
X43560Y604763D01*
X43471Y604773D01*
X43382Y604779D01*
X43293Y604781D01*
X43204Y604779D01*
X43115Y604773D01*
X43026Y604763D01*
X42938Y604750D01*
X42850Y604733D01*
X42763Y604711D01*
X42678Y604686D01*
X42593Y604658D01*
X42510Y604625D01*
X42428Y604589D01*
X42348Y604550D01*
X42270Y604507D01*
X42194Y604461D01*
X42119Y604411D01*
X42047Y604358D01*
X41978Y604302D01*
X41911Y604243D01*
X41846Y604182D01*
X41785Y604117D01*
X41726Y604050D01*
X41670Y603981D01*
X41617Y603909D01*
X41567Y603834D01*
X41521Y603758D01*
X41478Y603680D01*
X41439Y603600D01*
X41403Y603518D01*
X41370Y603435D01*
X41342Y603350D01*
X41317Y603265D01*
X41295Y603178D01*
X41278Y603090D01*
X41265Y603002D01*
X41255Y602913D01*
X41249Y602824D01*
X41247Y602735D01*
X41247Y600689D01*
X41247Y603144D02*
X37973Y604781D01*
X37973Y609102D02*
X37973Y611148D01*
X37973Y609102D02*
X37975Y609033D01*
X37981Y608965D01*
X37990Y608896D01*
X38004Y608829D01*
X38021Y608762D01*
X38042Y608696D01*
X38066Y608632D01*
X38095Y608569D01*
X38126Y608508D01*
X38161Y608449D01*
X38199Y608391D01*
X38241Y608336D01*
X38285Y608284D01*
X38333Y608234D01*
X38383Y608186D01*
X38435Y608142D01*
X38490Y608100D01*
X38548Y608062D01*
X38607Y608027D01*
X38668Y607996D01*
X38731Y607967D01*
X38795Y607943D01*
X38861Y607922D01*
X38928Y607905D01*
X38995Y607891D01*
X39064Y607882D01*
X39132Y607876D01*
X39201Y607874D01*
X41247Y607874D01*
X41326Y607876D01*
X41405Y607882D01*
X41484Y607891D01*
X41562Y607904D01*
X41639Y607922D01*
X41715Y607942D01*
X41790Y607967D01*
X41864Y607995D01*
X41937Y608026D01*
X42008Y608062D01*
X42077Y608100D01*
X42144Y608142D01*
X42209Y608187D01*
X42272Y608235D01*
X42333Y608286D01*
X42390Y608340D01*
X42446Y608396D01*
X42498Y608455D01*
X42548Y608517D01*
X42594Y608581D01*
X42638Y608647D01*
X42678Y608715D01*
X42714Y608785D01*
X42748Y608857D01*
X42778Y608931D01*
X42804Y609005D01*
X42827Y609081D01*
X42845Y609158D01*
X42861Y609235D01*
X42872Y609314D01*
X42880Y609392D01*
X42884Y609471D01*
X42884Y609551D01*
X42880Y609630D01*
X42872Y609708D01*
X42861Y609787D01*
X42845Y609864D01*
X42827Y609941D01*
X42804Y610017D01*
X42778Y610091D01*
X42748Y610165D01*
X42714Y610237D01*
X42678Y610307D01*
X42638Y610375D01*
X42594Y610441D01*
X42548Y610505D01*
X42498Y610567D01*
X42446Y610626D01*
X42390Y610682D01*
X42333Y610736D01*
X42272Y610787D01*
X42209Y610835D01*
X42144Y610880D01*
X42077Y610922D01*
X42008Y610960D01*
X41937Y610996D01*
X41864Y611027D01*
X41790Y611055D01*
X41715Y611080D01*
X41639Y611100D01*
X41562Y611118D01*
X41484Y611131D01*
X41405Y611140D01*
X41326Y611146D01*
X41247Y611148D01*
X40428Y611148D01*
X40428Y607874D01*
X42884Y613970D02*
X37973Y615607D01*
X42884Y617244D01*
X42065Y620506D02*
X42065Y622552D01*
X42063Y622641D01*
X42057Y622730D01*
X42047Y622819D01*
X42034Y622907D01*
X42017Y622995D01*
X41995Y623082D01*
X41970Y623167D01*
X41942Y623252D01*
X41909Y623335D01*
X41873Y623417D01*
X41834Y623497D01*
X41791Y623575D01*
X41745Y623651D01*
X41695Y623726D01*
X41642Y623798D01*
X41586Y623867D01*
X41527Y623934D01*
X41466Y623999D01*
X41401Y624060D01*
X41334Y624119D01*
X41265Y624175D01*
X41193Y624228D01*
X41118Y624278D01*
X41042Y624324D01*
X40964Y624367D01*
X40884Y624406D01*
X40802Y624442D01*
X40719Y624475D01*
X40634Y624503D01*
X40549Y624528D01*
X40462Y624550D01*
X40374Y624567D01*
X40286Y624580D01*
X40197Y624590D01*
X40108Y624596D01*
X40019Y624598D01*
X39930Y624596D01*
X39841Y624590D01*
X39752Y624580D01*
X39664Y624567D01*
X39576Y624550D01*
X39489Y624528D01*
X39404Y624503D01*
X39319Y624475D01*
X39236Y624442D01*
X39154Y624406D01*
X39074Y624367D01*
X38996Y624324D01*
X38920Y624278D01*
X38845Y624228D01*
X38773Y624175D01*
X38704Y624119D01*
X38637Y624060D01*
X38572Y623999D01*
X38511Y623934D01*
X38452Y623867D01*
X38396Y623798D01*
X38343Y623726D01*
X38293Y623651D01*
X38247Y623575D01*
X38204Y623497D01*
X38165Y623417D01*
X38129Y623335D01*
X38096Y623252D01*
X38068Y623167D01*
X38043Y623082D01*
X38021Y622995D01*
X38004Y622907D01*
X37991Y622819D01*
X37981Y622730D01*
X37975Y622641D01*
X37973Y622552D01*
X37973Y620506D01*
X45339Y620506D01*
X45339Y622552D01*
X45337Y622631D01*
X45331Y622710D01*
X45322Y622789D01*
X45309Y622867D01*
X45291Y622944D01*
X45271Y623020D01*
X45246Y623095D01*
X45218Y623169D01*
X45187Y623242D01*
X45151Y623313D01*
X45113Y623382D01*
X45071Y623449D01*
X45026Y623514D01*
X44978Y623577D01*
X44927Y623638D01*
X44873Y623695D01*
X44817Y623751D01*
X44758Y623803D01*
X44696Y623853D01*
X44632Y623899D01*
X44566Y623943D01*
X44498Y623983D01*
X44428Y624019D01*
X44356Y624053D01*
X44282Y624083D01*
X44208Y624109D01*
X44132Y624132D01*
X44055Y624150D01*
X43978Y624166D01*
X43899Y624177D01*
X43821Y624185D01*
X43742Y624189D01*
X43662Y624189D01*
X43583Y624185D01*
X43505Y624177D01*
X43426Y624166D01*
X43349Y624150D01*
X43272Y624132D01*
X43196Y624109D01*
X43122Y624083D01*
X43048Y624053D01*
X42976Y624019D01*
X42906Y623983D01*
X42838Y623943D01*
X42772Y623899D01*
X42708Y623853D01*
X42646Y623803D01*
X42587Y623751D01*
X42531Y623695D01*
X42477Y623638D01*
X42426Y623577D01*
X42378Y623514D01*
X42333Y623449D01*
X42291Y623382D01*
X42253Y623313D01*
X42217Y623242D01*
X42186Y623169D01*
X42158Y623095D01*
X42133Y623020D01*
X42113Y622944D01*
X42095Y622867D01*
X42082Y622789D01*
X42073Y622710D01*
X42067Y622631D01*
X42065Y622552D01*
X33147Y482981D02*
X25781Y482981D01*
X33147Y482981D02*
X33147Y485027D01*
X33145Y485116D01*
X33139Y485205D01*
X33129Y485294D01*
X33116Y485382D01*
X33099Y485470D01*
X33077Y485557D01*
X33052Y485642D01*
X33024Y485727D01*
X32991Y485810D01*
X32955Y485892D01*
X32916Y485972D01*
X32873Y486050D01*
X32827Y486126D01*
X32777Y486201D01*
X32724Y486273D01*
X32668Y486342D01*
X32609Y486409D01*
X32548Y486474D01*
X32483Y486535D01*
X32416Y486594D01*
X32347Y486650D01*
X32275Y486703D01*
X32200Y486753D01*
X32124Y486799D01*
X32046Y486842D01*
X31966Y486881D01*
X31884Y486917D01*
X31801Y486950D01*
X31716Y486978D01*
X31631Y487003D01*
X31544Y487025D01*
X31456Y487042D01*
X31368Y487055D01*
X31279Y487065D01*
X31190Y487071D01*
X31101Y487073D01*
X31012Y487071D01*
X30923Y487065D01*
X30834Y487055D01*
X30746Y487042D01*
X30658Y487025D01*
X30571Y487003D01*
X30486Y486978D01*
X30401Y486950D01*
X30318Y486917D01*
X30236Y486881D01*
X30156Y486842D01*
X30078Y486799D01*
X30002Y486753D01*
X29927Y486703D01*
X29855Y486650D01*
X29786Y486594D01*
X29719Y486535D01*
X29654Y486474D01*
X29593Y486409D01*
X29534Y486342D01*
X29478Y486273D01*
X29425Y486201D01*
X29375Y486126D01*
X29329Y486050D01*
X29286Y485972D01*
X29247Y485892D01*
X29211Y485810D01*
X29178Y485727D01*
X29150Y485642D01*
X29125Y485557D01*
X29103Y485470D01*
X29086Y485382D01*
X29073Y485294D01*
X29063Y485205D01*
X29057Y485116D01*
X29055Y485027D01*
X29055Y482981D01*
X33147Y489525D02*
X29669Y491981D01*
X33147Y494436D01*
X29669Y491981D02*
X25781Y491981D01*
X25781Y497250D02*
X25781Y499296D01*
X25783Y499385D01*
X25789Y499474D01*
X25799Y499563D01*
X25812Y499651D01*
X25829Y499739D01*
X25851Y499826D01*
X25876Y499911D01*
X25904Y499996D01*
X25937Y500079D01*
X25973Y500161D01*
X26012Y500241D01*
X26055Y500319D01*
X26101Y500395D01*
X26151Y500470D01*
X26204Y500542D01*
X26260Y500611D01*
X26319Y500678D01*
X26380Y500743D01*
X26445Y500804D01*
X26512Y500863D01*
X26581Y500919D01*
X26653Y500972D01*
X26728Y501022D01*
X26804Y501068D01*
X26882Y501111D01*
X26962Y501150D01*
X27044Y501186D01*
X27127Y501219D01*
X27212Y501247D01*
X27297Y501272D01*
X27384Y501294D01*
X27472Y501311D01*
X27560Y501324D01*
X27649Y501334D01*
X27738Y501340D01*
X27827Y501342D01*
X27916Y501340D01*
X28005Y501334D01*
X28094Y501324D01*
X28182Y501311D01*
X28270Y501294D01*
X28357Y501272D01*
X28442Y501247D01*
X28527Y501219D01*
X28610Y501186D01*
X28692Y501150D01*
X28772Y501111D01*
X28850Y501068D01*
X28926Y501022D01*
X29001Y500972D01*
X29073Y500919D01*
X29142Y500863D01*
X29209Y500804D01*
X29274Y500743D01*
X29335Y500678D01*
X29394Y500611D01*
X29450Y500542D01*
X29503Y500470D01*
X29553Y500395D01*
X29599Y500319D01*
X29642Y500241D01*
X29681Y500161D01*
X29717Y500079D01*
X29750Y499996D01*
X29778Y499911D01*
X29803Y499826D01*
X29825Y499739D01*
X29842Y499651D01*
X29855Y499563D01*
X29865Y499474D01*
X29871Y499385D01*
X29873Y499296D01*
X33147Y499705D02*
X33147Y497250D01*
X33147Y499705D02*
X33145Y499784D01*
X33139Y499863D01*
X33130Y499942D01*
X33117Y500020D01*
X33099Y500097D01*
X33079Y500173D01*
X33054Y500248D01*
X33026Y500322D01*
X32995Y500395D01*
X32959Y500466D01*
X32921Y500535D01*
X32879Y500602D01*
X32834Y500667D01*
X32786Y500730D01*
X32735Y500791D01*
X32681Y500848D01*
X32625Y500904D01*
X32566Y500956D01*
X32504Y501006D01*
X32440Y501052D01*
X32374Y501096D01*
X32306Y501136D01*
X32236Y501172D01*
X32164Y501206D01*
X32090Y501236D01*
X32016Y501262D01*
X31940Y501285D01*
X31863Y501303D01*
X31786Y501319D01*
X31707Y501330D01*
X31629Y501338D01*
X31550Y501342D01*
X31470Y501342D01*
X31391Y501338D01*
X31313Y501330D01*
X31234Y501319D01*
X31157Y501303D01*
X31080Y501285D01*
X31004Y501262D01*
X30930Y501236D01*
X30856Y501206D01*
X30784Y501172D01*
X30714Y501136D01*
X30646Y501096D01*
X30580Y501052D01*
X30516Y501006D01*
X30454Y500956D01*
X30395Y500904D01*
X30339Y500848D01*
X30285Y500791D01*
X30234Y500730D01*
X30186Y500667D01*
X30141Y500602D01*
X30099Y500535D01*
X30061Y500466D01*
X30025Y500395D01*
X29994Y500322D01*
X29966Y500248D01*
X29941Y500173D01*
X29921Y500097D01*
X29903Y500020D01*
X29890Y499942D01*
X29881Y499863D01*
X29875Y499784D01*
X29873Y499705D01*
X29873Y498068D01*
X33148Y506816D02*
X33146Y506901D01*
X33140Y506986D01*
X33130Y507070D01*
X33117Y507154D01*
X33099Y507238D01*
X33078Y507320D01*
X33053Y507401D01*
X33024Y507481D01*
X32991Y507560D01*
X32955Y507637D01*
X32915Y507712D01*
X32872Y507786D01*
X32826Y507857D01*
X32776Y507926D01*
X32723Y507993D01*
X32667Y508057D01*
X32608Y508118D01*
X32547Y508177D01*
X32483Y508233D01*
X32416Y508286D01*
X32347Y508336D01*
X32276Y508382D01*
X32202Y508425D01*
X32127Y508465D01*
X32050Y508501D01*
X31971Y508534D01*
X31891Y508563D01*
X31810Y508588D01*
X31728Y508609D01*
X31644Y508627D01*
X31560Y508640D01*
X31476Y508650D01*
X31391Y508656D01*
X31306Y508658D01*
X33147Y506816D02*
X33145Y506720D01*
X33139Y506624D01*
X33129Y506529D01*
X33116Y506434D01*
X33098Y506339D01*
X33077Y506246D01*
X33052Y506153D01*
X33023Y506062D01*
X32991Y505971D01*
X32955Y505882D01*
X32915Y505795D01*
X32872Y505709D01*
X32826Y505625D01*
X32776Y505543D01*
X32722Y505463D01*
X32666Y505386D01*
X32606Y505311D01*
X32544Y505238D01*
X32478Y505168D01*
X32410Y505100D01*
X32339Y505035D01*
X32266Y504974D01*
X32190Y504915D01*
X32111Y504859D01*
X32031Y504807D01*
X31948Y504758D01*
X31864Y504712D01*
X31778Y504670D01*
X31690Y504632D01*
X31601Y504597D01*
X31510Y504565D01*
X29874Y508043D02*
X29933Y508103D01*
X29995Y508160D01*
X30059Y508215D01*
X30126Y508266D01*
X30195Y508315D01*
X30265Y508361D01*
X30338Y508404D01*
X30412Y508444D01*
X30488Y508480D01*
X30566Y508513D01*
X30645Y508543D01*
X30725Y508570D01*
X30806Y508593D01*
X30888Y508612D01*
X30970Y508628D01*
X31054Y508641D01*
X31138Y508650D01*
X31222Y508655D01*
X31306Y508657D01*
X29873Y508043D02*
X25781Y504565D01*
X25781Y508657D01*
D11*
X302500Y621650D02*
X302500Y64150D01*
X302500Y621650D02*
X78500Y621650D01*
X78500Y64150D01*
X302500Y64150D01*
D12*
X251738Y520662D02*
X233262Y520662D01*
X251738Y520662D02*
X251738Y525794D01*
X251736Y525935D01*
X251730Y526077D01*
X251720Y526218D01*
X251707Y526359D01*
X251689Y526499D01*
X251668Y526639D01*
X251643Y526778D01*
X251614Y526916D01*
X251581Y527054D01*
X251544Y527190D01*
X251504Y527326D01*
X251460Y527460D01*
X251412Y527593D01*
X251361Y527725D01*
X251306Y527856D01*
X251247Y527984D01*
X251185Y528111D01*
X251119Y528237D01*
X251050Y528360D01*
X250978Y528481D01*
X250902Y528601D01*
X250823Y528718D01*
X250741Y528833D01*
X250656Y528946D01*
X250567Y529057D01*
X250476Y529164D01*
X250382Y529270D01*
X250285Y529373D01*
X250185Y529473D01*
X250082Y529570D01*
X249976Y529664D01*
X249869Y529755D01*
X249758Y529844D01*
X249645Y529929D01*
X249530Y530011D01*
X249413Y530090D01*
X249293Y530166D01*
X249172Y530238D01*
X249049Y530307D01*
X248923Y530373D01*
X248796Y530435D01*
X248668Y530494D01*
X248537Y530549D01*
X248405Y530600D01*
X248272Y530648D01*
X248138Y530692D01*
X248002Y530732D01*
X247866Y530769D01*
X247728Y530802D01*
X247590Y530831D01*
X247451Y530856D01*
X247311Y530877D01*
X247171Y530895D01*
X247030Y530908D01*
X246889Y530918D01*
X246747Y530924D01*
X246606Y530926D01*
X246465Y530924D01*
X246323Y530918D01*
X246182Y530908D01*
X246041Y530895D01*
X245901Y530877D01*
X245761Y530856D01*
X245622Y530831D01*
X245484Y530802D01*
X245346Y530769D01*
X245210Y530732D01*
X245074Y530692D01*
X244940Y530648D01*
X244807Y530600D01*
X244675Y530549D01*
X244544Y530494D01*
X244416Y530435D01*
X244289Y530373D01*
X244163Y530307D01*
X244040Y530238D01*
X243919Y530166D01*
X243799Y530090D01*
X243682Y530011D01*
X243567Y529929D01*
X243454Y529844D01*
X243343Y529755D01*
X243236Y529664D01*
X243130Y529570D01*
X243027Y529473D01*
X242927Y529373D01*
X242830Y529270D01*
X242736Y529164D01*
X242645Y529057D01*
X242556Y528946D01*
X242471Y528833D01*
X242389Y528718D01*
X242310Y528601D01*
X242234Y528481D01*
X242162Y528360D01*
X242093Y528237D01*
X242027Y528111D01*
X241965Y527984D01*
X241906Y527856D01*
X241851Y527725D01*
X241800Y527593D01*
X241752Y527460D01*
X241708Y527326D01*
X241668Y527190D01*
X241631Y527054D01*
X241598Y526916D01*
X241569Y526778D01*
X241544Y526639D01*
X241523Y526499D01*
X241505Y526359D01*
X241492Y526218D01*
X241482Y526077D01*
X241476Y525935D01*
X241474Y525794D01*
X241474Y520662D01*
X238394Y537148D02*
X246606Y537148D01*
X246747Y537150D01*
X246889Y537156D01*
X247030Y537166D01*
X247171Y537179D01*
X247311Y537197D01*
X247451Y537218D01*
X247590Y537243D01*
X247728Y537272D01*
X247866Y537305D01*
X248002Y537342D01*
X248138Y537382D01*
X248272Y537426D01*
X248405Y537474D01*
X248537Y537525D01*
X248668Y537580D01*
X248796Y537639D01*
X248923Y537701D01*
X249049Y537767D01*
X249172Y537836D01*
X249293Y537908D01*
X249413Y537984D01*
X249530Y538063D01*
X249645Y538145D01*
X249758Y538230D01*
X249869Y538319D01*
X249976Y538410D01*
X250082Y538504D01*
X250185Y538601D01*
X250285Y538701D01*
X250382Y538804D01*
X250476Y538910D01*
X250567Y539017D01*
X250656Y539128D01*
X250741Y539241D01*
X250823Y539356D01*
X250902Y539473D01*
X250978Y539593D01*
X251050Y539714D01*
X251119Y539837D01*
X251185Y539963D01*
X251247Y540090D01*
X251306Y540218D01*
X251361Y540349D01*
X251412Y540481D01*
X251460Y540614D01*
X251504Y540748D01*
X251544Y540884D01*
X251581Y541020D01*
X251614Y541158D01*
X251643Y541296D01*
X251668Y541435D01*
X251689Y541575D01*
X251707Y541715D01*
X251720Y541856D01*
X251730Y541997D01*
X251736Y542139D01*
X251738Y542280D01*
X251736Y542421D01*
X251730Y542563D01*
X251720Y542704D01*
X251707Y542845D01*
X251689Y542985D01*
X251668Y543125D01*
X251643Y543264D01*
X251614Y543402D01*
X251581Y543540D01*
X251544Y543676D01*
X251504Y543812D01*
X251460Y543946D01*
X251412Y544079D01*
X251361Y544211D01*
X251306Y544342D01*
X251247Y544470D01*
X251185Y544597D01*
X251119Y544723D01*
X251050Y544846D01*
X250978Y544967D01*
X250902Y545087D01*
X250823Y545204D01*
X250741Y545319D01*
X250656Y545432D01*
X250567Y545543D01*
X250476Y545650D01*
X250382Y545756D01*
X250285Y545859D01*
X250185Y545959D01*
X250082Y546056D01*
X249976Y546150D01*
X249869Y546241D01*
X249758Y546330D01*
X249645Y546415D01*
X249530Y546497D01*
X249413Y546576D01*
X249293Y546652D01*
X249172Y546724D01*
X249049Y546793D01*
X248923Y546859D01*
X248796Y546921D01*
X248668Y546980D01*
X248537Y547035D01*
X248405Y547086D01*
X248272Y547134D01*
X248138Y547178D01*
X248002Y547218D01*
X247866Y547255D01*
X247728Y547288D01*
X247590Y547317D01*
X247451Y547342D01*
X247311Y547363D01*
X247171Y547381D01*
X247030Y547394D01*
X246889Y547404D01*
X246747Y547410D01*
X246606Y547412D01*
X238394Y547412D01*
X238253Y547410D01*
X238111Y547404D01*
X237970Y547394D01*
X237829Y547381D01*
X237689Y547363D01*
X237549Y547342D01*
X237410Y547317D01*
X237272Y547288D01*
X237134Y547255D01*
X236998Y547218D01*
X236862Y547178D01*
X236728Y547134D01*
X236595Y547086D01*
X236463Y547035D01*
X236332Y546980D01*
X236204Y546921D01*
X236077Y546859D01*
X235951Y546793D01*
X235828Y546724D01*
X235707Y546652D01*
X235587Y546576D01*
X235470Y546497D01*
X235355Y546415D01*
X235242Y546330D01*
X235131Y546241D01*
X235024Y546150D01*
X234918Y546056D01*
X234815Y545959D01*
X234715Y545859D01*
X234618Y545756D01*
X234524Y545650D01*
X234433Y545543D01*
X234344Y545432D01*
X234259Y545319D01*
X234177Y545204D01*
X234098Y545087D01*
X234022Y544967D01*
X233950Y544846D01*
X233881Y544723D01*
X233815Y544597D01*
X233753Y544470D01*
X233694Y544342D01*
X233639Y544211D01*
X233588Y544079D01*
X233540Y543946D01*
X233496Y543812D01*
X233456Y543676D01*
X233419Y543540D01*
X233386Y543402D01*
X233357Y543264D01*
X233332Y543125D01*
X233311Y542985D01*
X233293Y542845D01*
X233280Y542704D01*
X233270Y542563D01*
X233264Y542421D01*
X233262Y542280D01*
X233264Y542139D01*
X233270Y541997D01*
X233280Y541856D01*
X233293Y541715D01*
X233311Y541575D01*
X233332Y541435D01*
X233357Y541296D01*
X233386Y541158D01*
X233419Y541020D01*
X233456Y540884D01*
X233496Y540748D01*
X233540Y540614D01*
X233588Y540481D01*
X233639Y540349D01*
X233694Y540218D01*
X233753Y540090D01*
X233815Y539963D01*
X233881Y539837D01*
X233950Y539714D01*
X234022Y539593D01*
X234098Y539473D01*
X234177Y539356D01*
X234259Y539241D01*
X234344Y539128D01*
X234433Y539017D01*
X234524Y538910D01*
X234618Y538804D01*
X234715Y538701D01*
X234815Y538601D01*
X234918Y538504D01*
X235024Y538410D01*
X235131Y538319D01*
X235242Y538230D01*
X235355Y538145D01*
X235470Y538063D01*
X235587Y537984D01*
X235707Y537908D01*
X235828Y537836D01*
X235951Y537767D01*
X236077Y537701D01*
X236204Y537639D01*
X236332Y537580D01*
X236463Y537525D01*
X236595Y537474D01*
X236728Y537426D01*
X236862Y537382D01*
X236998Y537342D01*
X237134Y537305D01*
X237272Y537272D01*
X237410Y537243D01*
X237549Y537218D01*
X237689Y537197D01*
X237829Y537179D01*
X237970Y537166D01*
X238111Y537156D01*
X238253Y537150D01*
X238394Y537148D01*
X233262Y559981D02*
X233264Y560107D01*
X233270Y560234D01*
X233280Y560360D01*
X233293Y560486D01*
X233311Y560611D01*
X233332Y560735D01*
X233357Y560859D01*
X233386Y560983D01*
X233419Y561105D01*
X233455Y561226D01*
X233495Y561346D01*
X233539Y561464D01*
X233587Y561581D01*
X233638Y561697D01*
X233692Y561811D01*
X233751Y561924D01*
X233812Y562034D01*
X233877Y562143D01*
X233945Y562249D01*
X234017Y562353D01*
X234091Y562455D01*
X234169Y562555D01*
X234250Y562652D01*
X234334Y562747D01*
X234420Y562839D01*
X234510Y562929D01*
X234602Y563015D01*
X234697Y563099D01*
X234794Y563180D01*
X234894Y563258D01*
X234996Y563332D01*
X235100Y563404D01*
X235206Y563472D01*
X235315Y563537D01*
X235425Y563598D01*
X235538Y563657D01*
X235652Y563711D01*
X235768Y563762D01*
X235885Y563810D01*
X236003Y563854D01*
X236123Y563894D01*
X236244Y563930D01*
X236366Y563963D01*
X236490Y563992D01*
X236614Y564017D01*
X236738Y564038D01*
X236863Y564056D01*
X236989Y564069D01*
X237115Y564079D01*
X237242Y564085D01*
X237368Y564087D01*
X233262Y559981D02*
X233264Y559773D01*
X233272Y559566D01*
X233284Y559359D01*
X233302Y559152D01*
X233324Y558946D01*
X233351Y558740D01*
X233383Y558535D01*
X233420Y558331D01*
X233462Y558128D01*
X233509Y557925D01*
X233561Y557724D01*
X233617Y557525D01*
X233678Y557326D01*
X233744Y557129D01*
X233815Y556934D01*
X233890Y556741D01*
X233970Y556549D01*
X234054Y556360D01*
X234143Y556172D01*
X234236Y555987D01*
X234334Y555804D01*
X234436Y555623D01*
X234543Y555445D01*
X234653Y555269D01*
X234768Y555096D01*
X234887Y554926D01*
X235010Y554759D01*
X235137Y554595D01*
X235268Y554434D01*
X235402Y554276D01*
X235541Y554121D01*
X235683Y553970D01*
X235828Y553822D01*
X247632Y554336D02*
X247758Y554338D01*
X247885Y554344D01*
X248011Y554354D01*
X248137Y554367D01*
X248262Y554385D01*
X248386Y554406D01*
X248510Y554431D01*
X248634Y554460D01*
X248756Y554493D01*
X248877Y554529D01*
X248997Y554569D01*
X249115Y554613D01*
X249232Y554661D01*
X249348Y554712D01*
X249462Y554766D01*
X249575Y554825D01*
X249685Y554886D01*
X249794Y554951D01*
X249900Y555019D01*
X250004Y555091D01*
X250106Y555165D01*
X250206Y555243D01*
X250303Y555324D01*
X250398Y555408D01*
X250490Y555494D01*
X250580Y555584D01*
X250666Y555676D01*
X250750Y555771D01*
X250831Y555868D01*
X250909Y555968D01*
X250983Y556070D01*
X251055Y556174D01*
X251123Y556280D01*
X251188Y556389D01*
X251249Y556499D01*
X251308Y556612D01*
X251362Y556726D01*
X251413Y556842D01*
X251461Y556959D01*
X251505Y557077D01*
X251545Y557197D01*
X251581Y557318D01*
X251614Y557441D01*
X251643Y557564D01*
X251668Y557688D01*
X251689Y557812D01*
X251707Y557937D01*
X251720Y558063D01*
X251730Y558189D01*
X251736Y558316D01*
X251738Y558442D01*
X251738Y558441D02*
X251736Y558625D01*
X251729Y558808D01*
X251718Y558991D01*
X251703Y559174D01*
X251683Y559356D01*
X251659Y559538D01*
X251631Y559719D01*
X251598Y559900D01*
X251562Y560080D01*
X251520Y560258D01*
X251475Y560436D01*
X251425Y560613D01*
X251371Y560788D01*
X251313Y560962D01*
X251251Y561135D01*
X251185Y561306D01*
X251115Y561475D01*
X251040Y561643D01*
X250962Y561809D01*
X250880Y561973D01*
X250794Y562135D01*
X250704Y562295D01*
X250610Y562453D01*
X250513Y562608D01*
X250411Y562761D01*
X250307Y562912D01*
X250198Y563060D01*
X244039Y556389D02*
X244106Y556280D01*
X244175Y556174D01*
X244248Y556069D01*
X244324Y555967D01*
X244403Y555867D01*
X244485Y555770D01*
X244570Y555675D01*
X244658Y555583D01*
X244749Y555493D01*
X244842Y555407D01*
X244938Y555323D01*
X245037Y555242D01*
X245137Y555164D01*
X245241Y555090D01*
X245346Y555018D01*
X245454Y554950D01*
X245563Y554885D01*
X245675Y554824D01*
X245788Y554766D01*
X245903Y554711D01*
X246020Y554660D01*
X246138Y554613D01*
X246257Y554569D01*
X246378Y554529D01*
X246500Y554493D01*
X246623Y554460D01*
X246747Y554431D01*
X246872Y554406D01*
X246998Y554385D01*
X247124Y554367D01*
X247251Y554353D01*
X247377Y554344D01*
X247505Y554338D01*
X247632Y554336D01*
X240961Y562034D02*
X240894Y562143D01*
X240825Y562249D01*
X240752Y562354D01*
X240676Y562456D01*
X240597Y562556D01*
X240515Y562653D01*
X240430Y562748D01*
X240342Y562840D01*
X240251Y562930D01*
X240158Y563016D01*
X240062Y563100D01*
X239964Y563181D01*
X239863Y563258D01*
X239759Y563333D01*
X239654Y563405D01*
X239546Y563473D01*
X239437Y563538D01*
X239325Y563599D01*
X239212Y563657D01*
X239097Y563712D01*
X238980Y563763D01*
X238862Y563810D01*
X238743Y563854D01*
X238622Y563894D01*
X238500Y563930D01*
X238377Y563963D01*
X238253Y563992D01*
X238128Y564017D01*
X238002Y564038D01*
X237876Y564056D01*
X237749Y564070D01*
X237623Y564079D01*
X237495Y564085D01*
X237368Y564087D01*
X240960Y562034D02*
X244040Y556389D01*
X147738Y124662D02*
X129262Y124662D01*
X147738Y124662D02*
X147738Y129794D01*
X147736Y129935D01*
X147730Y130077D01*
X147720Y130218D01*
X147707Y130359D01*
X147689Y130499D01*
X147668Y130639D01*
X147643Y130778D01*
X147614Y130916D01*
X147581Y131054D01*
X147544Y131190D01*
X147504Y131326D01*
X147460Y131460D01*
X147412Y131593D01*
X147361Y131725D01*
X147306Y131856D01*
X147247Y131984D01*
X147185Y132111D01*
X147119Y132237D01*
X147050Y132360D01*
X146978Y132481D01*
X146902Y132601D01*
X146823Y132718D01*
X146741Y132833D01*
X146656Y132946D01*
X146567Y133057D01*
X146476Y133164D01*
X146382Y133270D01*
X146285Y133373D01*
X146185Y133473D01*
X146082Y133570D01*
X145976Y133664D01*
X145869Y133755D01*
X145758Y133844D01*
X145645Y133929D01*
X145530Y134011D01*
X145413Y134090D01*
X145293Y134166D01*
X145172Y134238D01*
X145049Y134307D01*
X144923Y134373D01*
X144796Y134435D01*
X144668Y134494D01*
X144537Y134549D01*
X144405Y134600D01*
X144272Y134648D01*
X144138Y134692D01*
X144002Y134732D01*
X143866Y134769D01*
X143728Y134802D01*
X143590Y134831D01*
X143451Y134856D01*
X143311Y134877D01*
X143171Y134895D01*
X143030Y134908D01*
X142889Y134918D01*
X142747Y134924D01*
X142606Y134926D01*
X142465Y134924D01*
X142323Y134918D01*
X142182Y134908D01*
X142041Y134895D01*
X141901Y134877D01*
X141761Y134856D01*
X141622Y134831D01*
X141484Y134802D01*
X141346Y134769D01*
X141210Y134732D01*
X141074Y134692D01*
X140940Y134648D01*
X140807Y134600D01*
X140675Y134549D01*
X140544Y134494D01*
X140416Y134435D01*
X140289Y134373D01*
X140163Y134307D01*
X140040Y134238D01*
X139919Y134166D01*
X139799Y134090D01*
X139682Y134011D01*
X139567Y133929D01*
X139454Y133844D01*
X139343Y133755D01*
X139236Y133664D01*
X139130Y133570D01*
X139027Y133473D01*
X138927Y133373D01*
X138830Y133270D01*
X138736Y133164D01*
X138645Y133057D01*
X138556Y132946D01*
X138471Y132833D01*
X138389Y132718D01*
X138310Y132601D01*
X138234Y132481D01*
X138162Y132360D01*
X138093Y132237D01*
X138027Y132111D01*
X137965Y131984D01*
X137906Y131856D01*
X137851Y131725D01*
X137800Y131593D01*
X137752Y131460D01*
X137708Y131326D01*
X137668Y131190D01*
X137631Y131054D01*
X137598Y130916D01*
X137569Y130778D01*
X137544Y130639D01*
X137523Y130499D01*
X137505Y130359D01*
X137492Y130218D01*
X137482Y130077D01*
X137476Y129935D01*
X137474Y129794D01*
X137474Y124662D01*
X134394Y141148D02*
X142606Y141148D01*
X142747Y141150D01*
X142889Y141156D01*
X143030Y141166D01*
X143171Y141179D01*
X143311Y141197D01*
X143451Y141218D01*
X143590Y141243D01*
X143728Y141272D01*
X143866Y141305D01*
X144002Y141342D01*
X144138Y141382D01*
X144272Y141426D01*
X144405Y141474D01*
X144537Y141525D01*
X144668Y141580D01*
X144796Y141639D01*
X144923Y141701D01*
X145049Y141767D01*
X145172Y141836D01*
X145293Y141908D01*
X145413Y141984D01*
X145530Y142063D01*
X145645Y142145D01*
X145758Y142230D01*
X145869Y142319D01*
X145976Y142410D01*
X146082Y142504D01*
X146185Y142601D01*
X146285Y142701D01*
X146382Y142804D01*
X146476Y142910D01*
X146567Y143017D01*
X146656Y143128D01*
X146741Y143241D01*
X146823Y143356D01*
X146902Y143473D01*
X146978Y143593D01*
X147050Y143714D01*
X147119Y143837D01*
X147185Y143963D01*
X147247Y144090D01*
X147306Y144218D01*
X147361Y144349D01*
X147412Y144481D01*
X147460Y144614D01*
X147504Y144748D01*
X147544Y144884D01*
X147581Y145020D01*
X147614Y145158D01*
X147643Y145296D01*
X147668Y145435D01*
X147689Y145575D01*
X147707Y145715D01*
X147720Y145856D01*
X147730Y145997D01*
X147736Y146139D01*
X147738Y146280D01*
X147736Y146421D01*
X147730Y146563D01*
X147720Y146704D01*
X147707Y146845D01*
X147689Y146985D01*
X147668Y147125D01*
X147643Y147264D01*
X147614Y147402D01*
X147581Y147540D01*
X147544Y147676D01*
X147504Y147812D01*
X147460Y147946D01*
X147412Y148079D01*
X147361Y148211D01*
X147306Y148342D01*
X147247Y148470D01*
X147185Y148597D01*
X147119Y148723D01*
X147050Y148846D01*
X146978Y148967D01*
X146902Y149087D01*
X146823Y149204D01*
X146741Y149319D01*
X146656Y149432D01*
X146567Y149543D01*
X146476Y149650D01*
X146382Y149756D01*
X146285Y149859D01*
X146185Y149959D01*
X146082Y150056D01*
X145976Y150150D01*
X145869Y150241D01*
X145758Y150330D01*
X145645Y150415D01*
X145530Y150497D01*
X145413Y150576D01*
X145293Y150652D01*
X145172Y150724D01*
X145049Y150793D01*
X144923Y150859D01*
X144796Y150921D01*
X144668Y150980D01*
X144537Y151035D01*
X144405Y151086D01*
X144272Y151134D01*
X144138Y151178D01*
X144002Y151218D01*
X143866Y151255D01*
X143728Y151288D01*
X143590Y151317D01*
X143451Y151342D01*
X143311Y151363D01*
X143171Y151381D01*
X143030Y151394D01*
X142889Y151404D01*
X142747Y151410D01*
X142606Y151412D01*
X134394Y151412D01*
X134253Y151410D01*
X134111Y151404D01*
X133970Y151394D01*
X133829Y151381D01*
X133689Y151363D01*
X133549Y151342D01*
X133410Y151317D01*
X133272Y151288D01*
X133134Y151255D01*
X132998Y151218D01*
X132862Y151178D01*
X132728Y151134D01*
X132595Y151086D01*
X132463Y151035D01*
X132332Y150980D01*
X132204Y150921D01*
X132077Y150859D01*
X131951Y150793D01*
X131828Y150724D01*
X131707Y150652D01*
X131587Y150576D01*
X131470Y150497D01*
X131355Y150415D01*
X131242Y150330D01*
X131131Y150241D01*
X131024Y150150D01*
X130918Y150056D01*
X130815Y149959D01*
X130715Y149859D01*
X130618Y149756D01*
X130524Y149650D01*
X130433Y149543D01*
X130344Y149432D01*
X130259Y149319D01*
X130177Y149204D01*
X130098Y149087D01*
X130022Y148967D01*
X129950Y148846D01*
X129881Y148723D01*
X129815Y148597D01*
X129753Y148470D01*
X129694Y148342D01*
X129639Y148211D01*
X129588Y148079D01*
X129540Y147946D01*
X129496Y147812D01*
X129456Y147676D01*
X129419Y147540D01*
X129386Y147402D01*
X129357Y147264D01*
X129332Y147125D01*
X129311Y146985D01*
X129293Y146845D01*
X129280Y146704D01*
X129270Y146563D01*
X129264Y146421D01*
X129262Y146280D01*
X129264Y146139D01*
X129270Y145997D01*
X129280Y145856D01*
X129293Y145715D01*
X129311Y145575D01*
X129332Y145435D01*
X129357Y145296D01*
X129386Y145158D01*
X129419Y145020D01*
X129456Y144884D01*
X129496Y144748D01*
X129540Y144614D01*
X129588Y144481D01*
X129639Y144349D01*
X129694Y144218D01*
X129753Y144090D01*
X129815Y143963D01*
X129881Y143837D01*
X129950Y143714D01*
X130022Y143593D01*
X130098Y143473D01*
X130177Y143356D01*
X130259Y143241D01*
X130344Y143128D01*
X130433Y143017D01*
X130524Y142910D01*
X130618Y142804D01*
X130715Y142701D01*
X130815Y142601D01*
X130918Y142504D01*
X131024Y142410D01*
X131131Y142319D01*
X131242Y142230D01*
X131355Y142145D01*
X131470Y142063D01*
X131587Y141984D01*
X131707Y141908D01*
X131828Y141836D01*
X131951Y141767D01*
X132077Y141701D01*
X132204Y141639D01*
X132332Y141580D01*
X132463Y141525D01*
X132595Y141474D01*
X132728Y141426D01*
X132862Y141382D01*
X132998Y141342D01*
X133134Y141305D01*
X133272Y141272D01*
X133410Y141243D01*
X133549Y141218D01*
X133689Y141197D01*
X133829Y141179D01*
X133970Y141166D01*
X134111Y141156D01*
X134253Y141150D01*
X134394Y141148D01*
X129262Y163981D02*
X129264Y164107D01*
X129270Y164234D01*
X129280Y164360D01*
X129293Y164486D01*
X129311Y164611D01*
X129332Y164735D01*
X129357Y164859D01*
X129386Y164983D01*
X129419Y165105D01*
X129455Y165226D01*
X129495Y165346D01*
X129539Y165464D01*
X129587Y165581D01*
X129638Y165697D01*
X129692Y165811D01*
X129751Y165924D01*
X129812Y166034D01*
X129877Y166143D01*
X129945Y166249D01*
X130017Y166353D01*
X130091Y166455D01*
X130169Y166555D01*
X130250Y166652D01*
X130334Y166747D01*
X130420Y166839D01*
X130510Y166929D01*
X130602Y167015D01*
X130697Y167099D01*
X130794Y167180D01*
X130894Y167258D01*
X130996Y167332D01*
X131100Y167404D01*
X131206Y167472D01*
X131315Y167537D01*
X131425Y167598D01*
X131538Y167657D01*
X131652Y167711D01*
X131768Y167762D01*
X131885Y167810D01*
X132003Y167854D01*
X132123Y167894D01*
X132244Y167930D01*
X132366Y167963D01*
X132490Y167992D01*
X132614Y168017D01*
X132738Y168038D01*
X132863Y168056D01*
X132989Y168069D01*
X133115Y168079D01*
X133242Y168085D01*
X133368Y168087D01*
X129262Y163981D02*
X129264Y163773D01*
X129272Y163566D01*
X129284Y163359D01*
X129302Y163152D01*
X129324Y162946D01*
X129351Y162740D01*
X129383Y162535D01*
X129420Y162331D01*
X129462Y162128D01*
X129509Y161925D01*
X129561Y161724D01*
X129617Y161525D01*
X129678Y161326D01*
X129744Y161129D01*
X129815Y160934D01*
X129890Y160741D01*
X129970Y160549D01*
X130054Y160360D01*
X130143Y160172D01*
X130236Y159987D01*
X130334Y159804D01*
X130436Y159623D01*
X130543Y159445D01*
X130653Y159269D01*
X130768Y159096D01*
X130887Y158926D01*
X131010Y158759D01*
X131137Y158595D01*
X131268Y158434D01*
X131402Y158276D01*
X131541Y158121D01*
X131683Y157970D01*
X131828Y157822D01*
X143632Y158336D02*
X143758Y158338D01*
X143885Y158344D01*
X144011Y158354D01*
X144137Y158367D01*
X144262Y158385D01*
X144386Y158406D01*
X144510Y158431D01*
X144634Y158460D01*
X144756Y158493D01*
X144877Y158529D01*
X144997Y158569D01*
X145115Y158613D01*
X145232Y158661D01*
X145348Y158712D01*
X145462Y158766D01*
X145575Y158825D01*
X145685Y158886D01*
X145794Y158951D01*
X145900Y159019D01*
X146004Y159091D01*
X146106Y159165D01*
X146206Y159243D01*
X146303Y159324D01*
X146398Y159408D01*
X146490Y159494D01*
X146580Y159584D01*
X146666Y159676D01*
X146750Y159771D01*
X146831Y159868D01*
X146909Y159968D01*
X146983Y160070D01*
X147055Y160174D01*
X147123Y160280D01*
X147188Y160389D01*
X147249Y160499D01*
X147308Y160612D01*
X147362Y160726D01*
X147413Y160842D01*
X147461Y160959D01*
X147505Y161077D01*
X147545Y161197D01*
X147581Y161318D01*
X147614Y161441D01*
X147643Y161564D01*
X147668Y161688D01*
X147689Y161812D01*
X147707Y161937D01*
X147720Y162063D01*
X147730Y162189D01*
X147736Y162316D01*
X147738Y162442D01*
X147738Y162441D02*
X147736Y162625D01*
X147729Y162808D01*
X147718Y162991D01*
X147703Y163174D01*
X147683Y163356D01*
X147659Y163538D01*
X147631Y163719D01*
X147598Y163900D01*
X147562Y164080D01*
X147520Y164258D01*
X147475Y164436D01*
X147425Y164613D01*
X147371Y164788D01*
X147313Y164962D01*
X147251Y165135D01*
X147185Y165306D01*
X147115Y165475D01*
X147040Y165643D01*
X146962Y165809D01*
X146880Y165973D01*
X146794Y166135D01*
X146704Y166295D01*
X146610Y166453D01*
X146513Y166608D01*
X146411Y166761D01*
X146307Y166912D01*
X146198Y167060D01*
X140039Y160389D02*
X140106Y160280D01*
X140175Y160174D01*
X140248Y160069D01*
X140324Y159967D01*
X140403Y159867D01*
X140485Y159770D01*
X140570Y159675D01*
X140658Y159583D01*
X140749Y159493D01*
X140842Y159407D01*
X140938Y159323D01*
X141037Y159242D01*
X141137Y159164D01*
X141241Y159090D01*
X141346Y159018D01*
X141454Y158950D01*
X141563Y158885D01*
X141675Y158824D01*
X141788Y158766D01*
X141903Y158711D01*
X142020Y158660D01*
X142138Y158613D01*
X142257Y158569D01*
X142378Y158529D01*
X142500Y158493D01*
X142623Y158460D01*
X142747Y158431D01*
X142872Y158406D01*
X142998Y158385D01*
X143124Y158367D01*
X143251Y158353D01*
X143377Y158344D01*
X143505Y158338D01*
X143632Y158336D01*
X136961Y166034D02*
X136894Y166143D01*
X136825Y166249D01*
X136752Y166354D01*
X136676Y166456D01*
X136597Y166556D01*
X136515Y166653D01*
X136430Y166748D01*
X136342Y166840D01*
X136251Y166930D01*
X136158Y167016D01*
X136062Y167100D01*
X135964Y167181D01*
X135863Y167258D01*
X135759Y167333D01*
X135654Y167405D01*
X135546Y167473D01*
X135437Y167538D01*
X135325Y167599D01*
X135212Y167657D01*
X135097Y167712D01*
X134980Y167763D01*
X134862Y167810D01*
X134743Y167854D01*
X134622Y167894D01*
X134500Y167930D01*
X134377Y167963D01*
X134253Y167992D01*
X134128Y168017D01*
X134002Y168038D01*
X133876Y168056D01*
X133749Y168070D01*
X133623Y168079D01*
X133495Y168085D01*
X133368Y168087D01*
X136960Y166034D02*
X140040Y160389D01*
X233262Y124662D02*
X251738Y124662D01*
X233262Y134926D01*
X251738Y134926D01*
X233262Y143090D02*
X233262Y151302D01*
X233262Y143090D02*
X251738Y143090D01*
X251738Y151302D01*
X243526Y149249D02*
X243526Y143090D01*
X243526Y165197D02*
X243526Y168276D01*
X233262Y168276D01*
X233262Y162118D01*
X233264Y161992D01*
X233270Y161865D01*
X233280Y161739D01*
X233293Y161613D01*
X233311Y161488D01*
X233332Y161364D01*
X233357Y161240D01*
X233386Y161116D01*
X233419Y160994D01*
X233455Y160873D01*
X233495Y160753D01*
X233539Y160635D01*
X233587Y160518D01*
X233638Y160402D01*
X233692Y160288D01*
X233751Y160175D01*
X233812Y160065D01*
X233877Y159956D01*
X233945Y159850D01*
X234017Y159746D01*
X234091Y159644D01*
X234169Y159544D01*
X234250Y159447D01*
X234334Y159352D01*
X234420Y159260D01*
X234510Y159170D01*
X234602Y159084D01*
X234697Y159000D01*
X234794Y158919D01*
X234894Y158841D01*
X234996Y158767D01*
X235100Y158695D01*
X235206Y158627D01*
X235315Y158562D01*
X235425Y158501D01*
X235538Y158442D01*
X235652Y158388D01*
X235768Y158337D01*
X235885Y158289D01*
X236003Y158245D01*
X236123Y158205D01*
X236244Y158169D01*
X236366Y158136D01*
X236490Y158107D01*
X236614Y158082D01*
X236738Y158061D01*
X236863Y158043D01*
X236989Y158030D01*
X237115Y158020D01*
X237242Y158014D01*
X237368Y158012D01*
X247632Y158012D01*
X247758Y158014D01*
X247885Y158020D01*
X248011Y158030D01*
X248137Y158043D01*
X248262Y158061D01*
X248386Y158082D01*
X248510Y158107D01*
X248634Y158136D01*
X248756Y158169D01*
X248877Y158205D01*
X248997Y158245D01*
X249115Y158289D01*
X249232Y158337D01*
X249348Y158388D01*
X249462Y158442D01*
X249575Y158501D01*
X249685Y158562D01*
X249794Y158627D01*
X249900Y158695D01*
X250004Y158767D01*
X250106Y158841D01*
X250206Y158919D01*
X250303Y159000D01*
X250398Y159084D01*
X250490Y159170D01*
X250580Y159260D01*
X250666Y159352D01*
X250750Y159447D01*
X250831Y159544D01*
X250909Y159644D01*
X250983Y159746D01*
X251055Y159850D01*
X251123Y159956D01*
X251188Y160065D01*
X251249Y160175D01*
X251308Y160288D01*
X251362Y160402D01*
X251413Y160518D01*
X251461Y160635D01*
X251505Y160753D01*
X251545Y160873D01*
X251581Y160994D01*
X251614Y161116D01*
X251643Y161240D01*
X251668Y161363D01*
X251689Y161488D01*
X251707Y161613D01*
X251720Y161739D01*
X251730Y161865D01*
X251736Y161992D01*
X251738Y162118D01*
X251738Y168276D01*
X147738Y520662D02*
X129262Y520662D01*
X129262Y530926D02*
X147738Y520662D01*
X147738Y530926D02*
X129262Y530926D01*
X129262Y539090D02*
X129262Y547302D01*
X129262Y539090D02*
X147738Y539090D01*
X147738Y547302D01*
X139526Y545249D02*
X139526Y539090D01*
X139526Y561197D02*
X139526Y564276D01*
X129262Y564276D01*
X129262Y558118D01*
X129264Y557992D01*
X129270Y557865D01*
X129280Y557739D01*
X129293Y557613D01*
X129311Y557488D01*
X129332Y557364D01*
X129357Y557240D01*
X129386Y557116D01*
X129419Y556994D01*
X129455Y556873D01*
X129495Y556753D01*
X129539Y556635D01*
X129587Y556518D01*
X129638Y556402D01*
X129692Y556288D01*
X129751Y556175D01*
X129812Y556065D01*
X129877Y555956D01*
X129945Y555850D01*
X130017Y555746D01*
X130091Y555644D01*
X130169Y555544D01*
X130250Y555447D01*
X130334Y555352D01*
X130420Y555260D01*
X130510Y555170D01*
X130602Y555084D01*
X130697Y555000D01*
X130794Y554919D01*
X130894Y554841D01*
X130996Y554767D01*
X131100Y554695D01*
X131206Y554627D01*
X131315Y554562D01*
X131425Y554501D01*
X131538Y554442D01*
X131652Y554388D01*
X131768Y554337D01*
X131885Y554289D01*
X132003Y554245D01*
X132123Y554205D01*
X132244Y554169D01*
X132366Y554136D01*
X132490Y554107D01*
X132614Y554082D01*
X132738Y554061D01*
X132863Y554043D01*
X132989Y554030D01*
X133115Y554020D01*
X133242Y554014D01*
X133368Y554012D01*
X143632Y554012D01*
X143758Y554014D01*
X143885Y554020D01*
X144011Y554030D01*
X144137Y554043D01*
X144262Y554061D01*
X144386Y554082D01*
X144510Y554107D01*
X144634Y554136D01*
X144756Y554169D01*
X144877Y554205D01*
X144997Y554245D01*
X145115Y554289D01*
X145232Y554337D01*
X145348Y554388D01*
X145462Y554442D01*
X145575Y554501D01*
X145685Y554562D01*
X145794Y554627D01*
X145900Y554695D01*
X146004Y554767D01*
X146106Y554841D01*
X146206Y554919D01*
X146303Y555000D01*
X146398Y555084D01*
X146490Y555170D01*
X146580Y555260D01*
X146666Y555352D01*
X146750Y555447D01*
X146831Y555544D01*
X146909Y555644D01*
X146983Y555746D01*
X147055Y555850D01*
X147123Y555956D01*
X147188Y556065D01*
X147249Y556175D01*
X147308Y556288D01*
X147362Y556402D01*
X147413Y556518D01*
X147461Y556635D01*
X147505Y556753D01*
X147545Y556873D01*
X147581Y556994D01*
X147614Y557116D01*
X147643Y557240D01*
X147668Y557363D01*
X147689Y557488D01*
X147707Y557613D01*
X147720Y557739D01*
X147730Y557865D01*
X147736Y557992D01*
X147738Y558118D01*
X147738Y564276D01*
X56134Y309374D02*
X53594Y309374D01*
X53594Y306834D01*
X53594Y309374D02*
X51054Y309374D01*
X53594Y309374D02*
X53594Y311914D01*
X14224Y296674D02*
X14232Y297297D01*
X14255Y297920D01*
X14293Y298543D01*
X14346Y299164D01*
X14415Y299783D01*
X14499Y300401D01*
X14598Y301016D01*
X14712Y301629D01*
X14841Y302239D01*
X14985Y302846D01*
X15144Y303449D01*
X15318Y304047D01*
X15506Y304642D01*
X15709Y305231D01*
X15926Y305815D01*
X16157Y306394D01*
X16403Y306967D01*
X16663Y307534D01*
X16936Y308094D01*
X17223Y308647D01*
X17524Y309194D01*
X17838Y309732D01*
X18165Y310263D01*
X18505Y310785D01*
X18857Y311300D01*
X19223Y311805D01*
X19600Y312301D01*
X19990Y312788D01*
X20391Y313265D01*
X20804Y313732D01*
X21228Y314188D01*
X21663Y314635D01*
X22110Y315070D01*
X22566Y315494D01*
X23033Y315907D01*
X23510Y316308D01*
X23997Y316698D01*
X24493Y317075D01*
X24998Y317441D01*
X25513Y317793D01*
X26035Y318133D01*
X26566Y318460D01*
X27104Y318774D01*
X27651Y319075D01*
X28204Y319362D01*
X28764Y319635D01*
X29331Y319895D01*
X29904Y320141D01*
X30483Y320372D01*
X31067Y320589D01*
X31656Y320792D01*
X32251Y320980D01*
X32849Y321154D01*
X33452Y321313D01*
X34059Y321457D01*
X34669Y321586D01*
X35282Y321700D01*
X35897Y321799D01*
X36515Y321883D01*
X37134Y321952D01*
X37755Y322005D01*
X38378Y322043D01*
X39001Y322066D01*
X39624Y322074D01*
X40247Y322066D01*
X40870Y322043D01*
X41493Y322005D01*
X42114Y321952D01*
X42733Y321883D01*
X43351Y321799D01*
X43966Y321700D01*
X44579Y321586D01*
X45189Y321457D01*
X45796Y321313D01*
X46399Y321154D01*
X46997Y320980D01*
X47592Y320792D01*
X48181Y320589D01*
X48765Y320372D01*
X49344Y320141D01*
X49917Y319895D01*
X50484Y319635D01*
X51044Y319362D01*
X51597Y319075D01*
X52144Y318774D01*
X52682Y318460D01*
X53213Y318133D01*
X53735Y317793D01*
X54250Y317441D01*
X54755Y317075D01*
X55251Y316698D01*
X55738Y316308D01*
X56215Y315907D01*
X56682Y315494D01*
X57138Y315070D01*
X57585Y314635D01*
X58020Y314188D01*
X58444Y313732D01*
X58857Y313265D01*
X59258Y312788D01*
X59648Y312301D01*
X60025Y311805D01*
X60391Y311300D01*
X60743Y310785D01*
X61083Y310263D01*
X61410Y309732D01*
X61724Y309194D01*
X62025Y308647D01*
X62312Y308094D01*
X62585Y307534D01*
X62845Y306967D01*
X63091Y306394D01*
X63322Y305815D01*
X63539Y305231D01*
X63742Y304642D01*
X63930Y304047D01*
X64104Y303449D01*
X64263Y302846D01*
X64407Y302239D01*
X64536Y301629D01*
X64650Y301016D01*
X64749Y300401D01*
X64833Y299783D01*
X64902Y299164D01*
X64955Y298543D01*
X64993Y297920D01*
X65016Y297297D01*
X65024Y296674D01*
X65016Y296051D01*
X64993Y295428D01*
X64955Y294805D01*
X64902Y294184D01*
X64833Y293565D01*
X64749Y292947D01*
X64650Y292332D01*
X64536Y291719D01*
X64407Y291109D01*
X64263Y290502D01*
X64104Y289899D01*
X63930Y289301D01*
X63742Y288706D01*
X63539Y288117D01*
X63322Y287533D01*
X63091Y286954D01*
X62845Y286381D01*
X62585Y285814D01*
X62312Y285254D01*
X62025Y284701D01*
X61724Y284154D01*
X61410Y283616D01*
X61083Y283085D01*
X60743Y282563D01*
X60391Y282048D01*
X60025Y281543D01*
X59648Y281047D01*
X59258Y280560D01*
X58857Y280083D01*
X58444Y279616D01*
X58020Y279160D01*
X57585Y278713D01*
X57138Y278278D01*
X56682Y277854D01*
X56215Y277441D01*
X55738Y277040D01*
X55251Y276650D01*
X54755Y276273D01*
X54250Y275907D01*
X53735Y275555D01*
X53213Y275215D01*
X52682Y274888D01*
X52144Y274574D01*
X51597Y274273D01*
X51044Y273986D01*
X50484Y273713D01*
X49917Y273453D01*
X49344Y273207D01*
X48765Y272976D01*
X48181Y272759D01*
X47592Y272556D01*
X46997Y272368D01*
X46399Y272194D01*
X45796Y272035D01*
X45189Y271891D01*
X44579Y271762D01*
X43966Y271648D01*
X43351Y271549D01*
X42733Y271465D01*
X42114Y271396D01*
X41493Y271343D01*
X40870Y271305D01*
X40247Y271282D01*
X39624Y271274D01*
X39001Y271282D01*
X38378Y271305D01*
X37755Y271343D01*
X37134Y271396D01*
X36515Y271465D01*
X35897Y271549D01*
X35282Y271648D01*
X34669Y271762D01*
X34059Y271891D01*
X33452Y272035D01*
X32849Y272194D01*
X32251Y272368D01*
X31656Y272556D01*
X31067Y272759D01*
X30483Y272976D01*
X29904Y273207D01*
X29331Y273453D01*
X28764Y273713D01*
X28204Y273986D01*
X27651Y274273D01*
X27104Y274574D01*
X26566Y274888D01*
X26035Y275215D01*
X25513Y275555D01*
X24998Y275907D01*
X24493Y276273D01*
X23997Y276650D01*
X23510Y277040D01*
X23033Y277441D01*
X22566Y277854D01*
X22110Y278278D01*
X21663Y278713D01*
X21228Y279160D01*
X20804Y279616D01*
X20391Y280083D01*
X19990Y280560D01*
X19600Y281047D01*
X19223Y281543D01*
X18857Y282048D01*
X18505Y282563D01*
X18165Y283085D01*
X17838Y283616D01*
X17524Y284154D01*
X17223Y284701D01*
X16936Y285254D01*
X16663Y285814D01*
X16403Y286381D01*
X16157Y286954D01*
X15926Y287533D01*
X15709Y288117D01*
X15506Y288706D01*
X15318Y289301D01*
X15144Y289899D01*
X14985Y290502D01*
X14841Y291109D01*
X14712Y291719D01*
X14598Y292332D01*
X14499Y292947D01*
X14415Y293565D01*
X14346Y294184D01*
X14293Y294805D01*
X14255Y295428D01*
X14232Y296051D01*
X14224Y296674D01*
D10*
X41839Y329755D02*
X43476Y329755D01*
X43554Y329757D01*
X43632Y329762D01*
X43709Y329772D01*
X43786Y329785D01*
X43862Y329801D01*
X43937Y329821D01*
X44011Y329845D01*
X44084Y329872D01*
X44156Y329903D01*
X44226Y329937D01*
X44295Y329974D01*
X44361Y330015D01*
X44426Y330059D01*
X44488Y330105D01*
X44548Y330155D01*
X44606Y330207D01*
X44661Y330262D01*
X44713Y330320D01*
X44763Y330380D01*
X44809Y330442D01*
X44853Y330507D01*
X44894Y330574D01*
X44931Y330642D01*
X44965Y330712D01*
X44996Y330784D01*
X45023Y330857D01*
X45047Y330931D01*
X45067Y331006D01*
X45083Y331082D01*
X45096Y331159D01*
X45106Y331236D01*
X45111Y331314D01*
X45113Y331392D01*
X45113Y335484D01*
X45111Y335562D01*
X45106Y335640D01*
X45096Y335717D01*
X45083Y335794D01*
X45067Y335870D01*
X45047Y335945D01*
X45023Y336019D01*
X44996Y336092D01*
X44965Y336164D01*
X44931Y336234D01*
X44894Y336303D01*
X44853Y336369D01*
X44809Y336434D01*
X44763Y336496D01*
X44713Y336556D01*
X44661Y336614D01*
X44606Y336669D01*
X44548Y336721D01*
X44488Y336771D01*
X44426Y336817D01*
X44361Y336861D01*
X44295Y336902D01*
X44226Y336939D01*
X44156Y336973D01*
X44084Y337004D01*
X44011Y337031D01*
X43937Y337055D01*
X43862Y337075D01*
X43786Y337091D01*
X43709Y337104D01*
X43632Y337114D01*
X43554Y337119D01*
X43476Y337121D01*
X41839Y337121D01*
X36743Y337122D02*
X36658Y337120D01*
X36573Y337114D01*
X36489Y337104D01*
X36405Y337091D01*
X36321Y337073D01*
X36239Y337052D01*
X36158Y337027D01*
X36078Y336998D01*
X35999Y336965D01*
X35922Y336929D01*
X35847Y336889D01*
X35773Y336846D01*
X35702Y336800D01*
X35633Y336750D01*
X35566Y336697D01*
X35502Y336641D01*
X35441Y336582D01*
X35382Y336521D01*
X35326Y336457D01*
X35273Y336390D01*
X35223Y336321D01*
X35177Y336250D01*
X35134Y336176D01*
X35094Y336101D01*
X35058Y336024D01*
X35025Y335945D01*
X34996Y335865D01*
X34971Y335784D01*
X34950Y335702D01*
X34932Y335618D01*
X34919Y335534D01*
X34909Y335450D01*
X34903Y335365D01*
X34901Y335280D01*
X36743Y337121D02*
X36839Y337119D01*
X36935Y337113D01*
X37030Y337103D01*
X37125Y337090D01*
X37220Y337072D01*
X37313Y337051D01*
X37406Y337026D01*
X37497Y336997D01*
X37588Y336965D01*
X37677Y336929D01*
X37764Y336889D01*
X37850Y336846D01*
X37934Y336800D01*
X38016Y336750D01*
X38096Y336696D01*
X38173Y336640D01*
X38248Y336580D01*
X38321Y336518D01*
X38391Y336452D01*
X38459Y336384D01*
X38524Y336313D01*
X38585Y336240D01*
X38644Y336164D01*
X38700Y336085D01*
X38752Y336005D01*
X38801Y335922D01*
X38847Y335838D01*
X38889Y335752D01*
X38927Y335664D01*
X38962Y335575D01*
X38994Y335484D01*
X35516Y333848D02*
X35456Y333907D01*
X35399Y333969D01*
X35344Y334033D01*
X35293Y334100D01*
X35244Y334169D01*
X35198Y334239D01*
X35155Y334312D01*
X35115Y334386D01*
X35079Y334462D01*
X35046Y334540D01*
X35016Y334619D01*
X34989Y334699D01*
X34966Y334780D01*
X34947Y334862D01*
X34931Y334944D01*
X34918Y335028D01*
X34909Y335112D01*
X34904Y335196D01*
X34902Y335280D01*
X35516Y333847D02*
X38994Y329755D01*
X34902Y329755D01*
M02*
