G04 EAGLE Gerber RS-274X export*
G75*
%MOMM*%
%FSLAX34Y34*%
%LPD*%
%INSilkscreen Bottom*%
%IPPOS*%
%AMOC8*
5,1,8,0,0,1.08239X$1,22.5*%
G01*
%ADD10C,0.177800*%
%ADD11C,0.127000*%
%ADD12C,0.152400*%


D10*
X366649Y331144D02*
X380111Y331144D01*
X380111Y334883D01*
X380109Y335004D01*
X380103Y335125D01*
X380093Y335246D01*
X380080Y335366D01*
X380062Y335486D01*
X380041Y335605D01*
X380015Y335723D01*
X379986Y335841D01*
X379953Y335958D01*
X379917Y336073D01*
X379876Y336187D01*
X379832Y336300D01*
X379784Y336411D01*
X379733Y336521D01*
X379678Y336629D01*
X379620Y336735D01*
X379558Y336839D01*
X379493Y336941D01*
X379425Y337041D01*
X379354Y337139D01*
X379279Y337234D01*
X379201Y337327D01*
X379121Y337418D01*
X379037Y337505D01*
X378951Y337590D01*
X378862Y337672D01*
X378770Y337752D01*
X378676Y337828D01*
X378580Y337901D01*
X378481Y337971D01*
X378380Y338037D01*
X378276Y338101D01*
X378171Y338161D01*
X378064Y338217D01*
X377955Y338270D01*
X377845Y338320D01*
X377733Y338366D01*
X377619Y338408D01*
X377504Y338446D01*
X377388Y338481D01*
X377271Y338512D01*
X377153Y338539D01*
X377035Y338563D01*
X376915Y338582D01*
X376795Y338598D01*
X376674Y338610D01*
X376554Y338618D01*
X376433Y338622D01*
X376311Y338622D01*
X376190Y338618D01*
X376070Y338610D01*
X375949Y338598D01*
X375829Y338582D01*
X375709Y338563D01*
X375591Y338539D01*
X375473Y338512D01*
X375356Y338481D01*
X375240Y338446D01*
X375125Y338408D01*
X375011Y338366D01*
X374899Y338320D01*
X374789Y338270D01*
X374680Y338217D01*
X374573Y338161D01*
X374468Y338101D01*
X374364Y338037D01*
X374263Y337971D01*
X374164Y337901D01*
X374068Y337828D01*
X373974Y337752D01*
X373882Y337672D01*
X373793Y337590D01*
X373707Y337505D01*
X373623Y337418D01*
X373543Y337327D01*
X373465Y337234D01*
X373390Y337139D01*
X373319Y337041D01*
X373251Y336941D01*
X373186Y336839D01*
X373124Y336735D01*
X373066Y336629D01*
X373011Y336521D01*
X372960Y336411D01*
X372912Y336300D01*
X372868Y336187D01*
X372827Y336073D01*
X372791Y335958D01*
X372758Y335841D01*
X372729Y335723D01*
X372703Y335605D01*
X372682Y335486D01*
X372664Y335366D01*
X372651Y335246D01*
X372641Y335125D01*
X372635Y335004D01*
X372633Y334883D01*
X372632Y334883D02*
X372632Y331144D01*
X372632Y343964D02*
X369641Y343964D01*
X372632Y343963D02*
X372740Y343965D01*
X372848Y343971D01*
X372955Y343981D01*
X373063Y343994D01*
X373169Y344012D01*
X373275Y344033D01*
X373380Y344058D01*
X373484Y344087D01*
X373587Y344120D01*
X373689Y344156D01*
X373789Y344196D01*
X373888Y344240D01*
X373986Y344287D01*
X374081Y344337D01*
X374175Y344391D01*
X374266Y344449D01*
X374356Y344509D01*
X374443Y344573D01*
X374527Y344640D01*
X374610Y344710D01*
X374690Y344783D01*
X374767Y344859D01*
X374841Y344937D01*
X374912Y345018D01*
X374981Y345102D01*
X375046Y345188D01*
X375108Y345276D01*
X375167Y345366D01*
X375223Y345459D01*
X375275Y345554D01*
X375324Y345650D01*
X375370Y345748D01*
X375411Y345848D01*
X375450Y345949D01*
X375484Y346051D01*
X375515Y346155D01*
X375542Y346259D01*
X375565Y346365D01*
X375585Y346471D01*
X375600Y346578D01*
X375612Y346685D01*
X375620Y346793D01*
X375624Y346901D01*
X375624Y347009D01*
X375620Y347117D01*
X375612Y347225D01*
X375600Y347332D01*
X375585Y347439D01*
X375565Y347545D01*
X375542Y347651D01*
X375515Y347755D01*
X375484Y347859D01*
X375450Y347961D01*
X375411Y348062D01*
X375370Y348162D01*
X375324Y348260D01*
X375275Y348356D01*
X375223Y348451D01*
X375167Y348544D01*
X375108Y348634D01*
X375046Y348722D01*
X374981Y348808D01*
X374912Y348892D01*
X374841Y348973D01*
X374767Y349051D01*
X374690Y349127D01*
X374610Y349200D01*
X374527Y349270D01*
X374443Y349337D01*
X374356Y349401D01*
X374266Y349461D01*
X374175Y349519D01*
X374081Y349573D01*
X373986Y349623D01*
X373888Y349670D01*
X373789Y349714D01*
X373689Y349754D01*
X373587Y349790D01*
X373484Y349823D01*
X373380Y349852D01*
X373275Y349877D01*
X373169Y349898D01*
X373063Y349916D01*
X372955Y349929D01*
X372848Y349939D01*
X372740Y349945D01*
X372632Y349947D01*
X369641Y349947D01*
X369533Y349945D01*
X369425Y349939D01*
X369318Y349929D01*
X369210Y349916D01*
X369104Y349898D01*
X368998Y349877D01*
X368893Y349852D01*
X368789Y349823D01*
X368686Y349790D01*
X368584Y349754D01*
X368484Y349714D01*
X368385Y349670D01*
X368287Y349623D01*
X368192Y349573D01*
X368098Y349519D01*
X368007Y349461D01*
X367917Y349401D01*
X367830Y349337D01*
X367746Y349270D01*
X367663Y349200D01*
X367583Y349127D01*
X367506Y349051D01*
X367432Y348973D01*
X367361Y348892D01*
X367292Y348808D01*
X367227Y348722D01*
X367165Y348634D01*
X367106Y348544D01*
X367050Y348451D01*
X366998Y348356D01*
X366949Y348260D01*
X366903Y348162D01*
X366862Y348062D01*
X366823Y347961D01*
X366789Y347859D01*
X366758Y347755D01*
X366731Y347651D01*
X366708Y347545D01*
X366688Y347439D01*
X366673Y347332D01*
X366661Y347225D01*
X366653Y347117D01*
X366649Y347009D01*
X366649Y346901D01*
X366653Y346793D01*
X366661Y346685D01*
X366673Y346578D01*
X366688Y346471D01*
X366708Y346365D01*
X366731Y346259D01*
X366758Y346155D01*
X366789Y346051D01*
X366823Y345949D01*
X366862Y345848D01*
X366903Y345748D01*
X366949Y345650D01*
X366998Y345554D01*
X367050Y345459D01*
X367106Y345366D01*
X367165Y345276D01*
X367227Y345188D01*
X367292Y345102D01*
X367361Y345018D01*
X367432Y344937D01*
X367506Y344859D01*
X367583Y344783D01*
X367663Y344710D01*
X367746Y344640D01*
X367830Y344573D01*
X367917Y344509D01*
X368007Y344449D01*
X368098Y344391D01*
X368192Y344337D01*
X368287Y344287D01*
X368385Y344240D01*
X368484Y344196D01*
X368584Y344156D01*
X368686Y344120D01*
X368789Y344087D01*
X368893Y344058D01*
X368998Y344033D01*
X369104Y344012D01*
X369210Y343994D01*
X369318Y343981D01*
X369425Y343971D01*
X369533Y343965D01*
X369641Y343963D01*
X366649Y356613D02*
X375624Y356613D01*
X375624Y363344D01*
X375622Y363437D01*
X375616Y363529D01*
X375607Y363622D01*
X375593Y363713D01*
X375576Y363805D01*
X375555Y363895D01*
X375531Y363984D01*
X375502Y364073D01*
X375470Y364160D01*
X375435Y364245D01*
X375396Y364330D01*
X375354Y364412D01*
X375308Y364493D01*
X375259Y364571D01*
X375206Y364648D01*
X375151Y364722D01*
X375092Y364794D01*
X375031Y364864D01*
X374967Y364931D01*
X374900Y364995D01*
X374830Y365056D01*
X374758Y365115D01*
X374684Y365170D01*
X374607Y365223D01*
X374529Y365272D01*
X374448Y365318D01*
X374366Y365360D01*
X374281Y365399D01*
X374196Y365434D01*
X374109Y365466D01*
X374020Y365495D01*
X373931Y365519D01*
X373841Y365540D01*
X373749Y365557D01*
X373658Y365571D01*
X373565Y365580D01*
X373473Y365586D01*
X373380Y365588D01*
X366649Y365588D01*
X366649Y361100D02*
X375624Y361100D01*
X372632Y372254D02*
X369641Y372254D01*
X372632Y372253D02*
X372740Y372255D01*
X372848Y372261D01*
X372955Y372271D01*
X373063Y372284D01*
X373169Y372302D01*
X373275Y372323D01*
X373380Y372348D01*
X373484Y372377D01*
X373587Y372410D01*
X373689Y372446D01*
X373789Y372486D01*
X373888Y372530D01*
X373986Y372577D01*
X374081Y372627D01*
X374175Y372681D01*
X374266Y372739D01*
X374356Y372799D01*
X374443Y372863D01*
X374527Y372930D01*
X374610Y373000D01*
X374690Y373073D01*
X374767Y373149D01*
X374841Y373227D01*
X374912Y373308D01*
X374981Y373392D01*
X375046Y373478D01*
X375108Y373566D01*
X375167Y373656D01*
X375223Y373749D01*
X375275Y373844D01*
X375324Y373940D01*
X375370Y374038D01*
X375411Y374138D01*
X375450Y374239D01*
X375484Y374341D01*
X375515Y374445D01*
X375542Y374549D01*
X375565Y374655D01*
X375585Y374761D01*
X375600Y374868D01*
X375612Y374975D01*
X375620Y375083D01*
X375624Y375191D01*
X375624Y375299D01*
X375620Y375407D01*
X375612Y375515D01*
X375600Y375622D01*
X375585Y375729D01*
X375565Y375835D01*
X375542Y375941D01*
X375515Y376045D01*
X375484Y376149D01*
X375450Y376251D01*
X375411Y376352D01*
X375370Y376452D01*
X375324Y376550D01*
X375275Y376646D01*
X375223Y376741D01*
X375167Y376834D01*
X375108Y376924D01*
X375046Y377012D01*
X374981Y377098D01*
X374912Y377182D01*
X374841Y377263D01*
X374767Y377341D01*
X374690Y377417D01*
X374610Y377490D01*
X374527Y377560D01*
X374443Y377627D01*
X374356Y377691D01*
X374266Y377751D01*
X374175Y377809D01*
X374081Y377863D01*
X373986Y377913D01*
X373888Y377960D01*
X373789Y378004D01*
X373689Y378044D01*
X373587Y378080D01*
X373484Y378113D01*
X373380Y378142D01*
X373275Y378167D01*
X373169Y378188D01*
X373063Y378206D01*
X372955Y378219D01*
X372848Y378229D01*
X372740Y378235D01*
X372632Y378237D01*
X369641Y378237D01*
X369533Y378235D01*
X369425Y378229D01*
X369318Y378219D01*
X369210Y378206D01*
X369104Y378188D01*
X368998Y378167D01*
X368893Y378142D01*
X368789Y378113D01*
X368686Y378080D01*
X368584Y378044D01*
X368484Y378004D01*
X368385Y377960D01*
X368287Y377913D01*
X368192Y377863D01*
X368098Y377809D01*
X368007Y377751D01*
X367917Y377691D01*
X367830Y377627D01*
X367746Y377560D01*
X367663Y377490D01*
X367583Y377417D01*
X367506Y377341D01*
X367432Y377263D01*
X367361Y377182D01*
X367292Y377098D01*
X367227Y377012D01*
X367165Y376924D01*
X367106Y376834D01*
X367050Y376741D01*
X366998Y376646D01*
X366949Y376550D01*
X366903Y376452D01*
X366862Y376352D01*
X366823Y376251D01*
X366789Y376149D01*
X366758Y376045D01*
X366731Y375941D01*
X366708Y375835D01*
X366688Y375729D01*
X366673Y375622D01*
X366661Y375515D01*
X366653Y375407D01*
X366649Y375299D01*
X366649Y375191D01*
X366653Y375083D01*
X366661Y374975D01*
X366673Y374868D01*
X366688Y374761D01*
X366708Y374655D01*
X366731Y374549D01*
X366758Y374445D01*
X366789Y374341D01*
X366823Y374239D01*
X366862Y374138D01*
X366903Y374038D01*
X366949Y373940D01*
X366998Y373844D01*
X367050Y373749D01*
X367106Y373656D01*
X367165Y373566D01*
X367227Y373478D01*
X367292Y373392D01*
X367361Y373308D01*
X367432Y373227D01*
X367506Y373149D01*
X367583Y373073D01*
X367663Y373000D01*
X367746Y372930D01*
X367830Y372863D01*
X367917Y372799D01*
X368007Y372739D01*
X368098Y372681D01*
X368192Y372627D01*
X368287Y372577D01*
X368385Y372530D01*
X368484Y372486D01*
X368584Y372446D01*
X368686Y372410D01*
X368789Y372377D01*
X368893Y372348D01*
X368998Y372323D01*
X369104Y372302D01*
X369210Y372284D01*
X369318Y372271D01*
X369425Y372261D01*
X369533Y372255D01*
X369641Y372253D01*
X366649Y390014D02*
X380111Y390014D01*
X366649Y390014D02*
X366649Y386275D01*
X366651Y386182D01*
X366657Y386090D01*
X366666Y385997D01*
X366680Y385906D01*
X366697Y385814D01*
X366718Y385724D01*
X366742Y385635D01*
X366771Y385546D01*
X366803Y385459D01*
X366838Y385374D01*
X366877Y385289D01*
X366919Y385207D01*
X366965Y385126D01*
X367014Y385048D01*
X367067Y384971D01*
X367122Y384897D01*
X367181Y384825D01*
X367242Y384755D01*
X367306Y384688D01*
X367373Y384624D01*
X367443Y384563D01*
X367515Y384504D01*
X367589Y384449D01*
X367666Y384396D01*
X367744Y384347D01*
X367825Y384301D01*
X367907Y384259D01*
X367992Y384220D01*
X368077Y384185D01*
X368164Y384153D01*
X368253Y384124D01*
X368342Y384100D01*
X368432Y384079D01*
X368524Y384062D01*
X368615Y384048D01*
X368708Y384039D01*
X368800Y384033D01*
X368893Y384031D01*
X373380Y384031D01*
X373473Y384033D01*
X373565Y384039D01*
X373658Y384048D01*
X373749Y384062D01*
X373841Y384079D01*
X373931Y384100D01*
X374020Y384124D01*
X374109Y384153D01*
X374196Y384185D01*
X374281Y384220D01*
X374366Y384259D01*
X374448Y384301D01*
X374529Y384347D01*
X374607Y384396D01*
X374684Y384449D01*
X374758Y384504D01*
X374830Y384563D01*
X374900Y384624D01*
X374967Y384688D01*
X375031Y384755D01*
X375092Y384825D01*
X375151Y384897D01*
X375206Y384971D01*
X375259Y385048D01*
X375308Y385126D01*
X375354Y385207D01*
X375396Y385289D01*
X375435Y385374D01*
X375470Y385459D01*
X375502Y385546D01*
X375531Y385635D01*
X375555Y385724D01*
X375576Y385815D01*
X375593Y385906D01*
X375607Y385997D01*
X375616Y386090D01*
X375622Y386182D01*
X375624Y386275D01*
X375624Y390014D01*
X372632Y396437D02*
X369641Y396437D01*
X372632Y396436D02*
X372740Y396438D01*
X372848Y396444D01*
X372955Y396454D01*
X373063Y396467D01*
X373169Y396485D01*
X373275Y396506D01*
X373380Y396531D01*
X373484Y396560D01*
X373587Y396593D01*
X373689Y396629D01*
X373789Y396669D01*
X373888Y396713D01*
X373986Y396760D01*
X374081Y396810D01*
X374175Y396864D01*
X374266Y396922D01*
X374356Y396982D01*
X374443Y397046D01*
X374527Y397113D01*
X374610Y397183D01*
X374690Y397256D01*
X374767Y397332D01*
X374841Y397410D01*
X374912Y397491D01*
X374981Y397575D01*
X375046Y397661D01*
X375108Y397749D01*
X375167Y397839D01*
X375223Y397932D01*
X375275Y398027D01*
X375324Y398123D01*
X375370Y398221D01*
X375411Y398321D01*
X375450Y398422D01*
X375484Y398524D01*
X375515Y398628D01*
X375542Y398732D01*
X375565Y398838D01*
X375585Y398944D01*
X375600Y399051D01*
X375612Y399158D01*
X375620Y399266D01*
X375624Y399374D01*
X375624Y399482D01*
X375620Y399590D01*
X375612Y399698D01*
X375600Y399805D01*
X375585Y399912D01*
X375565Y400018D01*
X375542Y400124D01*
X375515Y400228D01*
X375484Y400332D01*
X375450Y400434D01*
X375411Y400535D01*
X375370Y400635D01*
X375324Y400733D01*
X375275Y400829D01*
X375223Y400924D01*
X375167Y401017D01*
X375108Y401107D01*
X375046Y401195D01*
X374981Y401281D01*
X374912Y401365D01*
X374841Y401446D01*
X374767Y401524D01*
X374690Y401600D01*
X374610Y401673D01*
X374527Y401743D01*
X374443Y401810D01*
X374356Y401874D01*
X374266Y401934D01*
X374175Y401992D01*
X374081Y402046D01*
X373986Y402096D01*
X373888Y402143D01*
X373789Y402187D01*
X373689Y402227D01*
X373587Y402263D01*
X373484Y402296D01*
X373380Y402325D01*
X373275Y402350D01*
X373169Y402371D01*
X373063Y402389D01*
X372955Y402402D01*
X372848Y402412D01*
X372740Y402418D01*
X372632Y402420D01*
X369641Y402420D01*
X369533Y402418D01*
X369425Y402412D01*
X369318Y402402D01*
X369210Y402389D01*
X369104Y402371D01*
X368998Y402350D01*
X368893Y402325D01*
X368789Y402296D01*
X368686Y402263D01*
X368584Y402227D01*
X368484Y402187D01*
X368385Y402143D01*
X368287Y402096D01*
X368192Y402046D01*
X368098Y401992D01*
X368007Y401934D01*
X367917Y401874D01*
X367830Y401810D01*
X367746Y401743D01*
X367663Y401673D01*
X367583Y401600D01*
X367506Y401524D01*
X367432Y401446D01*
X367361Y401365D01*
X367292Y401281D01*
X367227Y401195D01*
X367165Y401107D01*
X367106Y401017D01*
X367050Y400924D01*
X366998Y400829D01*
X366949Y400733D01*
X366903Y400635D01*
X366862Y400535D01*
X366823Y400434D01*
X366789Y400332D01*
X366758Y400228D01*
X366731Y400124D01*
X366708Y400018D01*
X366688Y399912D01*
X366673Y399805D01*
X366661Y399698D01*
X366653Y399590D01*
X366649Y399482D01*
X366649Y399374D01*
X366653Y399266D01*
X366661Y399158D01*
X366673Y399051D01*
X366688Y398944D01*
X366708Y398838D01*
X366731Y398732D01*
X366758Y398628D01*
X366789Y398524D01*
X366823Y398422D01*
X366862Y398321D01*
X366903Y398221D01*
X366949Y398123D01*
X366998Y398027D01*
X367050Y397932D01*
X367106Y397839D01*
X367165Y397749D01*
X367227Y397661D01*
X367292Y397575D01*
X367361Y397491D01*
X367432Y397410D01*
X367506Y397332D01*
X367583Y397256D01*
X367663Y397183D01*
X367746Y397113D01*
X367830Y397046D01*
X367917Y396982D01*
X368007Y396922D01*
X368098Y396864D01*
X368192Y396810D01*
X368287Y396760D01*
X368385Y396713D01*
X368484Y396669D01*
X368584Y396629D01*
X368686Y396593D01*
X368789Y396560D01*
X368893Y396531D01*
X368998Y396506D01*
X369104Y396485D01*
X369210Y396467D01*
X369318Y396454D01*
X369425Y396444D01*
X369533Y396438D01*
X369641Y396436D01*
X366649Y408854D02*
X375624Y408854D01*
X375624Y413341D01*
X374128Y413341D01*
X372632Y417882D02*
X369641Y417882D01*
X372632Y417882D02*
X372740Y417884D01*
X372848Y417890D01*
X372955Y417900D01*
X373063Y417913D01*
X373169Y417931D01*
X373275Y417952D01*
X373380Y417977D01*
X373484Y418006D01*
X373587Y418039D01*
X373689Y418075D01*
X373789Y418115D01*
X373888Y418159D01*
X373986Y418206D01*
X374081Y418256D01*
X374175Y418310D01*
X374266Y418368D01*
X374356Y418428D01*
X374443Y418492D01*
X374527Y418559D01*
X374610Y418629D01*
X374690Y418702D01*
X374767Y418778D01*
X374841Y418856D01*
X374912Y418937D01*
X374981Y419021D01*
X375046Y419107D01*
X375108Y419195D01*
X375167Y419285D01*
X375223Y419378D01*
X375275Y419473D01*
X375324Y419569D01*
X375370Y419667D01*
X375411Y419767D01*
X375450Y419868D01*
X375484Y419970D01*
X375515Y420074D01*
X375542Y420178D01*
X375565Y420284D01*
X375585Y420390D01*
X375600Y420497D01*
X375612Y420604D01*
X375620Y420712D01*
X375624Y420820D01*
X375624Y420928D01*
X375620Y421036D01*
X375612Y421144D01*
X375600Y421251D01*
X375585Y421358D01*
X375565Y421464D01*
X375542Y421570D01*
X375515Y421674D01*
X375484Y421778D01*
X375450Y421880D01*
X375411Y421981D01*
X375370Y422081D01*
X375324Y422179D01*
X375275Y422275D01*
X375223Y422370D01*
X375167Y422463D01*
X375108Y422553D01*
X375046Y422641D01*
X374981Y422727D01*
X374912Y422811D01*
X374841Y422892D01*
X374767Y422970D01*
X374690Y423046D01*
X374610Y423119D01*
X374527Y423189D01*
X374443Y423256D01*
X374356Y423320D01*
X374266Y423380D01*
X374175Y423438D01*
X374081Y423492D01*
X373986Y423542D01*
X373888Y423589D01*
X373789Y423633D01*
X373689Y423673D01*
X373587Y423709D01*
X373484Y423742D01*
X373380Y423771D01*
X373275Y423796D01*
X373169Y423817D01*
X373063Y423835D01*
X372955Y423848D01*
X372848Y423858D01*
X372740Y423864D01*
X372632Y423866D01*
X372632Y423865D02*
X369641Y423865D01*
X369641Y423866D02*
X369533Y423864D01*
X369425Y423858D01*
X369318Y423848D01*
X369210Y423835D01*
X369104Y423817D01*
X368998Y423796D01*
X368893Y423771D01*
X368789Y423742D01*
X368686Y423709D01*
X368584Y423673D01*
X368484Y423633D01*
X368385Y423589D01*
X368287Y423542D01*
X368192Y423492D01*
X368098Y423438D01*
X368007Y423380D01*
X367917Y423320D01*
X367830Y423256D01*
X367746Y423189D01*
X367663Y423119D01*
X367583Y423046D01*
X367506Y422970D01*
X367432Y422892D01*
X367361Y422811D01*
X367292Y422727D01*
X367227Y422641D01*
X367165Y422553D01*
X367106Y422463D01*
X367050Y422370D01*
X366998Y422275D01*
X366949Y422179D01*
X366903Y422081D01*
X366862Y421981D01*
X366823Y421880D01*
X366789Y421778D01*
X366758Y421674D01*
X366731Y421570D01*
X366708Y421464D01*
X366688Y421358D01*
X366673Y421251D01*
X366661Y421144D01*
X366653Y421036D01*
X366649Y420928D01*
X366649Y420820D01*
X366653Y420712D01*
X366661Y420604D01*
X366673Y420497D01*
X366688Y420390D01*
X366708Y420284D01*
X366731Y420178D01*
X366758Y420074D01*
X366789Y419970D01*
X366823Y419868D01*
X366862Y419767D01*
X366903Y419667D01*
X366949Y419569D01*
X366998Y419473D01*
X367050Y419378D01*
X367106Y419285D01*
X367165Y419195D01*
X367227Y419107D01*
X367292Y419021D01*
X367361Y418937D01*
X367432Y418856D01*
X367506Y418778D01*
X367583Y418702D01*
X367663Y418629D01*
X367746Y418559D01*
X367830Y418492D01*
X367917Y418428D01*
X368007Y418368D01*
X368098Y418310D01*
X368192Y418256D01*
X368287Y418206D01*
X368385Y418159D01*
X368484Y418115D01*
X368584Y418075D01*
X368686Y418039D01*
X368789Y418006D01*
X368893Y417977D01*
X368998Y417952D01*
X369104Y417931D01*
X369210Y417913D01*
X369318Y417900D01*
X369425Y417890D01*
X369533Y417884D01*
X369641Y417882D01*
X366649Y440037D02*
X380111Y440037D01*
X380111Y436298D02*
X380111Y443777D01*
X375624Y448707D02*
X366649Y448707D01*
X379363Y448333D02*
X380111Y448333D01*
X380111Y449081D01*
X379363Y449081D01*
X379363Y448333D01*
X375624Y455170D02*
X366649Y455170D01*
X375624Y455170D02*
X375624Y461901D01*
X375622Y461994D01*
X375616Y462086D01*
X375607Y462179D01*
X375593Y462270D01*
X375576Y462362D01*
X375555Y462452D01*
X375531Y462541D01*
X375502Y462630D01*
X375470Y462717D01*
X375435Y462802D01*
X375396Y462887D01*
X375354Y462969D01*
X375308Y463050D01*
X375259Y463128D01*
X375206Y463205D01*
X375151Y463279D01*
X375092Y463351D01*
X375031Y463421D01*
X374967Y463488D01*
X374900Y463552D01*
X374830Y463613D01*
X374758Y463672D01*
X374684Y463727D01*
X374607Y463780D01*
X374529Y463829D01*
X374448Y463875D01*
X374366Y463917D01*
X374281Y463956D01*
X374196Y463991D01*
X374109Y464023D01*
X374020Y464052D01*
X373931Y464076D01*
X373841Y464097D01*
X373749Y464114D01*
X373658Y464128D01*
X373565Y464137D01*
X373473Y464143D01*
X373380Y464145D01*
X366649Y464145D01*
X366649Y459658D02*
X375624Y459658D01*
X366649Y473055D02*
X366649Y476794D01*
X366649Y473055D02*
X366651Y472962D01*
X366657Y472870D01*
X366666Y472777D01*
X366680Y472686D01*
X366697Y472594D01*
X366718Y472504D01*
X366742Y472415D01*
X366771Y472326D01*
X366803Y472239D01*
X366838Y472154D01*
X366877Y472069D01*
X366919Y471987D01*
X366965Y471906D01*
X367014Y471828D01*
X367067Y471751D01*
X367122Y471677D01*
X367181Y471605D01*
X367242Y471535D01*
X367306Y471468D01*
X367373Y471404D01*
X367443Y471343D01*
X367515Y471284D01*
X367589Y471229D01*
X367666Y471176D01*
X367744Y471127D01*
X367825Y471081D01*
X367907Y471039D01*
X367992Y471000D01*
X368077Y470965D01*
X368164Y470933D01*
X368253Y470904D01*
X368342Y470880D01*
X368432Y470859D01*
X368524Y470842D01*
X368615Y470828D01*
X368708Y470819D01*
X368800Y470813D01*
X368893Y470811D01*
X372632Y470811D01*
X372632Y470810D02*
X372740Y470812D01*
X372848Y470818D01*
X372955Y470828D01*
X373063Y470841D01*
X373169Y470859D01*
X373275Y470880D01*
X373380Y470905D01*
X373484Y470934D01*
X373587Y470967D01*
X373689Y471003D01*
X373789Y471043D01*
X373888Y471087D01*
X373986Y471134D01*
X374081Y471184D01*
X374175Y471238D01*
X374266Y471296D01*
X374356Y471356D01*
X374443Y471420D01*
X374527Y471487D01*
X374610Y471557D01*
X374690Y471630D01*
X374767Y471706D01*
X374841Y471784D01*
X374912Y471865D01*
X374981Y471949D01*
X375046Y472035D01*
X375108Y472123D01*
X375167Y472213D01*
X375223Y472306D01*
X375275Y472401D01*
X375324Y472497D01*
X375370Y472595D01*
X375411Y472695D01*
X375450Y472796D01*
X375484Y472898D01*
X375515Y473002D01*
X375542Y473106D01*
X375565Y473212D01*
X375585Y473318D01*
X375600Y473425D01*
X375612Y473532D01*
X375620Y473640D01*
X375624Y473748D01*
X375624Y473856D01*
X375620Y473964D01*
X375612Y474072D01*
X375600Y474179D01*
X375585Y474286D01*
X375565Y474392D01*
X375542Y474498D01*
X375515Y474602D01*
X375484Y474706D01*
X375450Y474808D01*
X375411Y474909D01*
X375370Y475009D01*
X375324Y475107D01*
X375275Y475203D01*
X375223Y475298D01*
X375167Y475391D01*
X375108Y475481D01*
X375046Y475569D01*
X374981Y475655D01*
X374912Y475739D01*
X374841Y475820D01*
X374767Y475898D01*
X374690Y475974D01*
X374610Y476047D01*
X374527Y476117D01*
X374443Y476184D01*
X374356Y476248D01*
X374266Y476308D01*
X374175Y476366D01*
X374081Y476420D01*
X373986Y476470D01*
X373888Y476517D01*
X373789Y476561D01*
X373689Y476601D01*
X373587Y476637D01*
X373484Y476670D01*
X373380Y476699D01*
X373275Y476724D01*
X373169Y476745D01*
X373063Y476763D01*
X372955Y476776D01*
X372848Y476786D01*
X372740Y476792D01*
X372632Y476794D01*
X371136Y476794D01*
X371136Y470811D01*
X366649Y483228D02*
X375624Y483228D01*
X375624Y487715D01*
X374128Y487715D01*
X375624Y499101D02*
X366649Y502092D01*
X375624Y505084D01*
X377119Y510672D02*
X380111Y514412D01*
X366649Y514412D01*
X366649Y518151D02*
X366649Y510672D01*
X366649Y523620D02*
X367397Y523620D01*
X367397Y524368D01*
X366649Y524368D01*
X366649Y523620D01*
X373380Y529836D02*
X373645Y529839D01*
X373909Y529849D01*
X374174Y529864D01*
X374438Y529887D01*
X374701Y529915D01*
X374964Y529950D01*
X375225Y529991D01*
X375486Y530038D01*
X375745Y530091D01*
X376003Y530151D01*
X376260Y530216D01*
X376515Y530288D01*
X376768Y530366D01*
X377019Y530450D01*
X377268Y530540D01*
X377515Y530636D01*
X377760Y530737D01*
X378002Y530845D01*
X378241Y530958D01*
X378241Y530959D02*
X378339Y530994D01*
X378435Y531033D01*
X378530Y531076D01*
X378623Y531123D01*
X378715Y531172D01*
X378804Y531226D01*
X378891Y531282D01*
X378976Y531342D01*
X379059Y531405D01*
X379140Y531471D01*
X379217Y531540D01*
X379293Y531612D01*
X379365Y531686D01*
X379435Y531764D01*
X379501Y531843D01*
X379565Y531926D01*
X379625Y532010D01*
X379683Y532097D01*
X379737Y532186D01*
X379787Y532277D01*
X379834Y532370D01*
X379878Y532464D01*
X379918Y532560D01*
X379954Y532658D01*
X379987Y532756D01*
X380016Y532856D01*
X380041Y532957D01*
X380062Y533059D01*
X380080Y533162D01*
X380093Y533265D01*
X380103Y533368D01*
X380109Y533472D01*
X380111Y533576D01*
X380109Y533680D01*
X380103Y533784D01*
X380093Y533887D01*
X380080Y533990D01*
X380062Y534093D01*
X380041Y534195D01*
X380016Y534296D01*
X379987Y534396D01*
X379954Y534494D01*
X379918Y534592D01*
X379878Y534688D01*
X379834Y534782D01*
X379787Y534875D01*
X379737Y534966D01*
X379683Y535055D01*
X379625Y535142D01*
X379565Y535226D01*
X379501Y535309D01*
X379435Y535389D01*
X379365Y535466D01*
X379293Y535540D01*
X379217Y535612D01*
X379140Y535681D01*
X379059Y535747D01*
X378976Y535810D01*
X378891Y535870D01*
X378804Y535926D01*
X378715Y535980D01*
X378623Y536030D01*
X378530Y536076D01*
X378435Y536119D01*
X378339Y536158D01*
X378241Y536193D01*
X378241Y536194D02*
X378002Y536307D01*
X377760Y536415D01*
X377515Y536516D01*
X377268Y536612D01*
X377019Y536702D01*
X376768Y536786D01*
X376515Y536864D01*
X376260Y536936D01*
X376003Y537001D01*
X375745Y537061D01*
X375486Y537114D01*
X375225Y537161D01*
X374964Y537202D01*
X374701Y537237D01*
X374438Y537265D01*
X374174Y537288D01*
X373910Y537303D01*
X373645Y537313D01*
X373380Y537316D01*
X373380Y529836D02*
X373115Y529839D01*
X372851Y529849D01*
X372586Y529864D01*
X372322Y529887D01*
X372059Y529915D01*
X371796Y529950D01*
X371535Y529991D01*
X371274Y530038D01*
X371015Y530091D01*
X370757Y530151D01*
X370500Y530216D01*
X370245Y530288D01*
X369992Y530366D01*
X369741Y530450D01*
X369492Y530540D01*
X369245Y530636D01*
X369000Y530737D01*
X368758Y530845D01*
X368519Y530958D01*
X368519Y530959D02*
X368421Y530994D01*
X368325Y531033D01*
X368230Y531076D01*
X368137Y531123D01*
X368045Y531172D01*
X367956Y531226D01*
X367869Y531282D01*
X367784Y531342D01*
X367701Y531405D01*
X367620Y531471D01*
X367543Y531540D01*
X367467Y531612D01*
X367395Y531686D01*
X367325Y531764D01*
X367259Y531843D01*
X367195Y531926D01*
X367135Y532010D01*
X367077Y532097D01*
X367023Y532186D01*
X366973Y532277D01*
X366926Y532370D01*
X366882Y532464D01*
X366842Y532560D01*
X366806Y532658D01*
X366773Y532756D01*
X366744Y532856D01*
X366719Y532957D01*
X366698Y533059D01*
X366680Y533162D01*
X366667Y533265D01*
X366657Y533368D01*
X366651Y533472D01*
X366649Y533576D01*
X368519Y536193D02*
X368758Y536306D01*
X369000Y536414D01*
X369245Y536515D01*
X369492Y536611D01*
X369741Y536701D01*
X369992Y536785D01*
X370245Y536863D01*
X370500Y536935D01*
X370757Y537000D01*
X371015Y537060D01*
X371274Y537113D01*
X371535Y537160D01*
X371796Y537201D01*
X372059Y537236D01*
X372322Y537264D01*
X372586Y537287D01*
X372850Y537302D01*
X373115Y537312D01*
X373380Y537315D01*
X368519Y536193D02*
X368421Y536158D01*
X368325Y536119D01*
X368230Y536076D01*
X368137Y536029D01*
X368045Y535980D01*
X367956Y535926D01*
X367869Y535870D01*
X367784Y535810D01*
X367701Y535747D01*
X367620Y535681D01*
X367543Y535612D01*
X367467Y535540D01*
X367395Y535466D01*
X367325Y535388D01*
X367259Y535309D01*
X367195Y535226D01*
X367135Y535142D01*
X367077Y535055D01*
X367023Y534966D01*
X366973Y534875D01*
X366926Y534782D01*
X366882Y534688D01*
X366842Y534592D01*
X366806Y534494D01*
X366773Y534396D01*
X366744Y534296D01*
X366719Y534195D01*
X366698Y534093D01*
X366680Y533990D01*
X366667Y533887D01*
X366657Y533784D01*
X366651Y533680D01*
X366649Y533576D01*
X369641Y530584D02*
X377119Y536567D01*
X380111Y551389D02*
X366649Y551389D01*
X380111Y551389D02*
X380111Y555128D01*
X380109Y555249D01*
X380103Y555370D01*
X380093Y555491D01*
X380080Y555611D01*
X380062Y555731D01*
X380041Y555850D01*
X380015Y555968D01*
X379986Y556086D01*
X379953Y556203D01*
X379917Y556318D01*
X379876Y556432D01*
X379832Y556545D01*
X379784Y556656D01*
X379733Y556766D01*
X379678Y556874D01*
X379620Y556980D01*
X379558Y557084D01*
X379493Y557186D01*
X379425Y557286D01*
X379354Y557384D01*
X379279Y557479D01*
X379201Y557572D01*
X379121Y557663D01*
X379037Y557750D01*
X378951Y557835D01*
X378862Y557917D01*
X378770Y557997D01*
X378676Y558073D01*
X378580Y558146D01*
X378481Y558216D01*
X378380Y558282D01*
X378276Y558346D01*
X378171Y558406D01*
X378064Y558462D01*
X377955Y558515D01*
X377845Y558565D01*
X377733Y558611D01*
X377619Y558653D01*
X377504Y558691D01*
X377388Y558726D01*
X377271Y558757D01*
X377153Y558784D01*
X377035Y558808D01*
X376915Y558827D01*
X376795Y558843D01*
X376674Y558855D01*
X376554Y558863D01*
X376433Y558867D01*
X376311Y558867D01*
X376190Y558863D01*
X376070Y558855D01*
X375949Y558843D01*
X375829Y558827D01*
X375709Y558808D01*
X375591Y558784D01*
X375473Y558757D01*
X375356Y558726D01*
X375240Y558691D01*
X375125Y558653D01*
X375011Y558611D01*
X374899Y558565D01*
X374789Y558515D01*
X374680Y558462D01*
X374573Y558406D01*
X374468Y558346D01*
X374364Y558282D01*
X374263Y558216D01*
X374164Y558146D01*
X374068Y558073D01*
X373974Y557997D01*
X373882Y557917D01*
X373793Y557835D01*
X373707Y557750D01*
X373623Y557663D01*
X373543Y557572D01*
X373465Y557479D01*
X373390Y557384D01*
X373319Y557286D01*
X373251Y557186D01*
X373186Y557084D01*
X373124Y556980D01*
X373066Y556874D01*
X373011Y556766D01*
X372960Y556656D01*
X372912Y556545D01*
X372868Y556432D01*
X372827Y556318D01*
X372791Y556203D01*
X372758Y556086D01*
X372729Y555968D01*
X372703Y555850D01*
X372682Y555731D01*
X372664Y555611D01*
X372651Y555491D01*
X372641Y555370D01*
X372635Y555249D01*
X372633Y555128D01*
X372632Y555128D02*
X372632Y551389D01*
X372632Y555876D02*
X366649Y558868D01*
X366649Y567049D02*
X366649Y570788D01*
X366649Y567049D02*
X366651Y566956D01*
X366657Y566864D01*
X366666Y566771D01*
X366680Y566680D01*
X366697Y566588D01*
X366718Y566498D01*
X366742Y566409D01*
X366771Y566320D01*
X366803Y566233D01*
X366838Y566148D01*
X366877Y566063D01*
X366919Y565981D01*
X366965Y565900D01*
X367014Y565822D01*
X367067Y565745D01*
X367122Y565671D01*
X367181Y565599D01*
X367242Y565529D01*
X367306Y565462D01*
X367373Y565398D01*
X367443Y565337D01*
X367515Y565278D01*
X367589Y565223D01*
X367666Y565170D01*
X367744Y565121D01*
X367825Y565075D01*
X367907Y565033D01*
X367992Y564994D01*
X368077Y564959D01*
X368164Y564927D01*
X368253Y564898D01*
X368342Y564874D01*
X368432Y564853D01*
X368524Y564836D01*
X368615Y564822D01*
X368708Y564813D01*
X368800Y564807D01*
X368893Y564805D01*
X372632Y564805D01*
X372740Y564807D01*
X372848Y564813D01*
X372955Y564823D01*
X373063Y564836D01*
X373169Y564854D01*
X373275Y564875D01*
X373380Y564900D01*
X373484Y564929D01*
X373587Y564962D01*
X373689Y564998D01*
X373789Y565038D01*
X373888Y565082D01*
X373986Y565129D01*
X374081Y565179D01*
X374175Y565233D01*
X374266Y565291D01*
X374356Y565351D01*
X374443Y565415D01*
X374527Y565482D01*
X374610Y565552D01*
X374690Y565625D01*
X374767Y565701D01*
X374841Y565779D01*
X374912Y565860D01*
X374981Y565944D01*
X375046Y566030D01*
X375108Y566118D01*
X375167Y566208D01*
X375223Y566301D01*
X375275Y566396D01*
X375324Y566492D01*
X375370Y566590D01*
X375411Y566690D01*
X375450Y566791D01*
X375484Y566893D01*
X375515Y566997D01*
X375542Y567101D01*
X375565Y567207D01*
X375585Y567313D01*
X375600Y567420D01*
X375612Y567527D01*
X375620Y567635D01*
X375624Y567743D01*
X375624Y567851D01*
X375620Y567959D01*
X375612Y568067D01*
X375600Y568174D01*
X375585Y568281D01*
X375565Y568387D01*
X375542Y568493D01*
X375515Y568597D01*
X375484Y568701D01*
X375450Y568803D01*
X375411Y568904D01*
X375370Y569004D01*
X375324Y569102D01*
X375275Y569198D01*
X375223Y569293D01*
X375167Y569386D01*
X375108Y569476D01*
X375046Y569564D01*
X374981Y569650D01*
X374912Y569734D01*
X374841Y569815D01*
X374767Y569893D01*
X374690Y569969D01*
X374610Y570042D01*
X374527Y570112D01*
X374443Y570179D01*
X374356Y570243D01*
X374266Y570303D01*
X374175Y570361D01*
X374081Y570415D01*
X373986Y570465D01*
X373888Y570512D01*
X373789Y570556D01*
X373689Y570596D01*
X373587Y570632D01*
X373484Y570665D01*
X373380Y570694D01*
X373275Y570719D01*
X373169Y570740D01*
X373063Y570758D01*
X372955Y570771D01*
X372848Y570781D01*
X372740Y570787D01*
X372632Y570789D01*
X372632Y570788D02*
X371136Y570788D01*
X371136Y564805D01*
X375624Y576212D02*
X366649Y579204D01*
X375624Y582196D01*
X366649Y587036D02*
X380111Y591524D01*
X366649Y596011D01*
X370015Y594889D02*
X370015Y588158D01*
D11*
X312000Y613750D02*
X312000Y56250D01*
X312000Y613750D02*
X88000Y613750D01*
X88000Y56250D01*
X312000Y56250D01*
D12*
X261238Y512762D02*
X242762Y512762D01*
X261238Y512762D02*
X261238Y517894D01*
X261236Y518035D01*
X261230Y518177D01*
X261220Y518318D01*
X261207Y518459D01*
X261189Y518599D01*
X261168Y518739D01*
X261143Y518878D01*
X261114Y519016D01*
X261081Y519154D01*
X261044Y519290D01*
X261004Y519426D01*
X260960Y519560D01*
X260912Y519693D01*
X260861Y519825D01*
X260806Y519956D01*
X260747Y520084D01*
X260685Y520211D01*
X260619Y520337D01*
X260550Y520460D01*
X260478Y520581D01*
X260402Y520701D01*
X260323Y520818D01*
X260241Y520933D01*
X260156Y521046D01*
X260067Y521157D01*
X259976Y521264D01*
X259882Y521370D01*
X259785Y521473D01*
X259685Y521573D01*
X259582Y521670D01*
X259476Y521764D01*
X259369Y521855D01*
X259258Y521944D01*
X259145Y522029D01*
X259030Y522111D01*
X258913Y522190D01*
X258793Y522266D01*
X258672Y522338D01*
X258549Y522407D01*
X258423Y522473D01*
X258296Y522535D01*
X258168Y522594D01*
X258037Y522649D01*
X257905Y522700D01*
X257772Y522748D01*
X257638Y522792D01*
X257502Y522832D01*
X257366Y522869D01*
X257228Y522902D01*
X257090Y522931D01*
X256951Y522956D01*
X256811Y522977D01*
X256671Y522995D01*
X256530Y523008D01*
X256389Y523018D01*
X256247Y523024D01*
X256106Y523026D01*
X255965Y523024D01*
X255823Y523018D01*
X255682Y523008D01*
X255541Y522995D01*
X255401Y522977D01*
X255261Y522956D01*
X255122Y522931D01*
X254984Y522902D01*
X254846Y522869D01*
X254710Y522832D01*
X254574Y522792D01*
X254440Y522748D01*
X254307Y522700D01*
X254175Y522649D01*
X254044Y522594D01*
X253916Y522535D01*
X253789Y522473D01*
X253663Y522407D01*
X253540Y522338D01*
X253419Y522266D01*
X253299Y522190D01*
X253182Y522111D01*
X253067Y522029D01*
X252954Y521944D01*
X252843Y521855D01*
X252736Y521764D01*
X252630Y521670D01*
X252527Y521573D01*
X252427Y521473D01*
X252330Y521370D01*
X252236Y521264D01*
X252145Y521157D01*
X252056Y521046D01*
X251971Y520933D01*
X251889Y520818D01*
X251810Y520701D01*
X251734Y520581D01*
X251662Y520460D01*
X251593Y520337D01*
X251527Y520211D01*
X251465Y520084D01*
X251406Y519956D01*
X251351Y519825D01*
X251300Y519693D01*
X251252Y519560D01*
X251208Y519426D01*
X251168Y519290D01*
X251131Y519154D01*
X251098Y519016D01*
X251069Y518878D01*
X251044Y518739D01*
X251023Y518599D01*
X251005Y518459D01*
X250992Y518318D01*
X250982Y518177D01*
X250976Y518035D01*
X250974Y517894D01*
X250974Y512762D01*
X247894Y529248D02*
X256106Y529248D01*
X256247Y529250D01*
X256389Y529256D01*
X256530Y529266D01*
X256671Y529279D01*
X256811Y529297D01*
X256951Y529318D01*
X257090Y529343D01*
X257228Y529372D01*
X257366Y529405D01*
X257502Y529442D01*
X257638Y529482D01*
X257772Y529526D01*
X257905Y529574D01*
X258037Y529625D01*
X258168Y529680D01*
X258296Y529739D01*
X258423Y529801D01*
X258549Y529867D01*
X258672Y529936D01*
X258793Y530008D01*
X258913Y530084D01*
X259030Y530163D01*
X259145Y530245D01*
X259258Y530330D01*
X259369Y530419D01*
X259476Y530510D01*
X259582Y530604D01*
X259685Y530701D01*
X259785Y530801D01*
X259882Y530904D01*
X259976Y531010D01*
X260067Y531117D01*
X260156Y531228D01*
X260241Y531341D01*
X260323Y531456D01*
X260402Y531573D01*
X260478Y531693D01*
X260550Y531814D01*
X260619Y531937D01*
X260685Y532063D01*
X260747Y532190D01*
X260806Y532318D01*
X260861Y532449D01*
X260912Y532581D01*
X260960Y532714D01*
X261004Y532848D01*
X261044Y532984D01*
X261081Y533120D01*
X261114Y533258D01*
X261143Y533396D01*
X261168Y533535D01*
X261189Y533675D01*
X261207Y533815D01*
X261220Y533956D01*
X261230Y534097D01*
X261236Y534239D01*
X261238Y534380D01*
X261236Y534521D01*
X261230Y534663D01*
X261220Y534804D01*
X261207Y534945D01*
X261189Y535085D01*
X261168Y535225D01*
X261143Y535364D01*
X261114Y535502D01*
X261081Y535640D01*
X261044Y535776D01*
X261004Y535912D01*
X260960Y536046D01*
X260912Y536179D01*
X260861Y536311D01*
X260806Y536442D01*
X260747Y536570D01*
X260685Y536697D01*
X260619Y536823D01*
X260550Y536946D01*
X260478Y537067D01*
X260402Y537187D01*
X260323Y537304D01*
X260241Y537419D01*
X260156Y537532D01*
X260067Y537643D01*
X259976Y537750D01*
X259882Y537856D01*
X259785Y537959D01*
X259685Y538059D01*
X259582Y538156D01*
X259476Y538250D01*
X259369Y538341D01*
X259258Y538430D01*
X259145Y538515D01*
X259030Y538597D01*
X258913Y538676D01*
X258793Y538752D01*
X258672Y538824D01*
X258549Y538893D01*
X258423Y538959D01*
X258296Y539021D01*
X258168Y539080D01*
X258037Y539135D01*
X257905Y539186D01*
X257772Y539234D01*
X257638Y539278D01*
X257502Y539318D01*
X257366Y539355D01*
X257228Y539388D01*
X257090Y539417D01*
X256951Y539442D01*
X256811Y539463D01*
X256671Y539481D01*
X256530Y539494D01*
X256389Y539504D01*
X256247Y539510D01*
X256106Y539512D01*
X247894Y539512D01*
X247753Y539510D01*
X247611Y539504D01*
X247470Y539494D01*
X247329Y539481D01*
X247189Y539463D01*
X247049Y539442D01*
X246910Y539417D01*
X246772Y539388D01*
X246634Y539355D01*
X246498Y539318D01*
X246362Y539278D01*
X246228Y539234D01*
X246095Y539186D01*
X245963Y539135D01*
X245832Y539080D01*
X245704Y539021D01*
X245577Y538959D01*
X245451Y538893D01*
X245328Y538824D01*
X245207Y538752D01*
X245087Y538676D01*
X244970Y538597D01*
X244855Y538515D01*
X244742Y538430D01*
X244631Y538341D01*
X244524Y538250D01*
X244418Y538156D01*
X244315Y538059D01*
X244215Y537959D01*
X244118Y537856D01*
X244024Y537750D01*
X243933Y537643D01*
X243844Y537532D01*
X243759Y537419D01*
X243677Y537304D01*
X243598Y537187D01*
X243522Y537067D01*
X243450Y536946D01*
X243381Y536823D01*
X243315Y536697D01*
X243253Y536570D01*
X243194Y536442D01*
X243139Y536311D01*
X243088Y536179D01*
X243040Y536046D01*
X242996Y535912D01*
X242956Y535776D01*
X242919Y535640D01*
X242886Y535502D01*
X242857Y535364D01*
X242832Y535225D01*
X242811Y535085D01*
X242793Y534945D01*
X242780Y534804D01*
X242770Y534663D01*
X242764Y534521D01*
X242762Y534380D01*
X242764Y534239D01*
X242770Y534097D01*
X242780Y533956D01*
X242793Y533815D01*
X242811Y533675D01*
X242832Y533535D01*
X242857Y533396D01*
X242886Y533258D01*
X242919Y533120D01*
X242956Y532984D01*
X242996Y532848D01*
X243040Y532714D01*
X243088Y532581D01*
X243139Y532449D01*
X243194Y532318D01*
X243253Y532190D01*
X243315Y532063D01*
X243381Y531937D01*
X243450Y531814D01*
X243522Y531693D01*
X243598Y531573D01*
X243677Y531456D01*
X243759Y531341D01*
X243844Y531228D01*
X243933Y531117D01*
X244024Y531010D01*
X244118Y530904D01*
X244215Y530801D01*
X244315Y530701D01*
X244418Y530604D01*
X244524Y530510D01*
X244631Y530419D01*
X244742Y530330D01*
X244855Y530245D01*
X244970Y530163D01*
X245087Y530084D01*
X245207Y530008D01*
X245328Y529936D01*
X245451Y529867D01*
X245577Y529801D01*
X245704Y529739D01*
X245832Y529680D01*
X245963Y529625D01*
X246095Y529574D01*
X246228Y529526D01*
X246362Y529482D01*
X246498Y529442D01*
X246634Y529405D01*
X246772Y529372D01*
X246910Y529343D01*
X247049Y529318D01*
X247189Y529297D01*
X247329Y529279D01*
X247470Y529266D01*
X247611Y529256D01*
X247753Y529250D01*
X247894Y529248D01*
X242762Y552081D02*
X242764Y552207D01*
X242770Y552334D01*
X242780Y552460D01*
X242793Y552586D01*
X242811Y552711D01*
X242832Y552835D01*
X242857Y552959D01*
X242886Y553083D01*
X242919Y553205D01*
X242955Y553326D01*
X242995Y553446D01*
X243039Y553564D01*
X243087Y553681D01*
X243138Y553797D01*
X243192Y553911D01*
X243251Y554024D01*
X243312Y554134D01*
X243377Y554243D01*
X243445Y554349D01*
X243517Y554453D01*
X243591Y554555D01*
X243669Y554655D01*
X243750Y554752D01*
X243834Y554847D01*
X243920Y554939D01*
X244010Y555029D01*
X244102Y555115D01*
X244197Y555199D01*
X244294Y555280D01*
X244394Y555358D01*
X244496Y555432D01*
X244600Y555504D01*
X244706Y555572D01*
X244815Y555637D01*
X244925Y555698D01*
X245038Y555757D01*
X245152Y555811D01*
X245268Y555862D01*
X245385Y555910D01*
X245503Y555954D01*
X245623Y555994D01*
X245744Y556030D01*
X245866Y556063D01*
X245990Y556092D01*
X246114Y556117D01*
X246238Y556138D01*
X246363Y556156D01*
X246489Y556169D01*
X246615Y556179D01*
X246742Y556185D01*
X246868Y556187D01*
X242762Y552081D02*
X242764Y551873D01*
X242772Y551666D01*
X242784Y551459D01*
X242802Y551252D01*
X242824Y551046D01*
X242851Y550840D01*
X242883Y550635D01*
X242920Y550431D01*
X242962Y550228D01*
X243009Y550025D01*
X243061Y549824D01*
X243117Y549625D01*
X243178Y549426D01*
X243244Y549229D01*
X243315Y549034D01*
X243390Y548841D01*
X243470Y548649D01*
X243554Y548460D01*
X243643Y548272D01*
X243736Y548087D01*
X243834Y547904D01*
X243936Y547723D01*
X244043Y547545D01*
X244153Y547369D01*
X244268Y547196D01*
X244387Y547026D01*
X244510Y546859D01*
X244637Y546695D01*
X244768Y546534D01*
X244902Y546376D01*
X245041Y546221D01*
X245183Y546070D01*
X245328Y545922D01*
X257132Y546436D02*
X257258Y546438D01*
X257385Y546444D01*
X257511Y546454D01*
X257637Y546467D01*
X257762Y546485D01*
X257886Y546506D01*
X258010Y546531D01*
X258134Y546560D01*
X258256Y546593D01*
X258377Y546629D01*
X258497Y546669D01*
X258615Y546713D01*
X258732Y546761D01*
X258848Y546812D01*
X258962Y546866D01*
X259075Y546925D01*
X259185Y546986D01*
X259294Y547051D01*
X259400Y547119D01*
X259504Y547191D01*
X259606Y547265D01*
X259706Y547343D01*
X259803Y547424D01*
X259898Y547508D01*
X259990Y547594D01*
X260080Y547684D01*
X260166Y547776D01*
X260250Y547871D01*
X260331Y547968D01*
X260409Y548068D01*
X260483Y548170D01*
X260555Y548274D01*
X260623Y548380D01*
X260688Y548489D01*
X260749Y548599D01*
X260808Y548712D01*
X260862Y548826D01*
X260913Y548942D01*
X260961Y549059D01*
X261005Y549177D01*
X261045Y549297D01*
X261081Y549418D01*
X261114Y549541D01*
X261143Y549664D01*
X261168Y549788D01*
X261189Y549912D01*
X261207Y550037D01*
X261220Y550163D01*
X261230Y550289D01*
X261236Y550416D01*
X261238Y550542D01*
X261238Y550541D02*
X261236Y550725D01*
X261229Y550908D01*
X261218Y551091D01*
X261203Y551274D01*
X261183Y551456D01*
X261159Y551638D01*
X261131Y551819D01*
X261098Y552000D01*
X261062Y552180D01*
X261020Y552358D01*
X260975Y552536D01*
X260925Y552713D01*
X260871Y552888D01*
X260813Y553062D01*
X260751Y553235D01*
X260685Y553406D01*
X260615Y553575D01*
X260540Y553743D01*
X260462Y553909D01*
X260380Y554073D01*
X260294Y554235D01*
X260204Y554395D01*
X260110Y554553D01*
X260013Y554708D01*
X259911Y554861D01*
X259807Y555012D01*
X259698Y555160D01*
X253539Y548489D02*
X253606Y548380D01*
X253675Y548274D01*
X253748Y548169D01*
X253824Y548067D01*
X253903Y547967D01*
X253985Y547870D01*
X254070Y547775D01*
X254158Y547683D01*
X254249Y547593D01*
X254342Y547507D01*
X254438Y547423D01*
X254537Y547342D01*
X254637Y547264D01*
X254741Y547190D01*
X254846Y547118D01*
X254954Y547050D01*
X255063Y546985D01*
X255175Y546924D01*
X255288Y546866D01*
X255403Y546811D01*
X255520Y546760D01*
X255638Y546713D01*
X255757Y546669D01*
X255878Y546629D01*
X256000Y546593D01*
X256123Y546560D01*
X256247Y546531D01*
X256372Y546506D01*
X256498Y546485D01*
X256624Y546467D01*
X256751Y546453D01*
X256877Y546444D01*
X257005Y546438D01*
X257132Y546436D01*
X250461Y554134D02*
X250394Y554243D01*
X250325Y554349D01*
X250252Y554454D01*
X250176Y554556D01*
X250097Y554656D01*
X250015Y554753D01*
X249930Y554848D01*
X249842Y554940D01*
X249751Y555030D01*
X249658Y555116D01*
X249562Y555200D01*
X249464Y555281D01*
X249363Y555358D01*
X249259Y555433D01*
X249154Y555505D01*
X249046Y555573D01*
X248937Y555638D01*
X248825Y555699D01*
X248712Y555757D01*
X248597Y555812D01*
X248480Y555863D01*
X248362Y555910D01*
X248243Y555954D01*
X248122Y555994D01*
X248000Y556030D01*
X247877Y556063D01*
X247753Y556092D01*
X247628Y556117D01*
X247502Y556138D01*
X247376Y556156D01*
X247249Y556170D01*
X247123Y556179D01*
X246995Y556185D01*
X246868Y556187D01*
X250460Y554134D02*
X253540Y548489D01*
X157238Y116762D02*
X138762Y116762D01*
X157238Y116762D02*
X157238Y121894D01*
X157236Y122035D01*
X157230Y122177D01*
X157220Y122318D01*
X157207Y122459D01*
X157189Y122599D01*
X157168Y122739D01*
X157143Y122878D01*
X157114Y123016D01*
X157081Y123154D01*
X157044Y123290D01*
X157004Y123426D01*
X156960Y123560D01*
X156912Y123693D01*
X156861Y123825D01*
X156806Y123956D01*
X156747Y124084D01*
X156685Y124211D01*
X156619Y124337D01*
X156550Y124460D01*
X156478Y124581D01*
X156402Y124701D01*
X156323Y124818D01*
X156241Y124933D01*
X156156Y125046D01*
X156067Y125157D01*
X155976Y125264D01*
X155882Y125370D01*
X155785Y125473D01*
X155685Y125573D01*
X155582Y125670D01*
X155476Y125764D01*
X155369Y125855D01*
X155258Y125944D01*
X155145Y126029D01*
X155030Y126111D01*
X154913Y126190D01*
X154793Y126266D01*
X154672Y126338D01*
X154549Y126407D01*
X154423Y126473D01*
X154296Y126535D01*
X154168Y126594D01*
X154037Y126649D01*
X153905Y126700D01*
X153772Y126748D01*
X153638Y126792D01*
X153502Y126832D01*
X153366Y126869D01*
X153228Y126902D01*
X153090Y126931D01*
X152951Y126956D01*
X152811Y126977D01*
X152671Y126995D01*
X152530Y127008D01*
X152389Y127018D01*
X152247Y127024D01*
X152106Y127026D01*
X151965Y127024D01*
X151823Y127018D01*
X151682Y127008D01*
X151541Y126995D01*
X151401Y126977D01*
X151261Y126956D01*
X151122Y126931D01*
X150984Y126902D01*
X150846Y126869D01*
X150710Y126832D01*
X150574Y126792D01*
X150440Y126748D01*
X150307Y126700D01*
X150175Y126649D01*
X150044Y126594D01*
X149916Y126535D01*
X149789Y126473D01*
X149663Y126407D01*
X149540Y126338D01*
X149419Y126266D01*
X149299Y126190D01*
X149182Y126111D01*
X149067Y126029D01*
X148954Y125944D01*
X148843Y125855D01*
X148736Y125764D01*
X148630Y125670D01*
X148527Y125573D01*
X148427Y125473D01*
X148330Y125370D01*
X148236Y125264D01*
X148145Y125157D01*
X148056Y125046D01*
X147971Y124933D01*
X147889Y124818D01*
X147810Y124701D01*
X147734Y124581D01*
X147662Y124460D01*
X147593Y124337D01*
X147527Y124211D01*
X147465Y124084D01*
X147406Y123956D01*
X147351Y123825D01*
X147300Y123693D01*
X147252Y123560D01*
X147208Y123426D01*
X147168Y123290D01*
X147131Y123154D01*
X147098Y123016D01*
X147069Y122878D01*
X147044Y122739D01*
X147023Y122599D01*
X147005Y122459D01*
X146992Y122318D01*
X146982Y122177D01*
X146976Y122035D01*
X146974Y121894D01*
X146974Y116762D01*
X143894Y133248D02*
X152106Y133248D01*
X152247Y133250D01*
X152389Y133256D01*
X152530Y133266D01*
X152671Y133279D01*
X152811Y133297D01*
X152951Y133318D01*
X153090Y133343D01*
X153228Y133372D01*
X153366Y133405D01*
X153502Y133442D01*
X153638Y133482D01*
X153772Y133526D01*
X153905Y133574D01*
X154037Y133625D01*
X154168Y133680D01*
X154296Y133739D01*
X154423Y133801D01*
X154549Y133867D01*
X154672Y133936D01*
X154793Y134008D01*
X154913Y134084D01*
X155030Y134163D01*
X155145Y134245D01*
X155258Y134330D01*
X155369Y134419D01*
X155476Y134510D01*
X155582Y134604D01*
X155685Y134701D01*
X155785Y134801D01*
X155882Y134904D01*
X155976Y135010D01*
X156067Y135117D01*
X156156Y135228D01*
X156241Y135341D01*
X156323Y135456D01*
X156402Y135573D01*
X156478Y135693D01*
X156550Y135814D01*
X156619Y135937D01*
X156685Y136063D01*
X156747Y136190D01*
X156806Y136318D01*
X156861Y136449D01*
X156912Y136581D01*
X156960Y136714D01*
X157004Y136848D01*
X157044Y136984D01*
X157081Y137120D01*
X157114Y137258D01*
X157143Y137396D01*
X157168Y137535D01*
X157189Y137675D01*
X157207Y137815D01*
X157220Y137956D01*
X157230Y138097D01*
X157236Y138239D01*
X157238Y138380D01*
X157236Y138521D01*
X157230Y138663D01*
X157220Y138804D01*
X157207Y138945D01*
X157189Y139085D01*
X157168Y139225D01*
X157143Y139364D01*
X157114Y139502D01*
X157081Y139640D01*
X157044Y139776D01*
X157004Y139912D01*
X156960Y140046D01*
X156912Y140179D01*
X156861Y140311D01*
X156806Y140442D01*
X156747Y140570D01*
X156685Y140697D01*
X156619Y140823D01*
X156550Y140946D01*
X156478Y141067D01*
X156402Y141187D01*
X156323Y141304D01*
X156241Y141419D01*
X156156Y141532D01*
X156067Y141643D01*
X155976Y141750D01*
X155882Y141856D01*
X155785Y141959D01*
X155685Y142059D01*
X155582Y142156D01*
X155476Y142250D01*
X155369Y142341D01*
X155258Y142430D01*
X155145Y142515D01*
X155030Y142597D01*
X154913Y142676D01*
X154793Y142752D01*
X154672Y142824D01*
X154549Y142893D01*
X154423Y142959D01*
X154296Y143021D01*
X154168Y143080D01*
X154037Y143135D01*
X153905Y143186D01*
X153772Y143234D01*
X153638Y143278D01*
X153502Y143318D01*
X153366Y143355D01*
X153228Y143388D01*
X153090Y143417D01*
X152951Y143442D01*
X152811Y143463D01*
X152671Y143481D01*
X152530Y143494D01*
X152389Y143504D01*
X152247Y143510D01*
X152106Y143512D01*
X143894Y143512D01*
X143753Y143510D01*
X143611Y143504D01*
X143470Y143494D01*
X143329Y143481D01*
X143189Y143463D01*
X143049Y143442D01*
X142910Y143417D01*
X142772Y143388D01*
X142634Y143355D01*
X142498Y143318D01*
X142362Y143278D01*
X142228Y143234D01*
X142095Y143186D01*
X141963Y143135D01*
X141832Y143080D01*
X141704Y143021D01*
X141577Y142959D01*
X141451Y142893D01*
X141328Y142824D01*
X141207Y142752D01*
X141087Y142676D01*
X140970Y142597D01*
X140855Y142515D01*
X140742Y142430D01*
X140631Y142341D01*
X140524Y142250D01*
X140418Y142156D01*
X140315Y142059D01*
X140215Y141959D01*
X140118Y141856D01*
X140024Y141750D01*
X139933Y141643D01*
X139844Y141532D01*
X139759Y141419D01*
X139677Y141304D01*
X139598Y141187D01*
X139522Y141067D01*
X139450Y140946D01*
X139381Y140823D01*
X139315Y140697D01*
X139253Y140570D01*
X139194Y140442D01*
X139139Y140311D01*
X139088Y140179D01*
X139040Y140046D01*
X138996Y139912D01*
X138956Y139776D01*
X138919Y139640D01*
X138886Y139502D01*
X138857Y139364D01*
X138832Y139225D01*
X138811Y139085D01*
X138793Y138945D01*
X138780Y138804D01*
X138770Y138663D01*
X138764Y138521D01*
X138762Y138380D01*
X138764Y138239D01*
X138770Y138097D01*
X138780Y137956D01*
X138793Y137815D01*
X138811Y137675D01*
X138832Y137535D01*
X138857Y137396D01*
X138886Y137258D01*
X138919Y137120D01*
X138956Y136984D01*
X138996Y136848D01*
X139040Y136714D01*
X139088Y136581D01*
X139139Y136449D01*
X139194Y136318D01*
X139253Y136190D01*
X139315Y136063D01*
X139381Y135937D01*
X139450Y135814D01*
X139522Y135693D01*
X139598Y135573D01*
X139677Y135456D01*
X139759Y135341D01*
X139844Y135228D01*
X139933Y135117D01*
X140024Y135010D01*
X140118Y134904D01*
X140215Y134801D01*
X140315Y134701D01*
X140418Y134604D01*
X140524Y134510D01*
X140631Y134419D01*
X140742Y134330D01*
X140855Y134245D01*
X140970Y134163D01*
X141087Y134084D01*
X141207Y134008D01*
X141328Y133936D01*
X141451Y133867D01*
X141577Y133801D01*
X141704Y133739D01*
X141832Y133680D01*
X141963Y133625D01*
X142095Y133574D01*
X142228Y133526D01*
X142362Y133482D01*
X142498Y133442D01*
X142634Y133405D01*
X142772Y133372D01*
X142910Y133343D01*
X143049Y133318D01*
X143189Y133297D01*
X143329Y133279D01*
X143470Y133266D01*
X143611Y133256D01*
X143753Y133250D01*
X143894Y133248D01*
X138762Y156081D02*
X138764Y156207D01*
X138770Y156334D01*
X138780Y156460D01*
X138793Y156586D01*
X138811Y156711D01*
X138832Y156835D01*
X138857Y156959D01*
X138886Y157083D01*
X138919Y157205D01*
X138955Y157326D01*
X138995Y157446D01*
X139039Y157564D01*
X139087Y157681D01*
X139138Y157797D01*
X139192Y157911D01*
X139251Y158024D01*
X139312Y158134D01*
X139377Y158243D01*
X139445Y158349D01*
X139517Y158453D01*
X139591Y158555D01*
X139669Y158655D01*
X139750Y158752D01*
X139834Y158847D01*
X139920Y158939D01*
X140010Y159029D01*
X140102Y159115D01*
X140197Y159199D01*
X140294Y159280D01*
X140394Y159358D01*
X140496Y159432D01*
X140600Y159504D01*
X140706Y159572D01*
X140815Y159637D01*
X140925Y159698D01*
X141038Y159757D01*
X141152Y159811D01*
X141268Y159862D01*
X141385Y159910D01*
X141503Y159954D01*
X141623Y159994D01*
X141744Y160030D01*
X141866Y160063D01*
X141990Y160092D01*
X142114Y160117D01*
X142238Y160138D01*
X142363Y160156D01*
X142489Y160169D01*
X142615Y160179D01*
X142742Y160185D01*
X142868Y160187D01*
X138762Y156081D02*
X138764Y155873D01*
X138772Y155666D01*
X138784Y155459D01*
X138802Y155252D01*
X138824Y155046D01*
X138851Y154840D01*
X138883Y154635D01*
X138920Y154431D01*
X138962Y154228D01*
X139009Y154025D01*
X139061Y153824D01*
X139117Y153625D01*
X139178Y153426D01*
X139244Y153229D01*
X139315Y153034D01*
X139390Y152841D01*
X139470Y152649D01*
X139554Y152460D01*
X139643Y152272D01*
X139736Y152087D01*
X139834Y151904D01*
X139936Y151723D01*
X140043Y151545D01*
X140153Y151369D01*
X140268Y151196D01*
X140387Y151026D01*
X140510Y150859D01*
X140637Y150695D01*
X140768Y150534D01*
X140902Y150376D01*
X141041Y150221D01*
X141183Y150070D01*
X141328Y149922D01*
X153132Y150436D02*
X153258Y150438D01*
X153385Y150444D01*
X153511Y150454D01*
X153637Y150467D01*
X153762Y150485D01*
X153886Y150506D01*
X154010Y150531D01*
X154134Y150560D01*
X154256Y150593D01*
X154377Y150629D01*
X154497Y150669D01*
X154615Y150713D01*
X154732Y150761D01*
X154848Y150812D01*
X154962Y150866D01*
X155075Y150925D01*
X155185Y150986D01*
X155294Y151051D01*
X155400Y151119D01*
X155504Y151191D01*
X155606Y151265D01*
X155706Y151343D01*
X155803Y151424D01*
X155898Y151508D01*
X155990Y151594D01*
X156080Y151684D01*
X156166Y151776D01*
X156250Y151871D01*
X156331Y151968D01*
X156409Y152068D01*
X156483Y152170D01*
X156555Y152274D01*
X156623Y152380D01*
X156688Y152489D01*
X156749Y152599D01*
X156808Y152712D01*
X156862Y152826D01*
X156913Y152942D01*
X156961Y153059D01*
X157005Y153177D01*
X157045Y153297D01*
X157081Y153418D01*
X157114Y153541D01*
X157143Y153664D01*
X157168Y153788D01*
X157189Y153912D01*
X157207Y154037D01*
X157220Y154163D01*
X157230Y154289D01*
X157236Y154416D01*
X157238Y154542D01*
X157238Y154541D02*
X157236Y154725D01*
X157229Y154908D01*
X157218Y155091D01*
X157203Y155274D01*
X157183Y155456D01*
X157159Y155638D01*
X157131Y155819D01*
X157098Y156000D01*
X157062Y156180D01*
X157020Y156358D01*
X156975Y156536D01*
X156925Y156713D01*
X156871Y156888D01*
X156813Y157062D01*
X156751Y157235D01*
X156685Y157406D01*
X156615Y157575D01*
X156540Y157743D01*
X156462Y157909D01*
X156380Y158073D01*
X156294Y158235D01*
X156204Y158395D01*
X156110Y158553D01*
X156013Y158708D01*
X155911Y158861D01*
X155807Y159012D01*
X155698Y159160D01*
X149539Y152489D02*
X149606Y152380D01*
X149675Y152274D01*
X149748Y152169D01*
X149824Y152067D01*
X149903Y151967D01*
X149985Y151870D01*
X150070Y151775D01*
X150158Y151683D01*
X150249Y151593D01*
X150342Y151507D01*
X150438Y151423D01*
X150537Y151342D01*
X150637Y151264D01*
X150741Y151190D01*
X150846Y151118D01*
X150954Y151050D01*
X151063Y150985D01*
X151175Y150924D01*
X151288Y150866D01*
X151403Y150811D01*
X151520Y150760D01*
X151638Y150713D01*
X151757Y150669D01*
X151878Y150629D01*
X152000Y150593D01*
X152123Y150560D01*
X152247Y150531D01*
X152372Y150506D01*
X152498Y150485D01*
X152624Y150467D01*
X152751Y150453D01*
X152877Y150444D01*
X153005Y150438D01*
X153132Y150436D01*
X146461Y158134D02*
X146394Y158243D01*
X146325Y158349D01*
X146252Y158454D01*
X146176Y158556D01*
X146097Y158656D01*
X146015Y158753D01*
X145930Y158848D01*
X145842Y158940D01*
X145751Y159030D01*
X145658Y159116D01*
X145562Y159200D01*
X145464Y159281D01*
X145363Y159358D01*
X145259Y159433D01*
X145154Y159505D01*
X145046Y159573D01*
X144937Y159638D01*
X144825Y159699D01*
X144712Y159757D01*
X144597Y159812D01*
X144480Y159863D01*
X144362Y159910D01*
X144243Y159954D01*
X144122Y159994D01*
X144000Y160030D01*
X143877Y160063D01*
X143753Y160092D01*
X143628Y160117D01*
X143502Y160138D01*
X143376Y160156D01*
X143249Y160170D01*
X143123Y160179D01*
X142995Y160185D01*
X142868Y160187D01*
X146460Y158134D02*
X149540Y152489D01*
X242762Y116762D02*
X261238Y116762D01*
X242762Y127026D01*
X261238Y127026D01*
X242762Y135190D02*
X242762Y143402D01*
X242762Y135190D02*
X261238Y135190D01*
X261238Y143402D01*
X253026Y141349D02*
X253026Y135190D01*
X253026Y157297D02*
X253026Y160376D01*
X242762Y160376D01*
X242762Y154218D01*
X242764Y154092D01*
X242770Y153965D01*
X242780Y153839D01*
X242793Y153713D01*
X242811Y153588D01*
X242832Y153464D01*
X242857Y153340D01*
X242886Y153216D01*
X242919Y153094D01*
X242955Y152973D01*
X242995Y152853D01*
X243039Y152735D01*
X243087Y152618D01*
X243138Y152502D01*
X243192Y152388D01*
X243251Y152275D01*
X243312Y152165D01*
X243377Y152056D01*
X243445Y151950D01*
X243517Y151846D01*
X243591Y151744D01*
X243669Y151644D01*
X243750Y151547D01*
X243834Y151452D01*
X243920Y151360D01*
X244010Y151270D01*
X244102Y151184D01*
X244197Y151100D01*
X244294Y151019D01*
X244394Y150941D01*
X244496Y150867D01*
X244600Y150795D01*
X244706Y150727D01*
X244815Y150662D01*
X244925Y150601D01*
X245038Y150542D01*
X245152Y150488D01*
X245268Y150437D01*
X245385Y150389D01*
X245503Y150345D01*
X245623Y150305D01*
X245744Y150269D01*
X245866Y150236D01*
X245990Y150207D01*
X246114Y150182D01*
X246238Y150161D01*
X246363Y150143D01*
X246489Y150130D01*
X246615Y150120D01*
X246742Y150114D01*
X246868Y150112D01*
X257132Y150112D01*
X257258Y150114D01*
X257385Y150120D01*
X257511Y150130D01*
X257637Y150143D01*
X257762Y150161D01*
X257886Y150182D01*
X258010Y150207D01*
X258134Y150236D01*
X258256Y150269D01*
X258377Y150305D01*
X258497Y150345D01*
X258615Y150389D01*
X258732Y150437D01*
X258848Y150488D01*
X258962Y150542D01*
X259075Y150601D01*
X259185Y150662D01*
X259294Y150727D01*
X259400Y150795D01*
X259504Y150867D01*
X259606Y150941D01*
X259706Y151019D01*
X259803Y151100D01*
X259898Y151184D01*
X259990Y151270D01*
X260080Y151360D01*
X260166Y151452D01*
X260250Y151547D01*
X260331Y151644D01*
X260409Y151744D01*
X260483Y151846D01*
X260555Y151950D01*
X260623Y152056D01*
X260688Y152165D01*
X260749Y152275D01*
X260808Y152388D01*
X260862Y152502D01*
X260913Y152618D01*
X260961Y152735D01*
X261005Y152853D01*
X261045Y152973D01*
X261081Y153094D01*
X261114Y153216D01*
X261143Y153340D01*
X261168Y153463D01*
X261189Y153588D01*
X261207Y153713D01*
X261220Y153839D01*
X261230Y153965D01*
X261236Y154092D01*
X261238Y154218D01*
X261238Y160376D01*
X157238Y512762D02*
X138762Y512762D01*
X138762Y523026D02*
X157238Y512762D01*
X157238Y523026D02*
X138762Y523026D01*
X138762Y531190D02*
X138762Y539402D01*
X138762Y531190D02*
X157238Y531190D01*
X157238Y539402D01*
X149026Y537349D02*
X149026Y531190D01*
X149026Y553297D02*
X149026Y556376D01*
X138762Y556376D01*
X138762Y550218D01*
X138764Y550092D01*
X138770Y549965D01*
X138780Y549839D01*
X138793Y549713D01*
X138811Y549588D01*
X138832Y549464D01*
X138857Y549340D01*
X138886Y549216D01*
X138919Y549094D01*
X138955Y548973D01*
X138995Y548853D01*
X139039Y548735D01*
X139087Y548618D01*
X139138Y548502D01*
X139192Y548388D01*
X139251Y548275D01*
X139312Y548165D01*
X139377Y548056D01*
X139445Y547950D01*
X139517Y547846D01*
X139591Y547744D01*
X139669Y547644D01*
X139750Y547547D01*
X139834Y547452D01*
X139920Y547360D01*
X140010Y547270D01*
X140102Y547184D01*
X140197Y547100D01*
X140294Y547019D01*
X140394Y546941D01*
X140496Y546867D01*
X140600Y546795D01*
X140706Y546727D01*
X140815Y546662D01*
X140925Y546601D01*
X141038Y546542D01*
X141152Y546488D01*
X141268Y546437D01*
X141385Y546389D01*
X141503Y546345D01*
X141623Y546305D01*
X141744Y546269D01*
X141866Y546236D01*
X141990Y546207D01*
X142114Y546182D01*
X142238Y546161D01*
X142363Y546143D01*
X142489Y546130D01*
X142615Y546120D01*
X142742Y546114D01*
X142868Y546112D01*
X153132Y546112D01*
X153258Y546114D01*
X153385Y546120D01*
X153511Y546130D01*
X153637Y546143D01*
X153762Y546161D01*
X153886Y546182D01*
X154010Y546207D01*
X154134Y546236D01*
X154256Y546269D01*
X154377Y546305D01*
X154497Y546345D01*
X154615Y546389D01*
X154732Y546437D01*
X154848Y546488D01*
X154962Y546542D01*
X155075Y546601D01*
X155185Y546662D01*
X155294Y546727D01*
X155400Y546795D01*
X155504Y546867D01*
X155606Y546941D01*
X155706Y547019D01*
X155803Y547100D01*
X155898Y547184D01*
X155990Y547270D01*
X156080Y547360D01*
X156166Y547452D01*
X156250Y547547D01*
X156331Y547644D01*
X156409Y547744D01*
X156483Y547846D01*
X156555Y547950D01*
X156623Y548056D01*
X156688Y548165D01*
X156749Y548275D01*
X156808Y548388D01*
X156862Y548502D01*
X156913Y548618D01*
X156961Y548735D01*
X157005Y548853D01*
X157045Y548973D01*
X157081Y549094D01*
X157114Y549216D01*
X157143Y549340D01*
X157168Y549463D01*
X157189Y549588D01*
X157207Y549713D01*
X157220Y549839D01*
X157230Y549965D01*
X157236Y550092D01*
X157238Y550218D01*
X157238Y556376D01*
X67310Y223520D02*
X64770Y223520D01*
X64770Y220980D01*
X64770Y223520D02*
X62230Y223520D01*
X64770Y223520D02*
X64770Y226060D01*
X25400Y210820D02*
X25408Y211443D01*
X25431Y212066D01*
X25469Y212689D01*
X25522Y213310D01*
X25591Y213929D01*
X25675Y214547D01*
X25774Y215162D01*
X25888Y215775D01*
X26017Y216385D01*
X26161Y216992D01*
X26320Y217595D01*
X26494Y218193D01*
X26682Y218788D01*
X26885Y219377D01*
X27102Y219961D01*
X27333Y220540D01*
X27579Y221113D01*
X27839Y221680D01*
X28112Y222240D01*
X28399Y222793D01*
X28700Y223340D01*
X29014Y223878D01*
X29341Y224409D01*
X29681Y224931D01*
X30033Y225446D01*
X30399Y225951D01*
X30776Y226447D01*
X31166Y226934D01*
X31567Y227411D01*
X31980Y227878D01*
X32404Y228334D01*
X32839Y228781D01*
X33286Y229216D01*
X33742Y229640D01*
X34209Y230053D01*
X34686Y230454D01*
X35173Y230844D01*
X35669Y231221D01*
X36174Y231587D01*
X36689Y231939D01*
X37211Y232279D01*
X37742Y232606D01*
X38280Y232920D01*
X38827Y233221D01*
X39380Y233508D01*
X39940Y233781D01*
X40507Y234041D01*
X41080Y234287D01*
X41659Y234518D01*
X42243Y234735D01*
X42832Y234938D01*
X43427Y235126D01*
X44025Y235300D01*
X44628Y235459D01*
X45235Y235603D01*
X45845Y235732D01*
X46458Y235846D01*
X47073Y235945D01*
X47691Y236029D01*
X48310Y236098D01*
X48931Y236151D01*
X49554Y236189D01*
X50177Y236212D01*
X50800Y236220D01*
X51423Y236212D01*
X52046Y236189D01*
X52669Y236151D01*
X53290Y236098D01*
X53909Y236029D01*
X54527Y235945D01*
X55142Y235846D01*
X55755Y235732D01*
X56365Y235603D01*
X56972Y235459D01*
X57575Y235300D01*
X58173Y235126D01*
X58768Y234938D01*
X59357Y234735D01*
X59941Y234518D01*
X60520Y234287D01*
X61093Y234041D01*
X61660Y233781D01*
X62220Y233508D01*
X62773Y233221D01*
X63320Y232920D01*
X63858Y232606D01*
X64389Y232279D01*
X64911Y231939D01*
X65426Y231587D01*
X65931Y231221D01*
X66427Y230844D01*
X66914Y230454D01*
X67391Y230053D01*
X67858Y229640D01*
X68314Y229216D01*
X68761Y228781D01*
X69196Y228334D01*
X69620Y227878D01*
X70033Y227411D01*
X70434Y226934D01*
X70824Y226447D01*
X71201Y225951D01*
X71567Y225446D01*
X71919Y224931D01*
X72259Y224409D01*
X72586Y223878D01*
X72900Y223340D01*
X73201Y222793D01*
X73488Y222240D01*
X73761Y221680D01*
X74021Y221113D01*
X74267Y220540D01*
X74498Y219961D01*
X74715Y219377D01*
X74918Y218788D01*
X75106Y218193D01*
X75280Y217595D01*
X75439Y216992D01*
X75583Y216385D01*
X75712Y215775D01*
X75826Y215162D01*
X75925Y214547D01*
X76009Y213929D01*
X76078Y213310D01*
X76131Y212689D01*
X76169Y212066D01*
X76192Y211443D01*
X76200Y210820D01*
X76192Y210197D01*
X76169Y209574D01*
X76131Y208951D01*
X76078Y208330D01*
X76009Y207711D01*
X75925Y207093D01*
X75826Y206478D01*
X75712Y205865D01*
X75583Y205255D01*
X75439Y204648D01*
X75280Y204045D01*
X75106Y203447D01*
X74918Y202852D01*
X74715Y202263D01*
X74498Y201679D01*
X74267Y201100D01*
X74021Y200527D01*
X73761Y199960D01*
X73488Y199400D01*
X73201Y198847D01*
X72900Y198300D01*
X72586Y197762D01*
X72259Y197231D01*
X71919Y196709D01*
X71567Y196194D01*
X71201Y195689D01*
X70824Y195193D01*
X70434Y194706D01*
X70033Y194229D01*
X69620Y193762D01*
X69196Y193306D01*
X68761Y192859D01*
X68314Y192424D01*
X67858Y192000D01*
X67391Y191587D01*
X66914Y191186D01*
X66427Y190796D01*
X65931Y190419D01*
X65426Y190053D01*
X64911Y189701D01*
X64389Y189361D01*
X63858Y189034D01*
X63320Y188720D01*
X62773Y188419D01*
X62220Y188132D01*
X61660Y187859D01*
X61093Y187599D01*
X60520Y187353D01*
X59941Y187122D01*
X59357Y186905D01*
X58768Y186702D01*
X58173Y186514D01*
X57575Y186340D01*
X56972Y186181D01*
X56365Y186037D01*
X55755Y185908D01*
X55142Y185794D01*
X54527Y185695D01*
X53909Y185611D01*
X53290Y185542D01*
X52669Y185489D01*
X52046Y185451D01*
X51423Y185428D01*
X50800Y185420D01*
X50177Y185428D01*
X49554Y185451D01*
X48931Y185489D01*
X48310Y185542D01*
X47691Y185611D01*
X47073Y185695D01*
X46458Y185794D01*
X45845Y185908D01*
X45235Y186037D01*
X44628Y186181D01*
X44025Y186340D01*
X43427Y186514D01*
X42832Y186702D01*
X42243Y186905D01*
X41659Y187122D01*
X41080Y187353D01*
X40507Y187599D01*
X39940Y187859D01*
X39380Y188132D01*
X38827Y188419D01*
X38280Y188720D01*
X37742Y189034D01*
X37211Y189361D01*
X36689Y189701D01*
X36174Y190053D01*
X35669Y190419D01*
X35173Y190796D01*
X34686Y191186D01*
X34209Y191587D01*
X33742Y192000D01*
X33286Y192424D01*
X32839Y192859D01*
X32404Y193306D01*
X31980Y193762D01*
X31567Y194229D01*
X31166Y194706D01*
X30776Y195193D01*
X30399Y195689D01*
X30033Y196194D01*
X29681Y196709D01*
X29341Y197231D01*
X29014Y197762D01*
X28700Y198300D01*
X28399Y198847D01*
X28112Y199400D01*
X27839Y199960D01*
X27579Y200527D01*
X27333Y201100D01*
X27102Y201679D01*
X26885Y202263D01*
X26682Y202852D01*
X26494Y203447D01*
X26320Y204045D01*
X26161Y204648D01*
X26017Y205255D01*
X25888Y205865D01*
X25774Y206478D01*
X25675Y207093D01*
X25591Y207711D01*
X25522Y208330D01*
X25469Y208951D01*
X25431Y209574D01*
X25408Y210197D01*
X25400Y210820D01*
D11*
X52705Y245745D02*
X55245Y245745D01*
X55345Y245747D01*
X55444Y245753D01*
X55544Y245763D01*
X55642Y245776D01*
X55741Y245794D01*
X55838Y245815D01*
X55934Y245840D01*
X56030Y245869D01*
X56124Y245902D01*
X56217Y245938D01*
X56308Y245978D01*
X56398Y246022D01*
X56486Y246069D01*
X56572Y246119D01*
X56656Y246173D01*
X56738Y246230D01*
X56817Y246290D01*
X56895Y246354D01*
X56969Y246420D01*
X57041Y246489D01*
X57110Y246561D01*
X57176Y246635D01*
X57240Y246713D01*
X57300Y246792D01*
X57357Y246874D01*
X57411Y246958D01*
X57461Y247044D01*
X57508Y247132D01*
X57552Y247222D01*
X57592Y247313D01*
X57628Y247406D01*
X57661Y247500D01*
X57690Y247596D01*
X57715Y247692D01*
X57736Y247789D01*
X57754Y247888D01*
X57767Y247986D01*
X57777Y248086D01*
X57783Y248185D01*
X57785Y248285D01*
X57785Y254635D01*
X57783Y254735D01*
X57777Y254834D01*
X57767Y254934D01*
X57754Y255032D01*
X57736Y255131D01*
X57715Y255228D01*
X57690Y255324D01*
X57661Y255420D01*
X57628Y255514D01*
X57592Y255607D01*
X57552Y255698D01*
X57508Y255788D01*
X57461Y255876D01*
X57411Y255962D01*
X57357Y256046D01*
X57300Y256128D01*
X57240Y256207D01*
X57176Y256285D01*
X57110Y256359D01*
X57041Y256431D01*
X56969Y256500D01*
X56895Y256566D01*
X56817Y256630D01*
X56738Y256690D01*
X56656Y256747D01*
X56572Y256801D01*
X56486Y256851D01*
X56398Y256898D01*
X56308Y256942D01*
X56217Y256982D01*
X56124Y257018D01*
X56030Y257051D01*
X55934Y257080D01*
X55838Y257105D01*
X55741Y257126D01*
X55642Y257144D01*
X55544Y257157D01*
X55444Y257167D01*
X55345Y257173D01*
X55245Y257175D01*
X52705Y257175D01*
X44730Y257176D02*
X44626Y257174D01*
X44521Y257168D01*
X44417Y257159D01*
X44314Y257146D01*
X44211Y257128D01*
X44109Y257108D01*
X44007Y257083D01*
X43907Y257055D01*
X43807Y257023D01*
X43709Y256987D01*
X43612Y256948D01*
X43517Y256906D01*
X43423Y256860D01*
X43331Y256810D01*
X43241Y256758D01*
X43153Y256702D01*
X43067Y256642D01*
X42983Y256580D01*
X42902Y256515D01*
X42823Y256447D01*
X42746Y256375D01*
X42673Y256302D01*
X42601Y256225D01*
X42533Y256146D01*
X42468Y256065D01*
X42406Y255981D01*
X42346Y255895D01*
X42290Y255807D01*
X42238Y255717D01*
X42188Y255625D01*
X42142Y255531D01*
X42100Y255436D01*
X42061Y255339D01*
X42025Y255241D01*
X41993Y255141D01*
X41965Y255041D01*
X41940Y254939D01*
X41920Y254837D01*
X41902Y254734D01*
X41889Y254631D01*
X41880Y254527D01*
X41874Y254422D01*
X41872Y254318D01*
X44730Y257175D02*
X44848Y257173D01*
X44967Y257167D01*
X45085Y257158D01*
X45202Y257145D01*
X45319Y257127D01*
X45436Y257107D01*
X45552Y257082D01*
X45667Y257054D01*
X45780Y257021D01*
X45893Y256986D01*
X46005Y256946D01*
X46115Y256904D01*
X46224Y256857D01*
X46332Y256807D01*
X46437Y256754D01*
X46541Y256697D01*
X46643Y256637D01*
X46743Y256574D01*
X46841Y256507D01*
X46937Y256438D01*
X47030Y256365D01*
X47121Y256289D01*
X47210Y256211D01*
X47296Y256129D01*
X47379Y256045D01*
X47460Y255959D01*
X47537Y255869D01*
X47612Y255778D01*
X47684Y255684D01*
X47753Y255587D01*
X47818Y255489D01*
X47881Y255388D01*
X47940Y255285D01*
X47996Y255181D01*
X48048Y255075D01*
X48097Y254967D01*
X48142Y254858D01*
X48184Y254747D01*
X48222Y254635D01*
X42825Y252096D02*
X42749Y252171D01*
X42674Y252250D01*
X42603Y252331D01*
X42534Y252415D01*
X42469Y252501D01*
X42407Y252589D01*
X42347Y252679D01*
X42291Y252771D01*
X42238Y252866D01*
X42189Y252962D01*
X42143Y253060D01*
X42100Y253159D01*
X42061Y253260D01*
X42026Y253362D01*
X41994Y253465D01*
X41966Y253569D01*
X41941Y253674D01*
X41920Y253781D01*
X41903Y253887D01*
X41890Y253994D01*
X41881Y254102D01*
X41875Y254210D01*
X41873Y254318D01*
X42825Y252095D02*
X48223Y245745D01*
X41873Y245745D01*
M02*
